G04 #@! TF.GenerationSoftware,KiCad,Pcbnew,(5.1.4-0)*
G04 #@! TF.CreationDate,2019-10-27T21:21:17-04:00*
G04 #@! TF.ProjectId,DifferentialSPIMaster,44696666-6572-4656-9e74-69616c535049,rev?*
G04 #@! TF.SameCoordinates,Original*
G04 #@! TF.FileFunction,Copper,L1,Top*
G04 #@! TF.FilePolarity,Positive*
%FSLAX46Y46*%
G04 Gerber Fmt 4.6, Leading zero omitted, Abs format (unit mm)*
G04 Created by KiCad (PCBNEW (5.1.4-0)) date 2019-10-27 21:21:17*
%MOMM*%
%LPD*%
G04 APERTURE LIST*
%ADD10C,0.100000*%
%ADD11C,1.150000*%
%ADD12R,0.600000X1.550000*%
%ADD13C,2.000000*%
%ADD14C,1.500000*%
%ADD15R,1.500000X1.500000*%
%ADD16R,1.700000X1.700000*%
%ADD17O,1.700000X1.700000*%
%ADD18C,0.762000*%
%ADD19C,0.203200*%
%ADD20C,0.254000*%
G04 APERTURE END LIST*
D10*
G36*
X129879505Y-95006204D02*
G01*
X129903773Y-95009804D01*
X129927572Y-95015765D01*
X129950671Y-95024030D01*
X129972850Y-95034520D01*
X129993893Y-95047132D01*
X130013599Y-95061747D01*
X130031777Y-95078223D01*
X130048253Y-95096401D01*
X130062868Y-95116107D01*
X130075480Y-95137150D01*
X130085970Y-95159329D01*
X130094235Y-95182428D01*
X130100196Y-95206227D01*
X130103796Y-95230495D01*
X130105000Y-95254999D01*
X130105000Y-95905001D01*
X130103796Y-95929505D01*
X130100196Y-95953773D01*
X130094235Y-95977572D01*
X130085970Y-96000671D01*
X130075480Y-96022850D01*
X130062868Y-96043893D01*
X130048253Y-96063599D01*
X130031777Y-96081777D01*
X130013599Y-96098253D01*
X129993893Y-96112868D01*
X129972850Y-96125480D01*
X129950671Y-96135970D01*
X129927572Y-96144235D01*
X129903773Y-96150196D01*
X129879505Y-96153796D01*
X129855001Y-96155000D01*
X128954999Y-96155000D01*
X128930495Y-96153796D01*
X128906227Y-96150196D01*
X128882428Y-96144235D01*
X128859329Y-96135970D01*
X128837150Y-96125480D01*
X128816107Y-96112868D01*
X128796401Y-96098253D01*
X128778223Y-96081777D01*
X128761747Y-96063599D01*
X128747132Y-96043893D01*
X128734520Y-96022850D01*
X128724030Y-96000671D01*
X128715765Y-95977572D01*
X128709804Y-95953773D01*
X128706204Y-95929505D01*
X128705000Y-95905001D01*
X128705000Y-95254999D01*
X128706204Y-95230495D01*
X128709804Y-95206227D01*
X128715765Y-95182428D01*
X128724030Y-95159329D01*
X128734520Y-95137150D01*
X128747132Y-95116107D01*
X128761747Y-95096401D01*
X128778223Y-95078223D01*
X128796401Y-95061747D01*
X128816107Y-95047132D01*
X128837150Y-95034520D01*
X128859329Y-95024030D01*
X128882428Y-95015765D01*
X128906227Y-95009804D01*
X128930495Y-95006204D01*
X128954999Y-95005000D01*
X129855001Y-95005000D01*
X129879505Y-95006204D01*
X129879505Y-95006204D01*
G37*
D11*
X129405000Y-95580000D03*
D10*
G36*
X129879505Y-97056204D02*
G01*
X129903773Y-97059804D01*
X129927572Y-97065765D01*
X129950671Y-97074030D01*
X129972850Y-97084520D01*
X129993893Y-97097132D01*
X130013599Y-97111747D01*
X130031777Y-97128223D01*
X130048253Y-97146401D01*
X130062868Y-97166107D01*
X130075480Y-97187150D01*
X130085970Y-97209329D01*
X130094235Y-97232428D01*
X130100196Y-97256227D01*
X130103796Y-97280495D01*
X130105000Y-97304999D01*
X130105000Y-97955001D01*
X130103796Y-97979505D01*
X130100196Y-98003773D01*
X130094235Y-98027572D01*
X130085970Y-98050671D01*
X130075480Y-98072850D01*
X130062868Y-98093893D01*
X130048253Y-98113599D01*
X130031777Y-98131777D01*
X130013599Y-98148253D01*
X129993893Y-98162868D01*
X129972850Y-98175480D01*
X129950671Y-98185970D01*
X129927572Y-98194235D01*
X129903773Y-98200196D01*
X129879505Y-98203796D01*
X129855001Y-98205000D01*
X128954999Y-98205000D01*
X128930495Y-98203796D01*
X128906227Y-98200196D01*
X128882428Y-98194235D01*
X128859329Y-98185970D01*
X128837150Y-98175480D01*
X128816107Y-98162868D01*
X128796401Y-98148253D01*
X128778223Y-98131777D01*
X128761747Y-98113599D01*
X128747132Y-98093893D01*
X128734520Y-98072850D01*
X128724030Y-98050671D01*
X128715765Y-98027572D01*
X128709804Y-98003773D01*
X128706204Y-97979505D01*
X128705000Y-97955001D01*
X128705000Y-97304999D01*
X128706204Y-97280495D01*
X128709804Y-97256227D01*
X128715765Y-97232428D01*
X128724030Y-97209329D01*
X128734520Y-97187150D01*
X128747132Y-97166107D01*
X128761747Y-97146401D01*
X128778223Y-97128223D01*
X128796401Y-97111747D01*
X128816107Y-97097132D01*
X128837150Y-97084520D01*
X128859329Y-97074030D01*
X128882428Y-97065765D01*
X128906227Y-97059804D01*
X128930495Y-97056204D01*
X128954999Y-97055000D01*
X129855001Y-97055000D01*
X129879505Y-97056204D01*
X129879505Y-97056204D01*
G37*
D11*
X129405000Y-97630000D03*
D10*
G36*
X100034505Y-95006204D02*
G01*
X100058773Y-95009804D01*
X100082572Y-95015765D01*
X100105671Y-95024030D01*
X100127850Y-95034520D01*
X100148893Y-95047132D01*
X100168599Y-95061747D01*
X100186777Y-95078223D01*
X100203253Y-95096401D01*
X100217868Y-95116107D01*
X100230480Y-95137150D01*
X100240970Y-95159329D01*
X100249235Y-95182428D01*
X100255196Y-95206227D01*
X100258796Y-95230495D01*
X100260000Y-95254999D01*
X100260000Y-95905001D01*
X100258796Y-95929505D01*
X100255196Y-95953773D01*
X100249235Y-95977572D01*
X100240970Y-96000671D01*
X100230480Y-96022850D01*
X100217868Y-96043893D01*
X100203253Y-96063599D01*
X100186777Y-96081777D01*
X100168599Y-96098253D01*
X100148893Y-96112868D01*
X100127850Y-96125480D01*
X100105671Y-96135970D01*
X100082572Y-96144235D01*
X100058773Y-96150196D01*
X100034505Y-96153796D01*
X100010001Y-96155000D01*
X99109999Y-96155000D01*
X99085495Y-96153796D01*
X99061227Y-96150196D01*
X99037428Y-96144235D01*
X99014329Y-96135970D01*
X98992150Y-96125480D01*
X98971107Y-96112868D01*
X98951401Y-96098253D01*
X98933223Y-96081777D01*
X98916747Y-96063599D01*
X98902132Y-96043893D01*
X98889520Y-96022850D01*
X98879030Y-96000671D01*
X98870765Y-95977572D01*
X98864804Y-95953773D01*
X98861204Y-95929505D01*
X98860000Y-95905001D01*
X98860000Y-95254999D01*
X98861204Y-95230495D01*
X98864804Y-95206227D01*
X98870765Y-95182428D01*
X98879030Y-95159329D01*
X98889520Y-95137150D01*
X98902132Y-95116107D01*
X98916747Y-95096401D01*
X98933223Y-95078223D01*
X98951401Y-95061747D01*
X98971107Y-95047132D01*
X98992150Y-95034520D01*
X99014329Y-95024030D01*
X99037428Y-95015765D01*
X99061227Y-95009804D01*
X99085495Y-95006204D01*
X99109999Y-95005000D01*
X100010001Y-95005000D01*
X100034505Y-95006204D01*
X100034505Y-95006204D01*
G37*
D11*
X99560000Y-95580000D03*
D10*
G36*
X100034505Y-97056204D02*
G01*
X100058773Y-97059804D01*
X100082572Y-97065765D01*
X100105671Y-97074030D01*
X100127850Y-97084520D01*
X100148893Y-97097132D01*
X100168599Y-97111747D01*
X100186777Y-97128223D01*
X100203253Y-97146401D01*
X100217868Y-97166107D01*
X100230480Y-97187150D01*
X100240970Y-97209329D01*
X100249235Y-97232428D01*
X100255196Y-97256227D01*
X100258796Y-97280495D01*
X100260000Y-97304999D01*
X100260000Y-97955001D01*
X100258796Y-97979505D01*
X100255196Y-98003773D01*
X100249235Y-98027572D01*
X100240970Y-98050671D01*
X100230480Y-98072850D01*
X100217868Y-98093893D01*
X100203253Y-98113599D01*
X100186777Y-98131777D01*
X100168599Y-98148253D01*
X100148893Y-98162868D01*
X100127850Y-98175480D01*
X100105671Y-98185970D01*
X100082572Y-98194235D01*
X100058773Y-98200196D01*
X100034505Y-98203796D01*
X100010001Y-98205000D01*
X99109999Y-98205000D01*
X99085495Y-98203796D01*
X99061227Y-98200196D01*
X99037428Y-98194235D01*
X99014329Y-98185970D01*
X98992150Y-98175480D01*
X98971107Y-98162868D01*
X98951401Y-98148253D01*
X98933223Y-98131777D01*
X98916747Y-98113599D01*
X98902132Y-98093893D01*
X98889520Y-98072850D01*
X98879030Y-98050671D01*
X98870765Y-98027572D01*
X98864804Y-98003773D01*
X98861204Y-97979505D01*
X98860000Y-97955001D01*
X98860000Y-97304999D01*
X98861204Y-97280495D01*
X98864804Y-97256227D01*
X98870765Y-97232428D01*
X98879030Y-97209329D01*
X98889520Y-97187150D01*
X98902132Y-97166107D01*
X98916747Y-97146401D01*
X98933223Y-97128223D01*
X98951401Y-97111747D01*
X98971107Y-97097132D01*
X98992150Y-97084520D01*
X99014329Y-97074030D01*
X99037428Y-97065765D01*
X99061227Y-97059804D01*
X99085495Y-97056204D01*
X99109999Y-97055000D01*
X100010001Y-97055000D01*
X100034505Y-97056204D01*
X100034505Y-97056204D01*
G37*
D11*
X99560000Y-97630000D03*
D10*
G36*
X120354505Y-95011204D02*
G01*
X120378773Y-95014804D01*
X120402572Y-95020765D01*
X120425671Y-95029030D01*
X120447850Y-95039520D01*
X120468893Y-95052132D01*
X120488599Y-95066747D01*
X120506777Y-95083223D01*
X120523253Y-95101401D01*
X120537868Y-95121107D01*
X120550480Y-95142150D01*
X120560970Y-95164329D01*
X120569235Y-95187428D01*
X120575196Y-95211227D01*
X120578796Y-95235495D01*
X120580000Y-95259999D01*
X120580000Y-95910001D01*
X120578796Y-95934505D01*
X120575196Y-95958773D01*
X120569235Y-95982572D01*
X120560970Y-96005671D01*
X120550480Y-96027850D01*
X120537868Y-96048893D01*
X120523253Y-96068599D01*
X120506777Y-96086777D01*
X120488599Y-96103253D01*
X120468893Y-96117868D01*
X120447850Y-96130480D01*
X120425671Y-96140970D01*
X120402572Y-96149235D01*
X120378773Y-96155196D01*
X120354505Y-96158796D01*
X120330001Y-96160000D01*
X119429999Y-96160000D01*
X119405495Y-96158796D01*
X119381227Y-96155196D01*
X119357428Y-96149235D01*
X119334329Y-96140970D01*
X119312150Y-96130480D01*
X119291107Y-96117868D01*
X119271401Y-96103253D01*
X119253223Y-96086777D01*
X119236747Y-96068599D01*
X119222132Y-96048893D01*
X119209520Y-96027850D01*
X119199030Y-96005671D01*
X119190765Y-95982572D01*
X119184804Y-95958773D01*
X119181204Y-95934505D01*
X119180000Y-95910001D01*
X119180000Y-95259999D01*
X119181204Y-95235495D01*
X119184804Y-95211227D01*
X119190765Y-95187428D01*
X119199030Y-95164329D01*
X119209520Y-95142150D01*
X119222132Y-95121107D01*
X119236747Y-95101401D01*
X119253223Y-95083223D01*
X119271401Y-95066747D01*
X119291107Y-95052132D01*
X119312150Y-95039520D01*
X119334329Y-95029030D01*
X119357428Y-95020765D01*
X119381227Y-95014804D01*
X119405495Y-95011204D01*
X119429999Y-95010000D01*
X120330001Y-95010000D01*
X120354505Y-95011204D01*
X120354505Y-95011204D01*
G37*
D11*
X119880000Y-95585000D03*
D10*
G36*
X120354505Y-97061204D02*
G01*
X120378773Y-97064804D01*
X120402572Y-97070765D01*
X120425671Y-97079030D01*
X120447850Y-97089520D01*
X120468893Y-97102132D01*
X120488599Y-97116747D01*
X120506777Y-97133223D01*
X120523253Y-97151401D01*
X120537868Y-97171107D01*
X120550480Y-97192150D01*
X120560970Y-97214329D01*
X120569235Y-97237428D01*
X120575196Y-97261227D01*
X120578796Y-97285495D01*
X120580000Y-97309999D01*
X120580000Y-97960001D01*
X120578796Y-97984505D01*
X120575196Y-98008773D01*
X120569235Y-98032572D01*
X120560970Y-98055671D01*
X120550480Y-98077850D01*
X120537868Y-98098893D01*
X120523253Y-98118599D01*
X120506777Y-98136777D01*
X120488599Y-98153253D01*
X120468893Y-98167868D01*
X120447850Y-98180480D01*
X120425671Y-98190970D01*
X120402572Y-98199235D01*
X120378773Y-98205196D01*
X120354505Y-98208796D01*
X120330001Y-98210000D01*
X119429999Y-98210000D01*
X119405495Y-98208796D01*
X119381227Y-98205196D01*
X119357428Y-98199235D01*
X119334329Y-98190970D01*
X119312150Y-98180480D01*
X119291107Y-98167868D01*
X119271401Y-98153253D01*
X119253223Y-98136777D01*
X119236747Y-98118599D01*
X119222132Y-98098893D01*
X119209520Y-98077850D01*
X119199030Y-98055671D01*
X119190765Y-98032572D01*
X119184804Y-98008773D01*
X119181204Y-97984505D01*
X119180000Y-97960001D01*
X119180000Y-97309999D01*
X119181204Y-97285495D01*
X119184804Y-97261227D01*
X119190765Y-97237428D01*
X119199030Y-97214329D01*
X119209520Y-97192150D01*
X119222132Y-97171107D01*
X119236747Y-97151401D01*
X119253223Y-97133223D01*
X119271401Y-97116747D01*
X119291107Y-97102132D01*
X119312150Y-97089520D01*
X119334329Y-97079030D01*
X119357428Y-97070765D01*
X119381227Y-97064804D01*
X119405495Y-97061204D01*
X119429999Y-97060000D01*
X120330001Y-97060000D01*
X120354505Y-97061204D01*
X120354505Y-97061204D01*
G37*
D11*
X119880000Y-97635000D03*
D10*
G36*
X135594505Y-97061204D02*
G01*
X135618773Y-97064804D01*
X135642572Y-97070765D01*
X135665671Y-97079030D01*
X135687850Y-97089520D01*
X135708893Y-97102132D01*
X135728599Y-97116747D01*
X135746777Y-97133223D01*
X135763253Y-97151401D01*
X135777868Y-97171107D01*
X135790480Y-97192150D01*
X135800970Y-97214329D01*
X135809235Y-97237428D01*
X135815196Y-97261227D01*
X135818796Y-97285495D01*
X135820000Y-97309999D01*
X135820000Y-97960001D01*
X135818796Y-97984505D01*
X135815196Y-98008773D01*
X135809235Y-98032572D01*
X135800970Y-98055671D01*
X135790480Y-98077850D01*
X135777868Y-98098893D01*
X135763253Y-98118599D01*
X135746777Y-98136777D01*
X135728599Y-98153253D01*
X135708893Y-98167868D01*
X135687850Y-98180480D01*
X135665671Y-98190970D01*
X135642572Y-98199235D01*
X135618773Y-98205196D01*
X135594505Y-98208796D01*
X135570001Y-98210000D01*
X134669999Y-98210000D01*
X134645495Y-98208796D01*
X134621227Y-98205196D01*
X134597428Y-98199235D01*
X134574329Y-98190970D01*
X134552150Y-98180480D01*
X134531107Y-98167868D01*
X134511401Y-98153253D01*
X134493223Y-98136777D01*
X134476747Y-98118599D01*
X134462132Y-98098893D01*
X134449520Y-98077850D01*
X134439030Y-98055671D01*
X134430765Y-98032572D01*
X134424804Y-98008773D01*
X134421204Y-97984505D01*
X134420000Y-97960001D01*
X134420000Y-97309999D01*
X134421204Y-97285495D01*
X134424804Y-97261227D01*
X134430765Y-97237428D01*
X134439030Y-97214329D01*
X134449520Y-97192150D01*
X134462132Y-97171107D01*
X134476747Y-97151401D01*
X134493223Y-97133223D01*
X134511401Y-97116747D01*
X134531107Y-97102132D01*
X134552150Y-97089520D01*
X134574329Y-97079030D01*
X134597428Y-97070765D01*
X134621227Y-97064804D01*
X134645495Y-97061204D01*
X134669999Y-97060000D01*
X135570001Y-97060000D01*
X135594505Y-97061204D01*
X135594505Y-97061204D01*
G37*
D11*
X135120000Y-97635000D03*
D10*
G36*
X135594505Y-95011204D02*
G01*
X135618773Y-95014804D01*
X135642572Y-95020765D01*
X135665671Y-95029030D01*
X135687850Y-95039520D01*
X135708893Y-95052132D01*
X135728599Y-95066747D01*
X135746777Y-95083223D01*
X135763253Y-95101401D01*
X135777868Y-95121107D01*
X135790480Y-95142150D01*
X135800970Y-95164329D01*
X135809235Y-95187428D01*
X135815196Y-95211227D01*
X135818796Y-95235495D01*
X135820000Y-95259999D01*
X135820000Y-95910001D01*
X135818796Y-95934505D01*
X135815196Y-95958773D01*
X135809235Y-95982572D01*
X135800970Y-96005671D01*
X135790480Y-96027850D01*
X135777868Y-96048893D01*
X135763253Y-96068599D01*
X135746777Y-96086777D01*
X135728599Y-96103253D01*
X135708893Y-96117868D01*
X135687850Y-96130480D01*
X135665671Y-96140970D01*
X135642572Y-96149235D01*
X135618773Y-96155196D01*
X135594505Y-96158796D01*
X135570001Y-96160000D01*
X134669999Y-96160000D01*
X134645495Y-96158796D01*
X134621227Y-96155196D01*
X134597428Y-96149235D01*
X134574329Y-96140970D01*
X134552150Y-96130480D01*
X134531107Y-96117868D01*
X134511401Y-96103253D01*
X134493223Y-96086777D01*
X134476747Y-96068599D01*
X134462132Y-96048893D01*
X134449520Y-96027850D01*
X134439030Y-96005671D01*
X134430765Y-95982572D01*
X134424804Y-95958773D01*
X134421204Y-95934505D01*
X134420000Y-95910001D01*
X134420000Y-95259999D01*
X134421204Y-95235495D01*
X134424804Y-95211227D01*
X134430765Y-95187428D01*
X134439030Y-95164329D01*
X134449520Y-95142150D01*
X134462132Y-95121107D01*
X134476747Y-95101401D01*
X134493223Y-95083223D01*
X134511401Y-95066747D01*
X134531107Y-95052132D01*
X134552150Y-95039520D01*
X134574329Y-95029030D01*
X134597428Y-95020765D01*
X134621227Y-95014804D01*
X134645495Y-95011204D01*
X134669999Y-95010000D01*
X135570001Y-95010000D01*
X135594505Y-95011204D01*
X135594505Y-95011204D01*
G37*
D11*
X135120000Y-95585000D03*
D10*
G36*
X115909505Y-95006204D02*
G01*
X115933773Y-95009804D01*
X115957572Y-95015765D01*
X115980671Y-95024030D01*
X116002850Y-95034520D01*
X116023893Y-95047132D01*
X116043599Y-95061747D01*
X116061777Y-95078223D01*
X116078253Y-95096401D01*
X116092868Y-95116107D01*
X116105480Y-95137150D01*
X116115970Y-95159329D01*
X116124235Y-95182428D01*
X116130196Y-95206227D01*
X116133796Y-95230495D01*
X116135000Y-95254999D01*
X116135000Y-95905001D01*
X116133796Y-95929505D01*
X116130196Y-95953773D01*
X116124235Y-95977572D01*
X116115970Y-96000671D01*
X116105480Y-96022850D01*
X116092868Y-96043893D01*
X116078253Y-96063599D01*
X116061777Y-96081777D01*
X116043599Y-96098253D01*
X116023893Y-96112868D01*
X116002850Y-96125480D01*
X115980671Y-96135970D01*
X115957572Y-96144235D01*
X115933773Y-96150196D01*
X115909505Y-96153796D01*
X115885001Y-96155000D01*
X114984999Y-96155000D01*
X114960495Y-96153796D01*
X114936227Y-96150196D01*
X114912428Y-96144235D01*
X114889329Y-96135970D01*
X114867150Y-96125480D01*
X114846107Y-96112868D01*
X114826401Y-96098253D01*
X114808223Y-96081777D01*
X114791747Y-96063599D01*
X114777132Y-96043893D01*
X114764520Y-96022850D01*
X114754030Y-96000671D01*
X114745765Y-95977572D01*
X114739804Y-95953773D01*
X114736204Y-95929505D01*
X114735000Y-95905001D01*
X114735000Y-95254999D01*
X114736204Y-95230495D01*
X114739804Y-95206227D01*
X114745765Y-95182428D01*
X114754030Y-95159329D01*
X114764520Y-95137150D01*
X114777132Y-95116107D01*
X114791747Y-95096401D01*
X114808223Y-95078223D01*
X114826401Y-95061747D01*
X114846107Y-95047132D01*
X114867150Y-95034520D01*
X114889329Y-95024030D01*
X114912428Y-95015765D01*
X114936227Y-95009804D01*
X114960495Y-95006204D01*
X114984999Y-95005000D01*
X115885001Y-95005000D01*
X115909505Y-95006204D01*
X115909505Y-95006204D01*
G37*
D11*
X115435000Y-95580000D03*
D10*
G36*
X115909505Y-97056204D02*
G01*
X115933773Y-97059804D01*
X115957572Y-97065765D01*
X115980671Y-97074030D01*
X116002850Y-97084520D01*
X116023893Y-97097132D01*
X116043599Y-97111747D01*
X116061777Y-97128223D01*
X116078253Y-97146401D01*
X116092868Y-97166107D01*
X116105480Y-97187150D01*
X116115970Y-97209329D01*
X116124235Y-97232428D01*
X116130196Y-97256227D01*
X116133796Y-97280495D01*
X116135000Y-97304999D01*
X116135000Y-97955001D01*
X116133796Y-97979505D01*
X116130196Y-98003773D01*
X116124235Y-98027572D01*
X116115970Y-98050671D01*
X116105480Y-98072850D01*
X116092868Y-98093893D01*
X116078253Y-98113599D01*
X116061777Y-98131777D01*
X116043599Y-98148253D01*
X116023893Y-98162868D01*
X116002850Y-98175480D01*
X115980671Y-98185970D01*
X115957572Y-98194235D01*
X115933773Y-98200196D01*
X115909505Y-98203796D01*
X115885001Y-98205000D01*
X114984999Y-98205000D01*
X114960495Y-98203796D01*
X114936227Y-98200196D01*
X114912428Y-98194235D01*
X114889329Y-98185970D01*
X114867150Y-98175480D01*
X114846107Y-98162868D01*
X114826401Y-98148253D01*
X114808223Y-98131777D01*
X114791747Y-98113599D01*
X114777132Y-98093893D01*
X114764520Y-98072850D01*
X114754030Y-98050671D01*
X114745765Y-98027572D01*
X114739804Y-98003773D01*
X114736204Y-97979505D01*
X114735000Y-97955001D01*
X114735000Y-97304999D01*
X114736204Y-97280495D01*
X114739804Y-97256227D01*
X114745765Y-97232428D01*
X114754030Y-97209329D01*
X114764520Y-97187150D01*
X114777132Y-97166107D01*
X114791747Y-97146401D01*
X114808223Y-97128223D01*
X114826401Y-97111747D01*
X114846107Y-97097132D01*
X114867150Y-97084520D01*
X114889329Y-97074030D01*
X114912428Y-97065765D01*
X114936227Y-97059804D01*
X114960495Y-97056204D01*
X114984999Y-97055000D01*
X115885001Y-97055000D01*
X115909505Y-97056204D01*
X115909505Y-97056204D01*
G37*
D11*
X115435000Y-97630000D03*
D12*
X123690000Y-100015000D03*
X122420000Y-100015000D03*
X121150000Y-100015000D03*
X119880000Y-100015000D03*
X119880000Y-105415000D03*
X121150000Y-105415000D03*
X122420000Y-105415000D03*
X123690000Y-105415000D03*
X135120000Y-105415000D03*
X133850000Y-105415000D03*
X132580000Y-105415000D03*
X131310000Y-105415000D03*
X131310000Y-100015000D03*
X132580000Y-100015000D03*
X133850000Y-100015000D03*
X135120000Y-100015000D03*
D10*
G36*
X122259505Y-97056204D02*
G01*
X122283773Y-97059804D01*
X122307572Y-97065765D01*
X122330671Y-97074030D01*
X122352850Y-97084520D01*
X122373893Y-97097132D01*
X122393599Y-97111747D01*
X122411777Y-97128223D01*
X122428253Y-97146401D01*
X122442868Y-97166107D01*
X122455480Y-97187150D01*
X122465970Y-97209329D01*
X122474235Y-97232428D01*
X122480196Y-97256227D01*
X122483796Y-97280495D01*
X122485000Y-97304999D01*
X122485000Y-97955001D01*
X122483796Y-97979505D01*
X122480196Y-98003773D01*
X122474235Y-98027572D01*
X122465970Y-98050671D01*
X122455480Y-98072850D01*
X122442868Y-98093893D01*
X122428253Y-98113599D01*
X122411777Y-98131777D01*
X122393599Y-98148253D01*
X122373893Y-98162868D01*
X122352850Y-98175480D01*
X122330671Y-98185970D01*
X122307572Y-98194235D01*
X122283773Y-98200196D01*
X122259505Y-98203796D01*
X122235001Y-98205000D01*
X121334999Y-98205000D01*
X121310495Y-98203796D01*
X121286227Y-98200196D01*
X121262428Y-98194235D01*
X121239329Y-98185970D01*
X121217150Y-98175480D01*
X121196107Y-98162868D01*
X121176401Y-98148253D01*
X121158223Y-98131777D01*
X121141747Y-98113599D01*
X121127132Y-98093893D01*
X121114520Y-98072850D01*
X121104030Y-98050671D01*
X121095765Y-98027572D01*
X121089804Y-98003773D01*
X121086204Y-97979505D01*
X121085000Y-97955001D01*
X121085000Y-97304999D01*
X121086204Y-97280495D01*
X121089804Y-97256227D01*
X121095765Y-97232428D01*
X121104030Y-97209329D01*
X121114520Y-97187150D01*
X121127132Y-97166107D01*
X121141747Y-97146401D01*
X121158223Y-97128223D01*
X121176401Y-97111747D01*
X121196107Y-97097132D01*
X121217150Y-97084520D01*
X121239329Y-97074030D01*
X121262428Y-97065765D01*
X121286227Y-97059804D01*
X121310495Y-97056204D01*
X121334999Y-97055000D01*
X122235001Y-97055000D01*
X122259505Y-97056204D01*
X122259505Y-97056204D01*
G37*
D11*
X121785000Y-97630000D03*
D10*
G36*
X122259505Y-95006204D02*
G01*
X122283773Y-95009804D01*
X122307572Y-95015765D01*
X122330671Y-95024030D01*
X122352850Y-95034520D01*
X122373893Y-95047132D01*
X122393599Y-95061747D01*
X122411777Y-95078223D01*
X122428253Y-95096401D01*
X122442868Y-95116107D01*
X122455480Y-95137150D01*
X122465970Y-95159329D01*
X122474235Y-95182428D01*
X122480196Y-95206227D01*
X122483796Y-95230495D01*
X122485000Y-95254999D01*
X122485000Y-95905001D01*
X122483796Y-95929505D01*
X122480196Y-95953773D01*
X122474235Y-95977572D01*
X122465970Y-96000671D01*
X122455480Y-96022850D01*
X122442868Y-96043893D01*
X122428253Y-96063599D01*
X122411777Y-96081777D01*
X122393599Y-96098253D01*
X122373893Y-96112868D01*
X122352850Y-96125480D01*
X122330671Y-96135970D01*
X122307572Y-96144235D01*
X122283773Y-96150196D01*
X122259505Y-96153796D01*
X122235001Y-96155000D01*
X121334999Y-96155000D01*
X121310495Y-96153796D01*
X121286227Y-96150196D01*
X121262428Y-96144235D01*
X121239329Y-96135970D01*
X121217150Y-96125480D01*
X121196107Y-96112868D01*
X121176401Y-96098253D01*
X121158223Y-96081777D01*
X121141747Y-96063599D01*
X121127132Y-96043893D01*
X121114520Y-96022850D01*
X121104030Y-96000671D01*
X121095765Y-95977572D01*
X121089804Y-95953773D01*
X121086204Y-95929505D01*
X121085000Y-95905001D01*
X121085000Y-95254999D01*
X121086204Y-95230495D01*
X121089804Y-95206227D01*
X121095765Y-95182428D01*
X121104030Y-95159329D01*
X121114520Y-95137150D01*
X121127132Y-95116107D01*
X121141747Y-95096401D01*
X121158223Y-95078223D01*
X121176401Y-95061747D01*
X121196107Y-95047132D01*
X121217150Y-95034520D01*
X121239329Y-95024030D01*
X121262428Y-95015765D01*
X121286227Y-95009804D01*
X121310495Y-95006204D01*
X121334999Y-95005000D01*
X122235001Y-95005000D01*
X122259505Y-95006204D01*
X122259505Y-95006204D01*
G37*
D11*
X121785000Y-95580000D03*
D10*
G36*
X117814505Y-95006204D02*
G01*
X117838773Y-95009804D01*
X117862572Y-95015765D01*
X117885671Y-95024030D01*
X117907850Y-95034520D01*
X117928893Y-95047132D01*
X117948599Y-95061747D01*
X117966777Y-95078223D01*
X117983253Y-95096401D01*
X117997868Y-95116107D01*
X118010480Y-95137150D01*
X118020970Y-95159329D01*
X118029235Y-95182428D01*
X118035196Y-95206227D01*
X118038796Y-95230495D01*
X118040000Y-95254999D01*
X118040000Y-95905001D01*
X118038796Y-95929505D01*
X118035196Y-95953773D01*
X118029235Y-95977572D01*
X118020970Y-96000671D01*
X118010480Y-96022850D01*
X117997868Y-96043893D01*
X117983253Y-96063599D01*
X117966777Y-96081777D01*
X117948599Y-96098253D01*
X117928893Y-96112868D01*
X117907850Y-96125480D01*
X117885671Y-96135970D01*
X117862572Y-96144235D01*
X117838773Y-96150196D01*
X117814505Y-96153796D01*
X117790001Y-96155000D01*
X116889999Y-96155000D01*
X116865495Y-96153796D01*
X116841227Y-96150196D01*
X116817428Y-96144235D01*
X116794329Y-96135970D01*
X116772150Y-96125480D01*
X116751107Y-96112868D01*
X116731401Y-96098253D01*
X116713223Y-96081777D01*
X116696747Y-96063599D01*
X116682132Y-96043893D01*
X116669520Y-96022850D01*
X116659030Y-96000671D01*
X116650765Y-95977572D01*
X116644804Y-95953773D01*
X116641204Y-95929505D01*
X116640000Y-95905001D01*
X116640000Y-95254999D01*
X116641204Y-95230495D01*
X116644804Y-95206227D01*
X116650765Y-95182428D01*
X116659030Y-95159329D01*
X116669520Y-95137150D01*
X116682132Y-95116107D01*
X116696747Y-95096401D01*
X116713223Y-95078223D01*
X116731401Y-95061747D01*
X116751107Y-95047132D01*
X116772150Y-95034520D01*
X116794329Y-95024030D01*
X116817428Y-95015765D01*
X116841227Y-95009804D01*
X116865495Y-95006204D01*
X116889999Y-95005000D01*
X117790001Y-95005000D01*
X117814505Y-95006204D01*
X117814505Y-95006204D01*
G37*
D11*
X117340000Y-95580000D03*
D10*
G36*
X117814505Y-97056204D02*
G01*
X117838773Y-97059804D01*
X117862572Y-97065765D01*
X117885671Y-97074030D01*
X117907850Y-97084520D01*
X117928893Y-97097132D01*
X117948599Y-97111747D01*
X117966777Y-97128223D01*
X117983253Y-97146401D01*
X117997868Y-97166107D01*
X118010480Y-97187150D01*
X118020970Y-97209329D01*
X118029235Y-97232428D01*
X118035196Y-97256227D01*
X118038796Y-97280495D01*
X118040000Y-97304999D01*
X118040000Y-97955001D01*
X118038796Y-97979505D01*
X118035196Y-98003773D01*
X118029235Y-98027572D01*
X118020970Y-98050671D01*
X118010480Y-98072850D01*
X117997868Y-98093893D01*
X117983253Y-98113599D01*
X117966777Y-98131777D01*
X117948599Y-98148253D01*
X117928893Y-98162868D01*
X117907850Y-98175480D01*
X117885671Y-98185970D01*
X117862572Y-98194235D01*
X117838773Y-98200196D01*
X117814505Y-98203796D01*
X117790001Y-98205000D01*
X116889999Y-98205000D01*
X116865495Y-98203796D01*
X116841227Y-98200196D01*
X116817428Y-98194235D01*
X116794329Y-98185970D01*
X116772150Y-98175480D01*
X116751107Y-98162868D01*
X116731401Y-98148253D01*
X116713223Y-98131777D01*
X116696747Y-98113599D01*
X116682132Y-98093893D01*
X116669520Y-98072850D01*
X116659030Y-98050671D01*
X116650765Y-98027572D01*
X116644804Y-98003773D01*
X116641204Y-97979505D01*
X116640000Y-97955001D01*
X116640000Y-97304999D01*
X116641204Y-97280495D01*
X116644804Y-97256227D01*
X116650765Y-97232428D01*
X116659030Y-97209329D01*
X116669520Y-97187150D01*
X116682132Y-97166107D01*
X116696747Y-97146401D01*
X116713223Y-97128223D01*
X116731401Y-97111747D01*
X116751107Y-97097132D01*
X116772150Y-97084520D01*
X116794329Y-97074030D01*
X116817428Y-97065765D01*
X116841227Y-97059804D01*
X116865495Y-97056204D01*
X116889999Y-97055000D01*
X117790001Y-97055000D01*
X117814505Y-97056204D01*
X117814505Y-97056204D01*
G37*
D11*
X117340000Y-97630000D03*
D10*
G36*
X137499505Y-97061204D02*
G01*
X137523773Y-97064804D01*
X137547572Y-97070765D01*
X137570671Y-97079030D01*
X137592850Y-97089520D01*
X137613893Y-97102132D01*
X137633599Y-97116747D01*
X137651777Y-97133223D01*
X137668253Y-97151401D01*
X137682868Y-97171107D01*
X137695480Y-97192150D01*
X137705970Y-97214329D01*
X137714235Y-97237428D01*
X137720196Y-97261227D01*
X137723796Y-97285495D01*
X137725000Y-97309999D01*
X137725000Y-97960001D01*
X137723796Y-97984505D01*
X137720196Y-98008773D01*
X137714235Y-98032572D01*
X137705970Y-98055671D01*
X137695480Y-98077850D01*
X137682868Y-98098893D01*
X137668253Y-98118599D01*
X137651777Y-98136777D01*
X137633599Y-98153253D01*
X137613893Y-98167868D01*
X137592850Y-98180480D01*
X137570671Y-98190970D01*
X137547572Y-98199235D01*
X137523773Y-98205196D01*
X137499505Y-98208796D01*
X137475001Y-98210000D01*
X136574999Y-98210000D01*
X136550495Y-98208796D01*
X136526227Y-98205196D01*
X136502428Y-98199235D01*
X136479329Y-98190970D01*
X136457150Y-98180480D01*
X136436107Y-98167868D01*
X136416401Y-98153253D01*
X136398223Y-98136777D01*
X136381747Y-98118599D01*
X136367132Y-98098893D01*
X136354520Y-98077850D01*
X136344030Y-98055671D01*
X136335765Y-98032572D01*
X136329804Y-98008773D01*
X136326204Y-97984505D01*
X136325000Y-97960001D01*
X136325000Y-97309999D01*
X136326204Y-97285495D01*
X136329804Y-97261227D01*
X136335765Y-97237428D01*
X136344030Y-97214329D01*
X136354520Y-97192150D01*
X136367132Y-97171107D01*
X136381747Y-97151401D01*
X136398223Y-97133223D01*
X136416401Y-97116747D01*
X136436107Y-97102132D01*
X136457150Y-97089520D01*
X136479329Y-97079030D01*
X136502428Y-97070765D01*
X136526227Y-97064804D01*
X136550495Y-97061204D01*
X136574999Y-97060000D01*
X137475001Y-97060000D01*
X137499505Y-97061204D01*
X137499505Y-97061204D01*
G37*
D11*
X137025000Y-97635000D03*
D10*
G36*
X137499505Y-95011204D02*
G01*
X137523773Y-95014804D01*
X137547572Y-95020765D01*
X137570671Y-95029030D01*
X137592850Y-95039520D01*
X137613893Y-95052132D01*
X137633599Y-95066747D01*
X137651777Y-95083223D01*
X137668253Y-95101401D01*
X137682868Y-95121107D01*
X137695480Y-95142150D01*
X137705970Y-95164329D01*
X137714235Y-95187428D01*
X137720196Y-95211227D01*
X137723796Y-95235495D01*
X137725000Y-95259999D01*
X137725000Y-95910001D01*
X137723796Y-95934505D01*
X137720196Y-95958773D01*
X137714235Y-95982572D01*
X137705970Y-96005671D01*
X137695480Y-96027850D01*
X137682868Y-96048893D01*
X137668253Y-96068599D01*
X137651777Y-96086777D01*
X137633599Y-96103253D01*
X137613893Y-96117868D01*
X137592850Y-96130480D01*
X137570671Y-96140970D01*
X137547572Y-96149235D01*
X137523773Y-96155196D01*
X137499505Y-96158796D01*
X137475001Y-96160000D01*
X136574999Y-96160000D01*
X136550495Y-96158796D01*
X136526227Y-96155196D01*
X136502428Y-96149235D01*
X136479329Y-96140970D01*
X136457150Y-96130480D01*
X136436107Y-96117868D01*
X136416401Y-96103253D01*
X136398223Y-96086777D01*
X136381747Y-96068599D01*
X136367132Y-96048893D01*
X136354520Y-96027850D01*
X136344030Y-96005671D01*
X136335765Y-95982572D01*
X136329804Y-95958773D01*
X136326204Y-95934505D01*
X136325000Y-95910001D01*
X136325000Y-95259999D01*
X136326204Y-95235495D01*
X136329804Y-95211227D01*
X136335765Y-95187428D01*
X136344030Y-95164329D01*
X136354520Y-95142150D01*
X136367132Y-95121107D01*
X136381747Y-95101401D01*
X136398223Y-95083223D01*
X136416401Y-95066747D01*
X136436107Y-95052132D01*
X136457150Y-95039520D01*
X136479329Y-95029030D01*
X136502428Y-95020765D01*
X136526227Y-95014804D01*
X136550495Y-95011204D01*
X136574999Y-95010000D01*
X137475001Y-95010000D01*
X137499505Y-95011204D01*
X137499505Y-95011204D01*
G37*
D11*
X137025000Y-95585000D03*
D10*
G36*
X133054505Y-97061204D02*
G01*
X133078773Y-97064804D01*
X133102572Y-97070765D01*
X133125671Y-97079030D01*
X133147850Y-97089520D01*
X133168893Y-97102132D01*
X133188599Y-97116747D01*
X133206777Y-97133223D01*
X133223253Y-97151401D01*
X133237868Y-97171107D01*
X133250480Y-97192150D01*
X133260970Y-97214329D01*
X133269235Y-97237428D01*
X133275196Y-97261227D01*
X133278796Y-97285495D01*
X133280000Y-97309999D01*
X133280000Y-97960001D01*
X133278796Y-97984505D01*
X133275196Y-98008773D01*
X133269235Y-98032572D01*
X133260970Y-98055671D01*
X133250480Y-98077850D01*
X133237868Y-98098893D01*
X133223253Y-98118599D01*
X133206777Y-98136777D01*
X133188599Y-98153253D01*
X133168893Y-98167868D01*
X133147850Y-98180480D01*
X133125671Y-98190970D01*
X133102572Y-98199235D01*
X133078773Y-98205196D01*
X133054505Y-98208796D01*
X133030001Y-98210000D01*
X132129999Y-98210000D01*
X132105495Y-98208796D01*
X132081227Y-98205196D01*
X132057428Y-98199235D01*
X132034329Y-98190970D01*
X132012150Y-98180480D01*
X131991107Y-98167868D01*
X131971401Y-98153253D01*
X131953223Y-98136777D01*
X131936747Y-98118599D01*
X131922132Y-98098893D01*
X131909520Y-98077850D01*
X131899030Y-98055671D01*
X131890765Y-98032572D01*
X131884804Y-98008773D01*
X131881204Y-97984505D01*
X131880000Y-97960001D01*
X131880000Y-97309999D01*
X131881204Y-97285495D01*
X131884804Y-97261227D01*
X131890765Y-97237428D01*
X131899030Y-97214329D01*
X131909520Y-97192150D01*
X131922132Y-97171107D01*
X131936747Y-97151401D01*
X131953223Y-97133223D01*
X131971401Y-97116747D01*
X131991107Y-97102132D01*
X132012150Y-97089520D01*
X132034329Y-97079030D01*
X132057428Y-97070765D01*
X132081227Y-97064804D01*
X132105495Y-97061204D01*
X132129999Y-97060000D01*
X133030001Y-97060000D01*
X133054505Y-97061204D01*
X133054505Y-97061204D01*
G37*
D11*
X132580000Y-97635000D03*
D10*
G36*
X133054505Y-95011204D02*
G01*
X133078773Y-95014804D01*
X133102572Y-95020765D01*
X133125671Y-95029030D01*
X133147850Y-95039520D01*
X133168893Y-95052132D01*
X133188599Y-95066747D01*
X133206777Y-95083223D01*
X133223253Y-95101401D01*
X133237868Y-95121107D01*
X133250480Y-95142150D01*
X133260970Y-95164329D01*
X133269235Y-95187428D01*
X133275196Y-95211227D01*
X133278796Y-95235495D01*
X133280000Y-95259999D01*
X133280000Y-95910001D01*
X133278796Y-95934505D01*
X133275196Y-95958773D01*
X133269235Y-95982572D01*
X133260970Y-96005671D01*
X133250480Y-96027850D01*
X133237868Y-96048893D01*
X133223253Y-96068599D01*
X133206777Y-96086777D01*
X133188599Y-96103253D01*
X133168893Y-96117868D01*
X133147850Y-96130480D01*
X133125671Y-96140970D01*
X133102572Y-96149235D01*
X133078773Y-96155196D01*
X133054505Y-96158796D01*
X133030001Y-96160000D01*
X132129999Y-96160000D01*
X132105495Y-96158796D01*
X132081227Y-96155196D01*
X132057428Y-96149235D01*
X132034329Y-96140970D01*
X132012150Y-96130480D01*
X131991107Y-96117868D01*
X131971401Y-96103253D01*
X131953223Y-96086777D01*
X131936747Y-96068599D01*
X131922132Y-96048893D01*
X131909520Y-96027850D01*
X131899030Y-96005671D01*
X131890765Y-95982572D01*
X131884804Y-95958773D01*
X131881204Y-95934505D01*
X131880000Y-95910001D01*
X131880000Y-95259999D01*
X131881204Y-95235495D01*
X131884804Y-95211227D01*
X131890765Y-95187428D01*
X131899030Y-95164329D01*
X131909520Y-95142150D01*
X131922132Y-95121107D01*
X131936747Y-95101401D01*
X131953223Y-95083223D01*
X131971401Y-95066747D01*
X131991107Y-95052132D01*
X132012150Y-95039520D01*
X132034329Y-95029030D01*
X132057428Y-95020765D01*
X132081227Y-95014804D01*
X132105495Y-95011204D01*
X132129999Y-95010000D01*
X133030001Y-95010000D01*
X133054505Y-95011204D01*
X133054505Y-95011204D01*
G37*
D11*
X132580000Y-95585000D03*
D10*
G36*
X101939505Y-97061204D02*
G01*
X101963773Y-97064804D01*
X101987572Y-97070765D01*
X102010671Y-97079030D01*
X102032850Y-97089520D01*
X102053893Y-97102132D01*
X102073599Y-97116747D01*
X102091777Y-97133223D01*
X102108253Y-97151401D01*
X102122868Y-97171107D01*
X102135480Y-97192150D01*
X102145970Y-97214329D01*
X102154235Y-97237428D01*
X102160196Y-97261227D01*
X102163796Y-97285495D01*
X102165000Y-97309999D01*
X102165000Y-97960001D01*
X102163796Y-97984505D01*
X102160196Y-98008773D01*
X102154235Y-98032572D01*
X102145970Y-98055671D01*
X102135480Y-98077850D01*
X102122868Y-98098893D01*
X102108253Y-98118599D01*
X102091777Y-98136777D01*
X102073599Y-98153253D01*
X102053893Y-98167868D01*
X102032850Y-98180480D01*
X102010671Y-98190970D01*
X101987572Y-98199235D01*
X101963773Y-98205196D01*
X101939505Y-98208796D01*
X101915001Y-98210000D01*
X101014999Y-98210000D01*
X100990495Y-98208796D01*
X100966227Y-98205196D01*
X100942428Y-98199235D01*
X100919329Y-98190970D01*
X100897150Y-98180480D01*
X100876107Y-98167868D01*
X100856401Y-98153253D01*
X100838223Y-98136777D01*
X100821747Y-98118599D01*
X100807132Y-98098893D01*
X100794520Y-98077850D01*
X100784030Y-98055671D01*
X100775765Y-98032572D01*
X100769804Y-98008773D01*
X100766204Y-97984505D01*
X100765000Y-97960001D01*
X100765000Y-97309999D01*
X100766204Y-97285495D01*
X100769804Y-97261227D01*
X100775765Y-97237428D01*
X100784030Y-97214329D01*
X100794520Y-97192150D01*
X100807132Y-97171107D01*
X100821747Y-97151401D01*
X100838223Y-97133223D01*
X100856401Y-97116747D01*
X100876107Y-97102132D01*
X100897150Y-97089520D01*
X100919329Y-97079030D01*
X100942428Y-97070765D01*
X100966227Y-97064804D01*
X100990495Y-97061204D01*
X101014999Y-97060000D01*
X101915001Y-97060000D01*
X101939505Y-97061204D01*
X101939505Y-97061204D01*
G37*
D11*
X101465000Y-97635000D03*
D10*
G36*
X101939505Y-95011204D02*
G01*
X101963773Y-95014804D01*
X101987572Y-95020765D01*
X102010671Y-95029030D01*
X102032850Y-95039520D01*
X102053893Y-95052132D01*
X102073599Y-95066747D01*
X102091777Y-95083223D01*
X102108253Y-95101401D01*
X102122868Y-95121107D01*
X102135480Y-95142150D01*
X102145970Y-95164329D01*
X102154235Y-95187428D01*
X102160196Y-95211227D01*
X102163796Y-95235495D01*
X102165000Y-95259999D01*
X102165000Y-95910001D01*
X102163796Y-95934505D01*
X102160196Y-95958773D01*
X102154235Y-95982572D01*
X102145970Y-96005671D01*
X102135480Y-96027850D01*
X102122868Y-96048893D01*
X102108253Y-96068599D01*
X102091777Y-96086777D01*
X102073599Y-96103253D01*
X102053893Y-96117868D01*
X102032850Y-96130480D01*
X102010671Y-96140970D01*
X101987572Y-96149235D01*
X101963773Y-96155196D01*
X101939505Y-96158796D01*
X101915001Y-96160000D01*
X101014999Y-96160000D01*
X100990495Y-96158796D01*
X100966227Y-96155196D01*
X100942428Y-96149235D01*
X100919329Y-96140970D01*
X100897150Y-96130480D01*
X100876107Y-96117868D01*
X100856401Y-96103253D01*
X100838223Y-96086777D01*
X100821747Y-96068599D01*
X100807132Y-96048893D01*
X100794520Y-96027850D01*
X100784030Y-96005671D01*
X100775765Y-95982572D01*
X100769804Y-95958773D01*
X100766204Y-95934505D01*
X100765000Y-95910001D01*
X100765000Y-95259999D01*
X100766204Y-95235495D01*
X100769804Y-95211227D01*
X100775765Y-95187428D01*
X100784030Y-95164329D01*
X100794520Y-95142150D01*
X100807132Y-95121107D01*
X100821747Y-95101401D01*
X100838223Y-95083223D01*
X100856401Y-95066747D01*
X100876107Y-95052132D01*
X100897150Y-95039520D01*
X100919329Y-95029030D01*
X100942428Y-95020765D01*
X100966227Y-95014804D01*
X100990495Y-95011204D01*
X101014999Y-95010000D01*
X101915001Y-95010000D01*
X101939505Y-95011204D01*
X101939505Y-95011204D01*
G37*
D11*
X101465000Y-95585000D03*
D10*
G36*
X124164505Y-95006204D02*
G01*
X124188773Y-95009804D01*
X124212572Y-95015765D01*
X124235671Y-95024030D01*
X124257850Y-95034520D01*
X124278893Y-95047132D01*
X124298599Y-95061747D01*
X124316777Y-95078223D01*
X124333253Y-95096401D01*
X124347868Y-95116107D01*
X124360480Y-95137150D01*
X124370970Y-95159329D01*
X124379235Y-95182428D01*
X124385196Y-95206227D01*
X124388796Y-95230495D01*
X124390000Y-95254999D01*
X124390000Y-95905001D01*
X124388796Y-95929505D01*
X124385196Y-95953773D01*
X124379235Y-95977572D01*
X124370970Y-96000671D01*
X124360480Y-96022850D01*
X124347868Y-96043893D01*
X124333253Y-96063599D01*
X124316777Y-96081777D01*
X124298599Y-96098253D01*
X124278893Y-96112868D01*
X124257850Y-96125480D01*
X124235671Y-96135970D01*
X124212572Y-96144235D01*
X124188773Y-96150196D01*
X124164505Y-96153796D01*
X124140001Y-96155000D01*
X123239999Y-96155000D01*
X123215495Y-96153796D01*
X123191227Y-96150196D01*
X123167428Y-96144235D01*
X123144329Y-96135970D01*
X123122150Y-96125480D01*
X123101107Y-96112868D01*
X123081401Y-96098253D01*
X123063223Y-96081777D01*
X123046747Y-96063599D01*
X123032132Y-96043893D01*
X123019520Y-96022850D01*
X123009030Y-96000671D01*
X123000765Y-95977572D01*
X122994804Y-95953773D01*
X122991204Y-95929505D01*
X122990000Y-95905001D01*
X122990000Y-95254999D01*
X122991204Y-95230495D01*
X122994804Y-95206227D01*
X123000765Y-95182428D01*
X123009030Y-95159329D01*
X123019520Y-95137150D01*
X123032132Y-95116107D01*
X123046747Y-95096401D01*
X123063223Y-95078223D01*
X123081401Y-95061747D01*
X123101107Y-95047132D01*
X123122150Y-95034520D01*
X123144329Y-95024030D01*
X123167428Y-95015765D01*
X123191227Y-95009804D01*
X123215495Y-95006204D01*
X123239999Y-95005000D01*
X124140001Y-95005000D01*
X124164505Y-95006204D01*
X124164505Y-95006204D01*
G37*
D11*
X123690000Y-95580000D03*
D10*
G36*
X124164505Y-97056204D02*
G01*
X124188773Y-97059804D01*
X124212572Y-97065765D01*
X124235671Y-97074030D01*
X124257850Y-97084520D01*
X124278893Y-97097132D01*
X124298599Y-97111747D01*
X124316777Y-97128223D01*
X124333253Y-97146401D01*
X124347868Y-97166107D01*
X124360480Y-97187150D01*
X124370970Y-97209329D01*
X124379235Y-97232428D01*
X124385196Y-97256227D01*
X124388796Y-97280495D01*
X124390000Y-97304999D01*
X124390000Y-97955001D01*
X124388796Y-97979505D01*
X124385196Y-98003773D01*
X124379235Y-98027572D01*
X124370970Y-98050671D01*
X124360480Y-98072850D01*
X124347868Y-98093893D01*
X124333253Y-98113599D01*
X124316777Y-98131777D01*
X124298599Y-98148253D01*
X124278893Y-98162868D01*
X124257850Y-98175480D01*
X124235671Y-98185970D01*
X124212572Y-98194235D01*
X124188773Y-98200196D01*
X124164505Y-98203796D01*
X124140001Y-98205000D01*
X123239999Y-98205000D01*
X123215495Y-98203796D01*
X123191227Y-98200196D01*
X123167428Y-98194235D01*
X123144329Y-98185970D01*
X123122150Y-98175480D01*
X123101107Y-98162868D01*
X123081401Y-98148253D01*
X123063223Y-98131777D01*
X123046747Y-98113599D01*
X123032132Y-98093893D01*
X123019520Y-98072850D01*
X123009030Y-98050671D01*
X123000765Y-98027572D01*
X122994804Y-98003773D01*
X122991204Y-97979505D01*
X122990000Y-97955001D01*
X122990000Y-97304999D01*
X122991204Y-97280495D01*
X122994804Y-97256227D01*
X123000765Y-97232428D01*
X123009030Y-97209329D01*
X123019520Y-97187150D01*
X123032132Y-97166107D01*
X123046747Y-97146401D01*
X123063223Y-97128223D01*
X123081401Y-97111747D01*
X123101107Y-97097132D01*
X123122150Y-97084520D01*
X123144329Y-97074030D01*
X123167428Y-97065765D01*
X123191227Y-97059804D01*
X123215495Y-97056204D01*
X123239999Y-97055000D01*
X124140001Y-97055000D01*
X124164505Y-97056204D01*
X124164505Y-97056204D01*
G37*
D11*
X123690000Y-97630000D03*
D12*
X104005000Y-105415000D03*
X102735000Y-105415000D03*
X101465000Y-105415000D03*
X100195000Y-105415000D03*
X100195000Y-100015000D03*
X101465000Y-100015000D03*
X102735000Y-100015000D03*
X104005000Y-100015000D03*
D10*
G36*
X103844505Y-97056204D02*
G01*
X103868773Y-97059804D01*
X103892572Y-97065765D01*
X103915671Y-97074030D01*
X103937850Y-97084520D01*
X103958893Y-97097132D01*
X103978599Y-97111747D01*
X103996777Y-97128223D01*
X104013253Y-97146401D01*
X104027868Y-97166107D01*
X104040480Y-97187150D01*
X104050970Y-97209329D01*
X104059235Y-97232428D01*
X104065196Y-97256227D01*
X104068796Y-97280495D01*
X104070000Y-97304999D01*
X104070000Y-97955001D01*
X104068796Y-97979505D01*
X104065196Y-98003773D01*
X104059235Y-98027572D01*
X104050970Y-98050671D01*
X104040480Y-98072850D01*
X104027868Y-98093893D01*
X104013253Y-98113599D01*
X103996777Y-98131777D01*
X103978599Y-98148253D01*
X103958893Y-98162868D01*
X103937850Y-98175480D01*
X103915671Y-98185970D01*
X103892572Y-98194235D01*
X103868773Y-98200196D01*
X103844505Y-98203796D01*
X103820001Y-98205000D01*
X102919999Y-98205000D01*
X102895495Y-98203796D01*
X102871227Y-98200196D01*
X102847428Y-98194235D01*
X102824329Y-98185970D01*
X102802150Y-98175480D01*
X102781107Y-98162868D01*
X102761401Y-98148253D01*
X102743223Y-98131777D01*
X102726747Y-98113599D01*
X102712132Y-98093893D01*
X102699520Y-98072850D01*
X102689030Y-98050671D01*
X102680765Y-98027572D01*
X102674804Y-98003773D01*
X102671204Y-97979505D01*
X102670000Y-97955001D01*
X102670000Y-97304999D01*
X102671204Y-97280495D01*
X102674804Y-97256227D01*
X102680765Y-97232428D01*
X102689030Y-97209329D01*
X102699520Y-97187150D01*
X102712132Y-97166107D01*
X102726747Y-97146401D01*
X102743223Y-97128223D01*
X102761401Y-97111747D01*
X102781107Y-97097132D01*
X102802150Y-97084520D01*
X102824329Y-97074030D01*
X102847428Y-97065765D01*
X102871227Y-97059804D01*
X102895495Y-97056204D01*
X102919999Y-97055000D01*
X103820001Y-97055000D01*
X103844505Y-97056204D01*
X103844505Y-97056204D01*
G37*
D11*
X103370000Y-97630000D03*
D10*
G36*
X103844505Y-95006204D02*
G01*
X103868773Y-95009804D01*
X103892572Y-95015765D01*
X103915671Y-95024030D01*
X103937850Y-95034520D01*
X103958893Y-95047132D01*
X103978599Y-95061747D01*
X103996777Y-95078223D01*
X104013253Y-95096401D01*
X104027868Y-95116107D01*
X104040480Y-95137150D01*
X104050970Y-95159329D01*
X104059235Y-95182428D01*
X104065196Y-95206227D01*
X104068796Y-95230495D01*
X104070000Y-95254999D01*
X104070000Y-95905001D01*
X104068796Y-95929505D01*
X104065196Y-95953773D01*
X104059235Y-95977572D01*
X104050970Y-96000671D01*
X104040480Y-96022850D01*
X104027868Y-96043893D01*
X104013253Y-96063599D01*
X103996777Y-96081777D01*
X103978599Y-96098253D01*
X103958893Y-96112868D01*
X103937850Y-96125480D01*
X103915671Y-96135970D01*
X103892572Y-96144235D01*
X103868773Y-96150196D01*
X103844505Y-96153796D01*
X103820001Y-96155000D01*
X102919999Y-96155000D01*
X102895495Y-96153796D01*
X102871227Y-96150196D01*
X102847428Y-96144235D01*
X102824329Y-96135970D01*
X102802150Y-96125480D01*
X102781107Y-96112868D01*
X102761401Y-96098253D01*
X102743223Y-96081777D01*
X102726747Y-96063599D01*
X102712132Y-96043893D01*
X102699520Y-96022850D01*
X102689030Y-96000671D01*
X102680765Y-95977572D01*
X102674804Y-95953773D01*
X102671204Y-95929505D01*
X102670000Y-95905001D01*
X102670000Y-95254999D01*
X102671204Y-95230495D01*
X102674804Y-95206227D01*
X102680765Y-95182428D01*
X102689030Y-95159329D01*
X102699520Y-95137150D01*
X102712132Y-95116107D01*
X102726747Y-95096401D01*
X102743223Y-95078223D01*
X102761401Y-95061747D01*
X102781107Y-95047132D01*
X102802150Y-95034520D01*
X102824329Y-95024030D01*
X102847428Y-95015765D01*
X102871227Y-95009804D01*
X102895495Y-95006204D01*
X102919999Y-95005000D01*
X103820001Y-95005000D01*
X103844505Y-95006204D01*
X103844505Y-95006204D01*
G37*
D11*
X103370000Y-95580000D03*
D12*
X129405000Y-105415000D03*
X128135000Y-105415000D03*
X126865000Y-105415000D03*
X125595000Y-105415000D03*
X125595000Y-100015000D03*
X126865000Y-100015000D03*
X128135000Y-100015000D03*
X129405000Y-100015000D03*
D13*
X135409000Y-114398000D03*
X119149000Y-114398000D03*
D14*
X123699000Y-113508000D03*
X125739000Y-113508000D03*
X127779000Y-113508000D03*
X129819000Y-113508000D03*
X124719000Y-115288000D03*
X126759000Y-115288000D03*
X128799000Y-115288000D03*
D15*
X130839000Y-115288000D03*
D10*
G36*
X112099505Y-95006204D02*
G01*
X112123773Y-95009804D01*
X112147572Y-95015765D01*
X112170671Y-95024030D01*
X112192850Y-95034520D01*
X112213893Y-95047132D01*
X112233599Y-95061747D01*
X112251777Y-95078223D01*
X112268253Y-95096401D01*
X112282868Y-95116107D01*
X112295480Y-95137150D01*
X112305970Y-95159329D01*
X112314235Y-95182428D01*
X112320196Y-95206227D01*
X112323796Y-95230495D01*
X112325000Y-95254999D01*
X112325000Y-95905001D01*
X112323796Y-95929505D01*
X112320196Y-95953773D01*
X112314235Y-95977572D01*
X112305970Y-96000671D01*
X112295480Y-96022850D01*
X112282868Y-96043893D01*
X112268253Y-96063599D01*
X112251777Y-96081777D01*
X112233599Y-96098253D01*
X112213893Y-96112868D01*
X112192850Y-96125480D01*
X112170671Y-96135970D01*
X112147572Y-96144235D01*
X112123773Y-96150196D01*
X112099505Y-96153796D01*
X112075001Y-96155000D01*
X111174999Y-96155000D01*
X111150495Y-96153796D01*
X111126227Y-96150196D01*
X111102428Y-96144235D01*
X111079329Y-96135970D01*
X111057150Y-96125480D01*
X111036107Y-96112868D01*
X111016401Y-96098253D01*
X110998223Y-96081777D01*
X110981747Y-96063599D01*
X110967132Y-96043893D01*
X110954520Y-96022850D01*
X110944030Y-96000671D01*
X110935765Y-95977572D01*
X110929804Y-95953773D01*
X110926204Y-95929505D01*
X110925000Y-95905001D01*
X110925000Y-95254999D01*
X110926204Y-95230495D01*
X110929804Y-95206227D01*
X110935765Y-95182428D01*
X110944030Y-95159329D01*
X110954520Y-95137150D01*
X110967132Y-95116107D01*
X110981747Y-95096401D01*
X110998223Y-95078223D01*
X111016401Y-95061747D01*
X111036107Y-95047132D01*
X111057150Y-95034520D01*
X111079329Y-95024030D01*
X111102428Y-95015765D01*
X111126227Y-95009804D01*
X111150495Y-95006204D01*
X111174999Y-95005000D01*
X112075001Y-95005000D01*
X112099505Y-95006204D01*
X112099505Y-95006204D01*
G37*
D11*
X111625000Y-95580000D03*
D10*
G36*
X112099505Y-97056204D02*
G01*
X112123773Y-97059804D01*
X112147572Y-97065765D01*
X112170671Y-97074030D01*
X112192850Y-97084520D01*
X112213893Y-97097132D01*
X112233599Y-97111747D01*
X112251777Y-97128223D01*
X112268253Y-97146401D01*
X112282868Y-97166107D01*
X112295480Y-97187150D01*
X112305970Y-97209329D01*
X112314235Y-97232428D01*
X112320196Y-97256227D01*
X112323796Y-97280495D01*
X112325000Y-97304999D01*
X112325000Y-97955001D01*
X112323796Y-97979505D01*
X112320196Y-98003773D01*
X112314235Y-98027572D01*
X112305970Y-98050671D01*
X112295480Y-98072850D01*
X112282868Y-98093893D01*
X112268253Y-98113599D01*
X112251777Y-98131777D01*
X112233599Y-98148253D01*
X112213893Y-98162868D01*
X112192850Y-98175480D01*
X112170671Y-98185970D01*
X112147572Y-98194235D01*
X112123773Y-98200196D01*
X112099505Y-98203796D01*
X112075001Y-98205000D01*
X111174999Y-98205000D01*
X111150495Y-98203796D01*
X111126227Y-98200196D01*
X111102428Y-98194235D01*
X111079329Y-98185970D01*
X111057150Y-98175480D01*
X111036107Y-98162868D01*
X111016401Y-98148253D01*
X110998223Y-98131777D01*
X110981747Y-98113599D01*
X110967132Y-98093893D01*
X110954520Y-98072850D01*
X110944030Y-98050671D01*
X110935765Y-98027572D01*
X110929804Y-98003773D01*
X110926204Y-97979505D01*
X110925000Y-97955001D01*
X110925000Y-97304999D01*
X110926204Y-97280495D01*
X110929804Y-97256227D01*
X110935765Y-97232428D01*
X110944030Y-97209329D01*
X110954520Y-97187150D01*
X110967132Y-97166107D01*
X110981747Y-97146401D01*
X110998223Y-97128223D01*
X111016401Y-97111747D01*
X111036107Y-97097132D01*
X111057150Y-97084520D01*
X111079329Y-97074030D01*
X111102428Y-97065765D01*
X111126227Y-97059804D01*
X111150495Y-97056204D01*
X111174999Y-97055000D01*
X112075001Y-97055000D01*
X112099505Y-97056204D01*
X112099505Y-97056204D01*
G37*
D11*
X111625000Y-97630000D03*
D13*
X115597000Y-114398000D03*
X99337000Y-114398000D03*
D14*
X103887000Y-113508000D03*
X105927000Y-113508000D03*
X107967000Y-113508000D03*
X110007000Y-113508000D03*
X104907000Y-115288000D03*
X106947000Y-115288000D03*
X108987000Y-115288000D03*
D15*
X111027000Y-115288000D03*
D16*
X144145000Y-89535000D03*
D17*
X141605000Y-89535000D03*
X139065000Y-89535000D03*
X136525000Y-89535000D03*
X133985000Y-89535000D03*
X131445000Y-89535000D03*
X128905000Y-89535000D03*
X126365000Y-89535000D03*
X123825000Y-89535000D03*
X121285000Y-89535000D03*
X118745000Y-89535000D03*
X116205000Y-89535000D03*
X113665000Y-89535000D03*
X111125000Y-89535000D03*
X108585000Y-89535000D03*
X106045000Y-89535000D03*
X103505000Y-89535000D03*
X100965000Y-89535000D03*
X98425000Y-89535000D03*
X95885000Y-89535000D03*
D10*
G36*
X107654505Y-97056204D02*
G01*
X107678773Y-97059804D01*
X107702572Y-97065765D01*
X107725671Y-97074030D01*
X107747850Y-97084520D01*
X107768893Y-97097132D01*
X107788599Y-97111747D01*
X107806777Y-97128223D01*
X107823253Y-97146401D01*
X107837868Y-97166107D01*
X107850480Y-97187150D01*
X107860970Y-97209329D01*
X107869235Y-97232428D01*
X107875196Y-97256227D01*
X107878796Y-97280495D01*
X107880000Y-97304999D01*
X107880000Y-97955001D01*
X107878796Y-97979505D01*
X107875196Y-98003773D01*
X107869235Y-98027572D01*
X107860970Y-98050671D01*
X107850480Y-98072850D01*
X107837868Y-98093893D01*
X107823253Y-98113599D01*
X107806777Y-98131777D01*
X107788599Y-98148253D01*
X107768893Y-98162868D01*
X107747850Y-98175480D01*
X107725671Y-98185970D01*
X107702572Y-98194235D01*
X107678773Y-98200196D01*
X107654505Y-98203796D01*
X107630001Y-98205000D01*
X106729999Y-98205000D01*
X106705495Y-98203796D01*
X106681227Y-98200196D01*
X106657428Y-98194235D01*
X106634329Y-98185970D01*
X106612150Y-98175480D01*
X106591107Y-98162868D01*
X106571401Y-98148253D01*
X106553223Y-98131777D01*
X106536747Y-98113599D01*
X106522132Y-98093893D01*
X106509520Y-98072850D01*
X106499030Y-98050671D01*
X106490765Y-98027572D01*
X106484804Y-98003773D01*
X106481204Y-97979505D01*
X106480000Y-97955001D01*
X106480000Y-97304999D01*
X106481204Y-97280495D01*
X106484804Y-97256227D01*
X106490765Y-97232428D01*
X106499030Y-97209329D01*
X106509520Y-97187150D01*
X106522132Y-97166107D01*
X106536747Y-97146401D01*
X106553223Y-97128223D01*
X106571401Y-97111747D01*
X106591107Y-97097132D01*
X106612150Y-97084520D01*
X106634329Y-97074030D01*
X106657428Y-97065765D01*
X106681227Y-97059804D01*
X106705495Y-97056204D01*
X106729999Y-97055000D01*
X107630001Y-97055000D01*
X107654505Y-97056204D01*
X107654505Y-97056204D01*
G37*
D11*
X107180000Y-97630000D03*
D10*
G36*
X107654505Y-95006204D02*
G01*
X107678773Y-95009804D01*
X107702572Y-95015765D01*
X107725671Y-95024030D01*
X107747850Y-95034520D01*
X107768893Y-95047132D01*
X107788599Y-95061747D01*
X107806777Y-95078223D01*
X107823253Y-95096401D01*
X107837868Y-95116107D01*
X107850480Y-95137150D01*
X107860970Y-95159329D01*
X107869235Y-95182428D01*
X107875196Y-95206227D01*
X107878796Y-95230495D01*
X107880000Y-95254999D01*
X107880000Y-95905001D01*
X107878796Y-95929505D01*
X107875196Y-95953773D01*
X107869235Y-95977572D01*
X107860970Y-96000671D01*
X107850480Y-96022850D01*
X107837868Y-96043893D01*
X107823253Y-96063599D01*
X107806777Y-96081777D01*
X107788599Y-96098253D01*
X107768893Y-96112868D01*
X107747850Y-96125480D01*
X107725671Y-96135970D01*
X107702572Y-96144235D01*
X107678773Y-96150196D01*
X107654505Y-96153796D01*
X107630001Y-96155000D01*
X106729999Y-96155000D01*
X106705495Y-96153796D01*
X106681227Y-96150196D01*
X106657428Y-96144235D01*
X106634329Y-96135970D01*
X106612150Y-96125480D01*
X106591107Y-96112868D01*
X106571401Y-96098253D01*
X106553223Y-96081777D01*
X106536747Y-96063599D01*
X106522132Y-96043893D01*
X106509520Y-96022850D01*
X106499030Y-96000671D01*
X106490765Y-95977572D01*
X106484804Y-95953773D01*
X106481204Y-95929505D01*
X106480000Y-95905001D01*
X106480000Y-95254999D01*
X106481204Y-95230495D01*
X106484804Y-95206227D01*
X106490765Y-95182428D01*
X106499030Y-95159329D01*
X106509520Y-95137150D01*
X106522132Y-95116107D01*
X106536747Y-95096401D01*
X106553223Y-95078223D01*
X106571401Y-95061747D01*
X106591107Y-95047132D01*
X106612150Y-95034520D01*
X106634329Y-95024030D01*
X106657428Y-95015765D01*
X106681227Y-95009804D01*
X106705495Y-95006204D01*
X106729999Y-95005000D01*
X107630001Y-95005000D01*
X107654505Y-95006204D01*
X107654505Y-95006204D01*
G37*
D11*
X107180000Y-95580000D03*
D10*
G36*
X127339505Y-97056204D02*
G01*
X127363773Y-97059804D01*
X127387572Y-97065765D01*
X127410671Y-97074030D01*
X127432850Y-97084520D01*
X127453893Y-97097132D01*
X127473599Y-97111747D01*
X127491777Y-97128223D01*
X127508253Y-97146401D01*
X127522868Y-97166107D01*
X127535480Y-97187150D01*
X127545970Y-97209329D01*
X127554235Y-97232428D01*
X127560196Y-97256227D01*
X127563796Y-97280495D01*
X127565000Y-97304999D01*
X127565000Y-97955001D01*
X127563796Y-97979505D01*
X127560196Y-98003773D01*
X127554235Y-98027572D01*
X127545970Y-98050671D01*
X127535480Y-98072850D01*
X127522868Y-98093893D01*
X127508253Y-98113599D01*
X127491777Y-98131777D01*
X127473599Y-98148253D01*
X127453893Y-98162868D01*
X127432850Y-98175480D01*
X127410671Y-98185970D01*
X127387572Y-98194235D01*
X127363773Y-98200196D01*
X127339505Y-98203796D01*
X127315001Y-98205000D01*
X126414999Y-98205000D01*
X126390495Y-98203796D01*
X126366227Y-98200196D01*
X126342428Y-98194235D01*
X126319329Y-98185970D01*
X126297150Y-98175480D01*
X126276107Y-98162868D01*
X126256401Y-98148253D01*
X126238223Y-98131777D01*
X126221747Y-98113599D01*
X126207132Y-98093893D01*
X126194520Y-98072850D01*
X126184030Y-98050671D01*
X126175765Y-98027572D01*
X126169804Y-98003773D01*
X126166204Y-97979505D01*
X126165000Y-97955001D01*
X126165000Y-97304999D01*
X126166204Y-97280495D01*
X126169804Y-97256227D01*
X126175765Y-97232428D01*
X126184030Y-97209329D01*
X126194520Y-97187150D01*
X126207132Y-97166107D01*
X126221747Y-97146401D01*
X126238223Y-97128223D01*
X126256401Y-97111747D01*
X126276107Y-97097132D01*
X126297150Y-97084520D01*
X126319329Y-97074030D01*
X126342428Y-97065765D01*
X126366227Y-97059804D01*
X126390495Y-97056204D01*
X126414999Y-97055000D01*
X127315001Y-97055000D01*
X127339505Y-97056204D01*
X127339505Y-97056204D01*
G37*
D11*
X126865000Y-97630000D03*
D10*
G36*
X127339505Y-95006204D02*
G01*
X127363773Y-95009804D01*
X127387572Y-95015765D01*
X127410671Y-95024030D01*
X127432850Y-95034520D01*
X127453893Y-95047132D01*
X127473599Y-95061747D01*
X127491777Y-95078223D01*
X127508253Y-95096401D01*
X127522868Y-95116107D01*
X127535480Y-95137150D01*
X127545970Y-95159329D01*
X127554235Y-95182428D01*
X127560196Y-95206227D01*
X127563796Y-95230495D01*
X127565000Y-95254999D01*
X127565000Y-95905001D01*
X127563796Y-95929505D01*
X127560196Y-95953773D01*
X127554235Y-95977572D01*
X127545970Y-96000671D01*
X127535480Y-96022850D01*
X127522868Y-96043893D01*
X127508253Y-96063599D01*
X127491777Y-96081777D01*
X127473599Y-96098253D01*
X127453893Y-96112868D01*
X127432850Y-96125480D01*
X127410671Y-96135970D01*
X127387572Y-96144235D01*
X127363773Y-96150196D01*
X127339505Y-96153796D01*
X127315001Y-96155000D01*
X126414999Y-96155000D01*
X126390495Y-96153796D01*
X126366227Y-96150196D01*
X126342428Y-96144235D01*
X126319329Y-96135970D01*
X126297150Y-96125480D01*
X126276107Y-96112868D01*
X126256401Y-96098253D01*
X126238223Y-96081777D01*
X126221747Y-96063599D01*
X126207132Y-96043893D01*
X126194520Y-96022850D01*
X126184030Y-96000671D01*
X126175765Y-95977572D01*
X126169804Y-95953773D01*
X126166204Y-95929505D01*
X126165000Y-95905001D01*
X126165000Y-95254999D01*
X126166204Y-95230495D01*
X126169804Y-95206227D01*
X126175765Y-95182428D01*
X126184030Y-95159329D01*
X126194520Y-95137150D01*
X126207132Y-95116107D01*
X126221747Y-95096401D01*
X126238223Y-95078223D01*
X126256401Y-95061747D01*
X126276107Y-95047132D01*
X126297150Y-95034520D01*
X126319329Y-95024030D01*
X126342428Y-95015765D01*
X126366227Y-95009804D01*
X126390495Y-95006204D01*
X126414999Y-95005000D01*
X127315001Y-95005000D01*
X127339505Y-95006204D01*
X127339505Y-95006204D01*
G37*
D11*
X126865000Y-95580000D03*
D10*
G36*
X114004505Y-97061204D02*
G01*
X114028773Y-97064804D01*
X114052572Y-97070765D01*
X114075671Y-97079030D01*
X114097850Y-97089520D01*
X114118893Y-97102132D01*
X114138599Y-97116747D01*
X114156777Y-97133223D01*
X114173253Y-97151401D01*
X114187868Y-97171107D01*
X114200480Y-97192150D01*
X114210970Y-97214329D01*
X114219235Y-97237428D01*
X114225196Y-97261227D01*
X114228796Y-97285495D01*
X114230000Y-97309999D01*
X114230000Y-97960001D01*
X114228796Y-97984505D01*
X114225196Y-98008773D01*
X114219235Y-98032572D01*
X114210970Y-98055671D01*
X114200480Y-98077850D01*
X114187868Y-98098893D01*
X114173253Y-98118599D01*
X114156777Y-98136777D01*
X114138599Y-98153253D01*
X114118893Y-98167868D01*
X114097850Y-98180480D01*
X114075671Y-98190970D01*
X114052572Y-98199235D01*
X114028773Y-98205196D01*
X114004505Y-98208796D01*
X113980001Y-98210000D01*
X113079999Y-98210000D01*
X113055495Y-98208796D01*
X113031227Y-98205196D01*
X113007428Y-98199235D01*
X112984329Y-98190970D01*
X112962150Y-98180480D01*
X112941107Y-98167868D01*
X112921401Y-98153253D01*
X112903223Y-98136777D01*
X112886747Y-98118599D01*
X112872132Y-98098893D01*
X112859520Y-98077850D01*
X112849030Y-98055671D01*
X112840765Y-98032572D01*
X112834804Y-98008773D01*
X112831204Y-97984505D01*
X112830000Y-97960001D01*
X112830000Y-97309999D01*
X112831204Y-97285495D01*
X112834804Y-97261227D01*
X112840765Y-97237428D01*
X112849030Y-97214329D01*
X112859520Y-97192150D01*
X112872132Y-97171107D01*
X112886747Y-97151401D01*
X112903223Y-97133223D01*
X112921401Y-97116747D01*
X112941107Y-97102132D01*
X112962150Y-97089520D01*
X112984329Y-97079030D01*
X113007428Y-97070765D01*
X113031227Y-97064804D01*
X113055495Y-97061204D01*
X113079999Y-97060000D01*
X113980001Y-97060000D01*
X114004505Y-97061204D01*
X114004505Y-97061204D01*
G37*
D11*
X113530000Y-97635000D03*
D10*
G36*
X114004505Y-95011204D02*
G01*
X114028773Y-95014804D01*
X114052572Y-95020765D01*
X114075671Y-95029030D01*
X114097850Y-95039520D01*
X114118893Y-95052132D01*
X114138599Y-95066747D01*
X114156777Y-95083223D01*
X114173253Y-95101401D01*
X114187868Y-95121107D01*
X114200480Y-95142150D01*
X114210970Y-95164329D01*
X114219235Y-95187428D01*
X114225196Y-95211227D01*
X114228796Y-95235495D01*
X114230000Y-95259999D01*
X114230000Y-95910001D01*
X114228796Y-95934505D01*
X114225196Y-95958773D01*
X114219235Y-95982572D01*
X114210970Y-96005671D01*
X114200480Y-96027850D01*
X114187868Y-96048893D01*
X114173253Y-96068599D01*
X114156777Y-96086777D01*
X114138599Y-96103253D01*
X114118893Y-96117868D01*
X114097850Y-96130480D01*
X114075671Y-96140970D01*
X114052572Y-96149235D01*
X114028773Y-96155196D01*
X114004505Y-96158796D01*
X113980001Y-96160000D01*
X113079999Y-96160000D01*
X113055495Y-96158796D01*
X113031227Y-96155196D01*
X113007428Y-96149235D01*
X112984329Y-96140970D01*
X112962150Y-96130480D01*
X112941107Y-96117868D01*
X112921401Y-96103253D01*
X112903223Y-96086777D01*
X112886747Y-96068599D01*
X112872132Y-96048893D01*
X112859520Y-96027850D01*
X112849030Y-96005671D01*
X112840765Y-95982572D01*
X112834804Y-95958773D01*
X112831204Y-95934505D01*
X112830000Y-95910001D01*
X112830000Y-95259999D01*
X112831204Y-95235495D01*
X112834804Y-95211227D01*
X112840765Y-95187428D01*
X112849030Y-95164329D01*
X112859520Y-95142150D01*
X112872132Y-95121107D01*
X112886747Y-95101401D01*
X112903223Y-95083223D01*
X112921401Y-95066747D01*
X112941107Y-95052132D01*
X112962150Y-95039520D01*
X112984329Y-95029030D01*
X113007428Y-95020765D01*
X113031227Y-95014804D01*
X113055495Y-95011204D01*
X113079999Y-95010000D01*
X113980001Y-95010000D01*
X114004505Y-95011204D01*
X114004505Y-95011204D01*
G37*
D11*
X113530000Y-95585000D03*
D10*
G36*
X110194505Y-97056204D02*
G01*
X110218773Y-97059804D01*
X110242572Y-97065765D01*
X110265671Y-97074030D01*
X110287850Y-97084520D01*
X110308893Y-97097132D01*
X110328599Y-97111747D01*
X110346777Y-97128223D01*
X110363253Y-97146401D01*
X110377868Y-97166107D01*
X110390480Y-97187150D01*
X110400970Y-97209329D01*
X110409235Y-97232428D01*
X110415196Y-97256227D01*
X110418796Y-97280495D01*
X110420000Y-97304999D01*
X110420000Y-97955001D01*
X110418796Y-97979505D01*
X110415196Y-98003773D01*
X110409235Y-98027572D01*
X110400970Y-98050671D01*
X110390480Y-98072850D01*
X110377868Y-98093893D01*
X110363253Y-98113599D01*
X110346777Y-98131777D01*
X110328599Y-98148253D01*
X110308893Y-98162868D01*
X110287850Y-98175480D01*
X110265671Y-98185970D01*
X110242572Y-98194235D01*
X110218773Y-98200196D01*
X110194505Y-98203796D01*
X110170001Y-98205000D01*
X109269999Y-98205000D01*
X109245495Y-98203796D01*
X109221227Y-98200196D01*
X109197428Y-98194235D01*
X109174329Y-98185970D01*
X109152150Y-98175480D01*
X109131107Y-98162868D01*
X109111401Y-98148253D01*
X109093223Y-98131777D01*
X109076747Y-98113599D01*
X109062132Y-98093893D01*
X109049520Y-98072850D01*
X109039030Y-98050671D01*
X109030765Y-98027572D01*
X109024804Y-98003773D01*
X109021204Y-97979505D01*
X109020000Y-97955001D01*
X109020000Y-97304999D01*
X109021204Y-97280495D01*
X109024804Y-97256227D01*
X109030765Y-97232428D01*
X109039030Y-97209329D01*
X109049520Y-97187150D01*
X109062132Y-97166107D01*
X109076747Y-97146401D01*
X109093223Y-97128223D01*
X109111401Y-97111747D01*
X109131107Y-97097132D01*
X109152150Y-97084520D01*
X109174329Y-97074030D01*
X109197428Y-97065765D01*
X109221227Y-97059804D01*
X109245495Y-97056204D01*
X109269999Y-97055000D01*
X110170001Y-97055000D01*
X110194505Y-97056204D01*
X110194505Y-97056204D01*
G37*
D11*
X109720000Y-97630000D03*
D10*
G36*
X110194505Y-95006204D02*
G01*
X110218773Y-95009804D01*
X110242572Y-95015765D01*
X110265671Y-95024030D01*
X110287850Y-95034520D01*
X110308893Y-95047132D01*
X110328599Y-95061747D01*
X110346777Y-95078223D01*
X110363253Y-95096401D01*
X110377868Y-95116107D01*
X110390480Y-95137150D01*
X110400970Y-95159329D01*
X110409235Y-95182428D01*
X110415196Y-95206227D01*
X110418796Y-95230495D01*
X110420000Y-95254999D01*
X110420000Y-95905001D01*
X110418796Y-95929505D01*
X110415196Y-95953773D01*
X110409235Y-95977572D01*
X110400970Y-96000671D01*
X110390480Y-96022850D01*
X110377868Y-96043893D01*
X110363253Y-96063599D01*
X110346777Y-96081777D01*
X110328599Y-96098253D01*
X110308893Y-96112868D01*
X110287850Y-96125480D01*
X110265671Y-96135970D01*
X110242572Y-96144235D01*
X110218773Y-96150196D01*
X110194505Y-96153796D01*
X110170001Y-96155000D01*
X109269999Y-96155000D01*
X109245495Y-96153796D01*
X109221227Y-96150196D01*
X109197428Y-96144235D01*
X109174329Y-96135970D01*
X109152150Y-96125480D01*
X109131107Y-96112868D01*
X109111401Y-96098253D01*
X109093223Y-96081777D01*
X109076747Y-96063599D01*
X109062132Y-96043893D01*
X109049520Y-96022850D01*
X109039030Y-96000671D01*
X109030765Y-95977572D01*
X109024804Y-95953773D01*
X109021204Y-95929505D01*
X109020000Y-95905001D01*
X109020000Y-95254999D01*
X109021204Y-95230495D01*
X109024804Y-95206227D01*
X109030765Y-95182428D01*
X109039030Y-95159329D01*
X109049520Y-95137150D01*
X109062132Y-95116107D01*
X109076747Y-95096401D01*
X109093223Y-95078223D01*
X109111401Y-95061747D01*
X109131107Y-95047132D01*
X109152150Y-95034520D01*
X109174329Y-95024030D01*
X109197428Y-95015765D01*
X109221227Y-95009804D01*
X109245495Y-95006204D01*
X109269999Y-95005000D01*
X110170001Y-95005000D01*
X110194505Y-95006204D01*
X110194505Y-95006204D01*
G37*
D11*
X109720000Y-95580000D03*
D12*
X109720000Y-105415000D03*
X108450000Y-105415000D03*
X107180000Y-105415000D03*
X105910000Y-105415000D03*
X105910000Y-100015000D03*
X107180000Y-100015000D03*
X108450000Y-100015000D03*
X109720000Y-100015000D03*
X115435000Y-100015000D03*
X114165000Y-100015000D03*
X112895000Y-100015000D03*
X111625000Y-100015000D03*
X111625000Y-105415000D03*
X112895000Y-105415000D03*
X114165000Y-105415000D03*
X115435000Y-105415000D03*
D18*
X105402000Y-108860500D03*
X100195000Y-107019000D03*
X113198500Y-110335000D03*
X111180500Y-107082500D03*
X107180000Y-94001500D03*
X115435000Y-94065000D03*
X119880000Y-94192000D03*
X126928500Y-94128500D03*
X99560000Y-94065000D03*
X132820000Y-110335000D03*
X121785000Y-109940000D03*
X119880000Y-107400000D03*
X125595000Y-107400000D03*
X131310000Y-103590000D03*
X135120000Y-94065000D03*
X107180000Y-107082500D03*
X108450000Y-107082500D03*
X108450000Y-101685000D03*
X101465000Y-94065000D03*
X121785000Y-94065000D03*
X128135000Y-101685000D03*
X126865000Y-107400000D03*
X128135000Y-107400000D03*
X129405000Y-94065000D03*
X111625000Y-94065000D03*
X117340000Y-94192000D03*
X137025000Y-94065000D03*
X109720000Y-107082500D03*
X115435000Y-106955500D03*
X104005000Y-106828500D03*
X103370000Y-94065000D03*
X123690000Y-106892000D03*
X129405000Y-107400000D03*
X135755000Y-106765000D03*
X123690000Y-94065000D03*
X132580000Y-94065000D03*
X115435000Y-92160000D03*
D19*
X105910000Y-108352500D02*
X105402000Y-108860500D01*
X105910000Y-105415000D02*
X105910000Y-108352500D01*
X100195000Y-105415000D02*
X100195000Y-107019000D01*
X111625000Y-105415000D02*
X111625000Y-106638000D01*
X111625000Y-106638000D02*
X111180500Y-107082500D01*
X111625000Y-104436800D02*
X111625000Y-105415000D01*
X111001628Y-103813428D02*
X111625000Y-104436800D01*
X111001628Y-98253372D02*
X111001628Y-103813428D01*
X111625000Y-97630000D02*
X111001628Y-98253372D01*
X107180000Y-95580000D02*
X107180000Y-94001500D01*
X115435000Y-95580000D02*
X115435000Y-94065000D01*
X119880000Y-95585000D02*
X119880000Y-94192000D01*
X126865000Y-95580000D02*
X126865000Y-94192000D01*
X126865000Y-94192000D02*
X126928500Y-94128500D01*
X99560000Y-95580000D02*
X99560000Y-94065000D01*
X119880000Y-105415000D02*
X119880000Y-107400000D01*
X125595000Y-105415000D02*
X125595000Y-107400000D01*
X131310000Y-105415000D02*
X131310000Y-103590000D01*
X135120000Y-95585000D02*
X135120000Y-94065000D01*
X114165000Y-106393200D02*
X114165000Y-105415000D01*
X114165000Y-107864078D02*
X114165000Y-106393200D01*
X108987000Y-113042078D02*
X114165000Y-107864078D01*
X108987000Y-115288000D02*
X108987000Y-113042078D01*
X107180000Y-107082500D02*
X107180000Y-105415000D01*
X102735000Y-105415000D02*
X102735000Y-110321000D01*
X104907000Y-112493000D02*
X104907000Y-115288000D01*
X102735000Y-110321000D02*
X104907000Y-112493000D01*
X108450000Y-105415000D02*
X108450000Y-107082500D01*
X112895000Y-106540000D02*
X105927000Y-113508000D01*
X112895000Y-105415000D02*
X112895000Y-106540000D01*
X101465000Y-111086000D02*
X103887000Y-113508000D01*
X101465000Y-105415000D02*
X101465000Y-111086000D01*
X107180000Y-100015000D02*
X107180000Y-97630000D01*
X114165000Y-100015000D02*
X112895000Y-100015000D01*
X113398200Y-100015000D02*
X112895000Y-100015000D01*
X113530000Y-99883200D02*
X113398200Y-100015000D01*
X113530000Y-97635000D02*
X113530000Y-99883200D01*
X108450000Y-100015000D02*
X108450000Y-101685000D01*
X101465000Y-94065000D02*
X101465000Y-95585000D01*
X100965000Y-93565000D02*
X101465000Y-94065000D01*
X100965000Y-89535000D02*
X100965000Y-93565000D01*
X101465000Y-100015000D02*
X102735000Y-100015000D01*
X102735000Y-98265000D02*
X103370000Y-97630000D01*
X102735000Y-100015000D02*
X102735000Y-98265000D01*
X124719000Y-114227340D02*
X124719000Y-115288000D01*
X124719000Y-113042078D02*
X124719000Y-114227340D01*
X122420000Y-110743078D02*
X124719000Y-113042078D01*
X122420000Y-105415000D02*
X122420000Y-110743078D01*
X121150000Y-110959000D02*
X123699000Y-113508000D01*
X121150000Y-105415000D02*
X121150000Y-110959000D01*
X121785000Y-95580000D02*
X121785000Y-94065000D01*
X128135000Y-100015000D02*
X128135000Y-101685000D01*
X128799000Y-114227340D02*
X128799000Y-115288000D01*
X128799000Y-113042078D02*
X128799000Y-114227340D01*
X133850000Y-107991078D02*
X128799000Y-113042078D01*
X133850000Y-105415000D02*
X133850000Y-107991078D01*
X126865000Y-107400000D02*
X126865000Y-105415000D01*
X128135000Y-105415000D02*
X128135000Y-107400000D01*
X132580000Y-106667000D02*
X132580000Y-105415000D01*
X125739000Y-113508000D02*
X132580000Y-106667000D01*
X109720000Y-95580000D02*
X111625000Y-95580000D01*
X129405000Y-95580000D02*
X129405000Y-94065000D01*
X111625000Y-95580000D02*
X111625000Y-94065000D01*
X111625000Y-94065000D02*
X114165000Y-91525000D01*
X121835000Y-91525000D02*
X123825000Y-89535000D01*
X114165000Y-91525000D02*
X121835000Y-91525000D01*
X121150000Y-100015000D02*
X122420000Y-100015000D01*
X122420000Y-98900000D02*
X123690000Y-97630000D01*
X122420000Y-100015000D02*
X122420000Y-98900000D01*
X100195000Y-98265000D02*
X99560000Y-97630000D01*
X100195000Y-100015000D02*
X100195000Y-98265000D01*
X99565000Y-97635000D02*
X99560000Y-97630000D01*
X101465000Y-97635000D02*
X99565000Y-97635000D01*
X133850000Y-100015000D02*
X132580000Y-100015000D01*
X132580000Y-100015000D02*
X132580000Y-97635000D01*
X131310000Y-100993200D02*
X131310000Y-100015000D01*
X131851800Y-101535000D02*
X131310000Y-100993200D01*
X135845000Y-101535000D02*
X131851800Y-101535000D01*
X137025000Y-97635000D02*
X137025000Y-100355000D01*
X137025000Y-100355000D02*
X135845000Y-101535000D01*
X135120000Y-97635000D02*
X137025000Y-97635000D01*
X117340000Y-98305000D02*
X117340000Y-97630000D01*
X117340000Y-99642202D02*
X117340000Y-98305000D01*
X115938201Y-101044001D02*
X117340000Y-99642202D01*
X112179001Y-101044001D02*
X115938201Y-101044001D01*
X111625000Y-100490000D02*
X112179001Y-101044001D01*
X111625000Y-100015000D02*
X111625000Y-100490000D01*
X115435000Y-97630000D02*
X117340000Y-97630000D01*
X119880000Y-97635000D02*
X119880000Y-100015000D01*
X119885000Y-97630000D02*
X119880000Y-97635000D01*
X121785000Y-97630000D02*
X119885000Y-97630000D01*
X126865000Y-97630000D02*
X126865000Y-99145000D01*
X126865000Y-99145000D02*
X126865000Y-100015000D01*
X117340000Y-95580000D02*
X117340000Y-94192000D01*
X137025000Y-95585000D02*
X137025000Y-94065000D01*
X117878815Y-94192000D02*
X119910815Y-92160000D01*
X117340000Y-94192000D02*
X117878815Y-94192000D01*
X123740000Y-92160000D02*
X126365000Y-89535000D01*
X119910815Y-92160000D02*
X123740000Y-92160000D01*
X109720000Y-99036800D02*
X109720000Y-97630000D01*
X109720000Y-100015000D02*
X109720000Y-99036800D01*
X129405000Y-97630000D02*
X129405000Y-100015000D01*
X109720000Y-105415000D02*
X109720000Y-107082500D01*
X115435000Y-105415000D02*
X115435000Y-106955500D01*
X104005000Y-105415000D02*
X104005000Y-106828500D01*
X103370000Y-95580000D02*
X103370000Y-94065000D01*
X123690000Y-106892000D02*
X123690000Y-105415000D01*
X129405000Y-107400000D02*
X129405000Y-105415000D01*
X135120000Y-105415000D02*
X135120000Y-106130000D01*
X135120000Y-106130000D02*
X135755000Y-106765000D01*
X123690000Y-95580000D02*
X123690000Y-94065000D01*
X132580000Y-95585000D02*
X132580000Y-94065000D01*
X113530000Y-94065000D02*
X113530000Y-95585000D01*
X115435000Y-92160000D02*
X113530000Y-94065000D01*
D20*
G36*
X149015001Y-122565000D02*
G01*
X94555000Y-122565000D01*
X94555000Y-114236967D01*
X97702000Y-114236967D01*
X97702000Y-114559033D01*
X97764832Y-114874912D01*
X97888082Y-115172463D01*
X98067013Y-115440252D01*
X98294748Y-115667987D01*
X98562537Y-115846918D01*
X98860088Y-115970168D01*
X99175967Y-116033000D01*
X99498033Y-116033000D01*
X99813912Y-115970168D01*
X99855056Y-115953125D01*
X99676334Y-116072544D01*
X99361544Y-116387334D01*
X99114214Y-116757489D01*
X98943851Y-117168782D01*
X98857000Y-117605409D01*
X98857000Y-118050591D01*
X98943851Y-118487218D01*
X99114214Y-118898511D01*
X99361544Y-119268666D01*
X99676334Y-119583456D01*
X100046489Y-119830786D01*
X100457782Y-120001149D01*
X100894409Y-120088000D01*
X101339591Y-120088000D01*
X101776218Y-120001149D01*
X102187511Y-119830786D01*
X102557666Y-119583456D01*
X102872456Y-119268666D01*
X103119786Y-118898511D01*
X103290149Y-118487218D01*
X103377000Y-118050591D01*
X103377000Y-117605409D01*
X103290149Y-117168782D01*
X103119786Y-116757489D01*
X102872456Y-116387334D01*
X102557666Y-116072544D01*
X102187511Y-115825214D01*
X101776218Y-115654851D01*
X101339591Y-115568000D01*
X100894409Y-115568000D01*
X100457782Y-115654851D01*
X100302895Y-115719007D01*
X100379252Y-115667987D01*
X100606987Y-115440252D01*
X100785918Y-115172463D01*
X100909168Y-114874912D01*
X100972000Y-114559033D01*
X100972000Y-114236967D01*
X100909168Y-113921088D01*
X100785918Y-113623537D01*
X100606987Y-113355748D01*
X100379252Y-113128013D01*
X100111463Y-112949082D01*
X99813912Y-112825832D01*
X99498033Y-112763000D01*
X99175967Y-112763000D01*
X98860088Y-112825832D01*
X98562537Y-112949082D01*
X98294748Y-113128013D01*
X98067013Y-113355748D01*
X97888082Y-113623537D01*
X97764832Y-113921088D01*
X97702000Y-114236967D01*
X94555000Y-114236967D01*
X94555000Y-90196956D01*
X94644294Y-90364014D01*
X94829866Y-90590134D01*
X95055986Y-90775706D01*
X95313966Y-90913599D01*
X95593889Y-90998513D01*
X95812050Y-91020000D01*
X95957950Y-91020000D01*
X96176111Y-90998513D01*
X96456034Y-90913599D01*
X96714014Y-90775706D01*
X96940134Y-90590134D01*
X97125706Y-90364014D01*
X97155000Y-90309209D01*
X97184294Y-90364014D01*
X97369866Y-90590134D01*
X97595986Y-90775706D01*
X97853966Y-90913599D01*
X98133889Y-90998513D01*
X98352050Y-91020000D01*
X98497950Y-91020000D01*
X98716111Y-90998513D01*
X98996034Y-90913599D01*
X99254014Y-90775706D01*
X99480134Y-90590134D01*
X99665706Y-90364014D01*
X99695000Y-90309209D01*
X99724294Y-90364014D01*
X99909866Y-90590134D01*
X100135986Y-90775706D01*
X100228400Y-90825102D01*
X100228401Y-93296560D01*
X100207662Y-93275821D01*
X100041256Y-93164632D01*
X99856356Y-93088044D01*
X99660067Y-93049000D01*
X99459933Y-93049000D01*
X99263644Y-93088044D01*
X99078744Y-93164632D01*
X98912338Y-93275821D01*
X98770821Y-93417338D01*
X98659632Y-93583744D01*
X98583044Y-93768644D01*
X98544000Y-93964933D01*
X98544000Y-94165067D01*
X98583044Y-94361356D01*
X98641775Y-94503146D01*
X98616613Y-94516595D01*
X98482038Y-94627038D01*
X98371595Y-94761613D01*
X98289528Y-94915149D01*
X98238992Y-95081745D01*
X98221928Y-95254999D01*
X98221928Y-95905001D01*
X98238992Y-96078255D01*
X98289528Y-96244851D01*
X98371595Y-96398387D01*
X98482038Y-96532962D01*
X98569816Y-96605000D01*
X98482038Y-96677038D01*
X98371595Y-96811613D01*
X98289528Y-96965149D01*
X98238992Y-97131745D01*
X98221928Y-97304999D01*
X98221928Y-97955001D01*
X98238992Y-98128255D01*
X98289528Y-98294851D01*
X98371595Y-98448387D01*
X98482038Y-98582962D01*
X98616613Y-98693405D01*
X98770149Y-98775472D01*
X98936745Y-98826008D01*
X99109999Y-98843072D01*
X99399288Y-98843072D01*
X99364463Y-98885506D01*
X99305498Y-98995820D01*
X99269188Y-99115518D01*
X99256928Y-99240000D01*
X99256928Y-100790000D01*
X99269188Y-100914482D01*
X99305498Y-101034180D01*
X99364463Y-101144494D01*
X99443815Y-101241185D01*
X99540506Y-101320537D01*
X99650820Y-101379502D01*
X99770518Y-101415812D01*
X99895000Y-101428072D01*
X100495000Y-101428072D01*
X100619482Y-101415812D01*
X100739180Y-101379502D01*
X100830000Y-101330957D01*
X100920820Y-101379502D01*
X101040518Y-101415812D01*
X101165000Y-101428072D01*
X101765000Y-101428072D01*
X101889482Y-101415812D01*
X102009180Y-101379502D01*
X102100000Y-101330957D01*
X102190820Y-101379502D01*
X102310518Y-101415812D01*
X102435000Y-101428072D01*
X103035000Y-101428072D01*
X103159482Y-101415812D01*
X103279180Y-101379502D01*
X103370000Y-101330957D01*
X103460820Y-101379502D01*
X103580518Y-101415812D01*
X103705000Y-101428072D01*
X104305000Y-101428072D01*
X104429482Y-101415812D01*
X104549180Y-101379502D01*
X104659494Y-101320537D01*
X104756185Y-101241185D01*
X104835537Y-101144494D01*
X104894502Y-101034180D01*
X104930812Y-100914482D01*
X104943072Y-100790000D01*
X104943072Y-99240000D01*
X104930812Y-99115518D01*
X104894502Y-98995820D01*
X104835537Y-98885506D01*
X104756185Y-98788815D01*
X104659494Y-98709463D01*
X104549180Y-98650498D01*
X104429482Y-98614188D01*
X104412010Y-98612467D01*
X104447962Y-98582962D01*
X104558405Y-98448387D01*
X104640472Y-98294851D01*
X104691008Y-98128255D01*
X104708072Y-97955001D01*
X104708072Y-97304999D01*
X104691008Y-97131745D01*
X104640472Y-96965149D01*
X104558405Y-96811613D01*
X104447962Y-96677038D01*
X104441406Y-96671658D01*
X104521185Y-96606185D01*
X104600537Y-96509494D01*
X104659502Y-96399180D01*
X104695812Y-96279482D01*
X104708072Y-96155000D01*
X104705000Y-95865750D01*
X104546250Y-95707000D01*
X103497000Y-95707000D01*
X103497000Y-95727000D01*
X103243000Y-95727000D01*
X103243000Y-95707000D01*
X103223000Y-95707000D01*
X103223000Y-95453000D01*
X103243000Y-95453000D01*
X103243000Y-94528750D01*
X103497000Y-94528750D01*
X103497000Y-95453000D01*
X104546250Y-95453000D01*
X104705000Y-95294250D01*
X104708072Y-95005000D01*
X104695812Y-94880518D01*
X104659502Y-94760820D01*
X104600537Y-94650506D01*
X104521185Y-94553815D01*
X104424494Y-94474463D01*
X104314180Y-94415498D01*
X104194482Y-94379188D01*
X104070000Y-94366928D01*
X103655750Y-94370000D01*
X103497000Y-94528750D01*
X103243000Y-94528750D01*
X103084250Y-94370000D01*
X102670000Y-94366928D01*
X102545518Y-94379188D01*
X102425820Y-94415498D01*
X102417741Y-94419816D01*
X102441956Y-94361356D01*
X102481000Y-94165067D01*
X102481000Y-93964933D01*
X102441956Y-93768644D01*
X102365368Y-93583744D01*
X102254179Y-93417338D01*
X102112662Y-93275821D01*
X101946256Y-93164632D01*
X101761356Y-93088044D01*
X101701600Y-93076158D01*
X101701600Y-90825102D01*
X101794014Y-90775706D01*
X102020134Y-90590134D01*
X102205706Y-90364014D01*
X102235000Y-90309209D01*
X102264294Y-90364014D01*
X102449866Y-90590134D01*
X102675986Y-90775706D01*
X102933966Y-90913599D01*
X103213889Y-90998513D01*
X103432050Y-91020000D01*
X103577950Y-91020000D01*
X103796111Y-90998513D01*
X104076034Y-90913599D01*
X104334014Y-90775706D01*
X104560134Y-90590134D01*
X104745706Y-90364014D01*
X104775000Y-90309209D01*
X104804294Y-90364014D01*
X104989866Y-90590134D01*
X105215986Y-90775706D01*
X105473966Y-90913599D01*
X105753889Y-90998513D01*
X105972050Y-91020000D01*
X106117950Y-91020000D01*
X106336111Y-90998513D01*
X106616034Y-90913599D01*
X106874014Y-90775706D01*
X107100134Y-90590134D01*
X107285706Y-90364014D01*
X107315000Y-90309209D01*
X107344294Y-90364014D01*
X107529866Y-90590134D01*
X107755986Y-90775706D01*
X108013966Y-90913599D01*
X108293889Y-90998513D01*
X108512050Y-91020000D01*
X108657950Y-91020000D01*
X108876111Y-90998513D01*
X109156034Y-90913599D01*
X109414014Y-90775706D01*
X109640134Y-90590134D01*
X109825706Y-90364014D01*
X109855000Y-90309209D01*
X109884294Y-90364014D01*
X110069866Y-90590134D01*
X110295986Y-90775706D01*
X110553966Y-90913599D01*
X110833889Y-90998513D01*
X111052050Y-91020000D01*
X111197950Y-91020000D01*
X111416111Y-90998513D01*
X111696034Y-90913599D01*
X111954014Y-90775706D01*
X112180134Y-90590134D01*
X112365706Y-90364014D01*
X112395000Y-90309209D01*
X112424294Y-90364014D01*
X112609866Y-90590134D01*
X112835986Y-90775706D01*
X113093966Y-90913599D01*
X113373889Y-90998513D01*
X113592050Y-91020000D01*
X113626545Y-91020000D01*
X113618554Y-91029737D01*
X111599291Y-93049000D01*
X111524933Y-93049000D01*
X111328644Y-93088044D01*
X111143744Y-93164632D01*
X110977338Y-93275821D01*
X110835821Y-93417338D01*
X110724632Y-93583744D01*
X110648044Y-93768644D01*
X110609000Y-93964933D01*
X110609000Y-94165067D01*
X110648044Y-94361356D01*
X110706775Y-94503146D01*
X110681613Y-94516595D01*
X110672500Y-94524074D01*
X110663387Y-94516595D01*
X110509851Y-94434528D01*
X110343255Y-94383992D01*
X110170001Y-94366928D01*
X109269999Y-94366928D01*
X109096745Y-94383992D01*
X108930149Y-94434528D01*
X108776613Y-94516595D01*
X108642038Y-94627038D01*
X108531595Y-94761613D01*
X108450000Y-94914266D01*
X108368405Y-94761613D01*
X108257962Y-94627038D01*
X108123387Y-94516595D01*
X108075029Y-94490747D01*
X108080368Y-94482756D01*
X108156956Y-94297856D01*
X108196000Y-94101567D01*
X108196000Y-93901433D01*
X108156956Y-93705144D01*
X108080368Y-93520244D01*
X107969179Y-93353838D01*
X107827662Y-93212321D01*
X107661256Y-93101132D01*
X107476356Y-93024544D01*
X107280067Y-92985500D01*
X107079933Y-92985500D01*
X106883644Y-93024544D01*
X106698744Y-93101132D01*
X106532338Y-93212321D01*
X106390821Y-93353838D01*
X106279632Y-93520244D01*
X106203044Y-93705144D01*
X106164000Y-93901433D01*
X106164000Y-94101567D01*
X106203044Y-94297856D01*
X106279632Y-94482756D01*
X106284971Y-94490747D01*
X106236613Y-94516595D01*
X106102038Y-94627038D01*
X105991595Y-94761613D01*
X105909528Y-94915149D01*
X105858992Y-95081745D01*
X105841928Y-95254999D01*
X105841928Y-95905001D01*
X105858992Y-96078255D01*
X105909528Y-96244851D01*
X105991595Y-96398387D01*
X106102038Y-96532962D01*
X106189816Y-96605000D01*
X106102038Y-96677038D01*
X105991595Y-96811613D01*
X105909528Y-96965149D01*
X105858992Y-97131745D01*
X105841928Y-97304999D01*
X105841928Y-97955001D01*
X105858992Y-98128255D01*
X105909528Y-98294851D01*
X105991595Y-98448387D01*
X106102038Y-98582962D01*
X106125148Y-98601928D01*
X105610000Y-98601928D01*
X105485518Y-98614188D01*
X105365820Y-98650498D01*
X105255506Y-98709463D01*
X105158815Y-98788815D01*
X105079463Y-98885506D01*
X105020498Y-98995820D01*
X104984188Y-99115518D01*
X104971928Y-99240000D01*
X104971928Y-100790000D01*
X104984188Y-100914482D01*
X105020498Y-101034180D01*
X105079463Y-101144494D01*
X105158815Y-101241185D01*
X105255506Y-101320537D01*
X105365820Y-101379502D01*
X105485518Y-101415812D01*
X105610000Y-101428072D01*
X106210000Y-101428072D01*
X106334482Y-101415812D01*
X106454180Y-101379502D01*
X106545000Y-101330957D01*
X106635820Y-101379502D01*
X106755518Y-101415812D01*
X106880000Y-101428072D01*
X107465201Y-101428072D01*
X107434000Y-101584933D01*
X107434000Y-101785067D01*
X107473044Y-101981356D01*
X107549632Y-102166256D01*
X107660821Y-102332662D01*
X107802338Y-102474179D01*
X107968744Y-102585368D01*
X108153644Y-102661956D01*
X108349933Y-102701000D01*
X108550067Y-102701000D01*
X108746356Y-102661956D01*
X108931256Y-102585368D01*
X109097662Y-102474179D01*
X109239179Y-102332662D01*
X109350368Y-102166256D01*
X109426956Y-101981356D01*
X109466000Y-101785067D01*
X109466000Y-101584933D01*
X109434799Y-101428072D01*
X110020000Y-101428072D01*
X110144482Y-101415812D01*
X110264180Y-101379502D01*
X110265029Y-101379048D01*
X110265029Y-103777235D01*
X110261464Y-103813428D01*
X110275687Y-103957826D01*
X110311466Y-104075773D01*
X110264180Y-104050498D01*
X110144482Y-104014188D01*
X110020000Y-104001928D01*
X110005750Y-104005000D01*
X109847000Y-104163750D01*
X109847000Y-105288000D01*
X110496250Y-105288000D01*
X110655000Y-105129250D01*
X110658072Y-104640000D01*
X110645812Y-104515518D01*
X110638759Y-104492269D01*
X110695855Y-104549364D01*
X110686928Y-104640000D01*
X110686928Y-106190000D01*
X110686961Y-106190339D01*
X110656001Y-106211026D01*
X110658072Y-106190000D01*
X110655000Y-105700750D01*
X110496250Y-105542000D01*
X109847000Y-105542000D01*
X109847000Y-106666250D01*
X110005750Y-106825000D01*
X110020000Y-106828072D01*
X110144482Y-106815812D01*
X110201056Y-106798650D01*
X110164500Y-106982433D01*
X110164500Y-107182567D01*
X110203544Y-107378856D01*
X110280132Y-107563756D01*
X110391321Y-107730162D01*
X110527225Y-107866066D01*
X106235967Y-112157324D01*
X106063411Y-112123000D01*
X105790589Y-112123000D01*
X105568107Y-112167255D01*
X105522424Y-112081787D01*
X105453442Y-111997732D01*
X105453437Y-111997727D01*
X105430374Y-111969625D01*
X105402273Y-111946563D01*
X103471600Y-110015891D01*
X103471600Y-108760433D01*
X104386000Y-108760433D01*
X104386000Y-108960567D01*
X104425044Y-109156856D01*
X104501632Y-109341756D01*
X104612821Y-109508162D01*
X104754338Y-109649679D01*
X104920744Y-109760868D01*
X105105644Y-109837456D01*
X105301933Y-109876500D01*
X105502067Y-109876500D01*
X105698356Y-109837456D01*
X105883256Y-109760868D01*
X106049662Y-109649679D01*
X106191179Y-109508162D01*
X106302368Y-109341756D01*
X106378956Y-109156856D01*
X106418000Y-108960567D01*
X106418000Y-108888493D01*
X106433375Y-108875875D01*
X106525424Y-108763713D01*
X106593822Y-108635749D01*
X106635942Y-108496899D01*
X106646600Y-108388686D01*
X106646600Y-108388677D01*
X106650163Y-108352501D01*
X106646600Y-108316325D01*
X106646600Y-107948026D01*
X106698744Y-107982868D01*
X106883644Y-108059456D01*
X107079933Y-108098500D01*
X107280067Y-108098500D01*
X107476356Y-108059456D01*
X107661256Y-107982868D01*
X107815000Y-107880139D01*
X107968744Y-107982868D01*
X108153644Y-108059456D01*
X108349933Y-108098500D01*
X108550067Y-108098500D01*
X108746356Y-108059456D01*
X108931256Y-107982868D01*
X109097662Y-107871679D01*
X109239179Y-107730162D01*
X109350368Y-107563756D01*
X109426956Y-107378856D01*
X109466000Y-107182567D01*
X109466000Y-106982433D01*
X109434613Y-106824637D01*
X109593000Y-106666250D01*
X109593000Y-105542000D01*
X109573000Y-105542000D01*
X109573000Y-105288000D01*
X109593000Y-105288000D01*
X109593000Y-104163750D01*
X109434250Y-104005000D01*
X109420000Y-104001928D01*
X109295518Y-104014188D01*
X109175820Y-104050498D01*
X109085000Y-104099043D01*
X108994180Y-104050498D01*
X108874482Y-104014188D01*
X108750000Y-104001928D01*
X108150000Y-104001928D01*
X108025518Y-104014188D01*
X107905820Y-104050498D01*
X107815000Y-104099043D01*
X107724180Y-104050498D01*
X107604482Y-104014188D01*
X107480000Y-104001928D01*
X106880000Y-104001928D01*
X106755518Y-104014188D01*
X106635820Y-104050498D01*
X106545000Y-104099043D01*
X106454180Y-104050498D01*
X106334482Y-104014188D01*
X106210000Y-104001928D01*
X105610000Y-104001928D01*
X105485518Y-104014188D01*
X105365820Y-104050498D01*
X105255506Y-104109463D01*
X105158815Y-104188815D01*
X105079463Y-104285506D01*
X105020498Y-104395820D01*
X104984188Y-104515518D01*
X104971928Y-104640000D01*
X104971928Y-106190000D01*
X104984188Y-106314482D01*
X105020498Y-106434180D01*
X105079463Y-106544494D01*
X105158815Y-106641185D01*
X105173400Y-106653155D01*
X105173401Y-107870066D01*
X105105644Y-107883544D01*
X104920744Y-107960132D01*
X104754338Y-108071321D01*
X104612821Y-108212838D01*
X104501632Y-108379244D01*
X104425044Y-108564144D01*
X104386000Y-108760433D01*
X103471600Y-108760433D01*
X103471600Y-106782772D01*
X103580518Y-106815812D01*
X103705000Y-106828072D01*
X103719250Y-106825000D01*
X103878000Y-106666250D01*
X103878000Y-105542000D01*
X104132000Y-105542000D01*
X104132000Y-106666250D01*
X104290750Y-106825000D01*
X104305000Y-106828072D01*
X104429482Y-106815812D01*
X104549180Y-106779502D01*
X104659494Y-106720537D01*
X104756185Y-106641185D01*
X104835537Y-106544494D01*
X104894502Y-106434180D01*
X104930812Y-106314482D01*
X104943072Y-106190000D01*
X104940000Y-105700750D01*
X104781250Y-105542000D01*
X104132000Y-105542000D01*
X103878000Y-105542000D01*
X103858000Y-105542000D01*
X103858000Y-105288000D01*
X103878000Y-105288000D01*
X103878000Y-104163750D01*
X104132000Y-104163750D01*
X104132000Y-105288000D01*
X104781250Y-105288000D01*
X104940000Y-105129250D01*
X104943072Y-104640000D01*
X104930812Y-104515518D01*
X104894502Y-104395820D01*
X104835537Y-104285506D01*
X104756185Y-104188815D01*
X104659494Y-104109463D01*
X104549180Y-104050498D01*
X104429482Y-104014188D01*
X104305000Y-104001928D01*
X104290750Y-104005000D01*
X104132000Y-104163750D01*
X103878000Y-104163750D01*
X103719250Y-104005000D01*
X103705000Y-104001928D01*
X103580518Y-104014188D01*
X103460820Y-104050498D01*
X103370000Y-104099043D01*
X103279180Y-104050498D01*
X103159482Y-104014188D01*
X103035000Y-104001928D01*
X102435000Y-104001928D01*
X102310518Y-104014188D01*
X102190820Y-104050498D01*
X102100000Y-104099043D01*
X102009180Y-104050498D01*
X101889482Y-104014188D01*
X101765000Y-104001928D01*
X101165000Y-104001928D01*
X101040518Y-104014188D01*
X100920820Y-104050498D01*
X100830000Y-104099043D01*
X100739180Y-104050498D01*
X100619482Y-104014188D01*
X100495000Y-104001928D01*
X99895000Y-104001928D01*
X99770518Y-104014188D01*
X99650820Y-104050498D01*
X99540506Y-104109463D01*
X99443815Y-104188815D01*
X99364463Y-104285506D01*
X99305498Y-104395820D01*
X99269188Y-104515518D01*
X99256928Y-104640000D01*
X99256928Y-106190000D01*
X99269188Y-106314482D01*
X99305498Y-106434180D01*
X99331423Y-106482682D01*
X99294632Y-106537744D01*
X99218044Y-106722644D01*
X99179000Y-106918933D01*
X99179000Y-107119067D01*
X99218044Y-107315356D01*
X99294632Y-107500256D01*
X99405821Y-107666662D01*
X99547338Y-107808179D01*
X99713744Y-107919368D01*
X99898644Y-107995956D01*
X100094933Y-108035000D01*
X100295067Y-108035000D01*
X100491356Y-107995956D01*
X100676256Y-107919368D01*
X100728400Y-107884526D01*
X100728401Y-111049807D01*
X100724836Y-111086000D01*
X100731563Y-111154291D01*
X100739059Y-111230399D01*
X100742653Y-111242247D01*
X100781178Y-111369247D01*
X100834508Y-111469020D01*
X100849577Y-111497213D01*
X100941626Y-111609375D01*
X100969732Y-111632441D01*
X102536324Y-113199033D01*
X102502000Y-113371589D01*
X102502000Y-113644411D01*
X102555225Y-113911989D01*
X102659629Y-114164043D01*
X102811201Y-114390886D01*
X103004114Y-114583799D01*
X103230957Y-114735371D01*
X103483011Y-114839775D01*
X103585134Y-114860089D01*
X103575225Y-114884011D01*
X103522000Y-115151589D01*
X103522000Y-115424411D01*
X103575225Y-115691989D01*
X103679629Y-115944043D01*
X103831201Y-116170886D01*
X104024114Y-116363799D01*
X104250957Y-116515371D01*
X104503011Y-116619775D01*
X104770589Y-116673000D01*
X105043411Y-116673000D01*
X105310989Y-116619775D01*
X105563043Y-116515371D01*
X105789886Y-116363799D01*
X105927000Y-116226685D01*
X106064114Y-116363799D01*
X106290957Y-116515371D01*
X106543011Y-116619775D01*
X106810589Y-116673000D01*
X107083411Y-116673000D01*
X107350989Y-116619775D01*
X107603043Y-116515371D01*
X107829886Y-116363799D01*
X107967000Y-116226685D01*
X108104114Y-116363799D01*
X108330957Y-116515371D01*
X108583011Y-116619775D01*
X108850589Y-116673000D01*
X109123411Y-116673000D01*
X109390989Y-116619775D01*
X109643043Y-116515371D01*
X109774965Y-116427224D01*
X109825815Y-116489185D01*
X109922506Y-116568537D01*
X110032820Y-116627502D01*
X110152518Y-116663812D01*
X110277000Y-116676072D01*
X111777000Y-116676072D01*
X111875069Y-116666413D01*
X111814214Y-116757489D01*
X111643851Y-117168782D01*
X111557000Y-117605409D01*
X111557000Y-118050591D01*
X111643851Y-118487218D01*
X111814214Y-118898511D01*
X112061544Y-119268666D01*
X112376334Y-119583456D01*
X112746489Y-119830786D01*
X113157782Y-120001149D01*
X113594409Y-120088000D01*
X114039591Y-120088000D01*
X114476218Y-120001149D01*
X114887511Y-119830786D01*
X115257666Y-119583456D01*
X115572456Y-119268666D01*
X115819786Y-118898511D01*
X115990149Y-118487218D01*
X116077000Y-118050591D01*
X116077000Y-117605409D01*
X115990149Y-117168782D01*
X115819786Y-116757489D01*
X115572456Y-116387334D01*
X115257666Y-116072544D01*
X115078944Y-115953125D01*
X115120088Y-115970168D01*
X115435967Y-116033000D01*
X115758033Y-116033000D01*
X116073912Y-115970168D01*
X116371463Y-115846918D01*
X116639252Y-115667987D01*
X116866987Y-115440252D01*
X117045918Y-115172463D01*
X117169168Y-114874912D01*
X117232000Y-114559033D01*
X117232000Y-114236967D01*
X117514000Y-114236967D01*
X117514000Y-114559033D01*
X117576832Y-114874912D01*
X117700082Y-115172463D01*
X117879013Y-115440252D01*
X118106748Y-115667987D01*
X118374537Y-115846918D01*
X118672088Y-115970168D01*
X118987967Y-116033000D01*
X119310033Y-116033000D01*
X119625912Y-115970168D01*
X119667056Y-115953125D01*
X119488334Y-116072544D01*
X119173544Y-116387334D01*
X118926214Y-116757489D01*
X118755851Y-117168782D01*
X118669000Y-117605409D01*
X118669000Y-118050591D01*
X118755851Y-118487218D01*
X118926214Y-118898511D01*
X119173544Y-119268666D01*
X119488334Y-119583456D01*
X119858489Y-119830786D01*
X120269782Y-120001149D01*
X120706409Y-120088000D01*
X121151591Y-120088000D01*
X121588218Y-120001149D01*
X121999511Y-119830786D01*
X122369666Y-119583456D01*
X122684456Y-119268666D01*
X122931786Y-118898511D01*
X123102149Y-118487218D01*
X123189000Y-118050591D01*
X123189000Y-117605409D01*
X123102149Y-117168782D01*
X122931786Y-116757489D01*
X122684456Y-116387334D01*
X122369666Y-116072544D01*
X121999511Y-115825214D01*
X121588218Y-115654851D01*
X121151591Y-115568000D01*
X120706409Y-115568000D01*
X120269782Y-115654851D01*
X120114895Y-115719007D01*
X120191252Y-115667987D01*
X120418987Y-115440252D01*
X120597918Y-115172463D01*
X120721168Y-114874912D01*
X120784000Y-114559033D01*
X120784000Y-114236967D01*
X120721168Y-113921088D01*
X120597918Y-113623537D01*
X120418987Y-113355748D01*
X120191252Y-113128013D01*
X119923463Y-112949082D01*
X119625912Y-112825832D01*
X119310033Y-112763000D01*
X118987967Y-112763000D01*
X118672088Y-112825832D01*
X118374537Y-112949082D01*
X118106748Y-113128013D01*
X117879013Y-113355748D01*
X117700082Y-113623537D01*
X117576832Y-113921088D01*
X117514000Y-114236967D01*
X117232000Y-114236967D01*
X117169168Y-113921088D01*
X117045918Y-113623537D01*
X116866987Y-113355748D01*
X116639252Y-113128013D01*
X116371463Y-112949082D01*
X116073912Y-112825832D01*
X115758033Y-112763000D01*
X115435967Y-112763000D01*
X115120088Y-112825832D01*
X114822537Y-112949082D01*
X114554748Y-113128013D01*
X114327013Y-113355748D01*
X114148082Y-113623537D01*
X114024832Y-113921088D01*
X113962000Y-114236967D01*
X113962000Y-114559033D01*
X114024832Y-114874912D01*
X114148082Y-115172463D01*
X114327013Y-115440252D01*
X114554748Y-115667987D01*
X114631105Y-115719007D01*
X114476218Y-115654851D01*
X114039591Y-115568000D01*
X113594409Y-115568000D01*
X113157782Y-115654851D01*
X112746489Y-115825214D01*
X112414159Y-116047270D01*
X112415072Y-116038000D01*
X112415072Y-114538000D01*
X112402812Y-114413518D01*
X112366502Y-114293820D01*
X112307537Y-114183506D01*
X112228185Y-114086815D01*
X112131494Y-114007463D01*
X112021180Y-113948498D01*
X111901482Y-113912188D01*
X111777000Y-113899928D01*
X111336800Y-113899928D01*
X111384250Y-113708040D01*
X111396812Y-113435508D01*
X111355965Y-113165762D01*
X111263277Y-112909168D01*
X111202860Y-112796137D01*
X110963993Y-112730612D01*
X110186605Y-113508000D01*
X110200748Y-113522143D01*
X110021143Y-113701748D01*
X110007000Y-113687605D01*
X109992858Y-113701748D01*
X109813253Y-113522143D01*
X109827395Y-113508000D01*
X109813253Y-113493858D01*
X109992858Y-113314253D01*
X110007000Y-113328395D01*
X110784388Y-112551007D01*
X110727427Y-112343360D01*
X112285362Y-110785426D01*
X112298132Y-110816256D01*
X112409321Y-110982662D01*
X112550838Y-111124179D01*
X112717244Y-111235368D01*
X112902144Y-111311956D01*
X113098433Y-111351000D01*
X113298567Y-111351000D01*
X113494856Y-111311956D01*
X113679756Y-111235368D01*
X113846162Y-111124179D01*
X113987679Y-110982662D01*
X114098868Y-110816256D01*
X114175456Y-110631356D01*
X114214500Y-110435067D01*
X114214500Y-110234933D01*
X114175456Y-110038644D01*
X114098868Y-109853744D01*
X113987679Y-109687338D01*
X113846162Y-109545821D01*
X113679756Y-109434632D01*
X113648926Y-109421862D01*
X114660273Y-108410514D01*
X114688374Y-108387453D01*
X114711437Y-108359351D01*
X114711442Y-108359346D01*
X114780424Y-108275291D01*
X114780940Y-108274326D01*
X114848822Y-108147327D01*
X114890942Y-108008477D01*
X114901600Y-107900264D01*
X114901600Y-107900263D01*
X114905164Y-107864078D01*
X114901600Y-107827892D01*
X114901600Y-107299933D01*
X118864000Y-107299933D01*
X118864000Y-107500067D01*
X118903044Y-107696356D01*
X118979632Y-107881256D01*
X119090821Y-108047662D01*
X119232338Y-108189179D01*
X119398744Y-108300368D01*
X119583644Y-108376956D01*
X119779933Y-108416000D01*
X119980067Y-108416000D01*
X120176356Y-108376956D01*
X120361256Y-108300368D01*
X120413401Y-108265526D01*
X120413401Y-110922807D01*
X120409836Y-110959000D01*
X120424059Y-111103398D01*
X120466178Y-111242247D01*
X120534062Y-111369249D01*
X120534577Y-111370213D01*
X120626626Y-111482375D01*
X120654732Y-111505441D01*
X122348324Y-113199033D01*
X122314000Y-113371589D01*
X122314000Y-113644411D01*
X122367225Y-113911989D01*
X122471629Y-114164043D01*
X122623201Y-114390886D01*
X122816114Y-114583799D01*
X123042957Y-114735371D01*
X123295011Y-114839775D01*
X123397134Y-114860089D01*
X123387225Y-114884011D01*
X123334000Y-115151589D01*
X123334000Y-115424411D01*
X123387225Y-115691989D01*
X123491629Y-115944043D01*
X123643201Y-116170886D01*
X123836114Y-116363799D01*
X124062957Y-116515371D01*
X124315011Y-116619775D01*
X124582589Y-116673000D01*
X124855411Y-116673000D01*
X125122989Y-116619775D01*
X125375043Y-116515371D01*
X125601886Y-116363799D01*
X125739000Y-116226685D01*
X125876114Y-116363799D01*
X126102957Y-116515371D01*
X126355011Y-116619775D01*
X126622589Y-116673000D01*
X126895411Y-116673000D01*
X127162989Y-116619775D01*
X127415043Y-116515371D01*
X127641886Y-116363799D01*
X127779000Y-116226685D01*
X127916114Y-116363799D01*
X128142957Y-116515371D01*
X128395011Y-116619775D01*
X128662589Y-116673000D01*
X128935411Y-116673000D01*
X129202989Y-116619775D01*
X129455043Y-116515371D01*
X129586965Y-116427224D01*
X129637815Y-116489185D01*
X129734506Y-116568537D01*
X129844820Y-116627502D01*
X129964518Y-116663812D01*
X130089000Y-116676072D01*
X131589000Y-116676072D01*
X131687069Y-116666413D01*
X131626214Y-116757489D01*
X131455851Y-117168782D01*
X131369000Y-117605409D01*
X131369000Y-118050591D01*
X131455851Y-118487218D01*
X131626214Y-118898511D01*
X131873544Y-119268666D01*
X132188334Y-119583456D01*
X132558489Y-119830786D01*
X132969782Y-120001149D01*
X133406409Y-120088000D01*
X133851591Y-120088000D01*
X134288218Y-120001149D01*
X134699511Y-119830786D01*
X135069666Y-119583456D01*
X135384456Y-119268666D01*
X135631786Y-118898511D01*
X135802149Y-118487218D01*
X135889000Y-118050591D01*
X135889000Y-117605409D01*
X135802149Y-117168782D01*
X135631786Y-116757489D01*
X135384456Y-116387334D01*
X135069666Y-116072544D01*
X134890944Y-115953125D01*
X134932088Y-115970168D01*
X135247967Y-116033000D01*
X135570033Y-116033000D01*
X135885912Y-115970168D01*
X136183463Y-115846918D01*
X136451252Y-115667987D01*
X136678987Y-115440252D01*
X136857918Y-115172463D01*
X136981168Y-114874912D01*
X137044000Y-114559033D01*
X137044000Y-114236967D01*
X136981168Y-113921088D01*
X136857918Y-113623537D01*
X136678987Y-113355748D01*
X136451252Y-113128013D01*
X136183463Y-112949082D01*
X135885912Y-112825832D01*
X135570033Y-112763000D01*
X135247967Y-112763000D01*
X134932088Y-112825832D01*
X134634537Y-112949082D01*
X134366748Y-113128013D01*
X134139013Y-113355748D01*
X133960082Y-113623537D01*
X133836832Y-113921088D01*
X133774000Y-114236967D01*
X133774000Y-114559033D01*
X133836832Y-114874912D01*
X133960082Y-115172463D01*
X134139013Y-115440252D01*
X134366748Y-115667987D01*
X134443105Y-115719007D01*
X134288218Y-115654851D01*
X133851591Y-115568000D01*
X133406409Y-115568000D01*
X132969782Y-115654851D01*
X132558489Y-115825214D01*
X132226159Y-116047270D01*
X132227072Y-116038000D01*
X132227072Y-114538000D01*
X132214812Y-114413518D01*
X132178502Y-114293820D01*
X132119537Y-114183506D01*
X132040185Y-114086815D01*
X131943494Y-114007463D01*
X131833180Y-113948498D01*
X131713482Y-113912188D01*
X131589000Y-113899928D01*
X131148800Y-113899928D01*
X131196250Y-113708040D01*
X131208812Y-113435508D01*
X131167965Y-113165762D01*
X131075277Y-112909168D01*
X131014860Y-112796137D01*
X130775993Y-112730612D01*
X129998605Y-113508000D01*
X130012748Y-113522143D01*
X129833143Y-113701748D01*
X129819000Y-113687605D01*
X129804858Y-113701748D01*
X129625253Y-113522143D01*
X129639395Y-113508000D01*
X129625253Y-113493858D01*
X129804858Y-113314253D01*
X129819000Y-113328395D01*
X130596388Y-112551007D01*
X130539427Y-112343360D01*
X131978472Y-110904316D01*
X132030821Y-110982662D01*
X132172338Y-111124179D01*
X132338744Y-111235368D01*
X132523644Y-111311956D01*
X132719933Y-111351000D01*
X132920067Y-111351000D01*
X133116356Y-111311956D01*
X133301256Y-111235368D01*
X133467662Y-111124179D01*
X133609179Y-110982662D01*
X133720368Y-110816256D01*
X133796956Y-110631356D01*
X133836000Y-110435067D01*
X133836000Y-110234933D01*
X133796956Y-110038644D01*
X133720368Y-109853744D01*
X133609179Y-109687338D01*
X133467662Y-109545821D01*
X133389316Y-109493472D01*
X134345269Y-108537519D01*
X134373375Y-108514453D01*
X134465424Y-108402291D01*
X134533822Y-108274327D01*
X134575942Y-108135477D01*
X134586600Y-108027264D01*
X134590164Y-107991078D01*
X134586600Y-107954892D01*
X134586600Y-106782772D01*
X134695518Y-106815812D01*
X134820000Y-106828072D01*
X134834250Y-106825000D01*
X134993000Y-106666250D01*
X134993000Y-105542000D01*
X135247000Y-105542000D01*
X135247000Y-106666250D01*
X135405750Y-106825000D01*
X135420000Y-106828072D01*
X135544482Y-106815812D01*
X135664180Y-106779502D01*
X135774494Y-106720537D01*
X135871185Y-106641185D01*
X135950537Y-106544494D01*
X136009502Y-106434180D01*
X136045812Y-106314482D01*
X136058072Y-106190000D01*
X136055000Y-105700750D01*
X135896250Y-105542000D01*
X135247000Y-105542000D01*
X134993000Y-105542000D01*
X134973000Y-105542000D01*
X134973000Y-105288000D01*
X134993000Y-105288000D01*
X134993000Y-104163750D01*
X135247000Y-104163750D01*
X135247000Y-105288000D01*
X135896250Y-105288000D01*
X136055000Y-105129250D01*
X136058072Y-104640000D01*
X136045812Y-104515518D01*
X136009502Y-104395820D01*
X135950537Y-104285506D01*
X135871185Y-104188815D01*
X135774494Y-104109463D01*
X135664180Y-104050498D01*
X135544482Y-104014188D01*
X135420000Y-104001928D01*
X135405750Y-104005000D01*
X135247000Y-104163750D01*
X134993000Y-104163750D01*
X134834250Y-104005000D01*
X134820000Y-104001928D01*
X134695518Y-104014188D01*
X134575820Y-104050498D01*
X134485000Y-104099043D01*
X134394180Y-104050498D01*
X134274482Y-104014188D01*
X134150000Y-104001928D01*
X133550000Y-104001928D01*
X133425518Y-104014188D01*
X133305820Y-104050498D01*
X133215000Y-104099043D01*
X133124180Y-104050498D01*
X133004482Y-104014188D01*
X132880000Y-104001928D01*
X132280000Y-104001928D01*
X132237344Y-104006129D01*
X132286956Y-103886356D01*
X132326000Y-103690067D01*
X132326000Y-103489933D01*
X132286956Y-103293644D01*
X132210368Y-103108744D01*
X132099179Y-102942338D01*
X131957662Y-102800821D01*
X131791256Y-102689632D01*
X131606356Y-102613044D01*
X131410067Y-102574000D01*
X131209933Y-102574000D01*
X131013644Y-102613044D01*
X130828744Y-102689632D01*
X130662338Y-102800821D01*
X130520821Y-102942338D01*
X130409632Y-103108744D01*
X130333044Y-103293644D01*
X130294000Y-103489933D01*
X130294000Y-103690067D01*
X130333044Y-103886356D01*
X130409632Y-104071256D01*
X130519881Y-104236256D01*
X130479463Y-104285506D01*
X130420498Y-104395820D01*
X130384188Y-104515518D01*
X130371928Y-104640000D01*
X130371928Y-106190000D01*
X130384188Y-106314482D01*
X130420498Y-106434180D01*
X130479463Y-106544494D01*
X130558815Y-106641185D01*
X130655506Y-106720537D01*
X130765820Y-106779502D01*
X130885518Y-106815812D01*
X131010000Y-106828072D01*
X131377218Y-106828072D01*
X126047967Y-112157324D01*
X125875411Y-112123000D01*
X125602589Y-112123000D01*
X125335011Y-112176225D01*
X125082957Y-112280629D01*
X125032785Y-112314153D01*
X123156600Y-110437969D01*
X123156600Y-107299933D01*
X124579000Y-107299933D01*
X124579000Y-107500067D01*
X124618044Y-107696356D01*
X124694632Y-107881256D01*
X124805821Y-108047662D01*
X124947338Y-108189179D01*
X125113744Y-108300368D01*
X125298644Y-108376956D01*
X125494933Y-108416000D01*
X125695067Y-108416000D01*
X125891356Y-108376956D01*
X126076256Y-108300368D01*
X126230000Y-108197639D01*
X126383744Y-108300368D01*
X126568644Y-108376956D01*
X126764933Y-108416000D01*
X126965067Y-108416000D01*
X127161356Y-108376956D01*
X127346256Y-108300368D01*
X127500000Y-108197639D01*
X127653744Y-108300368D01*
X127838644Y-108376956D01*
X128034933Y-108416000D01*
X128235067Y-108416000D01*
X128431356Y-108376956D01*
X128616256Y-108300368D01*
X128782662Y-108189179D01*
X128924179Y-108047662D01*
X129035368Y-107881256D01*
X129111956Y-107696356D01*
X129151000Y-107500067D01*
X129151000Y-107299933D01*
X129111956Y-107103644D01*
X129035368Y-106918744D01*
X128963051Y-106810513D01*
X128980518Y-106815812D01*
X129105000Y-106828072D01*
X129119250Y-106825000D01*
X129278000Y-106666250D01*
X129278000Y-105542000D01*
X129532000Y-105542000D01*
X129532000Y-106666250D01*
X129690750Y-106825000D01*
X129705000Y-106828072D01*
X129829482Y-106815812D01*
X129949180Y-106779502D01*
X130059494Y-106720537D01*
X130156185Y-106641185D01*
X130235537Y-106544494D01*
X130294502Y-106434180D01*
X130330812Y-106314482D01*
X130343072Y-106190000D01*
X130340000Y-105700750D01*
X130181250Y-105542000D01*
X129532000Y-105542000D01*
X129278000Y-105542000D01*
X129258000Y-105542000D01*
X129258000Y-105288000D01*
X129278000Y-105288000D01*
X129278000Y-104163750D01*
X129532000Y-104163750D01*
X129532000Y-105288000D01*
X130181250Y-105288000D01*
X130340000Y-105129250D01*
X130343072Y-104640000D01*
X130330812Y-104515518D01*
X130294502Y-104395820D01*
X130235537Y-104285506D01*
X130156185Y-104188815D01*
X130059494Y-104109463D01*
X129949180Y-104050498D01*
X129829482Y-104014188D01*
X129705000Y-104001928D01*
X129690750Y-104005000D01*
X129532000Y-104163750D01*
X129278000Y-104163750D01*
X129119250Y-104005000D01*
X129105000Y-104001928D01*
X128980518Y-104014188D01*
X128860820Y-104050498D01*
X128770000Y-104099043D01*
X128679180Y-104050498D01*
X128559482Y-104014188D01*
X128435000Y-104001928D01*
X127835000Y-104001928D01*
X127710518Y-104014188D01*
X127590820Y-104050498D01*
X127500000Y-104099043D01*
X127409180Y-104050498D01*
X127289482Y-104014188D01*
X127165000Y-104001928D01*
X126565000Y-104001928D01*
X126440518Y-104014188D01*
X126320820Y-104050498D01*
X126230000Y-104099043D01*
X126139180Y-104050498D01*
X126019482Y-104014188D01*
X125895000Y-104001928D01*
X125295000Y-104001928D01*
X125170518Y-104014188D01*
X125050820Y-104050498D01*
X124940506Y-104109463D01*
X124843815Y-104188815D01*
X124764463Y-104285506D01*
X124705498Y-104395820D01*
X124669188Y-104515518D01*
X124656928Y-104640000D01*
X124656928Y-106190000D01*
X124669188Y-106314482D01*
X124705498Y-106434180D01*
X124764463Y-106544494D01*
X124843815Y-106641185D01*
X124858401Y-106653155D01*
X124858401Y-106699758D01*
X124805821Y-106752338D01*
X124694632Y-106918744D01*
X124618044Y-107103644D01*
X124579000Y-107299933D01*
X123156600Y-107299933D01*
X123156600Y-106782772D01*
X123265518Y-106815812D01*
X123390000Y-106828072D01*
X123404250Y-106825000D01*
X123563000Y-106666250D01*
X123563000Y-105542000D01*
X123817000Y-105542000D01*
X123817000Y-106666250D01*
X123975750Y-106825000D01*
X123990000Y-106828072D01*
X124114482Y-106815812D01*
X124234180Y-106779502D01*
X124344494Y-106720537D01*
X124441185Y-106641185D01*
X124520537Y-106544494D01*
X124579502Y-106434180D01*
X124615812Y-106314482D01*
X124628072Y-106190000D01*
X124625000Y-105700750D01*
X124466250Y-105542000D01*
X123817000Y-105542000D01*
X123563000Y-105542000D01*
X123543000Y-105542000D01*
X123543000Y-105288000D01*
X123563000Y-105288000D01*
X123563000Y-104163750D01*
X123817000Y-104163750D01*
X123817000Y-105288000D01*
X124466250Y-105288000D01*
X124625000Y-105129250D01*
X124628072Y-104640000D01*
X124615812Y-104515518D01*
X124579502Y-104395820D01*
X124520537Y-104285506D01*
X124441185Y-104188815D01*
X124344494Y-104109463D01*
X124234180Y-104050498D01*
X124114482Y-104014188D01*
X123990000Y-104001928D01*
X123975750Y-104005000D01*
X123817000Y-104163750D01*
X123563000Y-104163750D01*
X123404250Y-104005000D01*
X123390000Y-104001928D01*
X123265518Y-104014188D01*
X123145820Y-104050498D01*
X123055000Y-104099043D01*
X122964180Y-104050498D01*
X122844482Y-104014188D01*
X122720000Y-104001928D01*
X122120000Y-104001928D01*
X121995518Y-104014188D01*
X121875820Y-104050498D01*
X121785000Y-104099043D01*
X121694180Y-104050498D01*
X121574482Y-104014188D01*
X121450000Y-104001928D01*
X120850000Y-104001928D01*
X120725518Y-104014188D01*
X120605820Y-104050498D01*
X120515000Y-104099043D01*
X120424180Y-104050498D01*
X120304482Y-104014188D01*
X120180000Y-104001928D01*
X119580000Y-104001928D01*
X119455518Y-104014188D01*
X119335820Y-104050498D01*
X119225506Y-104109463D01*
X119128815Y-104188815D01*
X119049463Y-104285506D01*
X118990498Y-104395820D01*
X118954188Y-104515518D01*
X118941928Y-104640000D01*
X118941928Y-106190000D01*
X118954188Y-106314482D01*
X118990498Y-106434180D01*
X119049463Y-106544494D01*
X119128815Y-106641185D01*
X119143401Y-106653155D01*
X119143401Y-106699758D01*
X119090821Y-106752338D01*
X118979632Y-106918744D01*
X118903044Y-107103644D01*
X118864000Y-107299933D01*
X114901600Y-107299933D01*
X114901600Y-106782772D01*
X115010518Y-106815812D01*
X115135000Y-106828072D01*
X115149250Y-106825000D01*
X115308000Y-106666250D01*
X115308000Y-105542000D01*
X115562000Y-105542000D01*
X115562000Y-106666250D01*
X115720750Y-106825000D01*
X115735000Y-106828072D01*
X115859482Y-106815812D01*
X115979180Y-106779502D01*
X116089494Y-106720537D01*
X116186185Y-106641185D01*
X116265537Y-106544494D01*
X116324502Y-106434180D01*
X116360812Y-106314482D01*
X116373072Y-106190000D01*
X116370000Y-105700750D01*
X116211250Y-105542000D01*
X115562000Y-105542000D01*
X115308000Y-105542000D01*
X115288000Y-105542000D01*
X115288000Y-105288000D01*
X115308000Y-105288000D01*
X115308000Y-104163750D01*
X115562000Y-104163750D01*
X115562000Y-105288000D01*
X116211250Y-105288000D01*
X116370000Y-105129250D01*
X116373072Y-104640000D01*
X116360812Y-104515518D01*
X116324502Y-104395820D01*
X116265537Y-104285506D01*
X116186185Y-104188815D01*
X116089494Y-104109463D01*
X115979180Y-104050498D01*
X115859482Y-104014188D01*
X115735000Y-104001928D01*
X115720750Y-104005000D01*
X115562000Y-104163750D01*
X115308000Y-104163750D01*
X115149250Y-104005000D01*
X115135000Y-104001928D01*
X115010518Y-104014188D01*
X114890820Y-104050498D01*
X114800000Y-104099043D01*
X114709180Y-104050498D01*
X114589482Y-104014188D01*
X114465000Y-104001928D01*
X113865000Y-104001928D01*
X113740518Y-104014188D01*
X113620820Y-104050498D01*
X113530000Y-104099043D01*
X113439180Y-104050498D01*
X113319482Y-104014188D01*
X113195000Y-104001928D01*
X112595000Y-104001928D01*
X112470518Y-104014188D01*
X112350820Y-104050498D01*
X112275312Y-104090858D01*
X112240424Y-104025587D01*
X112229215Y-104011929D01*
X112171442Y-103941532D01*
X112171437Y-103941527D01*
X112148374Y-103913425D01*
X112120273Y-103890363D01*
X111738228Y-103508319D01*
X111738228Y-101635166D01*
X111767788Y-101659425D01*
X111895752Y-101727823D01*
X112034599Y-101769942D01*
X112034602Y-101769943D01*
X112179001Y-101784165D01*
X112215187Y-101780601D01*
X115902018Y-101780601D01*
X115938201Y-101784165D01*
X115974384Y-101780601D01*
X115974387Y-101780601D01*
X116082600Y-101769943D01*
X116221450Y-101727823D01*
X116349414Y-101659425D01*
X116461576Y-101567376D01*
X116484646Y-101539265D01*
X117835273Y-100188639D01*
X117863374Y-100165577D01*
X117886437Y-100137475D01*
X117886442Y-100137470D01*
X117955423Y-100053416D01*
X117955424Y-100053415D01*
X118023822Y-99925451D01*
X118065942Y-99786601D01*
X118076600Y-99678388D01*
X118076600Y-99678379D01*
X118080163Y-99642203D01*
X118076600Y-99606027D01*
X118076600Y-98791625D01*
X118129851Y-98775472D01*
X118283387Y-98693405D01*
X118417962Y-98582962D01*
X118528405Y-98448387D01*
X118608902Y-98297788D01*
X118609528Y-98299851D01*
X118691595Y-98453387D01*
X118802038Y-98587962D01*
X118936613Y-98698405D01*
X119090149Y-98780472D01*
X119126590Y-98791526D01*
X119049463Y-98885506D01*
X118990498Y-98995820D01*
X118954188Y-99115518D01*
X118941928Y-99240000D01*
X118941928Y-100790000D01*
X118954188Y-100914482D01*
X118990498Y-101034180D01*
X119049463Y-101144494D01*
X119128815Y-101241185D01*
X119225506Y-101320537D01*
X119335820Y-101379502D01*
X119455518Y-101415812D01*
X119580000Y-101428072D01*
X120180000Y-101428072D01*
X120304482Y-101415812D01*
X120424180Y-101379502D01*
X120515000Y-101330957D01*
X120605820Y-101379502D01*
X120725518Y-101415812D01*
X120850000Y-101428072D01*
X121450000Y-101428072D01*
X121574482Y-101415812D01*
X121694180Y-101379502D01*
X121785000Y-101330957D01*
X121875820Y-101379502D01*
X121995518Y-101415812D01*
X122120000Y-101428072D01*
X122720000Y-101428072D01*
X122844482Y-101415812D01*
X122964180Y-101379502D01*
X123055000Y-101330957D01*
X123145820Y-101379502D01*
X123265518Y-101415812D01*
X123390000Y-101428072D01*
X123990000Y-101428072D01*
X124114482Y-101415812D01*
X124234180Y-101379502D01*
X124344494Y-101320537D01*
X124441185Y-101241185D01*
X124520537Y-101144494D01*
X124579502Y-101034180D01*
X124615812Y-100914482D01*
X124628072Y-100790000D01*
X124628072Y-99240000D01*
X124656928Y-99240000D01*
X124656928Y-100790000D01*
X124669188Y-100914482D01*
X124705498Y-101034180D01*
X124764463Y-101144494D01*
X124843815Y-101241185D01*
X124940506Y-101320537D01*
X125050820Y-101379502D01*
X125170518Y-101415812D01*
X125295000Y-101428072D01*
X125895000Y-101428072D01*
X126019482Y-101415812D01*
X126139180Y-101379502D01*
X126230000Y-101330957D01*
X126320820Y-101379502D01*
X126440518Y-101415812D01*
X126565000Y-101428072D01*
X127150201Y-101428072D01*
X127119000Y-101584933D01*
X127119000Y-101785067D01*
X127158044Y-101981356D01*
X127234632Y-102166256D01*
X127345821Y-102332662D01*
X127487338Y-102474179D01*
X127653744Y-102585368D01*
X127838644Y-102661956D01*
X128034933Y-102701000D01*
X128235067Y-102701000D01*
X128431356Y-102661956D01*
X128616256Y-102585368D01*
X128782662Y-102474179D01*
X128924179Y-102332662D01*
X129035368Y-102166256D01*
X129111956Y-101981356D01*
X129151000Y-101785067D01*
X129151000Y-101584933D01*
X129119799Y-101428072D01*
X129705000Y-101428072D01*
X129829482Y-101415812D01*
X129949180Y-101379502D01*
X130059494Y-101320537D01*
X130156185Y-101241185D01*
X130235537Y-101144494D01*
X130294502Y-101034180D01*
X130330812Y-100914482D01*
X130343072Y-100790000D01*
X130343072Y-99240000D01*
X130371928Y-99240000D01*
X130371928Y-100790000D01*
X130384188Y-100914482D01*
X130420498Y-101034180D01*
X130479463Y-101144494D01*
X130558815Y-101241185D01*
X130645241Y-101312113D01*
X130694576Y-101404412D01*
X130786625Y-101516574D01*
X130814732Y-101539641D01*
X131305359Y-102030268D01*
X131328425Y-102058375D01*
X131440587Y-102150424D01*
X131568551Y-102218822D01*
X131707398Y-102260941D01*
X131707401Y-102260942D01*
X131851800Y-102275164D01*
X131887986Y-102271600D01*
X135808817Y-102271600D01*
X135845000Y-102275164D01*
X135881183Y-102271600D01*
X135881186Y-102271600D01*
X135989399Y-102260942D01*
X136128249Y-102218822D01*
X136256213Y-102150424D01*
X136368375Y-102058375D01*
X136391445Y-102030264D01*
X137520269Y-100901441D01*
X137548375Y-100878375D01*
X137620903Y-100790000D01*
X137640424Y-100766214D01*
X137692385Y-100669000D01*
X137708822Y-100638249D01*
X137750942Y-100499399D01*
X137761600Y-100391186D01*
X137761600Y-100391184D01*
X137765164Y-100355001D01*
X137761600Y-100318817D01*
X137761600Y-98796625D01*
X137814851Y-98780472D01*
X137968387Y-98698405D01*
X138102962Y-98587962D01*
X138213405Y-98453387D01*
X138295472Y-98299851D01*
X138346008Y-98133255D01*
X138363072Y-97960001D01*
X138363072Y-97309999D01*
X138346008Y-97136745D01*
X138295472Y-96970149D01*
X138213405Y-96816613D01*
X138102962Y-96682038D01*
X138015184Y-96610000D01*
X138102962Y-96537962D01*
X138213405Y-96403387D01*
X138295472Y-96249851D01*
X138346008Y-96083255D01*
X138363072Y-95910001D01*
X138363072Y-95259999D01*
X138346008Y-95086745D01*
X138295472Y-94920149D01*
X138213405Y-94766613D01*
X138102962Y-94632038D01*
X137968387Y-94521595D01*
X137941529Y-94507239D01*
X138001956Y-94361356D01*
X138041000Y-94165067D01*
X138041000Y-93964933D01*
X138001956Y-93768644D01*
X137925368Y-93583744D01*
X137814179Y-93417338D01*
X137672662Y-93275821D01*
X137506256Y-93164632D01*
X137321356Y-93088044D01*
X137125067Y-93049000D01*
X136924933Y-93049000D01*
X136728644Y-93088044D01*
X136543744Y-93164632D01*
X136377338Y-93275821D01*
X136235821Y-93417338D01*
X136124632Y-93583744D01*
X136072500Y-93709602D01*
X136020368Y-93583744D01*
X135909179Y-93417338D01*
X135767662Y-93275821D01*
X135601256Y-93164632D01*
X135416356Y-93088044D01*
X135220067Y-93049000D01*
X135019933Y-93049000D01*
X134823644Y-93088044D01*
X134638744Y-93164632D01*
X134472338Y-93275821D01*
X134330821Y-93417338D01*
X134219632Y-93583744D01*
X134143044Y-93768644D01*
X134104000Y-93964933D01*
X134104000Y-94165067D01*
X134143044Y-94361356D01*
X134203471Y-94507239D01*
X134176613Y-94521595D01*
X134042038Y-94632038D01*
X133931595Y-94766613D01*
X133892136Y-94840435D01*
X133869502Y-94765820D01*
X133810537Y-94655506D01*
X133731185Y-94558815D01*
X133634494Y-94479463D01*
X133524180Y-94420498D01*
X133404482Y-94384188D01*
X133280000Y-94371928D01*
X132865750Y-94375000D01*
X132707000Y-94533750D01*
X132707000Y-95458000D01*
X132727000Y-95458000D01*
X132727000Y-95712000D01*
X132707000Y-95712000D01*
X132707000Y-95732000D01*
X132453000Y-95732000D01*
X132453000Y-95712000D01*
X131403750Y-95712000D01*
X131245000Y-95870750D01*
X131241928Y-96160000D01*
X131254188Y-96284482D01*
X131290498Y-96404180D01*
X131349463Y-96514494D01*
X131428815Y-96611185D01*
X131508594Y-96676658D01*
X131502038Y-96682038D01*
X131391595Y-96816613D01*
X131309528Y-96970149D01*
X131258992Y-97136745D01*
X131241928Y-97309999D01*
X131241928Y-97960001D01*
X131258992Y-98133255D01*
X131309528Y-98299851D01*
X131391595Y-98453387D01*
X131502038Y-98587962D01*
X131519056Y-98601928D01*
X131010000Y-98601928D01*
X130885518Y-98614188D01*
X130765820Y-98650498D01*
X130655506Y-98709463D01*
X130558815Y-98788815D01*
X130479463Y-98885506D01*
X130420498Y-98995820D01*
X130384188Y-99115518D01*
X130371928Y-99240000D01*
X130343072Y-99240000D01*
X130330812Y-99115518D01*
X130294502Y-98995820D01*
X130235537Y-98885506D01*
X130156185Y-98788815D01*
X130154749Y-98787637D01*
X130194851Y-98775472D01*
X130348387Y-98693405D01*
X130482962Y-98582962D01*
X130593405Y-98448387D01*
X130675472Y-98294851D01*
X130726008Y-98128255D01*
X130743072Y-97955001D01*
X130743072Y-97304999D01*
X130726008Y-97131745D01*
X130675472Y-96965149D01*
X130593405Y-96811613D01*
X130482962Y-96677038D01*
X130395184Y-96605000D01*
X130482962Y-96532962D01*
X130593405Y-96398387D01*
X130675472Y-96244851D01*
X130726008Y-96078255D01*
X130743072Y-95905001D01*
X130743072Y-95254999D01*
X130726008Y-95081745D01*
X130704245Y-95010000D01*
X131241928Y-95010000D01*
X131245000Y-95299250D01*
X131403750Y-95458000D01*
X132453000Y-95458000D01*
X132453000Y-94533750D01*
X132294250Y-94375000D01*
X131880000Y-94371928D01*
X131755518Y-94384188D01*
X131635820Y-94420498D01*
X131525506Y-94479463D01*
X131428815Y-94558815D01*
X131349463Y-94655506D01*
X131290498Y-94765820D01*
X131254188Y-94885518D01*
X131241928Y-95010000D01*
X130704245Y-95010000D01*
X130675472Y-94915149D01*
X130593405Y-94761613D01*
X130482962Y-94627038D01*
X130348387Y-94516595D01*
X130323225Y-94503146D01*
X130381956Y-94361356D01*
X130421000Y-94165067D01*
X130421000Y-93964933D01*
X130381956Y-93768644D01*
X130305368Y-93583744D01*
X130194179Y-93417338D01*
X130052662Y-93275821D01*
X129886256Y-93164632D01*
X129701356Y-93088044D01*
X129505067Y-93049000D01*
X129304933Y-93049000D01*
X129108644Y-93088044D01*
X128923744Y-93164632D01*
X128757338Y-93275821D01*
X128615821Y-93417338D01*
X128504632Y-93583744D01*
X128428044Y-93768644D01*
X128389000Y-93964933D01*
X128389000Y-94165067D01*
X128428044Y-94361356D01*
X128486775Y-94503146D01*
X128461613Y-94516595D01*
X128327038Y-94627038D01*
X128216595Y-94761613D01*
X128135000Y-94914266D01*
X128053405Y-94761613D01*
X127942962Y-94627038D01*
X127852471Y-94552774D01*
X127905456Y-94424856D01*
X127944500Y-94228567D01*
X127944500Y-94028433D01*
X127905456Y-93832144D01*
X127828868Y-93647244D01*
X127717679Y-93480838D01*
X127576162Y-93339321D01*
X127409756Y-93228132D01*
X127224856Y-93151544D01*
X127028567Y-93112500D01*
X126828433Y-93112500D01*
X126632144Y-93151544D01*
X126447244Y-93228132D01*
X126280838Y-93339321D01*
X126139321Y-93480838D01*
X126028132Y-93647244D01*
X125951544Y-93832144D01*
X125912500Y-94028433D01*
X125912500Y-94228567D01*
X125951544Y-94424856D01*
X125977230Y-94486867D01*
X125921613Y-94516595D01*
X125787038Y-94627038D01*
X125676595Y-94761613D01*
X125594528Y-94915149D01*
X125543992Y-95081745D01*
X125526928Y-95254999D01*
X125526928Y-95905001D01*
X125543992Y-96078255D01*
X125594528Y-96244851D01*
X125676595Y-96398387D01*
X125787038Y-96532962D01*
X125874816Y-96605000D01*
X125787038Y-96677038D01*
X125676595Y-96811613D01*
X125594528Y-96965149D01*
X125543992Y-97131745D01*
X125526928Y-97304999D01*
X125526928Y-97955001D01*
X125543992Y-98128255D01*
X125594528Y-98294851D01*
X125676595Y-98448387D01*
X125787038Y-98582962D01*
X125810148Y-98601928D01*
X125295000Y-98601928D01*
X125170518Y-98614188D01*
X125050820Y-98650498D01*
X124940506Y-98709463D01*
X124843815Y-98788815D01*
X124764463Y-98885506D01*
X124705498Y-98995820D01*
X124669188Y-99115518D01*
X124656928Y-99240000D01*
X124628072Y-99240000D01*
X124615812Y-99115518D01*
X124579502Y-98995820D01*
X124520537Y-98885506D01*
X124441185Y-98788815D01*
X124439749Y-98787637D01*
X124479851Y-98775472D01*
X124633387Y-98693405D01*
X124767962Y-98582962D01*
X124878405Y-98448387D01*
X124960472Y-98294851D01*
X125011008Y-98128255D01*
X125028072Y-97955001D01*
X125028072Y-97304999D01*
X125011008Y-97131745D01*
X124960472Y-96965149D01*
X124878405Y-96811613D01*
X124767962Y-96677038D01*
X124761406Y-96671658D01*
X124841185Y-96606185D01*
X124920537Y-96509494D01*
X124979502Y-96399180D01*
X125015812Y-96279482D01*
X125028072Y-96155000D01*
X125025000Y-95865750D01*
X124866250Y-95707000D01*
X123817000Y-95707000D01*
X123817000Y-95727000D01*
X123563000Y-95727000D01*
X123563000Y-95707000D01*
X123543000Y-95707000D01*
X123543000Y-95453000D01*
X123563000Y-95453000D01*
X123563000Y-94528750D01*
X123817000Y-94528750D01*
X123817000Y-95453000D01*
X124866250Y-95453000D01*
X125025000Y-95294250D01*
X125028072Y-95005000D01*
X125015812Y-94880518D01*
X124979502Y-94760820D01*
X124920537Y-94650506D01*
X124841185Y-94553815D01*
X124744494Y-94474463D01*
X124634180Y-94415498D01*
X124514482Y-94379188D01*
X124390000Y-94366928D01*
X123975750Y-94370000D01*
X123817000Y-94528750D01*
X123563000Y-94528750D01*
X123404250Y-94370000D01*
X122990000Y-94366928D01*
X122865518Y-94379188D01*
X122745820Y-94415498D01*
X122737741Y-94419816D01*
X122761956Y-94361356D01*
X122801000Y-94165067D01*
X122801000Y-93964933D01*
X122761956Y-93768644D01*
X122685368Y-93583744D01*
X122574179Y-93417338D01*
X122432662Y-93275821D01*
X122266256Y-93164632D01*
X122081356Y-93088044D01*
X121885067Y-93049000D01*
X121684933Y-93049000D01*
X121488644Y-93088044D01*
X121303744Y-93164632D01*
X121137338Y-93275821D01*
X120995821Y-93417338D01*
X120884632Y-93583744D01*
X120808044Y-93768644D01*
X120806846Y-93774667D01*
X120780368Y-93710744D01*
X120669179Y-93544338D01*
X120527662Y-93402821D01*
X120361256Y-93291632D01*
X120176356Y-93215044D01*
X119980067Y-93176000D01*
X119936525Y-93176000D01*
X120215925Y-92896600D01*
X123703817Y-92896600D01*
X123740000Y-92900164D01*
X123776183Y-92896600D01*
X123776186Y-92896600D01*
X123884399Y-92885942D01*
X124023249Y-92843822D01*
X124151213Y-92775424D01*
X124263375Y-92683375D01*
X124286446Y-92655264D01*
X125973615Y-90968095D01*
X126073889Y-90998513D01*
X126292050Y-91020000D01*
X126437950Y-91020000D01*
X126656111Y-90998513D01*
X126936034Y-90913599D01*
X127194014Y-90775706D01*
X127420134Y-90590134D01*
X127605706Y-90364014D01*
X127635000Y-90309209D01*
X127664294Y-90364014D01*
X127849866Y-90590134D01*
X128075986Y-90775706D01*
X128333966Y-90913599D01*
X128613889Y-90998513D01*
X128832050Y-91020000D01*
X128977950Y-91020000D01*
X129196111Y-90998513D01*
X129476034Y-90913599D01*
X129734014Y-90775706D01*
X129960134Y-90590134D01*
X130145706Y-90364014D01*
X130175000Y-90309209D01*
X130204294Y-90364014D01*
X130389866Y-90590134D01*
X130615986Y-90775706D01*
X130873966Y-90913599D01*
X131153889Y-90998513D01*
X131372050Y-91020000D01*
X131517950Y-91020000D01*
X131736111Y-90998513D01*
X132016034Y-90913599D01*
X132274014Y-90775706D01*
X132500134Y-90590134D01*
X132685706Y-90364014D01*
X132715000Y-90309209D01*
X132744294Y-90364014D01*
X132929866Y-90590134D01*
X133155986Y-90775706D01*
X133413966Y-90913599D01*
X133693889Y-90998513D01*
X133912050Y-91020000D01*
X134057950Y-91020000D01*
X134276111Y-90998513D01*
X134556034Y-90913599D01*
X134814014Y-90775706D01*
X135040134Y-90590134D01*
X135225706Y-90364014D01*
X135255000Y-90309209D01*
X135284294Y-90364014D01*
X135469866Y-90590134D01*
X135695986Y-90775706D01*
X135953966Y-90913599D01*
X136233889Y-90998513D01*
X136452050Y-91020000D01*
X136597950Y-91020000D01*
X136816111Y-90998513D01*
X137096034Y-90913599D01*
X137354014Y-90775706D01*
X137580134Y-90590134D01*
X137765706Y-90364014D01*
X137795000Y-90309209D01*
X137824294Y-90364014D01*
X138009866Y-90590134D01*
X138235986Y-90775706D01*
X138493966Y-90913599D01*
X138773889Y-90998513D01*
X138992050Y-91020000D01*
X139137950Y-91020000D01*
X139356111Y-90998513D01*
X139636034Y-90913599D01*
X139894014Y-90775706D01*
X140120134Y-90590134D01*
X140305706Y-90364014D01*
X140335000Y-90309209D01*
X140364294Y-90364014D01*
X140549866Y-90590134D01*
X140775986Y-90775706D01*
X141033966Y-90913599D01*
X141313889Y-90998513D01*
X141532050Y-91020000D01*
X141677950Y-91020000D01*
X141896111Y-90998513D01*
X142176034Y-90913599D01*
X142434014Y-90775706D01*
X142660134Y-90590134D01*
X142684607Y-90560313D01*
X142705498Y-90629180D01*
X142764463Y-90739494D01*
X142843815Y-90836185D01*
X142940506Y-90915537D01*
X143050820Y-90974502D01*
X143170518Y-91010812D01*
X143295000Y-91023072D01*
X143859250Y-91020000D01*
X144018000Y-90861250D01*
X144018000Y-89662000D01*
X144272000Y-89662000D01*
X144272000Y-90861250D01*
X144430750Y-91020000D01*
X144995000Y-91023072D01*
X145119482Y-91010812D01*
X145239180Y-90974502D01*
X145349494Y-90915537D01*
X145446185Y-90836185D01*
X145525537Y-90739494D01*
X145584502Y-90629180D01*
X145620812Y-90509482D01*
X145633072Y-90385000D01*
X145630000Y-89820750D01*
X145471250Y-89662000D01*
X144272000Y-89662000D01*
X144018000Y-89662000D01*
X143998000Y-89662000D01*
X143998000Y-89408000D01*
X144018000Y-89408000D01*
X144018000Y-88208750D01*
X144272000Y-88208750D01*
X144272000Y-89408000D01*
X145471250Y-89408000D01*
X145630000Y-89249250D01*
X145633072Y-88685000D01*
X145620812Y-88560518D01*
X145584502Y-88440820D01*
X145525537Y-88330506D01*
X145446185Y-88233815D01*
X145349494Y-88154463D01*
X145239180Y-88095498D01*
X145119482Y-88059188D01*
X144995000Y-88046928D01*
X144430750Y-88050000D01*
X144272000Y-88208750D01*
X144018000Y-88208750D01*
X143859250Y-88050000D01*
X143295000Y-88046928D01*
X143170518Y-88059188D01*
X143050820Y-88095498D01*
X142940506Y-88154463D01*
X142843815Y-88233815D01*
X142764463Y-88330506D01*
X142705498Y-88440820D01*
X142684607Y-88509687D01*
X142660134Y-88479866D01*
X142434014Y-88294294D01*
X142176034Y-88156401D01*
X141896111Y-88071487D01*
X141677950Y-88050000D01*
X141532050Y-88050000D01*
X141313889Y-88071487D01*
X141033966Y-88156401D01*
X140775986Y-88294294D01*
X140549866Y-88479866D01*
X140364294Y-88705986D01*
X140335000Y-88760791D01*
X140305706Y-88705986D01*
X140120134Y-88479866D01*
X139894014Y-88294294D01*
X139636034Y-88156401D01*
X139356111Y-88071487D01*
X139137950Y-88050000D01*
X138992050Y-88050000D01*
X138773889Y-88071487D01*
X138493966Y-88156401D01*
X138235986Y-88294294D01*
X138009866Y-88479866D01*
X137824294Y-88705986D01*
X137795000Y-88760791D01*
X137765706Y-88705986D01*
X137580134Y-88479866D01*
X137354014Y-88294294D01*
X137096034Y-88156401D01*
X136816111Y-88071487D01*
X136597950Y-88050000D01*
X136452050Y-88050000D01*
X136233889Y-88071487D01*
X135953966Y-88156401D01*
X135695986Y-88294294D01*
X135469866Y-88479866D01*
X135284294Y-88705986D01*
X135255000Y-88760791D01*
X135225706Y-88705986D01*
X135040134Y-88479866D01*
X134814014Y-88294294D01*
X134556034Y-88156401D01*
X134276111Y-88071487D01*
X134057950Y-88050000D01*
X133912050Y-88050000D01*
X133693889Y-88071487D01*
X133413966Y-88156401D01*
X133155986Y-88294294D01*
X132929866Y-88479866D01*
X132744294Y-88705986D01*
X132715000Y-88760791D01*
X132685706Y-88705986D01*
X132500134Y-88479866D01*
X132274014Y-88294294D01*
X132016034Y-88156401D01*
X131736111Y-88071487D01*
X131517950Y-88050000D01*
X131372050Y-88050000D01*
X131153889Y-88071487D01*
X130873966Y-88156401D01*
X130615986Y-88294294D01*
X130389866Y-88479866D01*
X130204294Y-88705986D01*
X130175000Y-88760791D01*
X130145706Y-88705986D01*
X129960134Y-88479866D01*
X129734014Y-88294294D01*
X129476034Y-88156401D01*
X129196111Y-88071487D01*
X128977950Y-88050000D01*
X128832050Y-88050000D01*
X128613889Y-88071487D01*
X128333966Y-88156401D01*
X128075986Y-88294294D01*
X127849866Y-88479866D01*
X127664294Y-88705986D01*
X127635000Y-88760791D01*
X127605706Y-88705986D01*
X127420134Y-88479866D01*
X127194014Y-88294294D01*
X126936034Y-88156401D01*
X126656111Y-88071487D01*
X126437950Y-88050000D01*
X126292050Y-88050000D01*
X126073889Y-88071487D01*
X125793966Y-88156401D01*
X125535986Y-88294294D01*
X125309866Y-88479866D01*
X125124294Y-88705986D01*
X125095000Y-88760791D01*
X125065706Y-88705986D01*
X124880134Y-88479866D01*
X124654014Y-88294294D01*
X124396034Y-88156401D01*
X124116111Y-88071487D01*
X123897950Y-88050000D01*
X123752050Y-88050000D01*
X123533889Y-88071487D01*
X123253966Y-88156401D01*
X122995986Y-88294294D01*
X122769866Y-88479866D01*
X122584294Y-88705986D01*
X122555000Y-88760791D01*
X122525706Y-88705986D01*
X122340134Y-88479866D01*
X122114014Y-88294294D01*
X121856034Y-88156401D01*
X121576111Y-88071487D01*
X121357950Y-88050000D01*
X121212050Y-88050000D01*
X120993889Y-88071487D01*
X120713966Y-88156401D01*
X120455986Y-88294294D01*
X120229866Y-88479866D01*
X120044294Y-88705986D01*
X120015000Y-88760791D01*
X119985706Y-88705986D01*
X119800134Y-88479866D01*
X119574014Y-88294294D01*
X119316034Y-88156401D01*
X119036111Y-88071487D01*
X118817950Y-88050000D01*
X118672050Y-88050000D01*
X118453889Y-88071487D01*
X118173966Y-88156401D01*
X117915986Y-88294294D01*
X117689866Y-88479866D01*
X117504294Y-88705986D01*
X117475000Y-88760791D01*
X117445706Y-88705986D01*
X117260134Y-88479866D01*
X117034014Y-88294294D01*
X116776034Y-88156401D01*
X116496111Y-88071487D01*
X116277950Y-88050000D01*
X116132050Y-88050000D01*
X115913889Y-88071487D01*
X115633966Y-88156401D01*
X115375986Y-88294294D01*
X115149866Y-88479866D01*
X114964294Y-88705986D01*
X114935000Y-88760791D01*
X114905706Y-88705986D01*
X114720134Y-88479866D01*
X114494014Y-88294294D01*
X114236034Y-88156401D01*
X113956111Y-88071487D01*
X113737950Y-88050000D01*
X113592050Y-88050000D01*
X113373889Y-88071487D01*
X113093966Y-88156401D01*
X112835986Y-88294294D01*
X112609866Y-88479866D01*
X112424294Y-88705986D01*
X112395000Y-88760791D01*
X112365706Y-88705986D01*
X112180134Y-88479866D01*
X111954014Y-88294294D01*
X111696034Y-88156401D01*
X111416111Y-88071487D01*
X111197950Y-88050000D01*
X111052050Y-88050000D01*
X110833889Y-88071487D01*
X110553966Y-88156401D01*
X110295986Y-88294294D01*
X110069866Y-88479866D01*
X109884294Y-88705986D01*
X109855000Y-88760791D01*
X109825706Y-88705986D01*
X109640134Y-88479866D01*
X109414014Y-88294294D01*
X109156034Y-88156401D01*
X108876111Y-88071487D01*
X108657950Y-88050000D01*
X108512050Y-88050000D01*
X108293889Y-88071487D01*
X108013966Y-88156401D01*
X107755986Y-88294294D01*
X107529866Y-88479866D01*
X107344294Y-88705986D01*
X107315000Y-88760791D01*
X107285706Y-88705986D01*
X107100134Y-88479866D01*
X106874014Y-88294294D01*
X106616034Y-88156401D01*
X106336111Y-88071487D01*
X106117950Y-88050000D01*
X105972050Y-88050000D01*
X105753889Y-88071487D01*
X105473966Y-88156401D01*
X105215986Y-88294294D01*
X104989866Y-88479866D01*
X104804294Y-88705986D01*
X104775000Y-88760791D01*
X104745706Y-88705986D01*
X104560134Y-88479866D01*
X104334014Y-88294294D01*
X104076034Y-88156401D01*
X103796111Y-88071487D01*
X103577950Y-88050000D01*
X103432050Y-88050000D01*
X103213889Y-88071487D01*
X102933966Y-88156401D01*
X102675986Y-88294294D01*
X102449866Y-88479866D01*
X102264294Y-88705986D01*
X102235000Y-88760791D01*
X102205706Y-88705986D01*
X102020134Y-88479866D01*
X101794014Y-88294294D01*
X101536034Y-88156401D01*
X101256111Y-88071487D01*
X101037950Y-88050000D01*
X100892050Y-88050000D01*
X100673889Y-88071487D01*
X100393966Y-88156401D01*
X100135986Y-88294294D01*
X99909866Y-88479866D01*
X99724294Y-88705986D01*
X99695000Y-88760791D01*
X99665706Y-88705986D01*
X99480134Y-88479866D01*
X99254014Y-88294294D01*
X98996034Y-88156401D01*
X98716111Y-88071487D01*
X98497950Y-88050000D01*
X98352050Y-88050000D01*
X98133889Y-88071487D01*
X97853966Y-88156401D01*
X97595986Y-88294294D01*
X97369866Y-88479866D01*
X97184294Y-88705986D01*
X97155000Y-88760791D01*
X97125706Y-88705986D01*
X96940134Y-88479866D01*
X96714014Y-88294294D01*
X96456034Y-88156401D01*
X96176111Y-88071487D01*
X95957950Y-88050000D01*
X95812050Y-88050000D01*
X95593889Y-88071487D01*
X95313966Y-88156401D01*
X95055986Y-88294294D01*
X94829866Y-88479866D01*
X94644294Y-88705986D01*
X94555000Y-88873044D01*
X94555000Y-87842000D01*
X149015000Y-87842000D01*
X149015001Y-122565000D01*
X149015001Y-122565000D01*
G37*
X149015001Y-122565000D02*
X94555000Y-122565000D01*
X94555000Y-114236967D01*
X97702000Y-114236967D01*
X97702000Y-114559033D01*
X97764832Y-114874912D01*
X97888082Y-115172463D01*
X98067013Y-115440252D01*
X98294748Y-115667987D01*
X98562537Y-115846918D01*
X98860088Y-115970168D01*
X99175967Y-116033000D01*
X99498033Y-116033000D01*
X99813912Y-115970168D01*
X99855056Y-115953125D01*
X99676334Y-116072544D01*
X99361544Y-116387334D01*
X99114214Y-116757489D01*
X98943851Y-117168782D01*
X98857000Y-117605409D01*
X98857000Y-118050591D01*
X98943851Y-118487218D01*
X99114214Y-118898511D01*
X99361544Y-119268666D01*
X99676334Y-119583456D01*
X100046489Y-119830786D01*
X100457782Y-120001149D01*
X100894409Y-120088000D01*
X101339591Y-120088000D01*
X101776218Y-120001149D01*
X102187511Y-119830786D01*
X102557666Y-119583456D01*
X102872456Y-119268666D01*
X103119786Y-118898511D01*
X103290149Y-118487218D01*
X103377000Y-118050591D01*
X103377000Y-117605409D01*
X103290149Y-117168782D01*
X103119786Y-116757489D01*
X102872456Y-116387334D01*
X102557666Y-116072544D01*
X102187511Y-115825214D01*
X101776218Y-115654851D01*
X101339591Y-115568000D01*
X100894409Y-115568000D01*
X100457782Y-115654851D01*
X100302895Y-115719007D01*
X100379252Y-115667987D01*
X100606987Y-115440252D01*
X100785918Y-115172463D01*
X100909168Y-114874912D01*
X100972000Y-114559033D01*
X100972000Y-114236967D01*
X100909168Y-113921088D01*
X100785918Y-113623537D01*
X100606987Y-113355748D01*
X100379252Y-113128013D01*
X100111463Y-112949082D01*
X99813912Y-112825832D01*
X99498033Y-112763000D01*
X99175967Y-112763000D01*
X98860088Y-112825832D01*
X98562537Y-112949082D01*
X98294748Y-113128013D01*
X98067013Y-113355748D01*
X97888082Y-113623537D01*
X97764832Y-113921088D01*
X97702000Y-114236967D01*
X94555000Y-114236967D01*
X94555000Y-90196956D01*
X94644294Y-90364014D01*
X94829866Y-90590134D01*
X95055986Y-90775706D01*
X95313966Y-90913599D01*
X95593889Y-90998513D01*
X95812050Y-91020000D01*
X95957950Y-91020000D01*
X96176111Y-90998513D01*
X96456034Y-90913599D01*
X96714014Y-90775706D01*
X96940134Y-90590134D01*
X97125706Y-90364014D01*
X97155000Y-90309209D01*
X97184294Y-90364014D01*
X97369866Y-90590134D01*
X97595986Y-90775706D01*
X97853966Y-90913599D01*
X98133889Y-90998513D01*
X98352050Y-91020000D01*
X98497950Y-91020000D01*
X98716111Y-90998513D01*
X98996034Y-90913599D01*
X99254014Y-90775706D01*
X99480134Y-90590134D01*
X99665706Y-90364014D01*
X99695000Y-90309209D01*
X99724294Y-90364014D01*
X99909866Y-90590134D01*
X100135986Y-90775706D01*
X100228400Y-90825102D01*
X100228401Y-93296560D01*
X100207662Y-93275821D01*
X100041256Y-93164632D01*
X99856356Y-93088044D01*
X99660067Y-93049000D01*
X99459933Y-93049000D01*
X99263644Y-93088044D01*
X99078744Y-93164632D01*
X98912338Y-93275821D01*
X98770821Y-93417338D01*
X98659632Y-93583744D01*
X98583044Y-93768644D01*
X98544000Y-93964933D01*
X98544000Y-94165067D01*
X98583044Y-94361356D01*
X98641775Y-94503146D01*
X98616613Y-94516595D01*
X98482038Y-94627038D01*
X98371595Y-94761613D01*
X98289528Y-94915149D01*
X98238992Y-95081745D01*
X98221928Y-95254999D01*
X98221928Y-95905001D01*
X98238992Y-96078255D01*
X98289528Y-96244851D01*
X98371595Y-96398387D01*
X98482038Y-96532962D01*
X98569816Y-96605000D01*
X98482038Y-96677038D01*
X98371595Y-96811613D01*
X98289528Y-96965149D01*
X98238992Y-97131745D01*
X98221928Y-97304999D01*
X98221928Y-97955001D01*
X98238992Y-98128255D01*
X98289528Y-98294851D01*
X98371595Y-98448387D01*
X98482038Y-98582962D01*
X98616613Y-98693405D01*
X98770149Y-98775472D01*
X98936745Y-98826008D01*
X99109999Y-98843072D01*
X99399288Y-98843072D01*
X99364463Y-98885506D01*
X99305498Y-98995820D01*
X99269188Y-99115518D01*
X99256928Y-99240000D01*
X99256928Y-100790000D01*
X99269188Y-100914482D01*
X99305498Y-101034180D01*
X99364463Y-101144494D01*
X99443815Y-101241185D01*
X99540506Y-101320537D01*
X99650820Y-101379502D01*
X99770518Y-101415812D01*
X99895000Y-101428072D01*
X100495000Y-101428072D01*
X100619482Y-101415812D01*
X100739180Y-101379502D01*
X100830000Y-101330957D01*
X100920820Y-101379502D01*
X101040518Y-101415812D01*
X101165000Y-101428072D01*
X101765000Y-101428072D01*
X101889482Y-101415812D01*
X102009180Y-101379502D01*
X102100000Y-101330957D01*
X102190820Y-101379502D01*
X102310518Y-101415812D01*
X102435000Y-101428072D01*
X103035000Y-101428072D01*
X103159482Y-101415812D01*
X103279180Y-101379502D01*
X103370000Y-101330957D01*
X103460820Y-101379502D01*
X103580518Y-101415812D01*
X103705000Y-101428072D01*
X104305000Y-101428072D01*
X104429482Y-101415812D01*
X104549180Y-101379502D01*
X104659494Y-101320537D01*
X104756185Y-101241185D01*
X104835537Y-101144494D01*
X104894502Y-101034180D01*
X104930812Y-100914482D01*
X104943072Y-100790000D01*
X104943072Y-99240000D01*
X104930812Y-99115518D01*
X104894502Y-98995820D01*
X104835537Y-98885506D01*
X104756185Y-98788815D01*
X104659494Y-98709463D01*
X104549180Y-98650498D01*
X104429482Y-98614188D01*
X104412010Y-98612467D01*
X104447962Y-98582962D01*
X104558405Y-98448387D01*
X104640472Y-98294851D01*
X104691008Y-98128255D01*
X104708072Y-97955001D01*
X104708072Y-97304999D01*
X104691008Y-97131745D01*
X104640472Y-96965149D01*
X104558405Y-96811613D01*
X104447962Y-96677038D01*
X104441406Y-96671658D01*
X104521185Y-96606185D01*
X104600537Y-96509494D01*
X104659502Y-96399180D01*
X104695812Y-96279482D01*
X104708072Y-96155000D01*
X104705000Y-95865750D01*
X104546250Y-95707000D01*
X103497000Y-95707000D01*
X103497000Y-95727000D01*
X103243000Y-95727000D01*
X103243000Y-95707000D01*
X103223000Y-95707000D01*
X103223000Y-95453000D01*
X103243000Y-95453000D01*
X103243000Y-94528750D01*
X103497000Y-94528750D01*
X103497000Y-95453000D01*
X104546250Y-95453000D01*
X104705000Y-95294250D01*
X104708072Y-95005000D01*
X104695812Y-94880518D01*
X104659502Y-94760820D01*
X104600537Y-94650506D01*
X104521185Y-94553815D01*
X104424494Y-94474463D01*
X104314180Y-94415498D01*
X104194482Y-94379188D01*
X104070000Y-94366928D01*
X103655750Y-94370000D01*
X103497000Y-94528750D01*
X103243000Y-94528750D01*
X103084250Y-94370000D01*
X102670000Y-94366928D01*
X102545518Y-94379188D01*
X102425820Y-94415498D01*
X102417741Y-94419816D01*
X102441956Y-94361356D01*
X102481000Y-94165067D01*
X102481000Y-93964933D01*
X102441956Y-93768644D01*
X102365368Y-93583744D01*
X102254179Y-93417338D01*
X102112662Y-93275821D01*
X101946256Y-93164632D01*
X101761356Y-93088044D01*
X101701600Y-93076158D01*
X101701600Y-90825102D01*
X101794014Y-90775706D01*
X102020134Y-90590134D01*
X102205706Y-90364014D01*
X102235000Y-90309209D01*
X102264294Y-90364014D01*
X102449866Y-90590134D01*
X102675986Y-90775706D01*
X102933966Y-90913599D01*
X103213889Y-90998513D01*
X103432050Y-91020000D01*
X103577950Y-91020000D01*
X103796111Y-90998513D01*
X104076034Y-90913599D01*
X104334014Y-90775706D01*
X104560134Y-90590134D01*
X104745706Y-90364014D01*
X104775000Y-90309209D01*
X104804294Y-90364014D01*
X104989866Y-90590134D01*
X105215986Y-90775706D01*
X105473966Y-90913599D01*
X105753889Y-90998513D01*
X105972050Y-91020000D01*
X106117950Y-91020000D01*
X106336111Y-90998513D01*
X106616034Y-90913599D01*
X106874014Y-90775706D01*
X107100134Y-90590134D01*
X107285706Y-90364014D01*
X107315000Y-90309209D01*
X107344294Y-90364014D01*
X107529866Y-90590134D01*
X107755986Y-90775706D01*
X108013966Y-90913599D01*
X108293889Y-90998513D01*
X108512050Y-91020000D01*
X108657950Y-91020000D01*
X108876111Y-90998513D01*
X109156034Y-90913599D01*
X109414014Y-90775706D01*
X109640134Y-90590134D01*
X109825706Y-90364014D01*
X109855000Y-90309209D01*
X109884294Y-90364014D01*
X110069866Y-90590134D01*
X110295986Y-90775706D01*
X110553966Y-90913599D01*
X110833889Y-90998513D01*
X111052050Y-91020000D01*
X111197950Y-91020000D01*
X111416111Y-90998513D01*
X111696034Y-90913599D01*
X111954014Y-90775706D01*
X112180134Y-90590134D01*
X112365706Y-90364014D01*
X112395000Y-90309209D01*
X112424294Y-90364014D01*
X112609866Y-90590134D01*
X112835986Y-90775706D01*
X113093966Y-90913599D01*
X113373889Y-90998513D01*
X113592050Y-91020000D01*
X113626545Y-91020000D01*
X113618554Y-91029737D01*
X111599291Y-93049000D01*
X111524933Y-93049000D01*
X111328644Y-93088044D01*
X111143744Y-93164632D01*
X110977338Y-93275821D01*
X110835821Y-93417338D01*
X110724632Y-93583744D01*
X110648044Y-93768644D01*
X110609000Y-93964933D01*
X110609000Y-94165067D01*
X110648044Y-94361356D01*
X110706775Y-94503146D01*
X110681613Y-94516595D01*
X110672500Y-94524074D01*
X110663387Y-94516595D01*
X110509851Y-94434528D01*
X110343255Y-94383992D01*
X110170001Y-94366928D01*
X109269999Y-94366928D01*
X109096745Y-94383992D01*
X108930149Y-94434528D01*
X108776613Y-94516595D01*
X108642038Y-94627038D01*
X108531595Y-94761613D01*
X108450000Y-94914266D01*
X108368405Y-94761613D01*
X108257962Y-94627038D01*
X108123387Y-94516595D01*
X108075029Y-94490747D01*
X108080368Y-94482756D01*
X108156956Y-94297856D01*
X108196000Y-94101567D01*
X108196000Y-93901433D01*
X108156956Y-93705144D01*
X108080368Y-93520244D01*
X107969179Y-93353838D01*
X107827662Y-93212321D01*
X107661256Y-93101132D01*
X107476356Y-93024544D01*
X107280067Y-92985500D01*
X107079933Y-92985500D01*
X106883644Y-93024544D01*
X106698744Y-93101132D01*
X106532338Y-93212321D01*
X106390821Y-93353838D01*
X106279632Y-93520244D01*
X106203044Y-93705144D01*
X106164000Y-93901433D01*
X106164000Y-94101567D01*
X106203044Y-94297856D01*
X106279632Y-94482756D01*
X106284971Y-94490747D01*
X106236613Y-94516595D01*
X106102038Y-94627038D01*
X105991595Y-94761613D01*
X105909528Y-94915149D01*
X105858992Y-95081745D01*
X105841928Y-95254999D01*
X105841928Y-95905001D01*
X105858992Y-96078255D01*
X105909528Y-96244851D01*
X105991595Y-96398387D01*
X106102038Y-96532962D01*
X106189816Y-96605000D01*
X106102038Y-96677038D01*
X105991595Y-96811613D01*
X105909528Y-96965149D01*
X105858992Y-97131745D01*
X105841928Y-97304999D01*
X105841928Y-97955001D01*
X105858992Y-98128255D01*
X105909528Y-98294851D01*
X105991595Y-98448387D01*
X106102038Y-98582962D01*
X106125148Y-98601928D01*
X105610000Y-98601928D01*
X105485518Y-98614188D01*
X105365820Y-98650498D01*
X105255506Y-98709463D01*
X105158815Y-98788815D01*
X105079463Y-98885506D01*
X105020498Y-98995820D01*
X104984188Y-99115518D01*
X104971928Y-99240000D01*
X104971928Y-100790000D01*
X104984188Y-100914482D01*
X105020498Y-101034180D01*
X105079463Y-101144494D01*
X105158815Y-101241185D01*
X105255506Y-101320537D01*
X105365820Y-101379502D01*
X105485518Y-101415812D01*
X105610000Y-101428072D01*
X106210000Y-101428072D01*
X106334482Y-101415812D01*
X106454180Y-101379502D01*
X106545000Y-101330957D01*
X106635820Y-101379502D01*
X106755518Y-101415812D01*
X106880000Y-101428072D01*
X107465201Y-101428072D01*
X107434000Y-101584933D01*
X107434000Y-101785067D01*
X107473044Y-101981356D01*
X107549632Y-102166256D01*
X107660821Y-102332662D01*
X107802338Y-102474179D01*
X107968744Y-102585368D01*
X108153644Y-102661956D01*
X108349933Y-102701000D01*
X108550067Y-102701000D01*
X108746356Y-102661956D01*
X108931256Y-102585368D01*
X109097662Y-102474179D01*
X109239179Y-102332662D01*
X109350368Y-102166256D01*
X109426956Y-101981356D01*
X109466000Y-101785067D01*
X109466000Y-101584933D01*
X109434799Y-101428072D01*
X110020000Y-101428072D01*
X110144482Y-101415812D01*
X110264180Y-101379502D01*
X110265029Y-101379048D01*
X110265029Y-103777235D01*
X110261464Y-103813428D01*
X110275687Y-103957826D01*
X110311466Y-104075773D01*
X110264180Y-104050498D01*
X110144482Y-104014188D01*
X110020000Y-104001928D01*
X110005750Y-104005000D01*
X109847000Y-104163750D01*
X109847000Y-105288000D01*
X110496250Y-105288000D01*
X110655000Y-105129250D01*
X110658072Y-104640000D01*
X110645812Y-104515518D01*
X110638759Y-104492269D01*
X110695855Y-104549364D01*
X110686928Y-104640000D01*
X110686928Y-106190000D01*
X110686961Y-106190339D01*
X110656001Y-106211026D01*
X110658072Y-106190000D01*
X110655000Y-105700750D01*
X110496250Y-105542000D01*
X109847000Y-105542000D01*
X109847000Y-106666250D01*
X110005750Y-106825000D01*
X110020000Y-106828072D01*
X110144482Y-106815812D01*
X110201056Y-106798650D01*
X110164500Y-106982433D01*
X110164500Y-107182567D01*
X110203544Y-107378856D01*
X110280132Y-107563756D01*
X110391321Y-107730162D01*
X110527225Y-107866066D01*
X106235967Y-112157324D01*
X106063411Y-112123000D01*
X105790589Y-112123000D01*
X105568107Y-112167255D01*
X105522424Y-112081787D01*
X105453442Y-111997732D01*
X105453437Y-111997727D01*
X105430374Y-111969625D01*
X105402273Y-111946563D01*
X103471600Y-110015891D01*
X103471600Y-108760433D01*
X104386000Y-108760433D01*
X104386000Y-108960567D01*
X104425044Y-109156856D01*
X104501632Y-109341756D01*
X104612821Y-109508162D01*
X104754338Y-109649679D01*
X104920744Y-109760868D01*
X105105644Y-109837456D01*
X105301933Y-109876500D01*
X105502067Y-109876500D01*
X105698356Y-109837456D01*
X105883256Y-109760868D01*
X106049662Y-109649679D01*
X106191179Y-109508162D01*
X106302368Y-109341756D01*
X106378956Y-109156856D01*
X106418000Y-108960567D01*
X106418000Y-108888493D01*
X106433375Y-108875875D01*
X106525424Y-108763713D01*
X106593822Y-108635749D01*
X106635942Y-108496899D01*
X106646600Y-108388686D01*
X106646600Y-108388677D01*
X106650163Y-108352501D01*
X106646600Y-108316325D01*
X106646600Y-107948026D01*
X106698744Y-107982868D01*
X106883644Y-108059456D01*
X107079933Y-108098500D01*
X107280067Y-108098500D01*
X107476356Y-108059456D01*
X107661256Y-107982868D01*
X107815000Y-107880139D01*
X107968744Y-107982868D01*
X108153644Y-108059456D01*
X108349933Y-108098500D01*
X108550067Y-108098500D01*
X108746356Y-108059456D01*
X108931256Y-107982868D01*
X109097662Y-107871679D01*
X109239179Y-107730162D01*
X109350368Y-107563756D01*
X109426956Y-107378856D01*
X109466000Y-107182567D01*
X109466000Y-106982433D01*
X109434613Y-106824637D01*
X109593000Y-106666250D01*
X109593000Y-105542000D01*
X109573000Y-105542000D01*
X109573000Y-105288000D01*
X109593000Y-105288000D01*
X109593000Y-104163750D01*
X109434250Y-104005000D01*
X109420000Y-104001928D01*
X109295518Y-104014188D01*
X109175820Y-104050498D01*
X109085000Y-104099043D01*
X108994180Y-104050498D01*
X108874482Y-104014188D01*
X108750000Y-104001928D01*
X108150000Y-104001928D01*
X108025518Y-104014188D01*
X107905820Y-104050498D01*
X107815000Y-104099043D01*
X107724180Y-104050498D01*
X107604482Y-104014188D01*
X107480000Y-104001928D01*
X106880000Y-104001928D01*
X106755518Y-104014188D01*
X106635820Y-104050498D01*
X106545000Y-104099043D01*
X106454180Y-104050498D01*
X106334482Y-104014188D01*
X106210000Y-104001928D01*
X105610000Y-104001928D01*
X105485518Y-104014188D01*
X105365820Y-104050498D01*
X105255506Y-104109463D01*
X105158815Y-104188815D01*
X105079463Y-104285506D01*
X105020498Y-104395820D01*
X104984188Y-104515518D01*
X104971928Y-104640000D01*
X104971928Y-106190000D01*
X104984188Y-106314482D01*
X105020498Y-106434180D01*
X105079463Y-106544494D01*
X105158815Y-106641185D01*
X105173400Y-106653155D01*
X105173401Y-107870066D01*
X105105644Y-107883544D01*
X104920744Y-107960132D01*
X104754338Y-108071321D01*
X104612821Y-108212838D01*
X104501632Y-108379244D01*
X104425044Y-108564144D01*
X104386000Y-108760433D01*
X103471600Y-108760433D01*
X103471600Y-106782772D01*
X103580518Y-106815812D01*
X103705000Y-106828072D01*
X103719250Y-106825000D01*
X103878000Y-106666250D01*
X103878000Y-105542000D01*
X104132000Y-105542000D01*
X104132000Y-106666250D01*
X104290750Y-106825000D01*
X104305000Y-106828072D01*
X104429482Y-106815812D01*
X104549180Y-106779502D01*
X104659494Y-106720537D01*
X104756185Y-106641185D01*
X104835537Y-106544494D01*
X104894502Y-106434180D01*
X104930812Y-106314482D01*
X104943072Y-106190000D01*
X104940000Y-105700750D01*
X104781250Y-105542000D01*
X104132000Y-105542000D01*
X103878000Y-105542000D01*
X103858000Y-105542000D01*
X103858000Y-105288000D01*
X103878000Y-105288000D01*
X103878000Y-104163750D01*
X104132000Y-104163750D01*
X104132000Y-105288000D01*
X104781250Y-105288000D01*
X104940000Y-105129250D01*
X104943072Y-104640000D01*
X104930812Y-104515518D01*
X104894502Y-104395820D01*
X104835537Y-104285506D01*
X104756185Y-104188815D01*
X104659494Y-104109463D01*
X104549180Y-104050498D01*
X104429482Y-104014188D01*
X104305000Y-104001928D01*
X104290750Y-104005000D01*
X104132000Y-104163750D01*
X103878000Y-104163750D01*
X103719250Y-104005000D01*
X103705000Y-104001928D01*
X103580518Y-104014188D01*
X103460820Y-104050498D01*
X103370000Y-104099043D01*
X103279180Y-104050498D01*
X103159482Y-104014188D01*
X103035000Y-104001928D01*
X102435000Y-104001928D01*
X102310518Y-104014188D01*
X102190820Y-104050498D01*
X102100000Y-104099043D01*
X102009180Y-104050498D01*
X101889482Y-104014188D01*
X101765000Y-104001928D01*
X101165000Y-104001928D01*
X101040518Y-104014188D01*
X100920820Y-104050498D01*
X100830000Y-104099043D01*
X100739180Y-104050498D01*
X100619482Y-104014188D01*
X100495000Y-104001928D01*
X99895000Y-104001928D01*
X99770518Y-104014188D01*
X99650820Y-104050498D01*
X99540506Y-104109463D01*
X99443815Y-104188815D01*
X99364463Y-104285506D01*
X99305498Y-104395820D01*
X99269188Y-104515518D01*
X99256928Y-104640000D01*
X99256928Y-106190000D01*
X99269188Y-106314482D01*
X99305498Y-106434180D01*
X99331423Y-106482682D01*
X99294632Y-106537744D01*
X99218044Y-106722644D01*
X99179000Y-106918933D01*
X99179000Y-107119067D01*
X99218044Y-107315356D01*
X99294632Y-107500256D01*
X99405821Y-107666662D01*
X99547338Y-107808179D01*
X99713744Y-107919368D01*
X99898644Y-107995956D01*
X100094933Y-108035000D01*
X100295067Y-108035000D01*
X100491356Y-107995956D01*
X100676256Y-107919368D01*
X100728400Y-107884526D01*
X100728401Y-111049807D01*
X100724836Y-111086000D01*
X100731563Y-111154291D01*
X100739059Y-111230399D01*
X100742653Y-111242247D01*
X100781178Y-111369247D01*
X100834508Y-111469020D01*
X100849577Y-111497213D01*
X100941626Y-111609375D01*
X100969732Y-111632441D01*
X102536324Y-113199033D01*
X102502000Y-113371589D01*
X102502000Y-113644411D01*
X102555225Y-113911989D01*
X102659629Y-114164043D01*
X102811201Y-114390886D01*
X103004114Y-114583799D01*
X103230957Y-114735371D01*
X103483011Y-114839775D01*
X103585134Y-114860089D01*
X103575225Y-114884011D01*
X103522000Y-115151589D01*
X103522000Y-115424411D01*
X103575225Y-115691989D01*
X103679629Y-115944043D01*
X103831201Y-116170886D01*
X104024114Y-116363799D01*
X104250957Y-116515371D01*
X104503011Y-116619775D01*
X104770589Y-116673000D01*
X105043411Y-116673000D01*
X105310989Y-116619775D01*
X105563043Y-116515371D01*
X105789886Y-116363799D01*
X105927000Y-116226685D01*
X106064114Y-116363799D01*
X106290957Y-116515371D01*
X106543011Y-116619775D01*
X106810589Y-116673000D01*
X107083411Y-116673000D01*
X107350989Y-116619775D01*
X107603043Y-116515371D01*
X107829886Y-116363799D01*
X107967000Y-116226685D01*
X108104114Y-116363799D01*
X108330957Y-116515371D01*
X108583011Y-116619775D01*
X108850589Y-116673000D01*
X109123411Y-116673000D01*
X109390989Y-116619775D01*
X109643043Y-116515371D01*
X109774965Y-116427224D01*
X109825815Y-116489185D01*
X109922506Y-116568537D01*
X110032820Y-116627502D01*
X110152518Y-116663812D01*
X110277000Y-116676072D01*
X111777000Y-116676072D01*
X111875069Y-116666413D01*
X111814214Y-116757489D01*
X111643851Y-117168782D01*
X111557000Y-117605409D01*
X111557000Y-118050591D01*
X111643851Y-118487218D01*
X111814214Y-118898511D01*
X112061544Y-119268666D01*
X112376334Y-119583456D01*
X112746489Y-119830786D01*
X113157782Y-120001149D01*
X113594409Y-120088000D01*
X114039591Y-120088000D01*
X114476218Y-120001149D01*
X114887511Y-119830786D01*
X115257666Y-119583456D01*
X115572456Y-119268666D01*
X115819786Y-118898511D01*
X115990149Y-118487218D01*
X116077000Y-118050591D01*
X116077000Y-117605409D01*
X115990149Y-117168782D01*
X115819786Y-116757489D01*
X115572456Y-116387334D01*
X115257666Y-116072544D01*
X115078944Y-115953125D01*
X115120088Y-115970168D01*
X115435967Y-116033000D01*
X115758033Y-116033000D01*
X116073912Y-115970168D01*
X116371463Y-115846918D01*
X116639252Y-115667987D01*
X116866987Y-115440252D01*
X117045918Y-115172463D01*
X117169168Y-114874912D01*
X117232000Y-114559033D01*
X117232000Y-114236967D01*
X117514000Y-114236967D01*
X117514000Y-114559033D01*
X117576832Y-114874912D01*
X117700082Y-115172463D01*
X117879013Y-115440252D01*
X118106748Y-115667987D01*
X118374537Y-115846918D01*
X118672088Y-115970168D01*
X118987967Y-116033000D01*
X119310033Y-116033000D01*
X119625912Y-115970168D01*
X119667056Y-115953125D01*
X119488334Y-116072544D01*
X119173544Y-116387334D01*
X118926214Y-116757489D01*
X118755851Y-117168782D01*
X118669000Y-117605409D01*
X118669000Y-118050591D01*
X118755851Y-118487218D01*
X118926214Y-118898511D01*
X119173544Y-119268666D01*
X119488334Y-119583456D01*
X119858489Y-119830786D01*
X120269782Y-120001149D01*
X120706409Y-120088000D01*
X121151591Y-120088000D01*
X121588218Y-120001149D01*
X121999511Y-119830786D01*
X122369666Y-119583456D01*
X122684456Y-119268666D01*
X122931786Y-118898511D01*
X123102149Y-118487218D01*
X123189000Y-118050591D01*
X123189000Y-117605409D01*
X123102149Y-117168782D01*
X122931786Y-116757489D01*
X122684456Y-116387334D01*
X122369666Y-116072544D01*
X121999511Y-115825214D01*
X121588218Y-115654851D01*
X121151591Y-115568000D01*
X120706409Y-115568000D01*
X120269782Y-115654851D01*
X120114895Y-115719007D01*
X120191252Y-115667987D01*
X120418987Y-115440252D01*
X120597918Y-115172463D01*
X120721168Y-114874912D01*
X120784000Y-114559033D01*
X120784000Y-114236967D01*
X120721168Y-113921088D01*
X120597918Y-113623537D01*
X120418987Y-113355748D01*
X120191252Y-113128013D01*
X119923463Y-112949082D01*
X119625912Y-112825832D01*
X119310033Y-112763000D01*
X118987967Y-112763000D01*
X118672088Y-112825832D01*
X118374537Y-112949082D01*
X118106748Y-113128013D01*
X117879013Y-113355748D01*
X117700082Y-113623537D01*
X117576832Y-113921088D01*
X117514000Y-114236967D01*
X117232000Y-114236967D01*
X117169168Y-113921088D01*
X117045918Y-113623537D01*
X116866987Y-113355748D01*
X116639252Y-113128013D01*
X116371463Y-112949082D01*
X116073912Y-112825832D01*
X115758033Y-112763000D01*
X115435967Y-112763000D01*
X115120088Y-112825832D01*
X114822537Y-112949082D01*
X114554748Y-113128013D01*
X114327013Y-113355748D01*
X114148082Y-113623537D01*
X114024832Y-113921088D01*
X113962000Y-114236967D01*
X113962000Y-114559033D01*
X114024832Y-114874912D01*
X114148082Y-115172463D01*
X114327013Y-115440252D01*
X114554748Y-115667987D01*
X114631105Y-115719007D01*
X114476218Y-115654851D01*
X114039591Y-115568000D01*
X113594409Y-115568000D01*
X113157782Y-115654851D01*
X112746489Y-115825214D01*
X112414159Y-116047270D01*
X112415072Y-116038000D01*
X112415072Y-114538000D01*
X112402812Y-114413518D01*
X112366502Y-114293820D01*
X112307537Y-114183506D01*
X112228185Y-114086815D01*
X112131494Y-114007463D01*
X112021180Y-113948498D01*
X111901482Y-113912188D01*
X111777000Y-113899928D01*
X111336800Y-113899928D01*
X111384250Y-113708040D01*
X111396812Y-113435508D01*
X111355965Y-113165762D01*
X111263277Y-112909168D01*
X111202860Y-112796137D01*
X110963993Y-112730612D01*
X110186605Y-113508000D01*
X110200748Y-113522143D01*
X110021143Y-113701748D01*
X110007000Y-113687605D01*
X109992858Y-113701748D01*
X109813253Y-113522143D01*
X109827395Y-113508000D01*
X109813253Y-113493858D01*
X109992858Y-113314253D01*
X110007000Y-113328395D01*
X110784388Y-112551007D01*
X110727427Y-112343360D01*
X112285362Y-110785426D01*
X112298132Y-110816256D01*
X112409321Y-110982662D01*
X112550838Y-111124179D01*
X112717244Y-111235368D01*
X112902144Y-111311956D01*
X113098433Y-111351000D01*
X113298567Y-111351000D01*
X113494856Y-111311956D01*
X113679756Y-111235368D01*
X113846162Y-111124179D01*
X113987679Y-110982662D01*
X114098868Y-110816256D01*
X114175456Y-110631356D01*
X114214500Y-110435067D01*
X114214500Y-110234933D01*
X114175456Y-110038644D01*
X114098868Y-109853744D01*
X113987679Y-109687338D01*
X113846162Y-109545821D01*
X113679756Y-109434632D01*
X113648926Y-109421862D01*
X114660273Y-108410514D01*
X114688374Y-108387453D01*
X114711437Y-108359351D01*
X114711442Y-108359346D01*
X114780424Y-108275291D01*
X114780940Y-108274326D01*
X114848822Y-108147327D01*
X114890942Y-108008477D01*
X114901600Y-107900264D01*
X114901600Y-107900263D01*
X114905164Y-107864078D01*
X114901600Y-107827892D01*
X114901600Y-107299933D01*
X118864000Y-107299933D01*
X118864000Y-107500067D01*
X118903044Y-107696356D01*
X118979632Y-107881256D01*
X119090821Y-108047662D01*
X119232338Y-108189179D01*
X119398744Y-108300368D01*
X119583644Y-108376956D01*
X119779933Y-108416000D01*
X119980067Y-108416000D01*
X120176356Y-108376956D01*
X120361256Y-108300368D01*
X120413401Y-108265526D01*
X120413401Y-110922807D01*
X120409836Y-110959000D01*
X120424059Y-111103398D01*
X120466178Y-111242247D01*
X120534062Y-111369249D01*
X120534577Y-111370213D01*
X120626626Y-111482375D01*
X120654732Y-111505441D01*
X122348324Y-113199033D01*
X122314000Y-113371589D01*
X122314000Y-113644411D01*
X122367225Y-113911989D01*
X122471629Y-114164043D01*
X122623201Y-114390886D01*
X122816114Y-114583799D01*
X123042957Y-114735371D01*
X123295011Y-114839775D01*
X123397134Y-114860089D01*
X123387225Y-114884011D01*
X123334000Y-115151589D01*
X123334000Y-115424411D01*
X123387225Y-115691989D01*
X123491629Y-115944043D01*
X123643201Y-116170886D01*
X123836114Y-116363799D01*
X124062957Y-116515371D01*
X124315011Y-116619775D01*
X124582589Y-116673000D01*
X124855411Y-116673000D01*
X125122989Y-116619775D01*
X125375043Y-116515371D01*
X125601886Y-116363799D01*
X125739000Y-116226685D01*
X125876114Y-116363799D01*
X126102957Y-116515371D01*
X126355011Y-116619775D01*
X126622589Y-116673000D01*
X126895411Y-116673000D01*
X127162989Y-116619775D01*
X127415043Y-116515371D01*
X127641886Y-116363799D01*
X127779000Y-116226685D01*
X127916114Y-116363799D01*
X128142957Y-116515371D01*
X128395011Y-116619775D01*
X128662589Y-116673000D01*
X128935411Y-116673000D01*
X129202989Y-116619775D01*
X129455043Y-116515371D01*
X129586965Y-116427224D01*
X129637815Y-116489185D01*
X129734506Y-116568537D01*
X129844820Y-116627502D01*
X129964518Y-116663812D01*
X130089000Y-116676072D01*
X131589000Y-116676072D01*
X131687069Y-116666413D01*
X131626214Y-116757489D01*
X131455851Y-117168782D01*
X131369000Y-117605409D01*
X131369000Y-118050591D01*
X131455851Y-118487218D01*
X131626214Y-118898511D01*
X131873544Y-119268666D01*
X132188334Y-119583456D01*
X132558489Y-119830786D01*
X132969782Y-120001149D01*
X133406409Y-120088000D01*
X133851591Y-120088000D01*
X134288218Y-120001149D01*
X134699511Y-119830786D01*
X135069666Y-119583456D01*
X135384456Y-119268666D01*
X135631786Y-118898511D01*
X135802149Y-118487218D01*
X135889000Y-118050591D01*
X135889000Y-117605409D01*
X135802149Y-117168782D01*
X135631786Y-116757489D01*
X135384456Y-116387334D01*
X135069666Y-116072544D01*
X134890944Y-115953125D01*
X134932088Y-115970168D01*
X135247967Y-116033000D01*
X135570033Y-116033000D01*
X135885912Y-115970168D01*
X136183463Y-115846918D01*
X136451252Y-115667987D01*
X136678987Y-115440252D01*
X136857918Y-115172463D01*
X136981168Y-114874912D01*
X137044000Y-114559033D01*
X137044000Y-114236967D01*
X136981168Y-113921088D01*
X136857918Y-113623537D01*
X136678987Y-113355748D01*
X136451252Y-113128013D01*
X136183463Y-112949082D01*
X135885912Y-112825832D01*
X135570033Y-112763000D01*
X135247967Y-112763000D01*
X134932088Y-112825832D01*
X134634537Y-112949082D01*
X134366748Y-113128013D01*
X134139013Y-113355748D01*
X133960082Y-113623537D01*
X133836832Y-113921088D01*
X133774000Y-114236967D01*
X133774000Y-114559033D01*
X133836832Y-114874912D01*
X133960082Y-115172463D01*
X134139013Y-115440252D01*
X134366748Y-115667987D01*
X134443105Y-115719007D01*
X134288218Y-115654851D01*
X133851591Y-115568000D01*
X133406409Y-115568000D01*
X132969782Y-115654851D01*
X132558489Y-115825214D01*
X132226159Y-116047270D01*
X132227072Y-116038000D01*
X132227072Y-114538000D01*
X132214812Y-114413518D01*
X132178502Y-114293820D01*
X132119537Y-114183506D01*
X132040185Y-114086815D01*
X131943494Y-114007463D01*
X131833180Y-113948498D01*
X131713482Y-113912188D01*
X131589000Y-113899928D01*
X131148800Y-113899928D01*
X131196250Y-113708040D01*
X131208812Y-113435508D01*
X131167965Y-113165762D01*
X131075277Y-112909168D01*
X131014860Y-112796137D01*
X130775993Y-112730612D01*
X129998605Y-113508000D01*
X130012748Y-113522143D01*
X129833143Y-113701748D01*
X129819000Y-113687605D01*
X129804858Y-113701748D01*
X129625253Y-113522143D01*
X129639395Y-113508000D01*
X129625253Y-113493858D01*
X129804858Y-113314253D01*
X129819000Y-113328395D01*
X130596388Y-112551007D01*
X130539427Y-112343360D01*
X131978472Y-110904316D01*
X132030821Y-110982662D01*
X132172338Y-111124179D01*
X132338744Y-111235368D01*
X132523644Y-111311956D01*
X132719933Y-111351000D01*
X132920067Y-111351000D01*
X133116356Y-111311956D01*
X133301256Y-111235368D01*
X133467662Y-111124179D01*
X133609179Y-110982662D01*
X133720368Y-110816256D01*
X133796956Y-110631356D01*
X133836000Y-110435067D01*
X133836000Y-110234933D01*
X133796956Y-110038644D01*
X133720368Y-109853744D01*
X133609179Y-109687338D01*
X133467662Y-109545821D01*
X133389316Y-109493472D01*
X134345269Y-108537519D01*
X134373375Y-108514453D01*
X134465424Y-108402291D01*
X134533822Y-108274327D01*
X134575942Y-108135477D01*
X134586600Y-108027264D01*
X134590164Y-107991078D01*
X134586600Y-107954892D01*
X134586600Y-106782772D01*
X134695518Y-106815812D01*
X134820000Y-106828072D01*
X134834250Y-106825000D01*
X134993000Y-106666250D01*
X134993000Y-105542000D01*
X135247000Y-105542000D01*
X135247000Y-106666250D01*
X135405750Y-106825000D01*
X135420000Y-106828072D01*
X135544482Y-106815812D01*
X135664180Y-106779502D01*
X135774494Y-106720537D01*
X135871185Y-106641185D01*
X135950537Y-106544494D01*
X136009502Y-106434180D01*
X136045812Y-106314482D01*
X136058072Y-106190000D01*
X136055000Y-105700750D01*
X135896250Y-105542000D01*
X135247000Y-105542000D01*
X134993000Y-105542000D01*
X134973000Y-105542000D01*
X134973000Y-105288000D01*
X134993000Y-105288000D01*
X134993000Y-104163750D01*
X135247000Y-104163750D01*
X135247000Y-105288000D01*
X135896250Y-105288000D01*
X136055000Y-105129250D01*
X136058072Y-104640000D01*
X136045812Y-104515518D01*
X136009502Y-104395820D01*
X135950537Y-104285506D01*
X135871185Y-104188815D01*
X135774494Y-104109463D01*
X135664180Y-104050498D01*
X135544482Y-104014188D01*
X135420000Y-104001928D01*
X135405750Y-104005000D01*
X135247000Y-104163750D01*
X134993000Y-104163750D01*
X134834250Y-104005000D01*
X134820000Y-104001928D01*
X134695518Y-104014188D01*
X134575820Y-104050498D01*
X134485000Y-104099043D01*
X134394180Y-104050498D01*
X134274482Y-104014188D01*
X134150000Y-104001928D01*
X133550000Y-104001928D01*
X133425518Y-104014188D01*
X133305820Y-104050498D01*
X133215000Y-104099043D01*
X133124180Y-104050498D01*
X133004482Y-104014188D01*
X132880000Y-104001928D01*
X132280000Y-104001928D01*
X132237344Y-104006129D01*
X132286956Y-103886356D01*
X132326000Y-103690067D01*
X132326000Y-103489933D01*
X132286956Y-103293644D01*
X132210368Y-103108744D01*
X132099179Y-102942338D01*
X131957662Y-102800821D01*
X131791256Y-102689632D01*
X131606356Y-102613044D01*
X131410067Y-102574000D01*
X131209933Y-102574000D01*
X131013644Y-102613044D01*
X130828744Y-102689632D01*
X130662338Y-102800821D01*
X130520821Y-102942338D01*
X130409632Y-103108744D01*
X130333044Y-103293644D01*
X130294000Y-103489933D01*
X130294000Y-103690067D01*
X130333044Y-103886356D01*
X130409632Y-104071256D01*
X130519881Y-104236256D01*
X130479463Y-104285506D01*
X130420498Y-104395820D01*
X130384188Y-104515518D01*
X130371928Y-104640000D01*
X130371928Y-106190000D01*
X130384188Y-106314482D01*
X130420498Y-106434180D01*
X130479463Y-106544494D01*
X130558815Y-106641185D01*
X130655506Y-106720537D01*
X130765820Y-106779502D01*
X130885518Y-106815812D01*
X131010000Y-106828072D01*
X131377218Y-106828072D01*
X126047967Y-112157324D01*
X125875411Y-112123000D01*
X125602589Y-112123000D01*
X125335011Y-112176225D01*
X125082957Y-112280629D01*
X125032785Y-112314153D01*
X123156600Y-110437969D01*
X123156600Y-107299933D01*
X124579000Y-107299933D01*
X124579000Y-107500067D01*
X124618044Y-107696356D01*
X124694632Y-107881256D01*
X124805821Y-108047662D01*
X124947338Y-108189179D01*
X125113744Y-108300368D01*
X125298644Y-108376956D01*
X125494933Y-108416000D01*
X125695067Y-108416000D01*
X125891356Y-108376956D01*
X126076256Y-108300368D01*
X126230000Y-108197639D01*
X126383744Y-108300368D01*
X126568644Y-108376956D01*
X126764933Y-108416000D01*
X126965067Y-108416000D01*
X127161356Y-108376956D01*
X127346256Y-108300368D01*
X127500000Y-108197639D01*
X127653744Y-108300368D01*
X127838644Y-108376956D01*
X128034933Y-108416000D01*
X128235067Y-108416000D01*
X128431356Y-108376956D01*
X128616256Y-108300368D01*
X128782662Y-108189179D01*
X128924179Y-108047662D01*
X129035368Y-107881256D01*
X129111956Y-107696356D01*
X129151000Y-107500067D01*
X129151000Y-107299933D01*
X129111956Y-107103644D01*
X129035368Y-106918744D01*
X128963051Y-106810513D01*
X128980518Y-106815812D01*
X129105000Y-106828072D01*
X129119250Y-106825000D01*
X129278000Y-106666250D01*
X129278000Y-105542000D01*
X129532000Y-105542000D01*
X129532000Y-106666250D01*
X129690750Y-106825000D01*
X129705000Y-106828072D01*
X129829482Y-106815812D01*
X129949180Y-106779502D01*
X130059494Y-106720537D01*
X130156185Y-106641185D01*
X130235537Y-106544494D01*
X130294502Y-106434180D01*
X130330812Y-106314482D01*
X130343072Y-106190000D01*
X130340000Y-105700750D01*
X130181250Y-105542000D01*
X129532000Y-105542000D01*
X129278000Y-105542000D01*
X129258000Y-105542000D01*
X129258000Y-105288000D01*
X129278000Y-105288000D01*
X129278000Y-104163750D01*
X129532000Y-104163750D01*
X129532000Y-105288000D01*
X130181250Y-105288000D01*
X130340000Y-105129250D01*
X130343072Y-104640000D01*
X130330812Y-104515518D01*
X130294502Y-104395820D01*
X130235537Y-104285506D01*
X130156185Y-104188815D01*
X130059494Y-104109463D01*
X129949180Y-104050498D01*
X129829482Y-104014188D01*
X129705000Y-104001928D01*
X129690750Y-104005000D01*
X129532000Y-104163750D01*
X129278000Y-104163750D01*
X129119250Y-104005000D01*
X129105000Y-104001928D01*
X128980518Y-104014188D01*
X128860820Y-104050498D01*
X128770000Y-104099043D01*
X128679180Y-104050498D01*
X128559482Y-104014188D01*
X128435000Y-104001928D01*
X127835000Y-104001928D01*
X127710518Y-104014188D01*
X127590820Y-104050498D01*
X127500000Y-104099043D01*
X127409180Y-104050498D01*
X127289482Y-104014188D01*
X127165000Y-104001928D01*
X126565000Y-104001928D01*
X126440518Y-104014188D01*
X126320820Y-104050498D01*
X126230000Y-104099043D01*
X126139180Y-104050498D01*
X126019482Y-104014188D01*
X125895000Y-104001928D01*
X125295000Y-104001928D01*
X125170518Y-104014188D01*
X125050820Y-104050498D01*
X124940506Y-104109463D01*
X124843815Y-104188815D01*
X124764463Y-104285506D01*
X124705498Y-104395820D01*
X124669188Y-104515518D01*
X124656928Y-104640000D01*
X124656928Y-106190000D01*
X124669188Y-106314482D01*
X124705498Y-106434180D01*
X124764463Y-106544494D01*
X124843815Y-106641185D01*
X124858401Y-106653155D01*
X124858401Y-106699758D01*
X124805821Y-106752338D01*
X124694632Y-106918744D01*
X124618044Y-107103644D01*
X124579000Y-107299933D01*
X123156600Y-107299933D01*
X123156600Y-106782772D01*
X123265518Y-106815812D01*
X123390000Y-106828072D01*
X123404250Y-106825000D01*
X123563000Y-106666250D01*
X123563000Y-105542000D01*
X123817000Y-105542000D01*
X123817000Y-106666250D01*
X123975750Y-106825000D01*
X123990000Y-106828072D01*
X124114482Y-106815812D01*
X124234180Y-106779502D01*
X124344494Y-106720537D01*
X124441185Y-106641185D01*
X124520537Y-106544494D01*
X124579502Y-106434180D01*
X124615812Y-106314482D01*
X124628072Y-106190000D01*
X124625000Y-105700750D01*
X124466250Y-105542000D01*
X123817000Y-105542000D01*
X123563000Y-105542000D01*
X123543000Y-105542000D01*
X123543000Y-105288000D01*
X123563000Y-105288000D01*
X123563000Y-104163750D01*
X123817000Y-104163750D01*
X123817000Y-105288000D01*
X124466250Y-105288000D01*
X124625000Y-105129250D01*
X124628072Y-104640000D01*
X124615812Y-104515518D01*
X124579502Y-104395820D01*
X124520537Y-104285506D01*
X124441185Y-104188815D01*
X124344494Y-104109463D01*
X124234180Y-104050498D01*
X124114482Y-104014188D01*
X123990000Y-104001928D01*
X123975750Y-104005000D01*
X123817000Y-104163750D01*
X123563000Y-104163750D01*
X123404250Y-104005000D01*
X123390000Y-104001928D01*
X123265518Y-104014188D01*
X123145820Y-104050498D01*
X123055000Y-104099043D01*
X122964180Y-104050498D01*
X122844482Y-104014188D01*
X122720000Y-104001928D01*
X122120000Y-104001928D01*
X121995518Y-104014188D01*
X121875820Y-104050498D01*
X121785000Y-104099043D01*
X121694180Y-104050498D01*
X121574482Y-104014188D01*
X121450000Y-104001928D01*
X120850000Y-104001928D01*
X120725518Y-104014188D01*
X120605820Y-104050498D01*
X120515000Y-104099043D01*
X120424180Y-104050498D01*
X120304482Y-104014188D01*
X120180000Y-104001928D01*
X119580000Y-104001928D01*
X119455518Y-104014188D01*
X119335820Y-104050498D01*
X119225506Y-104109463D01*
X119128815Y-104188815D01*
X119049463Y-104285506D01*
X118990498Y-104395820D01*
X118954188Y-104515518D01*
X118941928Y-104640000D01*
X118941928Y-106190000D01*
X118954188Y-106314482D01*
X118990498Y-106434180D01*
X119049463Y-106544494D01*
X119128815Y-106641185D01*
X119143401Y-106653155D01*
X119143401Y-106699758D01*
X119090821Y-106752338D01*
X118979632Y-106918744D01*
X118903044Y-107103644D01*
X118864000Y-107299933D01*
X114901600Y-107299933D01*
X114901600Y-106782772D01*
X115010518Y-106815812D01*
X115135000Y-106828072D01*
X115149250Y-106825000D01*
X115308000Y-106666250D01*
X115308000Y-105542000D01*
X115562000Y-105542000D01*
X115562000Y-106666250D01*
X115720750Y-106825000D01*
X115735000Y-106828072D01*
X115859482Y-106815812D01*
X115979180Y-106779502D01*
X116089494Y-106720537D01*
X116186185Y-106641185D01*
X116265537Y-106544494D01*
X116324502Y-106434180D01*
X116360812Y-106314482D01*
X116373072Y-106190000D01*
X116370000Y-105700750D01*
X116211250Y-105542000D01*
X115562000Y-105542000D01*
X115308000Y-105542000D01*
X115288000Y-105542000D01*
X115288000Y-105288000D01*
X115308000Y-105288000D01*
X115308000Y-104163750D01*
X115562000Y-104163750D01*
X115562000Y-105288000D01*
X116211250Y-105288000D01*
X116370000Y-105129250D01*
X116373072Y-104640000D01*
X116360812Y-104515518D01*
X116324502Y-104395820D01*
X116265537Y-104285506D01*
X116186185Y-104188815D01*
X116089494Y-104109463D01*
X115979180Y-104050498D01*
X115859482Y-104014188D01*
X115735000Y-104001928D01*
X115720750Y-104005000D01*
X115562000Y-104163750D01*
X115308000Y-104163750D01*
X115149250Y-104005000D01*
X115135000Y-104001928D01*
X115010518Y-104014188D01*
X114890820Y-104050498D01*
X114800000Y-104099043D01*
X114709180Y-104050498D01*
X114589482Y-104014188D01*
X114465000Y-104001928D01*
X113865000Y-104001928D01*
X113740518Y-104014188D01*
X113620820Y-104050498D01*
X113530000Y-104099043D01*
X113439180Y-104050498D01*
X113319482Y-104014188D01*
X113195000Y-104001928D01*
X112595000Y-104001928D01*
X112470518Y-104014188D01*
X112350820Y-104050498D01*
X112275312Y-104090858D01*
X112240424Y-104025587D01*
X112229215Y-104011929D01*
X112171442Y-103941532D01*
X112171437Y-103941527D01*
X112148374Y-103913425D01*
X112120273Y-103890363D01*
X111738228Y-103508319D01*
X111738228Y-101635166D01*
X111767788Y-101659425D01*
X111895752Y-101727823D01*
X112034599Y-101769942D01*
X112034602Y-101769943D01*
X112179001Y-101784165D01*
X112215187Y-101780601D01*
X115902018Y-101780601D01*
X115938201Y-101784165D01*
X115974384Y-101780601D01*
X115974387Y-101780601D01*
X116082600Y-101769943D01*
X116221450Y-101727823D01*
X116349414Y-101659425D01*
X116461576Y-101567376D01*
X116484646Y-101539265D01*
X117835273Y-100188639D01*
X117863374Y-100165577D01*
X117886437Y-100137475D01*
X117886442Y-100137470D01*
X117955423Y-100053416D01*
X117955424Y-100053415D01*
X118023822Y-99925451D01*
X118065942Y-99786601D01*
X118076600Y-99678388D01*
X118076600Y-99678379D01*
X118080163Y-99642203D01*
X118076600Y-99606027D01*
X118076600Y-98791625D01*
X118129851Y-98775472D01*
X118283387Y-98693405D01*
X118417962Y-98582962D01*
X118528405Y-98448387D01*
X118608902Y-98297788D01*
X118609528Y-98299851D01*
X118691595Y-98453387D01*
X118802038Y-98587962D01*
X118936613Y-98698405D01*
X119090149Y-98780472D01*
X119126590Y-98791526D01*
X119049463Y-98885506D01*
X118990498Y-98995820D01*
X118954188Y-99115518D01*
X118941928Y-99240000D01*
X118941928Y-100790000D01*
X118954188Y-100914482D01*
X118990498Y-101034180D01*
X119049463Y-101144494D01*
X119128815Y-101241185D01*
X119225506Y-101320537D01*
X119335820Y-101379502D01*
X119455518Y-101415812D01*
X119580000Y-101428072D01*
X120180000Y-101428072D01*
X120304482Y-101415812D01*
X120424180Y-101379502D01*
X120515000Y-101330957D01*
X120605820Y-101379502D01*
X120725518Y-101415812D01*
X120850000Y-101428072D01*
X121450000Y-101428072D01*
X121574482Y-101415812D01*
X121694180Y-101379502D01*
X121785000Y-101330957D01*
X121875820Y-101379502D01*
X121995518Y-101415812D01*
X122120000Y-101428072D01*
X122720000Y-101428072D01*
X122844482Y-101415812D01*
X122964180Y-101379502D01*
X123055000Y-101330957D01*
X123145820Y-101379502D01*
X123265518Y-101415812D01*
X123390000Y-101428072D01*
X123990000Y-101428072D01*
X124114482Y-101415812D01*
X124234180Y-101379502D01*
X124344494Y-101320537D01*
X124441185Y-101241185D01*
X124520537Y-101144494D01*
X124579502Y-101034180D01*
X124615812Y-100914482D01*
X124628072Y-100790000D01*
X124628072Y-99240000D01*
X124656928Y-99240000D01*
X124656928Y-100790000D01*
X124669188Y-100914482D01*
X124705498Y-101034180D01*
X124764463Y-101144494D01*
X124843815Y-101241185D01*
X124940506Y-101320537D01*
X125050820Y-101379502D01*
X125170518Y-101415812D01*
X125295000Y-101428072D01*
X125895000Y-101428072D01*
X126019482Y-101415812D01*
X126139180Y-101379502D01*
X126230000Y-101330957D01*
X126320820Y-101379502D01*
X126440518Y-101415812D01*
X126565000Y-101428072D01*
X127150201Y-101428072D01*
X127119000Y-101584933D01*
X127119000Y-101785067D01*
X127158044Y-101981356D01*
X127234632Y-102166256D01*
X127345821Y-102332662D01*
X127487338Y-102474179D01*
X127653744Y-102585368D01*
X127838644Y-102661956D01*
X128034933Y-102701000D01*
X128235067Y-102701000D01*
X128431356Y-102661956D01*
X128616256Y-102585368D01*
X128782662Y-102474179D01*
X128924179Y-102332662D01*
X129035368Y-102166256D01*
X129111956Y-101981356D01*
X129151000Y-101785067D01*
X129151000Y-101584933D01*
X129119799Y-101428072D01*
X129705000Y-101428072D01*
X129829482Y-101415812D01*
X129949180Y-101379502D01*
X130059494Y-101320537D01*
X130156185Y-101241185D01*
X130235537Y-101144494D01*
X130294502Y-101034180D01*
X130330812Y-100914482D01*
X130343072Y-100790000D01*
X130343072Y-99240000D01*
X130371928Y-99240000D01*
X130371928Y-100790000D01*
X130384188Y-100914482D01*
X130420498Y-101034180D01*
X130479463Y-101144494D01*
X130558815Y-101241185D01*
X130645241Y-101312113D01*
X130694576Y-101404412D01*
X130786625Y-101516574D01*
X130814732Y-101539641D01*
X131305359Y-102030268D01*
X131328425Y-102058375D01*
X131440587Y-102150424D01*
X131568551Y-102218822D01*
X131707398Y-102260941D01*
X131707401Y-102260942D01*
X131851800Y-102275164D01*
X131887986Y-102271600D01*
X135808817Y-102271600D01*
X135845000Y-102275164D01*
X135881183Y-102271600D01*
X135881186Y-102271600D01*
X135989399Y-102260942D01*
X136128249Y-102218822D01*
X136256213Y-102150424D01*
X136368375Y-102058375D01*
X136391445Y-102030264D01*
X137520269Y-100901441D01*
X137548375Y-100878375D01*
X137620903Y-100790000D01*
X137640424Y-100766214D01*
X137692385Y-100669000D01*
X137708822Y-100638249D01*
X137750942Y-100499399D01*
X137761600Y-100391186D01*
X137761600Y-100391184D01*
X137765164Y-100355001D01*
X137761600Y-100318817D01*
X137761600Y-98796625D01*
X137814851Y-98780472D01*
X137968387Y-98698405D01*
X138102962Y-98587962D01*
X138213405Y-98453387D01*
X138295472Y-98299851D01*
X138346008Y-98133255D01*
X138363072Y-97960001D01*
X138363072Y-97309999D01*
X138346008Y-97136745D01*
X138295472Y-96970149D01*
X138213405Y-96816613D01*
X138102962Y-96682038D01*
X138015184Y-96610000D01*
X138102962Y-96537962D01*
X138213405Y-96403387D01*
X138295472Y-96249851D01*
X138346008Y-96083255D01*
X138363072Y-95910001D01*
X138363072Y-95259999D01*
X138346008Y-95086745D01*
X138295472Y-94920149D01*
X138213405Y-94766613D01*
X138102962Y-94632038D01*
X137968387Y-94521595D01*
X137941529Y-94507239D01*
X138001956Y-94361356D01*
X138041000Y-94165067D01*
X138041000Y-93964933D01*
X138001956Y-93768644D01*
X137925368Y-93583744D01*
X137814179Y-93417338D01*
X137672662Y-93275821D01*
X137506256Y-93164632D01*
X137321356Y-93088044D01*
X137125067Y-93049000D01*
X136924933Y-93049000D01*
X136728644Y-93088044D01*
X136543744Y-93164632D01*
X136377338Y-93275821D01*
X136235821Y-93417338D01*
X136124632Y-93583744D01*
X136072500Y-93709602D01*
X136020368Y-93583744D01*
X135909179Y-93417338D01*
X135767662Y-93275821D01*
X135601256Y-93164632D01*
X135416356Y-93088044D01*
X135220067Y-93049000D01*
X135019933Y-93049000D01*
X134823644Y-93088044D01*
X134638744Y-93164632D01*
X134472338Y-93275821D01*
X134330821Y-93417338D01*
X134219632Y-93583744D01*
X134143044Y-93768644D01*
X134104000Y-93964933D01*
X134104000Y-94165067D01*
X134143044Y-94361356D01*
X134203471Y-94507239D01*
X134176613Y-94521595D01*
X134042038Y-94632038D01*
X133931595Y-94766613D01*
X133892136Y-94840435D01*
X133869502Y-94765820D01*
X133810537Y-94655506D01*
X133731185Y-94558815D01*
X133634494Y-94479463D01*
X133524180Y-94420498D01*
X133404482Y-94384188D01*
X133280000Y-94371928D01*
X132865750Y-94375000D01*
X132707000Y-94533750D01*
X132707000Y-95458000D01*
X132727000Y-95458000D01*
X132727000Y-95712000D01*
X132707000Y-95712000D01*
X132707000Y-95732000D01*
X132453000Y-95732000D01*
X132453000Y-95712000D01*
X131403750Y-95712000D01*
X131245000Y-95870750D01*
X131241928Y-96160000D01*
X131254188Y-96284482D01*
X131290498Y-96404180D01*
X131349463Y-96514494D01*
X131428815Y-96611185D01*
X131508594Y-96676658D01*
X131502038Y-96682038D01*
X131391595Y-96816613D01*
X131309528Y-96970149D01*
X131258992Y-97136745D01*
X131241928Y-97309999D01*
X131241928Y-97960001D01*
X131258992Y-98133255D01*
X131309528Y-98299851D01*
X131391595Y-98453387D01*
X131502038Y-98587962D01*
X131519056Y-98601928D01*
X131010000Y-98601928D01*
X130885518Y-98614188D01*
X130765820Y-98650498D01*
X130655506Y-98709463D01*
X130558815Y-98788815D01*
X130479463Y-98885506D01*
X130420498Y-98995820D01*
X130384188Y-99115518D01*
X130371928Y-99240000D01*
X130343072Y-99240000D01*
X130330812Y-99115518D01*
X130294502Y-98995820D01*
X130235537Y-98885506D01*
X130156185Y-98788815D01*
X130154749Y-98787637D01*
X130194851Y-98775472D01*
X130348387Y-98693405D01*
X130482962Y-98582962D01*
X130593405Y-98448387D01*
X130675472Y-98294851D01*
X130726008Y-98128255D01*
X130743072Y-97955001D01*
X130743072Y-97304999D01*
X130726008Y-97131745D01*
X130675472Y-96965149D01*
X130593405Y-96811613D01*
X130482962Y-96677038D01*
X130395184Y-96605000D01*
X130482962Y-96532962D01*
X130593405Y-96398387D01*
X130675472Y-96244851D01*
X130726008Y-96078255D01*
X130743072Y-95905001D01*
X130743072Y-95254999D01*
X130726008Y-95081745D01*
X130704245Y-95010000D01*
X131241928Y-95010000D01*
X131245000Y-95299250D01*
X131403750Y-95458000D01*
X132453000Y-95458000D01*
X132453000Y-94533750D01*
X132294250Y-94375000D01*
X131880000Y-94371928D01*
X131755518Y-94384188D01*
X131635820Y-94420498D01*
X131525506Y-94479463D01*
X131428815Y-94558815D01*
X131349463Y-94655506D01*
X131290498Y-94765820D01*
X131254188Y-94885518D01*
X131241928Y-95010000D01*
X130704245Y-95010000D01*
X130675472Y-94915149D01*
X130593405Y-94761613D01*
X130482962Y-94627038D01*
X130348387Y-94516595D01*
X130323225Y-94503146D01*
X130381956Y-94361356D01*
X130421000Y-94165067D01*
X130421000Y-93964933D01*
X130381956Y-93768644D01*
X130305368Y-93583744D01*
X130194179Y-93417338D01*
X130052662Y-93275821D01*
X129886256Y-93164632D01*
X129701356Y-93088044D01*
X129505067Y-93049000D01*
X129304933Y-93049000D01*
X129108644Y-93088044D01*
X128923744Y-93164632D01*
X128757338Y-93275821D01*
X128615821Y-93417338D01*
X128504632Y-93583744D01*
X128428044Y-93768644D01*
X128389000Y-93964933D01*
X128389000Y-94165067D01*
X128428044Y-94361356D01*
X128486775Y-94503146D01*
X128461613Y-94516595D01*
X128327038Y-94627038D01*
X128216595Y-94761613D01*
X128135000Y-94914266D01*
X128053405Y-94761613D01*
X127942962Y-94627038D01*
X127852471Y-94552774D01*
X127905456Y-94424856D01*
X127944500Y-94228567D01*
X127944500Y-94028433D01*
X127905456Y-93832144D01*
X127828868Y-93647244D01*
X127717679Y-93480838D01*
X127576162Y-93339321D01*
X127409756Y-93228132D01*
X127224856Y-93151544D01*
X127028567Y-93112500D01*
X126828433Y-93112500D01*
X126632144Y-93151544D01*
X126447244Y-93228132D01*
X126280838Y-93339321D01*
X126139321Y-93480838D01*
X126028132Y-93647244D01*
X125951544Y-93832144D01*
X125912500Y-94028433D01*
X125912500Y-94228567D01*
X125951544Y-94424856D01*
X125977230Y-94486867D01*
X125921613Y-94516595D01*
X125787038Y-94627038D01*
X125676595Y-94761613D01*
X125594528Y-94915149D01*
X125543992Y-95081745D01*
X125526928Y-95254999D01*
X125526928Y-95905001D01*
X125543992Y-96078255D01*
X125594528Y-96244851D01*
X125676595Y-96398387D01*
X125787038Y-96532962D01*
X125874816Y-96605000D01*
X125787038Y-96677038D01*
X125676595Y-96811613D01*
X125594528Y-96965149D01*
X125543992Y-97131745D01*
X125526928Y-97304999D01*
X125526928Y-97955001D01*
X125543992Y-98128255D01*
X125594528Y-98294851D01*
X125676595Y-98448387D01*
X125787038Y-98582962D01*
X125810148Y-98601928D01*
X125295000Y-98601928D01*
X125170518Y-98614188D01*
X125050820Y-98650498D01*
X124940506Y-98709463D01*
X124843815Y-98788815D01*
X124764463Y-98885506D01*
X124705498Y-98995820D01*
X124669188Y-99115518D01*
X124656928Y-99240000D01*
X124628072Y-99240000D01*
X124615812Y-99115518D01*
X124579502Y-98995820D01*
X124520537Y-98885506D01*
X124441185Y-98788815D01*
X124439749Y-98787637D01*
X124479851Y-98775472D01*
X124633387Y-98693405D01*
X124767962Y-98582962D01*
X124878405Y-98448387D01*
X124960472Y-98294851D01*
X125011008Y-98128255D01*
X125028072Y-97955001D01*
X125028072Y-97304999D01*
X125011008Y-97131745D01*
X124960472Y-96965149D01*
X124878405Y-96811613D01*
X124767962Y-96677038D01*
X124761406Y-96671658D01*
X124841185Y-96606185D01*
X124920537Y-96509494D01*
X124979502Y-96399180D01*
X125015812Y-96279482D01*
X125028072Y-96155000D01*
X125025000Y-95865750D01*
X124866250Y-95707000D01*
X123817000Y-95707000D01*
X123817000Y-95727000D01*
X123563000Y-95727000D01*
X123563000Y-95707000D01*
X123543000Y-95707000D01*
X123543000Y-95453000D01*
X123563000Y-95453000D01*
X123563000Y-94528750D01*
X123817000Y-94528750D01*
X123817000Y-95453000D01*
X124866250Y-95453000D01*
X125025000Y-95294250D01*
X125028072Y-95005000D01*
X125015812Y-94880518D01*
X124979502Y-94760820D01*
X124920537Y-94650506D01*
X124841185Y-94553815D01*
X124744494Y-94474463D01*
X124634180Y-94415498D01*
X124514482Y-94379188D01*
X124390000Y-94366928D01*
X123975750Y-94370000D01*
X123817000Y-94528750D01*
X123563000Y-94528750D01*
X123404250Y-94370000D01*
X122990000Y-94366928D01*
X122865518Y-94379188D01*
X122745820Y-94415498D01*
X122737741Y-94419816D01*
X122761956Y-94361356D01*
X122801000Y-94165067D01*
X122801000Y-93964933D01*
X122761956Y-93768644D01*
X122685368Y-93583744D01*
X122574179Y-93417338D01*
X122432662Y-93275821D01*
X122266256Y-93164632D01*
X122081356Y-93088044D01*
X121885067Y-93049000D01*
X121684933Y-93049000D01*
X121488644Y-93088044D01*
X121303744Y-93164632D01*
X121137338Y-93275821D01*
X120995821Y-93417338D01*
X120884632Y-93583744D01*
X120808044Y-93768644D01*
X120806846Y-93774667D01*
X120780368Y-93710744D01*
X120669179Y-93544338D01*
X120527662Y-93402821D01*
X120361256Y-93291632D01*
X120176356Y-93215044D01*
X119980067Y-93176000D01*
X119936525Y-93176000D01*
X120215925Y-92896600D01*
X123703817Y-92896600D01*
X123740000Y-92900164D01*
X123776183Y-92896600D01*
X123776186Y-92896600D01*
X123884399Y-92885942D01*
X124023249Y-92843822D01*
X124151213Y-92775424D01*
X124263375Y-92683375D01*
X124286446Y-92655264D01*
X125973615Y-90968095D01*
X126073889Y-90998513D01*
X126292050Y-91020000D01*
X126437950Y-91020000D01*
X126656111Y-90998513D01*
X126936034Y-90913599D01*
X127194014Y-90775706D01*
X127420134Y-90590134D01*
X127605706Y-90364014D01*
X127635000Y-90309209D01*
X127664294Y-90364014D01*
X127849866Y-90590134D01*
X128075986Y-90775706D01*
X128333966Y-90913599D01*
X128613889Y-90998513D01*
X128832050Y-91020000D01*
X128977950Y-91020000D01*
X129196111Y-90998513D01*
X129476034Y-90913599D01*
X129734014Y-90775706D01*
X129960134Y-90590134D01*
X130145706Y-90364014D01*
X130175000Y-90309209D01*
X130204294Y-90364014D01*
X130389866Y-90590134D01*
X130615986Y-90775706D01*
X130873966Y-90913599D01*
X131153889Y-90998513D01*
X131372050Y-91020000D01*
X131517950Y-91020000D01*
X131736111Y-90998513D01*
X132016034Y-90913599D01*
X132274014Y-90775706D01*
X132500134Y-90590134D01*
X132685706Y-90364014D01*
X132715000Y-90309209D01*
X132744294Y-90364014D01*
X132929866Y-90590134D01*
X133155986Y-90775706D01*
X133413966Y-90913599D01*
X133693889Y-90998513D01*
X133912050Y-91020000D01*
X134057950Y-91020000D01*
X134276111Y-90998513D01*
X134556034Y-90913599D01*
X134814014Y-90775706D01*
X135040134Y-90590134D01*
X135225706Y-90364014D01*
X135255000Y-90309209D01*
X135284294Y-90364014D01*
X135469866Y-90590134D01*
X135695986Y-90775706D01*
X135953966Y-90913599D01*
X136233889Y-90998513D01*
X136452050Y-91020000D01*
X136597950Y-91020000D01*
X136816111Y-90998513D01*
X137096034Y-90913599D01*
X137354014Y-90775706D01*
X137580134Y-90590134D01*
X137765706Y-90364014D01*
X137795000Y-90309209D01*
X137824294Y-90364014D01*
X138009866Y-90590134D01*
X138235986Y-90775706D01*
X138493966Y-90913599D01*
X138773889Y-90998513D01*
X138992050Y-91020000D01*
X139137950Y-91020000D01*
X139356111Y-90998513D01*
X139636034Y-90913599D01*
X139894014Y-90775706D01*
X140120134Y-90590134D01*
X140305706Y-90364014D01*
X140335000Y-90309209D01*
X140364294Y-90364014D01*
X140549866Y-90590134D01*
X140775986Y-90775706D01*
X141033966Y-90913599D01*
X141313889Y-90998513D01*
X141532050Y-91020000D01*
X141677950Y-91020000D01*
X141896111Y-90998513D01*
X142176034Y-90913599D01*
X142434014Y-90775706D01*
X142660134Y-90590134D01*
X142684607Y-90560313D01*
X142705498Y-90629180D01*
X142764463Y-90739494D01*
X142843815Y-90836185D01*
X142940506Y-90915537D01*
X143050820Y-90974502D01*
X143170518Y-91010812D01*
X143295000Y-91023072D01*
X143859250Y-91020000D01*
X144018000Y-90861250D01*
X144018000Y-89662000D01*
X144272000Y-89662000D01*
X144272000Y-90861250D01*
X144430750Y-91020000D01*
X144995000Y-91023072D01*
X145119482Y-91010812D01*
X145239180Y-90974502D01*
X145349494Y-90915537D01*
X145446185Y-90836185D01*
X145525537Y-90739494D01*
X145584502Y-90629180D01*
X145620812Y-90509482D01*
X145633072Y-90385000D01*
X145630000Y-89820750D01*
X145471250Y-89662000D01*
X144272000Y-89662000D01*
X144018000Y-89662000D01*
X143998000Y-89662000D01*
X143998000Y-89408000D01*
X144018000Y-89408000D01*
X144018000Y-88208750D01*
X144272000Y-88208750D01*
X144272000Y-89408000D01*
X145471250Y-89408000D01*
X145630000Y-89249250D01*
X145633072Y-88685000D01*
X145620812Y-88560518D01*
X145584502Y-88440820D01*
X145525537Y-88330506D01*
X145446185Y-88233815D01*
X145349494Y-88154463D01*
X145239180Y-88095498D01*
X145119482Y-88059188D01*
X144995000Y-88046928D01*
X144430750Y-88050000D01*
X144272000Y-88208750D01*
X144018000Y-88208750D01*
X143859250Y-88050000D01*
X143295000Y-88046928D01*
X143170518Y-88059188D01*
X143050820Y-88095498D01*
X142940506Y-88154463D01*
X142843815Y-88233815D01*
X142764463Y-88330506D01*
X142705498Y-88440820D01*
X142684607Y-88509687D01*
X142660134Y-88479866D01*
X142434014Y-88294294D01*
X142176034Y-88156401D01*
X141896111Y-88071487D01*
X141677950Y-88050000D01*
X141532050Y-88050000D01*
X141313889Y-88071487D01*
X141033966Y-88156401D01*
X140775986Y-88294294D01*
X140549866Y-88479866D01*
X140364294Y-88705986D01*
X140335000Y-88760791D01*
X140305706Y-88705986D01*
X140120134Y-88479866D01*
X139894014Y-88294294D01*
X139636034Y-88156401D01*
X139356111Y-88071487D01*
X139137950Y-88050000D01*
X138992050Y-88050000D01*
X138773889Y-88071487D01*
X138493966Y-88156401D01*
X138235986Y-88294294D01*
X138009866Y-88479866D01*
X137824294Y-88705986D01*
X137795000Y-88760791D01*
X137765706Y-88705986D01*
X137580134Y-88479866D01*
X137354014Y-88294294D01*
X137096034Y-88156401D01*
X136816111Y-88071487D01*
X136597950Y-88050000D01*
X136452050Y-88050000D01*
X136233889Y-88071487D01*
X135953966Y-88156401D01*
X135695986Y-88294294D01*
X135469866Y-88479866D01*
X135284294Y-88705986D01*
X135255000Y-88760791D01*
X135225706Y-88705986D01*
X135040134Y-88479866D01*
X134814014Y-88294294D01*
X134556034Y-88156401D01*
X134276111Y-88071487D01*
X134057950Y-88050000D01*
X133912050Y-88050000D01*
X133693889Y-88071487D01*
X133413966Y-88156401D01*
X133155986Y-88294294D01*
X132929866Y-88479866D01*
X132744294Y-88705986D01*
X132715000Y-88760791D01*
X132685706Y-88705986D01*
X132500134Y-88479866D01*
X132274014Y-88294294D01*
X132016034Y-88156401D01*
X131736111Y-88071487D01*
X131517950Y-88050000D01*
X131372050Y-88050000D01*
X131153889Y-88071487D01*
X130873966Y-88156401D01*
X130615986Y-88294294D01*
X130389866Y-88479866D01*
X130204294Y-88705986D01*
X130175000Y-88760791D01*
X130145706Y-88705986D01*
X129960134Y-88479866D01*
X129734014Y-88294294D01*
X129476034Y-88156401D01*
X129196111Y-88071487D01*
X128977950Y-88050000D01*
X128832050Y-88050000D01*
X128613889Y-88071487D01*
X128333966Y-88156401D01*
X128075986Y-88294294D01*
X127849866Y-88479866D01*
X127664294Y-88705986D01*
X127635000Y-88760791D01*
X127605706Y-88705986D01*
X127420134Y-88479866D01*
X127194014Y-88294294D01*
X126936034Y-88156401D01*
X126656111Y-88071487D01*
X126437950Y-88050000D01*
X126292050Y-88050000D01*
X126073889Y-88071487D01*
X125793966Y-88156401D01*
X125535986Y-88294294D01*
X125309866Y-88479866D01*
X125124294Y-88705986D01*
X125095000Y-88760791D01*
X125065706Y-88705986D01*
X124880134Y-88479866D01*
X124654014Y-88294294D01*
X124396034Y-88156401D01*
X124116111Y-88071487D01*
X123897950Y-88050000D01*
X123752050Y-88050000D01*
X123533889Y-88071487D01*
X123253966Y-88156401D01*
X122995986Y-88294294D01*
X122769866Y-88479866D01*
X122584294Y-88705986D01*
X122555000Y-88760791D01*
X122525706Y-88705986D01*
X122340134Y-88479866D01*
X122114014Y-88294294D01*
X121856034Y-88156401D01*
X121576111Y-88071487D01*
X121357950Y-88050000D01*
X121212050Y-88050000D01*
X120993889Y-88071487D01*
X120713966Y-88156401D01*
X120455986Y-88294294D01*
X120229866Y-88479866D01*
X120044294Y-88705986D01*
X120015000Y-88760791D01*
X119985706Y-88705986D01*
X119800134Y-88479866D01*
X119574014Y-88294294D01*
X119316034Y-88156401D01*
X119036111Y-88071487D01*
X118817950Y-88050000D01*
X118672050Y-88050000D01*
X118453889Y-88071487D01*
X118173966Y-88156401D01*
X117915986Y-88294294D01*
X117689866Y-88479866D01*
X117504294Y-88705986D01*
X117475000Y-88760791D01*
X117445706Y-88705986D01*
X117260134Y-88479866D01*
X117034014Y-88294294D01*
X116776034Y-88156401D01*
X116496111Y-88071487D01*
X116277950Y-88050000D01*
X116132050Y-88050000D01*
X115913889Y-88071487D01*
X115633966Y-88156401D01*
X115375986Y-88294294D01*
X115149866Y-88479866D01*
X114964294Y-88705986D01*
X114935000Y-88760791D01*
X114905706Y-88705986D01*
X114720134Y-88479866D01*
X114494014Y-88294294D01*
X114236034Y-88156401D01*
X113956111Y-88071487D01*
X113737950Y-88050000D01*
X113592050Y-88050000D01*
X113373889Y-88071487D01*
X113093966Y-88156401D01*
X112835986Y-88294294D01*
X112609866Y-88479866D01*
X112424294Y-88705986D01*
X112395000Y-88760791D01*
X112365706Y-88705986D01*
X112180134Y-88479866D01*
X111954014Y-88294294D01*
X111696034Y-88156401D01*
X111416111Y-88071487D01*
X111197950Y-88050000D01*
X111052050Y-88050000D01*
X110833889Y-88071487D01*
X110553966Y-88156401D01*
X110295986Y-88294294D01*
X110069866Y-88479866D01*
X109884294Y-88705986D01*
X109855000Y-88760791D01*
X109825706Y-88705986D01*
X109640134Y-88479866D01*
X109414014Y-88294294D01*
X109156034Y-88156401D01*
X108876111Y-88071487D01*
X108657950Y-88050000D01*
X108512050Y-88050000D01*
X108293889Y-88071487D01*
X108013966Y-88156401D01*
X107755986Y-88294294D01*
X107529866Y-88479866D01*
X107344294Y-88705986D01*
X107315000Y-88760791D01*
X107285706Y-88705986D01*
X107100134Y-88479866D01*
X106874014Y-88294294D01*
X106616034Y-88156401D01*
X106336111Y-88071487D01*
X106117950Y-88050000D01*
X105972050Y-88050000D01*
X105753889Y-88071487D01*
X105473966Y-88156401D01*
X105215986Y-88294294D01*
X104989866Y-88479866D01*
X104804294Y-88705986D01*
X104775000Y-88760791D01*
X104745706Y-88705986D01*
X104560134Y-88479866D01*
X104334014Y-88294294D01*
X104076034Y-88156401D01*
X103796111Y-88071487D01*
X103577950Y-88050000D01*
X103432050Y-88050000D01*
X103213889Y-88071487D01*
X102933966Y-88156401D01*
X102675986Y-88294294D01*
X102449866Y-88479866D01*
X102264294Y-88705986D01*
X102235000Y-88760791D01*
X102205706Y-88705986D01*
X102020134Y-88479866D01*
X101794014Y-88294294D01*
X101536034Y-88156401D01*
X101256111Y-88071487D01*
X101037950Y-88050000D01*
X100892050Y-88050000D01*
X100673889Y-88071487D01*
X100393966Y-88156401D01*
X100135986Y-88294294D01*
X99909866Y-88479866D01*
X99724294Y-88705986D01*
X99695000Y-88760791D01*
X99665706Y-88705986D01*
X99480134Y-88479866D01*
X99254014Y-88294294D01*
X98996034Y-88156401D01*
X98716111Y-88071487D01*
X98497950Y-88050000D01*
X98352050Y-88050000D01*
X98133889Y-88071487D01*
X97853966Y-88156401D01*
X97595986Y-88294294D01*
X97369866Y-88479866D01*
X97184294Y-88705986D01*
X97155000Y-88760791D01*
X97125706Y-88705986D01*
X96940134Y-88479866D01*
X96714014Y-88294294D01*
X96456034Y-88156401D01*
X96176111Y-88071487D01*
X95957950Y-88050000D01*
X95812050Y-88050000D01*
X95593889Y-88071487D01*
X95313966Y-88156401D01*
X95055986Y-88294294D01*
X94829866Y-88479866D01*
X94644294Y-88705986D01*
X94555000Y-88873044D01*
X94555000Y-87842000D01*
X149015000Y-87842000D01*
X149015001Y-122565000D01*
G36*
X117762013Y-93267093D02*
G01*
X117636356Y-93215044D01*
X117440067Y-93176000D01*
X117239933Y-93176000D01*
X117043644Y-93215044D01*
X116858744Y-93291632D01*
X116692338Y-93402821D01*
X116550821Y-93544338D01*
X116439632Y-93710744D01*
X116413154Y-93774667D01*
X116411956Y-93768644D01*
X116335368Y-93583744D01*
X116224179Y-93417338D01*
X116082662Y-93275821D01*
X115916256Y-93164632D01*
X115731356Y-93088044D01*
X115535067Y-93049000D01*
X115334933Y-93049000D01*
X115138644Y-93088044D01*
X114953744Y-93164632D01*
X114787338Y-93275821D01*
X114645821Y-93417338D01*
X114534632Y-93583744D01*
X114458044Y-93768644D01*
X114419000Y-93964933D01*
X114419000Y-94165067D01*
X114458044Y-94361356D01*
X114484919Y-94426238D01*
X114474180Y-94420498D01*
X114354482Y-94384188D01*
X114230000Y-94371928D01*
X113815750Y-94375000D01*
X113657000Y-94533750D01*
X113657000Y-95458000D01*
X113677000Y-95458000D01*
X113677000Y-95712000D01*
X113657000Y-95712000D01*
X113657000Y-95732000D01*
X113403000Y-95732000D01*
X113403000Y-95712000D01*
X113383000Y-95712000D01*
X113383000Y-95458000D01*
X113403000Y-95458000D01*
X113403000Y-94533750D01*
X113244250Y-94375000D01*
X112830000Y-94371928D01*
X112705518Y-94384188D01*
X112585820Y-94420498D01*
X112575081Y-94426238D01*
X112601956Y-94361356D01*
X112641000Y-94165067D01*
X112641000Y-94090709D01*
X114470109Y-92261600D01*
X118767505Y-92261600D01*
X117762013Y-93267093D01*
X117762013Y-93267093D01*
G37*
X117762013Y-93267093D02*
X117636356Y-93215044D01*
X117440067Y-93176000D01*
X117239933Y-93176000D01*
X117043644Y-93215044D01*
X116858744Y-93291632D01*
X116692338Y-93402821D01*
X116550821Y-93544338D01*
X116439632Y-93710744D01*
X116413154Y-93774667D01*
X116411956Y-93768644D01*
X116335368Y-93583744D01*
X116224179Y-93417338D01*
X116082662Y-93275821D01*
X115916256Y-93164632D01*
X115731356Y-93088044D01*
X115535067Y-93049000D01*
X115334933Y-93049000D01*
X115138644Y-93088044D01*
X114953744Y-93164632D01*
X114787338Y-93275821D01*
X114645821Y-93417338D01*
X114534632Y-93583744D01*
X114458044Y-93768644D01*
X114419000Y-93964933D01*
X114419000Y-94165067D01*
X114458044Y-94361356D01*
X114484919Y-94426238D01*
X114474180Y-94420498D01*
X114354482Y-94384188D01*
X114230000Y-94371928D01*
X113815750Y-94375000D01*
X113657000Y-94533750D01*
X113657000Y-95458000D01*
X113677000Y-95458000D01*
X113677000Y-95712000D01*
X113657000Y-95712000D01*
X113657000Y-95732000D01*
X113403000Y-95732000D01*
X113403000Y-95712000D01*
X113383000Y-95712000D01*
X113383000Y-95458000D01*
X113403000Y-95458000D01*
X113403000Y-94533750D01*
X113244250Y-94375000D01*
X112830000Y-94371928D01*
X112705518Y-94384188D01*
X112585820Y-94420498D01*
X112575081Y-94426238D01*
X112601956Y-94361356D01*
X112641000Y-94165067D01*
X112641000Y-94090709D01*
X114470109Y-92261600D01*
X118767505Y-92261600D01*
X117762013Y-93267093D01*
M02*
