G04 #@! TF.GenerationSoftware,KiCad,Pcbnew,(5.1.4-0)*
G04 #@! TF.CreationDate,2019-10-27T21:21:17-04:00*
G04 #@! TF.ProjectId,DifferentialSPIMaster,44696666-6572-4656-9e74-69616c535049,rev?*
G04 #@! TF.SameCoordinates,Original*
G04 #@! TF.FileFunction,Copper,L2,Bot*
G04 #@! TF.FilePolarity,Positive*
%FSLAX46Y46*%
G04 Gerber Fmt 4.6, Leading zero omitted, Abs format (unit mm)*
G04 Created by KiCad (PCBNEW (5.1.4-0)) date 2019-10-27 21:21:17*
%MOMM*%
%LPD*%
G04 APERTURE LIST*
%ADD10C,0.100000*%
%ADD11C,0.500000*%
%ADD12C,1.150000*%
%ADD13C,2.000000*%
%ADD14C,1.500000*%
%ADD15R,1.500000X1.500000*%
%ADD16R,1.700000X1.700000*%
%ADD17O,1.700000X1.700000*%
%ADD18C,0.762000*%
%ADD19C,0.203200*%
%ADD20C,0.406400*%
%ADD21C,0.254000*%
G04 APERTURE END LIST*
D10*
G36*
X141720000Y-106630000D02*
G01*
X141720000Y-105630000D01*
X141220000Y-105630000D01*
X141220000Y-106630000D01*
X141720000Y-106630000D01*
G37*
D11*
X141470000Y-106630000D03*
X141470000Y-105630000D03*
D10*
G36*
X126734505Y-109001204D02*
G01*
X126758773Y-109004804D01*
X126782572Y-109010765D01*
X126805671Y-109019030D01*
X126827850Y-109029520D01*
X126848893Y-109042132D01*
X126868599Y-109056747D01*
X126886777Y-109073223D01*
X126903253Y-109091401D01*
X126917868Y-109111107D01*
X126930480Y-109132150D01*
X126940970Y-109154329D01*
X126949235Y-109177428D01*
X126955196Y-109201227D01*
X126958796Y-109225495D01*
X126960000Y-109249999D01*
X126960000Y-110150001D01*
X126958796Y-110174505D01*
X126955196Y-110198773D01*
X126949235Y-110222572D01*
X126940970Y-110245671D01*
X126930480Y-110267850D01*
X126917868Y-110288893D01*
X126903253Y-110308599D01*
X126886777Y-110326777D01*
X126868599Y-110343253D01*
X126848893Y-110357868D01*
X126827850Y-110370480D01*
X126805671Y-110380970D01*
X126782572Y-110389235D01*
X126758773Y-110395196D01*
X126734505Y-110398796D01*
X126710001Y-110400000D01*
X126059999Y-110400000D01*
X126035495Y-110398796D01*
X126011227Y-110395196D01*
X125987428Y-110389235D01*
X125964329Y-110380970D01*
X125942150Y-110370480D01*
X125921107Y-110357868D01*
X125901401Y-110343253D01*
X125883223Y-110326777D01*
X125866747Y-110308599D01*
X125852132Y-110288893D01*
X125839520Y-110267850D01*
X125829030Y-110245671D01*
X125820765Y-110222572D01*
X125814804Y-110198773D01*
X125811204Y-110174505D01*
X125810000Y-110150001D01*
X125810000Y-109249999D01*
X125811204Y-109225495D01*
X125814804Y-109201227D01*
X125820765Y-109177428D01*
X125829030Y-109154329D01*
X125839520Y-109132150D01*
X125852132Y-109111107D01*
X125866747Y-109091401D01*
X125883223Y-109073223D01*
X125901401Y-109056747D01*
X125921107Y-109042132D01*
X125942150Y-109029520D01*
X125964329Y-109019030D01*
X125987428Y-109010765D01*
X126011227Y-109004804D01*
X126035495Y-109001204D01*
X126059999Y-109000000D01*
X126710001Y-109000000D01*
X126734505Y-109001204D01*
X126734505Y-109001204D01*
G37*
D12*
X126385000Y-109700000D03*
D10*
G36*
X128784505Y-109001204D02*
G01*
X128808773Y-109004804D01*
X128832572Y-109010765D01*
X128855671Y-109019030D01*
X128877850Y-109029520D01*
X128898893Y-109042132D01*
X128918599Y-109056747D01*
X128936777Y-109073223D01*
X128953253Y-109091401D01*
X128967868Y-109111107D01*
X128980480Y-109132150D01*
X128990970Y-109154329D01*
X128999235Y-109177428D01*
X129005196Y-109201227D01*
X129008796Y-109225495D01*
X129010000Y-109249999D01*
X129010000Y-110150001D01*
X129008796Y-110174505D01*
X129005196Y-110198773D01*
X128999235Y-110222572D01*
X128990970Y-110245671D01*
X128980480Y-110267850D01*
X128967868Y-110288893D01*
X128953253Y-110308599D01*
X128936777Y-110326777D01*
X128918599Y-110343253D01*
X128898893Y-110357868D01*
X128877850Y-110370480D01*
X128855671Y-110380970D01*
X128832572Y-110389235D01*
X128808773Y-110395196D01*
X128784505Y-110398796D01*
X128760001Y-110400000D01*
X128109999Y-110400000D01*
X128085495Y-110398796D01*
X128061227Y-110395196D01*
X128037428Y-110389235D01*
X128014329Y-110380970D01*
X127992150Y-110370480D01*
X127971107Y-110357868D01*
X127951401Y-110343253D01*
X127933223Y-110326777D01*
X127916747Y-110308599D01*
X127902132Y-110288893D01*
X127889520Y-110267850D01*
X127879030Y-110245671D01*
X127870765Y-110222572D01*
X127864804Y-110198773D01*
X127861204Y-110174505D01*
X127860000Y-110150001D01*
X127860000Y-109249999D01*
X127861204Y-109225495D01*
X127864804Y-109201227D01*
X127870765Y-109177428D01*
X127879030Y-109154329D01*
X127889520Y-109132150D01*
X127902132Y-109111107D01*
X127916747Y-109091401D01*
X127933223Y-109073223D01*
X127951401Y-109056747D01*
X127971107Y-109042132D01*
X127992150Y-109029520D01*
X128014329Y-109019030D01*
X128037428Y-109010765D01*
X128061227Y-109004804D01*
X128085495Y-109001204D01*
X128109999Y-109000000D01*
X128760001Y-109000000D01*
X128784505Y-109001204D01*
X128784505Y-109001204D01*
G37*
D12*
X128435000Y-109700000D03*
D10*
G36*
X135504505Y-107711204D02*
G01*
X135528773Y-107714804D01*
X135552572Y-107720765D01*
X135575671Y-107729030D01*
X135597850Y-107739520D01*
X135618893Y-107752132D01*
X135638599Y-107766747D01*
X135656777Y-107783223D01*
X135673253Y-107801401D01*
X135687868Y-107821107D01*
X135700480Y-107842150D01*
X135710970Y-107864329D01*
X135719235Y-107887428D01*
X135725196Y-107911227D01*
X135728796Y-107935495D01*
X135730000Y-107959999D01*
X135730000Y-108610001D01*
X135728796Y-108634505D01*
X135725196Y-108658773D01*
X135719235Y-108682572D01*
X135710970Y-108705671D01*
X135700480Y-108727850D01*
X135687868Y-108748893D01*
X135673253Y-108768599D01*
X135656777Y-108786777D01*
X135638599Y-108803253D01*
X135618893Y-108817868D01*
X135597850Y-108830480D01*
X135575671Y-108840970D01*
X135552572Y-108849235D01*
X135528773Y-108855196D01*
X135504505Y-108858796D01*
X135480001Y-108860000D01*
X134579999Y-108860000D01*
X134555495Y-108858796D01*
X134531227Y-108855196D01*
X134507428Y-108849235D01*
X134484329Y-108840970D01*
X134462150Y-108830480D01*
X134441107Y-108817868D01*
X134421401Y-108803253D01*
X134403223Y-108786777D01*
X134386747Y-108768599D01*
X134372132Y-108748893D01*
X134359520Y-108727850D01*
X134349030Y-108705671D01*
X134340765Y-108682572D01*
X134334804Y-108658773D01*
X134331204Y-108634505D01*
X134330000Y-108610001D01*
X134330000Y-107959999D01*
X134331204Y-107935495D01*
X134334804Y-107911227D01*
X134340765Y-107887428D01*
X134349030Y-107864329D01*
X134359520Y-107842150D01*
X134372132Y-107821107D01*
X134386747Y-107801401D01*
X134403223Y-107783223D01*
X134421401Y-107766747D01*
X134441107Y-107752132D01*
X134462150Y-107739520D01*
X134484329Y-107729030D01*
X134507428Y-107720765D01*
X134531227Y-107714804D01*
X134555495Y-107711204D01*
X134579999Y-107710000D01*
X135480001Y-107710000D01*
X135504505Y-107711204D01*
X135504505Y-107711204D01*
G37*
D12*
X135030000Y-108285000D03*
D10*
G36*
X135504505Y-109761204D02*
G01*
X135528773Y-109764804D01*
X135552572Y-109770765D01*
X135575671Y-109779030D01*
X135597850Y-109789520D01*
X135618893Y-109802132D01*
X135638599Y-109816747D01*
X135656777Y-109833223D01*
X135673253Y-109851401D01*
X135687868Y-109871107D01*
X135700480Y-109892150D01*
X135710970Y-109914329D01*
X135719235Y-109937428D01*
X135725196Y-109961227D01*
X135728796Y-109985495D01*
X135730000Y-110009999D01*
X135730000Y-110660001D01*
X135728796Y-110684505D01*
X135725196Y-110708773D01*
X135719235Y-110732572D01*
X135710970Y-110755671D01*
X135700480Y-110777850D01*
X135687868Y-110798893D01*
X135673253Y-110818599D01*
X135656777Y-110836777D01*
X135638599Y-110853253D01*
X135618893Y-110867868D01*
X135597850Y-110880480D01*
X135575671Y-110890970D01*
X135552572Y-110899235D01*
X135528773Y-110905196D01*
X135504505Y-110908796D01*
X135480001Y-110910000D01*
X134579999Y-110910000D01*
X134555495Y-110908796D01*
X134531227Y-110905196D01*
X134507428Y-110899235D01*
X134484329Y-110890970D01*
X134462150Y-110880480D01*
X134441107Y-110867868D01*
X134421401Y-110853253D01*
X134403223Y-110836777D01*
X134386747Y-110818599D01*
X134372132Y-110798893D01*
X134359520Y-110777850D01*
X134349030Y-110755671D01*
X134340765Y-110732572D01*
X134334804Y-110708773D01*
X134331204Y-110684505D01*
X134330000Y-110660001D01*
X134330000Y-110009999D01*
X134331204Y-109985495D01*
X134334804Y-109961227D01*
X134340765Y-109937428D01*
X134349030Y-109914329D01*
X134359520Y-109892150D01*
X134372132Y-109871107D01*
X134386747Y-109851401D01*
X134403223Y-109833223D01*
X134421401Y-109816747D01*
X134441107Y-109802132D01*
X134462150Y-109789520D01*
X134484329Y-109779030D01*
X134507428Y-109770765D01*
X134531227Y-109764804D01*
X134555495Y-109761204D01*
X134579999Y-109760000D01*
X135480001Y-109760000D01*
X135504505Y-109761204D01*
X135504505Y-109761204D01*
G37*
D12*
X135030000Y-110335000D03*
D10*
G36*
X131059505Y-107711204D02*
G01*
X131083773Y-107714804D01*
X131107572Y-107720765D01*
X131130671Y-107729030D01*
X131152850Y-107739520D01*
X131173893Y-107752132D01*
X131193599Y-107766747D01*
X131211777Y-107783223D01*
X131228253Y-107801401D01*
X131242868Y-107821107D01*
X131255480Y-107842150D01*
X131265970Y-107864329D01*
X131274235Y-107887428D01*
X131280196Y-107911227D01*
X131283796Y-107935495D01*
X131285000Y-107959999D01*
X131285000Y-108610001D01*
X131283796Y-108634505D01*
X131280196Y-108658773D01*
X131274235Y-108682572D01*
X131265970Y-108705671D01*
X131255480Y-108727850D01*
X131242868Y-108748893D01*
X131228253Y-108768599D01*
X131211777Y-108786777D01*
X131193599Y-108803253D01*
X131173893Y-108817868D01*
X131152850Y-108830480D01*
X131130671Y-108840970D01*
X131107572Y-108849235D01*
X131083773Y-108855196D01*
X131059505Y-108858796D01*
X131035001Y-108860000D01*
X130134999Y-108860000D01*
X130110495Y-108858796D01*
X130086227Y-108855196D01*
X130062428Y-108849235D01*
X130039329Y-108840970D01*
X130017150Y-108830480D01*
X129996107Y-108817868D01*
X129976401Y-108803253D01*
X129958223Y-108786777D01*
X129941747Y-108768599D01*
X129927132Y-108748893D01*
X129914520Y-108727850D01*
X129904030Y-108705671D01*
X129895765Y-108682572D01*
X129889804Y-108658773D01*
X129886204Y-108634505D01*
X129885000Y-108610001D01*
X129885000Y-107959999D01*
X129886204Y-107935495D01*
X129889804Y-107911227D01*
X129895765Y-107887428D01*
X129904030Y-107864329D01*
X129914520Y-107842150D01*
X129927132Y-107821107D01*
X129941747Y-107801401D01*
X129958223Y-107783223D01*
X129976401Y-107766747D01*
X129996107Y-107752132D01*
X130017150Y-107739520D01*
X130039329Y-107729030D01*
X130062428Y-107720765D01*
X130086227Y-107714804D01*
X130110495Y-107711204D01*
X130134999Y-107710000D01*
X131035001Y-107710000D01*
X131059505Y-107711204D01*
X131059505Y-107711204D01*
G37*
D12*
X130585000Y-108285000D03*
D10*
G36*
X131059505Y-109761204D02*
G01*
X131083773Y-109764804D01*
X131107572Y-109770765D01*
X131130671Y-109779030D01*
X131152850Y-109789520D01*
X131173893Y-109802132D01*
X131193599Y-109816747D01*
X131211777Y-109833223D01*
X131228253Y-109851401D01*
X131242868Y-109871107D01*
X131255480Y-109892150D01*
X131265970Y-109914329D01*
X131274235Y-109937428D01*
X131280196Y-109961227D01*
X131283796Y-109985495D01*
X131285000Y-110009999D01*
X131285000Y-110660001D01*
X131283796Y-110684505D01*
X131280196Y-110708773D01*
X131274235Y-110732572D01*
X131265970Y-110755671D01*
X131255480Y-110777850D01*
X131242868Y-110798893D01*
X131228253Y-110818599D01*
X131211777Y-110836777D01*
X131193599Y-110853253D01*
X131173893Y-110867868D01*
X131152850Y-110880480D01*
X131130671Y-110890970D01*
X131107572Y-110899235D01*
X131083773Y-110905196D01*
X131059505Y-110908796D01*
X131035001Y-110910000D01*
X130134999Y-110910000D01*
X130110495Y-110908796D01*
X130086227Y-110905196D01*
X130062428Y-110899235D01*
X130039329Y-110890970D01*
X130017150Y-110880480D01*
X129996107Y-110867868D01*
X129976401Y-110853253D01*
X129958223Y-110836777D01*
X129941747Y-110818599D01*
X129927132Y-110798893D01*
X129914520Y-110777850D01*
X129904030Y-110755671D01*
X129895765Y-110732572D01*
X129889804Y-110708773D01*
X129886204Y-110684505D01*
X129885000Y-110660001D01*
X129885000Y-110009999D01*
X129886204Y-109985495D01*
X129889804Y-109961227D01*
X129895765Y-109937428D01*
X129904030Y-109914329D01*
X129914520Y-109892150D01*
X129927132Y-109871107D01*
X129941747Y-109851401D01*
X129958223Y-109833223D01*
X129976401Y-109816747D01*
X129996107Y-109802132D01*
X130017150Y-109789520D01*
X130039329Y-109779030D01*
X130062428Y-109770765D01*
X130086227Y-109764804D01*
X130110495Y-109761204D01*
X130134999Y-109760000D01*
X131035001Y-109760000D01*
X131059505Y-109761204D01*
X131059505Y-109761204D01*
G37*
D12*
X130585000Y-110335000D03*
D10*
G36*
X124074505Y-109761204D02*
G01*
X124098773Y-109764804D01*
X124122572Y-109770765D01*
X124145671Y-109779030D01*
X124167850Y-109789520D01*
X124188893Y-109802132D01*
X124208599Y-109816747D01*
X124226777Y-109833223D01*
X124243253Y-109851401D01*
X124257868Y-109871107D01*
X124270480Y-109892150D01*
X124280970Y-109914329D01*
X124289235Y-109937428D01*
X124295196Y-109961227D01*
X124298796Y-109985495D01*
X124300000Y-110009999D01*
X124300000Y-110660001D01*
X124298796Y-110684505D01*
X124295196Y-110708773D01*
X124289235Y-110732572D01*
X124280970Y-110755671D01*
X124270480Y-110777850D01*
X124257868Y-110798893D01*
X124243253Y-110818599D01*
X124226777Y-110836777D01*
X124208599Y-110853253D01*
X124188893Y-110867868D01*
X124167850Y-110880480D01*
X124145671Y-110890970D01*
X124122572Y-110899235D01*
X124098773Y-110905196D01*
X124074505Y-110908796D01*
X124050001Y-110910000D01*
X123149999Y-110910000D01*
X123125495Y-110908796D01*
X123101227Y-110905196D01*
X123077428Y-110899235D01*
X123054329Y-110890970D01*
X123032150Y-110880480D01*
X123011107Y-110867868D01*
X122991401Y-110853253D01*
X122973223Y-110836777D01*
X122956747Y-110818599D01*
X122942132Y-110798893D01*
X122929520Y-110777850D01*
X122919030Y-110755671D01*
X122910765Y-110732572D01*
X122904804Y-110708773D01*
X122901204Y-110684505D01*
X122900000Y-110660001D01*
X122900000Y-110009999D01*
X122901204Y-109985495D01*
X122904804Y-109961227D01*
X122910765Y-109937428D01*
X122919030Y-109914329D01*
X122929520Y-109892150D01*
X122942132Y-109871107D01*
X122956747Y-109851401D01*
X122973223Y-109833223D01*
X122991401Y-109816747D01*
X123011107Y-109802132D01*
X123032150Y-109789520D01*
X123054329Y-109779030D01*
X123077428Y-109770765D01*
X123101227Y-109764804D01*
X123125495Y-109761204D01*
X123149999Y-109760000D01*
X124050001Y-109760000D01*
X124074505Y-109761204D01*
X124074505Y-109761204D01*
G37*
D12*
X123600000Y-110335000D03*
D10*
G36*
X124074505Y-107711204D02*
G01*
X124098773Y-107714804D01*
X124122572Y-107720765D01*
X124145671Y-107729030D01*
X124167850Y-107739520D01*
X124188893Y-107752132D01*
X124208599Y-107766747D01*
X124226777Y-107783223D01*
X124243253Y-107801401D01*
X124257868Y-107821107D01*
X124270480Y-107842150D01*
X124280970Y-107864329D01*
X124289235Y-107887428D01*
X124295196Y-107911227D01*
X124298796Y-107935495D01*
X124300000Y-107959999D01*
X124300000Y-108610001D01*
X124298796Y-108634505D01*
X124295196Y-108658773D01*
X124289235Y-108682572D01*
X124280970Y-108705671D01*
X124270480Y-108727850D01*
X124257868Y-108748893D01*
X124243253Y-108768599D01*
X124226777Y-108786777D01*
X124208599Y-108803253D01*
X124188893Y-108817868D01*
X124167850Y-108830480D01*
X124145671Y-108840970D01*
X124122572Y-108849235D01*
X124098773Y-108855196D01*
X124074505Y-108858796D01*
X124050001Y-108860000D01*
X123149999Y-108860000D01*
X123125495Y-108858796D01*
X123101227Y-108855196D01*
X123077428Y-108849235D01*
X123054329Y-108840970D01*
X123032150Y-108830480D01*
X123011107Y-108817868D01*
X122991401Y-108803253D01*
X122973223Y-108786777D01*
X122956747Y-108768599D01*
X122942132Y-108748893D01*
X122929520Y-108727850D01*
X122919030Y-108705671D01*
X122910765Y-108682572D01*
X122904804Y-108658773D01*
X122901204Y-108634505D01*
X122900000Y-108610001D01*
X122900000Y-107959999D01*
X122901204Y-107935495D01*
X122904804Y-107911227D01*
X122910765Y-107887428D01*
X122919030Y-107864329D01*
X122929520Y-107842150D01*
X122942132Y-107821107D01*
X122956747Y-107801401D01*
X122973223Y-107783223D01*
X122991401Y-107766747D01*
X123011107Y-107752132D01*
X123032150Y-107739520D01*
X123054329Y-107729030D01*
X123077428Y-107720765D01*
X123101227Y-107714804D01*
X123125495Y-107711204D01*
X123149999Y-107710000D01*
X124050001Y-107710000D01*
X124074505Y-107711204D01*
X124074505Y-107711204D01*
G37*
D12*
X123600000Y-108285000D03*
D10*
G36*
X111374505Y-107711204D02*
G01*
X111398773Y-107714804D01*
X111422572Y-107720765D01*
X111445671Y-107729030D01*
X111467850Y-107739520D01*
X111488893Y-107752132D01*
X111508599Y-107766747D01*
X111526777Y-107783223D01*
X111543253Y-107801401D01*
X111557868Y-107821107D01*
X111570480Y-107842150D01*
X111580970Y-107864329D01*
X111589235Y-107887428D01*
X111595196Y-107911227D01*
X111598796Y-107935495D01*
X111600000Y-107959999D01*
X111600000Y-108610001D01*
X111598796Y-108634505D01*
X111595196Y-108658773D01*
X111589235Y-108682572D01*
X111580970Y-108705671D01*
X111570480Y-108727850D01*
X111557868Y-108748893D01*
X111543253Y-108768599D01*
X111526777Y-108786777D01*
X111508599Y-108803253D01*
X111488893Y-108817868D01*
X111467850Y-108830480D01*
X111445671Y-108840970D01*
X111422572Y-108849235D01*
X111398773Y-108855196D01*
X111374505Y-108858796D01*
X111350001Y-108860000D01*
X110449999Y-108860000D01*
X110425495Y-108858796D01*
X110401227Y-108855196D01*
X110377428Y-108849235D01*
X110354329Y-108840970D01*
X110332150Y-108830480D01*
X110311107Y-108817868D01*
X110291401Y-108803253D01*
X110273223Y-108786777D01*
X110256747Y-108768599D01*
X110242132Y-108748893D01*
X110229520Y-108727850D01*
X110219030Y-108705671D01*
X110210765Y-108682572D01*
X110204804Y-108658773D01*
X110201204Y-108634505D01*
X110200000Y-108610001D01*
X110200000Y-107959999D01*
X110201204Y-107935495D01*
X110204804Y-107911227D01*
X110210765Y-107887428D01*
X110219030Y-107864329D01*
X110229520Y-107842150D01*
X110242132Y-107821107D01*
X110256747Y-107801401D01*
X110273223Y-107783223D01*
X110291401Y-107766747D01*
X110311107Y-107752132D01*
X110332150Y-107739520D01*
X110354329Y-107729030D01*
X110377428Y-107720765D01*
X110401227Y-107714804D01*
X110425495Y-107711204D01*
X110449999Y-107710000D01*
X111350001Y-107710000D01*
X111374505Y-107711204D01*
X111374505Y-107711204D01*
G37*
D12*
X110900000Y-108285000D03*
D10*
G36*
X111374505Y-109761204D02*
G01*
X111398773Y-109764804D01*
X111422572Y-109770765D01*
X111445671Y-109779030D01*
X111467850Y-109789520D01*
X111488893Y-109802132D01*
X111508599Y-109816747D01*
X111526777Y-109833223D01*
X111543253Y-109851401D01*
X111557868Y-109871107D01*
X111570480Y-109892150D01*
X111580970Y-109914329D01*
X111589235Y-109937428D01*
X111595196Y-109961227D01*
X111598796Y-109985495D01*
X111600000Y-110009999D01*
X111600000Y-110660001D01*
X111598796Y-110684505D01*
X111595196Y-110708773D01*
X111589235Y-110732572D01*
X111580970Y-110755671D01*
X111570480Y-110777850D01*
X111557868Y-110798893D01*
X111543253Y-110818599D01*
X111526777Y-110836777D01*
X111508599Y-110853253D01*
X111488893Y-110867868D01*
X111467850Y-110880480D01*
X111445671Y-110890970D01*
X111422572Y-110899235D01*
X111398773Y-110905196D01*
X111374505Y-110908796D01*
X111350001Y-110910000D01*
X110449999Y-110910000D01*
X110425495Y-110908796D01*
X110401227Y-110905196D01*
X110377428Y-110899235D01*
X110354329Y-110890970D01*
X110332150Y-110880480D01*
X110311107Y-110867868D01*
X110291401Y-110853253D01*
X110273223Y-110836777D01*
X110256747Y-110818599D01*
X110242132Y-110798893D01*
X110229520Y-110777850D01*
X110219030Y-110755671D01*
X110210765Y-110732572D01*
X110204804Y-110708773D01*
X110201204Y-110684505D01*
X110200000Y-110660001D01*
X110200000Y-110009999D01*
X110201204Y-109985495D01*
X110204804Y-109961227D01*
X110210765Y-109937428D01*
X110219030Y-109914329D01*
X110229520Y-109892150D01*
X110242132Y-109871107D01*
X110256747Y-109851401D01*
X110273223Y-109833223D01*
X110291401Y-109816747D01*
X110311107Y-109802132D01*
X110332150Y-109789520D01*
X110354329Y-109779030D01*
X110377428Y-109770765D01*
X110401227Y-109764804D01*
X110425495Y-109761204D01*
X110449999Y-109760000D01*
X111350001Y-109760000D01*
X111374505Y-109761204D01*
X111374505Y-109761204D01*
G37*
D12*
X110900000Y-110335000D03*
D10*
G36*
X115819505Y-109761204D02*
G01*
X115843773Y-109764804D01*
X115867572Y-109770765D01*
X115890671Y-109779030D01*
X115912850Y-109789520D01*
X115933893Y-109802132D01*
X115953599Y-109816747D01*
X115971777Y-109833223D01*
X115988253Y-109851401D01*
X116002868Y-109871107D01*
X116015480Y-109892150D01*
X116025970Y-109914329D01*
X116034235Y-109937428D01*
X116040196Y-109961227D01*
X116043796Y-109985495D01*
X116045000Y-110009999D01*
X116045000Y-110660001D01*
X116043796Y-110684505D01*
X116040196Y-110708773D01*
X116034235Y-110732572D01*
X116025970Y-110755671D01*
X116015480Y-110777850D01*
X116002868Y-110798893D01*
X115988253Y-110818599D01*
X115971777Y-110836777D01*
X115953599Y-110853253D01*
X115933893Y-110867868D01*
X115912850Y-110880480D01*
X115890671Y-110890970D01*
X115867572Y-110899235D01*
X115843773Y-110905196D01*
X115819505Y-110908796D01*
X115795001Y-110910000D01*
X114894999Y-110910000D01*
X114870495Y-110908796D01*
X114846227Y-110905196D01*
X114822428Y-110899235D01*
X114799329Y-110890970D01*
X114777150Y-110880480D01*
X114756107Y-110867868D01*
X114736401Y-110853253D01*
X114718223Y-110836777D01*
X114701747Y-110818599D01*
X114687132Y-110798893D01*
X114674520Y-110777850D01*
X114664030Y-110755671D01*
X114655765Y-110732572D01*
X114649804Y-110708773D01*
X114646204Y-110684505D01*
X114645000Y-110660001D01*
X114645000Y-110009999D01*
X114646204Y-109985495D01*
X114649804Y-109961227D01*
X114655765Y-109937428D01*
X114664030Y-109914329D01*
X114674520Y-109892150D01*
X114687132Y-109871107D01*
X114701747Y-109851401D01*
X114718223Y-109833223D01*
X114736401Y-109816747D01*
X114756107Y-109802132D01*
X114777150Y-109789520D01*
X114799329Y-109779030D01*
X114822428Y-109770765D01*
X114846227Y-109764804D01*
X114870495Y-109761204D01*
X114894999Y-109760000D01*
X115795001Y-109760000D01*
X115819505Y-109761204D01*
X115819505Y-109761204D01*
G37*
D12*
X115345000Y-110335000D03*
D10*
G36*
X115819505Y-107711204D02*
G01*
X115843773Y-107714804D01*
X115867572Y-107720765D01*
X115890671Y-107729030D01*
X115912850Y-107739520D01*
X115933893Y-107752132D01*
X115953599Y-107766747D01*
X115971777Y-107783223D01*
X115988253Y-107801401D01*
X116002868Y-107821107D01*
X116015480Y-107842150D01*
X116025970Y-107864329D01*
X116034235Y-107887428D01*
X116040196Y-107911227D01*
X116043796Y-107935495D01*
X116045000Y-107959999D01*
X116045000Y-108610001D01*
X116043796Y-108634505D01*
X116040196Y-108658773D01*
X116034235Y-108682572D01*
X116025970Y-108705671D01*
X116015480Y-108727850D01*
X116002868Y-108748893D01*
X115988253Y-108768599D01*
X115971777Y-108786777D01*
X115953599Y-108803253D01*
X115933893Y-108817868D01*
X115912850Y-108830480D01*
X115890671Y-108840970D01*
X115867572Y-108849235D01*
X115843773Y-108855196D01*
X115819505Y-108858796D01*
X115795001Y-108860000D01*
X114894999Y-108860000D01*
X114870495Y-108858796D01*
X114846227Y-108855196D01*
X114822428Y-108849235D01*
X114799329Y-108840970D01*
X114777150Y-108830480D01*
X114756107Y-108817868D01*
X114736401Y-108803253D01*
X114718223Y-108786777D01*
X114701747Y-108768599D01*
X114687132Y-108748893D01*
X114674520Y-108727850D01*
X114664030Y-108705671D01*
X114655765Y-108682572D01*
X114649804Y-108658773D01*
X114646204Y-108634505D01*
X114645000Y-108610001D01*
X114645000Y-107959999D01*
X114646204Y-107935495D01*
X114649804Y-107911227D01*
X114655765Y-107887428D01*
X114664030Y-107864329D01*
X114674520Y-107842150D01*
X114687132Y-107821107D01*
X114701747Y-107801401D01*
X114718223Y-107783223D01*
X114736401Y-107766747D01*
X114756107Y-107752132D01*
X114777150Y-107739520D01*
X114799329Y-107729030D01*
X114822428Y-107720765D01*
X114846227Y-107714804D01*
X114870495Y-107711204D01*
X114894999Y-107710000D01*
X115795001Y-107710000D01*
X115819505Y-107711204D01*
X115819505Y-107711204D01*
G37*
D12*
X115345000Y-108285000D03*
D13*
X135409000Y-114398000D03*
X119149000Y-114398000D03*
D14*
X123699000Y-113508000D03*
X125739000Y-113508000D03*
X127779000Y-113508000D03*
X129819000Y-113508000D03*
X124719000Y-115288000D03*
X126759000Y-115288000D03*
X128799000Y-115288000D03*
D15*
X130839000Y-115288000D03*
D10*
G36*
X104389505Y-109761204D02*
G01*
X104413773Y-109764804D01*
X104437572Y-109770765D01*
X104460671Y-109779030D01*
X104482850Y-109789520D01*
X104503893Y-109802132D01*
X104523599Y-109816747D01*
X104541777Y-109833223D01*
X104558253Y-109851401D01*
X104572868Y-109871107D01*
X104585480Y-109892150D01*
X104595970Y-109914329D01*
X104604235Y-109937428D01*
X104610196Y-109961227D01*
X104613796Y-109985495D01*
X104615000Y-110009999D01*
X104615000Y-110660001D01*
X104613796Y-110684505D01*
X104610196Y-110708773D01*
X104604235Y-110732572D01*
X104595970Y-110755671D01*
X104585480Y-110777850D01*
X104572868Y-110798893D01*
X104558253Y-110818599D01*
X104541777Y-110836777D01*
X104523599Y-110853253D01*
X104503893Y-110867868D01*
X104482850Y-110880480D01*
X104460671Y-110890970D01*
X104437572Y-110899235D01*
X104413773Y-110905196D01*
X104389505Y-110908796D01*
X104365001Y-110910000D01*
X103464999Y-110910000D01*
X103440495Y-110908796D01*
X103416227Y-110905196D01*
X103392428Y-110899235D01*
X103369329Y-110890970D01*
X103347150Y-110880480D01*
X103326107Y-110867868D01*
X103306401Y-110853253D01*
X103288223Y-110836777D01*
X103271747Y-110818599D01*
X103257132Y-110798893D01*
X103244520Y-110777850D01*
X103234030Y-110755671D01*
X103225765Y-110732572D01*
X103219804Y-110708773D01*
X103216204Y-110684505D01*
X103215000Y-110660001D01*
X103215000Y-110009999D01*
X103216204Y-109985495D01*
X103219804Y-109961227D01*
X103225765Y-109937428D01*
X103234030Y-109914329D01*
X103244520Y-109892150D01*
X103257132Y-109871107D01*
X103271747Y-109851401D01*
X103288223Y-109833223D01*
X103306401Y-109816747D01*
X103326107Y-109802132D01*
X103347150Y-109789520D01*
X103369329Y-109779030D01*
X103392428Y-109770765D01*
X103416227Y-109764804D01*
X103440495Y-109761204D01*
X103464999Y-109760000D01*
X104365001Y-109760000D01*
X104389505Y-109761204D01*
X104389505Y-109761204D01*
G37*
D12*
X103915000Y-110335000D03*
D10*
G36*
X104389505Y-107711204D02*
G01*
X104413773Y-107714804D01*
X104437572Y-107720765D01*
X104460671Y-107729030D01*
X104482850Y-107739520D01*
X104503893Y-107752132D01*
X104523599Y-107766747D01*
X104541777Y-107783223D01*
X104558253Y-107801401D01*
X104572868Y-107821107D01*
X104585480Y-107842150D01*
X104595970Y-107864329D01*
X104604235Y-107887428D01*
X104610196Y-107911227D01*
X104613796Y-107935495D01*
X104615000Y-107959999D01*
X104615000Y-108610001D01*
X104613796Y-108634505D01*
X104610196Y-108658773D01*
X104604235Y-108682572D01*
X104595970Y-108705671D01*
X104585480Y-108727850D01*
X104572868Y-108748893D01*
X104558253Y-108768599D01*
X104541777Y-108786777D01*
X104523599Y-108803253D01*
X104503893Y-108817868D01*
X104482850Y-108830480D01*
X104460671Y-108840970D01*
X104437572Y-108849235D01*
X104413773Y-108855196D01*
X104389505Y-108858796D01*
X104365001Y-108860000D01*
X103464999Y-108860000D01*
X103440495Y-108858796D01*
X103416227Y-108855196D01*
X103392428Y-108849235D01*
X103369329Y-108840970D01*
X103347150Y-108830480D01*
X103326107Y-108817868D01*
X103306401Y-108803253D01*
X103288223Y-108786777D01*
X103271747Y-108768599D01*
X103257132Y-108748893D01*
X103244520Y-108727850D01*
X103234030Y-108705671D01*
X103225765Y-108682572D01*
X103219804Y-108658773D01*
X103216204Y-108634505D01*
X103215000Y-108610001D01*
X103215000Y-107959999D01*
X103216204Y-107935495D01*
X103219804Y-107911227D01*
X103225765Y-107887428D01*
X103234030Y-107864329D01*
X103244520Y-107842150D01*
X103257132Y-107821107D01*
X103271747Y-107801401D01*
X103288223Y-107783223D01*
X103306401Y-107766747D01*
X103326107Y-107752132D01*
X103347150Y-107739520D01*
X103369329Y-107729030D01*
X103392428Y-107720765D01*
X103416227Y-107714804D01*
X103440495Y-107711204D01*
X103464999Y-107710000D01*
X104365001Y-107710000D01*
X104389505Y-107711204D01*
X104389505Y-107711204D01*
G37*
D12*
X103915000Y-108285000D03*
D13*
X115597000Y-114398000D03*
X99337000Y-114398000D03*
D14*
X103887000Y-113508000D03*
X105927000Y-113508000D03*
X107967000Y-113508000D03*
X110007000Y-113508000D03*
X104907000Y-115288000D03*
X106947000Y-115288000D03*
X108987000Y-115288000D03*
D15*
X111027000Y-115288000D03*
D16*
X144145000Y-89535000D03*
D17*
X141605000Y-89535000D03*
X139065000Y-89535000D03*
X136525000Y-89535000D03*
X133985000Y-89535000D03*
X131445000Y-89535000D03*
X128905000Y-89535000D03*
X126365000Y-89535000D03*
X123825000Y-89535000D03*
X121285000Y-89535000D03*
X118745000Y-89535000D03*
X116205000Y-89535000D03*
X113665000Y-89535000D03*
X111125000Y-89535000D03*
X108585000Y-89535000D03*
X106045000Y-89535000D03*
X103505000Y-89535000D03*
X100965000Y-89535000D03*
X98425000Y-89535000D03*
X95885000Y-89535000D03*
D10*
G36*
X109099505Y-109636204D02*
G01*
X109123773Y-109639804D01*
X109147572Y-109645765D01*
X109170671Y-109654030D01*
X109192850Y-109664520D01*
X109213893Y-109677132D01*
X109233599Y-109691747D01*
X109251777Y-109708223D01*
X109268253Y-109726401D01*
X109282868Y-109746107D01*
X109295480Y-109767150D01*
X109305970Y-109789329D01*
X109314235Y-109812428D01*
X109320196Y-109836227D01*
X109323796Y-109860495D01*
X109325000Y-109884999D01*
X109325000Y-110785001D01*
X109323796Y-110809505D01*
X109320196Y-110833773D01*
X109314235Y-110857572D01*
X109305970Y-110880671D01*
X109295480Y-110902850D01*
X109282868Y-110923893D01*
X109268253Y-110943599D01*
X109251777Y-110961777D01*
X109233599Y-110978253D01*
X109213893Y-110992868D01*
X109192850Y-111005480D01*
X109170671Y-111015970D01*
X109147572Y-111024235D01*
X109123773Y-111030196D01*
X109099505Y-111033796D01*
X109075001Y-111035000D01*
X108424999Y-111035000D01*
X108400495Y-111033796D01*
X108376227Y-111030196D01*
X108352428Y-111024235D01*
X108329329Y-111015970D01*
X108307150Y-111005480D01*
X108286107Y-110992868D01*
X108266401Y-110978253D01*
X108248223Y-110961777D01*
X108231747Y-110943599D01*
X108217132Y-110923893D01*
X108204520Y-110902850D01*
X108194030Y-110880671D01*
X108185765Y-110857572D01*
X108179804Y-110833773D01*
X108176204Y-110809505D01*
X108175000Y-110785001D01*
X108175000Y-109884999D01*
X108176204Y-109860495D01*
X108179804Y-109836227D01*
X108185765Y-109812428D01*
X108194030Y-109789329D01*
X108204520Y-109767150D01*
X108217132Y-109746107D01*
X108231747Y-109726401D01*
X108248223Y-109708223D01*
X108266401Y-109691747D01*
X108286107Y-109677132D01*
X108307150Y-109664520D01*
X108329329Y-109654030D01*
X108352428Y-109645765D01*
X108376227Y-109639804D01*
X108400495Y-109636204D01*
X108424999Y-109635000D01*
X109075001Y-109635000D01*
X109099505Y-109636204D01*
X109099505Y-109636204D01*
G37*
D12*
X108750000Y-110335000D03*
D10*
G36*
X107049505Y-109636204D02*
G01*
X107073773Y-109639804D01*
X107097572Y-109645765D01*
X107120671Y-109654030D01*
X107142850Y-109664520D01*
X107163893Y-109677132D01*
X107183599Y-109691747D01*
X107201777Y-109708223D01*
X107218253Y-109726401D01*
X107232868Y-109746107D01*
X107245480Y-109767150D01*
X107255970Y-109789329D01*
X107264235Y-109812428D01*
X107270196Y-109836227D01*
X107273796Y-109860495D01*
X107275000Y-109884999D01*
X107275000Y-110785001D01*
X107273796Y-110809505D01*
X107270196Y-110833773D01*
X107264235Y-110857572D01*
X107255970Y-110880671D01*
X107245480Y-110902850D01*
X107232868Y-110923893D01*
X107218253Y-110943599D01*
X107201777Y-110961777D01*
X107183599Y-110978253D01*
X107163893Y-110992868D01*
X107142850Y-111005480D01*
X107120671Y-111015970D01*
X107097572Y-111024235D01*
X107073773Y-111030196D01*
X107049505Y-111033796D01*
X107025001Y-111035000D01*
X106374999Y-111035000D01*
X106350495Y-111033796D01*
X106326227Y-111030196D01*
X106302428Y-111024235D01*
X106279329Y-111015970D01*
X106257150Y-111005480D01*
X106236107Y-110992868D01*
X106216401Y-110978253D01*
X106198223Y-110961777D01*
X106181747Y-110943599D01*
X106167132Y-110923893D01*
X106154520Y-110902850D01*
X106144030Y-110880671D01*
X106135765Y-110857572D01*
X106129804Y-110833773D01*
X106126204Y-110809505D01*
X106125000Y-110785001D01*
X106125000Y-109884999D01*
X106126204Y-109860495D01*
X106129804Y-109836227D01*
X106135765Y-109812428D01*
X106144030Y-109789329D01*
X106154520Y-109767150D01*
X106167132Y-109746107D01*
X106181747Y-109726401D01*
X106198223Y-109708223D01*
X106216401Y-109691747D01*
X106236107Y-109677132D01*
X106257150Y-109664520D01*
X106279329Y-109654030D01*
X106302428Y-109645765D01*
X106326227Y-109639804D01*
X106350495Y-109636204D01*
X106374999Y-109635000D01*
X107025001Y-109635000D01*
X107049505Y-109636204D01*
X107049505Y-109636204D01*
G37*
D12*
X106700000Y-110335000D03*
D18*
X105402000Y-108860500D03*
X100195000Y-107019000D03*
X113198500Y-110335000D03*
X111180500Y-107082500D03*
X107180000Y-94001500D03*
X115435000Y-94065000D03*
X119880000Y-94192000D03*
X126928500Y-94128500D03*
X99560000Y-94065000D03*
X132820000Y-110335000D03*
X121785000Y-109940000D03*
X119880000Y-107400000D03*
X125595000Y-107400000D03*
X131310000Y-103590000D03*
X135120000Y-94065000D03*
X107180000Y-107082500D03*
X108450000Y-107082500D03*
X108450000Y-101685000D03*
X101465000Y-94065000D03*
X121785000Y-94065000D03*
X128135000Y-101685000D03*
X126865000Y-107400000D03*
X128135000Y-107400000D03*
X129405000Y-94065000D03*
X111625000Y-94065000D03*
X117340000Y-94192000D03*
X137025000Y-94065000D03*
X109720000Y-107082500D03*
X115435000Y-106955500D03*
X104005000Y-106828500D03*
X103370000Y-94065000D03*
X123690000Y-106892000D03*
X129405000Y-107400000D03*
X135755000Y-106765000D03*
X123690000Y-94065000D03*
X132580000Y-94065000D03*
X115435000Y-92160000D03*
D19*
X103915000Y-110335000D02*
X105389500Y-108860500D01*
X105389500Y-108860500D02*
X105402000Y-108860500D01*
X110900000Y-110335000D02*
X113198500Y-110335000D01*
X115345000Y-110335000D02*
X113198500Y-110335000D01*
X130585000Y-110335000D02*
X132820000Y-110335000D01*
X132820000Y-110335000D02*
X135030000Y-110335000D01*
X123600000Y-110335000D02*
X122180000Y-110335000D01*
X122180000Y-110335000D02*
X121785000Y-109940000D01*
D20*
X141470000Y-89670000D02*
X141605000Y-89535000D01*
X141470000Y-105630000D02*
X141470000Y-89670000D01*
D19*
X106947000Y-110582000D02*
X106700000Y-110335000D01*
X106947000Y-115288000D02*
X106947000Y-110582000D01*
X106700000Y-110335000D02*
X106700000Y-107562500D01*
X106700000Y-107562500D02*
X107180000Y-107082500D01*
X107967000Y-111118000D02*
X108750000Y-110335000D01*
X107967000Y-113508000D02*
X107967000Y-111118000D01*
X108450000Y-110035000D02*
X108750000Y-110335000D01*
X108450000Y-107082500D02*
X108450000Y-110035000D01*
D20*
X119149000Y-114398000D02*
X117340000Y-116207000D01*
X117340000Y-116141000D02*
X115597000Y-114398000D01*
X117340000Y-121370000D02*
X117340000Y-116141000D01*
X99560000Y-121370000D02*
X117340000Y-121370000D01*
X98290000Y-120100000D02*
X99560000Y-121370000D01*
X99337000Y-114398000D02*
X98290000Y-115445000D01*
X98290000Y-115445000D02*
X98290000Y-120100000D01*
X137660000Y-121370000D02*
X117340000Y-121370000D01*
X141470000Y-117560000D02*
X137660000Y-121370000D01*
X135409000Y-114398000D02*
X141470000Y-108337000D01*
X141470000Y-108337000D02*
X141470000Y-117560000D01*
X141470000Y-108337000D02*
X141470000Y-106630000D01*
D19*
X108450000Y-101685000D02*
X108450000Y-101050000D01*
X108450000Y-101050000D02*
X101465000Y-94065000D01*
X128135000Y-100415000D02*
X121785000Y-94065000D01*
X128135000Y-101685000D02*
X128135000Y-100415000D01*
X103505000Y-89535000D02*
X106765000Y-92795000D01*
X120515000Y-92795000D02*
X121785000Y-94065000D01*
X106765000Y-92795000D02*
X120515000Y-92795000D01*
X126385000Y-109700000D02*
X126385000Y-107880000D01*
X126385000Y-107880000D02*
X126865000Y-107400000D01*
X126759000Y-110074000D02*
X126385000Y-109700000D01*
X126759000Y-115288000D02*
X126759000Y-110074000D01*
X128135000Y-109400000D02*
X128435000Y-109700000D01*
X128135000Y-107400000D02*
X128135000Y-109400000D01*
X127779000Y-110356000D02*
X128435000Y-109700000D01*
X127779000Y-113508000D02*
X127779000Y-110356000D01*
X128355000Y-94065000D02*
X123825000Y-89535000D01*
X129405000Y-94065000D02*
X128355000Y-94065000D01*
X137025000Y-94065000D02*
X135755000Y-92795000D01*
X129625000Y-92795000D02*
X126365000Y-89535000D01*
X135755000Y-92795000D02*
X129625000Y-92795000D01*
X109720000Y-107105000D02*
X110900000Y-108285000D01*
X109720000Y-107082500D02*
X109720000Y-107105000D01*
X115435000Y-108195000D02*
X115345000Y-108285000D01*
X115435000Y-106955500D02*
X115435000Y-108195000D01*
X104005000Y-108195000D02*
X103915000Y-108285000D01*
X104005000Y-106828500D02*
X104005000Y-108195000D01*
X123600000Y-108285000D02*
X123600000Y-106982000D01*
X123600000Y-106982000D02*
X123690000Y-106892000D01*
X130585000Y-108285000D02*
X130290000Y-108285000D01*
X130290000Y-108285000D02*
X129405000Y-107400000D01*
X135755000Y-107560000D02*
X135030000Y-108285000D01*
X135755000Y-106765000D02*
X135755000Y-107560000D01*
X123690000Y-94065000D02*
X121785000Y-92160000D01*
X121785000Y-92160000D02*
X115435000Y-92160000D01*
D21*
G36*
X149015001Y-122565000D02*
G01*
X94555000Y-122565000D01*
X94555000Y-115445000D01*
X97447746Y-115445000D01*
X97451800Y-115486163D01*
X97451801Y-120058828D01*
X97447746Y-120100000D01*
X97463929Y-120264315D01*
X97511858Y-120422316D01*
X97589691Y-120567931D01*
X97609328Y-120591858D01*
X97694437Y-120695564D01*
X97726413Y-120721806D01*
X98938193Y-121933587D01*
X98964436Y-121965564D01*
X99092068Y-122070309D01*
X99237683Y-122148142D01*
X99395684Y-122196071D01*
X99518830Y-122208200D01*
X99518839Y-122208200D01*
X99559999Y-122212254D01*
X99601159Y-122208200D01*
X117298830Y-122208200D01*
X117340000Y-122212255D01*
X117381170Y-122208200D01*
X137618837Y-122208200D01*
X137660000Y-122212254D01*
X137701163Y-122208200D01*
X137701170Y-122208200D01*
X137824316Y-122196071D01*
X137982317Y-122148142D01*
X138127932Y-122070309D01*
X138255564Y-121965564D01*
X138281811Y-121933582D01*
X142033588Y-118181806D01*
X142065564Y-118155564D01*
X142170309Y-118027932D01*
X142248142Y-117882317D01*
X142296071Y-117724316D01*
X142308200Y-117601170D01*
X142308200Y-117601163D01*
X142312254Y-117560000D01*
X142308200Y-117518837D01*
X142308200Y-108378161D01*
X142312254Y-108337001D01*
X142308200Y-108295841D01*
X142308200Y-106919023D01*
X142320990Y-106888145D01*
X142355000Y-106717165D01*
X142355000Y-105716574D01*
X142355113Y-105716002D01*
X142354884Y-105541672D01*
X142320649Y-105370736D01*
X142254827Y-105211826D01*
X142193631Y-105210515D01*
X142173690Y-105185714D01*
X142171985Y-105184283D01*
X142170577Y-105182557D01*
X142124527Y-105144461D01*
X142078754Y-105106053D01*
X142076802Y-105104980D01*
X142075087Y-105103561D01*
X142022539Y-105075149D01*
X141970153Y-105046349D01*
X141968029Y-105045675D01*
X141966072Y-105044617D01*
X141909050Y-105026966D01*
X141891953Y-105021542D01*
X141888174Y-104845173D01*
X141727026Y-104778672D01*
X141556002Y-104744887D01*
X141381672Y-104745116D01*
X141210736Y-104779351D01*
X141051826Y-104845173D01*
X141048042Y-105021772D01*
X141039379Y-105024388D01*
X140982125Y-105041238D01*
X140980153Y-105042269D01*
X140978020Y-105042913D01*
X140925219Y-105070988D01*
X140872297Y-105098655D01*
X140870563Y-105100049D01*
X140868596Y-105101095D01*
X140822263Y-105138883D01*
X140775714Y-105176310D01*
X140774283Y-105178015D01*
X140772557Y-105179423D01*
X140746844Y-105210505D01*
X140685173Y-105211826D01*
X140618672Y-105372974D01*
X140584887Y-105543998D01*
X140585000Y-105630000D01*
X140585000Y-106717165D01*
X140619010Y-106888145D01*
X140631801Y-106919025D01*
X140631800Y-107989806D01*
X135810730Y-112810877D01*
X135570033Y-112763000D01*
X135247967Y-112763000D01*
X134932088Y-112825832D01*
X134634537Y-112949082D01*
X134366748Y-113128013D01*
X134139013Y-113355748D01*
X133960082Y-113623537D01*
X133836832Y-113921088D01*
X133774000Y-114236967D01*
X133774000Y-114559033D01*
X133836832Y-114874912D01*
X133960082Y-115172463D01*
X134139013Y-115440252D01*
X134366748Y-115667987D01*
X134443105Y-115719007D01*
X134288218Y-115654851D01*
X133851591Y-115568000D01*
X133406409Y-115568000D01*
X132969782Y-115654851D01*
X132558489Y-115825214D01*
X132226159Y-116047270D01*
X132227072Y-116038000D01*
X132224000Y-115573750D01*
X132065250Y-115415000D01*
X130966000Y-115415000D01*
X130966000Y-116514250D01*
X131124750Y-116673000D01*
X131589000Y-116676072D01*
X131687069Y-116666413D01*
X131626214Y-116757489D01*
X131455851Y-117168782D01*
X131369000Y-117605409D01*
X131369000Y-118050591D01*
X131455851Y-118487218D01*
X131626214Y-118898511D01*
X131873544Y-119268666D01*
X132188334Y-119583456D01*
X132558489Y-119830786D01*
X132969782Y-120001149D01*
X133406409Y-120088000D01*
X133851591Y-120088000D01*
X134288218Y-120001149D01*
X134699511Y-119830786D01*
X135069666Y-119583456D01*
X135384456Y-119268666D01*
X135631786Y-118898511D01*
X135802149Y-118487218D01*
X135889000Y-118050591D01*
X135889000Y-117605409D01*
X135802149Y-117168782D01*
X135631786Y-116757489D01*
X135384456Y-116387334D01*
X135069666Y-116072544D01*
X134890944Y-115953125D01*
X134932088Y-115970168D01*
X135247967Y-116033000D01*
X135570033Y-116033000D01*
X135885912Y-115970168D01*
X136183463Y-115846918D01*
X136451252Y-115667987D01*
X136678987Y-115440252D01*
X136857918Y-115172463D01*
X136981168Y-114874912D01*
X137044000Y-114559033D01*
X137044000Y-114236967D01*
X136996123Y-113996270D01*
X140631800Y-110360594D01*
X140631801Y-117212805D01*
X137312807Y-120531800D01*
X118178200Y-120531800D01*
X118178200Y-116554193D01*
X118747271Y-115985123D01*
X118987967Y-116033000D01*
X119310033Y-116033000D01*
X119625912Y-115970168D01*
X119667056Y-115953125D01*
X119488334Y-116072544D01*
X119173544Y-116387334D01*
X118926214Y-116757489D01*
X118755851Y-117168782D01*
X118669000Y-117605409D01*
X118669000Y-118050591D01*
X118755851Y-118487218D01*
X118926214Y-118898511D01*
X119173544Y-119268666D01*
X119488334Y-119583456D01*
X119858489Y-119830786D01*
X120269782Y-120001149D01*
X120706409Y-120088000D01*
X121151591Y-120088000D01*
X121588218Y-120001149D01*
X121999511Y-119830786D01*
X122369666Y-119583456D01*
X122684456Y-119268666D01*
X122931786Y-118898511D01*
X123102149Y-118487218D01*
X123189000Y-118050591D01*
X123189000Y-117605409D01*
X123102149Y-117168782D01*
X122931786Y-116757489D01*
X122684456Y-116387334D01*
X122369666Y-116072544D01*
X121999511Y-115825214D01*
X121588218Y-115654851D01*
X121151591Y-115568000D01*
X120706409Y-115568000D01*
X120269782Y-115654851D01*
X120114895Y-115719007D01*
X120191252Y-115667987D01*
X120418987Y-115440252D01*
X120597918Y-115172463D01*
X120721168Y-114874912D01*
X120784000Y-114559033D01*
X120784000Y-114236967D01*
X120721168Y-113921088D01*
X120597918Y-113623537D01*
X120429572Y-113371589D01*
X122314000Y-113371589D01*
X122314000Y-113644411D01*
X122367225Y-113911989D01*
X122471629Y-114164043D01*
X122623201Y-114390886D01*
X122816114Y-114583799D01*
X123042957Y-114735371D01*
X123295011Y-114839775D01*
X123397134Y-114860089D01*
X123387225Y-114884011D01*
X123334000Y-115151589D01*
X123334000Y-115424411D01*
X123387225Y-115691989D01*
X123491629Y-115944043D01*
X123643201Y-116170886D01*
X123836114Y-116363799D01*
X124062957Y-116515371D01*
X124315011Y-116619775D01*
X124582589Y-116673000D01*
X124855411Y-116673000D01*
X125122989Y-116619775D01*
X125375043Y-116515371D01*
X125601886Y-116363799D01*
X125739000Y-116226685D01*
X125876114Y-116363799D01*
X126102957Y-116515371D01*
X126355011Y-116619775D01*
X126622589Y-116673000D01*
X126895411Y-116673000D01*
X127162989Y-116619775D01*
X127415043Y-116515371D01*
X127641886Y-116363799D01*
X127779000Y-116226685D01*
X127916114Y-116363799D01*
X128142957Y-116515371D01*
X128395011Y-116619775D01*
X128662589Y-116673000D01*
X128935411Y-116673000D01*
X129202989Y-116619775D01*
X129455043Y-116515371D01*
X129586965Y-116427224D01*
X129637815Y-116489185D01*
X129734506Y-116568537D01*
X129844820Y-116627502D01*
X129964518Y-116663812D01*
X130089000Y-116676072D01*
X130553250Y-116673000D01*
X130712000Y-116514250D01*
X130712000Y-115415000D01*
X130692000Y-115415000D01*
X130692000Y-115161000D01*
X130712000Y-115161000D01*
X130712000Y-115141000D01*
X130966000Y-115141000D01*
X130966000Y-115161000D01*
X132065250Y-115161000D01*
X132224000Y-115002250D01*
X132227072Y-114538000D01*
X132214812Y-114413518D01*
X132178502Y-114293820D01*
X132119537Y-114183506D01*
X132040185Y-114086815D01*
X131943494Y-114007463D01*
X131833180Y-113948498D01*
X131713482Y-113912188D01*
X131589000Y-113899928D01*
X131152600Y-113902816D01*
X131204000Y-113644411D01*
X131204000Y-113371589D01*
X131150775Y-113104011D01*
X131046371Y-112851957D01*
X130894799Y-112625114D01*
X130701886Y-112432201D01*
X130475043Y-112280629D01*
X130222989Y-112176225D01*
X129955411Y-112123000D01*
X129682589Y-112123000D01*
X129415011Y-112176225D01*
X129162957Y-112280629D01*
X128936114Y-112432201D01*
X128799000Y-112569315D01*
X128661886Y-112432201D01*
X128515600Y-112334456D01*
X128515600Y-111038072D01*
X128760001Y-111038072D01*
X128933255Y-111021008D01*
X129099851Y-110970472D01*
X129247122Y-110891754D01*
X129246928Y-110910000D01*
X129259188Y-111034482D01*
X129295498Y-111154180D01*
X129354463Y-111264494D01*
X129433815Y-111361185D01*
X129530506Y-111440537D01*
X129640820Y-111499502D01*
X129760518Y-111535812D01*
X129885000Y-111548072D01*
X130299250Y-111545000D01*
X130458000Y-111386250D01*
X130458000Y-110462000D01*
X130712000Y-110462000D01*
X130712000Y-111386250D01*
X130870750Y-111545000D01*
X131285000Y-111548072D01*
X131409482Y-111535812D01*
X131529180Y-111499502D01*
X131639494Y-111440537D01*
X131736185Y-111361185D01*
X131815537Y-111264494D01*
X131874502Y-111154180D01*
X131910812Y-111034482D01*
X131923072Y-110910000D01*
X133691928Y-110910000D01*
X133704188Y-111034482D01*
X133740498Y-111154180D01*
X133799463Y-111264494D01*
X133878815Y-111361185D01*
X133975506Y-111440537D01*
X134085820Y-111499502D01*
X134205518Y-111535812D01*
X134330000Y-111548072D01*
X134744250Y-111545000D01*
X134903000Y-111386250D01*
X134903000Y-110462000D01*
X135157000Y-110462000D01*
X135157000Y-111386250D01*
X135315750Y-111545000D01*
X135730000Y-111548072D01*
X135854482Y-111535812D01*
X135974180Y-111499502D01*
X136084494Y-111440537D01*
X136181185Y-111361185D01*
X136260537Y-111264494D01*
X136319502Y-111154180D01*
X136355812Y-111034482D01*
X136368072Y-110910000D01*
X136365000Y-110620750D01*
X136206250Y-110462000D01*
X135157000Y-110462000D01*
X134903000Y-110462000D01*
X133853750Y-110462000D01*
X133695000Y-110620750D01*
X133691928Y-110910000D01*
X131923072Y-110910000D01*
X131920000Y-110620750D01*
X131761250Y-110462000D01*
X130712000Y-110462000D01*
X130458000Y-110462000D01*
X130438000Y-110462000D01*
X130438000Y-110208000D01*
X130458000Y-110208000D01*
X130458000Y-110188000D01*
X130712000Y-110188000D01*
X130712000Y-110208000D01*
X131761250Y-110208000D01*
X131920000Y-110049250D01*
X131923072Y-109760000D01*
X131910812Y-109635518D01*
X131874502Y-109515820D01*
X131815537Y-109405506D01*
X131736185Y-109308815D01*
X131656406Y-109243342D01*
X131662962Y-109237962D01*
X131773405Y-109103387D01*
X131855472Y-108949851D01*
X131906008Y-108783255D01*
X131923072Y-108610001D01*
X131923072Y-107959999D01*
X133691928Y-107959999D01*
X133691928Y-108610001D01*
X133708992Y-108783255D01*
X133759528Y-108949851D01*
X133841595Y-109103387D01*
X133952038Y-109237962D01*
X133958594Y-109243342D01*
X133878815Y-109308815D01*
X133799463Y-109405506D01*
X133740498Y-109515820D01*
X133704188Y-109635518D01*
X133691928Y-109760000D01*
X133695000Y-110049250D01*
X133853750Y-110208000D01*
X134903000Y-110208000D01*
X134903000Y-110188000D01*
X135157000Y-110188000D01*
X135157000Y-110208000D01*
X136206250Y-110208000D01*
X136365000Y-110049250D01*
X136368072Y-109760000D01*
X136355812Y-109635518D01*
X136319502Y-109515820D01*
X136260537Y-109405506D01*
X136181185Y-109308815D01*
X136101406Y-109243342D01*
X136107962Y-109237962D01*
X136218405Y-109103387D01*
X136300472Y-108949851D01*
X136351008Y-108783255D01*
X136368072Y-108610001D01*
X136368072Y-107974079D01*
X136370424Y-107971213D01*
X136419178Y-107880000D01*
X136438822Y-107843249D01*
X136480942Y-107704399D01*
X136491600Y-107596186D01*
X136495164Y-107560000D01*
X136491600Y-107523814D01*
X136491600Y-107465241D01*
X136544179Y-107412662D01*
X136655368Y-107246256D01*
X136731956Y-107061356D01*
X136771000Y-106865067D01*
X136771000Y-106664933D01*
X136731956Y-106468644D01*
X136655368Y-106283744D01*
X136544179Y-106117338D01*
X136402662Y-105975821D01*
X136236256Y-105864632D01*
X136051356Y-105788044D01*
X135855067Y-105749000D01*
X135654933Y-105749000D01*
X135458644Y-105788044D01*
X135273744Y-105864632D01*
X135107338Y-105975821D01*
X134965821Y-106117338D01*
X134854632Y-106283744D01*
X134778044Y-106468644D01*
X134739000Y-106664933D01*
X134739000Y-106865067D01*
X134778044Y-107061356D01*
X134782423Y-107071928D01*
X134579999Y-107071928D01*
X134406745Y-107088992D01*
X134240149Y-107139528D01*
X134086613Y-107221595D01*
X133952038Y-107332038D01*
X133841595Y-107466613D01*
X133759528Y-107620149D01*
X133708992Y-107786745D01*
X133691928Y-107959999D01*
X131923072Y-107959999D01*
X131906008Y-107786745D01*
X131855472Y-107620149D01*
X131773405Y-107466613D01*
X131662962Y-107332038D01*
X131528387Y-107221595D01*
X131374851Y-107139528D01*
X131208255Y-107088992D01*
X131035001Y-107071928D01*
X130368819Y-107071928D01*
X130305368Y-106918744D01*
X130194179Y-106752338D01*
X130052662Y-106610821D01*
X129886256Y-106499632D01*
X129701356Y-106423044D01*
X129505067Y-106384000D01*
X129304933Y-106384000D01*
X129108644Y-106423044D01*
X128923744Y-106499632D01*
X128770000Y-106602361D01*
X128616256Y-106499632D01*
X128431356Y-106423044D01*
X128235067Y-106384000D01*
X128034933Y-106384000D01*
X127838644Y-106423044D01*
X127653744Y-106499632D01*
X127500000Y-106602361D01*
X127346256Y-106499632D01*
X127161356Y-106423044D01*
X126965067Y-106384000D01*
X126764933Y-106384000D01*
X126568644Y-106423044D01*
X126383744Y-106499632D01*
X126217338Y-106610821D01*
X126075821Y-106752338D01*
X125964632Y-106918744D01*
X125888044Y-107103644D01*
X125849000Y-107299933D01*
X125849000Y-107372010D01*
X125838560Y-107384731D01*
X125838558Y-107384733D01*
X125769576Y-107468788D01*
X125701178Y-107596753D01*
X125694081Y-107620149D01*
X125661102Y-107728868D01*
X125659059Y-107735602D01*
X125644836Y-107880000D01*
X125648401Y-107916193D01*
X125648401Y-108467878D01*
X125566613Y-108511595D01*
X125432038Y-108622038D01*
X125321595Y-108756613D01*
X125239528Y-108910149D01*
X125188992Y-109076745D01*
X125171928Y-109249999D01*
X125171928Y-110150001D01*
X125188992Y-110323255D01*
X125239528Y-110489851D01*
X125321595Y-110643387D01*
X125432038Y-110777962D01*
X125566613Y-110888405D01*
X125720149Y-110970472D01*
X125886745Y-111021008D01*
X126022401Y-111034369D01*
X126022401Y-112152238D01*
X125875411Y-112123000D01*
X125602589Y-112123000D01*
X125335011Y-112176225D01*
X125082957Y-112280629D01*
X124856114Y-112432201D01*
X124719000Y-112569315D01*
X124581886Y-112432201D01*
X124355043Y-112280629D01*
X124102989Y-112176225D01*
X123835411Y-112123000D01*
X123562589Y-112123000D01*
X123295011Y-112176225D01*
X123042957Y-112280629D01*
X122816114Y-112432201D01*
X122623201Y-112625114D01*
X122471629Y-112851957D01*
X122367225Y-113104011D01*
X122314000Y-113371589D01*
X120429572Y-113371589D01*
X120418987Y-113355748D01*
X120191252Y-113128013D01*
X119923463Y-112949082D01*
X119625912Y-112825832D01*
X119310033Y-112763000D01*
X118987967Y-112763000D01*
X118672088Y-112825832D01*
X118374537Y-112949082D01*
X118106748Y-113128013D01*
X117879013Y-113355748D01*
X117700082Y-113623537D01*
X117576832Y-113921088D01*
X117514000Y-114236967D01*
X117514000Y-114559033D01*
X117561877Y-114799729D01*
X117373000Y-114988606D01*
X117184123Y-114799729D01*
X117232000Y-114559033D01*
X117232000Y-114236967D01*
X117169168Y-113921088D01*
X117045918Y-113623537D01*
X116866987Y-113355748D01*
X116639252Y-113128013D01*
X116371463Y-112949082D01*
X116073912Y-112825832D01*
X115758033Y-112763000D01*
X115435967Y-112763000D01*
X115120088Y-112825832D01*
X114822537Y-112949082D01*
X114554748Y-113128013D01*
X114327013Y-113355748D01*
X114148082Y-113623537D01*
X114024832Y-113921088D01*
X113962000Y-114236967D01*
X113962000Y-114559033D01*
X114024832Y-114874912D01*
X114148082Y-115172463D01*
X114327013Y-115440252D01*
X114554748Y-115667987D01*
X114631105Y-115719007D01*
X114476218Y-115654851D01*
X114039591Y-115568000D01*
X113594409Y-115568000D01*
X113157782Y-115654851D01*
X112746489Y-115825214D01*
X112414159Y-116047270D01*
X112415072Y-116038000D01*
X112412000Y-115573750D01*
X112253250Y-115415000D01*
X111154000Y-115415000D01*
X111154000Y-116514250D01*
X111312750Y-116673000D01*
X111777000Y-116676072D01*
X111875069Y-116666413D01*
X111814214Y-116757489D01*
X111643851Y-117168782D01*
X111557000Y-117605409D01*
X111557000Y-118050591D01*
X111643851Y-118487218D01*
X111814214Y-118898511D01*
X112061544Y-119268666D01*
X112376334Y-119583456D01*
X112746489Y-119830786D01*
X113157782Y-120001149D01*
X113594409Y-120088000D01*
X114039591Y-120088000D01*
X114476218Y-120001149D01*
X114887511Y-119830786D01*
X115257666Y-119583456D01*
X115572456Y-119268666D01*
X115819786Y-118898511D01*
X115990149Y-118487218D01*
X116077000Y-118050591D01*
X116077000Y-117605409D01*
X115990149Y-117168782D01*
X115819786Y-116757489D01*
X115572456Y-116387334D01*
X115257666Y-116072544D01*
X115078944Y-115953125D01*
X115120088Y-115970168D01*
X115435967Y-116033000D01*
X115758033Y-116033000D01*
X115998729Y-115985123D01*
X116501801Y-116488195D01*
X116501800Y-120531800D01*
X99907194Y-120531800D01*
X99128200Y-119752807D01*
X99128200Y-118919442D01*
X99361544Y-119268666D01*
X99676334Y-119583456D01*
X100046489Y-119830786D01*
X100457782Y-120001149D01*
X100894409Y-120088000D01*
X101339591Y-120088000D01*
X101776218Y-120001149D01*
X102187511Y-119830786D01*
X102557666Y-119583456D01*
X102872456Y-119268666D01*
X103119786Y-118898511D01*
X103290149Y-118487218D01*
X103377000Y-118050591D01*
X103377000Y-117605409D01*
X103290149Y-117168782D01*
X103119786Y-116757489D01*
X102872456Y-116387334D01*
X102557666Y-116072544D01*
X102187511Y-115825214D01*
X101776218Y-115654851D01*
X101339591Y-115568000D01*
X100894409Y-115568000D01*
X100457782Y-115654851D01*
X100302895Y-115719007D01*
X100379252Y-115667987D01*
X100606987Y-115440252D01*
X100785918Y-115172463D01*
X100909168Y-114874912D01*
X100972000Y-114559033D01*
X100972000Y-114236967D01*
X100909168Y-113921088D01*
X100785918Y-113623537D01*
X100617572Y-113371589D01*
X102502000Y-113371589D01*
X102502000Y-113644411D01*
X102555225Y-113911989D01*
X102659629Y-114164043D01*
X102811201Y-114390886D01*
X103004114Y-114583799D01*
X103230957Y-114735371D01*
X103483011Y-114839775D01*
X103585134Y-114860089D01*
X103575225Y-114884011D01*
X103522000Y-115151589D01*
X103522000Y-115424411D01*
X103575225Y-115691989D01*
X103679629Y-115944043D01*
X103831201Y-116170886D01*
X104024114Y-116363799D01*
X104250957Y-116515371D01*
X104503011Y-116619775D01*
X104770589Y-116673000D01*
X105043411Y-116673000D01*
X105310989Y-116619775D01*
X105563043Y-116515371D01*
X105789886Y-116363799D01*
X105927000Y-116226685D01*
X106064114Y-116363799D01*
X106290957Y-116515371D01*
X106543011Y-116619775D01*
X106810589Y-116673000D01*
X107083411Y-116673000D01*
X107350989Y-116619775D01*
X107603043Y-116515371D01*
X107829886Y-116363799D01*
X107967000Y-116226685D01*
X108104114Y-116363799D01*
X108330957Y-116515371D01*
X108583011Y-116619775D01*
X108850589Y-116673000D01*
X109123411Y-116673000D01*
X109390989Y-116619775D01*
X109643043Y-116515371D01*
X109774965Y-116427224D01*
X109825815Y-116489185D01*
X109922506Y-116568537D01*
X110032820Y-116627502D01*
X110152518Y-116663812D01*
X110277000Y-116676072D01*
X110741250Y-116673000D01*
X110900000Y-116514250D01*
X110900000Y-115415000D01*
X110880000Y-115415000D01*
X110880000Y-115161000D01*
X110900000Y-115161000D01*
X110900000Y-115141000D01*
X111154000Y-115141000D01*
X111154000Y-115161000D01*
X112253250Y-115161000D01*
X112412000Y-115002250D01*
X112415072Y-114538000D01*
X112402812Y-114413518D01*
X112366502Y-114293820D01*
X112307537Y-114183506D01*
X112228185Y-114086815D01*
X112131494Y-114007463D01*
X112021180Y-113948498D01*
X111901482Y-113912188D01*
X111777000Y-113899928D01*
X111340600Y-113902816D01*
X111392000Y-113644411D01*
X111392000Y-113371589D01*
X111338775Y-113104011D01*
X111234371Y-112851957D01*
X111082799Y-112625114D01*
X110889886Y-112432201D01*
X110663043Y-112280629D01*
X110410989Y-112176225D01*
X110143411Y-112123000D01*
X109870589Y-112123000D01*
X109603011Y-112176225D01*
X109350957Y-112280629D01*
X109124114Y-112432201D01*
X108987000Y-112569315D01*
X108849886Y-112432201D01*
X108703600Y-112334456D01*
X108703600Y-111673072D01*
X109075001Y-111673072D01*
X109248255Y-111656008D01*
X109414851Y-111605472D01*
X109568387Y-111523405D01*
X109702962Y-111412962D01*
X109747135Y-111359138D01*
X109748815Y-111361185D01*
X109845506Y-111440537D01*
X109955820Y-111499502D01*
X110075518Y-111535812D01*
X110200000Y-111548072D01*
X110614250Y-111545000D01*
X110773000Y-111386250D01*
X110773000Y-110462000D01*
X111027000Y-110462000D01*
X111027000Y-111386250D01*
X111185750Y-111545000D01*
X111600000Y-111548072D01*
X111724482Y-111535812D01*
X111844180Y-111499502D01*
X111954494Y-111440537D01*
X112051185Y-111361185D01*
X112130537Y-111264494D01*
X112189502Y-111154180D01*
X112225812Y-111034482D01*
X112238072Y-110910000D01*
X114006928Y-110910000D01*
X114019188Y-111034482D01*
X114055498Y-111154180D01*
X114114463Y-111264494D01*
X114193815Y-111361185D01*
X114290506Y-111440537D01*
X114400820Y-111499502D01*
X114520518Y-111535812D01*
X114645000Y-111548072D01*
X115059250Y-111545000D01*
X115218000Y-111386250D01*
X115218000Y-110462000D01*
X115472000Y-110462000D01*
X115472000Y-111386250D01*
X115630750Y-111545000D01*
X116045000Y-111548072D01*
X116169482Y-111535812D01*
X116289180Y-111499502D01*
X116399494Y-111440537D01*
X116496185Y-111361185D01*
X116575537Y-111264494D01*
X116634502Y-111154180D01*
X116670812Y-111034482D01*
X116683072Y-110910000D01*
X122261928Y-110910000D01*
X122274188Y-111034482D01*
X122310498Y-111154180D01*
X122369463Y-111264494D01*
X122448815Y-111361185D01*
X122545506Y-111440537D01*
X122655820Y-111499502D01*
X122775518Y-111535812D01*
X122900000Y-111548072D01*
X123314250Y-111545000D01*
X123473000Y-111386250D01*
X123473000Y-110462000D01*
X123727000Y-110462000D01*
X123727000Y-111386250D01*
X123885750Y-111545000D01*
X124300000Y-111548072D01*
X124424482Y-111535812D01*
X124544180Y-111499502D01*
X124654494Y-111440537D01*
X124751185Y-111361185D01*
X124830537Y-111264494D01*
X124889502Y-111154180D01*
X124925812Y-111034482D01*
X124938072Y-110910000D01*
X124935000Y-110620750D01*
X124776250Y-110462000D01*
X123727000Y-110462000D01*
X123473000Y-110462000D01*
X122423750Y-110462000D01*
X122265000Y-110620750D01*
X122261928Y-110910000D01*
X116683072Y-110910000D01*
X116680000Y-110620750D01*
X116521250Y-110462000D01*
X115472000Y-110462000D01*
X115218000Y-110462000D01*
X114168750Y-110462000D01*
X114010000Y-110620750D01*
X114006928Y-110910000D01*
X112238072Y-110910000D01*
X112235000Y-110620750D01*
X112076250Y-110462000D01*
X111027000Y-110462000D01*
X110773000Y-110462000D01*
X110753000Y-110462000D01*
X110753000Y-110208000D01*
X110773000Y-110208000D01*
X110773000Y-110188000D01*
X111027000Y-110188000D01*
X111027000Y-110208000D01*
X112076250Y-110208000D01*
X112235000Y-110049250D01*
X112238072Y-109760000D01*
X112225812Y-109635518D01*
X112189502Y-109515820D01*
X112130537Y-109405506D01*
X112051185Y-109308815D01*
X111971406Y-109243342D01*
X111977962Y-109237962D01*
X112088405Y-109103387D01*
X112170472Y-108949851D01*
X112221008Y-108783255D01*
X112238072Y-108610001D01*
X112238072Y-107959999D01*
X114006928Y-107959999D01*
X114006928Y-108610001D01*
X114023992Y-108783255D01*
X114074528Y-108949851D01*
X114156595Y-109103387D01*
X114267038Y-109237962D01*
X114273594Y-109243342D01*
X114193815Y-109308815D01*
X114114463Y-109405506D01*
X114055498Y-109515820D01*
X114019188Y-109635518D01*
X114006928Y-109760000D01*
X114010000Y-110049250D01*
X114168750Y-110208000D01*
X115218000Y-110208000D01*
X115218000Y-110188000D01*
X115472000Y-110188000D01*
X115472000Y-110208000D01*
X116521250Y-110208000D01*
X116680000Y-110049250D01*
X116683072Y-109760000D01*
X116670812Y-109635518D01*
X116634502Y-109515820D01*
X116575537Y-109405506D01*
X116496185Y-109308815D01*
X116416406Y-109243342D01*
X116422962Y-109237962D01*
X116533405Y-109103387D01*
X116615472Y-108949851D01*
X116666008Y-108783255D01*
X116683072Y-108610001D01*
X116683072Y-107959999D01*
X122261928Y-107959999D01*
X122261928Y-108610001D01*
X122278992Y-108783255D01*
X122329528Y-108949851D01*
X122411595Y-109103387D01*
X122522038Y-109237962D01*
X122528594Y-109243342D01*
X122448815Y-109308815D01*
X122369463Y-109405506D01*
X122310498Y-109515820D01*
X122274188Y-109635518D01*
X122261928Y-109760000D01*
X122265000Y-110049250D01*
X122423750Y-110208000D01*
X123473000Y-110208000D01*
X123473000Y-110188000D01*
X123727000Y-110188000D01*
X123727000Y-110208000D01*
X124776250Y-110208000D01*
X124935000Y-110049250D01*
X124938072Y-109760000D01*
X124925812Y-109635518D01*
X124889502Y-109515820D01*
X124830537Y-109405506D01*
X124751185Y-109308815D01*
X124671406Y-109243342D01*
X124677962Y-109237962D01*
X124788405Y-109103387D01*
X124870472Y-108949851D01*
X124921008Y-108783255D01*
X124938072Y-108610001D01*
X124938072Y-107959999D01*
X124921008Y-107786745D01*
X124870472Y-107620149D01*
X124788405Y-107466613D01*
X124677962Y-107332038D01*
X124625332Y-107288846D01*
X124666956Y-107188356D01*
X124706000Y-106992067D01*
X124706000Y-106791933D01*
X124666956Y-106595644D01*
X124590368Y-106410744D01*
X124479179Y-106244338D01*
X124337662Y-106102821D01*
X124171256Y-105991632D01*
X123986356Y-105915044D01*
X123790067Y-105876000D01*
X123589933Y-105876000D01*
X123393644Y-105915044D01*
X123208744Y-105991632D01*
X123042338Y-106102821D01*
X122900821Y-106244338D01*
X122789632Y-106410744D01*
X122713044Y-106595644D01*
X122674000Y-106791933D01*
X122674000Y-106992067D01*
X122713044Y-107188356D01*
X122714087Y-107190874D01*
X122656613Y-107221595D01*
X122522038Y-107332038D01*
X122411595Y-107466613D01*
X122329528Y-107620149D01*
X122278992Y-107786745D01*
X122261928Y-107959999D01*
X116683072Y-107959999D01*
X116666008Y-107786745D01*
X116615472Y-107620149D01*
X116533405Y-107466613D01*
X116422962Y-107332038D01*
X116389962Y-107304955D01*
X116411956Y-107251856D01*
X116451000Y-107055567D01*
X116451000Y-106855433D01*
X116411956Y-106659144D01*
X116335368Y-106474244D01*
X116224179Y-106307838D01*
X116082662Y-106166321D01*
X115916256Y-106055132D01*
X115731356Y-105978544D01*
X115535067Y-105939500D01*
X115334933Y-105939500D01*
X115138644Y-105978544D01*
X114953744Y-106055132D01*
X114787338Y-106166321D01*
X114645821Y-106307838D01*
X114534632Y-106474244D01*
X114458044Y-106659144D01*
X114419000Y-106855433D01*
X114419000Y-107055567D01*
X114447180Y-107197239D01*
X114401613Y-107221595D01*
X114267038Y-107332038D01*
X114156595Y-107466613D01*
X114074528Y-107620149D01*
X114023992Y-107786745D01*
X114006928Y-107959999D01*
X112238072Y-107959999D01*
X112221008Y-107786745D01*
X112170472Y-107620149D01*
X112088405Y-107466613D01*
X111977962Y-107332038D01*
X111843387Y-107221595D01*
X111689851Y-107139528D01*
X111523255Y-107088992D01*
X111350001Y-107071928D01*
X110736000Y-107071928D01*
X110736000Y-106982433D01*
X110696956Y-106786144D01*
X110620368Y-106601244D01*
X110509179Y-106434838D01*
X110367662Y-106293321D01*
X110201256Y-106182132D01*
X110016356Y-106105544D01*
X109820067Y-106066500D01*
X109619933Y-106066500D01*
X109423644Y-106105544D01*
X109238744Y-106182132D01*
X109085000Y-106284861D01*
X108931256Y-106182132D01*
X108746356Y-106105544D01*
X108550067Y-106066500D01*
X108349933Y-106066500D01*
X108153644Y-106105544D01*
X107968744Y-106182132D01*
X107815000Y-106284861D01*
X107661256Y-106182132D01*
X107476356Y-106105544D01*
X107280067Y-106066500D01*
X107079933Y-106066500D01*
X106883644Y-106105544D01*
X106698744Y-106182132D01*
X106532338Y-106293321D01*
X106390821Y-106434838D01*
X106279632Y-106601244D01*
X106203044Y-106786144D01*
X106164000Y-106982433D01*
X106164000Y-107054510D01*
X106153560Y-107067231D01*
X106153558Y-107067233D01*
X106084576Y-107151288D01*
X106060582Y-107196178D01*
X106016179Y-107279251D01*
X105974818Y-107415601D01*
X105974059Y-107418102D01*
X105959836Y-107562500D01*
X105963401Y-107598693D01*
X105963400Y-109102879D01*
X105881613Y-109146595D01*
X105747038Y-109257038D01*
X105636595Y-109391613D01*
X105554528Y-109545149D01*
X105503992Y-109711745D01*
X105486928Y-109884999D01*
X105486928Y-110785001D01*
X105503992Y-110958255D01*
X105554528Y-111124851D01*
X105636595Y-111278387D01*
X105747038Y-111412962D01*
X105881613Y-111523405D01*
X106035149Y-111605472D01*
X106201745Y-111656008D01*
X106210401Y-111656861D01*
X106210401Y-112152238D01*
X106063411Y-112123000D01*
X105790589Y-112123000D01*
X105523011Y-112176225D01*
X105270957Y-112280629D01*
X105044114Y-112432201D01*
X104907000Y-112569315D01*
X104769886Y-112432201D01*
X104543043Y-112280629D01*
X104290989Y-112176225D01*
X104023411Y-112123000D01*
X103750589Y-112123000D01*
X103483011Y-112176225D01*
X103230957Y-112280629D01*
X103004114Y-112432201D01*
X102811201Y-112625114D01*
X102659629Y-112851957D01*
X102555225Y-113104011D01*
X102502000Y-113371589D01*
X100617572Y-113371589D01*
X100606987Y-113355748D01*
X100379252Y-113128013D01*
X100111463Y-112949082D01*
X99813912Y-112825832D01*
X99498033Y-112763000D01*
X99175967Y-112763000D01*
X98860088Y-112825832D01*
X98562537Y-112949082D01*
X98294748Y-113128013D01*
X98067013Y-113355748D01*
X97888082Y-113623537D01*
X97764832Y-113921088D01*
X97702000Y-114236967D01*
X97702000Y-114559033D01*
X97749877Y-114799730D01*
X97726418Y-114823189D01*
X97694436Y-114849436D01*
X97589691Y-114977069D01*
X97511858Y-115122684D01*
X97463929Y-115280685D01*
X97451800Y-115403831D01*
X97451800Y-115403837D01*
X97447746Y-115445000D01*
X94555000Y-115445000D01*
X94555000Y-110910000D01*
X102576928Y-110910000D01*
X102589188Y-111034482D01*
X102625498Y-111154180D01*
X102684463Y-111264494D01*
X102763815Y-111361185D01*
X102860506Y-111440537D01*
X102970820Y-111499502D01*
X103090518Y-111535812D01*
X103215000Y-111548072D01*
X103629250Y-111545000D01*
X103788000Y-111386250D01*
X103788000Y-110462000D01*
X104042000Y-110462000D01*
X104042000Y-111386250D01*
X104200750Y-111545000D01*
X104615000Y-111548072D01*
X104739482Y-111535812D01*
X104859180Y-111499502D01*
X104969494Y-111440537D01*
X105066185Y-111361185D01*
X105145537Y-111264494D01*
X105204502Y-111154180D01*
X105240812Y-111034482D01*
X105253072Y-110910000D01*
X105250000Y-110620750D01*
X105091250Y-110462000D01*
X104042000Y-110462000D01*
X103788000Y-110462000D01*
X102738750Y-110462000D01*
X102580000Y-110620750D01*
X102576928Y-110910000D01*
X94555000Y-110910000D01*
X94555000Y-107959999D01*
X102576928Y-107959999D01*
X102576928Y-108610001D01*
X102593992Y-108783255D01*
X102644528Y-108949851D01*
X102726595Y-109103387D01*
X102837038Y-109237962D01*
X102843594Y-109243342D01*
X102763815Y-109308815D01*
X102684463Y-109405506D01*
X102625498Y-109515820D01*
X102589188Y-109635518D01*
X102576928Y-109760000D01*
X102580000Y-110049250D01*
X102738750Y-110208000D01*
X103788000Y-110208000D01*
X103788000Y-110188000D01*
X104042000Y-110188000D01*
X104042000Y-110208000D01*
X105091250Y-110208000D01*
X105250000Y-110049250D01*
X105253072Y-109760000D01*
X105240812Y-109635518D01*
X105204502Y-109515820D01*
X105145537Y-109405506D01*
X105066185Y-109308815D01*
X104986406Y-109243342D01*
X104992962Y-109237962D01*
X105103405Y-109103387D01*
X105185472Y-108949851D01*
X105236008Y-108783255D01*
X105253072Y-108610001D01*
X105253072Y-107959999D01*
X105236008Y-107786745D01*
X105185472Y-107620149D01*
X105103405Y-107466613D01*
X104992962Y-107332038D01*
X104920702Y-107272736D01*
X104981956Y-107124856D01*
X105021000Y-106928567D01*
X105021000Y-106728433D01*
X104981956Y-106532144D01*
X104905368Y-106347244D01*
X104794179Y-106180838D01*
X104652662Y-106039321D01*
X104486256Y-105928132D01*
X104301356Y-105851544D01*
X104105067Y-105812500D01*
X103904933Y-105812500D01*
X103708644Y-105851544D01*
X103523744Y-105928132D01*
X103357338Y-106039321D01*
X103215821Y-106180838D01*
X103104632Y-106347244D01*
X103028044Y-106532144D01*
X102989000Y-106728433D01*
X102989000Y-106928567D01*
X103028044Y-107124856D01*
X103050622Y-107179364D01*
X102971613Y-107221595D01*
X102837038Y-107332038D01*
X102726595Y-107466613D01*
X102644528Y-107620149D01*
X102593992Y-107786745D01*
X102576928Y-107959999D01*
X94555000Y-107959999D01*
X94555000Y-93964933D01*
X100449000Y-93964933D01*
X100449000Y-94165067D01*
X100488044Y-94361356D01*
X100564632Y-94546256D01*
X100675821Y-94712662D01*
X100817338Y-94854179D01*
X100983744Y-94965368D01*
X101168644Y-95041956D01*
X101364933Y-95081000D01*
X101439291Y-95081000D01*
X107554600Y-101196310D01*
X107549632Y-101203744D01*
X107473044Y-101388644D01*
X107434000Y-101584933D01*
X107434000Y-101785067D01*
X107473044Y-101981356D01*
X107549632Y-102166256D01*
X107660821Y-102332662D01*
X107802338Y-102474179D01*
X107968744Y-102585368D01*
X108153644Y-102661956D01*
X108349933Y-102701000D01*
X108550067Y-102701000D01*
X108746356Y-102661956D01*
X108931256Y-102585368D01*
X109097662Y-102474179D01*
X109239179Y-102332662D01*
X109350368Y-102166256D01*
X109426956Y-101981356D01*
X109466000Y-101785067D01*
X109466000Y-101584933D01*
X109426956Y-101388644D01*
X109350368Y-101203744D01*
X109239179Y-101037338D01*
X109183426Y-100981585D01*
X109175942Y-100905601D01*
X109133822Y-100766752D01*
X109133822Y-100766751D01*
X109065424Y-100638787D01*
X108973375Y-100526625D01*
X108945269Y-100503559D01*
X103513975Y-95072266D01*
X103666356Y-95041956D01*
X103851256Y-94965368D01*
X104017662Y-94854179D01*
X104159179Y-94712662D01*
X104270368Y-94546256D01*
X104346956Y-94361356D01*
X104386000Y-94165067D01*
X104386000Y-93964933D01*
X104346956Y-93768644D01*
X104270368Y-93583744D01*
X104159179Y-93417338D01*
X104017662Y-93275821D01*
X103851256Y-93164632D01*
X103666356Y-93088044D01*
X103470067Y-93049000D01*
X103269933Y-93049000D01*
X103073644Y-93088044D01*
X102888744Y-93164632D01*
X102722338Y-93275821D01*
X102580821Y-93417338D01*
X102469632Y-93583744D01*
X102417500Y-93709602D01*
X102365368Y-93583744D01*
X102254179Y-93417338D01*
X102112662Y-93275821D01*
X101946256Y-93164632D01*
X101761356Y-93088044D01*
X101565067Y-93049000D01*
X101364933Y-93049000D01*
X101168644Y-93088044D01*
X100983744Y-93164632D01*
X100817338Y-93275821D01*
X100675821Y-93417338D01*
X100564632Y-93583744D01*
X100488044Y-93768644D01*
X100449000Y-93964933D01*
X94555000Y-93964933D01*
X94555000Y-90190018D01*
X94689822Y-90416355D01*
X94884731Y-90632588D01*
X95118080Y-90806641D01*
X95380901Y-90931825D01*
X95528110Y-90976476D01*
X95758000Y-90855155D01*
X95758000Y-89662000D01*
X96012000Y-89662000D01*
X96012000Y-90855155D01*
X96241890Y-90976476D01*
X96389099Y-90931825D01*
X96651920Y-90806641D01*
X96885269Y-90632588D01*
X97080178Y-90416355D01*
X97155000Y-90290745D01*
X97229822Y-90416355D01*
X97424731Y-90632588D01*
X97658080Y-90806641D01*
X97920901Y-90931825D01*
X98068110Y-90976476D01*
X98298000Y-90855155D01*
X98298000Y-89662000D01*
X96012000Y-89662000D01*
X95758000Y-89662000D01*
X95738000Y-89662000D01*
X95738000Y-89408000D01*
X95758000Y-89408000D01*
X95758000Y-88214845D01*
X96012000Y-88214845D01*
X96012000Y-89408000D01*
X98298000Y-89408000D01*
X98298000Y-88214845D01*
X98552000Y-88214845D01*
X98552000Y-89408000D01*
X98572000Y-89408000D01*
X98572000Y-89662000D01*
X98552000Y-89662000D01*
X98552000Y-90855155D01*
X98781890Y-90976476D01*
X98929099Y-90931825D01*
X99191920Y-90806641D01*
X99425269Y-90632588D01*
X99620178Y-90416355D01*
X99689799Y-90299477D01*
X99724294Y-90364014D01*
X99909866Y-90590134D01*
X100135986Y-90775706D01*
X100393966Y-90913599D01*
X100673889Y-90998513D01*
X100892050Y-91020000D01*
X101037950Y-91020000D01*
X101256111Y-90998513D01*
X101536034Y-90913599D01*
X101794014Y-90775706D01*
X102020134Y-90590134D01*
X102205706Y-90364014D01*
X102235000Y-90309209D01*
X102264294Y-90364014D01*
X102449866Y-90590134D01*
X102675986Y-90775706D01*
X102933966Y-90913599D01*
X103213889Y-90998513D01*
X103432050Y-91020000D01*
X103577950Y-91020000D01*
X103796111Y-90998513D01*
X103896386Y-90968095D01*
X106218557Y-93290267D01*
X106241625Y-93318375D01*
X106353787Y-93410424D01*
X106481751Y-93478822D01*
X106620601Y-93520942D01*
X106728814Y-93531600D01*
X106728823Y-93531600D01*
X106764999Y-93535163D01*
X106801175Y-93531600D01*
X110759474Y-93531600D01*
X110724632Y-93583744D01*
X110648044Y-93768644D01*
X110609000Y-93964933D01*
X110609000Y-94165067D01*
X110648044Y-94361356D01*
X110724632Y-94546256D01*
X110835821Y-94712662D01*
X110977338Y-94854179D01*
X111143744Y-94965368D01*
X111328644Y-95041956D01*
X111524933Y-95081000D01*
X111725067Y-95081000D01*
X111921356Y-95041956D01*
X112106256Y-94965368D01*
X112272662Y-94854179D01*
X112414179Y-94712662D01*
X112525368Y-94546256D01*
X112601956Y-94361356D01*
X112641000Y-94165067D01*
X112641000Y-93964933D01*
X112601956Y-93768644D01*
X112525368Y-93583744D01*
X112490526Y-93531600D01*
X116563559Y-93531600D01*
X116550821Y-93544338D01*
X116439632Y-93710744D01*
X116363044Y-93895644D01*
X116324000Y-94091933D01*
X116324000Y-94292067D01*
X116363044Y-94488356D01*
X116439632Y-94673256D01*
X116550821Y-94839662D01*
X116692338Y-94981179D01*
X116858744Y-95092368D01*
X117043644Y-95168956D01*
X117239933Y-95208000D01*
X117440067Y-95208000D01*
X117636356Y-95168956D01*
X117821256Y-95092368D01*
X117987662Y-94981179D01*
X118129179Y-94839662D01*
X118240368Y-94673256D01*
X118316956Y-94488356D01*
X118356000Y-94292067D01*
X118356000Y-94091933D01*
X118316956Y-93895644D01*
X118240368Y-93710744D01*
X118129179Y-93544338D01*
X118116441Y-93531600D01*
X120209891Y-93531600D01*
X120769000Y-94090710D01*
X120769000Y-94165067D01*
X120808044Y-94361356D01*
X120884632Y-94546256D01*
X120995821Y-94712662D01*
X121137338Y-94854179D01*
X121303744Y-94965368D01*
X121488644Y-95041956D01*
X121684933Y-95081000D01*
X121759291Y-95081000D01*
X127398401Y-100720111D01*
X127398401Y-100984758D01*
X127345821Y-101037338D01*
X127234632Y-101203744D01*
X127158044Y-101388644D01*
X127119000Y-101584933D01*
X127119000Y-101785067D01*
X127158044Y-101981356D01*
X127234632Y-102166256D01*
X127345821Y-102332662D01*
X127487338Y-102474179D01*
X127653744Y-102585368D01*
X127838644Y-102661956D01*
X128034933Y-102701000D01*
X128235067Y-102701000D01*
X128431356Y-102661956D01*
X128616256Y-102585368D01*
X128782662Y-102474179D01*
X128924179Y-102332662D01*
X129035368Y-102166256D01*
X129111956Y-101981356D01*
X129151000Y-101785067D01*
X129151000Y-101584933D01*
X129111956Y-101388644D01*
X129035368Y-101203744D01*
X128924179Y-101037338D01*
X128871600Y-100984759D01*
X128871600Y-100451175D01*
X128875163Y-100414999D01*
X128871600Y-100378823D01*
X128871600Y-100378814D01*
X128860942Y-100270601D01*
X128818822Y-100131751D01*
X128750424Y-100003787D01*
X128658375Y-99891625D01*
X128630269Y-99868559D01*
X123833975Y-95072266D01*
X123986356Y-95041956D01*
X124171256Y-94965368D01*
X124337662Y-94854179D01*
X124479179Y-94712662D01*
X124590368Y-94546256D01*
X124666956Y-94361356D01*
X124706000Y-94165067D01*
X124706000Y-93964933D01*
X124666956Y-93768644D01*
X124590368Y-93583744D01*
X124479179Y-93417338D01*
X124337662Y-93275821D01*
X124171256Y-93164632D01*
X123986356Y-93088044D01*
X123790067Y-93049000D01*
X123715710Y-93049000D01*
X122331445Y-91664736D01*
X122308375Y-91636625D01*
X122196213Y-91544576D01*
X122068249Y-91476178D01*
X121929399Y-91434058D01*
X121821186Y-91423400D01*
X121821183Y-91423400D01*
X121785000Y-91419836D01*
X121748817Y-91423400D01*
X116135241Y-91423400D01*
X116082662Y-91370821D01*
X115916256Y-91259632D01*
X115731356Y-91183044D01*
X115535067Y-91144000D01*
X115334933Y-91144000D01*
X115138644Y-91183044D01*
X114953744Y-91259632D01*
X114787338Y-91370821D01*
X114645821Y-91512338D01*
X114534632Y-91678744D01*
X114458044Y-91863644D01*
X114419305Y-92058400D01*
X107070110Y-92058400D01*
X106031710Y-91020000D01*
X106117950Y-91020000D01*
X106336111Y-90998513D01*
X106616034Y-90913599D01*
X106874014Y-90775706D01*
X107100134Y-90590134D01*
X107285706Y-90364014D01*
X107315000Y-90309209D01*
X107344294Y-90364014D01*
X107529866Y-90590134D01*
X107755986Y-90775706D01*
X108013966Y-90913599D01*
X108293889Y-90998513D01*
X108512050Y-91020000D01*
X108657950Y-91020000D01*
X108876111Y-90998513D01*
X109156034Y-90913599D01*
X109414014Y-90775706D01*
X109640134Y-90590134D01*
X109825706Y-90364014D01*
X109855000Y-90309209D01*
X109884294Y-90364014D01*
X110069866Y-90590134D01*
X110295986Y-90775706D01*
X110553966Y-90913599D01*
X110833889Y-90998513D01*
X111052050Y-91020000D01*
X111197950Y-91020000D01*
X111416111Y-90998513D01*
X111696034Y-90913599D01*
X111954014Y-90775706D01*
X112180134Y-90590134D01*
X112365706Y-90364014D01*
X112395000Y-90309209D01*
X112424294Y-90364014D01*
X112609866Y-90590134D01*
X112835986Y-90775706D01*
X113093966Y-90913599D01*
X113373889Y-90998513D01*
X113592050Y-91020000D01*
X113737950Y-91020000D01*
X113956111Y-90998513D01*
X114236034Y-90913599D01*
X114494014Y-90775706D01*
X114720134Y-90590134D01*
X114905706Y-90364014D01*
X114935000Y-90309209D01*
X114964294Y-90364014D01*
X115149866Y-90590134D01*
X115375986Y-90775706D01*
X115633966Y-90913599D01*
X115913889Y-90998513D01*
X116132050Y-91020000D01*
X116277950Y-91020000D01*
X116496111Y-90998513D01*
X116776034Y-90913599D01*
X117034014Y-90775706D01*
X117260134Y-90590134D01*
X117445706Y-90364014D01*
X117475000Y-90309209D01*
X117504294Y-90364014D01*
X117689866Y-90590134D01*
X117915986Y-90775706D01*
X118173966Y-90913599D01*
X118453889Y-90998513D01*
X118672050Y-91020000D01*
X118817950Y-91020000D01*
X119036111Y-90998513D01*
X119316034Y-90913599D01*
X119574014Y-90775706D01*
X119800134Y-90590134D01*
X119985706Y-90364014D01*
X120015000Y-90309209D01*
X120044294Y-90364014D01*
X120229866Y-90590134D01*
X120455986Y-90775706D01*
X120713966Y-90913599D01*
X120993889Y-90998513D01*
X121212050Y-91020000D01*
X121357950Y-91020000D01*
X121576111Y-90998513D01*
X121856034Y-90913599D01*
X122114014Y-90775706D01*
X122340134Y-90590134D01*
X122525706Y-90364014D01*
X122555000Y-90309209D01*
X122584294Y-90364014D01*
X122769866Y-90590134D01*
X122995986Y-90775706D01*
X123253966Y-90913599D01*
X123533889Y-90998513D01*
X123752050Y-91020000D01*
X123897950Y-91020000D01*
X124116111Y-90998513D01*
X124216386Y-90968095D01*
X127808554Y-94560263D01*
X127831625Y-94588375D01*
X127943787Y-94680424D01*
X128071751Y-94748822D01*
X128210601Y-94790942D01*
X128318814Y-94801600D01*
X128318823Y-94801600D01*
X128354999Y-94805163D01*
X128391175Y-94801600D01*
X128704759Y-94801600D01*
X128757338Y-94854179D01*
X128923744Y-94965368D01*
X129108644Y-95041956D01*
X129304933Y-95081000D01*
X129505067Y-95081000D01*
X129701356Y-95041956D01*
X129886256Y-94965368D01*
X130052662Y-94854179D01*
X130194179Y-94712662D01*
X130305368Y-94546256D01*
X130381956Y-94361356D01*
X130421000Y-94165067D01*
X130421000Y-93964933D01*
X130381956Y-93768644D01*
X130305368Y-93583744D01*
X130270526Y-93531600D01*
X131714474Y-93531600D01*
X131679632Y-93583744D01*
X131603044Y-93768644D01*
X131564000Y-93964933D01*
X131564000Y-94165067D01*
X131603044Y-94361356D01*
X131679632Y-94546256D01*
X131790821Y-94712662D01*
X131932338Y-94854179D01*
X132098744Y-94965368D01*
X132283644Y-95041956D01*
X132479933Y-95081000D01*
X132680067Y-95081000D01*
X132876356Y-95041956D01*
X133061256Y-94965368D01*
X133227662Y-94854179D01*
X133369179Y-94712662D01*
X133480368Y-94546256D01*
X133556956Y-94361356D01*
X133596000Y-94165067D01*
X133596000Y-93964933D01*
X133556956Y-93768644D01*
X133480368Y-93583744D01*
X133445526Y-93531600D01*
X135449891Y-93531600D01*
X136009000Y-94090710D01*
X136009000Y-94165067D01*
X136048044Y-94361356D01*
X136124632Y-94546256D01*
X136235821Y-94712662D01*
X136377338Y-94854179D01*
X136543744Y-94965368D01*
X136728644Y-95041956D01*
X136924933Y-95081000D01*
X137125067Y-95081000D01*
X137321356Y-95041956D01*
X137506256Y-94965368D01*
X137672662Y-94854179D01*
X137814179Y-94712662D01*
X137925368Y-94546256D01*
X138001956Y-94361356D01*
X138041000Y-94165067D01*
X138041000Y-93964933D01*
X138001956Y-93768644D01*
X137925368Y-93583744D01*
X137814179Y-93417338D01*
X137672662Y-93275821D01*
X137506256Y-93164632D01*
X137321356Y-93088044D01*
X137125067Y-93049000D01*
X137050710Y-93049000D01*
X136301445Y-92299736D01*
X136278375Y-92271625D01*
X136166213Y-92179576D01*
X136038249Y-92111178D01*
X135899399Y-92069058D01*
X135791186Y-92058400D01*
X135791183Y-92058400D01*
X135755000Y-92054836D01*
X135718817Y-92058400D01*
X129930110Y-92058400D01*
X128891710Y-91020000D01*
X128977950Y-91020000D01*
X129196111Y-90998513D01*
X129476034Y-90913599D01*
X129734014Y-90775706D01*
X129960134Y-90590134D01*
X130145706Y-90364014D01*
X130175000Y-90309209D01*
X130204294Y-90364014D01*
X130389866Y-90590134D01*
X130615986Y-90775706D01*
X130873966Y-90913599D01*
X131153889Y-90998513D01*
X131372050Y-91020000D01*
X131517950Y-91020000D01*
X131736111Y-90998513D01*
X132016034Y-90913599D01*
X132274014Y-90775706D01*
X132500134Y-90590134D01*
X132685706Y-90364014D01*
X132720201Y-90299477D01*
X132789822Y-90416355D01*
X132984731Y-90632588D01*
X133218080Y-90806641D01*
X133480901Y-90931825D01*
X133628110Y-90976476D01*
X133858000Y-90855155D01*
X133858000Y-89662000D01*
X133838000Y-89662000D01*
X133838000Y-89408000D01*
X133858000Y-89408000D01*
X133858000Y-88214845D01*
X134112000Y-88214845D01*
X134112000Y-89408000D01*
X134132000Y-89408000D01*
X134132000Y-89662000D01*
X134112000Y-89662000D01*
X134112000Y-90855155D01*
X134341890Y-90976476D01*
X134489099Y-90931825D01*
X134751920Y-90806641D01*
X134985269Y-90632588D01*
X135180178Y-90416355D01*
X135249799Y-90299477D01*
X135284294Y-90364014D01*
X135469866Y-90590134D01*
X135695986Y-90775706D01*
X135953966Y-90913599D01*
X136233889Y-90998513D01*
X136452050Y-91020000D01*
X136597950Y-91020000D01*
X136816111Y-90998513D01*
X137096034Y-90913599D01*
X137354014Y-90775706D01*
X137580134Y-90590134D01*
X137765706Y-90364014D01*
X137795000Y-90309209D01*
X137824294Y-90364014D01*
X138009866Y-90590134D01*
X138235986Y-90775706D01*
X138493966Y-90913599D01*
X138773889Y-90998513D01*
X138992050Y-91020000D01*
X139137950Y-91020000D01*
X139356111Y-90998513D01*
X139636034Y-90913599D01*
X139894014Y-90775706D01*
X140120134Y-90590134D01*
X140305706Y-90364014D01*
X140340201Y-90299477D01*
X140409822Y-90416355D01*
X140604731Y-90632588D01*
X140838080Y-90806641D01*
X141100901Y-90931825D01*
X141248110Y-90976476D01*
X141478000Y-90855155D01*
X141478000Y-89662000D01*
X141458000Y-89662000D01*
X141458000Y-89408000D01*
X141478000Y-89408000D01*
X141478000Y-88214845D01*
X141732000Y-88214845D01*
X141732000Y-89408000D01*
X141752000Y-89408000D01*
X141752000Y-89662000D01*
X141732000Y-89662000D01*
X141732000Y-90855155D01*
X141961890Y-90976476D01*
X142109099Y-90931825D01*
X142371920Y-90806641D01*
X142605269Y-90632588D01*
X142681034Y-90548534D01*
X142705498Y-90629180D01*
X142764463Y-90739494D01*
X142843815Y-90836185D01*
X142940506Y-90915537D01*
X143050820Y-90974502D01*
X143170518Y-91010812D01*
X143295000Y-91023072D01*
X144995000Y-91023072D01*
X145119482Y-91010812D01*
X145239180Y-90974502D01*
X145349494Y-90915537D01*
X145446185Y-90836185D01*
X145525537Y-90739494D01*
X145584502Y-90629180D01*
X145620812Y-90509482D01*
X145633072Y-90385000D01*
X145633072Y-88685000D01*
X145620812Y-88560518D01*
X145584502Y-88440820D01*
X145525537Y-88330506D01*
X145446185Y-88233815D01*
X145349494Y-88154463D01*
X145239180Y-88095498D01*
X145119482Y-88059188D01*
X144995000Y-88046928D01*
X143295000Y-88046928D01*
X143170518Y-88059188D01*
X143050820Y-88095498D01*
X142940506Y-88154463D01*
X142843815Y-88233815D01*
X142764463Y-88330506D01*
X142705498Y-88440820D01*
X142681034Y-88521466D01*
X142605269Y-88437412D01*
X142371920Y-88263359D01*
X142109099Y-88138175D01*
X141961890Y-88093524D01*
X141732000Y-88214845D01*
X141478000Y-88214845D01*
X141248110Y-88093524D01*
X141100901Y-88138175D01*
X140838080Y-88263359D01*
X140604731Y-88437412D01*
X140409822Y-88653645D01*
X140340201Y-88770523D01*
X140305706Y-88705986D01*
X140120134Y-88479866D01*
X139894014Y-88294294D01*
X139636034Y-88156401D01*
X139356111Y-88071487D01*
X139137950Y-88050000D01*
X138992050Y-88050000D01*
X138773889Y-88071487D01*
X138493966Y-88156401D01*
X138235986Y-88294294D01*
X138009866Y-88479866D01*
X137824294Y-88705986D01*
X137795000Y-88760791D01*
X137765706Y-88705986D01*
X137580134Y-88479866D01*
X137354014Y-88294294D01*
X137096034Y-88156401D01*
X136816111Y-88071487D01*
X136597950Y-88050000D01*
X136452050Y-88050000D01*
X136233889Y-88071487D01*
X135953966Y-88156401D01*
X135695986Y-88294294D01*
X135469866Y-88479866D01*
X135284294Y-88705986D01*
X135249799Y-88770523D01*
X135180178Y-88653645D01*
X134985269Y-88437412D01*
X134751920Y-88263359D01*
X134489099Y-88138175D01*
X134341890Y-88093524D01*
X134112000Y-88214845D01*
X133858000Y-88214845D01*
X133628110Y-88093524D01*
X133480901Y-88138175D01*
X133218080Y-88263359D01*
X132984731Y-88437412D01*
X132789822Y-88653645D01*
X132720201Y-88770523D01*
X132685706Y-88705986D01*
X132500134Y-88479866D01*
X132274014Y-88294294D01*
X132016034Y-88156401D01*
X131736111Y-88071487D01*
X131517950Y-88050000D01*
X131372050Y-88050000D01*
X131153889Y-88071487D01*
X130873966Y-88156401D01*
X130615986Y-88294294D01*
X130389866Y-88479866D01*
X130204294Y-88705986D01*
X130175000Y-88760791D01*
X130145706Y-88705986D01*
X129960134Y-88479866D01*
X129734014Y-88294294D01*
X129476034Y-88156401D01*
X129196111Y-88071487D01*
X128977950Y-88050000D01*
X128832050Y-88050000D01*
X128613889Y-88071487D01*
X128333966Y-88156401D01*
X128075986Y-88294294D01*
X127849866Y-88479866D01*
X127664294Y-88705986D01*
X127635000Y-88760791D01*
X127605706Y-88705986D01*
X127420134Y-88479866D01*
X127194014Y-88294294D01*
X126936034Y-88156401D01*
X126656111Y-88071487D01*
X126437950Y-88050000D01*
X126292050Y-88050000D01*
X126073889Y-88071487D01*
X125793966Y-88156401D01*
X125535986Y-88294294D01*
X125309866Y-88479866D01*
X125124294Y-88705986D01*
X125095000Y-88760791D01*
X125065706Y-88705986D01*
X124880134Y-88479866D01*
X124654014Y-88294294D01*
X124396034Y-88156401D01*
X124116111Y-88071487D01*
X123897950Y-88050000D01*
X123752050Y-88050000D01*
X123533889Y-88071487D01*
X123253966Y-88156401D01*
X122995986Y-88294294D01*
X122769866Y-88479866D01*
X122584294Y-88705986D01*
X122555000Y-88760791D01*
X122525706Y-88705986D01*
X122340134Y-88479866D01*
X122114014Y-88294294D01*
X121856034Y-88156401D01*
X121576111Y-88071487D01*
X121357950Y-88050000D01*
X121212050Y-88050000D01*
X120993889Y-88071487D01*
X120713966Y-88156401D01*
X120455986Y-88294294D01*
X120229866Y-88479866D01*
X120044294Y-88705986D01*
X120015000Y-88760791D01*
X119985706Y-88705986D01*
X119800134Y-88479866D01*
X119574014Y-88294294D01*
X119316034Y-88156401D01*
X119036111Y-88071487D01*
X118817950Y-88050000D01*
X118672050Y-88050000D01*
X118453889Y-88071487D01*
X118173966Y-88156401D01*
X117915986Y-88294294D01*
X117689866Y-88479866D01*
X117504294Y-88705986D01*
X117475000Y-88760791D01*
X117445706Y-88705986D01*
X117260134Y-88479866D01*
X117034014Y-88294294D01*
X116776034Y-88156401D01*
X116496111Y-88071487D01*
X116277950Y-88050000D01*
X116132050Y-88050000D01*
X115913889Y-88071487D01*
X115633966Y-88156401D01*
X115375986Y-88294294D01*
X115149866Y-88479866D01*
X114964294Y-88705986D01*
X114935000Y-88760791D01*
X114905706Y-88705986D01*
X114720134Y-88479866D01*
X114494014Y-88294294D01*
X114236034Y-88156401D01*
X113956111Y-88071487D01*
X113737950Y-88050000D01*
X113592050Y-88050000D01*
X113373889Y-88071487D01*
X113093966Y-88156401D01*
X112835986Y-88294294D01*
X112609866Y-88479866D01*
X112424294Y-88705986D01*
X112395000Y-88760791D01*
X112365706Y-88705986D01*
X112180134Y-88479866D01*
X111954014Y-88294294D01*
X111696034Y-88156401D01*
X111416111Y-88071487D01*
X111197950Y-88050000D01*
X111052050Y-88050000D01*
X110833889Y-88071487D01*
X110553966Y-88156401D01*
X110295986Y-88294294D01*
X110069866Y-88479866D01*
X109884294Y-88705986D01*
X109855000Y-88760791D01*
X109825706Y-88705986D01*
X109640134Y-88479866D01*
X109414014Y-88294294D01*
X109156034Y-88156401D01*
X108876111Y-88071487D01*
X108657950Y-88050000D01*
X108512050Y-88050000D01*
X108293889Y-88071487D01*
X108013966Y-88156401D01*
X107755986Y-88294294D01*
X107529866Y-88479866D01*
X107344294Y-88705986D01*
X107315000Y-88760791D01*
X107285706Y-88705986D01*
X107100134Y-88479866D01*
X106874014Y-88294294D01*
X106616034Y-88156401D01*
X106336111Y-88071487D01*
X106117950Y-88050000D01*
X105972050Y-88050000D01*
X105753889Y-88071487D01*
X105473966Y-88156401D01*
X105215986Y-88294294D01*
X104989866Y-88479866D01*
X104804294Y-88705986D01*
X104775000Y-88760791D01*
X104745706Y-88705986D01*
X104560134Y-88479866D01*
X104334014Y-88294294D01*
X104076034Y-88156401D01*
X103796111Y-88071487D01*
X103577950Y-88050000D01*
X103432050Y-88050000D01*
X103213889Y-88071487D01*
X102933966Y-88156401D01*
X102675986Y-88294294D01*
X102449866Y-88479866D01*
X102264294Y-88705986D01*
X102235000Y-88760791D01*
X102205706Y-88705986D01*
X102020134Y-88479866D01*
X101794014Y-88294294D01*
X101536034Y-88156401D01*
X101256111Y-88071487D01*
X101037950Y-88050000D01*
X100892050Y-88050000D01*
X100673889Y-88071487D01*
X100393966Y-88156401D01*
X100135986Y-88294294D01*
X99909866Y-88479866D01*
X99724294Y-88705986D01*
X99689799Y-88770523D01*
X99620178Y-88653645D01*
X99425269Y-88437412D01*
X99191920Y-88263359D01*
X98929099Y-88138175D01*
X98781890Y-88093524D01*
X98552000Y-88214845D01*
X98298000Y-88214845D01*
X98068110Y-88093524D01*
X97920901Y-88138175D01*
X97658080Y-88263359D01*
X97424731Y-88437412D01*
X97229822Y-88653645D01*
X97155000Y-88779255D01*
X97080178Y-88653645D01*
X96885269Y-88437412D01*
X96651920Y-88263359D01*
X96389099Y-88138175D01*
X96241890Y-88093524D01*
X96012000Y-88214845D01*
X95758000Y-88214845D01*
X95528110Y-88093524D01*
X95380901Y-88138175D01*
X95118080Y-88263359D01*
X94884731Y-88437412D01*
X94689822Y-88653645D01*
X94555000Y-88879982D01*
X94555000Y-87842000D01*
X149015000Y-87842000D01*
X149015001Y-122565000D01*
X149015001Y-122565000D01*
G37*
X149015001Y-122565000D02*
X94555000Y-122565000D01*
X94555000Y-115445000D01*
X97447746Y-115445000D01*
X97451800Y-115486163D01*
X97451801Y-120058828D01*
X97447746Y-120100000D01*
X97463929Y-120264315D01*
X97511858Y-120422316D01*
X97589691Y-120567931D01*
X97609328Y-120591858D01*
X97694437Y-120695564D01*
X97726413Y-120721806D01*
X98938193Y-121933587D01*
X98964436Y-121965564D01*
X99092068Y-122070309D01*
X99237683Y-122148142D01*
X99395684Y-122196071D01*
X99518830Y-122208200D01*
X99518839Y-122208200D01*
X99559999Y-122212254D01*
X99601159Y-122208200D01*
X117298830Y-122208200D01*
X117340000Y-122212255D01*
X117381170Y-122208200D01*
X137618837Y-122208200D01*
X137660000Y-122212254D01*
X137701163Y-122208200D01*
X137701170Y-122208200D01*
X137824316Y-122196071D01*
X137982317Y-122148142D01*
X138127932Y-122070309D01*
X138255564Y-121965564D01*
X138281811Y-121933582D01*
X142033588Y-118181806D01*
X142065564Y-118155564D01*
X142170309Y-118027932D01*
X142248142Y-117882317D01*
X142296071Y-117724316D01*
X142308200Y-117601170D01*
X142308200Y-117601163D01*
X142312254Y-117560000D01*
X142308200Y-117518837D01*
X142308200Y-108378161D01*
X142312254Y-108337001D01*
X142308200Y-108295841D01*
X142308200Y-106919023D01*
X142320990Y-106888145D01*
X142355000Y-106717165D01*
X142355000Y-105716574D01*
X142355113Y-105716002D01*
X142354884Y-105541672D01*
X142320649Y-105370736D01*
X142254827Y-105211826D01*
X142193631Y-105210515D01*
X142173690Y-105185714D01*
X142171985Y-105184283D01*
X142170577Y-105182557D01*
X142124527Y-105144461D01*
X142078754Y-105106053D01*
X142076802Y-105104980D01*
X142075087Y-105103561D01*
X142022539Y-105075149D01*
X141970153Y-105046349D01*
X141968029Y-105045675D01*
X141966072Y-105044617D01*
X141909050Y-105026966D01*
X141891953Y-105021542D01*
X141888174Y-104845173D01*
X141727026Y-104778672D01*
X141556002Y-104744887D01*
X141381672Y-104745116D01*
X141210736Y-104779351D01*
X141051826Y-104845173D01*
X141048042Y-105021772D01*
X141039379Y-105024388D01*
X140982125Y-105041238D01*
X140980153Y-105042269D01*
X140978020Y-105042913D01*
X140925219Y-105070988D01*
X140872297Y-105098655D01*
X140870563Y-105100049D01*
X140868596Y-105101095D01*
X140822263Y-105138883D01*
X140775714Y-105176310D01*
X140774283Y-105178015D01*
X140772557Y-105179423D01*
X140746844Y-105210505D01*
X140685173Y-105211826D01*
X140618672Y-105372974D01*
X140584887Y-105543998D01*
X140585000Y-105630000D01*
X140585000Y-106717165D01*
X140619010Y-106888145D01*
X140631801Y-106919025D01*
X140631800Y-107989806D01*
X135810730Y-112810877D01*
X135570033Y-112763000D01*
X135247967Y-112763000D01*
X134932088Y-112825832D01*
X134634537Y-112949082D01*
X134366748Y-113128013D01*
X134139013Y-113355748D01*
X133960082Y-113623537D01*
X133836832Y-113921088D01*
X133774000Y-114236967D01*
X133774000Y-114559033D01*
X133836832Y-114874912D01*
X133960082Y-115172463D01*
X134139013Y-115440252D01*
X134366748Y-115667987D01*
X134443105Y-115719007D01*
X134288218Y-115654851D01*
X133851591Y-115568000D01*
X133406409Y-115568000D01*
X132969782Y-115654851D01*
X132558489Y-115825214D01*
X132226159Y-116047270D01*
X132227072Y-116038000D01*
X132224000Y-115573750D01*
X132065250Y-115415000D01*
X130966000Y-115415000D01*
X130966000Y-116514250D01*
X131124750Y-116673000D01*
X131589000Y-116676072D01*
X131687069Y-116666413D01*
X131626214Y-116757489D01*
X131455851Y-117168782D01*
X131369000Y-117605409D01*
X131369000Y-118050591D01*
X131455851Y-118487218D01*
X131626214Y-118898511D01*
X131873544Y-119268666D01*
X132188334Y-119583456D01*
X132558489Y-119830786D01*
X132969782Y-120001149D01*
X133406409Y-120088000D01*
X133851591Y-120088000D01*
X134288218Y-120001149D01*
X134699511Y-119830786D01*
X135069666Y-119583456D01*
X135384456Y-119268666D01*
X135631786Y-118898511D01*
X135802149Y-118487218D01*
X135889000Y-118050591D01*
X135889000Y-117605409D01*
X135802149Y-117168782D01*
X135631786Y-116757489D01*
X135384456Y-116387334D01*
X135069666Y-116072544D01*
X134890944Y-115953125D01*
X134932088Y-115970168D01*
X135247967Y-116033000D01*
X135570033Y-116033000D01*
X135885912Y-115970168D01*
X136183463Y-115846918D01*
X136451252Y-115667987D01*
X136678987Y-115440252D01*
X136857918Y-115172463D01*
X136981168Y-114874912D01*
X137044000Y-114559033D01*
X137044000Y-114236967D01*
X136996123Y-113996270D01*
X140631800Y-110360594D01*
X140631801Y-117212805D01*
X137312807Y-120531800D01*
X118178200Y-120531800D01*
X118178200Y-116554193D01*
X118747271Y-115985123D01*
X118987967Y-116033000D01*
X119310033Y-116033000D01*
X119625912Y-115970168D01*
X119667056Y-115953125D01*
X119488334Y-116072544D01*
X119173544Y-116387334D01*
X118926214Y-116757489D01*
X118755851Y-117168782D01*
X118669000Y-117605409D01*
X118669000Y-118050591D01*
X118755851Y-118487218D01*
X118926214Y-118898511D01*
X119173544Y-119268666D01*
X119488334Y-119583456D01*
X119858489Y-119830786D01*
X120269782Y-120001149D01*
X120706409Y-120088000D01*
X121151591Y-120088000D01*
X121588218Y-120001149D01*
X121999511Y-119830786D01*
X122369666Y-119583456D01*
X122684456Y-119268666D01*
X122931786Y-118898511D01*
X123102149Y-118487218D01*
X123189000Y-118050591D01*
X123189000Y-117605409D01*
X123102149Y-117168782D01*
X122931786Y-116757489D01*
X122684456Y-116387334D01*
X122369666Y-116072544D01*
X121999511Y-115825214D01*
X121588218Y-115654851D01*
X121151591Y-115568000D01*
X120706409Y-115568000D01*
X120269782Y-115654851D01*
X120114895Y-115719007D01*
X120191252Y-115667987D01*
X120418987Y-115440252D01*
X120597918Y-115172463D01*
X120721168Y-114874912D01*
X120784000Y-114559033D01*
X120784000Y-114236967D01*
X120721168Y-113921088D01*
X120597918Y-113623537D01*
X120429572Y-113371589D01*
X122314000Y-113371589D01*
X122314000Y-113644411D01*
X122367225Y-113911989D01*
X122471629Y-114164043D01*
X122623201Y-114390886D01*
X122816114Y-114583799D01*
X123042957Y-114735371D01*
X123295011Y-114839775D01*
X123397134Y-114860089D01*
X123387225Y-114884011D01*
X123334000Y-115151589D01*
X123334000Y-115424411D01*
X123387225Y-115691989D01*
X123491629Y-115944043D01*
X123643201Y-116170886D01*
X123836114Y-116363799D01*
X124062957Y-116515371D01*
X124315011Y-116619775D01*
X124582589Y-116673000D01*
X124855411Y-116673000D01*
X125122989Y-116619775D01*
X125375043Y-116515371D01*
X125601886Y-116363799D01*
X125739000Y-116226685D01*
X125876114Y-116363799D01*
X126102957Y-116515371D01*
X126355011Y-116619775D01*
X126622589Y-116673000D01*
X126895411Y-116673000D01*
X127162989Y-116619775D01*
X127415043Y-116515371D01*
X127641886Y-116363799D01*
X127779000Y-116226685D01*
X127916114Y-116363799D01*
X128142957Y-116515371D01*
X128395011Y-116619775D01*
X128662589Y-116673000D01*
X128935411Y-116673000D01*
X129202989Y-116619775D01*
X129455043Y-116515371D01*
X129586965Y-116427224D01*
X129637815Y-116489185D01*
X129734506Y-116568537D01*
X129844820Y-116627502D01*
X129964518Y-116663812D01*
X130089000Y-116676072D01*
X130553250Y-116673000D01*
X130712000Y-116514250D01*
X130712000Y-115415000D01*
X130692000Y-115415000D01*
X130692000Y-115161000D01*
X130712000Y-115161000D01*
X130712000Y-115141000D01*
X130966000Y-115141000D01*
X130966000Y-115161000D01*
X132065250Y-115161000D01*
X132224000Y-115002250D01*
X132227072Y-114538000D01*
X132214812Y-114413518D01*
X132178502Y-114293820D01*
X132119537Y-114183506D01*
X132040185Y-114086815D01*
X131943494Y-114007463D01*
X131833180Y-113948498D01*
X131713482Y-113912188D01*
X131589000Y-113899928D01*
X131152600Y-113902816D01*
X131204000Y-113644411D01*
X131204000Y-113371589D01*
X131150775Y-113104011D01*
X131046371Y-112851957D01*
X130894799Y-112625114D01*
X130701886Y-112432201D01*
X130475043Y-112280629D01*
X130222989Y-112176225D01*
X129955411Y-112123000D01*
X129682589Y-112123000D01*
X129415011Y-112176225D01*
X129162957Y-112280629D01*
X128936114Y-112432201D01*
X128799000Y-112569315D01*
X128661886Y-112432201D01*
X128515600Y-112334456D01*
X128515600Y-111038072D01*
X128760001Y-111038072D01*
X128933255Y-111021008D01*
X129099851Y-110970472D01*
X129247122Y-110891754D01*
X129246928Y-110910000D01*
X129259188Y-111034482D01*
X129295498Y-111154180D01*
X129354463Y-111264494D01*
X129433815Y-111361185D01*
X129530506Y-111440537D01*
X129640820Y-111499502D01*
X129760518Y-111535812D01*
X129885000Y-111548072D01*
X130299250Y-111545000D01*
X130458000Y-111386250D01*
X130458000Y-110462000D01*
X130712000Y-110462000D01*
X130712000Y-111386250D01*
X130870750Y-111545000D01*
X131285000Y-111548072D01*
X131409482Y-111535812D01*
X131529180Y-111499502D01*
X131639494Y-111440537D01*
X131736185Y-111361185D01*
X131815537Y-111264494D01*
X131874502Y-111154180D01*
X131910812Y-111034482D01*
X131923072Y-110910000D01*
X133691928Y-110910000D01*
X133704188Y-111034482D01*
X133740498Y-111154180D01*
X133799463Y-111264494D01*
X133878815Y-111361185D01*
X133975506Y-111440537D01*
X134085820Y-111499502D01*
X134205518Y-111535812D01*
X134330000Y-111548072D01*
X134744250Y-111545000D01*
X134903000Y-111386250D01*
X134903000Y-110462000D01*
X135157000Y-110462000D01*
X135157000Y-111386250D01*
X135315750Y-111545000D01*
X135730000Y-111548072D01*
X135854482Y-111535812D01*
X135974180Y-111499502D01*
X136084494Y-111440537D01*
X136181185Y-111361185D01*
X136260537Y-111264494D01*
X136319502Y-111154180D01*
X136355812Y-111034482D01*
X136368072Y-110910000D01*
X136365000Y-110620750D01*
X136206250Y-110462000D01*
X135157000Y-110462000D01*
X134903000Y-110462000D01*
X133853750Y-110462000D01*
X133695000Y-110620750D01*
X133691928Y-110910000D01*
X131923072Y-110910000D01*
X131920000Y-110620750D01*
X131761250Y-110462000D01*
X130712000Y-110462000D01*
X130458000Y-110462000D01*
X130438000Y-110462000D01*
X130438000Y-110208000D01*
X130458000Y-110208000D01*
X130458000Y-110188000D01*
X130712000Y-110188000D01*
X130712000Y-110208000D01*
X131761250Y-110208000D01*
X131920000Y-110049250D01*
X131923072Y-109760000D01*
X131910812Y-109635518D01*
X131874502Y-109515820D01*
X131815537Y-109405506D01*
X131736185Y-109308815D01*
X131656406Y-109243342D01*
X131662962Y-109237962D01*
X131773405Y-109103387D01*
X131855472Y-108949851D01*
X131906008Y-108783255D01*
X131923072Y-108610001D01*
X131923072Y-107959999D01*
X133691928Y-107959999D01*
X133691928Y-108610001D01*
X133708992Y-108783255D01*
X133759528Y-108949851D01*
X133841595Y-109103387D01*
X133952038Y-109237962D01*
X133958594Y-109243342D01*
X133878815Y-109308815D01*
X133799463Y-109405506D01*
X133740498Y-109515820D01*
X133704188Y-109635518D01*
X133691928Y-109760000D01*
X133695000Y-110049250D01*
X133853750Y-110208000D01*
X134903000Y-110208000D01*
X134903000Y-110188000D01*
X135157000Y-110188000D01*
X135157000Y-110208000D01*
X136206250Y-110208000D01*
X136365000Y-110049250D01*
X136368072Y-109760000D01*
X136355812Y-109635518D01*
X136319502Y-109515820D01*
X136260537Y-109405506D01*
X136181185Y-109308815D01*
X136101406Y-109243342D01*
X136107962Y-109237962D01*
X136218405Y-109103387D01*
X136300472Y-108949851D01*
X136351008Y-108783255D01*
X136368072Y-108610001D01*
X136368072Y-107974079D01*
X136370424Y-107971213D01*
X136419178Y-107880000D01*
X136438822Y-107843249D01*
X136480942Y-107704399D01*
X136491600Y-107596186D01*
X136495164Y-107560000D01*
X136491600Y-107523814D01*
X136491600Y-107465241D01*
X136544179Y-107412662D01*
X136655368Y-107246256D01*
X136731956Y-107061356D01*
X136771000Y-106865067D01*
X136771000Y-106664933D01*
X136731956Y-106468644D01*
X136655368Y-106283744D01*
X136544179Y-106117338D01*
X136402662Y-105975821D01*
X136236256Y-105864632D01*
X136051356Y-105788044D01*
X135855067Y-105749000D01*
X135654933Y-105749000D01*
X135458644Y-105788044D01*
X135273744Y-105864632D01*
X135107338Y-105975821D01*
X134965821Y-106117338D01*
X134854632Y-106283744D01*
X134778044Y-106468644D01*
X134739000Y-106664933D01*
X134739000Y-106865067D01*
X134778044Y-107061356D01*
X134782423Y-107071928D01*
X134579999Y-107071928D01*
X134406745Y-107088992D01*
X134240149Y-107139528D01*
X134086613Y-107221595D01*
X133952038Y-107332038D01*
X133841595Y-107466613D01*
X133759528Y-107620149D01*
X133708992Y-107786745D01*
X133691928Y-107959999D01*
X131923072Y-107959999D01*
X131906008Y-107786745D01*
X131855472Y-107620149D01*
X131773405Y-107466613D01*
X131662962Y-107332038D01*
X131528387Y-107221595D01*
X131374851Y-107139528D01*
X131208255Y-107088992D01*
X131035001Y-107071928D01*
X130368819Y-107071928D01*
X130305368Y-106918744D01*
X130194179Y-106752338D01*
X130052662Y-106610821D01*
X129886256Y-106499632D01*
X129701356Y-106423044D01*
X129505067Y-106384000D01*
X129304933Y-106384000D01*
X129108644Y-106423044D01*
X128923744Y-106499632D01*
X128770000Y-106602361D01*
X128616256Y-106499632D01*
X128431356Y-106423044D01*
X128235067Y-106384000D01*
X128034933Y-106384000D01*
X127838644Y-106423044D01*
X127653744Y-106499632D01*
X127500000Y-106602361D01*
X127346256Y-106499632D01*
X127161356Y-106423044D01*
X126965067Y-106384000D01*
X126764933Y-106384000D01*
X126568644Y-106423044D01*
X126383744Y-106499632D01*
X126217338Y-106610821D01*
X126075821Y-106752338D01*
X125964632Y-106918744D01*
X125888044Y-107103644D01*
X125849000Y-107299933D01*
X125849000Y-107372010D01*
X125838560Y-107384731D01*
X125838558Y-107384733D01*
X125769576Y-107468788D01*
X125701178Y-107596753D01*
X125694081Y-107620149D01*
X125661102Y-107728868D01*
X125659059Y-107735602D01*
X125644836Y-107880000D01*
X125648401Y-107916193D01*
X125648401Y-108467878D01*
X125566613Y-108511595D01*
X125432038Y-108622038D01*
X125321595Y-108756613D01*
X125239528Y-108910149D01*
X125188992Y-109076745D01*
X125171928Y-109249999D01*
X125171928Y-110150001D01*
X125188992Y-110323255D01*
X125239528Y-110489851D01*
X125321595Y-110643387D01*
X125432038Y-110777962D01*
X125566613Y-110888405D01*
X125720149Y-110970472D01*
X125886745Y-111021008D01*
X126022401Y-111034369D01*
X126022401Y-112152238D01*
X125875411Y-112123000D01*
X125602589Y-112123000D01*
X125335011Y-112176225D01*
X125082957Y-112280629D01*
X124856114Y-112432201D01*
X124719000Y-112569315D01*
X124581886Y-112432201D01*
X124355043Y-112280629D01*
X124102989Y-112176225D01*
X123835411Y-112123000D01*
X123562589Y-112123000D01*
X123295011Y-112176225D01*
X123042957Y-112280629D01*
X122816114Y-112432201D01*
X122623201Y-112625114D01*
X122471629Y-112851957D01*
X122367225Y-113104011D01*
X122314000Y-113371589D01*
X120429572Y-113371589D01*
X120418987Y-113355748D01*
X120191252Y-113128013D01*
X119923463Y-112949082D01*
X119625912Y-112825832D01*
X119310033Y-112763000D01*
X118987967Y-112763000D01*
X118672088Y-112825832D01*
X118374537Y-112949082D01*
X118106748Y-113128013D01*
X117879013Y-113355748D01*
X117700082Y-113623537D01*
X117576832Y-113921088D01*
X117514000Y-114236967D01*
X117514000Y-114559033D01*
X117561877Y-114799729D01*
X117373000Y-114988606D01*
X117184123Y-114799729D01*
X117232000Y-114559033D01*
X117232000Y-114236967D01*
X117169168Y-113921088D01*
X117045918Y-113623537D01*
X116866987Y-113355748D01*
X116639252Y-113128013D01*
X116371463Y-112949082D01*
X116073912Y-112825832D01*
X115758033Y-112763000D01*
X115435967Y-112763000D01*
X115120088Y-112825832D01*
X114822537Y-112949082D01*
X114554748Y-113128013D01*
X114327013Y-113355748D01*
X114148082Y-113623537D01*
X114024832Y-113921088D01*
X113962000Y-114236967D01*
X113962000Y-114559033D01*
X114024832Y-114874912D01*
X114148082Y-115172463D01*
X114327013Y-115440252D01*
X114554748Y-115667987D01*
X114631105Y-115719007D01*
X114476218Y-115654851D01*
X114039591Y-115568000D01*
X113594409Y-115568000D01*
X113157782Y-115654851D01*
X112746489Y-115825214D01*
X112414159Y-116047270D01*
X112415072Y-116038000D01*
X112412000Y-115573750D01*
X112253250Y-115415000D01*
X111154000Y-115415000D01*
X111154000Y-116514250D01*
X111312750Y-116673000D01*
X111777000Y-116676072D01*
X111875069Y-116666413D01*
X111814214Y-116757489D01*
X111643851Y-117168782D01*
X111557000Y-117605409D01*
X111557000Y-118050591D01*
X111643851Y-118487218D01*
X111814214Y-118898511D01*
X112061544Y-119268666D01*
X112376334Y-119583456D01*
X112746489Y-119830786D01*
X113157782Y-120001149D01*
X113594409Y-120088000D01*
X114039591Y-120088000D01*
X114476218Y-120001149D01*
X114887511Y-119830786D01*
X115257666Y-119583456D01*
X115572456Y-119268666D01*
X115819786Y-118898511D01*
X115990149Y-118487218D01*
X116077000Y-118050591D01*
X116077000Y-117605409D01*
X115990149Y-117168782D01*
X115819786Y-116757489D01*
X115572456Y-116387334D01*
X115257666Y-116072544D01*
X115078944Y-115953125D01*
X115120088Y-115970168D01*
X115435967Y-116033000D01*
X115758033Y-116033000D01*
X115998729Y-115985123D01*
X116501801Y-116488195D01*
X116501800Y-120531800D01*
X99907194Y-120531800D01*
X99128200Y-119752807D01*
X99128200Y-118919442D01*
X99361544Y-119268666D01*
X99676334Y-119583456D01*
X100046489Y-119830786D01*
X100457782Y-120001149D01*
X100894409Y-120088000D01*
X101339591Y-120088000D01*
X101776218Y-120001149D01*
X102187511Y-119830786D01*
X102557666Y-119583456D01*
X102872456Y-119268666D01*
X103119786Y-118898511D01*
X103290149Y-118487218D01*
X103377000Y-118050591D01*
X103377000Y-117605409D01*
X103290149Y-117168782D01*
X103119786Y-116757489D01*
X102872456Y-116387334D01*
X102557666Y-116072544D01*
X102187511Y-115825214D01*
X101776218Y-115654851D01*
X101339591Y-115568000D01*
X100894409Y-115568000D01*
X100457782Y-115654851D01*
X100302895Y-115719007D01*
X100379252Y-115667987D01*
X100606987Y-115440252D01*
X100785918Y-115172463D01*
X100909168Y-114874912D01*
X100972000Y-114559033D01*
X100972000Y-114236967D01*
X100909168Y-113921088D01*
X100785918Y-113623537D01*
X100617572Y-113371589D01*
X102502000Y-113371589D01*
X102502000Y-113644411D01*
X102555225Y-113911989D01*
X102659629Y-114164043D01*
X102811201Y-114390886D01*
X103004114Y-114583799D01*
X103230957Y-114735371D01*
X103483011Y-114839775D01*
X103585134Y-114860089D01*
X103575225Y-114884011D01*
X103522000Y-115151589D01*
X103522000Y-115424411D01*
X103575225Y-115691989D01*
X103679629Y-115944043D01*
X103831201Y-116170886D01*
X104024114Y-116363799D01*
X104250957Y-116515371D01*
X104503011Y-116619775D01*
X104770589Y-116673000D01*
X105043411Y-116673000D01*
X105310989Y-116619775D01*
X105563043Y-116515371D01*
X105789886Y-116363799D01*
X105927000Y-116226685D01*
X106064114Y-116363799D01*
X106290957Y-116515371D01*
X106543011Y-116619775D01*
X106810589Y-116673000D01*
X107083411Y-116673000D01*
X107350989Y-116619775D01*
X107603043Y-116515371D01*
X107829886Y-116363799D01*
X107967000Y-116226685D01*
X108104114Y-116363799D01*
X108330957Y-116515371D01*
X108583011Y-116619775D01*
X108850589Y-116673000D01*
X109123411Y-116673000D01*
X109390989Y-116619775D01*
X109643043Y-116515371D01*
X109774965Y-116427224D01*
X109825815Y-116489185D01*
X109922506Y-116568537D01*
X110032820Y-116627502D01*
X110152518Y-116663812D01*
X110277000Y-116676072D01*
X110741250Y-116673000D01*
X110900000Y-116514250D01*
X110900000Y-115415000D01*
X110880000Y-115415000D01*
X110880000Y-115161000D01*
X110900000Y-115161000D01*
X110900000Y-115141000D01*
X111154000Y-115141000D01*
X111154000Y-115161000D01*
X112253250Y-115161000D01*
X112412000Y-115002250D01*
X112415072Y-114538000D01*
X112402812Y-114413518D01*
X112366502Y-114293820D01*
X112307537Y-114183506D01*
X112228185Y-114086815D01*
X112131494Y-114007463D01*
X112021180Y-113948498D01*
X111901482Y-113912188D01*
X111777000Y-113899928D01*
X111340600Y-113902816D01*
X111392000Y-113644411D01*
X111392000Y-113371589D01*
X111338775Y-113104011D01*
X111234371Y-112851957D01*
X111082799Y-112625114D01*
X110889886Y-112432201D01*
X110663043Y-112280629D01*
X110410989Y-112176225D01*
X110143411Y-112123000D01*
X109870589Y-112123000D01*
X109603011Y-112176225D01*
X109350957Y-112280629D01*
X109124114Y-112432201D01*
X108987000Y-112569315D01*
X108849886Y-112432201D01*
X108703600Y-112334456D01*
X108703600Y-111673072D01*
X109075001Y-111673072D01*
X109248255Y-111656008D01*
X109414851Y-111605472D01*
X109568387Y-111523405D01*
X109702962Y-111412962D01*
X109747135Y-111359138D01*
X109748815Y-111361185D01*
X109845506Y-111440537D01*
X109955820Y-111499502D01*
X110075518Y-111535812D01*
X110200000Y-111548072D01*
X110614250Y-111545000D01*
X110773000Y-111386250D01*
X110773000Y-110462000D01*
X111027000Y-110462000D01*
X111027000Y-111386250D01*
X111185750Y-111545000D01*
X111600000Y-111548072D01*
X111724482Y-111535812D01*
X111844180Y-111499502D01*
X111954494Y-111440537D01*
X112051185Y-111361185D01*
X112130537Y-111264494D01*
X112189502Y-111154180D01*
X112225812Y-111034482D01*
X112238072Y-110910000D01*
X114006928Y-110910000D01*
X114019188Y-111034482D01*
X114055498Y-111154180D01*
X114114463Y-111264494D01*
X114193815Y-111361185D01*
X114290506Y-111440537D01*
X114400820Y-111499502D01*
X114520518Y-111535812D01*
X114645000Y-111548072D01*
X115059250Y-111545000D01*
X115218000Y-111386250D01*
X115218000Y-110462000D01*
X115472000Y-110462000D01*
X115472000Y-111386250D01*
X115630750Y-111545000D01*
X116045000Y-111548072D01*
X116169482Y-111535812D01*
X116289180Y-111499502D01*
X116399494Y-111440537D01*
X116496185Y-111361185D01*
X116575537Y-111264494D01*
X116634502Y-111154180D01*
X116670812Y-111034482D01*
X116683072Y-110910000D01*
X122261928Y-110910000D01*
X122274188Y-111034482D01*
X122310498Y-111154180D01*
X122369463Y-111264494D01*
X122448815Y-111361185D01*
X122545506Y-111440537D01*
X122655820Y-111499502D01*
X122775518Y-111535812D01*
X122900000Y-111548072D01*
X123314250Y-111545000D01*
X123473000Y-111386250D01*
X123473000Y-110462000D01*
X123727000Y-110462000D01*
X123727000Y-111386250D01*
X123885750Y-111545000D01*
X124300000Y-111548072D01*
X124424482Y-111535812D01*
X124544180Y-111499502D01*
X124654494Y-111440537D01*
X124751185Y-111361185D01*
X124830537Y-111264494D01*
X124889502Y-111154180D01*
X124925812Y-111034482D01*
X124938072Y-110910000D01*
X124935000Y-110620750D01*
X124776250Y-110462000D01*
X123727000Y-110462000D01*
X123473000Y-110462000D01*
X122423750Y-110462000D01*
X122265000Y-110620750D01*
X122261928Y-110910000D01*
X116683072Y-110910000D01*
X116680000Y-110620750D01*
X116521250Y-110462000D01*
X115472000Y-110462000D01*
X115218000Y-110462000D01*
X114168750Y-110462000D01*
X114010000Y-110620750D01*
X114006928Y-110910000D01*
X112238072Y-110910000D01*
X112235000Y-110620750D01*
X112076250Y-110462000D01*
X111027000Y-110462000D01*
X110773000Y-110462000D01*
X110753000Y-110462000D01*
X110753000Y-110208000D01*
X110773000Y-110208000D01*
X110773000Y-110188000D01*
X111027000Y-110188000D01*
X111027000Y-110208000D01*
X112076250Y-110208000D01*
X112235000Y-110049250D01*
X112238072Y-109760000D01*
X112225812Y-109635518D01*
X112189502Y-109515820D01*
X112130537Y-109405506D01*
X112051185Y-109308815D01*
X111971406Y-109243342D01*
X111977962Y-109237962D01*
X112088405Y-109103387D01*
X112170472Y-108949851D01*
X112221008Y-108783255D01*
X112238072Y-108610001D01*
X112238072Y-107959999D01*
X114006928Y-107959999D01*
X114006928Y-108610001D01*
X114023992Y-108783255D01*
X114074528Y-108949851D01*
X114156595Y-109103387D01*
X114267038Y-109237962D01*
X114273594Y-109243342D01*
X114193815Y-109308815D01*
X114114463Y-109405506D01*
X114055498Y-109515820D01*
X114019188Y-109635518D01*
X114006928Y-109760000D01*
X114010000Y-110049250D01*
X114168750Y-110208000D01*
X115218000Y-110208000D01*
X115218000Y-110188000D01*
X115472000Y-110188000D01*
X115472000Y-110208000D01*
X116521250Y-110208000D01*
X116680000Y-110049250D01*
X116683072Y-109760000D01*
X116670812Y-109635518D01*
X116634502Y-109515820D01*
X116575537Y-109405506D01*
X116496185Y-109308815D01*
X116416406Y-109243342D01*
X116422962Y-109237962D01*
X116533405Y-109103387D01*
X116615472Y-108949851D01*
X116666008Y-108783255D01*
X116683072Y-108610001D01*
X116683072Y-107959999D01*
X122261928Y-107959999D01*
X122261928Y-108610001D01*
X122278992Y-108783255D01*
X122329528Y-108949851D01*
X122411595Y-109103387D01*
X122522038Y-109237962D01*
X122528594Y-109243342D01*
X122448815Y-109308815D01*
X122369463Y-109405506D01*
X122310498Y-109515820D01*
X122274188Y-109635518D01*
X122261928Y-109760000D01*
X122265000Y-110049250D01*
X122423750Y-110208000D01*
X123473000Y-110208000D01*
X123473000Y-110188000D01*
X123727000Y-110188000D01*
X123727000Y-110208000D01*
X124776250Y-110208000D01*
X124935000Y-110049250D01*
X124938072Y-109760000D01*
X124925812Y-109635518D01*
X124889502Y-109515820D01*
X124830537Y-109405506D01*
X124751185Y-109308815D01*
X124671406Y-109243342D01*
X124677962Y-109237962D01*
X124788405Y-109103387D01*
X124870472Y-108949851D01*
X124921008Y-108783255D01*
X124938072Y-108610001D01*
X124938072Y-107959999D01*
X124921008Y-107786745D01*
X124870472Y-107620149D01*
X124788405Y-107466613D01*
X124677962Y-107332038D01*
X124625332Y-107288846D01*
X124666956Y-107188356D01*
X124706000Y-106992067D01*
X124706000Y-106791933D01*
X124666956Y-106595644D01*
X124590368Y-106410744D01*
X124479179Y-106244338D01*
X124337662Y-106102821D01*
X124171256Y-105991632D01*
X123986356Y-105915044D01*
X123790067Y-105876000D01*
X123589933Y-105876000D01*
X123393644Y-105915044D01*
X123208744Y-105991632D01*
X123042338Y-106102821D01*
X122900821Y-106244338D01*
X122789632Y-106410744D01*
X122713044Y-106595644D01*
X122674000Y-106791933D01*
X122674000Y-106992067D01*
X122713044Y-107188356D01*
X122714087Y-107190874D01*
X122656613Y-107221595D01*
X122522038Y-107332038D01*
X122411595Y-107466613D01*
X122329528Y-107620149D01*
X122278992Y-107786745D01*
X122261928Y-107959999D01*
X116683072Y-107959999D01*
X116666008Y-107786745D01*
X116615472Y-107620149D01*
X116533405Y-107466613D01*
X116422962Y-107332038D01*
X116389962Y-107304955D01*
X116411956Y-107251856D01*
X116451000Y-107055567D01*
X116451000Y-106855433D01*
X116411956Y-106659144D01*
X116335368Y-106474244D01*
X116224179Y-106307838D01*
X116082662Y-106166321D01*
X115916256Y-106055132D01*
X115731356Y-105978544D01*
X115535067Y-105939500D01*
X115334933Y-105939500D01*
X115138644Y-105978544D01*
X114953744Y-106055132D01*
X114787338Y-106166321D01*
X114645821Y-106307838D01*
X114534632Y-106474244D01*
X114458044Y-106659144D01*
X114419000Y-106855433D01*
X114419000Y-107055567D01*
X114447180Y-107197239D01*
X114401613Y-107221595D01*
X114267038Y-107332038D01*
X114156595Y-107466613D01*
X114074528Y-107620149D01*
X114023992Y-107786745D01*
X114006928Y-107959999D01*
X112238072Y-107959999D01*
X112221008Y-107786745D01*
X112170472Y-107620149D01*
X112088405Y-107466613D01*
X111977962Y-107332038D01*
X111843387Y-107221595D01*
X111689851Y-107139528D01*
X111523255Y-107088992D01*
X111350001Y-107071928D01*
X110736000Y-107071928D01*
X110736000Y-106982433D01*
X110696956Y-106786144D01*
X110620368Y-106601244D01*
X110509179Y-106434838D01*
X110367662Y-106293321D01*
X110201256Y-106182132D01*
X110016356Y-106105544D01*
X109820067Y-106066500D01*
X109619933Y-106066500D01*
X109423644Y-106105544D01*
X109238744Y-106182132D01*
X109085000Y-106284861D01*
X108931256Y-106182132D01*
X108746356Y-106105544D01*
X108550067Y-106066500D01*
X108349933Y-106066500D01*
X108153644Y-106105544D01*
X107968744Y-106182132D01*
X107815000Y-106284861D01*
X107661256Y-106182132D01*
X107476356Y-106105544D01*
X107280067Y-106066500D01*
X107079933Y-106066500D01*
X106883644Y-106105544D01*
X106698744Y-106182132D01*
X106532338Y-106293321D01*
X106390821Y-106434838D01*
X106279632Y-106601244D01*
X106203044Y-106786144D01*
X106164000Y-106982433D01*
X106164000Y-107054510D01*
X106153560Y-107067231D01*
X106153558Y-107067233D01*
X106084576Y-107151288D01*
X106060582Y-107196178D01*
X106016179Y-107279251D01*
X105974818Y-107415601D01*
X105974059Y-107418102D01*
X105959836Y-107562500D01*
X105963401Y-107598693D01*
X105963400Y-109102879D01*
X105881613Y-109146595D01*
X105747038Y-109257038D01*
X105636595Y-109391613D01*
X105554528Y-109545149D01*
X105503992Y-109711745D01*
X105486928Y-109884999D01*
X105486928Y-110785001D01*
X105503992Y-110958255D01*
X105554528Y-111124851D01*
X105636595Y-111278387D01*
X105747038Y-111412962D01*
X105881613Y-111523405D01*
X106035149Y-111605472D01*
X106201745Y-111656008D01*
X106210401Y-111656861D01*
X106210401Y-112152238D01*
X106063411Y-112123000D01*
X105790589Y-112123000D01*
X105523011Y-112176225D01*
X105270957Y-112280629D01*
X105044114Y-112432201D01*
X104907000Y-112569315D01*
X104769886Y-112432201D01*
X104543043Y-112280629D01*
X104290989Y-112176225D01*
X104023411Y-112123000D01*
X103750589Y-112123000D01*
X103483011Y-112176225D01*
X103230957Y-112280629D01*
X103004114Y-112432201D01*
X102811201Y-112625114D01*
X102659629Y-112851957D01*
X102555225Y-113104011D01*
X102502000Y-113371589D01*
X100617572Y-113371589D01*
X100606987Y-113355748D01*
X100379252Y-113128013D01*
X100111463Y-112949082D01*
X99813912Y-112825832D01*
X99498033Y-112763000D01*
X99175967Y-112763000D01*
X98860088Y-112825832D01*
X98562537Y-112949082D01*
X98294748Y-113128013D01*
X98067013Y-113355748D01*
X97888082Y-113623537D01*
X97764832Y-113921088D01*
X97702000Y-114236967D01*
X97702000Y-114559033D01*
X97749877Y-114799730D01*
X97726418Y-114823189D01*
X97694436Y-114849436D01*
X97589691Y-114977069D01*
X97511858Y-115122684D01*
X97463929Y-115280685D01*
X97451800Y-115403831D01*
X97451800Y-115403837D01*
X97447746Y-115445000D01*
X94555000Y-115445000D01*
X94555000Y-110910000D01*
X102576928Y-110910000D01*
X102589188Y-111034482D01*
X102625498Y-111154180D01*
X102684463Y-111264494D01*
X102763815Y-111361185D01*
X102860506Y-111440537D01*
X102970820Y-111499502D01*
X103090518Y-111535812D01*
X103215000Y-111548072D01*
X103629250Y-111545000D01*
X103788000Y-111386250D01*
X103788000Y-110462000D01*
X104042000Y-110462000D01*
X104042000Y-111386250D01*
X104200750Y-111545000D01*
X104615000Y-111548072D01*
X104739482Y-111535812D01*
X104859180Y-111499502D01*
X104969494Y-111440537D01*
X105066185Y-111361185D01*
X105145537Y-111264494D01*
X105204502Y-111154180D01*
X105240812Y-111034482D01*
X105253072Y-110910000D01*
X105250000Y-110620750D01*
X105091250Y-110462000D01*
X104042000Y-110462000D01*
X103788000Y-110462000D01*
X102738750Y-110462000D01*
X102580000Y-110620750D01*
X102576928Y-110910000D01*
X94555000Y-110910000D01*
X94555000Y-107959999D01*
X102576928Y-107959999D01*
X102576928Y-108610001D01*
X102593992Y-108783255D01*
X102644528Y-108949851D01*
X102726595Y-109103387D01*
X102837038Y-109237962D01*
X102843594Y-109243342D01*
X102763815Y-109308815D01*
X102684463Y-109405506D01*
X102625498Y-109515820D01*
X102589188Y-109635518D01*
X102576928Y-109760000D01*
X102580000Y-110049250D01*
X102738750Y-110208000D01*
X103788000Y-110208000D01*
X103788000Y-110188000D01*
X104042000Y-110188000D01*
X104042000Y-110208000D01*
X105091250Y-110208000D01*
X105250000Y-110049250D01*
X105253072Y-109760000D01*
X105240812Y-109635518D01*
X105204502Y-109515820D01*
X105145537Y-109405506D01*
X105066185Y-109308815D01*
X104986406Y-109243342D01*
X104992962Y-109237962D01*
X105103405Y-109103387D01*
X105185472Y-108949851D01*
X105236008Y-108783255D01*
X105253072Y-108610001D01*
X105253072Y-107959999D01*
X105236008Y-107786745D01*
X105185472Y-107620149D01*
X105103405Y-107466613D01*
X104992962Y-107332038D01*
X104920702Y-107272736D01*
X104981956Y-107124856D01*
X105021000Y-106928567D01*
X105021000Y-106728433D01*
X104981956Y-106532144D01*
X104905368Y-106347244D01*
X104794179Y-106180838D01*
X104652662Y-106039321D01*
X104486256Y-105928132D01*
X104301356Y-105851544D01*
X104105067Y-105812500D01*
X103904933Y-105812500D01*
X103708644Y-105851544D01*
X103523744Y-105928132D01*
X103357338Y-106039321D01*
X103215821Y-106180838D01*
X103104632Y-106347244D01*
X103028044Y-106532144D01*
X102989000Y-106728433D01*
X102989000Y-106928567D01*
X103028044Y-107124856D01*
X103050622Y-107179364D01*
X102971613Y-107221595D01*
X102837038Y-107332038D01*
X102726595Y-107466613D01*
X102644528Y-107620149D01*
X102593992Y-107786745D01*
X102576928Y-107959999D01*
X94555000Y-107959999D01*
X94555000Y-93964933D01*
X100449000Y-93964933D01*
X100449000Y-94165067D01*
X100488044Y-94361356D01*
X100564632Y-94546256D01*
X100675821Y-94712662D01*
X100817338Y-94854179D01*
X100983744Y-94965368D01*
X101168644Y-95041956D01*
X101364933Y-95081000D01*
X101439291Y-95081000D01*
X107554600Y-101196310D01*
X107549632Y-101203744D01*
X107473044Y-101388644D01*
X107434000Y-101584933D01*
X107434000Y-101785067D01*
X107473044Y-101981356D01*
X107549632Y-102166256D01*
X107660821Y-102332662D01*
X107802338Y-102474179D01*
X107968744Y-102585368D01*
X108153644Y-102661956D01*
X108349933Y-102701000D01*
X108550067Y-102701000D01*
X108746356Y-102661956D01*
X108931256Y-102585368D01*
X109097662Y-102474179D01*
X109239179Y-102332662D01*
X109350368Y-102166256D01*
X109426956Y-101981356D01*
X109466000Y-101785067D01*
X109466000Y-101584933D01*
X109426956Y-101388644D01*
X109350368Y-101203744D01*
X109239179Y-101037338D01*
X109183426Y-100981585D01*
X109175942Y-100905601D01*
X109133822Y-100766752D01*
X109133822Y-100766751D01*
X109065424Y-100638787D01*
X108973375Y-100526625D01*
X108945269Y-100503559D01*
X103513975Y-95072266D01*
X103666356Y-95041956D01*
X103851256Y-94965368D01*
X104017662Y-94854179D01*
X104159179Y-94712662D01*
X104270368Y-94546256D01*
X104346956Y-94361356D01*
X104386000Y-94165067D01*
X104386000Y-93964933D01*
X104346956Y-93768644D01*
X104270368Y-93583744D01*
X104159179Y-93417338D01*
X104017662Y-93275821D01*
X103851256Y-93164632D01*
X103666356Y-93088044D01*
X103470067Y-93049000D01*
X103269933Y-93049000D01*
X103073644Y-93088044D01*
X102888744Y-93164632D01*
X102722338Y-93275821D01*
X102580821Y-93417338D01*
X102469632Y-93583744D01*
X102417500Y-93709602D01*
X102365368Y-93583744D01*
X102254179Y-93417338D01*
X102112662Y-93275821D01*
X101946256Y-93164632D01*
X101761356Y-93088044D01*
X101565067Y-93049000D01*
X101364933Y-93049000D01*
X101168644Y-93088044D01*
X100983744Y-93164632D01*
X100817338Y-93275821D01*
X100675821Y-93417338D01*
X100564632Y-93583744D01*
X100488044Y-93768644D01*
X100449000Y-93964933D01*
X94555000Y-93964933D01*
X94555000Y-90190018D01*
X94689822Y-90416355D01*
X94884731Y-90632588D01*
X95118080Y-90806641D01*
X95380901Y-90931825D01*
X95528110Y-90976476D01*
X95758000Y-90855155D01*
X95758000Y-89662000D01*
X96012000Y-89662000D01*
X96012000Y-90855155D01*
X96241890Y-90976476D01*
X96389099Y-90931825D01*
X96651920Y-90806641D01*
X96885269Y-90632588D01*
X97080178Y-90416355D01*
X97155000Y-90290745D01*
X97229822Y-90416355D01*
X97424731Y-90632588D01*
X97658080Y-90806641D01*
X97920901Y-90931825D01*
X98068110Y-90976476D01*
X98298000Y-90855155D01*
X98298000Y-89662000D01*
X96012000Y-89662000D01*
X95758000Y-89662000D01*
X95738000Y-89662000D01*
X95738000Y-89408000D01*
X95758000Y-89408000D01*
X95758000Y-88214845D01*
X96012000Y-88214845D01*
X96012000Y-89408000D01*
X98298000Y-89408000D01*
X98298000Y-88214845D01*
X98552000Y-88214845D01*
X98552000Y-89408000D01*
X98572000Y-89408000D01*
X98572000Y-89662000D01*
X98552000Y-89662000D01*
X98552000Y-90855155D01*
X98781890Y-90976476D01*
X98929099Y-90931825D01*
X99191920Y-90806641D01*
X99425269Y-90632588D01*
X99620178Y-90416355D01*
X99689799Y-90299477D01*
X99724294Y-90364014D01*
X99909866Y-90590134D01*
X100135986Y-90775706D01*
X100393966Y-90913599D01*
X100673889Y-90998513D01*
X100892050Y-91020000D01*
X101037950Y-91020000D01*
X101256111Y-90998513D01*
X101536034Y-90913599D01*
X101794014Y-90775706D01*
X102020134Y-90590134D01*
X102205706Y-90364014D01*
X102235000Y-90309209D01*
X102264294Y-90364014D01*
X102449866Y-90590134D01*
X102675986Y-90775706D01*
X102933966Y-90913599D01*
X103213889Y-90998513D01*
X103432050Y-91020000D01*
X103577950Y-91020000D01*
X103796111Y-90998513D01*
X103896386Y-90968095D01*
X106218557Y-93290267D01*
X106241625Y-93318375D01*
X106353787Y-93410424D01*
X106481751Y-93478822D01*
X106620601Y-93520942D01*
X106728814Y-93531600D01*
X106728823Y-93531600D01*
X106764999Y-93535163D01*
X106801175Y-93531600D01*
X110759474Y-93531600D01*
X110724632Y-93583744D01*
X110648044Y-93768644D01*
X110609000Y-93964933D01*
X110609000Y-94165067D01*
X110648044Y-94361356D01*
X110724632Y-94546256D01*
X110835821Y-94712662D01*
X110977338Y-94854179D01*
X111143744Y-94965368D01*
X111328644Y-95041956D01*
X111524933Y-95081000D01*
X111725067Y-95081000D01*
X111921356Y-95041956D01*
X112106256Y-94965368D01*
X112272662Y-94854179D01*
X112414179Y-94712662D01*
X112525368Y-94546256D01*
X112601956Y-94361356D01*
X112641000Y-94165067D01*
X112641000Y-93964933D01*
X112601956Y-93768644D01*
X112525368Y-93583744D01*
X112490526Y-93531600D01*
X116563559Y-93531600D01*
X116550821Y-93544338D01*
X116439632Y-93710744D01*
X116363044Y-93895644D01*
X116324000Y-94091933D01*
X116324000Y-94292067D01*
X116363044Y-94488356D01*
X116439632Y-94673256D01*
X116550821Y-94839662D01*
X116692338Y-94981179D01*
X116858744Y-95092368D01*
X117043644Y-95168956D01*
X117239933Y-95208000D01*
X117440067Y-95208000D01*
X117636356Y-95168956D01*
X117821256Y-95092368D01*
X117987662Y-94981179D01*
X118129179Y-94839662D01*
X118240368Y-94673256D01*
X118316956Y-94488356D01*
X118356000Y-94292067D01*
X118356000Y-94091933D01*
X118316956Y-93895644D01*
X118240368Y-93710744D01*
X118129179Y-93544338D01*
X118116441Y-93531600D01*
X120209891Y-93531600D01*
X120769000Y-94090710D01*
X120769000Y-94165067D01*
X120808044Y-94361356D01*
X120884632Y-94546256D01*
X120995821Y-94712662D01*
X121137338Y-94854179D01*
X121303744Y-94965368D01*
X121488644Y-95041956D01*
X121684933Y-95081000D01*
X121759291Y-95081000D01*
X127398401Y-100720111D01*
X127398401Y-100984758D01*
X127345821Y-101037338D01*
X127234632Y-101203744D01*
X127158044Y-101388644D01*
X127119000Y-101584933D01*
X127119000Y-101785067D01*
X127158044Y-101981356D01*
X127234632Y-102166256D01*
X127345821Y-102332662D01*
X127487338Y-102474179D01*
X127653744Y-102585368D01*
X127838644Y-102661956D01*
X128034933Y-102701000D01*
X128235067Y-102701000D01*
X128431356Y-102661956D01*
X128616256Y-102585368D01*
X128782662Y-102474179D01*
X128924179Y-102332662D01*
X129035368Y-102166256D01*
X129111956Y-101981356D01*
X129151000Y-101785067D01*
X129151000Y-101584933D01*
X129111956Y-101388644D01*
X129035368Y-101203744D01*
X128924179Y-101037338D01*
X128871600Y-100984759D01*
X128871600Y-100451175D01*
X128875163Y-100414999D01*
X128871600Y-100378823D01*
X128871600Y-100378814D01*
X128860942Y-100270601D01*
X128818822Y-100131751D01*
X128750424Y-100003787D01*
X128658375Y-99891625D01*
X128630269Y-99868559D01*
X123833975Y-95072266D01*
X123986356Y-95041956D01*
X124171256Y-94965368D01*
X124337662Y-94854179D01*
X124479179Y-94712662D01*
X124590368Y-94546256D01*
X124666956Y-94361356D01*
X124706000Y-94165067D01*
X124706000Y-93964933D01*
X124666956Y-93768644D01*
X124590368Y-93583744D01*
X124479179Y-93417338D01*
X124337662Y-93275821D01*
X124171256Y-93164632D01*
X123986356Y-93088044D01*
X123790067Y-93049000D01*
X123715710Y-93049000D01*
X122331445Y-91664736D01*
X122308375Y-91636625D01*
X122196213Y-91544576D01*
X122068249Y-91476178D01*
X121929399Y-91434058D01*
X121821186Y-91423400D01*
X121821183Y-91423400D01*
X121785000Y-91419836D01*
X121748817Y-91423400D01*
X116135241Y-91423400D01*
X116082662Y-91370821D01*
X115916256Y-91259632D01*
X115731356Y-91183044D01*
X115535067Y-91144000D01*
X115334933Y-91144000D01*
X115138644Y-91183044D01*
X114953744Y-91259632D01*
X114787338Y-91370821D01*
X114645821Y-91512338D01*
X114534632Y-91678744D01*
X114458044Y-91863644D01*
X114419305Y-92058400D01*
X107070110Y-92058400D01*
X106031710Y-91020000D01*
X106117950Y-91020000D01*
X106336111Y-90998513D01*
X106616034Y-90913599D01*
X106874014Y-90775706D01*
X107100134Y-90590134D01*
X107285706Y-90364014D01*
X107315000Y-90309209D01*
X107344294Y-90364014D01*
X107529866Y-90590134D01*
X107755986Y-90775706D01*
X108013966Y-90913599D01*
X108293889Y-90998513D01*
X108512050Y-91020000D01*
X108657950Y-91020000D01*
X108876111Y-90998513D01*
X109156034Y-90913599D01*
X109414014Y-90775706D01*
X109640134Y-90590134D01*
X109825706Y-90364014D01*
X109855000Y-90309209D01*
X109884294Y-90364014D01*
X110069866Y-90590134D01*
X110295986Y-90775706D01*
X110553966Y-90913599D01*
X110833889Y-90998513D01*
X111052050Y-91020000D01*
X111197950Y-91020000D01*
X111416111Y-90998513D01*
X111696034Y-90913599D01*
X111954014Y-90775706D01*
X112180134Y-90590134D01*
X112365706Y-90364014D01*
X112395000Y-90309209D01*
X112424294Y-90364014D01*
X112609866Y-90590134D01*
X112835986Y-90775706D01*
X113093966Y-90913599D01*
X113373889Y-90998513D01*
X113592050Y-91020000D01*
X113737950Y-91020000D01*
X113956111Y-90998513D01*
X114236034Y-90913599D01*
X114494014Y-90775706D01*
X114720134Y-90590134D01*
X114905706Y-90364014D01*
X114935000Y-90309209D01*
X114964294Y-90364014D01*
X115149866Y-90590134D01*
X115375986Y-90775706D01*
X115633966Y-90913599D01*
X115913889Y-90998513D01*
X116132050Y-91020000D01*
X116277950Y-91020000D01*
X116496111Y-90998513D01*
X116776034Y-90913599D01*
X117034014Y-90775706D01*
X117260134Y-90590134D01*
X117445706Y-90364014D01*
X117475000Y-90309209D01*
X117504294Y-90364014D01*
X117689866Y-90590134D01*
X117915986Y-90775706D01*
X118173966Y-90913599D01*
X118453889Y-90998513D01*
X118672050Y-91020000D01*
X118817950Y-91020000D01*
X119036111Y-90998513D01*
X119316034Y-90913599D01*
X119574014Y-90775706D01*
X119800134Y-90590134D01*
X119985706Y-90364014D01*
X120015000Y-90309209D01*
X120044294Y-90364014D01*
X120229866Y-90590134D01*
X120455986Y-90775706D01*
X120713966Y-90913599D01*
X120993889Y-90998513D01*
X121212050Y-91020000D01*
X121357950Y-91020000D01*
X121576111Y-90998513D01*
X121856034Y-90913599D01*
X122114014Y-90775706D01*
X122340134Y-90590134D01*
X122525706Y-90364014D01*
X122555000Y-90309209D01*
X122584294Y-90364014D01*
X122769866Y-90590134D01*
X122995986Y-90775706D01*
X123253966Y-90913599D01*
X123533889Y-90998513D01*
X123752050Y-91020000D01*
X123897950Y-91020000D01*
X124116111Y-90998513D01*
X124216386Y-90968095D01*
X127808554Y-94560263D01*
X127831625Y-94588375D01*
X127943787Y-94680424D01*
X128071751Y-94748822D01*
X128210601Y-94790942D01*
X128318814Y-94801600D01*
X128318823Y-94801600D01*
X128354999Y-94805163D01*
X128391175Y-94801600D01*
X128704759Y-94801600D01*
X128757338Y-94854179D01*
X128923744Y-94965368D01*
X129108644Y-95041956D01*
X129304933Y-95081000D01*
X129505067Y-95081000D01*
X129701356Y-95041956D01*
X129886256Y-94965368D01*
X130052662Y-94854179D01*
X130194179Y-94712662D01*
X130305368Y-94546256D01*
X130381956Y-94361356D01*
X130421000Y-94165067D01*
X130421000Y-93964933D01*
X130381956Y-93768644D01*
X130305368Y-93583744D01*
X130270526Y-93531600D01*
X131714474Y-93531600D01*
X131679632Y-93583744D01*
X131603044Y-93768644D01*
X131564000Y-93964933D01*
X131564000Y-94165067D01*
X131603044Y-94361356D01*
X131679632Y-94546256D01*
X131790821Y-94712662D01*
X131932338Y-94854179D01*
X132098744Y-94965368D01*
X132283644Y-95041956D01*
X132479933Y-95081000D01*
X132680067Y-95081000D01*
X132876356Y-95041956D01*
X133061256Y-94965368D01*
X133227662Y-94854179D01*
X133369179Y-94712662D01*
X133480368Y-94546256D01*
X133556956Y-94361356D01*
X133596000Y-94165067D01*
X133596000Y-93964933D01*
X133556956Y-93768644D01*
X133480368Y-93583744D01*
X133445526Y-93531600D01*
X135449891Y-93531600D01*
X136009000Y-94090710D01*
X136009000Y-94165067D01*
X136048044Y-94361356D01*
X136124632Y-94546256D01*
X136235821Y-94712662D01*
X136377338Y-94854179D01*
X136543744Y-94965368D01*
X136728644Y-95041956D01*
X136924933Y-95081000D01*
X137125067Y-95081000D01*
X137321356Y-95041956D01*
X137506256Y-94965368D01*
X137672662Y-94854179D01*
X137814179Y-94712662D01*
X137925368Y-94546256D01*
X138001956Y-94361356D01*
X138041000Y-94165067D01*
X138041000Y-93964933D01*
X138001956Y-93768644D01*
X137925368Y-93583744D01*
X137814179Y-93417338D01*
X137672662Y-93275821D01*
X137506256Y-93164632D01*
X137321356Y-93088044D01*
X137125067Y-93049000D01*
X137050710Y-93049000D01*
X136301445Y-92299736D01*
X136278375Y-92271625D01*
X136166213Y-92179576D01*
X136038249Y-92111178D01*
X135899399Y-92069058D01*
X135791186Y-92058400D01*
X135791183Y-92058400D01*
X135755000Y-92054836D01*
X135718817Y-92058400D01*
X129930110Y-92058400D01*
X128891710Y-91020000D01*
X128977950Y-91020000D01*
X129196111Y-90998513D01*
X129476034Y-90913599D01*
X129734014Y-90775706D01*
X129960134Y-90590134D01*
X130145706Y-90364014D01*
X130175000Y-90309209D01*
X130204294Y-90364014D01*
X130389866Y-90590134D01*
X130615986Y-90775706D01*
X130873966Y-90913599D01*
X131153889Y-90998513D01*
X131372050Y-91020000D01*
X131517950Y-91020000D01*
X131736111Y-90998513D01*
X132016034Y-90913599D01*
X132274014Y-90775706D01*
X132500134Y-90590134D01*
X132685706Y-90364014D01*
X132720201Y-90299477D01*
X132789822Y-90416355D01*
X132984731Y-90632588D01*
X133218080Y-90806641D01*
X133480901Y-90931825D01*
X133628110Y-90976476D01*
X133858000Y-90855155D01*
X133858000Y-89662000D01*
X133838000Y-89662000D01*
X133838000Y-89408000D01*
X133858000Y-89408000D01*
X133858000Y-88214845D01*
X134112000Y-88214845D01*
X134112000Y-89408000D01*
X134132000Y-89408000D01*
X134132000Y-89662000D01*
X134112000Y-89662000D01*
X134112000Y-90855155D01*
X134341890Y-90976476D01*
X134489099Y-90931825D01*
X134751920Y-90806641D01*
X134985269Y-90632588D01*
X135180178Y-90416355D01*
X135249799Y-90299477D01*
X135284294Y-90364014D01*
X135469866Y-90590134D01*
X135695986Y-90775706D01*
X135953966Y-90913599D01*
X136233889Y-90998513D01*
X136452050Y-91020000D01*
X136597950Y-91020000D01*
X136816111Y-90998513D01*
X137096034Y-90913599D01*
X137354014Y-90775706D01*
X137580134Y-90590134D01*
X137765706Y-90364014D01*
X137795000Y-90309209D01*
X137824294Y-90364014D01*
X138009866Y-90590134D01*
X138235986Y-90775706D01*
X138493966Y-90913599D01*
X138773889Y-90998513D01*
X138992050Y-91020000D01*
X139137950Y-91020000D01*
X139356111Y-90998513D01*
X139636034Y-90913599D01*
X139894014Y-90775706D01*
X140120134Y-90590134D01*
X140305706Y-90364014D01*
X140340201Y-90299477D01*
X140409822Y-90416355D01*
X140604731Y-90632588D01*
X140838080Y-90806641D01*
X141100901Y-90931825D01*
X141248110Y-90976476D01*
X141478000Y-90855155D01*
X141478000Y-89662000D01*
X141458000Y-89662000D01*
X141458000Y-89408000D01*
X141478000Y-89408000D01*
X141478000Y-88214845D01*
X141732000Y-88214845D01*
X141732000Y-89408000D01*
X141752000Y-89408000D01*
X141752000Y-89662000D01*
X141732000Y-89662000D01*
X141732000Y-90855155D01*
X141961890Y-90976476D01*
X142109099Y-90931825D01*
X142371920Y-90806641D01*
X142605269Y-90632588D01*
X142681034Y-90548534D01*
X142705498Y-90629180D01*
X142764463Y-90739494D01*
X142843815Y-90836185D01*
X142940506Y-90915537D01*
X143050820Y-90974502D01*
X143170518Y-91010812D01*
X143295000Y-91023072D01*
X144995000Y-91023072D01*
X145119482Y-91010812D01*
X145239180Y-90974502D01*
X145349494Y-90915537D01*
X145446185Y-90836185D01*
X145525537Y-90739494D01*
X145584502Y-90629180D01*
X145620812Y-90509482D01*
X145633072Y-90385000D01*
X145633072Y-88685000D01*
X145620812Y-88560518D01*
X145584502Y-88440820D01*
X145525537Y-88330506D01*
X145446185Y-88233815D01*
X145349494Y-88154463D01*
X145239180Y-88095498D01*
X145119482Y-88059188D01*
X144995000Y-88046928D01*
X143295000Y-88046928D01*
X143170518Y-88059188D01*
X143050820Y-88095498D01*
X142940506Y-88154463D01*
X142843815Y-88233815D01*
X142764463Y-88330506D01*
X142705498Y-88440820D01*
X142681034Y-88521466D01*
X142605269Y-88437412D01*
X142371920Y-88263359D01*
X142109099Y-88138175D01*
X141961890Y-88093524D01*
X141732000Y-88214845D01*
X141478000Y-88214845D01*
X141248110Y-88093524D01*
X141100901Y-88138175D01*
X140838080Y-88263359D01*
X140604731Y-88437412D01*
X140409822Y-88653645D01*
X140340201Y-88770523D01*
X140305706Y-88705986D01*
X140120134Y-88479866D01*
X139894014Y-88294294D01*
X139636034Y-88156401D01*
X139356111Y-88071487D01*
X139137950Y-88050000D01*
X138992050Y-88050000D01*
X138773889Y-88071487D01*
X138493966Y-88156401D01*
X138235986Y-88294294D01*
X138009866Y-88479866D01*
X137824294Y-88705986D01*
X137795000Y-88760791D01*
X137765706Y-88705986D01*
X137580134Y-88479866D01*
X137354014Y-88294294D01*
X137096034Y-88156401D01*
X136816111Y-88071487D01*
X136597950Y-88050000D01*
X136452050Y-88050000D01*
X136233889Y-88071487D01*
X135953966Y-88156401D01*
X135695986Y-88294294D01*
X135469866Y-88479866D01*
X135284294Y-88705986D01*
X135249799Y-88770523D01*
X135180178Y-88653645D01*
X134985269Y-88437412D01*
X134751920Y-88263359D01*
X134489099Y-88138175D01*
X134341890Y-88093524D01*
X134112000Y-88214845D01*
X133858000Y-88214845D01*
X133628110Y-88093524D01*
X133480901Y-88138175D01*
X133218080Y-88263359D01*
X132984731Y-88437412D01*
X132789822Y-88653645D01*
X132720201Y-88770523D01*
X132685706Y-88705986D01*
X132500134Y-88479866D01*
X132274014Y-88294294D01*
X132016034Y-88156401D01*
X131736111Y-88071487D01*
X131517950Y-88050000D01*
X131372050Y-88050000D01*
X131153889Y-88071487D01*
X130873966Y-88156401D01*
X130615986Y-88294294D01*
X130389866Y-88479866D01*
X130204294Y-88705986D01*
X130175000Y-88760791D01*
X130145706Y-88705986D01*
X129960134Y-88479866D01*
X129734014Y-88294294D01*
X129476034Y-88156401D01*
X129196111Y-88071487D01*
X128977950Y-88050000D01*
X128832050Y-88050000D01*
X128613889Y-88071487D01*
X128333966Y-88156401D01*
X128075986Y-88294294D01*
X127849866Y-88479866D01*
X127664294Y-88705986D01*
X127635000Y-88760791D01*
X127605706Y-88705986D01*
X127420134Y-88479866D01*
X127194014Y-88294294D01*
X126936034Y-88156401D01*
X126656111Y-88071487D01*
X126437950Y-88050000D01*
X126292050Y-88050000D01*
X126073889Y-88071487D01*
X125793966Y-88156401D01*
X125535986Y-88294294D01*
X125309866Y-88479866D01*
X125124294Y-88705986D01*
X125095000Y-88760791D01*
X125065706Y-88705986D01*
X124880134Y-88479866D01*
X124654014Y-88294294D01*
X124396034Y-88156401D01*
X124116111Y-88071487D01*
X123897950Y-88050000D01*
X123752050Y-88050000D01*
X123533889Y-88071487D01*
X123253966Y-88156401D01*
X122995986Y-88294294D01*
X122769866Y-88479866D01*
X122584294Y-88705986D01*
X122555000Y-88760791D01*
X122525706Y-88705986D01*
X122340134Y-88479866D01*
X122114014Y-88294294D01*
X121856034Y-88156401D01*
X121576111Y-88071487D01*
X121357950Y-88050000D01*
X121212050Y-88050000D01*
X120993889Y-88071487D01*
X120713966Y-88156401D01*
X120455986Y-88294294D01*
X120229866Y-88479866D01*
X120044294Y-88705986D01*
X120015000Y-88760791D01*
X119985706Y-88705986D01*
X119800134Y-88479866D01*
X119574014Y-88294294D01*
X119316034Y-88156401D01*
X119036111Y-88071487D01*
X118817950Y-88050000D01*
X118672050Y-88050000D01*
X118453889Y-88071487D01*
X118173966Y-88156401D01*
X117915986Y-88294294D01*
X117689866Y-88479866D01*
X117504294Y-88705986D01*
X117475000Y-88760791D01*
X117445706Y-88705986D01*
X117260134Y-88479866D01*
X117034014Y-88294294D01*
X116776034Y-88156401D01*
X116496111Y-88071487D01*
X116277950Y-88050000D01*
X116132050Y-88050000D01*
X115913889Y-88071487D01*
X115633966Y-88156401D01*
X115375986Y-88294294D01*
X115149866Y-88479866D01*
X114964294Y-88705986D01*
X114935000Y-88760791D01*
X114905706Y-88705986D01*
X114720134Y-88479866D01*
X114494014Y-88294294D01*
X114236034Y-88156401D01*
X113956111Y-88071487D01*
X113737950Y-88050000D01*
X113592050Y-88050000D01*
X113373889Y-88071487D01*
X113093966Y-88156401D01*
X112835986Y-88294294D01*
X112609866Y-88479866D01*
X112424294Y-88705986D01*
X112395000Y-88760791D01*
X112365706Y-88705986D01*
X112180134Y-88479866D01*
X111954014Y-88294294D01*
X111696034Y-88156401D01*
X111416111Y-88071487D01*
X111197950Y-88050000D01*
X111052050Y-88050000D01*
X110833889Y-88071487D01*
X110553966Y-88156401D01*
X110295986Y-88294294D01*
X110069866Y-88479866D01*
X109884294Y-88705986D01*
X109855000Y-88760791D01*
X109825706Y-88705986D01*
X109640134Y-88479866D01*
X109414014Y-88294294D01*
X109156034Y-88156401D01*
X108876111Y-88071487D01*
X108657950Y-88050000D01*
X108512050Y-88050000D01*
X108293889Y-88071487D01*
X108013966Y-88156401D01*
X107755986Y-88294294D01*
X107529866Y-88479866D01*
X107344294Y-88705986D01*
X107315000Y-88760791D01*
X107285706Y-88705986D01*
X107100134Y-88479866D01*
X106874014Y-88294294D01*
X106616034Y-88156401D01*
X106336111Y-88071487D01*
X106117950Y-88050000D01*
X105972050Y-88050000D01*
X105753889Y-88071487D01*
X105473966Y-88156401D01*
X105215986Y-88294294D01*
X104989866Y-88479866D01*
X104804294Y-88705986D01*
X104775000Y-88760791D01*
X104745706Y-88705986D01*
X104560134Y-88479866D01*
X104334014Y-88294294D01*
X104076034Y-88156401D01*
X103796111Y-88071487D01*
X103577950Y-88050000D01*
X103432050Y-88050000D01*
X103213889Y-88071487D01*
X102933966Y-88156401D01*
X102675986Y-88294294D01*
X102449866Y-88479866D01*
X102264294Y-88705986D01*
X102235000Y-88760791D01*
X102205706Y-88705986D01*
X102020134Y-88479866D01*
X101794014Y-88294294D01*
X101536034Y-88156401D01*
X101256111Y-88071487D01*
X101037950Y-88050000D01*
X100892050Y-88050000D01*
X100673889Y-88071487D01*
X100393966Y-88156401D01*
X100135986Y-88294294D01*
X99909866Y-88479866D01*
X99724294Y-88705986D01*
X99689799Y-88770523D01*
X99620178Y-88653645D01*
X99425269Y-88437412D01*
X99191920Y-88263359D01*
X98929099Y-88138175D01*
X98781890Y-88093524D01*
X98552000Y-88214845D01*
X98298000Y-88214845D01*
X98068110Y-88093524D01*
X97920901Y-88138175D01*
X97658080Y-88263359D01*
X97424731Y-88437412D01*
X97229822Y-88653645D01*
X97155000Y-88779255D01*
X97080178Y-88653645D01*
X96885269Y-88437412D01*
X96651920Y-88263359D01*
X96389099Y-88138175D01*
X96241890Y-88093524D01*
X96012000Y-88214845D01*
X95758000Y-88214845D01*
X95528110Y-88093524D01*
X95380901Y-88138175D01*
X95118080Y-88263359D01*
X94884731Y-88437412D01*
X94689822Y-88653645D01*
X94555000Y-88879982D01*
X94555000Y-87842000D01*
X149015000Y-87842000D01*
X149015001Y-122565000D01*
M02*
