M48
INCH,TZ
T1C0.0150
T2C0.0350
T3C0.0394
T4C0.0618
%
G90
G05
T1
X39197Y-37033
X39447Y-42133
X39947Y-37033
X40697Y-37033
X40947Y-42058
X41497Y-42858
X42197Y-37008
X42197Y-42158
X42697Y-40033
X42697Y-42158
X43197Y-42158
X43772Y-42158
X43947Y-37033
X44566Y-43439
X45447Y-36283
X45447Y-37033
X45447Y-42108
X46197Y-37083
X47197Y-37083
X47197Y-42283
X47947Y-37033
X47947Y-43283
X48697Y-37033
X48697Y-42083
X49447Y-42283
X49947Y-42283
X49972Y-37058
X50447Y-40033
X50447Y-42283
X50947Y-37033
X50947Y-42283
X51697Y-40783
X52197Y-37033
X52291Y-43439
X53197Y-37033
X53447Y-42033
X53947Y-37033
T2
X42908Y-45389
X43711Y-45389
X48700Y-44688
X49102Y-45389
X49504Y-44688
X49905Y-45389
X50307Y-44688
X50708Y-45389
X51110Y-44688
X51511Y-45389
X40900Y-44688
X41302Y-45389
X41704Y-44688
X42105Y-45389
X42507Y-44688
X43310Y-44688
T3
X37750Y-35250
X38750Y-35250
X39750Y-35250
X40750Y-35250
X41750Y-35250
X42750Y-35250
X43750Y-35250
X44750Y-35250
X45750Y-35250
X46750Y-35250
X47750Y-35250
X48750Y-35250
X49750Y-35250
X50750Y-35250
X51750Y-35250
X52750Y-35250
X53750Y-35250
X54750Y-35250
X55750Y-35250
X56750Y-35250
T4
X39109Y-45039
X45511Y-45039
X46909Y-45039
X53311Y-45039
T0
M30
