G04 #@! TF.GenerationSoftware,KiCad,Pcbnew,(5.1.4-0)*
G04 #@! TF.CreationDate,2019-10-27T21:20:05-04:00*
G04 #@! TF.ProjectId,DifferentialSPIEncoder,44696666-6572-4656-9e74-69616c535049,rev?*
G04 #@! TF.SameCoordinates,Original*
G04 #@! TF.FileFunction,Soldermask,Top*
G04 #@! TF.FilePolarity,Negative*
%FSLAX46Y46*%
G04 Gerber Fmt 4.6, Leading zero omitted, Abs format (unit mm)*
G04 Created by KiCad (PCBNEW (5.1.4-0)) date 2019-10-27 21:20:05*
%MOMM*%
%LPD*%
G04 APERTURE LIST*
%ADD10C,0.100000*%
G04 APERTURE END LIST*
D10*
G36*
X113494072Y-75700918D02*
G01*
X113739939Y-75802759D01*
X113961212Y-75950610D01*
X114149390Y-76138788D01*
X114297241Y-76360061D01*
X114399082Y-76605928D01*
X114451000Y-76866938D01*
X114451000Y-77133062D01*
X114399082Y-77394072D01*
X114297241Y-77639939D01*
X114149390Y-77861212D01*
X113961212Y-78049390D01*
X113739939Y-78197241D01*
X113739938Y-78197242D01*
X113739937Y-78197242D01*
X113494072Y-78299082D01*
X113233063Y-78351000D01*
X112966937Y-78351000D01*
X112705928Y-78299082D01*
X112460063Y-78197242D01*
X112460062Y-78197242D01*
X112460061Y-78197241D01*
X112238788Y-78049390D01*
X112050610Y-77861212D01*
X111902759Y-77639939D01*
X111800918Y-77394072D01*
X111749000Y-77133062D01*
X111749000Y-76866938D01*
X111800918Y-76605928D01*
X111902759Y-76360061D01*
X112050610Y-76138788D01*
X112238788Y-75950610D01*
X112460061Y-75802759D01*
X112705928Y-75700918D01*
X112966937Y-75649000D01*
X113233063Y-75649000D01*
X113494072Y-75700918D01*
X113494072Y-75700918D01*
G37*
G36*
X127257282Y-74391123D02*
G01*
X127280730Y-74398236D01*
X127296338Y-74401341D01*
X127352383Y-74412489D01*
X127352386Y-74412490D01*
X127352385Y-74412490D01*
X127416258Y-74438946D01*
X127473748Y-74477360D01*
X127522640Y-74526252D01*
X127561054Y-74583742D01*
X127582624Y-74635818D01*
X127587511Y-74647617D01*
X127601000Y-74715430D01*
X127601000Y-74784570D01*
X127587511Y-74852383D01*
X127587510Y-74852385D01*
X127561054Y-74916258D01*
X127522640Y-74973748D01*
X127473748Y-75022640D01*
X127416258Y-75061054D01*
X127364182Y-75082624D01*
X127352383Y-75087511D01*
X127284570Y-75101000D01*
X127215430Y-75101000D01*
X127147617Y-75087511D01*
X127135818Y-75082624D01*
X127083742Y-75061054D01*
X127026252Y-75022640D01*
X126977360Y-74973748D01*
X126938946Y-74916258D01*
X126912490Y-74852385D01*
X126912489Y-74852383D01*
X126899000Y-74784570D01*
X126899000Y-74715430D01*
X126912489Y-74647617D01*
X126917376Y-74635818D01*
X126938946Y-74583742D01*
X126977360Y-74526252D01*
X127026252Y-74477360D01*
X127083742Y-74438946D01*
X127147615Y-74412490D01*
X127147614Y-74412490D01*
X127147617Y-74412489D01*
X127203662Y-74401341D01*
X127219270Y-74398236D01*
X127242719Y-74391123D01*
X127250000Y-74387231D01*
X127257282Y-74391123D01*
X127257282Y-74391123D01*
G37*
G36*
X126260560Y-75011400D02*
G01*
X125098560Y-75011400D01*
X125098560Y-74259400D01*
X126260560Y-74259400D01*
X126260560Y-75011400D01*
X126260560Y-75011400D01*
G37*
G36*
X124060560Y-75011400D02*
G01*
X122898560Y-75011400D01*
X122898560Y-72359400D01*
X124060560Y-72359400D01*
X124060560Y-75011400D01*
X124060560Y-75011400D01*
G37*
G36*
X102649244Y-72625189D02*
G01*
X102840513Y-72704415D01*
X102840515Y-72704416D01*
X103012653Y-72819435D01*
X103159045Y-72965827D01*
X103231220Y-73073844D01*
X103274065Y-73137967D01*
X103353291Y-73329236D01*
X103393680Y-73532284D01*
X103393680Y-73739316D01*
X103353291Y-73942364D01*
X103295370Y-74082197D01*
X103274064Y-74133635D01*
X103159045Y-74305773D01*
X103012653Y-74452165D01*
X102840515Y-74567184D01*
X102840514Y-74567185D01*
X102840513Y-74567185D01*
X102649244Y-74646411D01*
X102446196Y-74686800D01*
X102239164Y-74686800D01*
X102036116Y-74646411D01*
X101844847Y-74567185D01*
X101844846Y-74567185D01*
X101844845Y-74567184D01*
X101672707Y-74452165D01*
X101526315Y-74305773D01*
X101411296Y-74133635D01*
X101389990Y-74082197D01*
X101332069Y-73942364D01*
X101291680Y-73739316D01*
X101291680Y-73532284D01*
X101332069Y-73329236D01*
X101411295Y-73137967D01*
X101454141Y-73073844D01*
X101526315Y-72965827D01*
X101672707Y-72819435D01*
X101844845Y-72704416D01*
X101844847Y-72704415D01*
X102036116Y-72625189D01*
X102239164Y-72584800D01*
X102446196Y-72584800D01*
X102649244Y-72625189D01*
X102649244Y-72625189D01*
G37*
G36*
X115902383Y-73837489D02*
G01*
X115902386Y-73837490D01*
X115902385Y-73837490D01*
X115966258Y-73863946D01*
X116023748Y-73902360D01*
X116072640Y-73951252D01*
X116111054Y-74008742D01*
X116125593Y-74043844D01*
X116137511Y-74072617D01*
X116151000Y-74140430D01*
X116151000Y-74209570D01*
X116137511Y-74277383D01*
X116132624Y-74289182D01*
X116111054Y-74341258D01*
X116072640Y-74398748D01*
X116023748Y-74447640D01*
X115966258Y-74486054D01*
X115914182Y-74507624D01*
X115902383Y-74512511D01*
X115834570Y-74526000D01*
X115765430Y-74526000D01*
X115697617Y-74512511D01*
X115685818Y-74507624D01*
X115633742Y-74486054D01*
X115576252Y-74447640D01*
X115527360Y-74398748D01*
X115488946Y-74341258D01*
X115467376Y-74289182D01*
X115462489Y-74277383D01*
X115449000Y-74209570D01*
X115449000Y-74140430D01*
X115462489Y-74072617D01*
X115474407Y-74043844D01*
X115488946Y-74008742D01*
X115527360Y-73951252D01*
X115576252Y-73902360D01*
X115633742Y-73863946D01*
X115697615Y-73837490D01*
X115697614Y-73837490D01*
X115697617Y-73837489D01*
X115765430Y-73824000D01*
X115834570Y-73824000D01*
X115902383Y-73837489D01*
X115902383Y-73837489D01*
G37*
G36*
X118542280Y-74468200D02*
G01*
X116890280Y-74468200D01*
X116890280Y-73766200D01*
X118542280Y-73766200D01*
X118542280Y-74468200D01*
X118542280Y-74468200D01*
G37*
G36*
X113142280Y-74468200D02*
G01*
X111490280Y-74468200D01*
X111490280Y-73766200D01*
X113142280Y-73766200D01*
X113142280Y-74468200D01*
X113142280Y-74468200D01*
G37*
G36*
X110848138Y-73679796D02*
G01*
X110868757Y-73686051D01*
X110887753Y-73696204D01*
X110904408Y-73709872D01*
X110918076Y-73726527D01*
X110928229Y-73745523D01*
X110934484Y-73766142D01*
X110937200Y-73793720D01*
X110937200Y-74252440D01*
X110934484Y-74280018D01*
X110928229Y-74300637D01*
X110918076Y-74319633D01*
X110904408Y-74336288D01*
X110887753Y-74349956D01*
X110868757Y-74360109D01*
X110848138Y-74366364D01*
X110820560Y-74369080D01*
X110311840Y-74369080D01*
X110284262Y-74366364D01*
X110263643Y-74360109D01*
X110244647Y-74349956D01*
X110227992Y-74336288D01*
X110214324Y-74319633D01*
X110204171Y-74300637D01*
X110197916Y-74280018D01*
X110195200Y-74252440D01*
X110195200Y-73793720D01*
X110197916Y-73766142D01*
X110204171Y-73745523D01*
X110214324Y-73726527D01*
X110227992Y-73709872D01*
X110244647Y-73696204D01*
X110263643Y-73686051D01*
X110284262Y-73679796D01*
X110311840Y-73677080D01*
X110820560Y-73677080D01*
X110848138Y-73679796D01*
X110848138Y-73679796D01*
G37*
G36*
X127539938Y-73461356D02*
G01*
X127560557Y-73467611D01*
X127579553Y-73477764D01*
X127596208Y-73491432D01*
X127609876Y-73508087D01*
X127620029Y-73527083D01*
X127626284Y-73547702D01*
X127629000Y-73575280D01*
X127629000Y-74034000D01*
X127626284Y-74061578D01*
X127620029Y-74082197D01*
X127609876Y-74101193D01*
X127596208Y-74117848D01*
X127579553Y-74131516D01*
X127560557Y-74141669D01*
X127539938Y-74147924D01*
X127512360Y-74150640D01*
X127305117Y-74150640D01*
X127280731Y-74153042D01*
X127257282Y-74160155D01*
X127250000Y-74164047D01*
X127242717Y-74160155D01*
X127219268Y-74153042D01*
X127194883Y-74150640D01*
X127003640Y-74150640D01*
X126976062Y-74147924D01*
X126955443Y-74141669D01*
X126936447Y-74131516D01*
X126919792Y-74117848D01*
X126906124Y-74101193D01*
X126895971Y-74082197D01*
X126889716Y-74061578D01*
X126887000Y-74034000D01*
X126887000Y-73575280D01*
X126889716Y-73547702D01*
X126895971Y-73527083D01*
X126906124Y-73508087D01*
X126919792Y-73491432D01*
X126936447Y-73477764D01*
X126955443Y-73467611D01*
X126976062Y-73461356D01*
X127003640Y-73458640D01*
X127512360Y-73458640D01*
X127539938Y-73461356D01*
X127539938Y-73461356D01*
G37*
G36*
X122235218Y-73362836D02*
G01*
X122255837Y-73369091D01*
X122274833Y-73379244D01*
X122291488Y-73392912D01*
X122305156Y-73409567D01*
X122315309Y-73428563D01*
X122321564Y-73449182D01*
X122324280Y-73476760D01*
X122324280Y-73985480D01*
X122321564Y-74013058D01*
X122315309Y-74033677D01*
X122305156Y-74052673D01*
X122291488Y-74069328D01*
X122274833Y-74082996D01*
X122255837Y-74093149D01*
X122235218Y-74099404D01*
X122207640Y-74102120D01*
X121748920Y-74102120D01*
X121721342Y-74099404D01*
X121700723Y-74093149D01*
X121681727Y-74082996D01*
X121665072Y-74069328D01*
X121651404Y-74052673D01*
X121641251Y-74033677D01*
X121634996Y-74013058D01*
X121632280Y-73985480D01*
X121632280Y-73476760D01*
X121634996Y-73449182D01*
X121641251Y-73428563D01*
X121651404Y-73409567D01*
X121665072Y-73392912D01*
X121681727Y-73379244D01*
X121700723Y-73369091D01*
X121721342Y-73362836D01*
X121748920Y-73360120D01*
X122207640Y-73360120D01*
X122235218Y-73362836D01*
X122235218Y-73362836D01*
G37*
G36*
X121265218Y-73362836D02*
G01*
X121285837Y-73369091D01*
X121304833Y-73379244D01*
X121321488Y-73392912D01*
X121335156Y-73409567D01*
X121345309Y-73428563D01*
X121351564Y-73449182D01*
X121354280Y-73476760D01*
X121354280Y-73985480D01*
X121351564Y-74013058D01*
X121345309Y-74033677D01*
X121335156Y-74052673D01*
X121321488Y-74069328D01*
X121304833Y-74082996D01*
X121285837Y-74093149D01*
X121265218Y-74099404D01*
X121237640Y-74102120D01*
X120778920Y-74102120D01*
X120751342Y-74099404D01*
X120730723Y-74093149D01*
X120711727Y-74082996D01*
X120695072Y-74069328D01*
X120681404Y-74052673D01*
X120671251Y-74033677D01*
X120664996Y-74013058D01*
X120662280Y-73985480D01*
X120662280Y-73476760D01*
X120664996Y-73449182D01*
X120671251Y-73428563D01*
X120681404Y-73409567D01*
X120695072Y-73392912D01*
X120711727Y-73379244D01*
X120730723Y-73369091D01*
X120751342Y-73362836D01*
X120778920Y-73360120D01*
X121237640Y-73360120D01*
X121265218Y-73362836D01*
X121265218Y-73362836D01*
G37*
G36*
X120000543Y-73378369D02*
G01*
X120000546Y-73378370D01*
X120000545Y-73378370D01*
X120064418Y-73404826D01*
X120121908Y-73443240D01*
X120170800Y-73492132D01*
X120209214Y-73549622D01*
X120215764Y-73565436D01*
X120235671Y-73613497D01*
X120249160Y-73681310D01*
X120249160Y-73750450D01*
X120235671Y-73818263D01*
X120235670Y-73818265D01*
X120209214Y-73882138D01*
X120170800Y-73939628D01*
X120121908Y-73988520D01*
X120064418Y-74026934D01*
X120023592Y-74043844D01*
X120000543Y-74053391D01*
X119932730Y-74066880D01*
X119863590Y-74066880D01*
X119795777Y-74053391D01*
X119772728Y-74043844D01*
X119731902Y-74026934D01*
X119674412Y-73988520D01*
X119625520Y-73939628D01*
X119587106Y-73882138D01*
X119560650Y-73818265D01*
X119560649Y-73818263D01*
X119547160Y-73750450D01*
X119547160Y-73681310D01*
X119560649Y-73613497D01*
X119580556Y-73565436D01*
X119587106Y-73549622D01*
X119625520Y-73492132D01*
X119674412Y-73443240D01*
X119731902Y-73404826D01*
X119795775Y-73378370D01*
X119795774Y-73378370D01*
X119795777Y-73378369D01*
X119863590Y-73364880D01*
X119932730Y-73364880D01*
X120000543Y-73378369D01*
X120000543Y-73378369D01*
G37*
G36*
X124877343Y-73342809D02*
G01*
X124877346Y-73342810D01*
X124877345Y-73342810D01*
X124941218Y-73369266D01*
X124998708Y-73407680D01*
X125047600Y-73456572D01*
X125086014Y-73514062D01*
X125100743Y-73549622D01*
X125112471Y-73577937D01*
X125125960Y-73645750D01*
X125125960Y-73714890D01*
X125112471Y-73782703D01*
X125112470Y-73782705D01*
X125086014Y-73846578D01*
X125047600Y-73904068D01*
X124998708Y-73952960D01*
X124941218Y-73991374D01*
X124899293Y-74008739D01*
X124877343Y-74017831D01*
X124809530Y-74031320D01*
X124740390Y-74031320D01*
X124672577Y-74017831D01*
X124650627Y-74008739D01*
X124608702Y-73991374D01*
X124551212Y-73952960D01*
X124502320Y-73904068D01*
X124463906Y-73846578D01*
X124437450Y-73782705D01*
X124437449Y-73782703D01*
X124423960Y-73714890D01*
X124423960Y-73645750D01*
X124437449Y-73577937D01*
X124449177Y-73549622D01*
X124463906Y-73514062D01*
X124502320Y-73456572D01*
X124551212Y-73407680D01*
X124608702Y-73369266D01*
X124672575Y-73342810D01*
X124672574Y-73342810D01*
X124672577Y-73342809D01*
X124740390Y-73329320D01*
X124809530Y-73329320D01*
X124877343Y-73342809D01*
X124877343Y-73342809D01*
G37*
G36*
X99310665Y-70149660D02*
G01*
X99423428Y-70172090D01*
X99444902Y-70180985D01*
X99742088Y-70304083D01*
X100028876Y-70495709D01*
X100272771Y-70739604D01*
X100464397Y-71026392D01*
X100596390Y-71345053D01*
X100663680Y-71683340D01*
X100663680Y-72028260D01*
X100639938Y-72147617D01*
X100599208Y-72352383D01*
X100596390Y-72366547D01*
X100464397Y-72685208D01*
X100272771Y-72971996D01*
X100028876Y-73215891D01*
X99742088Y-73407517D01*
X99574920Y-73476760D01*
X99423428Y-73539510D01*
X99372591Y-73549622D01*
X99085140Y-73606800D01*
X98740220Y-73606800D01*
X98452769Y-73549622D01*
X98401932Y-73539510D01*
X98250440Y-73476760D01*
X98083272Y-73407517D01*
X97796484Y-73215891D01*
X97552589Y-72971996D01*
X97360963Y-72685208D01*
X97228970Y-72366547D01*
X97226153Y-72352383D01*
X97185422Y-72147617D01*
X97161680Y-72028260D01*
X97161680Y-71683340D01*
X97228970Y-71345053D01*
X97360963Y-71026392D01*
X97552589Y-70739604D01*
X97796484Y-70495709D01*
X98083272Y-70304083D01*
X98380458Y-70180985D01*
X98401932Y-70172090D01*
X98514695Y-70149660D01*
X98740220Y-70104800D01*
X99085140Y-70104800D01*
X99310665Y-70149660D01*
X99310665Y-70149660D01*
G37*
G36*
X110502383Y-71912489D02*
G01*
X110502386Y-71912490D01*
X110502385Y-71912490D01*
X110566258Y-71938946D01*
X110623748Y-71977360D01*
X110672640Y-72026252D01*
X110711054Y-72083742D01*
X110732624Y-72135818D01*
X110737511Y-72147617D01*
X110751000Y-72215430D01*
X110751000Y-72284570D01*
X110737511Y-72352383D01*
X110737510Y-72352385D01*
X110711054Y-72416258D01*
X110672640Y-72473748D01*
X110652695Y-72493693D01*
X110637150Y-72512635D01*
X110625599Y-72534246D01*
X110618486Y-72557695D01*
X110616084Y-72582081D01*
X110618486Y-72606467D01*
X110625599Y-72629916D01*
X110637150Y-72651527D01*
X110652695Y-72670469D01*
X110671637Y-72686014D01*
X110693248Y-72697565D01*
X110716697Y-72704678D01*
X110741083Y-72707080D01*
X110820560Y-72707080D01*
X110848138Y-72709796D01*
X110868757Y-72716051D01*
X110887753Y-72726204D01*
X110904408Y-72739872D01*
X110918076Y-72756527D01*
X110928229Y-72775523D01*
X110934484Y-72796142D01*
X110937200Y-72823720D01*
X110937200Y-73282440D01*
X110934484Y-73310018D01*
X110928229Y-73330637D01*
X110918076Y-73349633D01*
X110904408Y-73366288D01*
X110887753Y-73379956D01*
X110868757Y-73390109D01*
X110848138Y-73396364D01*
X110820560Y-73399080D01*
X110311840Y-73399080D01*
X110284262Y-73396364D01*
X110263643Y-73390109D01*
X110244647Y-73379956D01*
X110227992Y-73366288D01*
X110214324Y-73349633D01*
X110204171Y-73330637D01*
X110197916Y-73310018D01*
X110195200Y-73282440D01*
X110195200Y-72823720D01*
X110197916Y-72796142D01*
X110204171Y-72775523D01*
X110214324Y-72756527D01*
X110234223Y-72732280D01*
X110237714Y-72728790D01*
X110251329Y-72708416D01*
X110260708Y-72685778D01*
X110265490Y-72661745D01*
X110265492Y-72637241D01*
X110260713Y-72613208D01*
X110251338Y-72590568D01*
X110237725Y-72570193D01*
X110220400Y-72552864D01*
X110210541Y-72545552D01*
X110176253Y-72522641D01*
X110127360Y-72473748D01*
X110088946Y-72416258D01*
X110062490Y-72352385D01*
X110062489Y-72352383D01*
X110049000Y-72284570D01*
X110049000Y-72215430D01*
X110062489Y-72147617D01*
X110067376Y-72135818D01*
X110088946Y-72083742D01*
X110127360Y-72026252D01*
X110176252Y-71977360D01*
X110233742Y-71938946D01*
X110297615Y-71912490D01*
X110297614Y-71912490D01*
X110297617Y-71912489D01*
X110365430Y-71899000D01*
X110434570Y-71899000D01*
X110502383Y-71912489D01*
X110502383Y-71912489D01*
G37*
G36*
X118542280Y-73198200D02*
G01*
X116890280Y-73198200D01*
X116890280Y-72496200D01*
X118542280Y-72496200D01*
X118542280Y-73198200D01*
X118542280Y-73198200D01*
G37*
G36*
X113142280Y-73198200D02*
G01*
X111490280Y-73198200D01*
X111490280Y-72496200D01*
X113142280Y-72496200D01*
X113142280Y-73198200D01*
X113142280Y-73198200D01*
G37*
G36*
X127539938Y-72491356D02*
G01*
X127560557Y-72497611D01*
X127579553Y-72507764D01*
X127596208Y-72521432D01*
X127609876Y-72538087D01*
X127620029Y-72557083D01*
X127626284Y-72577702D01*
X127629000Y-72605280D01*
X127629000Y-73064000D01*
X127626284Y-73091578D01*
X127620029Y-73112197D01*
X127609876Y-73131193D01*
X127596208Y-73147848D01*
X127579553Y-73161516D01*
X127560557Y-73171669D01*
X127539938Y-73177924D01*
X127512360Y-73180640D01*
X127003640Y-73180640D01*
X126976062Y-73177924D01*
X126955443Y-73171669D01*
X126936447Y-73161516D01*
X126919792Y-73147848D01*
X126906124Y-73131193D01*
X126895971Y-73112197D01*
X126889716Y-73091578D01*
X126887000Y-73064000D01*
X126887000Y-72605280D01*
X126889716Y-72577702D01*
X126895971Y-72557083D01*
X126906124Y-72538087D01*
X126919792Y-72521432D01*
X126936447Y-72507764D01*
X126955443Y-72497611D01*
X126976062Y-72491356D01*
X127003640Y-72488640D01*
X127512360Y-72488640D01*
X127539938Y-72491356D01*
X127539938Y-72491356D01*
G37*
G36*
X126260560Y-73111400D02*
G01*
X125098560Y-73111400D01*
X125098560Y-72359400D01*
X126260560Y-72359400D01*
X126260560Y-73111400D01*
X126260560Y-73111400D01*
G37*
G36*
X118542280Y-71928200D02*
G01*
X116890280Y-71928200D01*
X116890280Y-71226200D01*
X118542280Y-71226200D01*
X118542280Y-71928200D01*
X118542280Y-71928200D01*
G37*
G36*
X113142280Y-71928200D02*
G01*
X111490280Y-71928200D01*
X111490280Y-71226200D01*
X113142280Y-71226200D01*
X113142280Y-71928200D01*
X113142280Y-71928200D01*
G37*
G36*
X120792498Y-71010796D02*
G01*
X120813117Y-71017051D01*
X120832113Y-71027204D01*
X120848768Y-71040872D01*
X120862436Y-71057527D01*
X120872589Y-71076523D01*
X120878844Y-71097142D01*
X120881560Y-71124720D01*
X120881560Y-71633440D01*
X120878844Y-71661018D01*
X120872589Y-71681637D01*
X120862436Y-71700633D01*
X120848768Y-71717288D01*
X120832113Y-71730956D01*
X120813117Y-71741109D01*
X120792498Y-71747364D01*
X120764920Y-71750080D01*
X120306200Y-71750080D01*
X120278622Y-71747364D01*
X120258003Y-71741109D01*
X120239007Y-71730956D01*
X120222352Y-71717288D01*
X120208684Y-71700633D01*
X120198531Y-71681637D01*
X120192276Y-71661018D01*
X120189560Y-71633440D01*
X120189560Y-71124720D01*
X120192276Y-71097142D01*
X120198531Y-71076523D01*
X120208684Y-71057527D01*
X120222352Y-71040872D01*
X120239007Y-71027204D01*
X120258003Y-71017051D01*
X120278622Y-71010796D01*
X120306200Y-71008080D01*
X120764920Y-71008080D01*
X120792498Y-71010796D01*
X120792498Y-71010796D01*
G37*
G36*
X119822498Y-71010796D02*
G01*
X119843117Y-71017051D01*
X119862113Y-71027204D01*
X119878768Y-71040872D01*
X119892436Y-71057527D01*
X119902589Y-71076523D01*
X119908844Y-71097142D01*
X119911560Y-71124720D01*
X119911560Y-71633440D01*
X119908844Y-71661018D01*
X119902589Y-71681637D01*
X119892436Y-71700633D01*
X119878768Y-71717288D01*
X119862113Y-71730956D01*
X119843117Y-71741109D01*
X119822498Y-71747364D01*
X119794920Y-71750080D01*
X119336200Y-71750080D01*
X119308622Y-71747364D01*
X119288003Y-71741109D01*
X119269007Y-71730956D01*
X119252352Y-71717288D01*
X119238684Y-71700633D01*
X119228531Y-71681637D01*
X119222276Y-71661018D01*
X119219560Y-71633440D01*
X119219560Y-71124720D01*
X119222276Y-71097142D01*
X119228531Y-71076523D01*
X119238684Y-71057527D01*
X119252352Y-71040872D01*
X119269007Y-71027204D01*
X119288003Y-71017051D01*
X119308622Y-71010796D01*
X119336200Y-71008080D01*
X119794920Y-71008080D01*
X119822498Y-71010796D01*
X119822498Y-71010796D01*
G37*
G36*
X121693288Y-70240680D02*
G01*
X121774230Y-70240680D01*
X121842043Y-70254169D01*
X121842046Y-70254170D01*
X121842045Y-70254170D01*
X121905918Y-70280626D01*
X121963408Y-70319040D01*
X122012300Y-70367932D01*
X122050714Y-70425422D01*
X122061967Y-70452591D01*
X122077171Y-70489297D01*
X122090660Y-70557110D01*
X122090660Y-70626250D01*
X122077171Y-70694063D01*
X122077170Y-70694065D01*
X122050714Y-70757938D01*
X122012300Y-70815428D01*
X121963408Y-70864320D01*
X121905918Y-70902734D01*
X121853842Y-70924304D01*
X121842043Y-70929191D01*
X121774230Y-70942680D01*
X121705090Y-70942680D01*
X121637277Y-70929191D01*
X121625478Y-70924304D01*
X121573402Y-70902734D01*
X121515912Y-70864320D01*
X121467020Y-70815428D01*
X121428606Y-70757938D01*
X121402150Y-70694065D01*
X121402149Y-70694063D01*
X121388660Y-70626250D01*
X121388660Y-70557110D01*
X121402149Y-70489297D01*
X121417353Y-70452591D01*
X121428606Y-70425422D01*
X121467020Y-70367932D01*
X121515912Y-70319040D01*
X121573402Y-70280626D01*
X121637275Y-70254170D01*
X121637274Y-70254170D01*
X121637277Y-70254169D01*
X121655085Y-70250627D01*
X121678533Y-70243514D01*
X121685306Y-70239894D01*
X121693288Y-70240680D01*
X121693288Y-70240680D01*
G37*
G36*
X113142280Y-70658200D02*
G01*
X111490280Y-70658200D01*
X111490280Y-69956200D01*
X113142280Y-69956200D01*
X113142280Y-70658200D01*
X113142280Y-70658200D01*
G37*
G36*
X118542280Y-70658200D02*
G01*
X116890280Y-70658200D01*
X116890280Y-69956200D01*
X118542280Y-69956200D01*
X118542280Y-70658200D01*
X118542280Y-70658200D01*
G37*
G36*
X119647098Y-69852556D02*
G01*
X119667717Y-69858811D01*
X119686713Y-69868964D01*
X119703368Y-69882632D01*
X119717036Y-69899287D01*
X119727189Y-69918283D01*
X119733444Y-69938902D01*
X119736160Y-69966480D01*
X119736160Y-70475200D01*
X119733444Y-70502778D01*
X119727189Y-70523397D01*
X119717036Y-70542393D01*
X119703368Y-70559048D01*
X119686713Y-70572716D01*
X119667717Y-70582869D01*
X119647098Y-70589124D01*
X119619520Y-70591840D01*
X119160800Y-70591840D01*
X119133222Y-70589124D01*
X119112603Y-70582869D01*
X119093607Y-70572716D01*
X119076952Y-70559048D01*
X119063284Y-70542393D01*
X119053131Y-70523397D01*
X119046876Y-70502778D01*
X119044160Y-70475200D01*
X119044160Y-69966480D01*
X119046876Y-69938902D01*
X119053131Y-69918283D01*
X119063284Y-69899287D01*
X119076952Y-69882632D01*
X119093607Y-69868964D01*
X119112603Y-69858811D01*
X119133222Y-69852556D01*
X119160800Y-69849840D01*
X119619520Y-69849840D01*
X119647098Y-69852556D01*
X119647098Y-69852556D01*
G37*
G36*
X120617098Y-69852556D02*
G01*
X120637717Y-69858811D01*
X120656713Y-69868964D01*
X120673368Y-69882632D01*
X120687036Y-69899287D01*
X120697189Y-69918283D01*
X120703444Y-69938902D01*
X120706160Y-69966480D01*
X120706160Y-70475200D01*
X120703444Y-70502778D01*
X120697189Y-70523397D01*
X120687036Y-70542393D01*
X120673368Y-70559048D01*
X120656713Y-70572716D01*
X120637717Y-70582869D01*
X120617098Y-70589124D01*
X120589520Y-70591840D01*
X120130800Y-70591840D01*
X120103222Y-70589124D01*
X120082603Y-70582869D01*
X120063607Y-70572716D01*
X120046952Y-70559048D01*
X120033284Y-70542393D01*
X120023131Y-70523397D01*
X120016876Y-70502778D01*
X120014160Y-70475200D01*
X120014160Y-69966480D01*
X120016876Y-69938902D01*
X120023131Y-69918283D01*
X120033284Y-69899287D01*
X120046952Y-69882632D01*
X120063607Y-69868964D01*
X120082603Y-69858811D01*
X120103222Y-69852556D01*
X120130800Y-69849840D01*
X120589520Y-69849840D01*
X120617098Y-69852556D01*
X120617098Y-69852556D01*
G37*
G36*
X113853743Y-69741089D02*
G01*
X113853746Y-69741090D01*
X113853745Y-69741090D01*
X113917618Y-69767546D01*
X113975108Y-69805960D01*
X114024000Y-69854852D01*
X114062414Y-69912342D01*
X114073415Y-69938902D01*
X114088871Y-69976217D01*
X114102360Y-70044030D01*
X114102360Y-70113170D01*
X114088871Y-70180983D01*
X114088870Y-70180985D01*
X114062414Y-70244858D01*
X114024000Y-70302348D01*
X113975108Y-70351240D01*
X113917618Y-70389654D01*
X113865542Y-70411224D01*
X113853743Y-70416111D01*
X113785930Y-70429600D01*
X113716790Y-70429600D01*
X113648977Y-70416111D01*
X113637178Y-70411224D01*
X113585102Y-70389654D01*
X113527612Y-70351240D01*
X113478720Y-70302348D01*
X113440306Y-70244858D01*
X113413850Y-70180985D01*
X113413849Y-70180983D01*
X113400360Y-70113170D01*
X113400360Y-70044030D01*
X113413849Y-69976217D01*
X113429305Y-69938902D01*
X113440306Y-69912342D01*
X113478720Y-69854852D01*
X113527612Y-69805960D01*
X113585102Y-69767546D01*
X113648975Y-69741090D01*
X113648974Y-69741090D01*
X113648977Y-69741089D01*
X113716790Y-69727600D01*
X113785930Y-69727600D01*
X113853743Y-69741089D01*
X113853743Y-69741089D01*
G37*
G36*
X121686708Y-69314520D02*
G01*
X121686711Y-69314521D01*
X121686710Y-69314521D01*
X121750583Y-69340977D01*
X121808073Y-69379391D01*
X121856965Y-69428283D01*
X121895379Y-69485773D01*
X121900942Y-69499204D01*
X121921836Y-69549648D01*
X121935325Y-69617461D01*
X121935325Y-69686601D01*
X121921836Y-69754414D01*
X121921835Y-69754416D01*
X121895379Y-69818289D01*
X121856965Y-69875779D01*
X121808073Y-69924671D01*
X121750583Y-69963085D01*
X121718878Y-69976217D01*
X121686708Y-69989542D01*
X121668901Y-69993084D01*
X121645452Y-70000197D01*
X121638679Y-70003817D01*
X121630697Y-70003031D01*
X121549755Y-70003031D01*
X121481942Y-69989542D01*
X121449772Y-69976217D01*
X121418067Y-69963085D01*
X121360577Y-69924671D01*
X121311685Y-69875779D01*
X121273271Y-69818289D01*
X121246815Y-69754416D01*
X121246814Y-69754414D01*
X121233325Y-69686601D01*
X121233325Y-69617461D01*
X121246814Y-69549648D01*
X121267708Y-69499204D01*
X121273271Y-69485773D01*
X121311685Y-69428283D01*
X121360577Y-69379391D01*
X121418067Y-69340977D01*
X121481940Y-69314521D01*
X121481939Y-69314521D01*
X121481942Y-69314520D01*
X121549755Y-69301031D01*
X121618895Y-69301031D01*
X121686708Y-69314520D01*
X121686708Y-69314520D01*
G37*
G36*
X102103680Y-69716800D02*
G01*
X100801680Y-69716800D01*
X100801680Y-68414800D01*
X102103680Y-68414800D01*
X102103680Y-69716800D01*
X102103680Y-69716800D01*
G37*
G36*
X110956938Y-68916716D02*
G01*
X110977557Y-68922971D01*
X110996553Y-68933124D01*
X111013208Y-68946792D01*
X111026876Y-68963447D01*
X111037029Y-68982443D01*
X111043284Y-69003062D01*
X111046000Y-69030640D01*
X111046000Y-69489360D01*
X111043284Y-69516938D01*
X111037029Y-69537557D01*
X111026876Y-69556553D01*
X111013208Y-69573208D01*
X110996553Y-69586876D01*
X110977557Y-69597029D01*
X110956938Y-69603284D01*
X110929360Y-69606000D01*
X110420640Y-69606000D01*
X110393062Y-69603284D01*
X110372443Y-69597029D01*
X110353447Y-69586876D01*
X110336792Y-69573208D01*
X110323124Y-69556553D01*
X110312971Y-69537557D01*
X110306716Y-69516938D01*
X110304000Y-69489360D01*
X110304000Y-69030640D01*
X110306716Y-69003062D01*
X110312971Y-68982443D01*
X110323124Y-68963447D01*
X110336792Y-68946792D01*
X110353447Y-68933124D01*
X110372443Y-68922971D01*
X110393062Y-68916716D01*
X110420640Y-68914000D01*
X110929360Y-68914000D01*
X110956938Y-68916716D01*
X110956938Y-68916716D01*
G37*
G36*
X119662338Y-68689236D02*
G01*
X119682957Y-68695491D01*
X119701953Y-68705644D01*
X119718608Y-68719312D01*
X119732276Y-68735967D01*
X119742429Y-68754963D01*
X119748684Y-68775582D01*
X119751400Y-68803160D01*
X119751400Y-69311880D01*
X119748684Y-69339458D01*
X119742429Y-69360077D01*
X119732276Y-69379073D01*
X119718608Y-69395728D01*
X119701953Y-69409396D01*
X119682957Y-69419549D01*
X119662338Y-69425804D01*
X119634760Y-69428520D01*
X119176040Y-69428520D01*
X119148462Y-69425804D01*
X119127843Y-69419549D01*
X119108847Y-69409396D01*
X119092192Y-69395728D01*
X119078524Y-69379073D01*
X119068371Y-69360077D01*
X119062116Y-69339458D01*
X119059400Y-69311880D01*
X119059400Y-68803160D01*
X119062116Y-68775582D01*
X119068371Y-68754963D01*
X119078524Y-68735967D01*
X119092192Y-68719312D01*
X119108847Y-68705644D01*
X119127843Y-68695491D01*
X119148462Y-68689236D01*
X119176040Y-68686520D01*
X119634760Y-68686520D01*
X119662338Y-68689236D01*
X119662338Y-68689236D01*
G37*
G36*
X120632338Y-68689236D02*
G01*
X120652957Y-68695491D01*
X120671953Y-68705644D01*
X120688608Y-68719312D01*
X120702276Y-68735967D01*
X120712429Y-68754963D01*
X120718684Y-68775582D01*
X120721400Y-68803160D01*
X120721400Y-69311880D01*
X120718684Y-69339458D01*
X120712429Y-69360077D01*
X120702276Y-69379073D01*
X120688608Y-69395728D01*
X120671953Y-69409396D01*
X120652957Y-69419549D01*
X120632338Y-69425804D01*
X120604760Y-69428520D01*
X120146040Y-69428520D01*
X120118462Y-69425804D01*
X120097843Y-69419549D01*
X120078847Y-69409396D01*
X120062192Y-69395728D01*
X120048524Y-69379073D01*
X120038371Y-69360077D01*
X120032116Y-69339458D01*
X120029400Y-69311880D01*
X120029400Y-68803160D01*
X120032116Y-68775582D01*
X120038371Y-68754963D01*
X120048524Y-68735967D01*
X120062192Y-68719312D01*
X120078847Y-68705644D01*
X120097843Y-68695491D01*
X120118462Y-68689236D01*
X120146040Y-68686520D01*
X120604760Y-68686520D01*
X120632338Y-68689236D01*
X120632338Y-68689236D01*
G37*
G36*
X113121960Y-68438240D02*
G01*
X112436403Y-68438240D01*
X112412017Y-68440642D01*
X112388568Y-68447755D01*
X112366957Y-68459306D01*
X112348015Y-68474851D01*
X112332470Y-68493793D01*
X112320919Y-68515404D01*
X112313806Y-68538853D01*
X112311404Y-68563239D01*
X112313806Y-68587625D01*
X112320919Y-68611074D01*
X112332470Y-68632685D01*
X112348015Y-68651627D01*
X112372640Y-68676252D01*
X112411054Y-68733742D01*
X112426536Y-68771120D01*
X112437511Y-68797617D01*
X112451000Y-68865430D01*
X112451000Y-68934570D01*
X112437511Y-69002383D01*
X112437510Y-69002385D01*
X112411054Y-69066258D01*
X112372640Y-69123748D01*
X112323748Y-69172640D01*
X112266258Y-69211054D01*
X112214182Y-69232624D01*
X112202383Y-69237511D01*
X112134570Y-69251000D01*
X112065430Y-69251000D01*
X111997617Y-69237511D01*
X111985818Y-69232624D01*
X111933742Y-69211054D01*
X111876252Y-69172640D01*
X111827360Y-69123748D01*
X111788946Y-69066258D01*
X111762490Y-69002385D01*
X111762489Y-69002383D01*
X111749000Y-68934570D01*
X111749000Y-68865430D01*
X111762489Y-68797617D01*
X111773464Y-68771120D01*
X111788946Y-68733742D01*
X111827360Y-68676252D01*
X111851985Y-68651627D01*
X111867530Y-68632685D01*
X111879081Y-68611074D01*
X111886194Y-68587625D01*
X111888596Y-68563239D01*
X111886194Y-68538853D01*
X111879081Y-68515404D01*
X111867530Y-68493793D01*
X111851985Y-68474851D01*
X111833043Y-68459306D01*
X111811432Y-68447755D01*
X111787983Y-68440642D01*
X111763597Y-68438240D01*
X111469960Y-68438240D01*
X111469960Y-67736240D01*
X113121960Y-67736240D01*
X113121960Y-68438240D01*
X113121960Y-68438240D01*
G37*
G36*
X122799623Y-68532049D02*
G01*
X122799626Y-68532050D01*
X122799625Y-68532050D01*
X122863498Y-68558506D01*
X122920988Y-68596920D01*
X122969880Y-68645812D01*
X123008294Y-68703302D01*
X123026311Y-68746800D01*
X123034751Y-68767177D01*
X123048240Y-68834990D01*
X123048240Y-68904130D01*
X123034751Y-68971943D01*
X123034750Y-68971945D01*
X123008294Y-69035818D01*
X122969880Y-69093308D01*
X122920988Y-69142200D01*
X122863498Y-69180614D01*
X122811422Y-69202184D01*
X122799623Y-69207071D01*
X122731810Y-69220560D01*
X122662670Y-69220560D01*
X122594857Y-69207071D01*
X122583058Y-69202184D01*
X122530982Y-69180614D01*
X122473492Y-69142200D01*
X122424600Y-69093308D01*
X122386186Y-69035818D01*
X122359730Y-68971945D01*
X122359729Y-68971943D01*
X122346240Y-68904130D01*
X122346240Y-68834990D01*
X122359729Y-68767177D01*
X122368169Y-68746800D01*
X122386186Y-68703302D01*
X122424600Y-68645812D01*
X122473492Y-68596920D01*
X122530982Y-68558506D01*
X122594855Y-68532050D01*
X122594854Y-68532050D01*
X122594857Y-68532049D01*
X122662670Y-68518560D01*
X122731810Y-68518560D01*
X122799623Y-68532049D01*
X122799623Y-68532049D01*
G37*
G36*
X121968258Y-68198476D02*
G01*
X121988877Y-68204731D01*
X122007873Y-68214884D01*
X122024528Y-68228552D01*
X122038196Y-68245207D01*
X122048349Y-68264203D01*
X122054604Y-68284822D01*
X122057320Y-68312400D01*
X122057320Y-68771120D01*
X122054604Y-68798698D01*
X122048349Y-68819317D01*
X122038196Y-68838313D01*
X122024528Y-68854968D01*
X122007873Y-68868636D01*
X121988877Y-68878789D01*
X121968258Y-68885044D01*
X121940680Y-68887760D01*
X121431960Y-68887760D01*
X121404382Y-68885044D01*
X121383763Y-68878789D01*
X121364767Y-68868636D01*
X121348112Y-68854968D01*
X121334444Y-68838313D01*
X121324291Y-68819317D01*
X121318036Y-68798698D01*
X121315320Y-68771120D01*
X121315320Y-68312400D01*
X121318036Y-68284822D01*
X121324291Y-68264203D01*
X121334444Y-68245207D01*
X121348112Y-68228552D01*
X121364767Y-68214884D01*
X121383763Y-68204731D01*
X121404382Y-68198476D01*
X121431960Y-68195760D01*
X121940680Y-68195760D01*
X121968258Y-68198476D01*
X121968258Y-68198476D01*
G37*
G36*
X103437153Y-67371738D02*
G01*
X103564729Y-67424582D01*
X103679539Y-67501295D01*
X103777185Y-67598941D01*
X103853898Y-67713751D01*
X103906742Y-67841327D01*
X103933680Y-67976756D01*
X103933680Y-68114844D01*
X103906742Y-68250273D01*
X103853898Y-68377849D01*
X103777185Y-68492659D01*
X103679539Y-68590305D01*
X103564729Y-68667018D01*
X103437153Y-68719862D01*
X103301724Y-68746800D01*
X103163636Y-68746800D01*
X103028207Y-68719862D01*
X102900631Y-68667018D01*
X102785821Y-68590305D01*
X102688175Y-68492659D01*
X102611462Y-68377849D01*
X102558618Y-68250273D01*
X102531680Y-68114844D01*
X102531680Y-67976756D01*
X102558618Y-67841327D01*
X102611462Y-67713751D01*
X102688175Y-67598941D01*
X102785821Y-67501295D01*
X102900631Y-67424582D01*
X103028207Y-67371738D01*
X103163636Y-67344800D01*
X103301724Y-67344800D01*
X103437153Y-67371738D01*
X103437153Y-67371738D01*
G37*
G36*
X110956938Y-67946716D02*
G01*
X110977557Y-67952971D01*
X110996553Y-67963124D01*
X111013208Y-67976792D01*
X111026876Y-67993447D01*
X111037029Y-68012443D01*
X111043284Y-68033062D01*
X111046000Y-68060640D01*
X111046000Y-68519360D01*
X111043284Y-68546938D01*
X111037029Y-68567557D01*
X111026876Y-68586553D01*
X111013208Y-68603208D01*
X110996553Y-68616876D01*
X110977557Y-68627029D01*
X110956938Y-68633284D01*
X110929360Y-68636000D01*
X110420640Y-68636000D01*
X110393062Y-68633284D01*
X110372443Y-68627029D01*
X110353447Y-68616876D01*
X110336792Y-68603208D01*
X110323124Y-68586553D01*
X110312971Y-68567557D01*
X110306716Y-68546938D01*
X110304000Y-68519360D01*
X110304000Y-68060640D01*
X110306716Y-68033062D01*
X110312971Y-68012443D01*
X110323124Y-67993447D01*
X110336792Y-67976792D01*
X110353447Y-67963124D01*
X110372443Y-67952971D01*
X110393062Y-67946716D01*
X110420640Y-67944000D01*
X110929360Y-67944000D01*
X110956938Y-67946716D01*
X110956938Y-67946716D01*
G37*
G36*
X118521960Y-68438240D02*
G01*
X116869960Y-68438240D01*
X116869960Y-67736240D01*
X118521960Y-67736240D01*
X118521960Y-68438240D01*
X118521960Y-68438240D01*
G37*
G36*
X129801000Y-68401000D02*
G01*
X127999000Y-68401000D01*
X127999000Y-66599000D01*
X129801000Y-66599000D01*
X129801000Y-68401000D01*
X129801000Y-68401000D01*
G37*
G36*
X120739018Y-67205876D02*
G01*
X120759637Y-67212131D01*
X120778633Y-67222284D01*
X120795288Y-67235952D01*
X120808956Y-67252607D01*
X120819109Y-67271603D01*
X120825364Y-67292222D01*
X120828080Y-67319800D01*
X120828080Y-67828520D01*
X120825364Y-67856098D01*
X120819109Y-67876717D01*
X120808956Y-67895713D01*
X120795288Y-67912368D01*
X120778633Y-67926036D01*
X120759637Y-67936189D01*
X120739018Y-67942444D01*
X120711440Y-67945160D01*
X120252720Y-67945160D01*
X120225142Y-67942444D01*
X120204523Y-67936189D01*
X120185527Y-67926036D01*
X120168872Y-67912368D01*
X120155204Y-67895713D01*
X120145051Y-67876717D01*
X120138796Y-67856098D01*
X120136080Y-67828520D01*
X120136080Y-67319800D01*
X120138796Y-67292222D01*
X120145051Y-67271603D01*
X120155204Y-67252607D01*
X120168872Y-67235952D01*
X120185527Y-67222284D01*
X120204523Y-67212131D01*
X120225142Y-67205876D01*
X120252720Y-67203160D01*
X120711440Y-67203160D01*
X120739018Y-67205876D01*
X120739018Y-67205876D01*
G37*
G36*
X119769018Y-67205876D02*
G01*
X119789637Y-67212131D01*
X119808633Y-67222284D01*
X119825288Y-67235952D01*
X119838956Y-67252607D01*
X119849109Y-67271603D01*
X119855364Y-67292222D01*
X119858080Y-67319800D01*
X119858080Y-67828520D01*
X119855364Y-67856098D01*
X119849109Y-67876717D01*
X119838956Y-67895713D01*
X119825288Y-67912368D01*
X119808633Y-67926036D01*
X119789637Y-67936189D01*
X119769018Y-67942444D01*
X119741440Y-67945160D01*
X119282720Y-67945160D01*
X119255142Y-67942444D01*
X119234523Y-67936189D01*
X119215527Y-67926036D01*
X119198872Y-67912368D01*
X119185204Y-67895713D01*
X119175051Y-67876717D01*
X119168796Y-67856098D01*
X119166080Y-67828520D01*
X119166080Y-67319800D01*
X119168796Y-67292222D01*
X119175051Y-67271603D01*
X119185204Y-67252607D01*
X119198872Y-67235952D01*
X119215527Y-67222284D01*
X119234523Y-67212131D01*
X119255142Y-67205876D01*
X119282720Y-67203160D01*
X119741440Y-67203160D01*
X119769018Y-67205876D01*
X119769018Y-67205876D01*
G37*
G36*
X121968258Y-67228476D02*
G01*
X121988877Y-67234731D01*
X122007873Y-67244884D01*
X122024528Y-67258552D01*
X122038196Y-67275207D01*
X122048349Y-67294203D01*
X122054604Y-67314822D01*
X122057320Y-67342398D01*
X122057320Y-67801120D01*
X122054604Y-67828698D01*
X122048349Y-67849317D01*
X122038196Y-67868313D01*
X122024528Y-67884968D01*
X122007873Y-67898636D01*
X121988877Y-67908789D01*
X121968258Y-67915044D01*
X121940680Y-67917760D01*
X121431960Y-67917760D01*
X121404382Y-67915044D01*
X121383763Y-67908789D01*
X121364767Y-67898636D01*
X121348112Y-67884968D01*
X121334444Y-67868313D01*
X121324291Y-67849317D01*
X121318036Y-67828698D01*
X121315320Y-67801120D01*
X121315320Y-67342398D01*
X121318036Y-67314822D01*
X121324291Y-67294203D01*
X121334444Y-67275207D01*
X121348112Y-67258552D01*
X121364767Y-67244884D01*
X121383763Y-67234731D01*
X121404382Y-67228476D01*
X121431960Y-67225760D01*
X121940680Y-67225760D01*
X121968258Y-67228476D01*
X121968258Y-67228476D01*
G37*
G36*
X101657153Y-66351738D02*
G01*
X101784729Y-66404582D01*
X101899539Y-66481295D01*
X101997185Y-66578941D01*
X102073898Y-66693751D01*
X102126742Y-66821327D01*
X102153680Y-66956756D01*
X102153680Y-67094844D01*
X102126742Y-67230273D01*
X102073898Y-67357849D01*
X101997185Y-67472659D01*
X101899539Y-67570305D01*
X101784729Y-67647018D01*
X101657153Y-67699862D01*
X101521724Y-67726800D01*
X101383636Y-67726800D01*
X101248207Y-67699862D01*
X101120631Y-67647018D01*
X101005821Y-67570305D01*
X100908175Y-67472659D01*
X100831462Y-67357849D01*
X100778618Y-67230273D01*
X100751680Y-67094844D01*
X100751680Y-66956756D01*
X100778618Y-66821327D01*
X100831462Y-66693751D01*
X100908175Y-66578941D01*
X101005821Y-66481295D01*
X101120631Y-66404582D01*
X101248207Y-66351738D01*
X101383636Y-66324800D01*
X101521724Y-66324800D01*
X101657153Y-66351738D01*
X101657153Y-66351738D01*
G37*
G36*
X124494072Y-64700918D02*
G01*
X124688198Y-64781327D01*
X124739939Y-64802759D01*
X124851328Y-64877187D01*
X124961211Y-64950609D01*
X125149391Y-65138789D01*
X125196842Y-65209804D01*
X125278317Y-65331739D01*
X125297242Y-65360063D01*
X125399082Y-65605928D01*
X125451000Y-65866937D01*
X125451000Y-66133063D01*
X125399082Y-66394072D01*
X125314199Y-66599000D01*
X125297241Y-66639939D01*
X125251752Y-66708018D01*
X125149391Y-66861211D01*
X124961211Y-67049391D01*
X124943837Y-67061000D01*
X124739939Y-67197241D01*
X124739938Y-67197242D01*
X124739937Y-67197242D01*
X124494072Y-67299082D01*
X124233063Y-67351000D01*
X123966937Y-67351000D01*
X123705928Y-67299082D01*
X123460063Y-67197242D01*
X123460062Y-67197242D01*
X123460061Y-67197241D01*
X123256163Y-67061000D01*
X123238789Y-67049391D01*
X123050609Y-66861211D01*
X122948248Y-66708018D01*
X122902759Y-66639939D01*
X122885802Y-66599000D01*
X122800918Y-66394072D01*
X122749000Y-66133063D01*
X122749000Y-65866937D01*
X122800918Y-65605928D01*
X122902758Y-65360063D01*
X122921684Y-65331739D01*
X123003158Y-65209804D01*
X123050609Y-65138789D01*
X123238789Y-64950609D01*
X123348672Y-64877187D01*
X123460061Y-64802759D01*
X123511803Y-64781327D01*
X123705928Y-64700918D01*
X123966937Y-64649000D01*
X124233063Y-64649000D01*
X124494072Y-64700918D01*
X124494072Y-64700918D01*
G37*
G36*
X118521960Y-67168240D02*
G01*
X116869960Y-67168240D01*
X116869960Y-66466240D01*
X118521960Y-66466240D01*
X118521960Y-67168240D01*
X118521960Y-67168240D01*
G37*
G36*
X113121960Y-67168240D02*
G01*
X111469960Y-67168240D01*
X111469960Y-66466240D01*
X113121960Y-66466240D01*
X113121960Y-67168240D01*
X113121960Y-67168240D01*
G37*
G36*
X111011938Y-66371716D02*
G01*
X111032557Y-66377971D01*
X111051553Y-66388124D01*
X111068208Y-66401792D01*
X111081876Y-66418447D01*
X111092029Y-66437443D01*
X111098284Y-66458062D01*
X111101000Y-66485640D01*
X111101000Y-66944360D01*
X111098284Y-66971938D01*
X111092029Y-66992557D01*
X111081876Y-67011553D01*
X111068208Y-67028208D01*
X111051553Y-67041876D01*
X111032557Y-67052029D01*
X111011938Y-67058284D01*
X110984360Y-67061000D01*
X110475640Y-67061000D01*
X110448062Y-67058284D01*
X110427443Y-67052029D01*
X110408447Y-67041876D01*
X110391792Y-67028208D01*
X110378124Y-67011553D01*
X110367971Y-66992557D01*
X110361716Y-66971938D01*
X110359000Y-66944360D01*
X110359000Y-66485640D01*
X110361716Y-66458062D01*
X110367971Y-66437443D01*
X110378124Y-66418447D01*
X110391792Y-66401792D01*
X110408447Y-66388124D01*
X110427443Y-66377971D01*
X110448062Y-66371716D01*
X110475640Y-66369000D01*
X110984360Y-66369000D01*
X111011938Y-66371716D01*
X111011938Y-66371716D01*
G37*
G36*
X121802383Y-66212489D02*
G01*
X121802386Y-66212490D01*
X121802385Y-66212490D01*
X121866258Y-66238946D01*
X121923748Y-66277360D01*
X121972640Y-66326252D01*
X122011054Y-66383742D01*
X122032624Y-66435818D01*
X122037511Y-66447617D01*
X122051000Y-66515430D01*
X122051000Y-66584570D01*
X122037511Y-66652383D01*
X122037510Y-66652385D01*
X122011054Y-66716258D01*
X121972640Y-66773748D01*
X121923748Y-66822640D01*
X121866258Y-66861054D01*
X121814182Y-66882624D01*
X121802383Y-66887511D01*
X121734570Y-66901000D01*
X121665430Y-66901000D01*
X121597617Y-66887511D01*
X121585818Y-66882624D01*
X121533742Y-66861054D01*
X121476252Y-66822640D01*
X121427360Y-66773748D01*
X121388946Y-66716258D01*
X121362490Y-66652385D01*
X121362489Y-66652383D01*
X121349000Y-66584570D01*
X121349000Y-66515430D01*
X121362489Y-66447617D01*
X121367376Y-66435818D01*
X121388946Y-66383742D01*
X121427360Y-66326252D01*
X121476252Y-66277360D01*
X121533742Y-66238946D01*
X121597615Y-66212490D01*
X121597614Y-66212490D01*
X121597617Y-66212489D01*
X121665430Y-66199000D01*
X121734570Y-66199000D01*
X121802383Y-66212489D01*
X121802383Y-66212489D01*
G37*
G36*
X120749458Y-66057796D02*
G01*
X120770077Y-66064051D01*
X120789073Y-66074204D01*
X120805728Y-66087872D01*
X120819396Y-66104527D01*
X120829549Y-66123523D01*
X120835804Y-66144142D01*
X120838520Y-66171720D01*
X120838520Y-66680440D01*
X120835804Y-66708018D01*
X120829549Y-66728637D01*
X120819396Y-66747633D01*
X120805728Y-66764288D01*
X120789073Y-66777956D01*
X120770077Y-66788109D01*
X120749458Y-66794364D01*
X120721880Y-66797080D01*
X120263160Y-66797080D01*
X120235582Y-66794364D01*
X120214963Y-66788109D01*
X120195967Y-66777956D01*
X120179312Y-66764288D01*
X120165644Y-66747633D01*
X120155491Y-66728637D01*
X120149236Y-66708018D01*
X120146520Y-66680440D01*
X120146520Y-66171720D01*
X120149236Y-66144142D01*
X120155491Y-66123523D01*
X120165644Y-66104527D01*
X120179312Y-66087872D01*
X120195967Y-66074204D01*
X120214963Y-66064051D01*
X120235582Y-66057796D01*
X120263160Y-66055080D01*
X120721880Y-66055080D01*
X120749458Y-66057796D01*
X120749458Y-66057796D01*
G37*
G36*
X119779458Y-66057796D02*
G01*
X119800077Y-66064051D01*
X119819073Y-66074204D01*
X119835728Y-66087872D01*
X119849396Y-66104527D01*
X119859549Y-66123523D01*
X119865804Y-66144142D01*
X119868520Y-66171720D01*
X119868520Y-66680440D01*
X119865804Y-66708018D01*
X119859549Y-66728637D01*
X119849396Y-66747633D01*
X119835728Y-66764288D01*
X119819073Y-66777956D01*
X119800077Y-66788109D01*
X119779458Y-66794364D01*
X119751880Y-66797080D01*
X119293160Y-66797080D01*
X119265582Y-66794364D01*
X119244963Y-66788109D01*
X119225967Y-66777956D01*
X119209312Y-66764288D01*
X119195644Y-66747633D01*
X119185491Y-66728637D01*
X119179236Y-66708018D01*
X119176520Y-66680440D01*
X119176520Y-66171720D01*
X119179236Y-66144142D01*
X119185491Y-66123523D01*
X119195644Y-66104527D01*
X119209312Y-66087872D01*
X119225967Y-66074204D01*
X119244963Y-66064051D01*
X119265582Y-66057796D01*
X119293160Y-66055080D01*
X119751880Y-66055080D01*
X119779458Y-66057796D01*
X119779458Y-66057796D01*
G37*
G36*
X107282383Y-66082489D02*
G01*
X107294182Y-66087376D01*
X107346258Y-66108946D01*
X107403748Y-66147360D01*
X107452640Y-66196252D01*
X107491054Y-66253742D01*
X107500837Y-66277361D01*
X107517511Y-66317617D01*
X107531000Y-66385430D01*
X107531000Y-66454570D01*
X107517511Y-66522383D01*
X107517510Y-66522385D01*
X107491054Y-66586258D01*
X107452640Y-66643748D01*
X107403748Y-66692640D01*
X107346258Y-66731054D01*
X107309186Y-66746409D01*
X107282383Y-66757511D01*
X107214570Y-66771000D01*
X107145430Y-66771000D01*
X107077617Y-66757511D01*
X107050814Y-66746409D01*
X107013742Y-66731054D01*
X106956252Y-66692640D01*
X106907360Y-66643748D01*
X106868946Y-66586258D01*
X106842490Y-66522385D01*
X106842489Y-66522383D01*
X106829000Y-66454570D01*
X106829000Y-66385430D01*
X106842489Y-66317617D01*
X106859163Y-66277361D01*
X106868946Y-66253742D01*
X106907360Y-66196252D01*
X106956252Y-66147360D01*
X107013742Y-66108946D01*
X107065818Y-66087376D01*
X107077617Y-66082489D01*
X107145430Y-66069000D01*
X107214570Y-66069000D01*
X107282383Y-66082489D01*
X107282383Y-66082489D01*
G37*
G36*
X103437153Y-65331738D02*
G01*
X103564729Y-65384582D01*
X103679539Y-65461295D01*
X103777185Y-65558941D01*
X103853898Y-65673751D01*
X103906742Y-65801327D01*
X103933680Y-65936756D01*
X103933680Y-66074844D01*
X103906742Y-66210273D01*
X103853898Y-66337849D01*
X103777185Y-66452659D01*
X103679539Y-66550305D01*
X103564729Y-66627018D01*
X103437153Y-66679862D01*
X103301724Y-66706800D01*
X103163636Y-66706800D01*
X103028207Y-66679862D01*
X102900631Y-66627018D01*
X102785821Y-66550305D01*
X102688175Y-66452659D01*
X102611462Y-66337849D01*
X102558618Y-66210273D01*
X102531680Y-66074844D01*
X102531680Y-65936756D01*
X102558618Y-65801327D01*
X102611462Y-65673751D01*
X102688175Y-65558941D01*
X102785821Y-65461295D01*
X102900631Y-65384582D01*
X103028207Y-65331738D01*
X103163636Y-65304800D01*
X103301724Y-65304800D01*
X103437153Y-65331738D01*
X103437153Y-65331738D01*
G37*
G36*
X111011938Y-65401716D02*
G01*
X111032557Y-65407971D01*
X111051553Y-65418124D01*
X111068208Y-65431792D01*
X111081876Y-65448447D01*
X111092029Y-65467443D01*
X111098284Y-65488062D01*
X111101000Y-65515640D01*
X111101000Y-65974360D01*
X111098284Y-66001938D01*
X111092029Y-66022557D01*
X111081876Y-66041553D01*
X111068208Y-66058208D01*
X111051553Y-66071876D01*
X111032557Y-66082029D01*
X111011938Y-66088284D01*
X110984360Y-66091000D01*
X110475640Y-66091000D01*
X110448062Y-66088284D01*
X110427443Y-66082029D01*
X110408447Y-66071876D01*
X110391792Y-66058208D01*
X110378124Y-66041553D01*
X110367971Y-66022557D01*
X110361716Y-66001938D01*
X110359000Y-65974360D01*
X110359000Y-65515640D01*
X110361716Y-65488062D01*
X110367971Y-65467443D01*
X110378124Y-65448447D01*
X110391792Y-65431792D01*
X110408447Y-65418124D01*
X110427443Y-65407971D01*
X110448062Y-65401716D01*
X110475640Y-65399000D01*
X110984360Y-65399000D01*
X111011938Y-65401716D01*
X111011938Y-65401716D01*
G37*
G36*
X118521960Y-65898240D02*
G01*
X116869960Y-65898240D01*
X116869960Y-65196240D01*
X118521960Y-65196240D01*
X118521960Y-65898240D01*
X118521960Y-65898240D01*
G37*
G36*
X113121960Y-65898240D02*
G01*
X111469960Y-65898240D01*
X111469960Y-65196240D01*
X113121960Y-65196240D01*
X113121960Y-65898240D01*
X113121960Y-65898240D01*
G37*
G36*
X129010442Y-64065518D02*
G01*
X129076627Y-64072037D01*
X129246466Y-64123557D01*
X129402991Y-64207222D01*
X129421424Y-64222350D01*
X129540186Y-64319814D01*
X129616381Y-64412659D01*
X129652778Y-64457009D01*
X129652779Y-64457011D01*
X129712091Y-64567974D01*
X129736443Y-64613534D01*
X129787963Y-64783373D01*
X129805359Y-64960000D01*
X129787963Y-65136627D01*
X129736443Y-65306466D01*
X129652778Y-65462991D01*
X129623448Y-65498729D01*
X129540186Y-65600186D01*
X129450545Y-65673751D01*
X129402991Y-65712778D01*
X129246466Y-65796443D01*
X129076627Y-65847963D01*
X129010443Y-65854481D01*
X128944260Y-65861000D01*
X128855740Y-65861000D01*
X128789557Y-65854481D01*
X128723373Y-65847963D01*
X128553534Y-65796443D01*
X128397009Y-65712778D01*
X128349455Y-65673751D01*
X128259814Y-65600186D01*
X128176552Y-65498729D01*
X128147222Y-65462991D01*
X128063557Y-65306466D01*
X128012037Y-65136627D01*
X127994641Y-64960000D01*
X128012037Y-64783373D01*
X128063557Y-64613534D01*
X128087910Y-64567974D01*
X128147221Y-64457011D01*
X128147222Y-64457009D01*
X128183619Y-64412659D01*
X128259814Y-64319814D01*
X128378576Y-64222350D01*
X128397009Y-64207222D01*
X128553534Y-64123557D01*
X128723373Y-64072037D01*
X128789558Y-64065518D01*
X128855740Y-64059000D01*
X128944260Y-64059000D01*
X129010442Y-64065518D01*
X129010442Y-64065518D01*
G37*
G36*
X101657153Y-64311738D02*
G01*
X101784729Y-64364582D01*
X101899539Y-64441295D01*
X101997185Y-64538941D01*
X102073898Y-64653751D01*
X102126742Y-64781327D01*
X102153680Y-64916756D01*
X102153680Y-65054844D01*
X102126742Y-65190273D01*
X102073898Y-65317849D01*
X101997185Y-65432659D01*
X101899539Y-65530305D01*
X101784729Y-65607018D01*
X101657153Y-65659862D01*
X101521724Y-65686800D01*
X101383636Y-65686800D01*
X101248207Y-65659862D01*
X101120631Y-65607018D01*
X101005821Y-65530305D01*
X100908175Y-65432659D01*
X100831462Y-65317849D01*
X100778618Y-65190273D01*
X100751680Y-65054844D01*
X100751680Y-64916756D01*
X100778618Y-64781327D01*
X100831462Y-64653751D01*
X100908175Y-64538941D01*
X101005821Y-64441295D01*
X101120631Y-64364582D01*
X101248207Y-64311738D01*
X101383636Y-64284800D01*
X101521724Y-64284800D01*
X101657153Y-64311738D01*
X101657153Y-64311738D01*
G37*
G36*
X120286778Y-64523236D02*
G01*
X120307397Y-64529491D01*
X120326393Y-64539644D01*
X120343048Y-64553312D01*
X120356716Y-64569967D01*
X120366869Y-64588963D01*
X120373124Y-64609582D01*
X120375840Y-64637160D01*
X120375840Y-65095880D01*
X120373124Y-65123458D01*
X120366869Y-65144077D01*
X120356716Y-65163073D01*
X120343048Y-65179728D01*
X120326393Y-65193396D01*
X120307397Y-65203549D01*
X120286778Y-65209804D01*
X120259200Y-65212520D01*
X119750480Y-65212520D01*
X119722902Y-65209804D01*
X119702283Y-65203549D01*
X119683287Y-65193396D01*
X119666632Y-65179728D01*
X119652964Y-65163073D01*
X119642811Y-65144077D01*
X119636556Y-65123458D01*
X119633840Y-65095880D01*
X119633840Y-64637160D01*
X119636556Y-64609582D01*
X119642811Y-64588963D01*
X119652964Y-64569967D01*
X119666632Y-64553312D01*
X119683287Y-64539644D01*
X119702283Y-64529491D01*
X119722902Y-64523236D01*
X119750480Y-64520520D01*
X120259200Y-64520520D01*
X120286778Y-64523236D01*
X120286778Y-64523236D01*
G37*
G36*
X103437153Y-63291738D02*
G01*
X103564729Y-63344582D01*
X103679539Y-63421295D01*
X103777185Y-63518941D01*
X103853898Y-63633751D01*
X103906742Y-63761327D01*
X103933680Y-63896756D01*
X103933680Y-64034844D01*
X103906742Y-64170273D01*
X103853898Y-64297849D01*
X103777185Y-64412659D01*
X103679539Y-64510305D01*
X103564729Y-64587018D01*
X103437153Y-64639862D01*
X103301724Y-64666800D01*
X103163636Y-64666800D01*
X103028207Y-64639862D01*
X102900631Y-64587018D01*
X102785821Y-64510305D01*
X102688175Y-64412659D01*
X102611462Y-64297849D01*
X102558618Y-64170273D01*
X102531680Y-64034844D01*
X102531680Y-63896756D01*
X102558618Y-63761327D01*
X102611462Y-63633751D01*
X102688175Y-63518941D01*
X102785821Y-63421295D01*
X102900631Y-63344582D01*
X103028207Y-63291738D01*
X103163636Y-63264800D01*
X103301724Y-63264800D01*
X103437153Y-63291738D01*
X103437153Y-63291738D01*
G37*
G36*
X118521960Y-64628240D02*
G01*
X116869960Y-64628240D01*
X116869960Y-63926240D01*
X118521960Y-63926240D01*
X118521960Y-64628240D01*
X118521960Y-64628240D01*
G37*
G36*
X113121960Y-64628240D02*
G01*
X111469960Y-64628240D01*
X111469960Y-63926240D01*
X113121960Y-63926240D01*
X113121960Y-64628240D01*
X113121960Y-64628240D01*
G37*
G36*
X113838503Y-63919409D02*
G01*
X113838506Y-63919410D01*
X113838505Y-63919410D01*
X113902378Y-63945866D01*
X113959868Y-63984280D01*
X114008760Y-64033172D01*
X114047174Y-64090662D01*
X114068744Y-64142738D01*
X114073631Y-64154537D01*
X114087120Y-64222350D01*
X114087120Y-64291490D01*
X114073631Y-64359303D01*
X114073630Y-64359305D01*
X114047174Y-64423178D01*
X114008760Y-64480668D01*
X113959868Y-64529560D01*
X113902378Y-64567974D01*
X113856400Y-64587018D01*
X113838503Y-64594431D01*
X113770690Y-64607920D01*
X113701550Y-64607920D01*
X113633737Y-64594431D01*
X113615840Y-64587018D01*
X113569862Y-64567974D01*
X113512372Y-64529560D01*
X113463480Y-64480668D01*
X113425066Y-64423178D01*
X113398610Y-64359305D01*
X113398609Y-64359303D01*
X113385120Y-64291490D01*
X113385120Y-64222350D01*
X113398609Y-64154537D01*
X113403496Y-64142738D01*
X113425066Y-64090662D01*
X113463480Y-64033172D01*
X113512372Y-63984280D01*
X113569862Y-63945866D01*
X113633735Y-63919410D01*
X113633734Y-63919410D01*
X113633737Y-63919409D01*
X113701550Y-63905920D01*
X113770690Y-63905920D01*
X113838503Y-63919409D01*
X113838503Y-63919409D01*
G37*
G36*
X120286778Y-63553236D02*
G01*
X120307397Y-63559491D01*
X120326393Y-63569644D01*
X120343048Y-63583312D01*
X120356716Y-63599967D01*
X120366869Y-63618963D01*
X120373124Y-63639582D01*
X120375840Y-63667160D01*
X120375840Y-64125880D01*
X120373124Y-64153458D01*
X120366869Y-64174077D01*
X120356716Y-64193073D01*
X120343048Y-64209728D01*
X120326393Y-64223396D01*
X120307397Y-64233549D01*
X120286778Y-64239804D01*
X120259200Y-64242520D01*
X119750480Y-64242520D01*
X119722902Y-64239804D01*
X119702283Y-64233549D01*
X119683287Y-64223396D01*
X119666632Y-64209728D01*
X119652964Y-64193073D01*
X119642811Y-64174077D01*
X119636556Y-64153458D01*
X119633840Y-64125880D01*
X119633840Y-63667160D01*
X119636556Y-63639582D01*
X119642811Y-63618963D01*
X119652964Y-63599967D01*
X119666632Y-63583312D01*
X119683287Y-63569644D01*
X119702283Y-63559491D01*
X119722902Y-63553236D01*
X119750480Y-63550520D01*
X120259200Y-63550520D01*
X120286778Y-63553236D01*
X120286778Y-63553236D01*
G37*
G36*
X121174023Y-63137089D02*
G01*
X121185503Y-63141844D01*
X121237898Y-63163546D01*
X121295388Y-63201960D01*
X121344280Y-63250852D01*
X121382694Y-63308342D01*
X121397704Y-63344582D01*
X121409151Y-63372217D01*
X121422640Y-63440030D01*
X121422640Y-63509170D01*
X121409151Y-63576983D01*
X121406529Y-63583312D01*
X121382694Y-63640858D01*
X121344280Y-63698348D01*
X121295388Y-63747240D01*
X121237898Y-63785654D01*
X121185822Y-63807224D01*
X121174023Y-63812111D01*
X121106210Y-63825600D01*
X121037070Y-63825600D01*
X120969257Y-63812111D01*
X120957458Y-63807224D01*
X120905382Y-63785654D01*
X120847892Y-63747240D01*
X120799000Y-63698348D01*
X120760586Y-63640858D01*
X120736751Y-63583312D01*
X120734129Y-63576983D01*
X120720640Y-63509170D01*
X120720640Y-63440030D01*
X120734129Y-63372217D01*
X120745576Y-63344582D01*
X120760586Y-63308342D01*
X120799000Y-63250852D01*
X120847892Y-63201960D01*
X120905382Y-63163546D01*
X120957777Y-63141844D01*
X120969257Y-63137089D01*
X121037070Y-63123600D01*
X121106210Y-63123600D01*
X121174023Y-63137089D01*
X121174023Y-63137089D01*
G37*
G36*
X101657153Y-62271738D02*
G01*
X101784729Y-62324582D01*
X101899539Y-62401295D01*
X101997185Y-62498941D01*
X102073898Y-62613751D01*
X102126742Y-62741327D01*
X102153680Y-62876756D01*
X102153680Y-63014844D01*
X102126742Y-63150273D01*
X102073898Y-63277849D01*
X101997185Y-63392659D01*
X101899539Y-63490305D01*
X101784729Y-63567018D01*
X101657153Y-63619862D01*
X101521724Y-63646800D01*
X101383636Y-63646800D01*
X101248207Y-63619862D01*
X101120631Y-63567018D01*
X101005821Y-63490305D01*
X100908175Y-63392659D01*
X100831462Y-63277849D01*
X100778618Y-63150273D01*
X100751680Y-63014844D01*
X100751680Y-62876756D01*
X100778618Y-62741327D01*
X100831462Y-62613751D01*
X100908175Y-62498941D01*
X101005821Y-62401295D01*
X101120631Y-62324582D01*
X101248207Y-62271738D01*
X101383636Y-62244800D01*
X101521724Y-62244800D01*
X101657153Y-62271738D01*
X101657153Y-62271738D01*
G37*
G36*
X129010443Y-61525519D02*
G01*
X129076627Y-61532037D01*
X129246466Y-61583557D01*
X129246468Y-61583558D01*
X129265539Y-61593752D01*
X129402991Y-61667222D01*
X129436166Y-61694448D01*
X129540186Y-61779814D01*
X129603331Y-61856758D01*
X129652778Y-61917009D01*
X129736443Y-62073534D01*
X129787963Y-62243373D01*
X129805359Y-62420000D01*
X129787963Y-62596627D01*
X129736443Y-62766466D01*
X129652778Y-62922991D01*
X129623448Y-62958729D01*
X129540186Y-63060186D01*
X129440684Y-63141844D01*
X129402991Y-63172778D01*
X129246466Y-63256443D01*
X129076627Y-63307963D01*
X129010443Y-63314481D01*
X128944260Y-63321000D01*
X128855740Y-63321000D01*
X128789557Y-63314481D01*
X128723373Y-63307963D01*
X128553534Y-63256443D01*
X128397009Y-63172778D01*
X128359316Y-63141844D01*
X128259814Y-63060186D01*
X128176552Y-62958729D01*
X128147222Y-62922991D01*
X128063557Y-62766466D01*
X128012037Y-62596627D01*
X127994641Y-62420000D01*
X128012037Y-62243373D01*
X128063557Y-62073534D01*
X128147222Y-61917009D01*
X128196669Y-61856758D01*
X128259814Y-61779814D01*
X128363834Y-61694448D01*
X128397009Y-61667222D01*
X128534461Y-61593752D01*
X128553532Y-61583558D01*
X128553534Y-61583557D01*
X128723373Y-61532037D01*
X128789557Y-61525519D01*
X128855740Y-61519000D01*
X128944260Y-61519000D01*
X129010443Y-61525519D01*
X129010443Y-61525519D01*
G37*
G36*
X113371938Y-62431716D02*
G01*
X113392557Y-62437971D01*
X113411553Y-62448124D01*
X113428208Y-62461792D01*
X113441876Y-62478447D01*
X113452029Y-62497443D01*
X113458284Y-62518062D01*
X113461000Y-62545640D01*
X113461000Y-63054360D01*
X113458284Y-63081938D01*
X113452029Y-63102557D01*
X113441876Y-63121553D01*
X113428208Y-63138208D01*
X113411553Y-63151876D01*
X113392557Y-63162029D01*
X113371938Y-63168284D01*
X113344360Y-63171000D01*
X112885640Y-63171000D01*
X112858062Y-63168284D01*
X112837443Y-63162029D01*
X112818447Y-63151876D01*
X112801792Y-63138208D01*
X112788124Y-63121553D01*
X112777971Y-63102557D01*
X112771716Y-63081938D01*
X112769000Y-63054360D01*
X112769000Y-62545640D01*
X112771716Y-62518062D01*
X112777971Y-62497443D01*
X112788124Y-62478447D01*
X112801792Y-62461792D01*
X112818447Y-62448124D01*
X112837443Y-62437971D01*
X112858062Y-62431716D01*
X112885640Y-62429000D01*
X113344360Y-62429000D01*
X113371938Y-62431716D01*
X113371938Y-62431716D01*
G37*
G36*
X112401938Y-62431716D02*
G01*
X112422557Y-62437971D01*
X112441553Y-62448124D01*
X112458208Y-62461792D01*
X112471876Y-62478447D01*
X112482029Y-62497443D01*
X112488284Y-62518062D01*
X112491000Y-62545640D01*
X112491000Y-63054360D01*
X112488284Y-63081938D01*
X112482029Y-63102557D01*
X112471876Y-63121553D01*
X112458208Y-63138208D01*
X112441553Y-63151876D01*
X112422557Y-63162029D01*
X112401938Y-63168284D01*
X112374360Y-63171000D01*
X111915640Y-63171000D01*
X111888062Y-63168284D01*
X111867443Y-63162029D01*
X111848447Y-63151876D01*
X111831792Y-63138208D01*
X111818124Y-63121553D01*
X111807971Y-63102557D01*
X111801716Y-63081938D01*
X111799000Y-63054360D01*
X111799000Y-62545640D01*
X111801716Y-62518062D01*
X111807971Y-62497443D01*
X111818124Y-62478447D01*
X111831792Y-62461792D01*
X111848447Y-62448124D01*
X111867443Y-62437971D01*
X111888062Y-62431716D01*
X111915640Y-62429000D01*
X112374360Y-62429000D01*
X112401938Y-62431716D01*
X112401938Y-62431716D01*
G37*
G36*
X114502383Y-62342489D02*
G01*
X114502386Y-62342490D01*
X114502385Y-62342490D01*
X114566258Y-62368946D01*
X114623748Y-62407360D01*
X114672640Y-62456252D01*
X114711054Y-62513742D01*
X114724168Y-62545404D01*
X114737511Y-62577617D01*
X114751000Y-62645430D01*
X114751000Y-62714570D01*
X114737511Y-62782383D01*
X114737510Y-62782385D01*
X114711054Y-62846258D01*
X114672640Y-62903748D01*
X114623748Y-62952640D01*
X114566258Y-62991054D01*
X114514182Y-63012624D01*
X114502383Y-63017511D01*
X114434570Y-63031000D01*
X114365430Y-63031000D01*
X114297617Y-63017511D01*
X114285818Y-63012624D01*
X114233742Y-62991054D01*
X114176252Y-62952640D01*
X114127360Y-62903748D01*
X114088946Y-62846258D01*
X114062490Y-62782385D01*
X114062489Y-62782383D01*
X114049000Y-62714570D01*
X114049000Y-62645430D01*
X114062489Y-62577617D01*
X114075832Y-62545404D01*
X114088946Y-62513742D01*
X114127360Y-62456252D01*
X114176252Y-62407360D01*
X114233742Y-62368946D01*
X114297615Y-62342490D01*
X114297614Y-62342490D01*
X114297617Y-62342489D01*
X114365430Y-62329000D01*
X114434570Y-62329000D01*
X114502383Y-62342489D01*
X114502383Y-62342489D01*
G37*
G36*
X110761778Y-61962916D02*
G01*
X110782397Y-61969171D01*
X110801393Y-61979324D01*
X110818048Y-61992992D01*
X110831716Y-62009647D01*
X110841869Y-62028643D01*
X110848124Y-62049262D01*
X110850840Y-62076840D01*
X110850840Y-62535560D01*
X110848124Y-62563138D01*
X110841869Y-62583757D01*
X110831716Y-62602753D01*
X110818048Y-62619408D01*
X110801393Y-62633076D01*
X110782397Y-62643229D01*
X110761778Y-62649484D01*
X110734200Y-62652200D01*
X110225480Y-62652200D01*
X110197902Y-62649484D01*
X110177283Y-62643229D01*
X110158287Y-62633076D01*
X110141632Y-62619408D01*
X110127964Y-62602753D01*
X110117811Y-62583757D01*
X110111556Y-62563138D01*
X110108617Y-62533295D01*
X110103837Y-62509262D01*
X110094460Y-62486623D01*
X110080846Y-62466248D01*
X110063519Y-62448921D01*
X110043145Y-62435307D01*
X110020506Y-62425930D01*
X109996473Y-62421149D01*
X109971969Y-62421149D01*
X109947936Y-62425929D01*
X109925297Y-62435306D01*
X109904922Y-62448920D01*
X109887595Y-62466247D01*
X109873981Y-62486621D01*
X109868736Y-62497711D01*
X109861053Y-62516258D01*
X109861052Y-62516261D01*
X109847999Y-62535796D01*
X109822640Y-62573748D01*
X109773748Y-62622640D01*
X109716258Y-62661054D01*
X109664182Y-62682624D01*
X109652383Y-62687511D01*
X109584570Y-62701000D01*
X109515430Y-62701000D01*
X109447617Y-62687511D01*
X109435818Y-62682624D01*
X109383742Y-62661054D01*
X109326252Y-62622640D01*
X109277360Y-62573748D01*
X109238946Y-62516258D01*
X109212490Y-62452385D01*
X109212489Y-62452383D01*
X109199000Y-62384570D01*
X109199000Y-62315430D01*
X109212489Y-62247617D01*
X109222692Y-62222985D01*
X109238946Y-62183742D01*
X109277360Y-62126252D01*
X109326252Y-62077360D01*
X109383742Y-62038946D01*
X109447615Y-62012490D01*
X109447614Y-62012490D01*
X109447617Y-62012489D01*
X109515430Y-61999000D01*
X109584570Y-61999000D01*
X109652383Y-62012489D01*
X109652386Y-62012490D01*
X109652385Y-62012490D01*
X109716258Y-62038946D01*
X109773748Y-62077360D01*
X109822640Y-62126252D01*
X109861054Y-62183742D01*
X109868357Y-62201374D01*
X109879907Y-62222985D01*
X109895452Y-62241927D01*
X109914394Y-62257472D01*
X109936005Y-62269024D01*
X109959454Y-62276137D01*
X109983840Y-62278539D01*
X110008226Y-62276137D01*
X110031675Y-62269024D01*
X110053286Y-62257474D01*
X110072228Y-62241929D01*
X110087773Y-62222987D01*
X110099325Y-62201376D01*
X110106438Y-62177927D01*
X110108840Y-62153540D01*
X110108840Y-62076840D01*
X110111556Y-62049262D01*
X110117811Y-62028643D01*
X110127964Y-62009647D01*
X110141632Y-61992992D01*
X110158287Y-61979324D01*
X110177283Y-61969171D01*
X110197902Y-61962916D01*
X110225480Y-61960200D01*
X110734200Y-61960200D01*
X110761778Y-61962916D01*
X110761778Y-61962916D01*
G37*
G36*
X103437153Y-61251738D02*
G01*
X103564729Y-61304582D01*
X103679539Y-61381295D01*
X103777185Y-61478941D01*
X103853898Y-61593751D01*
X103906742Y-61721327D01*
X103933680Y-61856756D01*
X103933680Y-61994844D01*
X103906742Y-62130273D01*
X103853898Y-62257849D01*
X103777185Y-62372659D01*
X103679539Y-62470305D01*
X103564729Y-62547018D01*
X103437153Y-62599862D01*
X103301724Y-62626800D01*
X103163636Y-62626800D01*
X103028207Y-62599862D01*
X102900631Y-62547018D01*
X102785821Y-62470305D01*
X102688175Y-62372659D01*
X102611462Y-62257849D01*
X102558618Y-62130273D01*
X102531680Y-61994844D01*
X102531680Y-61856756D01*
X102558618Y-61721327D01*
X102611462Y-61593751D01*
X102688175Y-61478941D01*
X102785821Y-61381295D01*
X102900631Y-61304582D01*
X103028207Y-61251738D01*
X103163636Y-61224800D01*
X103301724Y-61224800D01*
X103437153Y-61251738D01*
X103437153Y-61251738D01*
G37*
G36*
X119946818Y-60987956D02*
G01*
X119967437Y-60994211D01*
X119986433Y-61004364D01*
X120003088Y-61018032D01*
X120016756Y-61034687D01*
X120026909Y-61053683D01*
X120033164Y-61074302D01*
X120035880Y-61101880D01*
X120035880Y-61610600D01*
X120033164Y-61638178D01*
X120026909Y-61658797D01*
X120016756Y-61677793D01*
X120003088Y-61694448D01*
X119986433Y-61708116D01*
X119967437Y-61718269D01*
X119946818Y-61724524D01*
X119919240Y-61727240D01*
X119460520Y-61727240D01*
X119432942Y-61724524D01*
X119412323Y-61718269D01*
X119393327Y-61708116D01*
X119376672Y-61694448D01*
X119363004Y-61677793D01*
X119352851Y-61658797D01*
X119346596Y-61638178D01*
X119343880Y-61610600D01*
X119343880Y-61101880D01*
X119346596Y-61074302D01*
X119352851Y-61053683D01*
X119363004Y-61034687D01*
X119376672Y-61018032D01*
X119393327Y-61004364D01*
X119412323Y-60994211D01*
X119432942Y-60987956D01*
X119460520Y-60985240D01*
X119919240Y-60985240D01*
X119946818Y-60987956D01*
X119946818Y-60987956D01*
G37*
G36*
X120916818Y-60987956D02*
G01*
X120937437Y-60994211D01*
X120956433Y-61004364D01*
X120973088Y-61018032D01*
X120986756Y-61034687D01*
X120996909Y-61053683D01*
X121003164Y-61074302D01*
X121005880Y-61101880D01*
X121005880Y-61610600D01*
X121003164Y-61638178D01*
X120996909Y-61658797D01*
X120986756Y-61677793D01*
X120973088Y-61694448D01*
X120956433Y-61708116D01*
X120937437Y-61718269D01*
X120916818Y-61724524D01*
X120889240Y-61727240D01*
X120430520Y-61727240D01*
X120402942Y-61724524D01*
X120382323Y-61718269D01*
X120363327Y-61708116D01*
X120346672Y-61694448D01*
X120333004Y-61677793D01*
X120322851Y-61658797D01*
X120316596Y-61638178D01*
X120313880Y-61610600D01*
X120313880Y-61101880D01*
X120316596Y-61074302D01*
X120322851Y-61053683D01*
X120333004Y-61034687D01*
X120346672Y-61018032D01*
X120363327Y-61004364D01*
X120382323Y-60994211D01*
X120402942Y-60987956D01*
X120430520Y-60985240D01*
X120889240Y-60985240D01*
X120916818Y-60987956D01*
X120916818Y-60987956D01*
G37*
G36*
X118376000Y-61706000D02*
G01*
X116724000Y-61706000D01*
X116724000Y-61004000D01*
X118376000Y-61004000D01*
X118376000Y-61706000D01*
X118376000Y-61706000D01*
G37*
G36*
X112976000Y-61706000D02*
G01*
X111324000Y-61706000D01*
X111324000Y-61004000D01*
X112976000Y-61004000D01*
X112976000Y-61706000D01*
X112976000Y-61706000D01*
G37*
G36*
X110761778Y-60992916D02*
G01*
X110782397Y-60999171D01*
X110801393Y-61009324D01*
X110818048Y-61022992D01*
X110831716Y-61039647D01*
X110841869Y-61058643D01*
X110848124Y-61079262D01*
X110850840Y-61106840D01*
X110850840Y-61565560D01*
X110848124Y-61593138D01*
X110841869Y-61613757D01*
X110831716Y-61632753D01*
X110818048Y-61649408D01*
X110801393Y-61663076D01*
X110782397Y-61673229D01*
X110761778Y-61679484D01*
X110734200Y-61682200D01*
X110225480Y-61682200D01*
X110197902Y-61679484D01*
X110177283Y-61673229D01*
X110158287Y-61663076D01*
X110141632Y-61649408D01*
X110127964Y-61632753D01*
X110117811Y-61613757D01*
X110111556Y-61593138D01*
X110108840Y-61565560D01*
X110108840Y-61106840D01*
X110111556Y-61079262D01*
X110117811Y-61058643D01*
X110127964Y-61039647D01*
X110141632Y-61022992D01*
X110158287Y-61009324D01*
X110177283Y-60999171D01*
X110197902Y-60992916D01*
X110225480Y-60990200D01*
X110734200Y-60990200D01*
X110761778Y-60992916D01*
X110761778Y-60992916D01*
G37*
G36*
X121844583Y-60927289D02*
G01*
X121844586Y-60927290D01*
X121844585Y-60927290D01*
X121908458Y-60953746D01*
X121965948Y-60992160D01*
X122014840Y-61041052D01*
X122053254Y-61098542D01*
X122074824Y-61150618D01*
X122079711Y-61162417D01*
X122093200Y-61230230D01*
X122093200Y-61299370D01*
X122079711Y-61367183D01*
X122079710Y-61367185D01*
X122053254Y-61431058D01*
X122014840Y-61488548D01*
X121965948Y-61537440D01*
X121908458Y-61575854D01*
X121856382Y-61597424D01*
X121844583Y-61602311D01*
X121776770Y-61615800D01*
X121707630Y-61615800D01*
X121639817Y-61602311D01*
X121628018Y-61597424D01*
X121575942Y-61575854D01*
X121518452Y-61537440D01*
X121469560Y-61488548D01*
X121431146Y-61431058D01*
X121404690Y-61367185D01*
X121404689Y-61367183D01*
X121391200Y-61299370D01*
X121391200Y-61230230D01*
X121404689Y-61162417D01*
X121409576Y-61150618D01*
X121431146Y-61098542D01*
X121469560Y-61041052D01*
X121518452Y-60992160D01*
X121575942Y-60953746D01*
X121639815Y-60927290D01*
X121639814Y-60927290D01*
X121639817Y-60927289D01*
X121707630Y-60913800D01*
X121776770Y-60913800D01*
X121844583Y-60927289D01*
X121844583Y-60927289D01*
G37*
G36*
X99310665Y-57449660D02*
G01*
X99423428Y-57472090D01*
X99555421Y-57526763D01*
X99742088Y-57604083D01*
X100028876Y-57795709D01*
X100272771Y-58039604D01*
X100464397Y-58326392D01*
X100505987Y-58426800D01*
X100596390Y-58645052D01*
X100612142Y-58724243D01*
X100663680Y-58983340D01*
X100663680Y-59328260D01*
X100650221Y-59395920D01*
X100596390Y-59666548D01*
X100552455Y-59772617D01*
X100464397Y-59985208D01*
X100272771Y-60271996D01*
X100028876Y-60515891D01*
X99742088Y-60707517D01*
X99564683Y-60781000D01*
X99423428Y-60839510D01*
X99310665Y-60861940D01*
X99085140Y-60906800D01*
X98740220Y-60906800D01*
X98514695Y-60861940D01*
X98401932Y-60839510D01*
X98260677Y-60781000D01*
X98083272Y-60707517D01*
X97796484Y-60515891D01*
X97552589Y-60271996D01*
X97360963Y-59985208D01*
X97272905Y-59772617D01*
X97228970Y-59666548D01*
X97175139Y-59395920D01*
X97161680Y-59328260D01*
X97161680Y-58983340D01*
X97213218Y-58724243D01*
X97228970Y-58645052D01*
X97319373Y-58426800D01*
X97360963Y-58326392D01*
X97552589Y-58039604D01*
X97796484Y-57795709D01*
X98083272Y-57604083D01*
X98269939Y-57526763D01*
X98401932Y-57472090D01*
X98514695Y-57449660D01*
X98740220Y-57404800D01*
X99085140Y-57404800D01*
X99310665Y-57449660D01*
X99310665Y-57449660D01*
G37*
G36*
X128988344Y-58983342D02*
G01*
X129076627Y-58992037D01*
X129246466Y-59043557D01*
X129402991Y-59127222D01*
X129426787Y-59146751D01*
X129540186Y-59239814D01*
X129613112Y-59328676D01*
X129652778Y-59377009D01*
X129736443Y-59533534D01*
X129787963Y-59703373D01*
X129805359Y-59880000D01*
X129787963Y-60056627D01*
X129736443Y-60226466D01*
X129652778Y-60382991D01*
X129623448Y-60418729D01*
X129540186Y-60520186D01*
X129438729Y-60603448D01*
X129402991Y-60632778D01*
X129246466Y-60716443D01*
X129076627Y-60767963D01*
X129010442Y-60774482D01*
X128944260Y-60781000D01*
X128855740Y-60781000D01*
X128789558Y-60774482D01*
X128723373Y-60767963D01*
X128553534Y-60716443D01*
X128397009Y-60632778D01*
X128361271Y-60603448D01*
X128259814Y-60520186D01*
X128176552Y-60418729D01*
X128147222Y-60382991D01*
X128063557Y-60226466D01*
X128012037Y-60056627D01*
X127994641Y-59880000D01*
X128012037Y-59703373D01*
X128063557Y-59533534D01*
X128147222Y-59377009D01*
X128186888Y-59328676D01*
X128259814Y-59239814D01*
X128373213Y-59146751D01*
X128397009Y-59127222D01*
X128553534Y-59043557D01*
X128723373Y-58992037D01*
X128811656Y-58983342D01*
X128855740Y-58979000D01*
X128944260Y-58979000D01*
X128988344Y-58983342D01*
X128988344Y-58983342D01*
G37*
G36*
X118376000Y-60436000D02*
G01*
X116724000Y-60436000D01*
X116724000Y-59734000D01*
X118376000Y-59734000D01*
X118376000Y-60436000D01*
X118376000Y-60436000D01*
G37*
G36*
X112976000Y-60436000D02*
G01*
X111324000Y-60436000D01*
X111324000Y-59734000D01*
X112976000Y-59734000D01*
X112976000Y-60436000D01*
X112976000Y-60436000D01*
G37*
G36*
X121008138Y-59676636D02*
G01*
X121028757Y-59682891D01*
X121047753Y-59693044D01*
X121064408Y-59706712D01*
X121078076Y-59723367D01*
X121088229Y-59742363D01*
X121094484Y-59762982D01*
X121097200Y-59790560D01*
X121097200Y-60249280D01*
X121094484Y-60276858D01*
X121088229Y-60297477D01*
X121078076Y-60316473D01*
X121064408Y-60333128D01*
X121047753Y-60346796D01*
X121028757Y-60356949D01*
X121008138Y-60363204D01*
X120980560Y-60365920D01*
X120471840Y-60365920D01*
X120444262Y-60363204D01*
X120423643Y-60356949D01*
X120404647Y-60346796D01*
X120387992Y-60333128D01*
X120374324Y-60316473D01*
X120364171Y-60297477D01*
X120357916Y-60276858D01*
X120355200Y-60249280D01*
X120355200Y-59790560D01*
X120357916Y-59762982D01*
X120364171Y-59742363D01*
X120374324Y-59723367D01*
X120387992Y-59706712D01*
X120404647Y-59693044D01*
X120423643Y-59682891D01*
X120444262Y-59676636D01*
X120471840Y-59673920D01*
X120980560Y-59673920D01*
X121008138Y-59676636D01*
X121008138Y-59676636D01*
G37*
G36*
X119753378Y-59628516D02*
G01*
X119773997Y-59634771D01*
X119792993Y-59644924D01*
X119809648Y-59658592D01*
X119823316Y-59675247D01*
X119833469Y-59694243D01*
X119839724Y-59714862D01*
X119842440Y-59742440D01*
X119842440Y-60201160D01*
X119839724Y-60228738D01*
X119833469Y-60249357D01*
X119823316Y-60268353D01*
X119809648Y-60285008D01*
X119792993Y-60298676D01*
X119773997Y-60308829D01*
X119753378Y-60315084D01*
X119725800Y-60317800D01*
X119217080Y-60317800D01*
X119189502Y-60315084D01*
X119168883Y-60308829D01*
X119149887Y-60298676D01*
X119133232Y-60285008D01*
X119119564Y-60268353D01*
X119109411Y-60249357D01*
X119103156Y-60228738D01*
X119100440Y-60201160D01*
X119100440Y-59742440D01*
X119103156Y-59714862D01*
X119109411Y-59694243D01*
X119119564Y-59675247D01*
X119133232Y-59658592D01*
X119149887Y-59644924D01*
X119168883Y-59634771D01*
X119189502Y-59628516D01*
X119217080Y-59625800D01*
X119725800Y-59625800D01*
X119753378Y-59628516D01*
X119753378Y-59628516D01*
G37*
G36*
X110881938Y-58596716D02*
G01*
X110902557Y-58602971D01*
X110921553Y-58613124D01*
X110938208Y-58626792D01*
X110951876Y-58643447D01*
X110962029Y-58662443D01*
X110968284Y-58683062D01*
X110971000Y-58710640D01*
X110971000Y-59169360D01*
X110968284Y-59196938D01*
X110962029Y-59217557D01*
X110951876Y-59236553D01*
X110938208Y-59253208D01*
X110921553Y-59266876D01*
X110902557Y-59277029D01*
X110881938Y-59283284D01*
X110854360Y-59286000D01*
X110345640Y-59286000D01*
X110318062Y-59283284D01*
X110297446Y-59277030D01*
X110279445Y-59267408D01*
X110256807Y-59258030D01*
X110232773Y-59253249D01*
X110208269Y-59253249D01*
X110184236Y-59258028D01*
X110161597Y-59267405D01*
X110141222Y-59281018D01*
X110132130Y-59289258D01*
X110123748Y-59297640D01*
X110109952Y-59306858D01*
X110066261Y-59336052D01*
X110066259Y-59336053D01*
X110062920Y-59338284D01*
X110048359Y-59346068D01*
X110029417Y-59361613D01*
X110013872Y-59380555D01*
X110002321Y-59402166D01*
X109995208Y-59425615D01*
X109992806Y-59450001D01*
X109995208Y-59474387D01*
X110002321Y-59497836D01*
X110013873Y-59519446D01*
X110029418Y-59538388D01*
X110048360Y-59553933D01*
X110062922Y-59561717D01*
X110066261Y-59563948D01*
X110071313Y-59567324D01*
X110119019Y-59599200D01*
X110140630Y-59610751D01*
X110164079Y-59617864D01*
X110188465Y-59620266D01*
X110212851Y-59617864D01*
X110236300Y-59610751D01*
X110257911Y-59599200D01*
X110267764Y-59591892D01*
X110278447Y-59583124D01*
X110297443Y-59572971D01*
X110318062Y-59566716D01*
X110345640Y-59564000D01*
X110854360Y-59564000D01*
X110881938Y-59566716D01*
X110902557Y-59572971D01*
X110921553Y-59583124D01*
X110938208Y-59596792D01*
X110951876Y-59613447D01*
X110962029Y-59632443D01*
X110968284Y-59653062D01*
X110971000Y-59680640D01*
X110971000Y-60139360D01*
X110968284Y-60166938D01*
X110962029Y-60187557D01*
X110951876Y-60206553D01*
X110938208Y-60223208D01*
X110921553Y-60236876D01*
X110902557Y-60247029D01*
X110881938Y-60253284D01*
X110854360Y-60256000D01*
X110345640Y-60256000D01*
X110318062Y-60253284D01*
X110297443Y-60247029D01*
X110278447Y-60236876D01*
X110261792Y-60223208D01*
X110244723Y-60202408D01*
X110227397Y-60185081D01*
X110207022Y-60171467D01*
X110184384Y-60162090D01*
X110160350Y-60157309D01*
X110135846Y-60157309D01*
X110111813Y-60162089D01*
X110089174Y-60171466D01*
X110078651Y-60177773D01*
X110066258Y-60186054D01*
X110029787Y-60201160D01*
X110002383Y-60212511D01*
X109934570Y-60226000D01*
X109865430Y-60226000D01*
X109797617Y-60212511D01*
X109770213Y-60201160D01*
X109733742Y-60186054D01*
X109676252Y-60147640D01*
X109627360Y-60098748D01*
X109588946Y-60041258D01*
X109562490Y-59977385D01*
X109562489Y-59977383D01*
X109549000Y-59909570D01*
X109549000Y-59840430D01*
X109562489Y-59772617D01*
X109571523Y-59750806D01*
X109588946Y-59708742D01*
X109627360Y-59651252D01*
X109676252Y-59602360D01*
X109713953Y-59577169D01*
X109733739Y-59563948D01*
X109733741Y-59563947D01*
X109737080Y-59561716D01*
X109751641Y-59553932D01*
X109770583Y-59538387D01*
X109786128Y-59519445D01*
X109797679Y-59497834D01*
X109804792Y-59474385D01*
X109807194Y-59449999D01*
X109804792Y-59425613D01*
X109797679Y-59402164D01*
X109786127Y-59380554D01*
X109770582Y-59361612D01*
X109751640Y-59346067D01*
X109737079Y-59338283D01*
X109733742Y-59336053D01*
X109733739Y-59336052D01*
X109690048Y-59306858D01*
X109676252Y-59297640D01*
X109627360Y-59248748D01*
X109588946Y-59191258D01*
X109562490Y-59127385D01*
X109562489Y-59127383D01*
X109549000Y-59059570D01*
X109549000Y-58990430D01*
X109562489Y-58922617D01*
X109581417Y-58876920D01*
X109588946Y-58858742D01*
X109627360Y-58801252D01*
X109676252Y-58752360D01*
X109733742Y-58713946D01*
X109797615Y-58687490D01*
X109797614Y-58687490D01*
X109797617Y-58687489D01*
X109865430Y-58674000D01*
X109934570Y-58674000D01*
X110002383Y-58687489D01*
X110002386Y-58687490D01*
X110002385Y-58687490D01*
X110075634Y-58717830D01*
X110079440Y-58719864D01*
X110102889Y-58726977D01*
X110127275Y-58729378D01*
X110151661Y-58726976D01*
X110175110Y-58719862D01*
X110196720Y-58708310D01*
X110215662Y-58692765D01*
X110237511Y-58663304D01*
X110248126Y-58643445D01*
X110261792Y-58626792D01*
X110278447Y-58613124D01*
X110297443Y-58602971D01*
X110318062Y-58596716D01*
X110345640Y-58594000D01*
X110854360Y-58594000D01*
X110881938Y-58596716D01*
X110881938Y-58596716D01*
G37*
G36*
X121008138Y-58706636D02*
G01*
X121028757Y-58712891D01*
X121047753Y-58723044D01*
X121064408Y-58736712D01*
X121078076Y-58753367D01*
X121088229Y-58772363D01*
X121094484Y-58792982D01*
X121097200Y-58820560D01*
X121097200Y-59279280D01*
X121094484Y-59306858D01*
X121088229Y-59327477D01*
X121078076Y-59346473D01*
X121064408Y-59363128D01*
X121047753Y-59376796D01*
X121028757Y-59386949D01*
X121008138Y-59393204D01*
X120980560Y-59395920D01*
X120471840Y-59395920D01*
X120444262Y-59393204D01*
X120423643Y-59386949D01*
X120404647Y-59376796D01*
X120387992Y-59363128D01*
X120374324Y-59346473D01*
X120364171Y-59327477D01*
X120357916Y-59306858D01*
X120355200Y-59279280D01*
X120355200Y-58820560D01*
X120357916Y-58792982D01*
X120364171Y-58772363D01*
X120374324Y-58753367D01*
X120387992Y-58736712D01*
X120404647Y-58723044D01*
X120423643Y-58712891D01*
X120444262Y-58706636D01*
X120471840Y-58703920D01*
X120980560Y-58703920D01*
X121008138Y-58706636D01*
X121008138Y-58706636D01*
G37*
G36*
X121910623Y-58681929D02*
G01*
X121910626Y-58681930D01*
X121910625Y-58681930D01*
X121974498Y-58708386D01*
X122031988Y-58746800D01*
X122080880Y-58795692D01*
X122119294Y-58853182D01*
X122129126Y-58876920D01*
X122145751Y-58917057D01*
X122159240Y-58984870D01*
X122159240Y-59054010D01*
X122145751Y-59121823D01*
X122145750Y-59121825D01*
X122119294Y-59185698D01*
X122080880Y-59243188D01*
X122031988Y-59292080D01*
X121974498Y-59330494D01*
X121932716Y-59347800D01*
X121910623Y-59356951D01*
X121842810Y-59370440D01*
X121773670Y-59370440D01*
X121705857Y-59356951D01*
X121683764Y-59347800D01*
X121641982Y-59330494D01*
X121584492Y-59292080D01*
X121535600Y-59243188D01*
X121497186Y-59185698D01*
X121470730Y-59121825D01*
X121470729Y-59121823D01*
X121457240Y-59054010D01*
X121457240Y-58984870D01*
X121470729Y-58917057D01*
X121487354Y-58876920D01*
X121497186Y-58853182D01*
X121535600Y-58795692D01*
X121584492Y-58746800D01*
X121641982Y-58708386D01*
X121705855Y-58681930D01*
X121705854Y-58681930D01*
X121705857Y-58681929D01*
X121773670Y-58668440D01*
X121842810Y-58668440D01*
X121910623Y-58681929D01*
X121910623Y-58681929D01*
G37*
G36*
X119753378Y-58658516D02*
G01*
X119773997Y-58664771D01*
X119792993Y-58674924D01*
X119809648Y-58688592D01*
X119823316Y-58705247D01*
X119833469Y-58724243D01*
X119839724Y-58744862D01*
X119842440Y-58772440D01*
X119842440Y-59231160D01*
X119839724Y-59258738D01*
X119833469Y-59279357D01*
X119823316Y-59298353D01*
X119809648Y-59315008D01*
X119792993Y-59328676D01*
X119773997Y-59338829D01*
X119753378Y-59345084D01*
X119725800Y-59347800D01*
X119217080Y-59347800D01*
X119189502Y-59345084D01*
X119168883Y-59338829D01*
X119149887Y-59328676D01*
X119133232Y-59315008D01*
X119119564Y-59298353D01*
X119109411Y-59279357D01*
X119103156Y-59258738D01*
X119100440Y-59231160D01*
X119100440Y-58772440D01*
X119103156Y-58744862D01*
X119109411Y-58724243D01*
X119119564Y-58705247D01*
X119133232Y-58688592D01*
X119149887Y-58674924D01*
X119168883Y-58664771D01*
X119189502Y-58658516D01*
X119217080Y-58655800D01*
X119725800Y-58655800D01*
X119753378Y-58658516D01*
X119753378Y-58658516D01*
G37*
G36*
X118376000Y-59166000D02*
G01*
X116724000Y-59166000D01*
X116724000Y-58464000D01*
X118376000Y-58464000D01*
X118376000Y-59166000D01*
X118376000Y-59166000D01*
G37*
G36*
X112976000Y-59166000D02*
G01*
X111324000Y-59166000D01*
X111324000Y-58464000D01*
X112976000Y-58464000D01*
X112976000Y-59166000D01*
X112976000Y-59166000D01*
G37*
G36*
X102649244Y-56365189D02*
G01*
X102827440Y-56439000D01*
X102840515Y-56444416D01*
X102929027Y-56503558D01*
X103012653Y-56559435D01*
X103159045Y-56705827D01*
X103274065Y-56877967D01*
X103353291Y-57069236D01*
X103393680Y-57272284D01*
X103393680Y-57479316D01*
X103353291Y-57682364D01*
X103300582Y-57809615D01*
X103274064Y-57873635D01*
X103159045Y-58045773D01*
X103012653Y-58192165D01*
X102840515Y-58307184D01*
X102840514Y-58307185D01*
X102840513Y-58307185D01*
X102649244Y-58386411D01*
X102446196Y-58426800D01*
X102239164Y-58426800D01*
X102036116Y-58386411D01*
X101844847Y-58307185D01*
X101844846Y-58307185D01*
X101844845Y-58307184D01*
X101672707Y-58192165D01*
X101526315Y-58045773D01*
X101411296Y-57873635D01*
X101384778Y-57809615D01*
X101332069Y-57682364D01*
X101291680Y-57479316D01*
X101291680Y-57272284D01*
X101332069Y-57069236D01*
X101411295Y-56877967D01*
X101526315Y-56705827D01*
X101672707Y-56559435D01*
X101756333Y-56503558D01*
X101844845Y-56444416D01*
X101857920Y-56439000D01*
X102036116Y-56365189D01*
X102239164Y-56324800D01*
X102446196Y-56324800D01*
X102649244Y-56365189D01*
X102649244Y-56365189D01*
G37*
G36*
X114351583Y-57574489D02*
G01*
X114351586Y-57574490D01*
X114351585Y-57574490D01*
X114415458Y-57600946D01*
X114472948Y-57639360D01*
X114521840Y-57688252D01*
X114560254Y-57745742D01*
X114580950Y-57795709D01*
X114586711Y-57809617D01*
X114600200Y-57877430D01*
X114600200Y-57946570D01*
X114586711Y-58014383D01*
X114586710Y-58014385D01*
X114560254Y-58078258D01*
X114521840Y-58135748D01*
X114472948Y-58184640D01*
X114415458Y-58223054D01*
X114363382Y-58244624D01*
X114351583Y-58249511D01*
X114283770Y-58263000D01*
X114214630Y-58263000D01*
X114146817Y-58249511D01*
X114135018Y-58244624D01*
X114082942Y-58223054D01*
X114025452Y-58184640D01*
X113976560Y-58135748D01*
X113938146Y-58078258D01*
X113911690Y-58014385D01*
X113911689Y-58014383D01*
X113898200Y-57946570D01*
X113898200Y-57877430D01*
X113911689Y-57809617D01*
X113917450Y-57795709D01*
X113938146Y-57745742D01*
X113976560Y-57688252D01*
X114025452Y-57639360D01*
X114082942Y-57600946D01*
X114146815Y-57574490D01*
X114146814Y-57574490D01*
X114146817Y-57574489D01*
X114214630Y-57561000D01*
X114283770Y-57561000D01*
X114351583Y-57574489D01*
X114351583Y-57574489D01*
G37*
G36*
X129010442Y-56445518D02*
G01*
X129076627Y-56452037D01*
X129246466Y-56503557D01*
X129402991Y-56587222D01*
X129438729Y-56616552D01*
X129540186Y-56699814D01*
X129623448Y-56801271D01*
X129652778Y-56837009D01*
X129736443Y-56993534D01*
X129787963Y-57163373D01*
X129805359Y-57340000D01*
X129787963Y-57516627D01*
X129736443Y-57686466D01*
X129652778Y-57842991D01*
X129627629Y-57873635D01*
X129540186Y-57980186D01*
X129438729Y-58063448D01*
X129402991Y-58092778D01*
X129246466Y-58176443D01*
X129076627Y-58227963D01*
X129010443Y-58234481D01*
X128944260Y-58241000D01*
X128855740Y-58241000D01*
X128789557Y-58234481D01*
X128723373Y-58227963D01*
X128553534Y-58176443D01*
X128397009Y-58092778D01*
X128361271Y-58063448D01*
X128259814Y-57980186D01*
X128172371Y-57873635D01*
X128147222Y-57842991D01*
X128063557Y-57686466D01*
X128012037Y-57516627D01*
X127994641Y-57340000D01*
X128012037Y-57163373D01*
X128063557Y-56993534D01*
X128147222Y-56837009D01*
X128176552Y-56801271D01*
X128259814Y-56699814D01*
X128361271Y-56616552D01*
X128397009Y-56587222D01*
X128553534Y-56503557D01*
X128723373Y-56452037D01*
X128789558Y-56445518D01*
X128855740Y-56439000D01*
X128944260Y-56439000D01*
X129010442Y-56445518D01*
X129010442Y-56445518D01*
G37*
G36*
X112976000Y-57896000D02*
G01*
X111324000Y-57896000D01*
X111324000Y-57194000D01*
X112976000Y-57194000D01*
X112976000Y-57896000D01*
X112976000Y-57896000D01*
G37*
G36*
X118376000Y-57896000D02*
G01*
X116724000Y-57896000D01*
X116724000Y-57194000D01*
X118376000Y-57194000D01*
X118376000Y-57896000D01*
X118376000Y-57896000D01*
G37*
G36*
X113494072Y-53700918D02*
G01*
X113739939Y-53802759D01*
X113961212Y-53950610D01*
X114149390Y-54138788D01*
X114297241Y-54360061D01*
X114399082Y-54605928D01*
X114451000Y-54866938D01*
X114451000Y-55133062D01*
X114399082Y-55394072D01*
X114297241Y-55639939D01*
X114149390Y-55861212D01*
X113961212Y-56049390D01*
X113739939Y-56197241D01*
X113739938Y-56197242D01*
X113739937Y-56197242D01*
X113494072Y-56299082D01*
X113233063Y-56351000D01*
X112966937Y-56351000D01*
X112705928Y-56299082D01*
X112460063Y-56197242D01*
X112460062Y-56197242D01*
X112460061Y-56197241D01*
X112238788Y-56049390D01*
X112050610Y-55861212D01*
X111902759Y-55639939D01*
X111800918Y-55394072D01*
X111749000Y-55133062D01*
X111749000Y-54866938D01*
X111800918Y-54605928D01*
X111902759Y-54360061D01*
X112050610Y-54138788D01*
X112238788Y-53950610D01*
X112460061Y-53802759D01*
X112705928Y-53700918D01*
X112966937Y-53649000D01*
X113233063Y-53649000D01*
X113494072Y-53700918D01*
X113494072Y-53700918D01*
G37*
M02*
