G04 #@! TF.GenerationSoftware,KiCad,Pcbnew,(5.1.4-0)*
G04 #@! TF.CreationDate,2019-10-27T21:20:05-04:00*
G04 #@! TF.ProjectId,DifferentialSPIEncoder,44696666-6572-4656-9e74-69616c535049,rev?*
G04 #@! TF.SameCoordinates,Original*
G04 #@! TF.FileFunction,Soldermask,Bot*
G04 #@! TF.FilePolarity,Negative*
%FSLAX46Y46*%
G04 Gerber Fmt 4.6, Leading zero omitted, Abs format (unit mm)*
G04 Created by KiCad (PCBNEW (5.1.4-0)) date 2019-10-27 21:20:05*
%MOMM*%
%LPD*%
G04 APERTURE LIST*
%ADD10C,0.100000*%
G04 APERTURE END LIST*
D10*
G36*
X113494072Y-75700918D02*
G01*
X113739939Y-75802759D01*
X113961212Y-75950610D01*
X114149390Y-76138788D01*
X114297241Y-76360061D01*
X114399082Y-76605928D01*
X114451000Y-76866938D01*
X114451000Y-77133062D01*
X114399082Y-77394072D01*
X114297241Y-77639939D01*
X114149390Y-77861212D01*
X113961212Y-78049390D01*
X113739939Y-78197241D01*
X113739938Y-78197242D01*
X113739937Y-78197242D01*
X113494072Y-78299082D01*
X113233063Y-78351000D01*
X112966937Y-78351000D01*
X112705928Y-78299082D01*
X112460063Y-78197242D01*
X112460062Y-78197242D01*
X112460061Y-78197241D01*
X112238788Y-78049390D01*
X112050610Y-77861212D01*
X111902759Y-77639939D01*
X111800918Y-77394072D01*
X111749000Y-77133062D01*
X111749000Y-76866938D01*
X111800918Y-76605928D01*
X111902759Y-76360061D01*
X112050610Y-76138788D01*
X112238788Y-75950610D01*
X112460061Y-75802759D01*
X112705928Y-75700918D01*
X112966937Y-75649000D01*
X113233063Y-75649000D01*
X113494072Y-75700918D01*
X113494072Y-75700918D01*
G37*
G36*
X127352383Y-74412489D02*
G01*
X127352386Y-74412490D01*
X127352385Y-74412490D01*
X127416258Y-74438946D01*
X127473748Y-74477360D01*
X127522640Y-74526252D01*
X127561054Y-74583742D01*
X127582624Y-74635818D01*
X127587511Y-74647617D01*
X127601000Y-74715430D01*
X127601000Y-74784570D01*
X127587511Y-74852383D01*
X127587510Y-74852385D01*
X127561054Y-74916258D01*
X127522640Y-74973748D01*
X127473748Y-75022640D01*
X127416258Y-75061054D01*
X127364182Y-75082624D01*
X127352383Y-75087511D01*
X127284570Y-75101000D01*
X127215430Y-75101000D01*
X127147617Y-75087511D01*
X127135818Y-75082624D01*
X127083742Y-75061054D01*
X127026252Y-75022640D01*
X126977360Y-74973748D01*
X126938946Y-74916258D01*
X126912490Y-74852385D01*
X126912489Y-74852383D01*
X126899000Y-74784570D01*
X126899000Y-74715430D01*
X126912489Y-74647617D01*
X126917376Y-74635818D01*
X126938946Y-74583742D01*
X126977360Y-74526252D01*
X127026252Y-74477360D01*
X127083742Y-74438946D01*
X127147615Y-74412490D01*
X127147614Y-74412490D01*
X127147617Y-74412489D01*
X127215430Y-74399000D01*
X127284570Y-74399000D01*
X127352383Y-74412489D01*
X127352383Y-74412489D01*
G37*
G36*
X102649244Y-72625189D02*
G01*
X102794145Y-72685209D01*
X102840515Y-72704416D01*
X103012653Y-72819435D01*
X103159045Y-72965827D01*
X103274065Y-73137967D01*
X103353291Y-73329236D01*
X103393680Y-73532284D01*
X103393680Y-73739316D01*
X103353291Y-73942364D01*
X103274065Y-74133633D01*
X103274064Y-74133635D01*
X103159045Y-74305773D01*
X103012653Y-74452165D01*
X102840515Y-74567184D01*
X102840514Y-74567185D01*
X102840513Y-74567185D01*
X102649244Y-74646411D01*
X102446196Y-74686800D01*
X102239164Y-74686800D01*
X102036116Y-74646411D01*
X101844847Y-74567185D01*
X101844846Y-74567185D01*
X101844845Y-74567184D01*
X101672707Y-74452165D01*
X101526315Y-74305773D01*
X101411296Y-74133635D01*
X101411295Y-74133633D01*
X101332069Y-73942364D01*
X101291680Y-73739316D01*
X101291680Y-73532284D01*
X101332069Y-73329236D01*
X101411295Y-73137967D01*
X101526315Y-72965827D01*
X101672707Y-72819435D01*
X101844845Y-72704416D01*
X101891215Y-72685209D01*
X102036116Y-72625189D01*
X102239164Y-72584800D01*
X102446196Y-72584800D01*
X102649244Y-72625189D01*
X102649244Y-72625189D01*
G37*
G36*
X115902383Y-73837489D02*
G01*
X115902386Y-73837490D01*
X115902385Y-73837490D01*
X115966258Y-73863946D01*
X116023748Y-73902360D01*
X116072640Y-73951252D01*
X116111054Y-74008742D01*
X116129547Y-74053390D01*
X116137511Y-74072617D01*
X116151000Y-74140430D01*
X116151000Y-74209570D01*
X116137511Y-74277383D01*
X116137510Y-74277385D01*
X116111054Y-74341258D01*
X116072640Y-74398748D01*
X116023748Y-74447640D01*
X115966258Y-74486054D01*
X115914182Y-74507624D01*
X115902383Y-74512511D01*
X115834570Y-74526000D01*
X115765430Y-74526000D01*
X115697617Y-74512511D01*
X115685818Y-74507624D01*
X115633742Y-74486054D01*
X115576252Y-74447640D01*
X115527360Y-74398748D01*
X115488946Y-74341258D01*
X115462490Y-74277385D01*
X115462489Y-74277383D01*
X115449000Y-74209570D01*
X115449000Y-74140430D01*
X115462489Y-74072617D01*
X115470453Y-74053390D01*
X115488946Y-74008742D01*
X115527360Y-73951252D01*
X115576252Y-73902360D01*
X115633742Y-73863946D01*
X115697615Y-73837490D01*
X115697614Y-73837490D01*
X115697617Y-73837489D01*
X115765430Y-73824000D01*
X115834570Y-73824000D01*
X115902383Y-73837489D01*
X115902383Y-73837489D01*
G37*
G36*
X120000543Y-73378369D02*
G01*
X120000546Y-73378370D01*
X120000545Y-73378370D01*
X120064418Y-73404826D01*
X120121908Y-73443240D01*
X120170800Y-73492132D01*
X120209214Y-73549622D01*
X120220941Y-73577935D01*
X120235671Y-73613497D01*
X120249160Y-73681310D01*
X120249160Y-73750450D01*
X120235671Y-73818263D01*
X120235670Y-73818265D01*
X120209214Y-73882138D01*
X120170800Y-73939628D01*
X120121908Y-73988520D01*
X120064418Y-74026934D01*
X120012342Y-74048504D01*
X120000543Y-74053391D01*
X119932730Y-74066880D01*
X119863590Y-74066880D01*
X119795777Y-74053391D01*
X119783978Y-74048504D01*
X119731902Y-74026934D01*
X119674412Y-73988520D01*
X119625520Y-73939628D01*
X119587106Y-73882138D01*
X119560650Y-73818265D01*
X119560649Y-73818263D01*
X119547160Y-73750450D01*
X119547160Y-73681310D01*
X119560649Y-73613497D01*
X119575379Y-73577935D01*
X119587106Y-73549622D01*
X119625520Y-73492132D01*
X119674412Y-73443240D01*
X119731902Y-73404826D01*
X119795775Y-73378370D01*
X119795774Y-73378370D01*
X119795777Y-73378369D01*
X119863590Y-73364880D01*
X119932730Y-73364880D01*
X120000543Y-73378369D01*
X120000543Y-73378369D01*
G37*
G36*
X124877343Y-73342809D02*
G01*
X124877346Y-73342810D01*
X124877345Y-73342810D01*
X124941218Y-73369266D01*
X124998708Y-73407680D01*
X125047600Y-73456572D01*
X125086014Y-73514062D01*
X125100743Y-73549622D01*
X125112471Y-73577937D01*
X125125960Y-73645750D01*
X125125960Y-73714890D01*
X125112471Y-73782703D01*
X125112470Y-73782705D01*
X125086014Y-73846578D01*
X125047600Y-73904068D01*
X124998708Y-73952960D01*
X124941218Y-73991374D01*
X124899293Y-74008739D01*
X124877343Y-74017831D01*
X124809530Y-74031320D01*
X124740390Y-74031320D01*
X124672577Y-74017831D01*
X124650627Y-74008739D01*
X124608702Y-73991374D01*
X124551212Y-73952960D01*
X124502320Y-73904068D01*
X124463906Y-73846578D01*
X124437450Y-73782705D01*
X124437449Y-73782703D01*
X124423960Y-73714890D01*
X124423960Y-73645750D01*
X124437449Y-73577937D01*
X124449177Y-73549622D01*
X124463906Y-73514062D01*
X124502320Y-73456572D01*
X124551212Y-73407680D01*
X124608702Y-73369266D01*
X124672575Y-73342810D01*
X124672574Y-73342810D01*
X124672577Y-73342809D01*
X124740390Y-73329320D01*
X124809530Y-73329320D01*
X124877343Y-73342809D01*
X124877343Y-73342809D01*
G37*
G36*
X99310665Y-70149660D02*
G01*
X99423428Y-70172090D01*
X99444902Y-70180985D01*
X99742088Y-70304083D01*
X100028876Y-70495709D01*
X100272771Y-70739604D01*
X100464397Y-71026392D01*
X100596390Y-71345053D01*
X100663680Y-71683340D01*
X100663680Y-72028260D01*
X100639938Y-72147617D01*
X100599208Y-72352383D01*
X100596390Y-72366547D01*
X100464397Y-72685208D01*
X100272771Y-72971996D01*
X100028876Y-73215891D01*
X99742088Y-73407517D01*
X99623658Y-73456572D01*
X99423428Y-73539510D01*
X99372591Y-73549622D01*
X99085140Y-73606800D01*
X98740220Y-73606800D01*
X98452769Y-73549622D01*
X98401932Y-73539510D01*
X98201702Y-73456572D01*
X98083272Y-73407517D01*
X97796484Y-73215891D01*
X97552589Y-72971996D01*
X97360963Y-72685208D01*
X97228970Y-72366547D01*
X97226153Y-72352383D01*
X97185422Y-72147617D01*
X97161680Y-72028260D01*
X97161680Y-71683340D01*
X97228970Y-71345053D01*
X97360963Y-71026392D01*
X97552589Y-70739604D01*
X97796484Y-70495709D01*
X98083272Y-70304083D01*
X98380458Y-70180985D01*
X98401932Y-70172090D01*
X98514695Y-70149660D01*
X98740220Y-70104800D01*
X99085140Y-70104800D01*
X99310665Y-70149660D01*
X99310665Y-70149660D01*
G37*
G36*
X110502383Y-71912489D02*
G01*
X110502386Y-71912490D01*
X110502385Y-71912490D01*
X110566258Y-71938946D01*
X110623748Y-71977360D01*
X110672640Y-72026252D01*
X110711054Y-72083742D01*
X110732624Y-72135818D01*
X110737511Y-72147617D01*
X110751000Y-72215430D01*
X110751000Y-72284570D01*
X110737511Y-72352383D01*
X110737510Y-72352385D01*
X110711054Y-72416258D01*
X110672640Y-72473748D01*
X110623748Y-72522640D01*
X110566258Y-72561054D01*
X110514182Y-72582624D01*
X110502383Y-72587511D01*
X110434570Y-72601000D01*
X110365430Y-72601000D01*
X110297617Y-72587511D01*
X110285818Y-72582624D01*
X110233742Y-72561054D01*
X110176252Y-72522640D01*
X110127360Y-72473748D01*
X110088946Y-72416258D01*
X110062490Y-72352385D01*
X110062489Y-72352383D01*
X110049000Y-72284570D01*
X110049000Y-72215430D01*
X110062489Y-72147617D01*
X110067376Y-72135818D01*
X110088946Y-72083742D01*
X110127360Y-72026252D01*
X110176252Y-71977360D01*
X110233742Y-71938946D01*
X110297615Y-71912490D01*
X110297614Y-71912490D01*
X110297617Y-71912489D01*
X110365430Y-71899000D01*
X110434570Y-71899000D01*
X110502383Y-71912489D01*
X110502383Y-71912489D01*
G37*
G36*
X121693288Y-70240680D02*
G01*
X121774230Y-70240680D01*
X121842043Y-70254169D01*
X121842046Y-70254170D01*
X121842045Y-70254170D01*
X121905918Y-70280626D01*
X121963408Y-70319040D01*
X122012300Y-70367932D01*
X122050714Y-70425422D01*
X122072284Y-70477498D01*
X122077171Y-70489297D01*
X122090660Y-70557110D01*
X122090660Y-70626250D01*
X122077171Y-70694063D01*
X122077170Y-70694065D01*
X122050714Y-70757938D01*
X122012300Y-70815428D01*
X121963408Y-70864320D01*
X121905918Y-70902734D01*
X121853842Y-70924304D01*
X121842043Y-70929191D01*
X121774230Y-70942680D01*
X121705090Y-70942680D01*
X121637277Y-70929191D01*
X121625478Y-70924304D01*
X121573402Y-70902734D01*
X121515912Y-70864320D01*
X121467020Y-70815428D01*
X121428606Y-70757938D01*
X121402150Y-70694065D01*
X121402149Y-70694063D01*
X121388660Y-70626250D01*
X121388660Y-70557110D01*
X121402149Y-70489297D01*
X121407036Y-70477498D01*
X121428606Y-70425422D01*
X121467020Y-70367932D01*
X121515912Y-70319040D01*
X121573402Y-70280626D01*
X121637275Y-70254170D01*
X121637274Y-70254170D01*
X121637277Y-70254169D01*
X121655085Y-70250627D01*
X121678533Y-70243514D01*
X121685306Y-70239894D01*
X121693288Y-70240680D01*
X121693288Y-70240680D01*
G37*
G36*
X113853743Y-69741089D02*
G01*
X113853746Y-69741090D01*
X113853745Y-69741090D01*
X113917618Y-69767546D01*
X113975108Y-69805960D01*
X114024000Y-69854852D01*
X114062414Y-69912342D01*
X114083431Y-69963083D01*
X114088871Y-69976217D01*
X114102360Y-70044030D01*
X114102360Y-70113170D01*
X114088871Y-70180983D01*
X114088870Y-70180985D01*
X114062414Y-70244858D01*
X114024000Y-70302348D01*
X113975108Y-70351240D01*
X113917618Y-70389654D01*
X113865542Y-70411224D01*
X113853743Y-70416111D01*
X113785930Y-70429600D01*
X113716790Y-70429600D01*
X113648977Y-70416111D01*
X113637178Y-70411224D01*
X113585102Y-70389654D01*
X113527612Y-70351240D01*
X113478720Y-70302348D01*
X113440306Y-70244858D01*
X113413850Y-70180985D01*
X113413849Y-70180983D01*
X113400360Y-70113170D01*
X113400360Y-70044030D01*
X113413849Y-69976217D01*
X113419289Y-69963083D01*
X113440306Y-69912342D01*
X113478720Y-69854852D01*
X113527612Y-69805960D01*
X113585102Y-69767546D01*
X113648975Y-69741090D01*
X113648974Y-69741090D01*
X113648977Y-69741089D01*
X113716790Y-69727600D01*
X113785930Y-69727600D01*
X113853743Y-69741089D01*
X113853743Y-69741089D01*
G37*
G36*
X121686708Y-69314520D02*
G01*
X121686711Y-69314521D01*
X121686710Y-69314521D01*
X121750583Y-69340977D01*
X121808073Y-69379391D01*
X121856965Y-69428283D01*
X121895379Y-69485773D01*
X121916949Y-69537849D01*
X121921836Y-69549648D01*
X121935325Y-69617461D01*
X121935325Y-69686601D01*
X121921836Y-69754414D01*
X121921835Y-69754416D01*
X121895379Y-69818289D01*
X121856965Y-69875779D01*
X121808073Y-69924671D01*
X121750583Y-69963085D01*
X121718878Y-69976217D01*
X121686708Y-69989542D01*
X121668901Y-69993084D01*
X121645452Y-70000197D01*
X121638679Y-70003817D01*
X121630697Y-70003031D01*
X121549755Y-70003031D01*
X121481942Y-69989542D01*
X121449772Y-69976217D01*
X121418067Y-69963085D01*
X121360577Y-69924671D01*
X121311685Y-69875779D01*
X121273271Y-69818289D01*
X121246815Y-69754416D01*
X121246814Y-69754414D01*
X121233325Y-69686601D01*
X121233325Y-69617461D01*
X121246814Y-69549648D01*
X121251701Y-69537849D01*
X121273271Y-69485773D01*
X121311685Y-69428283D01*
X121360577Y-69379391D01*
X121418067Y-69340977D01*
X121481940Y-69314521D01*
X121481939Y-69314521D01*
X121481942Y-69314520D01*
X121549755Y-69301031D01*
X121618895Y-69301031D01*
X121686708Y-69314520D01*
X121686708Y-69314520D01*
G37*
G36*
X102103680Y-69716800D02*
G01*
X100801680Y-69716800D01*
X100801680Y-68414800D01*
X102103680Y-68414800D01*
X102103680Y-69716800D01*
X102103680Y-69716800D01*
G37*
G36*
X112202383Y-68562489D02*
G01*
X112202386Y-68562490D01*
X112202385Y-68562490D01*
X112266258Y-68588946D01*
X112323748Y-68627360D01*
X112372640Y-68676252D01*
X112411054Y-68733742D01*
X112432624Y-68785818D01*
X112437511Y-68797617D01*
X112451000Y-68865430D01*
X112451000Y-68934570D01*
X112437511Y-69002383D01*
X112437510Y-69002385D01*
X112411054Y-69066258D01*
X112372640Y-69123748D01*
X112323748Y-69172640D01*
X112266258Y-69211054D01*
X112214182Y-69232624D01*
X112202383Y-69237511D01*
X112134570Y-69251000D01*
X112065430Y-69251000D01*
X111997617Y-69237511D01*
X111985818Y-69232624D01*
X111933742Y-69211054D01*
X111876252Y-69172640D01*
X111827360Y-69123748D01*
X111788946Y-69066258D01*
X111762490Y-69002385D01*
X111762489Y-69002383D01*
X111749000Y-68934570D01*
X111749000Y-68865430D01*
X111762489Y-68797617D01*
X111767376Y-68785818D01*
X111788946Y-68733742D01*
X111827360Y-68676252D01*
X111876252Y-68627360D01*
X111933742Y-68588946D01*
X111997615Y-68562490D01*
X111997614Y-68562490D01*
X111997617Y-68562489D01*
X112065430Y-68549000D01*
X112134570Y-68549000D01*
X112202383Y-68562489D01*
X112202383Y-68562489D01*
G37*
G36*
X122799623Y-68532049D02*
G01*
X122799626Y-68532050D01*
X122799625Y-68532050D01*
X122863498Y-68558506D01*
X122920988Y-68596920D01*
X122969880Y-68645812D01*
X123008294Y-68703302D01*
X123015153Y-68719862D01*
X123034751Y-68767177D01*
X123048240Y-68834990D01*
X123048240Y-68904130D01*
X123034751Y-68971943D01*
X123034750Y-68971945D01*
X123008294Y-69035818D01*
X122969880Y-69093308D01*
X122920988Y-69142200D01*
X122863498Y-69180614D01*
X122811422Y-69202184D01*
X122799623Y-69207071D01*
X122731810Y-69220560D01*
X122662670Y-69220560D01*
X122594857Y-69207071D01*
X122583058Y-69202184D01*
X122530982Y-69180614D01*
X122473492Y-69142200D01*
X122424600Y-69093308D01*
X122386186Y-69035818D01*
X122359730Y-68971945D01*
X122359729Y-68971943D01*
X122346240Y-68904130D01*
X122346240Y-68834990D01*
X122359729Y-68767177D01*
X122379327Y-68719862D01*
X122386186Y-68703302D01*
X122424600Y-68645812D01*
X122473492Y-68596920D01*
X122530982Y-68558506D01*
X122594855Y-68532050D01*
X122594854Y-68532050D01*
X122594857Y-68532049D01*
X122662670Y-68518560D01*
X122731810Y-68518560D01*
X122799623Y-68532049D01*
X122799623Y-68532049D01*
G37*
G36*
X103437153Y-67371738D02*
G01*
X103564729Y-67424582D01*
X103679539Y-67501295D01*
X103777185Y-67598941D01*
X103853898Y-67713751D01*
X103906742Y-67841327D01*
X103933680Y-67976756D01*
X103933680Y-68114844D01*
X103906742Y-68250273D01*
X103853898Y-68377849D01*
X103777185Y-68492659D01*
X103679539Y-68590305D01*
X103564729Y-68667018D01*
X103437153Y-68719862D01*
X103301724Y-68746800D01*
X103163636Y-68746800D01*
X103028207Y-68719862D01*
X102900631Y-68667018D01*
X102785821Y-68590305D01*
X102688175Y-68492659D01*
X102611462Y-68377849D01*
X102558618Y-68250273D01*
X102531680Y-68114844D01*
X102531680Y-67976756D01*
X102558618Y-67841327D01*
X102611462Y-67713751D01*
X102688175Y-67598941D01*
X102785821Y-67501295D01*
X102900631Y-67424582D01*
X103028207Y-67371738D01*
X103163636Y-67344800D01*
X103301724Y-67344800D01*
X103437153Y-67371738D01*
X103437153Y-67371738D01*
G37*
G36*
X129801000Y-68401000D02*
G01*
X127999000Y-68401000D01*
X127999000Y-66599000D01*
X129801000Y-66599000D01*
X129801000Y-68401000D01*
X129801000Y-68401000D01*
G37*
G36*
X110906800Y-68215200D02*
G01*
X109354800Y-68215200D01*
X109354800Y-63763200D01*
X110906800Y-63763200D01*
X110906800Y-68215200D01*
X110906800Y-68215200D01*
G37*
G36*
X116806800Y-68215200D02*
G01*
X115254800Y-68215200D01*
X115254800Y-63763200D01*
X116806800Y-63763200D01*
X116806800Y-68215200D01*
X116806800Y-68215200D01*
G37*
G36*
X101657153Y-66351738D02*
G01*
X101784729Y-66404582D01*
X101899539Y-66481295D01*
X101997185Y-66578941D01*
X102073898Y-66693751D01*
X102126742Y-66821327D01*
X102153680Y-66956756D01*
X102153680Y-67094844D01*
X102126742Y-67230273D01*
X102073898Y-67357849D01*
X101997185Y-67472659D01*
X101899539Y-67570305D01*
X101784729Y-67647018D01*
X101657153Y-67699862D01*
X101521724Y-67726800D01*
X101383636Y-67726800D01*
X101248207Y-67699862D01*
X101120631Y-67647018D01*
X101005821Y-67570305D01*
X100908175Y-67472659D01*
X100831462Y-67357849D01*
X100778618Y-67230273D01*
X100751680Y-67094844D01*
X100751680Y-66956756D01*
X100778618Y-66821327D01*
X100831462Y-66693751D01*
X100908175Y-66578941D01*
X101005821Y-66481295D01*
X101120631Y-66404582D01*
X101248207Y-66351738D01*
X101383636Y-66324800D01*
X101521724Y-66324800D01*
X101657153Y-66351738D01*
X101657153Y-66351738D01*
G37*
G36*
X108601938Y-67021716D02*
G01*
X108622557Y-67027971D01*
X108641553Y-67038124D01*
X108658208Y-67051792D01*
X108671876Y-67068447D01*
X108682029Y-67087443D01*
X108688284Y-67108062D01*
X108691000Y-67135640D01*
X108691000Y-67594360D01*
X108688284Y-67621938D01*
X108682029Y-67642557D01*
X108671876Y-67661553D01*
X108658208Y-67678208D01*
X108641553Y-67691876D01*
X108622557Y-67702029D01*
X108601938Y-67708284D01*
X108574360Y-67711000D01*
X108065640Y-67711000D01*
X108038062Y-67708284D01*
X108017443Y-67702029D01*
X107998447Y-67691876D01*
X107981792Y-67678208D01*
X107968124Y-67661553D01*
X107957971Y-67642557D01*
X107951716Y-67621938D01*
X107949000Y-67594360D01*
X107949000Y-67135640D01*
X107951716Y-67108062D01*
X107957971Y-67087443D01*
X107968124Y-67068447D01*
X107981792Y-67051792D01*
X107998447Y-67038124D01*
X108017443Y-67027971D01*
X108038062Y-67021716D01*
X108065640Y-67019000D01*
X108574360Y-67019000D01*
X108601938Y-67021716D01*
X108601938Y-67021716D01*
G37*
G36*
X124494072Y-64700918D02*
G01*
X124739580Y-64802610D01*
X124739939Y-64802759D01*
X124786591Y-64833931D01*
X124961211Y-64950609D01*
X125149391Y-65138789D01*
X125183792Y-65190274D01*
X125278317Y-65331739D01*
X125297242Y-65360063D01*
X125399082Y-65605928D01*
X125451000Y-65866937D01*
X125451000Y-66133063D01*
X125399082Y-66394072D01*
X125314199Y-66599000D01*
X125297241Y-66639939D01*
X125251625Y-66708208D01*
X125149391Y-66861211D01*
X124961211Y-67049391D01*
X124873404Y-67108062D01*
X124739939Y-67197241D01*
X124739938Y-67197242D01*
X124739937Y-67197242D01*
X124494072Y-67299082D01*
X124233063Y-67351000D01*
X123966937Y-67351000D01*
X123705928Y-67299082D01*
X123460063Y-67197242D01*
X123460062Y-67197242D01*
X123460061Y-67197241D01*
X123326596Y-67108062D01*
X123238789Y-67049391D01*
X123050609Y-66861211D01*
X122948375Y-66708208D01*
X122902759Y-66639939D01*
X122885802Y-66599000D01*
X122800918Y-66394072D01*
X122749000Y-66133063D01*
X122749000Y-65866937D01*
X122800918Y-65605928D01*
X122902758Y-65360063D01*
X122921684Y-65331739D01*
X123016208Y-65190274D01*
X123050609Y-65138789D01*
X123238789Y-64950609D01*
X123413409Y-64833931D01*
X123460061Y-64802759D01*
X123460421Y-64802610D01*
X123705928Y-64700918D01*
X123966937Y-64649000D01*
X124233063Y-64649000D01*
X124494072Y-64700918D01*
X124494072Y-64700918D01*
G37*
G36*
X121802383Y-66212489D02*
G01*
X121802386Y-66212490D01*
X121802385Y-66212490D01*
X121866258Y-66238946D01*
X121923748Y-66277360D01*
X121972640Y-66326252D01*
X122011054Y-66383742D01*
X122032624Y-66435818D01*
X122037511Y-66447617D01*
X122051000Y-66515430D01*
X122051000Y-66584570D01*
X122037511Y-66652383D01*
X122037510Y-66652385D01*
X122011054Y-66716258D01*
X121972640Y-66773748D01*
X121923748Y-66822640D01*
X121866258Y-66861054D01*
X121814182Y-66882624D01*
X121802383Y-66887511D01*
X121734570Y-66901000D01*
X121665430Y-66901000D01*
X121597617Y-66887511D01*
X121585818Y-66882624D01*
X121533742Y-66861054D01*
X121476252Y-66822640D01*
X121427360Y-66773748D01*
X121388946Y-66716258D01*
X121362490Y-66652385D01*
X121362489Y-66652383D01*
X121349000Y-66584570D01*
X121349000Y-66515430D01*
X121362489Y-66447617D01*
X121367376Y-66435818D01*
X121388946Y-66383742D01*
X121427360Y-66326252D01*
X121476252Y-66277360D01*
X121533742Y-66238946D01*
X121597615Y-66212490D01*
X121597614Y-66212490D01*
X121597617Y-66212489D01*
X121665430Y-66199000D01*
X121734570Y-66199000D01*
X121802383Y-66212489D01*
X121802383Y-66212489D01*
G37*
G36*
X107282383Y-66082489D02*
G01*
X107282386Y-66082490D01*
X107282385Y-66082490D01*
X107346258Y-66108946D01*
X107403748Y-66147360D01*
X107452640Y-66196252D01*
X107491054Y-66253742D01*
X107500837Y-66277361D01*
X107517511Y-66317617D01*
X107531000Y-66385430D01*
X107531000Y-66454570D01*
X107517511Y-66522383D01*
X107517510Y-66522385D01*
X107491054Y-66586258D01*
X107452640Y-66643748D01*
X107403748Y-66692640D01*
X107346258Y-66731054D01*
X107294182Y-66752624D01*
X107282383Y-66757511D01*
X107214570Y-66771000D01*
X107145430Y-66771000D01*
X107077617Y-66757511D01*
X107065818Y-66752624D01*
X107013742Y-66731054D01*
X106956252Y-66692640D01*
X106907360Y-66643748D01*
X106868946Y-66586258D01*
X106842490Y-66522385D01*
X106842489Y-66522383D01*
X106829000Y-66454570D01*
X106829000Y-66385430D01*
X106842489Y-66317617D01*
X106859163Y-66277361D01*
X106868946Y-66253742D01*
X106907360Y-66196252D01*
X106956252Y-66147360D01*
X107013742Y-66108946D01*
X107077615Y-66082490D01*
X107077614Y-66082490D01*
X107077617Y-66082489D01*
X107145430Y-66069000D01*
X107214570Y-66069000D01*
X107282383Y-66082489D01*
X107282383Y-66082489D01*
G37*
G36*
X108601938Y-66051716D02*
G01*
X108622557Y-66057971D01*
X108641553Y-66068124D01*
X108658208Y-66081792D01*
X108671876Y-66098447D01*
X108682029Y-66117443D01*
X108688284Y-66138062D01*
X108691000Y-66165640D01*
X108691000Y-66624360D01*
X108688284Y-66651938D01*
X108682029Y-66672557D01*
X108671876Y-66691553D01*
X108658208Y-66708208D01*
X108641553Y-66721876D01*
X108622557Y-66732029D01*
X108601938Y-66738284D01*
X108574360Y-66741000D01*
X108065640Y-66741000D01*
X108038062Y-66738284D01*
X108017443Y-66732029D01*
X107998447Y-66721876D01*
X107981792Y-66708208D01*
X107968124Y-66691553D01*
X107957971Y-66672557D01*
X107951716Y-66651938D01*
X107949000Y-66624360D01*
X107949000Y-66165640D01*
X107951716Y-66138062D01*
X107957971Y-66117443D01*
X107968124Y-66098447D01*
X107981792Y-66081792D01*
X107998447Y-66068124D01*
X108017443Y-66057971D01*
X108038062Y-66051716D01*
X108065640Y-66049000D01*
X108574360Y-66049000D01*
X108601938Y-66051716D01*
X108601938Y-66051716D01*
G37*
G36*
X103437153Y-65331738D02*
G01*
X103564729Y-65384582D01*
X103679539Y-65461295D01*
X103777185Y-65558941D01*
X103853898Y-65673751D01*
X103906742Y-65801327D01*
X103933680Y-65936756D01*
X103933680Y-66074844D01*
X103906742Y-66210273D01*
X103853898Y-66337849D01*
X103777185Y-66452659D01*
X103679539Y-66550305D01*
X103564729Y-66627018D01*
X103437153Y-66679862D01*
X103301724Y-66706800D01*
X103163636Y-66706800D01*
X103028207Y-66679862D01*
X102900631Y-66627018D01*
X102785821Y-66550305D01*
X102688175Y-66452659D01*
X102611462Y-66337849D01*
X102558618Y-66210273D01*
X102531680Y-66074844D01*
X102531680Y-65936756D01*
X102558618Y-65801327D01*
X102611462Y-65673751D01*
X102688175Y-65558941D01*
X102785821Y-65461295D01*
X102900631Y-65384582D01*
X103028207Y-65331738D01*
X103163636Y-65304800D01*
X103301724Y-65304800D01*
X103437153Y-65331738D01*
X103437153Y-65331738D01*
G37*
G36*
X129010442Y-64065518D02*
G01*
X129076627Y-64072037D01*
X129246466Y-64123557D01*
X129402991Y-64207222D01*
X129421424Y-64222350D01*
X129540186Y-64319814D01*
X129616381Y-64412659D01*
X129652778Y-64457009D01*
X129652779Y-64457011D01*
X129712091Y-64567974D01*
X129736443Y-64613534D01*
X129787963Y-64783373D01*
X129805359Y-64960000D01*
X129787963Y-65136627D01*
X129736443Y-65306466D01*
X129652778Y-65462991D01*
X129623448Y-65498729D01*
X129540186Y-65600186D01*
X129450545Y-65673751D01*
X129402991Y-65712778D01*
X129246466Y-65796443D01*
X129076627Y-65847963D01*
X129010443Y-65854481D01*
X128944260Y-65861000D01*
X128855740Y-65861000D01*
X128789557Y-65854481D01*
X128723373Y-65847963D01*
X128553534Y-65796443D01*
X128397009Y-65712778D01*
X128349455Y-65673751D01*
X128259814Y-65600186D01*
X128176552Y-65498729D01*
X128147222Y-65462991D01*
X128063557Y-65306466D01*
X128012037Y-65136627D01*
X127994641Y-64960000D01*
X128012037Y-64783373D01*
X128063557Y-64613534D01*
X128087910Y-64567974D01*
X128147221Y-64457011D01*
X128147222Y-64457009D01*
X128183619Y-64412659D01*
X128259814Y-64319814D01*
X128378576Y-64222350D01*
X128397009Y-64207222D01*
X128553534Y-64123557D01*
X128723373Y-64072037D01*
X128789558Y-64065518D01*
X128855740Y-64059000D01*
X128944260Y-64059000D01*
X129010442Y-64065518D01*
X129010442Y-64065518D01*
G37*
G36*
X108689591Y-64725585D02*
G01*
X108723569Y-64735893D01*
X108754890Y-64752634D01*
X108782339Y-64775161D01*
X108804866Y-64802610D01*
X108821607Y-64833931D01*
X108831915Y-64867909D01*
X108836000Y-64909390D01*
X108836000Y-65510610D01*
X108831915Y-65552091D01*
X108821607Y-65586069D01*
X108804866Y-65617390D01*
X108782339Y-65644839D01*
X108754890Y-65667366D01*
X108723569Y-65684107D01*
X108689591Y-65694415D01*
X108648110Y-65698500D01*
X107971890Y-65698500D01*
X107930409Y-65694415D01*
X107896431Y-65684107D01*
X107865110Y-65667366D01*
X107837661Y-65644839D01*
X107815134Y-65617390D01*
X107798393Y-65586069D01*
X107788085Y-65552091D01*
X107784000Y-65510610D01*
X107784000Y-64909390D01*
X107788085Y-64867909D01*
X107798393Y-64833931D01*
X107815134Y-64802610D01*
X107837661Y-64775161D01*
X107865110Y-64752634D01*
X107896431Y-64735893D01*
X107930409Y-64725585D01*
X107971890Y-64721500D01*
X108648110Y-64721500D01*
X108689591Y-64725585D01*
X108689591Y-64725585D01*
G37*
G36*
X101657153Y-64311738D02*
G01*
X101784729Y-64364582D01*
X101899539Y-64441295D01*
X101997185Y-64538941D01*
X102073898Y-64653751D01*
X102126742Y-64781327D01*
X102153680Y-64916756D01*
X102153680Y-65054844D01*
X102126742Y-65190273D01*
X102073898Y-65317849D01*
X101997185Y-65432659D01*
X101899539Y-65530305D01*
X101784729Y-65607018D01*
X101657153Y-65659862D01*
X101521724Y-65686800D01*
X101383636Y-65686800D01*
X101248207Y-65659862D01*
X101120631Y-65607018D01*
X101005821Y-65530305D01*
X100908175Y-65432659D01*
X100831462Y-65317849D01*
X100778618Y-65190273D01*
X100751680Y-65054844D01*
X100751680Y-64916756D01*
X100778618Y-64781327D01*
X100831462Y-64653751D01*
X100908175Y-64538941D01*
X101005821Y-64441295D01*
X101120631Y-64364582D01*
X101248207Y-64311738D01*
X101383636Y-64284800D01*
X101521724Y-64284800D01*
X101657153Y-64311738D01*
X101657153Y-64311738D01*
G37*
G36*
X103437153Y-63291738D02*
G01*
X103564729Y-63344582D01*
X103679539Y-63421295D01*
X103777185Y-63518941D01*
X103853898Y-63633751D01*
X103906742Y-63761327D01*
X103933680Y-63896756D01*
X103933680Y-64034844D01*
X103906742Y-64170273D01*
X103853898Y-64297849D01*
X103777185Y-64412659D01*
X103679539Y-64510305D01*
X103564729Y-64587018D01*
X103437153Y-64639862D01*
X103301724Y-64666800D01*
X103163636Y-64666800D01*
X103028207Y-64639862D01*
X102900631Y-64587018D01*
X102785821Y-64510305D01*
X102688175Y-64412659D01*
X102611462Y-64297849D01*
X102558618Y-64170273D01*
X102531680Y-64034844D01*
X102531680Y-63896756D01*
X102558618Y-63761327D01*
X102611462Y-63633751D01*
X102688175Y-63518941D01*
X102785821Y-63421295D01*
X102900631Y-63344582D01*
X103028207Y-63291738D01*
X103163636Y-63264800D01*
X103301724Y-63264800D01*
X103437153Y-63291738D01*
X103437153Y-63291738D01*
G37*
G36*
X113838503Y-63919409D02*
G01*
X113838506Y-63919410D01*
X113838505Y-63919410D01*
X113902378Y-63945866D01*
X113959868Y-63984280D01*
X114008760Y-64033172D01*
X114047174Y-64090662D01*
X114059083Y-64119415D01*
X114073631Y-64154537D01*
X114087120Y-64222350D01*
X114087120Y-64291490D01*
X114073631Y-64359303D01*
X114073630Y-64359305D01*
X114047174Y-64423178D01*
X114008760Y-64480668D01*
X113959868Y-64529560D01*
X113902378Y-64567974D01*
X113856400Y-64587018D01*
X113838503Y-64594431D01*
X113770690Y-64607920D01*
X113701550Y-64607920D01*
X113633737Y-64594431D01*
X113615840Y-64587018D01*
X113569862Y-64567974D01*
X113512372Y-64529560D01*
X113463480Y-64480668D01*
X113425066Y-64423178D01*
X113398610Y-64359305D01*
X113398609Y-64359303D01*
X113385120Y-64291490D01*
X113385120Y-64222350D01*
X113398609Y-64154537D01*
X113413157Y-64119415D01*
X113425066Y-64090662D01*
X113463480Y-64033172D01*
X113512372Y-63984280D01*
X113569862Y-63945866D01*
X113633735Y-63919410D01*
X113633734Y-63919410D01*
X113633737Y-63919409D01*
X113701550Y-63905920D01*
X113770690Y-63905920D01*
X113838503Y-63919409D01*
X113838503Y-63919409D01*
G37*
G36*
X108689591Y-63150585D02*
G01*
X108723569Y-63160893D01*
X108754890Y-63177634D01*
X108782339Y-63200161D01*
X108804866Y-63227610D01*
X108821607Y-63258931D01*
X108831915Y-63292909D01*
X108836000Y-63334390D01*
X108836000Y-63935610D01*
X108831915Y-63977091D01*
X108821607Y-64011069D01*
X108804866Y-64042390D01*
X108782339Y-64069839D01*
X108754890Y-64092366D01*
X108723569Y-64109107D01*
X108689591Y-64119415D01*
X108648110Y-64123500D01*
X107971890Y-64123500D01*
X107930409Y-64119415D01*
X107896431Y-64109107D01*
X107865110Y-64092366D01*
X107837661Y-64069839D01*
X107815134Y-64042390D01*
X107798393Y-64011069D01*
X107788085Y-63977091D01*
X107784000Y-63935610D01*
X107784000Y-63334390D01*
X107788085Y-63292909D01*
X107798393Y-63258931D01*
X107815134Y-63227610D01*
X107837661Y-63200161D01*
X107865110Y-63177634D01*
X107896431Y-63160893D01*
X107930409Y-63150585D01*
X107971890Y-63146500D01*
X108648110Y-63146500D01*
X108689591Y-63150585D01*
X108689591Y-63150585D01*
G37*
G36*
X121174023Y-63137089D02*
G01*
X121174026Y-63137090D01*
X121174025Y-63137090D01*
X121237898Y-63163546D01*
X121295388Y-63201960D01*
X121344280Y-63250852D01*
X121382694Y-63308342D01*
X121393483Y-63334390D01*
X121409151Y-63372217D01*
X121422640Y-63440030D01*
X121422640Y-63509170D01*
X121409151Y-63576983D01*
X121409150Y-63576985D01*
X121382694Y-63640858D01*
X121344280Y-63698348D01*
X121295388Y-63747240D01*
X121237898Y-63785654D01*
X121185822Y-63807224D01*
X121174023Y-63812111D01*
X121106210Y-63825600D01*
X121037070Y-63825600D01*
X120969257Y-63812111D01*
X120957458Y-63807224D01*
X120905382Y-63785654D01*
X120847892Y-63747240D01*
X120799000Y-63698348D01*
X120760586Y-63640858D01*
X120734130Y-63576985D01*
X120734129Y-63576983D01*
X120720640Y-63509170D01*
X120720640Y-63440030D01*
X120734129Y-63372217D01*
X120749797Y-63334390D01*
X120760586Y-63308342D01*
X120799000Y-63250852D01*
X120847892Y-63201960D01*
X120905382Y-63163546D01*
X120969255Y-63137090D01*
X120969254Y-63137090D01*
X120969257Y-63137089D01*
X121037070Y-63123600D01*
X121106210Y-63123600D01*
X121174023Y-63137089D01*
X121174023Y-63137089D01*
G37*
G36*
X101657153Y-62271738D02*
G01*
X101784729Y-62324582D01*
X101899539Y-62401295D01*
X101997185Y-62498941D01*
X102073898Y-62613751D01*
X102126742Y-62741327D01*
X102153680Y-62876756D01*
X102153680Y-63014844D01*
X102126742Y-63150273D01*
X102073898Y-63277849D01*
X101997185Y-63392659D01*
X101899539Y-63490305D01*
X101784729Y-63567018D01*
X101657153Y-63619862D01*
X101521724Y-63646800D01*
X101383636Y-63646800D01*
X101248207Y-63619862D01*
X101120631Y-63567018D01*
X101005821Y-63490305D01*
X100908175Y-63392659D01*
X100831462Y-63277849D01*
X100778618Y-63150273D01*
X100751680Y-63014844D01*
X100751680Y-62876756D01*
X100778618Y-62741327D01*
X100831462Y-62613751D01*
X100908175Y-62498941D01*
X101005821Y-62401295D01*
X101120631Y-62324582D01*
X101248207Y-62271738D01*
X101383636Y-62244800D01*
X101521724Y-62244800D01*
X101657153Y-62271738D01*
X101657153Y-62271738D01*
G37*
G36*
X129010443Y-61525519D02*
G01*
X129076627Y-61532037D01*
X129246466Y-61583557D01*
X129246468Y-61583558D01*
X129265539Y-61593752D01*
X129402991Y-61667222D01*
X129438729Y-61696552D01*
X129540186Y-61779814D01*
X129603331Y-61856758D01*
X129652778Y-61917009D01*
X129736443Y-62073534D01*
X129787963Y-62243373D01*
X129805359Y-62420000D01*
X129787963Y-62596627D01*
X129736443Y-62766466D01*
X129652778Y-62922991D01*
X129623448Y-62958729D01*
X129540186Y-63060186D01*
X129446478Y-63137089D01*
X129402991Y-63172778D01*
X129246466Y-63256443D01*
X129076627Y-63307963D01*
X129010443Y-63314481D01*
X128944260Y-63321000D01*
X128855740Y-63321000D01*
X128789557Y-63314481D01*
X128723373Y-63307963D01*
X128553534Y-63256443D01*
X128397009Y-63172778D01*
X128353522Y-63137089D01*
X128259814Y-63060186D01*
X128176552Y-62958729D01*
X128147222Y-62922991D01*
X128063557Y-62766466D01*
X128012037Y-62596627D01*
X127994641Y-62420000D01*
X128012037Y-62243373D01*
X128063557Y-62073534D01*
X128147222Y-61917009D01*
X128196669Y-61856758D01*
X128259814Y-61779814D01*
X128361271Y-61696552D01*
X128397009Y-61667222D01*
X128534461Y-61593752D01*
X128553532Y-61583558D01*
X128553534Y-61583557D01*
X128723373Y-61532037D01*
X128789557Y-61525519D01*
X128855740Y-61519000D01*
X128944260Y-61519000D01*
X129010443Y-61525519D01*
X129010443Y-61525519D01*
G37*
G36*
X114502383Y-62342489D02*
G01*
X114502386Y-62342490D01*
X114502385Y-62342490D01*
X114566258Y-62368946D01*
X114623748Y-62407360D01*
X114672640Y-62456252D01*
X114711054Y-62513742D01*
X114712097Y-62516261D01*
X114737511Y-62577617D01*
X114751000Y-62645430D01*
X114751000Y-62714570D01*
X114737511Y-62782383D01*
X114737510Y-62782385D01*
X114711054Y-62846258D01*
X114672640Y-62903748D01*
X114623748Y-62952640D01*
X114566258Y-62991054D01*
X114514182Y-63012624D01*
X114502383Y-63017511D01*
X114434570Y-63031000D01*
X114365430Y-63031000D01*
X114297617Y-63017511D01*
X114285818Y-63012624D01*
X114233742Y-62991054D01*
X114176252Y-62952640D01*
X114127360Y-62903748D01*
X114088946Y-62846258D01*
X114062490Y-62782385D01*
X114062489Y-62782383D01*
X114049000Y-62714570D01*
X114049000Y-62645430D01*
X114062489Y-62577617D01*
X114087903Y-62516261D01*
X114088946Y-62513742D01*
X114127360Y-62456252D01*
X114176252Y-62407360D01*
X114233742Y-62368946D01*
X114297615Y-62342490D01*
X114297614Y-62342490D01*
X114297617Y-62342489D01*
X114365430Y-62329000D01*
X114434570Y-62329000D01*
X114502383Y-62342489D01*
X114502383Y-62342489D01*
G37*
G36*
X109652383Y-62012489D02*
G01*
X109652386Y-62012490D01*
X109652385Y-62012490D01*
X109716258Y-62038946D01*
X109773748Y-62077360D01*
X109822640Y-62126252D01*
X109861054Y-62183742D01*
X109882624Y-62235818D01*
X109887511Y-62247617D01*
X109901000Y-62315430D01*
X109901000Y-62384570D01*
X109887511Y-62452383D01*
X109887510Y-62452385D01*
X109861054Y-62516258D01*
X109822640Y-62573748D01*
X109773748Y-62622640D01*
X109716258Y-62661054D01*
X109664182Y-62682624D01*
X109652383Y-62687511D01*
X109584570Y-62701000D01*
X109515430Y-62701000D01*
X109447617Y-62687511D01*
X109435818Y-62682624D01*
X109383742Y-62661054D01*
X109326252Y-62622640D01*
X109277360Y-62573748D01*
X109238946Y-62516258D01*
X109212490Y-62452385D01*
X109212489Y-62452383D01*
X109199000Y-62384570D01*
X109199000Y-62315430D01*
X109212489Y-62247617D01*
X109217376Y-62235818D01*
X109238946Y-62183742D01*
X109277360Y-62126252D01*
X109326252Y-62077360D01*
X109383742Y-62038946D01*
X109447615Y-62012490D01*
X109447614Y-62012490D01*
X109447617Y-62012489D01*
X109515430Y-61999000D01*
X109584570Y-61999000D01*
X109652383Y-62012489D01*
X109652383Y-62012489D01*
G37*
G36*
X103437153Y-61251738D02*
G01*
X103564729Y-61304582D01*
X103679539Y-61381295D01*
X103777185Y-61478941D01*
X103853898Y-61593751D01*
X103906742Y-61721327D01*
X103933680Y-61856756D01*
X103933680Y-61994844D01*
X103906742Y-62130273D01*
X103853898Y-62257849D01*
X103777185Y-62372659D01*
X103679539Y-62470305D01*
X103564729Y-62547018D01*
X103437153Y-62599862D01*
X103301724Y-62626800D01*
X103163636Y-62626800D01*
X103028207Y-62599862D01*
X102900631Y-62547018D01*
X102785821Y-62470305D01*
X102688175Y-62372659D01*
X102611462Y-62257849D01*
X102558618Y-62130273D01*
X102531680Y-61994844D01*
X102531680Y-61856756D01*
X102558618Y-61721327D01*
X102611462Y-61593751D01*
X102688175Y-61478941D01*
X102785821Y-61381295D01*
X102900631Y-61304582D01*
X103028207Y-61251738D01*
X103163636Y-61224800D01*
X103301724Y-61224800D01*
X103437153Y-61251738D01*
X103437153Y-61251738D01*
G37*
G36*
X121844583Y-60927289D02*
G01*
X121844586Y-60927290D01*
X121844585Y-60927290D01*
X121908458Y-60953746D01*
X121965948Y-60992160D01*
X122014840Y-61041052D01*
X122053254Y-61098542D01*
X122074824Y-61150618D01*
X122079711Y-61162417D01*
X122093200Y-61230230D01*
X122093200Y-61299370D01*
X122079711Y-61367183D01*
X122079710Y-61367185D01*
X122053254Y-61431058D01*
X122014840Y-61488548D01*
X121965948Y-61537440D01*
X121908458Y-61575854D01*
X121856382Y-61597424D01*
X121844583Y-61602311D01*
X121776770Y-61615800D01*
X121707630Y-61615800D01*
X121639817Y-61602311D01*
X121628018Y-61597424D01*
X121575942Y-61575854D01*
X121518452Y-61537440D01*
X121469560Y-61488548D01*
X121431146Y-61431058D01*
X121404690Y-61367185D01*
X121404689Y-61367183D01*
X121391200Y-61299370D01*
X121391200Y-61230230D01*
X121404689Y-61162417D01*
X121409576Y-61150618D01*
X121431146Y-61098542D01*
X121469560Y-61041052D01*
X121518452Y-60992160D01*
X121575942Y-60953746D01*
X121639815Y-60927290D01*
X121639814Y-60927290D01*
X121639817Y-60927289D01*
X121707630Y-60913800D01*
X121776770Y-60913800D01*
X121844583Y-60927289D01*
X121844583Y-60927289D01*
G37*
G36*
X99310665Y-57449660D02*
G01*
X99423428Y-57472090D01*
X99555421Y-57526763D01*
X99742088Y-57604083D01*
X100028876Y-57795709D01*
X100272771Y-58039604D01*
X100464397Y-58326392D01*
X100596390Y-58645053D01*
X100663680Y-58983340D01*
X100663680Y-59328260D01*
X100648979Y-59402164D01*
X100596390Y-59666548D01*
X100552455Y-59772617D01*
X100464397Y-59985208D01*
X100272771Y-60271996D01*
X100028876Y-60515891D01*
X99742088Y-60707517D01*
X99564683Y-60781000D01*
X99423428Y-60839510D01*
X99310665Y-60861940D01*
X99085140Y-60906800D01*
X98740220Y-60906800D01*
X98514695Y-60861940D01*
X98401932Y-60839510D01*
X98260677Y-60781000D01*
X98083272Y-60707517D01*
X97796484Y-60515891D01*
X97552589Y-60271996D01*
X97360963Y-59985208D01*
X97272905Y-59772617D01*
X97228970Y-59666548D01*
X97176381Y-59402164D01*
X97161680Y-59328260D01*
X97161680Y-58983340D01*
X97228970Y-58645053D01*
X97360963Y-58326392D01*
X97552589Y-58039604D01*
X97796484Y-57795709D01*
X98083272Y-57604083D01*
X98269939Y-57526763D01*
X98401932Y-57472090D01*
X98514695Y-57449660D01*
X98740220Y-57404800D01*
X99085140Y-57404800D01*
X99310665Y-57449660D01*
X99310665Y-57449660D01*
G37*
G36*
X128988344Y-58983342D02*
G01*
X129076627Y-58992037D01*
X129246466Y-59043557D01*
X129402991Y-59127222D01*
X129438729Y-59156552D01*
X129540186Y-59239814D01*
X129614602Y-59330492D01*
X129652778Y-59377009D01*
X129736443Y-59533534D01*
X129787963Y-59703373D01*
X129805359Y-59880000D01*
X129787963Y-60056627D01*
X129736443Y-60226466D01*
X129652778Y-60382991D01*
X129623448Y-60418729D01*
X129540186Y-60520186D01*
X129438729Y-60603448D01*
X129402991Y-60632778D01*
X129246466Y-60716443D01*
X129076627Y-60767963D01*
X129010442Y-60774482D01*
X128944260Y-60781000D01*
X128855740Y-60781000D01*
X128789558Y-60774482D01*
X128723373Y-60767963D01*
X128553534Y-60716443D01*
X128397009Y-60632778D01*
X128361271Y-60603448D01*
X128259814Y-60520186D01*
X128176552Y-60418729D01*
X128147222Y-60382991D01*
X128063557Y-60226466D01*
X128012037Y-60056627D01*
X127994641Y-59880000D01*
X128012037Y-59703373D01*
X128063557Y-59533534D01*
X128147222Y-59377009D01*
X128185398Y-59330492D01*
X128259814Y-59239814D01*
X128361271Y-59156552D01*
X128397009Y-59127222D01*
X128553534Y-59043557D01*
X128723373Y-58992037D01*
X128811656Y-58983342D01*
X128855740Y-58979000D01*
X128944260Y-58979000D01*
X128988344Y-58983342D01*
X128988344Y-58983342D01*
G37*
G36*
X110002383Y-58687489D02*
G01*
X110002386Y-58687490D01*
X110002385Y-58687490D01*
X110066258Y-58713946D01*
X110123748Y-58752360D01*
X110172640Y-58801252D01*
X110211054Y-58858742D01*
X110232624Y-58910818D01*
X110237511Y-58922617D01*
X110251000Y-58990430D01*
X110251000Y-59059570D01*
X110237511Y-59127383D01*
X110237510Y-59127385D01*
X110211054Y-59191258D01*
X110178610Y-59239814D01*
X110172639Y-59248749D01*
X110123749Y-59297639D01*
X110066261Y-59336052D01*
X110066259Y-59336053D01*
X110062920Y-59338284D01*
X110048359Y-59346068D01*
X110029417Y-59361613D01*
X110013872Y-59380555D01*
X110002321Y-59402166D01*
X109995208Y-59425615D01*
X109992806Y-59450001D01*
X109995208Y-59474387D01*
X110002321Y-59497836D01*
X110013873Y-59519446D01*
X110029418Y-59538388D01*
X110048360Y-59553933D01*
X110062921Y-59561717D01*
X110066258Y-59563947D01*
X110066261Y-59563948D01*
X110105263Y-59590009D01*
X110123748Y-59602360D01*
X110172640Y-59651252D01*
X110211054Y-59708742D01*
X110232624Y-59760818D01*
X110237511Y-59772617D01*
X110251000Y-59840430D01*
X110251000Y-59909570D01*
X110237511Y-59977383D01*
X110237510Y-59977385D01*
X110211054Y-60041258D01*
X110172640Y-60098748D01*
X110123748Y-60147640D01*
X110066258Y-60186054D01*
X110014182Y-60207624D01*
X110002383Y-60212511D01*
X109934570Y-60226000D01*
X109865430Y-60226000D01*
X109797617Y-60212511D01*
X109785818Y-60207624D01*
X109733742Y-60186054D01*
X109676252Y-60147640D01*
X109627360Y-60098748D01*
X109588946Y-60041258D01*
X109562490Y-59977385D01*
X109562489Y-59977383D01*
X109549000Y-59909570D01*
X109549000Y-59840430D01*
X109562489Y-59772617D01*
X109567376Y-59760818D01*
X109588946Y-59708742D01*
X109627360Y-59651252D01*
X109676252Y-59602360D01*
X109702808Y-59584616D01*
X109733739Y-59563948D01*
X109733741Y-59563947D01*
X109737080Y-59561716D01*
X109751641Y-59553932D01*
X109770583Y-59538387D01*
X109786128Y-59519445D01*
X109797679Y-59497834D01*
X109804792Y-59474385D01*
X109807194Y-59449999D01*
X109804792Y-59425613D01*
X109797679Y-59402164D01*
X109786127Y-59380554D01*
X109770582Y-59361612D01*
X109751640Y-59346067D01*
X109737079Y-59338283D01*
X109733742Y-59336053D01*
X109733739Y-59336052D01*
X109676251Y-59297639D01*
X109627361Y-59248749D01*
X109621391Y-59239814D01*
X109588946Y-59191258D01*
X109562490Y-59127385D01*
X109562489Y-59127383D01*
X109549000Y-59059570D01*
X109549000Y-58990430D01*
X109562489Y-58922617D01*
X109567376Y-58910818D01*
X109588946Y-58858742D01*
X109627360Y-58801252D01*
X109676252Y-58752360D01*
X109733742Y-58713946D01*
X109797615Y-58687490D01*
X109797614Y-58687490D01*
X109797617Y-58687489D01*
X109865430Y-58674000D01*
X109934570Y-58674000D01*
X110002383Y-58687489D01*
X110002383Y-58687489D01*
G37*
G36*
X121910623Y-58681929D02*
G01*
X121910626Y-58681930D01*
X121910625Y-58681930D01*
X121974498Y-58708386D01*
X122031988Y-58746800D01*
X122080880Y-58795692D01*
X122119294Y-58853182D01*
X122140864Y-58905258D01*
X122145751Y-58917057D01*
X122159240Y-58984870D01*
X122159240Y-59054010D01*
X122145751Y-59121823D01*
X122145750Y-59121825D01*
X122119294Y-59185698D01*
X122080880Y-59243188D01*
X122031988Y-59292080D01*
X121974498Y-59330494D01*
X121922422Y-59352064D01*
X121910623Y-59356951D01*
X121842810Y-59370440D01*
X121773670Y-59370440D01*
X121705857Y-59356951D01*
X121694058Y-59352064D01*
X121641982Y-59330494D01*
X121584492Y-59292080D01*
X121535600Y-59243188D01*
X121497186Y-59185698D01*
X121470730Y-59121825D01*
X121470729Y-59121823D01*
X121457240Y-59054010D01*
X121457240Y-58984870D01*
X121470729Y-58917057D01*
X121475616Y-58905258D01*
X121497186Y-58853182D01*
X121535600Y-58795692D01*
X121584492Y-58746800D01*
X121641982Y-58708386D01*
X121705855Y-58681930D01*
X121705854Y-58681930D01*
X121705857Y-58681929D01*
X121773670Y-58668440D01*
X121842810Y-58668440D01*
X121910623Y-58681929D01*
X121910623Y-58681929D01*
G37*
G36*
X102649244Y-56365189D02*
G01*
X102827440Y-56439000D01*
X102840515Y-56444416D01*
X102929027Y-56503558D01*
X103012653Y-56559435D01*
X103159045Y-56705827D01*
X103274065Y-56877967D01*
X103353291Y-57069236D01*
X103393680Y-57272284D01*
X103393680Y-57479316D01*
X103353291Y-57682364D01*
X103300582Y-57809615D01*
X103274064Y-57873635D01*
X103159045Y-58045773D01*
X103012653Y-58192165D01*
X102840515Y-58307184D01*
X102840514Y-58307185D01*
X102840513Y-58307185D01*
X102649244Y-58386411D01*
X102446196Y-58426800D01*
X102239164Y-58426800D01*
X102036116Y-58386411D01*
X101844847Y-58307185D01*
X101844846Y-58307185D01*
X101844845Y-58307184D01*
X101672707Y-58192165D01*
X101526315Y-58045773D01*
X101411296Y-57873635D01*
X101384778Y-57809615D01*
X101332069Y-57682364D01*
X101291680Y-57479316D01*
X101291680Y-57272284D01*
X101332069Y-57069236D01*
X101411295Y-56877967D01*
X101526315Y-56705827D01*
X101672707Y-56559435D01*
X101756333Y-56503558D01*
X101844845Y-56444416D01*
X101857920Y-56439000D01*
X102036116Y-56365189D01*
X102239164Y-56324800D01*
X102446196Y-56324800D01*
X102649244Y-56365189D01*
X102649244Y-56365189D01*
G37*
G36*
X114351583Y-57574489D02*
G01*
X114351586Y-57574490D01*
X114351585Y-57574490D01*
X114415458Y-57600946D01*
X114472948Y-57639360D01*
X114521840Y-57688252D01*
X114560254Y-57745742D01*
X114580950Y-57795709D01*
X114586711Y-57809617D01*
X114600200Y-57877430D01*
X114600200Y-57946570D01*
X114586711Y-58014383D01*
X114586710Y-58014385D01*
X114560254Y-58078258D01*
X114521840Y-58135748D01*
X114472948Y-58184640D01*
X114415458Y-58223054D01*
X114363382Y-58244624D01*
X114351583Y-58249511D01*
X114283770Y-58263000D01*
X114214630Y-58263000D01*
X114146817Y-58249511D01*
X114135018Y-58244624D01*
X114082942Y-58223054D01*
X114025452Y-58184640D01*
X113976560Y-58135748D01*
X113938146Y-58078258D01*
X113911690Y-58014385D01*
X113911689Y-58014383D01*
X113898200Y-57946570D01*
X113898200Y-57877430D01*
X113911689Y-57809617D01*
X113917450Y-57795709D01*
X113938146Y-57745742D01*
X113976560Y-57688252D01*
X114025452Y-57639360D01*
X114082942Y-57600946D01*
X114146815Y-57574490D01*
X114146814Y-57574490D01*
X114146817Y-57574489D01*
X114214630Y-57561000D01*
X114283770Y-57561000D01*
X114351583Y-57574489D01*
X114351583Y-57574489D01*
G37*
G36*
X129010442Y-56445518D02*
G01*
X129076627Y-56452037D01*
X129246466Y-56503557D01*
X129402991Y-56587222D01*
X129438729Y-56616552D01*
X129540186Y-56699814D01*
X129623448Y-56801271D01*
X129652778Y-56837009D01*
X129736443Y-56993534D01*
X129787963Y-57163373D01*
X129805359Y-57340000D01*
X129787963Y-57516627D01*
X129736443Y-57686466D01*
X129652778Y-57842991D01*
X129627629Y-57873635D01*
X129540186Y-57980186D01*
X129438729Y-58063448D01*
X129402991Y-58092778D01*
X129246466Y-58176443D01*
X129076627Y-58227963D01*
X129010443Y-58234481D01*
X128944260Y-58241000D01*
X128855740Y-58241000D01*
X128789557Y-58234481D01*
X128723373Y-58227963D01*
X128553534Y-58176443D01*
X128397009Y-58092778D01*
X128361271Y-58063448D01*
X128259814Y-57980186D01*
X128172371Y-57873635D01*
X128147222Y-57842991D01*
X128063557Y-57686466D01*
X128012037Y-57516627D01*
X127994641Y-57340000D01*
X128012037Y-57163373D01*
X128063557Y-56993534D01*
X128147222Y-56837009D01*
X128176552Y-56801271D01*
X128259814Y-56699814D01*
X128361271Y-56616552D01*
X128397009Y-56587222D01*
X128553534Y-56503557D01*
X128723373Y-56452037D01*
X128789558Y-56445518D01*
X128855740Y-56439000D01*
X128944260Y-56439000D01*
X129010442Y-56445518D01*
X129010442Y-56445518D01*
G37*
G36*
X113494072Y-53700918D02*
G01*
X113739939Y-53802759D01*
X113961212Y-53950610D01*
X114149390Y-54138788D01*
X114297241Y-54360061D01*
X114399082Y-54605928D01*
X114451000Y-54866938D01*
X114451000Y-55133062D01*
X114399082Y-55394072D01*
X114297241Y-55639939D01*
X114149390Y-55861212D01*
X113961212Y-56049390D01*
X113739939Y-56197241D01*
X113739938Y-56197242D01*
X113739937Y-56197242D01*
X113494072Y-56299082D01*
X113233063Y-56351000D01*
X112966937Y-56351000D01*
X112705928Y-56299082D01*
X112460063Y-56197242D01*
X112460062Y-56197242D01*
X112460061Y-56197241D01*
X112238788Y-56049390D01*
X112050610Y-55861212D01*
X111902759Y-55639939D01*
X111800918Y-55394072D01*
X111749000Y-55133062D01*
X111749000Y-54866938D01*
X111800918Y-54605928D01*
X111902759Y-54360061D01*
X112050610Y-54138788D01*
X112238788Y-53950610D01*
X112460061Y-53802759D01*
X112705928Y-53700918D01*
X112966937Y-53649000D01*
X113233063Y-53649000D01*
X113494072Y-53700918D01*
X113494072Y-53700918D01*
G37*
M02*
