G04 #@! TF.GenerationSoftware,KiCad,Pcbnew,(5.1.4-0)*
G04 #@! TF.CreationDate,2019-10-27T21:20:05-04:00*
G04 #@! TF.ProjectId,DifferentialSPIEncoder,44696666-6572-4656-9e74-69616c535049,rev?*
G04 #@! TF.SameCoordinates,Original*
G04 #@! TF.FileFunction,Paste,Top*
G04 #@! TF.FilePolarity,Positive*
%FSLAX46Y46*%
G04 Gerber Fmt 4.6, Leading zero omitted, Abs format (unit mm)*
G04 Created by KiCad (PCBNEW (5.1.4-0)) date 2019-10-27 21:20:05*
%MOMM*%
%LPD*%
G04 APERTURE LIST*
%ADD10R,1.550000X0.600000*%
%ADD11C,0.100000*%
%ADD12C,0.590000*%
%ADD13R,1.060000X0.650000*%
G04 APERTURE END LIST*
D10*
X117695960Y-68087240D03*
X117695960Y-66817240D03*
X117695960Y-65547240D03*
X117695960Y-64277240D03*
X112295960Y-64277240D03*
X112295960Y-65547240D03*
X112295960Y-66817240D03*
X112295960Y-68087240D03*
D11*
G36*
X110786958Y-58645710D02*
G01*
X110801276Y-58647834D01*
X110815317Y-58651351D01*
X110828946Y-58656228D01*
X110842031Y-58662417D01*
X110854447Y-58669858D01*
X110866073Y-58678481D01*
X110876798Y-58688202D01*
X110886519Y-58698927D01*
X110895142Y-58710553D01*
X110902583Y-58722969D01*
X110908772Y-58736054D01*
X110913649Y-58749683D01*
X110917166Y-58763724D01*
X110919290Y-58778042D01*
X110920000Y-58792500D01*
X110920000Y-59087500D01*
X110919290Y-59101958D01*
X110917166Y-59116276D01*
X110913649Y-59130317D01*
X110908772Y-59143946D01*
X110902583Y-59157031D01*
X110895142Y-59169447D01*
X110886519Y-59181073D01*
X110876798Y-59191798D01*
X110866073Y-59201519D01*
X110854447Y-59210142D01*
X110842031Y-59217583D01*
X110828946Y-59223772D01*
X110815317Y-59228649D01*
X110801276Y-59232166D01*
X110786958Y-59234290D01*
X110772500Y-59235000D01*
X110427500Y-59235000D01*
X110413042Y-59234290D01*
X110398724Y-59232166D01*
X110384683Y-59228649D01*
X110371054Y-59223772D01*
X110357969Y-59217583D01*
X110345553Y-59210142D01*
X110333927Y-59201519D01*
X110323202Y-59191798D01*
X110313481Y-59181073D01*
X110304858Y-59169447D01*
X110297417Y-59157031D01*
X110291228Y-59143946D01*
X110286351Y-59130317D01*
X110282834Y-59116276D01*
X110280710Y-59101958D01*
X110280000Y-59087500D01*
X110280000Y-58792500D01*
X110280710Y-58778042D01*
X110282834Y-58763724D01*
X110286351Y-58749683D01*
X110291228Y-58736054D01*
X110297417Y-58722969D01*
X110304858Y-58710553D01*
X110313481Y-58698927D01*
X110323202Y-58688202D01*
X110333927Y-58678481D01*
X110345553Y-58669858D01*
X110357969Y-58662417D01*
X110371054Y-58656228D01*
X110384683Y-58651351D01*
X110398724Y-58647834D01*
X110413042Y-58645710D01*
X110427500Y-58645000D01*
X110772500Y-58645000D01*
X110786958Y-58645710D01*
X110786958Y-58645710D01*
G37*
D12*
X110600000Y-58940000D03*
D11*
G36*
X110786958Y-59615710D02*
G01*
X110801276Y-59617834D01*
X110815317Y-59621351D01*
X110828946Y-59626228D01*
X110842031Y-59632417D01*
X110854447Y-59639858D01*
X110866073Y-59648481D01*
X110876798Y-59658202D01*
X110886519Y-59668927D01*
X110895142Y-59680553D01*
X110902583Y-59692969D01*
X110908772Y-59706054D01*
X110913649Y-59719683D01*
X110917166Y-59733724D01*
X110919290Y-59748042D01*
X110920000Y-59762500D01*
X110920000Y-60057500D01*
X110919290Y-60071958D01*
X110917166Y-60086276D01*
X110913649Y-60100317D01*
X110908772Y-60113946D01*
X110902583Y-60127031D01*
X110895142Y-60139447D01*
X110886519Y-60151073D01*
X110876798Y-60161798D01*
X110866073Y-60171519D01*
X110854447Y-60180142D01*
X110842031Y-60187583D01*
X110828946Y-60193772D01*
X110815317Y-60198649D01*
X110801276Y-60202166D01*
X110786958Y-60204290D01*
X110772500Y-60205000D01*
X110427500Y-60205000D01*
X110413042Y-60204290D01*
X110398724Y-60202166D01*
X110384683Y-60198649D01*
X110371054Y-60193772D01*
X110357969Y-60187583D01*
X110345553Y-60180142D01*
X110333927Y-60171519D01*
X110323202Y-60161798D01*
X110313481Y-60151073D01*
X110304858Y-60139447D01*
X110297417Y-60127031D01*
X110291228Y-60113946D01*
X110286351Y-60100317D01*
X110282834Y-60086276D01*
X110280710Y-60071958D01*
X110280000Y-60057500D01*
X110280000Y-59762500D01*
X110280710Y-59748042D01*
X110282834Y-59733724D01*
X110286351Y-59719683D01*
X110291228Y-59706054D01*
X110297417Y-59692969D01*
X110304858Y-59680553D01*
X110313481Y-59668927D01*
X110323202Y-59658202D01*
X110333927Y-59648481D01*
X110345553Y-59639858D01*
X110357969Y-59632417D01*
X110371054Y-59626228D01*
X110384683Y-59621351D01*
X110398724Y-59617834D01*
X110413042Y-59615710D01*
X110427500Y-59615000D01*
X110772500Y-59615000D01*
X110786958Y-59615710D01*
X110786958Y-59615710D01*
G37*
D12*
X110600000Y-59910000D03*
D11*
G36*
X110916958Y-65450710D02*
G01*
X110931276Y-65452834D01*
X110945317Y-65456351D01*
X110958946Y-65461228D01*
X110972031Y-65467417D01*
X110984447Y-65474858D01*
X110996073Y-65483481D01*
X111006798Y-65493202D01*
X111016519Y-65503927D01*
X111025142Y-65515553D01*
X111032583Y-65527969D01*
X111038772Y-65541054D01*
X111043649Y-65554683D01*
X111047166Y-65568724D01*
X111049290Y-65583042D01*
X111050000Y-65597500D01*
X111050000Y-65892500D01*
X111049290Y-65906958D01*
X111047166Y-65921276D01*
X111043649Y-65935317D01*
X111038772Y-65948946D01*
X111032583Y-65962031D01*
X111025142Y-65974447D01*
X111016519Y-65986073D01*
X111006798Y-65996798D01*
X110996073Y-66006519D01*
X110984447Y-66015142D01*
X110972031Y-66022583D01*
X110958946Y-66028772D01*
X110945317Y-66033649D01*
X110931276Y-66037166D01*
X110916958Y-66039290D01*
X110902500Y-66040000D01*
X110557500Y-66040000D01*
X110543042Y-66039290D01*
X110528724Y-66037166D01*
X110514683Y-66033649D01*
X110501054Y-66028772D01*
X110487969Y-66022583D01*
X110475553Y-66015142D01*
X110463927Y-66006519D01*
X110453202Y-65996798D01*
X110443481Y-65986073D01*
X110434858Y-65974447D01*
X110427417Y-65962031D01*
X110421228Y-65948946D01*
X110416351Y-65935317D01*
X110412834Y-65921276D01*
X110410710Y-65906958D01*
X110410000Y-65892500D01*
X110410000Y-65597500D01*
X110410710Y-65583042D01*
X110412834Y-65568724D01*
X110416351Y-65554683D01*
X110421228Y-65541054D01*
X110427417Y-65527969D01*
X110434858Y-65515553D01*
X110443481Y-65503927D01*
X110453202Y-65493202D01*
X110463927Y-65483481D01*
X110475553Y-65474858D01*
X110487969Y-65467417D01*
X110501054Y-65461228D01*
X110514683Y-65456351D01*
X110528724Y-65452834D01*
X110543042Y-65450710D01*
X110557500Y-65450000D01*
X110902500Y-65450000D01*
X110916958Y-65450710D01*
X110916958Y-65450710D01*
G37*
D12*
X110730000Y-65745000D03*
D11*
G36*
X110916958Y-66420710D02*
G01*
X110931276Y-66422834D01*
X110945317Y-66426351D01*
X110958946Y-66431228D01*
X110972031Y-66437417D01*
X110984447Y-66444858D01*
X110996073Y-66453481D01*
X111006798Y-66463202D01*
X111016519Y-66473927D01*
X111025142Y-66485553D01*
X111032583Y-66497969D01*
X111038772Y-66511054D01*
X111043649Y-66524683D01*
X111047166Y-66538724D01*
X111049290Y-66553042D01*
X111050000Y-66567500D01*
X111050000Y-66862500D01*
X111049290Y-66876958D01*
X111047166Y-66891276D01*
X111043649Y-66905317D01*
X111038772Y-66918946D01*
X111032583Y-66932031D01*
X111025142Y-66944447D01*
X111016519Y-66956073D01*
X111006798Y-66966798D01*
X110996073Y-66976519D01*
X110984447Y-66985142D01*
X110972031Y-66992583D01*
X110958946Y-66998772D01*
X110945317Y-67003649D01*
X110931276Y-67007166D01*
X110916958Y-67009290D01*
X110902500Y-67010000D01*
X110557500Y-67010000D01*
X110543042Y-67009290D01*
X110528724Y-67007166D01*
X110514683Y-67003649D01*
X110501054Y-66998772D01*
X110487969Y-66992583D01*
X110475553Y-66985142D01*
X110463927Y-66976519D01*
X110453202Y-66966798D01*
X110443481Y-66956073D01*
X110434858Y-66944447D01*
X110427417Y-66932031D01*
X110421228Y-66918946D01*
X110416351Y-66905317D01*
X110412834Y-66891276D01*
X110410710Y-66876958D01*
X110410000Y-66862500D01*
X110410000Y-66567500D01*
X110410710Y-66553042D01*
X110412834Y-66538724D01*
X110416351Y-66524683D01*
X110421228Y-66511054D01*
X110427417Y-66497969D01*
X110434858Y-66485553D01*
X110443481Y-66473927D01*
X110453202Y-66463202D01*
X110463927Y-66453481D01*
X110475553Y-66444858D01*
X110487969Y-66437417D01*
X110501054Y-66431228D01*
X110514683Y-66426351D01*
X110528724Y-66422834D01*
X110543042Y-66420710D01*
X110557500Y-66420000D01*
X110902500Y-66420000D01*
X110916958Y-66420710D01*
X110916958Y-66420710D01*
G37*
D12*
X110730000Y-66715000D03*
D11*
G36*
X119727518Y-71059790D02*
G01*
X119741836Y-71061914D01*
X119755877Y-71065431D01*
X119769506Y-71070308D01*
X119782591Y-71076497D01*
X119795007Y-71083938D01*
X119806633Y-71092561D01*
X119817358Y-71102282D01*
X119827079Y-71113007D01*
X119835702Y-71124633D01*
X119843143Y-71137049D01*
X119849332Y-71150134D01*
X119854209Y-71163763D01*
X119857726Y-71177804D01*
X119859850Y-71192122D01*
X119860560Y-71206580D01*
X119860560Y-71551580D01*
X119859850Y-71566038D01*
X119857726Y-71580356D01*
X119854209Y-71594397D01*
X119849332Y-71608026D01*
X119843143Y-71621111D01*
X119835702Y-71633527D01*
X119827079Y-71645153D01*
X119817358Y-71655878D01*
X119806633Y-71665599D01*
X119795007Y-71674222D01*
X119782591Y-71681663D01*
X119769506Y-71687852D01*
X119755877Y-71692729D01*
X119741836Y-71696246D01*
X119727518Y-71698370D01*
X119713060Y-71699080D01*
X119418060Y-71699080D01*
X119403602Y-71698370D01*
X119389284Y-71696246D01*
X119375243Y-71692729D01*
X119361614Y-71687852D01*
X119348529Y-71681663D01*
X119336113Y-71674222D01*
X119324487Y-71665599D01*
X119313762Y-71655878D01*
X119304041Y-71645153D01*
X119295418Y-71633527D01*
X119287977Y-71621111D01*
X119281788Y-71608026D01*
X119276911Y-71594397D01*
X119273394Y-71580356D01*
X119271270Y-71566038D01*
X119270560Y-71551580D01*
X119270560Y-71206580D01*
X119271270Y-71192122D01*
X119273394Y-71177804D01*
X119276911Y-71163763D01*
X119281788Y-71150134D01*
X119287977Y-71137049D01*
X119295418Y-71124633D01*
X119304041Y-71113007D01*
X119313762Y-71102282D01*
X119324487Y-71092561D01*
X119336113Y-71083938D01*
X119348529Y-71076497D01*
X119361614Y-71070308D01*
X119375243Y-71065431D01*
X119389284Y-71061914D01*
X119403602Y-71059790D01*
X119418060Y-71059080D01*
X119713060Y-71059080D01*
X119727518Y-71059790D01*
X119727518Y-71059790D01*
G37*
D12*
X119565560Y-71379080D03*
D11*
G36*
X120697518Y-71059790D02*
G01*
X120711836Y-71061914D01*
X120725877Y-71065431D01*
X120739506Y-71070308D01*
X120752591Y-71076497D01*
X120765007Y-71083938D01*
X120776633Y-71092561D01*
X120787358Y-71102282D01*
X120797079Y-71113007D01*
X120805702Y-71124633D01*
X120813143Y-71137049D01*
X120819332Y-71150134D01*
X120824209Y-71163763D01*
X120827726Y-71177804D01*
X120829850Y-71192122D01*
X120830560Y-71206580D01*
X120830560Y-71551580D01*
X120829850Y-71566038D01*
X120827726Y-71580356D01*
X120824209Y-71594397D01*
X120819332Y-71608026D01*
X120813143Y-71621111D01*
X120805702Y-71633527D01*
X120797079Y-71645153D01*
X120787358Y-71655878D01*
X120776633Y-71665599D01*
X120765007Y-71674222D01*
X120752591Y-71681663D01*
X120739506Y-71687852D01*
X120725877Y-71692729D01*
X120711836Y-71696246D01*
X120697518Y-71698370D01*
X120683060Y-71699080D01*
X120388060Y-71699080D01*
X120373602Y-71698370D01*
X120359284Y-71696246D01*
X120345243Y-71692729D01*
X120331614Y-71687852D01*
X120318529Y-71681663D01*
X120306113Y-71674222D01*
X120294487Y-71665599D01*
X120283762Y-71655878D01*
X120274041Y-71645153D01*
X120265418Y-71633527D01*
X120257977Y-71621111D01*
X120251788Y-71608026D01*
X120246911Y-71594397D01*
X120243394Y-71580356D01*
X120241270Y-71566038D01*
X120240560Y-71551580D01*
X120240560Y-71206580D01*
X120241270Y-71192122D01*
X120243394Y-71177804D01*
X120246911Y-71163763D01*
X120251788Y-71150134D01*
X120257977Y-71137049D01*
X120265418Y-71124633D01*
X120274041Y-71113007D01*
X120283762Y-71102282D01*
X120294487Y-71092561D01*
X120306113Y-71083938D01*
X120318529Y-71076497D01*
X120331614Y-71070308D01*
X120345243Y-71065431D01*
X120359284Y-71061914D01*
X120373602Y-71059790D01*
X120388060Y-71059080D01*
X120683060Y-71059080D01*
X120697518Y-71059790D01*
X120697518Y-71059790D01*
G37*
D12*
X120535560Y-71379080D03*
D11*
G36*
X120191798Y-63602230D02*
G01*
X120206116Y-63604354D01*
X120220157Y-63607871D01*
X120233786Y-63612748D01*
X120246871Y-63618937D01*
X120259287Y-63626378D01*
X120270913Y-63635001D01*
X120281638Y-63644722D01*
X120291359Y-63655447D01*
X120299982Y-63667073D01*
X120307423Y-63679489D01*
X120313612Y-63692574D01*
X120318489Y-63706203D01*
X120322006Y-63720244D01*
X120324130Y-63734562D01*
X120324840Y-63749020D01*
X120324840Y-64044020D01*
X120324130Y-64058478D01*
X120322006Y-64072796D01*
X120318489Y-64086837D01*
X120313612Y-64100466D01*
X120307423Y-64113551D01*
X120299982Y-64125967D01*
X120291359Y-64137593D01*
X120281638Y-64148318D01*
X120270913Y-64158039D01*
X120259287Y-64166662D01*
X120246871Y-64174103D01*
X120233786Y-64180292D01*
X120220157Y-64185169D01*
X120206116Y-64188686D01*
X120191798Y-64190810D01*
X120177340Y-64191520D01*
X119832340Y-64191520D01*
X119817882Y-64190810D01*
X119803564Y-64188686D01*
X119789523Y-64185169D01*
X119775894Y-64180292D01*
X119762809Y-64174103D01*
X119750393Y-64166662D01*
X119738767Y-64158039D01*
X119728042Y-64148318D01*
X119718321Y-64137593D01*
X119709698Y-64125967D01*
X119702257Y-64113551D01*
X119696068Y-64100466D01*
X119691191Y-64086837D01*
X119687674Y-64072796D01*
X119685550Y-64058478D01*
X119684840Y-64044020D01*
X119684840Y-63749020D01*
X119685550Y-63734562D01*
X119687674Y-63720244D01*
X119691191Y-63706203D01*
X119696068Y-63692574D01*
X119702257Y-63679489D01*
X119709698Y-63667073D01*
X119718321Y-63655447D01*
X119728042Y-63644722D01*
X119738767Y-63635001D01*
X119750393Y-63626378D01*
X119762809Y-63618937D01*
X119775894Y-63612748D01*
X119789523Y-63607871D01*
X119803564Y-63604354D01*
X119817882Y-63602230D01*
X119832340Y-63601520D01*
X120177340Y-63601520D01*
X120191798Y-63602230D01*
X120191798Y-63602230D01*
G37*
D12*
X120004840Y-63896520D03*
D11*
G36*
X120191798Y-64572230D02*
G01*
X120206116Y-64574354D01*
X120220157Y-64577871D01*
X120233786Y-64582748D01*
X120246871Y-64588937D01*
X120259287Y-64596378D01*
X120270913Y-64605001D01*
X120281638Y-64614722D01*
X120291359Y-64625447D01*
X120299982Y-64637073D01*
X120307423Y-64649489D01*
X120313612Y-64662574D01*
X120318489Y-64676203D01*
X120322006Y-64690244D01*
X120324130Y-64704562D01*
X120324840Y-64719020D01*
X120324840Y-65014020D01*
X120324130Y-65028478D01*
X120322006Y-65042796D01*
X120318489Y-65056837D01*
X120313612Y-65070466D01*
X120307423Y-65083551D01*
X120299982Y-65095967D01*
X120291359Y-65107593D01*
X120281638Y-65118318D01*
X120270913Y-65128039D01*
X120259287Y-65136662D01*
X120246871Y-65144103D01*
X120233786Y-65150292D01*
X120220157Y-65155169D01*
X120206116Y-65158686D01*
X120191798Y-65160810D01*
X120177340Y-65161520D01*
X119832340Y-65161520D01*
X119817882Y-65160810D01*
X119803564Y-65158686D01*
X119789523Y-65155169D01*
X119775894Y-65150292D01*
X119762809Y-65144103D01*
X119750393Y-65136662D01*
X119738767Y-65128039D01*
X119728042Y-65118318D01*
X119718321Y-65107593D01*
X119709698Y-65095967D01*
X119702257Y-65083551D01*
X119696068Y-65070466D01*
X119691191Y-65056837D01*
X119687674Y-65042796D01*
X119685550Y-65028478D01*
X119684840Y-65014020D01*
X119684840Y-64719020D01*
X119685550Y-64704562D01*
X119687674Y-64690244D01*
X119691191Y-64676203D01*
X119696068Y-64662574D01*
X119702257Y-64649489D01*
X119709698Y-64637073D01*
X119718321Y-64625447D01*
X119728042Y-64614722D01*
X119738767Y-64605001D01*
X119750393Y-64596378D01*
X119762809Y-64588937D01*
X119775894Y-64582748D01*
X119789523Y-64577871D01*
X119803564Y-64574354D01*
X119817882Y-64572230D01*
X119832340Y-64571520D01*
X120177340Y-64571520D01*
X120191798Y-64572230D01*
X120191798Y-64572230D01*
G37*
D12*
X120004840Y-64866520D03*
D11*
G36*
X119684478Y-66106790D02*
G01*
X119698796Y-66108914D01*
X119712837Y-66112431D01*
X119726466Y-66117308D01*
X119739551Y-66123497D01*
X119751967Y-66130938D01*
X119763593Y-66139561D01*
X119774318Y-66149282D01*
X119784039Y-66160007D01*
X119792662Y-66171633D01*
X119800103Y-66184049D01*
X119806292Y-66197134D01*
X119811169Y-66210763D01*
X119814686Y-66224804D01*
X119816810Y-66239122D01*
X119817520Y-66253580D01*
X119817520Y-66598580D01*
X119816810Y-66613038D01*
X119814686Y-66627356D01*
X119811169Y-66641397D01*
X119806292Y-66655026D01*
X119800103Y-66668111D01*
X119792662Y-66680527D01*
X119784039Y-66692153D01*
X119774318Y-66702878D01*
X119763593Y-66712599D01*
X119751967Y-66721222D01*
X119739551Y-66728663D01*
X119726466Y-66734852D01*
X119712837Y-66739729D01*
X119698796Y-66743246D01*
X119684478Y-66745370D01*
X119670020Y-66746080D01*
X119375020Y-66746080D01*
X119360562Y-66745370D01*
X119346244Y-66743246D01*
X119332203Y-66739729D01*
X119318574Y-66734852D01*
X119305489Y-66728663D01*
X119293073Y-66721222D01*
X119281447Y-66712599D01*
X119270722Y-66702878D01*
X119261001Y-66692153D01*
X119252378Y-66680527D01*
X119244937Y-66668111D01*
X119238748Y-66655026D01*
X119233871Y-66641397D01*
X119230354Y-66627356D01*
X119228230Y-66613038D01*
X119227520Y-66598580D01*
X119227520Y-66253580D01*
X119228230Y-66239122D01*
X119230354Y-66224804D01*
X119233871Y-66210763D01*
X119238748Y-66197134D01*
X119244937Y-66184049D01*
X119252378Y-66171633D01*
X119261001Y-66160007D01*
X119270722Y-66149282D01*
X119281447Y-66139561D01*
X119293073Y-66130938D01*
X119305489Y-66123497D01*
X119318574Y-66117308D01*
X119332203Y-66112431D01*
X119346244Y-66108914D01*
X119360562Y-66106790D01*
X119375020Y-66106080D01*
X119670020Y-66106080D01*
X119684478Y-66106790D01*
X119684478Y-66106790D01*
G37*
D12*
X119522520Y-66426080D03*
D11*
G36*
X120654478Y-66106790D02*
G01*
X120668796Y-66108914D01*
X120682837Y-66112431D01*
X120696466Y-66117308D01*
X120709551Y-66123497D01*
X120721967Y-66130938D01*
X120733593Y-66139561D01*
X120744318Y-66149282D01*
X120754039Y-66160007D01*
X120762662Y-66171633D01*
X120770103Y-66184049D01*
X120776292Y-66197134D01*
X120781169Y-66210763D01*
X120784686Y-66224804D01*
X120786810Y-66239122D01*
X120787520Y-66253580D01*
X120787520Y-66598580D01*
X120786810Y-66613038D01*
X120784686Y-66627356D01*
X120781169Y-66641397D01*
X120776292Y-66655026D01*
X120770103Y-66668111D01*
X120762662Y-66680527D01*
X120754039Y-66692153D01*
X120744318Y-66702878D01*
X120733593Y-66712599D01*
X120721967Y-66721222D01*
X120709551Y-66728663D01*
X120696466Y-66734852D01*
X120682837Y-66739729D01*
X120668796Y-66743246D01*
X120654478Y-66745370D01*
X120640020Y-66746080D01*
X120345020Y-66746080D01*
X120330562Y-66745370D01*
X120316244Y-66743246D01*
X120302203Y-66739729D01*
X120288574Y-66734852D01*
X120275489Y-66728663D01*
X120263073Y-66721222D01*
X120251447Y-66712599D01*
X120240722Y-66702878D01*
X120231001Y-66692153D01*
X120222378Y-66680527D01*
X120214937Y-66668111D01*
X120208748Y-66655026D01*
X120203871Y-66641397D01*
X120200354Y-66627356D01*
X120198230Y-66613038D01*
X120197520Y-66598580D01*
X120197520Y-66253580D01*
X120198230Y-66239122D01*
X120200354Y-66224804D01*
X120203871Y-66210763D01*
X120208748Y-66197134D01*
X120214937Y-66184049D01*
X120222378Y-66171633D01*
X120231001Y-66160007D01*
X120240722Y-66149282D01*
X120251447Y-66139561D01*
X120263073Y-66130938D01*
X120275489Y-66123497D01*
X120288574Y-66117308D01*
X120302203Y-66112431D01*
X120316244Y-66108914D01*
X120330562Y-66106790D01*
X120345020Y-66106080D01*
X120640020Y-66106080D01*
X120654478Y-66106790D01*
X120654478Y-66106790D01*
G37*
D12*
X120492520Y-66426080D03*
D11*
G36*
X119658398Y-58707510D02*
G01*
X119672716Y-58709634D01*
X119686757Y-58713151D01*
X119700386Y-58718028D01*
X119713471Y-58724217D01*
X119725887Y-58731658D01*
X119737513Y-58740281D01*
X119748238Y-58750002D01*
X119757959Y-58760727D01*
X119766582Y-58772353D01*
X119774023Y-58784769D01*
X119780212Y-58797854D01*
X119785089Y-58811483D01*
X119788606Y-58825524D01*
X119790730Y-58839842D01*
X119791440Y-58854300D01*
X119791440Y-59149300D01*
X119790730Y-59163758D01*
X119788606Y-59178076D01*
X119785089Y-59192117D01*
X119780212Y-59205746D01*
X119774023Y-59218831D01*
X119766582Y-59231247D01*
X119757959Y-59242873D01*
X119748238Y-59253598D01*
X119737513Y-59263319D01*
X119725887Y-59271942D01*
X119713471Y-59279383D01*
X119700386Y-59285572D01*
X119686757Y-59290449D01*
X119672716Y-59293966D01*
X119658398Y-59296090D01*
X119643940Y-59296800D01*
X119298940Y-59296800D01*
X119284482Y-59296090D01*
X119270164Y-59293966D01*
X119256123Y-59290449D01*
X119242494Y-59285572D01*
X119229409Y-59279383D01*
X119216993Y-59271942D01*
X119205367Y-59263319D01*
X119194642Y-59253598D01*
X119184921Y-59242873D01*
X119176298Y-59231247D01*
X119168857Y-59218831D01*
X119162668Y-59205746D01*
X119157791Y-59192117D01*
X119154274Y-59178076D01*
X119152150Y-59163758D01*
X119151440Y-59149300D01*
X119151440Y-58854300D01*
X119152150Y-58839842D01*
X119154274Y-58825524D01*
X119157791Y-58811483D01*
X119162668Y-58797854D01*
X119168857Y-58784769D01*
X119176298Y-58772353D01*
X119184921Y-58760727D01*
X119194642Y-58750002D01*
X119205367Y-58740281D01*
X119216993Y-58731658D01*
X119229409Y-58724217D01*
X119242494Y-58718028D01*
X119256123Y-58713151D01*
X119270164Y-58709634D01*
X119284482Y-58707510D01*
X119298940Y-58706800D01*
X119643940Y-58706800D01*
X119658398Y-58707510D01*
X119658398Y-58707510D01*
G37*
D12*
X119471440Y-59001800D03*
D11*
G36*
X119658398Y-59677510D02*
G01*
X119672716Y-59679634D01*
X119686757Y-59683151D01*
X119700386Y-59688028D01*
X119713471Y-59694217D01*
X119725887Y-59701658D01*
X119737513Y-59710281D01*
X119748238Y-59720002D01*
X119757959Y-59730727D01*
X119766582Y-59742353D01*
X119774023Y-59754769D01*
X119780212Y-59767854D01*
X119785089Y-59781483D01*
X119788606Y-59795524D01*
X119790730Y-59809842D01*
X119791440Y-59824300D01*
X119791440Y-60119300D01*
X119790730Y-60133758D01*
X119788606Y-60148076D01*
X119785089Y-60162117D01*
X119780212Y-60175746D01*
X119774023Y-60188831D01*
X119766582Y-60201247D01*
X119757959Y-60212873D01*
X119748238Y-60223598D01*
X119737513Y-60233319D01*
X119725887Y-60241942D01*
X119713471Y-60249383D01*
X119700386Y-60255572D01*
X119686757Y-60260449D01*
X119672716Y-60263966D01*
X119658398Y-60266090D01*
X119643940Y-60266800D01*
X119298940Y-60266800D01*
X119284482Y-60266090D01*
X119270164Y-60263966D01*
X119256123Y-60260449D01*
X119242494Y-60255572D01*
X119229409Y-60249383D01*
X119216993Y-60241942D01*
X119205367Y-60233319D01*
X119194642Y-60223598D01*
X119184921Y-60212873D01*
X119176298Y-60201247D01*
X119168857Y-60188831D01*
X119162668Y-60175746D01*
X119157791Y-60162117D01*
X119154274Y-60148076D01*
X119152150Y-60133758D01*
X119151440Y-60119300D01*
X119151440Y-59824300D01*
X119152150Y-59809842D01*
X119154274Y-59795524D01*
X119157791Y-59781483D01*
X119162668Y-59767854D01*
X119168857Y-59754769D01*
X119176298Y-59742353D01*
X119184921Y-59730727D01*
X119194642Y-59720002D01*
X119205367Y-59710281D01*
X119216993Y-59701658D01*
X119229409Y-59694217D01*
X119242494Y-59688028D01*
X119256123Y-59683151D01*
X119270164Y-59679634D01*
X119284482Y-59677510D01*
X119298940Y-59676800D01*
X119643940Y-59676800D01*
X119658398Y-59677510D01*
X119658398Y-59677510D01*
G37*
D12*
X119471440Y-59971800D03*
D11*
G36*
X119567358Y-68738230D02*
G01*
X119581676Y-68740354D01*
X119595717Y-68743871D01*
X119609346Y-68748748D01*
X119622431Y-68754937D01*
X119634847Y-68762378D01*
X119646473Y-68771001D01*
X119657198Y-68780722D01*
X119666919Y-68791447D01*
X119675542Y-68803073D01*
X119682983Y-68815489D01*
X119689172Y-68828574D01*
X119694049Y-68842203D01*
X119697566Y-68856244D01*
X119699690Y-68870562D01*
X119700400Y-68885020D01*
X119700400Y-69230020D01*
X119699690Y-69244478D01*
X119697566Y-69258796D01*
X119694049Y-69272837D01*
X119689172Y-69286466D01*
X119682983Y-69299551D01*
X119675542Y-69311967D01*
X119666919Y-69323593D01*
X119657198Y-69334318D01*
X119646473Y-69344039D01*
X119634847Y-69352662D01*
X119622431Y-69360103D01*
X119609346Y-69366292D01*
X119595717Y-69371169D01*
X119581676Y-69374686D01*
X119567358Y-69376810D01*
X119552900Y-69377520D01*
X119257900Y-69377520D01*
X119243442Y-69376810D01*
X119229124Y-69374686D01*
X119215083Y-69371169D01*
X119201454Y-69366292D01*
X119188369Y-69360103D01*
X119175953Y-69352662D01*
X119164327Y-69344039D01*
X119153602Y-69334318D01*
X119143881Y-69323593D01*
X119135258Y-69311967D01*
X119127817Y-69299551D01*
X119121628Y-69286466D01*
X119116751Y-69272837D01*
X119113234Y-69258796D01*
X119111110Y-69244478D01*
X119110400Y-69230020D01*
X119110400Y-68885020D01*
X119111110Y-68870562D01*
X119113234Y-68856244D01*
X119116751Y-68842203D01*
X119121628Y-68828574D01*
X119127817Y-68815489D01*
X119135258Y-68803073D01*
X119143881Y-68791447D01*
X119153602Y-68780722D01*
X119164327Y-68771001D01*
X119175953Y-68762378D01*
X119188369Y-68754937D01*
X119201454Y-68748748D01*
X119215083Y-68743871D01*
X119229124Y-68740354D01*
X119243442Y-68738230D01*
X119257900Y-68737520D01*
X119552900Y-68737520D01*
X119567358Y-68738230D01*
X119567358Y-68738230D01*
G37*
D12*
X119405400Y-69057520D03*
D11*
G36*
X120537358Y-68738230D02*
G01*
X120551676Y-68740354D01*
X120565717Y-68743871D01*
X120579346Y-68748748D01*
X120592431Y-68754937D01*
X120604847Y-68762378D01*
X120616473Y-68771001D01*
X120627198Y-68780722D01*
X120636919Y-68791447D01*
X120645542Y-68803073D01*
X120652983Y-68815489D01*
X120659172Y-68828574D01*
X120664049Y-68842203D01*
X120667566Y-68856244D01*
X120669690Y-68870562D01*
X120670400Y-68885020D01*
X120670400Y-69230020D01*
X120669690Y-69244478D01*
X120667566Y-69258796D01*
X120664049Y-69272837D01*
X120659172Y-69286466D01*
X120652983Y-69299551D01*
X120645542Y-69311967D01*
X120636919Y-69323593D01*
X120627198Y-69334318D01*
X120616473Y-69344039D01*
X120604847Y-69352662D01*
X120592431Y-69360103D01*
X120579346Y-69366292D01*
X120565717Y-69371169D01*
X120551676Y-69374686D01*
X120537358Y-69376810D01*
X120522900Y-69377520D01*
X120227900Y-69377520D01*
X120213442Y-69376810D01*
X120199124Y-69374686D01*
X120185083Y-69371169D01*
X120171454Y-69366292D01*
X120158369Y-69360103D01*
X120145953Y-69352662D01*
X120134327Y-69344039D01*
X120123602Y-69334318D01*
X120113881Y-69323593D01*
X120105258Y-69311967D01*
X120097817Y-69299551D01*
X120091628Y-69286466D01*
X120086751Y-69272837D01*
X120083234Y-69258796D01*
X120081110Y-69244478D01*
X120080400Y-69230020D01*
X120080400Y-68885020D01*
X120081110Y-68870562D01*
X120083234Y-68856244D01*
X120086751Y-68842203D01*
X120091628Y-68828574D01*
X120097817Y-68815489D01*
X120105258Y-68803073D01*
X120113881Y-68791447D01*
X120123602Y-68780722D01*
X120134327Y-68771001D01*
X120145953Y-68762378D01*
X120158369Y-68754937D01*
X120171454Y-68748748D01*
X120185083Y-68743871D01*
X120199124Y-68740354D01*
X120213442Y-68738230D01*
X120227900Y-68737520D01*
X120522900Y-68737520D01*
X120537358Y-68738230D01*
X120537358Y-68738230D01*
G37*
D12*
X120375400Y-69057520D03*
D11*
G36*
X120821838Y-61036950D02*
G01*
X120836156Y-61039074D01*
X120850197Y-61042591D01*
X120863826Y-61047468D01*
X120876911Y-61053657D01*
X120889327Y-61061098D01*
X120900953Y-61069721D01*
X120911678Y-61079442D01*
X120921399Y-61090167D01*
X120930022Y-61101793D01*
X120937463Y-61114209D01*
X120943652Y-61127294D01*
X120948529Y-61140923D01*
X120952046Y-61154964D01*
X120954170Y-61169282D01*
X120954880Y-61183740D01*
X120954880Y-61528740D01*
X120954170Y-61543198D01*
X120952046Y-61557516D01*
X120948529Y-61571557D01*
X120943652Y-61585186D01*
X120937463Y-61598271D01*
X120930022Y-61610687D01*
X120921399Y-61622313D01*
X120911678Y-61633038D01*
X120900953Y-61642759D01*
X120889327Y-61651382D01*
X120876911Y-61658823D01*
X120863826Y-61665012D01*
X120850197Y-61669889D01*
X120836156Y-61673406D01*
X120821838Y-61675530D01*
X120807380Y-61676240D01*
X120512380Y-61676240D01*
X120497922Y-61675530D01*
X120483604Y-61673406D01*
X120469563Y-61669889D01*
X120455934Y-61665012D01*
X120442849Y-61658823D01*
X120430433Y-61651382D01*
X120418807Y-61642759D01*
X120408082Y-61633038D01*
X120398361Y-61622313D01*
X120389738Y-61610687D01*
X120382297Y-61598271D01*
X120376108Y-61585186D01*
X120371231Y-61571557D01*
X120367714Y-61557516D01*
X120365590Y-61543198D01*
X120364880Y-61528740D01*
X120364880Y-61183740D01*
X120365590Y-61169282D01*
X120367714Y-61154964D01*
X120371231Y-61140923D01*
X120376108Y-61127294D01*
X120382297Y-61114209D01*
X120389738Y-61101793D01*
X120398361Y-61090167D01*
X120408082Y-61079442D01*
X120418807Y-61069721D01*
X120430433Y-61061098D01*
X120442849Y-61053657D01*
X120455934Y-61047468D01*
X120469563Y-61042591D01*
X120483604Y-61039074D01*
X120497922Y-61036950D01*
X120512380Y-61036240D01*
X120807380Y-61036240D01*
X120821838Y-61036950D01*
X120821838Y-61036950D01*
G37*
D12*
X120659880Y-61356240D03*
D11*
G36*
X119851838Y-61036950D02*
G01*
X119866156Y-61039074D01*
X119880197Y-61042591D01*
X119893826Y-61047468D01*
X119906911Y-61053657D01*
X119919327Y-61061098D01*
X119930953Y-61069721D01*
X119941678Y-61079442D01*
X119951399Y-61090167D01*
X119960022Y-61101793D01*
X119967463Y-61114209D01*
X119973652Y-61127294D01*
X119978529Y-61140923D01*
X119982046Y-61154964D01*
X119984170Y-61169282D01*
X119984880Y-61183740D01*
X119984880Y-61528740D01*
X119984170Y-61543198D01*
X119982046Y-61557516D01*
X119978529Y-61571557D01*
X119973652Y-61585186D01*
X119967463Y-61598271D01*
X119960022Y-61610687D01*
X119951399Y-61622313D01*
X119941678Y-61633038D01*
X119930953Y-61642759D01*
X119919327Y-61651382D01*
X119906911Y-61658823D01*
X119893826Y-61665012D01*
X119880197Y-61669889D01*
X119866156Y-61673406D01*
X119851838Y-61675530D01*
X119837380Y-61676240D01*
X119542380Y-61676240D01*
X119527922Y-61675530D01*
X119513604Y-61673406D01*
X119499563Y-61669889D01*
X119485934Y-61665012D01*
X119472849Y-61658823D01*
X119460433Y-61651382D01*
X119448807Y-61642759D01*
X119438082Y-61633038D01*
X119428361Y-61622313D01*
X119419738Y-61610687D01*
X119412297Y-61598271D01*
X119406108Y-61585186D01*
X119401231Y-61571557D01*
X119397714Y-61557516D01*
X119395590Y-61543198D01*
X119394880Y-61528740D01*
X119394880Y-61183740D01*
X119395590Y-61169282D01*
X119397714Y-61154964D01*
X119401231Y-61140923D01*
X119406108Y-61127294D01*
X119412297Y-61114209D01*
X119419738Y-61101793D01*
X119428361Y-61090167D01*
X119438082Y-61079442D01*
X119448807Y-61069721D01*
X119460433Y-61061098D01*
X119472849Y-61053657D01*
X119485934Y-61047468D01*
X119499563Y-61042591D01*
X119513604Y-61039074D01*
X119527922Y-61036950D01*
X119542380Y-61036240D01*
X119837380Y-61036240D01*
X119851838Y-61036950D01*
X119851838Y-61036950D01*
G37*
D12*
X119689880Y-61356240D03*
D11*
G36*
X120644038Y-67254870D02*
G01*
X120658356Y-67256994D01*
X120672397Y-67260511D01*
X120686026Y-67265388D01*
X120699111Y-67271577D01*
X120711527Y-67279018D01*
X120723153Y-67287641D01*
X120733878Y-67297362D01*
X120743599Y-67308087D01*
X120752222Y-67319713D01*
X120759663Y-67332129D01*
X120765852Y-67345214D01*
X120770729Y-67358843D01*
X120774246Y-67372884D01*
X120776370Y-67387202D01*
X120777080Y-67401660D01*
X120777080Y-67746660D01*
X120776370Y-67761118D01*
X120774246Y-67775436D01*
X120770729Y-67789477D01*
X120765852Y-67803106D01*
X120759663Y-67816191D01*
X120752222Y-67828607D01*
X120743599Y-67840233D01*
X120733878Y-67850958D01*
X120723153Y-67860679D01*
X120711527Y-67869302D01*
X120699111Y-67876743D01*
X120686026Y-67882932D01*
X120672397Y-67887809D01*
X120658356Y-67891326D01*
X120644038Y-67893450D01*
X120629580Y-67894160D01*
X120334580Y-67894160D01*
X120320122Y-67893450D01*
X120305804Y-67891326D01*
X120291763Y-67887809D01*
X120278134Y-67882932D01*
X120265049Y-67876743D01*
X120252633Y-67869302D01*
X120241007Y-67860679D01*
X120230282Y-67850958D01*
X120220561Y-67840233D01*
X120211938Y-67828607D01*
X120204497Y-67816191D01*
X120198308Y-67803106D01*
X120193431Y-67789477D01*
X120189914Y-67775436D01*
X120187790Y-67761118D01*
X120187080Y-67746660D01*
X120187080Y-67401660D01*
X120187790Y-67387202D01*
X120189914Y-67372884D01*
X120193431Y-67358843D01*
X120198308Y-67345214D01*
X120204497Y-67332129D01*
X120211938Y-67319713D01*
X120220561Y-67308087D01*
X120230282Y-67297362D01*
X120241007Y-67287641D01*
X120252633Y-67279018D01*
X120265049Y-67271577D01*
X120278134Y-67265388D01*
X120291763Y-67260511D01*
X120305804Y-67256994D01*
X120320122Y-67254870D01*
X120334580Y-67254160D01*
X120629580Y-67254160D01*
X120644038Y-67254870D01*
X120644038Y-67254870D01*
G37*
D12*
X120482080Y-67574160D03*
D11*
G36*
X119674038Y-67254870D02*
G01*
X119688356Y-67256994D01*
X119702397Y-67260511D01*
X119716026Y-67265388D01*
X119729111Y-67271577D01*
X119741527Y-67279018D01*
X119753153Y-67287641D01*
X119763878Y-67297362D01*
X119773599Y-67308087D01*
X119782222Y-67319713D01*
X119789663Y-67332129D01*
X119795852Y-67345214D01*
X119800729Y-67358843D01*
X119804246Y-67372884D01*
X119806370Y-67387202D01*
X119807080Y-67401660D01*
X119807080Y-67746660D01*
X119806370Y-67761118D01*
X119804246Y-67775436D01*
X119800729Y-67789477D01*
X119795852Y-67803106D01*
X119789663Y-67816191D01*
X119782222Y-67828607D01*
X119773599Y-67840233D01*
X119763878Y-67850958D01*
X119753153Y-67860679D01*
X119741527Y-67869302D01*
X119729111Y-67876743D01*
X119716026Y-67882932D01*
X119702397Y-67887809D01*
X119688356Y-67891326D01*
X119674038Y-67893450D01*
X119659580Y-67894160D01*
X119364580Y-67894160D01*
X119350122Y-67893450D01*
X119335804Y-67891326D01*
X119321763Y-67887809D01*
X119308134Y-67882932D01*
X119295049Y-67876743D01*
X119282633Y-67869302D01*
X119271007Y-67860679D01*
X119260282Y-67850958D01*
X119250561Y-67840233D01*
X119241938Y-67828607D01*
X119234497Y-67816191D01*
X119228308Y-67803106D01*
X119223431Y-67789477D01*
X119219914Y-67775436D01*
X119217790Y-67761118D01*
X119217080Y-67746660D01*
X119217080Y-67401660D01*
X119217790Y-67387202D01*
X119219914Y-67372884D01*
X119223431Y-67358843D01*
X119228308Y-67345214D01*
X119234497Y-67332129D01*
X119241938Y-67319713D01*
X119250561Y-67308087D01*
X119260282Y-67297362D01*
X119271007Y-67287641D01*
X119282633Y-67279018D01*
X119295049Y-67271577D01*
X119308134Y-67265388D01*
X119321763Y-67260511D01*
X119335804Y-67256994D01*
X119350122Y-67254870D01*
X119364580Y-67254160D01*
X119659580Y-67254160D01*
X119674038Y-67254870D01*
X119674038Y-67254870D01*
G37*
D12*
X119512080Y-67574160D03*
D11*
G36*
X113276958Y-62480710D02*
G01*
X113291276Y-62482834D01*
X113305317Y-62486351D01*
X113318946Y-62491228D01*
X113332031Y-62497417D01*
X113344447Y-62504858D01*
X113356073Y-62513481D01*
X113366798Y-62523202D01*
X113376519Y-62533927D01*
X113385142Y-62545553D01*
X113392583Y-62557969D01*
X113398772Y-62571054D01*
X113403649Y-62584683D01*
X113407166Y-62598724D01*
X113409290Y-62613042D01*
X113410000Y-62627500D01*
X113410000Y-62972500D01*
X113409290Y-62986958D01*
X113407166Y-63001276D01*
X113403649Y-63015317D01*
X113398772Y-63028946D01*
X113392583Y-63042031D01*
X113385142Y-63054447D01*
X113376519Y-63066073D01*
X113366798Y-63076798D01*
X113356073Y-63086519D01*
X113344447Y-63095142D01*
X113332031Y-63102583D01*
X113318946Y-63108772D01*
X113305317Y-63113649D01*
X113291276Y-63117166D01*
X113276958Y-63119290D01*
X113262500Y-63120000D01*
X112967500Y-63120000D01*
X112953042Y-63119290D01*
X112938724Y-63117166D01*
X112924683Y-63113649D01*
X112911054Y-63108772D01*
X112897969Y-63102583D01*
X112885553Y-63095142D01*
X112873927Y-63086519D01*
X112863202Y-63076798D01*
X112853481Y-63066073D01*
X112844858Y-63054447D01*
X112837417Y-63042031D01*
X112831228Y-63028946D01*
X112826351Y-63015317D01*
X112822834Y-63001276D01*
X112820710Y-62986958D01*
X112820000Y-62972500D01*
X112820000Y-62627500D01*
X112820710Y-62613042D01*
X112822834Y-62598724D01*
X112826351Y-62584683D01*
X112831228Y-62571054D01*
X112837417Y-62557969D01*
X112844858Y-62545553D01*
X112853481Y-62533927D01*
X112863202Y-62523202D01*
X112873927Y-62513481D01*
X112885553Y-62504858D01*
X112897969Y-62497417D01*
X112911054Y-62491228D01*
X112924683Y-62486351D01*
X112938724Y-62482834D01*
X112953042Y-62480710D01*
X112967500Y-62480000D01*
X113262500Y-62480000D01*
X113276958Y-62480710D01*
X113276958Y-62480710D01*
G37*
D12*
X113115000Y-62800000D03*
D11*
G36*
X112306958Y-62480710D02*
G01*
X112321276Y-62482834D01*
X112335317Y-62486351D01*
X112348946Y-62491228D01*
X112362031Y-62497417D01*
X112374447Y-62504858D01*
X112386073Y-62513481D01*
X112396798Y-62523202D01*
X112406519Y-62533927D01*
X112415142Y-62545553D01*
X112422583Y-62557969D01*
X112428772Y-62571054D01*
X112433649Y-62584683D01*
X112437166Y-62598724D01*
X112439290Y-62613042D01*
X112440000Y-62627500D01*
X112440000Y-62972500D01*
X112439290Y-62986958D01*
X112437166Y-63001276D01*
X112433649Y-63015317D01*
X112428772Y-63028946D01*
X112422583Y-63042031D01*
X112415142Y-63054447D01*
X112406519Y-63066073D01*
X112396798Y-63076798D01*
X112386073Y-63086519D01*
X112374447Y-63095142D01*
X112362031Y-63102583D01*
X112348946Y-63108772D01*
X112335317Y-63113649D01*
X112321276Y-63117166D01*
X112306958Y-63119290D01*
X112292500Y-63120000D01*
X111997500Y-63120000D01*
X111983042Y-63119290D01*
X111968724Y-63117166D01*
X111954683Y-63113649D01*
X111941054Y-63108772D01*
X111927969Y-63102583D01*
X111915553Y-63095142D01*
X111903927Y-63086519D01*
X111893202Y-63076798D01*
X111883481Y-63066073D01*
X111874858Y-63054447D01*
X111867417Y-63042031D01*
X111861228Y-63028946D01*
X111856351Y-63015317D01*
X111852834Y-63001276D01*
X111850710Y-62986958D01*
X111850000Y-62972500D01*
X111850000Y-62627500D01*
X111850710Y-62613042D01*
X111852834Y-62598724D01*
X111856351Y-62584683D01*
X111861228Y-62571054D01*
X111867417Y-62557969D01*
X111874858Y-62545553D01*
X111883481Y-62533927D01*
X111893202Y-62523202D01*
X111903927Y-62513481D01*
X111915553Y-62504858D01*
X111927969Y-62497417D01*
X111941054Y-62491228D01*
X111954683Y-62486351D01*
X111968724Y-62482834D01*
X111983042Y-62480710D01*
X111997500Y-62480000D01*
X112292500Y-62480000D01*
X112306958Y-62480710D01*
X112306958Y-62480710D01*
G37*
D12*
X112145000Y-62800000D03*
D11*
G36*
X110666798Y-62011910D02*
G01*
X110681116Y-62014034D01*
X110695157Y-62017551D01*
X110708786Y-62022428D01*
X110721871Y-62028617D01*
X110734287Y-62036058D01*
X110745913Y-62044681D01*
X110756638Y-62054402D01*
X110766359Y-62065127D01*
X110774982Y-62076753D01*
X110782423Y-62089169D01*
X110788612Y-62102254D01*
X110793489Y-62115883D01*
X110797006Y-62129924D01*
X110799130Y-62144242D01*
X110799840Y-62158700D01*
X110799840Y-62453700D01*
X110799130Y-62468158D01*
X110797006Y-62482476D01*
X110793489Y-62496517D01*
X110788612Y-62510146D01*
X110782423Y-62523231D01*
X110774982Y-62535647D01*
X110766359Y-62547273D01*
X110756638Y-62557998D01*
X110745913Y-62567719D01*
X110734287Y-62576342D01*
X110721871Y-62583783D01*
X110708786Y-62589972D01*
X110695157Y-62594849D01*
X110681116Y-62598366D01*
X110666798Y-62600490D01*
X110652340Y-62601200D01*
X110307340Y-62601200D01*
X110292882Y-62600490D01*
X110278564Y-62598366D01*
X110264523Y-62594849D01*
X110250894Y-62589972D01*
X110237809Y-62583783D01*
X110225393Y-62576342D01*
X110213767Y-62567719D01*
X110203042Y-62557998D01*
X110193321Y-62547273D01*
X110184698Y-62535647D01*
X110177257Y-62523231D01*
X110171068Y-62510146D01*
X110166191Y-62496517D01*
X110162674Y-62482476D01*
X110160550Y-62468158D01*
X110159840Y-62453700D01*
X110159840Y-62158700D01*
X110160550Y-62144242D01*
X110162674Y-62129924D01*
X110166191Y-62115883D01*
X110171068Y-62102254D01*
X110177257Y-62089169D01*
X110184698Y-62076753D01*
X110193321Y-62065127D01*
X110203042Y-62054402D01*
X110213767Y-62044681D01*
X110225393Y-62036058D01*
X110237809Y-62028617D01*
X110250894Y-62022428D01*
X110264523Y-62017551D01*
X110278564Y-62014034D01*
X110292882Y-62011910D01*
X110307340Y-62011200D01*
X110652340Y-62011200D01*
X110666798Y-62011910D01*
X110666798Y-62011910D01*
G37*
D12*
X110479840Y-62306200D03*
D11*
G36*
X110666798Y-61041910D02*
G01*
X110681116Y-61044034D01*
X110695157Y-61047551D01*
X110708786Y-61052428D01*
X110721871Y-61058617D01*
X110734287Y-61066058D01*
X110745913Y-61074681D01*
X110756638Y-61084402D01*
X110766359Y-61095127D01*
X110774982Y-61106753D01*
X110782423Y-61119169D01*
X110788612Y-61132254D01*
X110793489Y-61145883D01*
X110797006Y-61159924D01*
X110799130Y-61174242D01*
X110799840Y-61188700D01*
X110799840Y-61483700D01*
X110799130Y-61498158D01*
X110797006Y-61512476D01*
X110793489Y-61526517D01*
X110788612Y-61540146D01*
X110782423Y-61553231D01*
X110774982Y-61565647D01*
X110766359Y-61577273D01*
X110756638Y-61587998D01*
X110745913Y-61597719D01*
X110734287Y-61606342D01*
X110721871Y-61613783D01*
X110708786Y-61619972D01*
X110695157Y-61624849D01*
X110681116Y-61628366D01*
X110666798Y-61630490D01*
X110652340Y-61631200D01*
X110307340Y-61631200D01*
X110292882Y-61630490D01*
X110278564Y-61628366D01*
X110264523Y-61624849D01*
X110250894Y-61619972D01*
X110237809Y-61613783D01*
X110225393Y-61606342D01*
X110213767Y-61597719D01*
X110203042Y-61587998D01*
X110193321Y-61577273D01*
X110184698Y-61565647D01*
X110177257Y-61553231D01*
X110171068Y-61540146D01*
X110166191Y-61526517D01*
X110162674Y-61512476D01*
X110160550Y-61498158D01*
X110159840Y-61483700D01*
X110159840Y-61188700D01*
X110160550Y-61174242D01*
X110162674Y-61159924D01*
X110166191Y-61145883D01*
X110171068Y-61132254D01*
X110177257Y-61119169D01*
X110184698Y-61106753D01*
X110193321Y-61095127D01*
X110203042Y-61084402D01*
X110213767Y-61074681D01*
X110225393Y-61066058D01*
X110237809Y-61058617D01*
X110250894Y-61052428D01*
X110264523Y-61047551D01*
X110278564Y-61044034D01*
X110292882Y-61041910D01*
X110307340Y-61041200D01*
X110652340Y-61041200D01*
X110666798Y-61041910D01*
X110666798Y-61041910D01*
G37*
D12*
X110479840Y-61336200D03*
D11*
G36*
X110753158Y-72758790D02*
G01*
X110767476Y-72760914D01*
X110781517Y-72764431D01*
X110795146Y-72769308D01*
X110808231Y-72775497D01*
X110820647Y-72782938D01*
X110832273Y-72791561D01*
X110842998Y-72801282D01*
X110852719Y-72812007D01*
X110861342Y-72823633D01*
X110868783Y-72836049D01*
X110874972Y-72849134D01*
X110879849Y-72862763D01*
X110883366Y-72876804D01*
X110885490Y-72891122D01*
X110886200Y-72905580D01*
X110886200Y-73200580D01*
X110885490Y-73215038D01*
X110883366Y-73229356D01*
X110879849Y-73243397D01*
X110874972Y-73257026D01*
X110868783Y-73270111D01*
X110861342Y-73282527D01*
X110852719Y-73294153D01*
X110842998Y-73304878D01*
X110832273Y-73314599D01*
X110820647Y-73323222D01*
X110808231Y-73330663D01*
X110795146Y-73336852D01*
X110781517Y-73341729D01*
X110767476Y-73345246D01*
X110753158Y-73347370D01*
X110738700Y-73348080D01*
X110393700Y-73348080D01*
X110379242Y-73347370D01*
X110364924Y-73345246D01*
X110350883Y-73341729D01*
X110337254Y-73336852D01*
X110324169Y-73330663D01*
X110311753Y-73323222D01*
X110300127Y-73314599D01*
X110289402Y-73304878D01*
X110279681Y-73294153D01*
X110271058Y-73282527D01*
X110263617Y-73270111D01*
X110257428Y-73257026D01*
X110252551Y-73243397D01*
X110249034Y-73229356D01*
X110246910Y-73215038D01*
X110246200Y-73200580D01*
X110246200Y-72905580D01*
X110246910Y-72891122D01*
X110249034Y-72876804D01*
X110252551Y-72862763D01*
X110257428Y-72849134D01*
X110263617Y-72836049D01*
X110271058Y-72823633D01*
X110279681Y-72812007D01*
X110289402Y-72801282D01*
X110300127Y-72791561D01*
X110311753Y-72782938D01*
X110324169Y-72775497D01*
X110337254Y-72769308D01*
X110350883Y-72764431D01*
X110364924Y-72760914D01*
X110379242Y-72758790D01*
X110393700Y-72758080D01*
X110738700Y-72758080D01*
X110753158Y-72758790D01*
X110753158Y-72758790D01*
G37*
D12*
X110566200Y-73053080D03*
D11*
G36*
X110753158Y-73728790D02*
G01*
X110767476Y-73730914D01*
X110781517Y-73734431D01*
X110795146Y-73739308D01*
X110808231Y-73745497D01*
X110820647Y-73752938D01*
X110832273Y-73761561D01*
X110842998Y-73771282D01*
X110852719Y-73782007D01*
X110861342Y-73793633D01*
X110868783Y-73806049D01*
X110874972Y-73819134D01*
X110879849Y-73832763D01*
X110883366Y-73846804D01*
X110885490Y-73861122D01*
X110886200Y-73875580D01*
X110886200Y-74170580D01*
X110885490Y-74185038D01*
X110883366Y-74199356D01*
X110879849Y-74213397D01*
X110874972Y-74227026D01*
X110868783Y-74240111D01*
X110861342Y-74252527D01*
X110852719Y-74264153D01*
X110842998Y-74274878D01*
X110832273Y-74284599D01*
X110820647Y-74293222D01*
X110808231Y-74300663D01*
X110795146Y-74306852D01*
X110781517Y-74311729D01*
X110767476Y-74315246D01*
X110753158Y-74317370D01*
X110738700Y-74318080D01*
X110393700Y-74318080D01*
X110379242Y-74317370D01*
X110364924Y-74315246D01*
X110350883Y-74311729D01*
X110337254Y-74306852D01*
X110324169Y-74300663D01*
X110311753Y-74293222D01*
X110300127Y-74284599D01*
X110289402Y-74274878D01*
X110279681Y-74264153D01*
X110271058Y-74252527D01*
X110263617Y-74240111D01*
X110257428Y-74227026D01*
X110252551Y-74213397D01*
X110249034Y-74199356D01*
X110246910Y-74185038D01*
X110246200Y-74170580D01*
X110246200Y-73875580D01*
X110246910Y-73861122D01*
X110249034Y-73846804D01*
X110252551Y-73832763D01*
X110257428Y-73819134D01*
X110263617Y-73806049D01*
X110271058Y-73793633D01*
X110279681Y-73782007D01*
X110289402Y-73771282D01*
X110300127Y-73761561D01*
X110311753Y-73752938D01*
X110324169Y-73745497D01*
X110337254Y-73739308D01*
X110350883Y-73734431D01*
X110364924Y-73730914D01*
X110379242Y-73728790D01*
X110393700Y-73728080D01*
X110738700Y-73728080D01*
X110753158Y-73728790D01*
X110753158Y-73728790D01*
G37*
D12*
X110566200Y-74023080D03*
D11*
G36*
X110861958Y-68965710D02*
G01*
X110876276Y-68967834D01*
X110890317Y-68971351D01*
X110903946Y-68976228D01*
X110917031Y-68982417D01*
X110929447Y-68989858D01*
X110941073Y-68998481D01*
X110951798Y-69008202D01*
X110961519Y-69018927D01*
X110970142Y-69030553D01*
X110977583Y-69042969D01*
X110983772Y-69056054D01*
X110988649Y-69069683D01*
X110992166Y-69083724D01*
X110994290Y-69098042D01*
X110995000Y-69112500D01*
X110995000Y-69407500D01*
X110994290Y-69421958D01*
X110992166Y-69436276D01*
X110988649Y-69450317D01*
X110983772Y-69463946D01*
X110977583Y-69477031D01*
X110970142Y-69489447D01*
X110961519Y-69501073D01*
X110951798Y-69511798D01*
X110941073Y-69521519D01*
X110929447Y-69530142D01*
X110917031Y-69537583D01*
X110903946Y-69543772D01*
X110890317Y-69548649D01*
X110876276Y-69552166D01*
X110861958Y-69554290D01*
X110847500Y-69555000D01*
X110502500Y-69555000D01*
X110488042Y-69554290D01*
X110473724Y-69552166D01*
X110459683Y-69548649D01*
X110446054Y-69543772D01*
X110432969Y-69537583D01*
X110420553Y-69530142D01*
X110408927Y-69521519D01*
X110398202Y-69511798D01*
X110388481Y-69501073D01*
X110379858Y-69489447D01*
X110372417Y-69477031D01*
X110366228Y-69463946D01*
X110361351Y-69450317D01*
X110357834Y-69436276D01*
X110355710Y-69421958D01*
X110355000Y-69407500D01*
X110355000Y-69112500D01*
X110355710Y-69098042D01*
X110357834Y-69083724D01*
X110361351Y-69069683D01*
X110366228Y-69056054D01*
X110372417Y-69042969D01*
X110379858Y-69030553D01*
X110388481Y-69018927D01*
X110398202Y-69008202D01*
X110408927Y-68998481D01*
X110420553Y-68989858D01*
X110432969Y-68982417D01*
X110446054Y-68976228D01*
X110459683Y-68971351D01*
X110473724Y-68967834D01*
X110488042Y-68965710D01*
X110502500Y-68965000D01*
X110847500Y-68965000D01*
X110861958Y-68965710D01*
X110861958Y-68965710D01*
G37*
D12*
X110675000Y-69260000D03*
D11*
G36*
X110861958Y-67995710D02*
G01*
X110876276Y-67997834D01*
X110890317Y-68001351D01*
X110903946Y-68006228D01*
X110917031Y-68012417D01*
X110929447Y-68019858D01*
X110941073Y-68028481D01*
X110951798Y-68038202D01*
X110961519Y-68048927D01*
X110970142Y-68060553D01*
X110977583Y-68072969D01*
X110983772Y-68086054D01*
X110988649Y-68099683D01*
X110992166Y-68113724D01*
X110994290Y-68128042D01*
X110995000Y-68142500D01*
X110995000Y-68437500D01*
X110994290Y-68451958D01*
X110992166Y-68466276D01*
X110988649Y-68480317D01*
X110983772Y-68493946D01*
X110977583Y-68507031D01*
X110970142Y-68519447D01*
X110961519Y-68531073D01*
X110951798Y-68541798D01*
X110941073Y-68551519D01*
X110929447Y-68560142D01*
X110917031Y-68567583D01*
X110903946Y-68573772D01*
X110890317Y-68578649D01*
X110876276Y-68582166D01*
X110861958Y-68584290D01*
X110847500Y-68585000D01*
X110502500Y-68585000D01*
X110488042Y-68584290D01*
X110473724Y-68582166D01*
X110459683Y-68578649D01*
X110446054Y-68573772D01*
X110432969Y-68567583D01*
X110420553Y-68560142D01*
X110408927Y-68551519D01*
X110398202Y-68541798D01*
X110388481Y-68531073D01*
X110379858Y-68519447D01*
X110372417Y-68507031D01*
X110366228Y-68493946D01*
X110361351Y-68480317D01*
X110357834Y-68466276D01*
X110355710Y-68451958D01*
X110355000Y-68437500D01*
X110355000Y-68142500D01*
X110355710Y-68128042D01*
X110357834Y-68113724D01*
X110361351Y-68099683D01*
X110366228Y-68086054D01*
X110372417Y-68072969D01*
X110379858Y-68060553D01*
X110388481Y-68048927D01*
X110398202Y-68038202D01*
X110408927Y-68028481D01*
X110420553Y-68019858D01*
X110432969Y-68012417D01*
X110446054Y-68006228D01*
X110459683Y-68001351D01*
X110473724Y-67997834D01*
X110488042Y-67995710D01*
X110502500Y-67995000D01*
X110847500Y-67995000D01*
X110861958Y-67995710D01*
X110861958Y-67995710D01*
G37*
D12*
X110675000Y-68290000D03*
D11*
G36*
X120522118Y-69901550D02*
G01*
X120536436Y-69903674D01*
X120550477Y-69907191D01*
X120564106Y-69912068D01*
X120577191Y-69918257D01*
X120589607Y-69925698D01*
X120601233Y-69934321D01*
X120611958Y-69944042D01*
X120621679Y-69954767D01*
X120630302Y-69966393D01*
X120637743Y-69978809D01*
X120643932Y-69991894D01*
X120648809Y-70005523D01*
X120652326Y-70019564D01*
X120654450Y-70033882D01*
X120655160Y-70048340D01*
X120655160Y-70393340D01*
X120654450Y-70407798D01*
X120652326Y-70422116D01*
X120648809Y-70436157D01*
X120643932Y-70449786D01*
X120637743Y-70462871D01*
X120630302Y-70475287D01*
X120621679Y-70486913D01*
X120611958Y-70497638D01*
X120601233Y-70507359D01*
X120589607Y-70515982D01*
X120577191Y-70523423D01*
X120564106Y-70529612D01*
X120550477Y-70534489D01*
X120536436Y-70538006D01*
X120522118Y-70540130D01*
X120507660Y-70540840D01*
X120212660Y-70540840D01*
X120198202Y-70540130D01*
X120183884Y-70538006D01*
X120169843Y-70534489D01*
X120156214Y-70529612D01*
X120143129Y-70523423D01*
X120130713Y-70515982D01*
X120119087Y-70507359D01*
X120108362Y-70497638D01*
X120098641Y-70486913D01*
X120090018Y-70475287D01*
X120082577Y-70462871D01*
X120076388Y-70449786D01*
X120071511Y-70436157D01*
X120067994Y-70422116D01*
X120065870Y-70407798D01*
X120065160Y-70393340D01*
X120065160Y-70048340D01*
X120065870Y-70033882D01*
X120067994Y-70019564D01*
X120071511Y-70005523D01*
X120076388Y-69991894D01*
X120082577Y-69978809D01*
X120090018Y-69966393D01*
X120098641Y-69954767D01*
X120108362Y-69944042D01*
X120119087Y-69934321D01*
X120130713Y-69925698D01*
X120143129Y-69918257D01*
X120156214Y-69912068D01*
X120169843Y-69907191D01*
X120183884Y-69903674D01*
X120198202Y-69901550D01*
X120212660Y-69900840D01*
X120507660Y-69900840D01*
X120522118Y-69901550D01*
X120522118Y-69901550D01*
G37*
D12*
X120360160Y-70220840D03*
D11*
G36*
X119552118Y-69901550D02*
G01*
X119566436Y-69903674D01*
X119580477Y-69907191D01*
X119594106Y-69912068D01*
X119607191Y-69918257D01*
X119619607Y-69925698D01*
X119631233Y-69934321D01*
X119641958Y-69944042D01*
X119651679Y-69954767D01*
X119660302Y-69966393D01*
X119667743Y-69978809D01*
X119673932Y-69991894D01*
X119678809Y-70005523D01*
X119682326Y-70019564D01*
X119684450Y-70033882D01*
X119685160Y-70048340D01*
X119685160Y-70393340D01*
X119684450Y-70407798D01*
X119682326Y-70422116D01*
X119678809Y-70436157D01*
X119673932Y-70449786D01*
X119667743Y-70462871D01*
X119660302Y-70475287D01*
X119651679Y-70486913D01*
X119641958Y-70497638D01*
X119631233Y-70507359D01*
X119619607Y-70515982D01*
X119607191Y-70523423D01*
X119594106Y-70529612D01*
X119580477Y-70534489D01*
X119566436Y-70538006D01*
X119552118Y-70540130D01*
X119537660Y-70540840D01*
X119242660Y-70540840D01*
X119228202Y-70540130D01*
X119213884Y-70538006D01*
X119199843Y-70534489D01*
X119186214Y-70529612D01*
X119173129Y-70523423D01*
X119160713Y-70515982D01*
X119149087Y-70507359D01*
X119138362Y-70497638D01*
X119128641Y-70486913D01*
X119120018Y-70475287D01*
X119112577Y-70462871D01*
X119106388Y-70449786D01*
X119101511Y-70436157D01*
X119097994Y-70422116D01*
X119095870Y-70407798D01*
X119095160Y-70393340D01*
X119095160Y-70048340D01*
X119095870Y-70033882D01*
X119097994Y-70019564D01*
X119101511Y-70005523D01*
X119106388Y-69991894D01*
X119112577Y-69978809D01*
X119120018Y-69966393D01*
X119128641Y-69954767D01*
X119138362Y-69944042D01*
X119149087Y-69934321D01*
X119160713Y-69925698D01*
X119173129Y-69918257D01*
X119186214Y-69912068D01*
X119199843Y-69907191D01*
X119213884Y-69903674D01*
X119228202Y-69901550D01*
X119242660Y-69900840D01*
X119537660Y-69900840D01*
X119552118Y-69901550D01*
X119552118Y-69901550D01*
G37*
D12*
X119390160Y-70220840D03*
D11*
G36*
X120913158Y-58755630D02*
G01*
X120927476Y-58757754D01*
X120941517Y-58761271D01*
X120955146Y-58766148D01*
X120968231Y-58772337D01*
X120980647Y-58779778D01*
X120992273Y-58788401D01*
X121002998Y-58798122D01*
X121012719Y-58808847D01*
X121021342Y-58820473D01*
X121028783Y-58832889D01*
X121034972Y-58845974D01*
X121039849Y-58859603D01*
X121043366Y-58873644D01*
X121045490Y-58887962D01*
X121046200Y-58902420D01*
X121046200Y-59197420D01*
X121045490Y-59211878D01*
X121043366Y-59226196D01*
X121039849Y-59240237D01*
X121034972Y-59253866D01*
X121028783Y-59266951D01*
X121021342Y-59279367D01*
X121012719Y-59290993D01*
X121002998Y-59301718D01*
X120992273Y-59311439D01*
X120980647Y-59320062D01*
X120968231Y-59327503D01*
X120955146Y-59333692D01*
X120941517Y-59338569D01*
X120927476Y-59342086D01*
X120913158Y-59344210D01*
X120898700Y-59344920D01*
X120553700Y-59344920D01*
X120539242Y-59344210D01*
X120524924Y-59342086D01*
X120510883Y-59338569D01*
X120497254Y-59333692D01*
X120484169Y-59327503D01*
X120471753Y-59320062D01*
X120460127Y-59311439D01*
X120449402Y-59301718D01*
X120439681Y-59290993D01*
X120431058Y-59279367D01*
X120423617Y-59266951D01*
X120417428Y-59253866D01*
X120412551Y-59240237D01*
X120409034Y-59226196D01*
X120406910Y-59211878D01*
X120406200Y-59197420D01*
X120406200Y-58902420D01*
X120406910Y-58887962D01*
X120409034Y-58873644D01*
X120412551Y-58859603D01*
X120417428Y-58845974D01*
X120423617Y-58832889D01*
X120431058Y-58820473D01*
X120439681Y-58808847D01*
X120449402Y-58798122D01*
X120460127Y-58788401D01*
X120471753Y-58779778D01*
X120484169Y-58772337D01*
X120497254Y-58766148D01*
X120510883Y-58761271D01*
X120524924Y-58757754D01*
X120539242Y-58755630D01*
X120553700Y-58754920D01*
X120898700Y-58754920D01*
X120913158Y-58755630D01*
X120913158Y-58755630D01*
G37*
D12*
X120726200Y-59049920D03*
D11*
G36*
X120913158Y-59725630D02*
G01*
X120927476Y-59727754D01*
X120941517Y-59731271D01*
X120955146Y-59736148D01*
X120968231Y-59742337D01*
X120980647Y-59749778D01*
X120992273Y-59758401D01*
X121002998Y-59768122D01*
X121012719Y-59778847D01*
X121021342Y-59790473D01*
X121028783Y-59802889D01*
X121034972Y-59815974D01*
X121039849Y-59829603D01*
X121043366Y-59843644D01*
X121045490Y-59857962D01*
X121046200Y-59872420D01*
X121046200Y-60167420D01*
X121045490Y-60181878D01*
X121043366Y-60196196D01*
X121039849Y-60210237D01*
X121034972Y-60223866D01*
X121028783Y-60236951D01*
X121021342Y-60249367D01*
X121012719Y-60260993D01*
X121002998Y-60271718D01*
X120992273Y-60281439D01*
X120980647Y-60290062D01*
X120968231Y-60297503D01*
X120955146Y-60303692D01*
X120941517Y-60308569D01*
X120927476Y-60312086D01*
X120913158Y-60314210D01*
X120898700Y-60314920D01*
X120553700Y-60314920D01*
X120539242Y-60314210D01*
X120524924Y-60312086D01*
X120510883Y-60308569D01*
X120497254Y-60303692D01*
X120484169Y-60297503D01*
X120471753Y-60290062D01*
X120460127Y-60281439D01*
X120449402Y-60271718D01*
X120439681Y-60260993D01*
X120431058Y-60249367D01*
X120423617Y-60236951D01*
X120417428Y-60223866D01*
X120412551Y-60210237D01*
X120409034Y-60196196D01*
X120406910Y-60181878D01*
X120406200Y-60167420D01*
X120406200Y-59872420D01*
X120406910Y-59857962D01*
X120409034Y-59843644D01*
X120412551Y-59829603D01*
X120417428Y-59815974D01*
X120423617Y-59802889D01*
X120431058Y-59790473D01*
X120439681Y-59778847D01*
X120449402Y-59768122D01*
X120460127Y-59758401D01*
X120471753Y-59749778D01*
X120484169Y-59742337D01*
X120497254Y-59736148D01*
X120510883Y-59731271D01*
X120524924Y-59727754D01*
X120539242Y-59725630D01*
X120553700Y-59724920D01*
X120898700Y-59724920D01*
X120913158Y-59725630D01*
X120913158Y-59725630D01*
G37*
D12*
X120726200Y-60019920D03*
D11*
G36*
X121873278Y-68247470D02*
G01*
X121887596Y-68249594D01*
X121901637Y-68253111D01*
X121915266Y-68257988D01*
X121928351Y-68264177D01*
X121940767Y-68271618D01*
X121952393Y-68280241D01*
X121963118Y-68289962D01*
X121972839Y-68300687D01*
X121981462Y-68312313D01*
X121988903Y-68324729D01*
X121995092Y-68337814D01*
X121999969Y-68351443D01*
X122003486Y-68365484D01*
X122005610Y-68379802D01*
X122006320Y-68394260D01*
X122006320Y-68689260D01*
X122005610Y-68703718D01*
X122003486Y-68718036D01*
X121999969Y-68732077D01*
X121995092Y-68745706D01*
X121988903Y-68758791D01*
X121981462Y-68771207D01*
X121972839Y-68782833D01*
X121963118Y-68793558D01*
X121952393Y-68803279D01*
X121940767Y-68811902D01*
X121928351Y-68819343D01*
X121915266Y-68825532D01*
X121901637Y-68830409D01*
X121887596Y-68833926D01*
X121873278Y-68836050D01*
X121858820Y-68836760D01*
X121513820Y-68836760D01*
X121499362Y-68836050D01*
X121485044Y-68833926D01*
X121471003Y-68830409D01*
X121457374Y-68825532D01*
X121444289Y-68819343D01*
X121431873Y-68811902D01*
X121420247Y-68803279D01*
X121409522Y-68793558D01*
X121399801Y-68782833D01*
X121391178Y-68771207D01*
X121383737Y-68758791D01*
X121377548Y-68745706D01*
X121372671Y-68732077D01*
X121369154Y-68718036D01*
X121367030Y-68703718D01*
X121366320Y-68689260D01*
X121366320Y-68394260D01*
X121367030Y-68379802D01*
X121369154Y-68365484D01*
X121372671Y-68351443D01*
X121377548Y-68337814D01*
X121383737Y-68324729D01*
X121391178Y-68312313D01*
X121399801Y-68300687D01*
X121409522Y-68289962D01*
X121420247Y-68280241D01*
X121431873Y-68271618D01*
X121444289Y-68264177D01*
X121457374Y-68257988D01*
X121471003Y-68253111D01*
X121485044Y-68249594D01*
X121499362Y-68247470D01*
X121513820Y-68246760D01*
X121858820Y-68246760D01*
X121873278Y-68247470D01*
X121873278Y-68247470D01*
G37*
D12*
X121686320Y-68541760D03*
D11*
G36*
X121873278Y-67277470D02*
G01*
X121887596Y-67279594D01*
X121901637Y-67283111D01*
X121915266Y-67287988D01*
X121928351Y-67294177D01*
X121940767Y-67301618D01*
X121952393Y-67310241D01*
X121963118Y-67319962D01*
X121972839Y-67330687D01*
X121981462Y-67342313D01*
X121988903Y-67354729D01*
X121995092Y-67367814D01*
X121999969Y-67381443D01*
X122003486Y-67395484D01*
X122005610Y-67409802D01*
X122006320Y-67424260D01*
X122006320Y-67719260D01*
X122005610Y-67733718D01*
X122003486Y-67748036D01*
X121999969Y-67762077D01*
X121995092Y-67775706D01*
X121988903Y-67788791D01*
X121981462Y-67801207D01*
X121972839Y-67812833D01*
X121963118Y-67823558D01*
X121952393Y-67833279D01*
X121940767Y-67841902D01*
X121928351Y-67849343D01*
X121915266Y-67855532D01*
X121901637Y-67860409D01*
X121887596Y-67863926D01*
X121873278Y-67866050D01*
X121858820Y-67866760D01*
X121513820Y-67866760D01*
X121499362Y-67866050D01*
X121485044Y-67863926D01*
X121471003Y-67860409D01*
X121457374Y-67855532D01*
X121444289Y-67849343D01*
X121431873Y-67841902D01*
X121420247Y-67833279D01*
X121409522Y-67823558D01*
X121399801Y-67812833D01*
X121391178Y-67801207D01*
X121383737Y-67788791D01*
X121377548Y-67775706D01*
X121372671Y-67762077D01*
X121369154Y-67748036D01*
X121367030Y-67733718D01*
X121366320Y-67719260D01*
X121366320Y-67424260D01*
X121367030Y-67409802D01*
X121369154Y-67395484D01*
X121372671Y-67381443D01*
X121377548Y-67367814D01*
X121383737Y-67354729D01*
X121391178Y-67342313D01*
X121399801Y-67330687D01*
X121409522Y-67319962D01*
X121420247Y-67310241D01*
X121431873Y-67301618D01*
X121444289Y-67294177D01*
X121457374Y-67287988D01*
X121471003Y-67283111D01*
X121485044Y-67279594D01*
X121499362Y-67277470D01*
X121513820Y-67276760D01*
X121858820Y-67276760D01*
X121873278Y-67277470D01*
X121873278Y-67277470D01*
G37*
D12*
X121686320Y-67571760D03*
D11*
G36*
X127444958Y-73510350D02*
G01*
X127459276Y-73512474D01*
X127473317Y-73515991D01*
X127486946Y-73520868D01*
X127500031Y-73527057D01*
X127512447Y-73534498D01*
X127524073Y-73543121D01*
X127534798Y-73552842D01*
X127544519Y-73563567D01*
X127553142Y-73575193D01*
X127560583Y-73587609D01*
X127566772Y-73600694D01*
X127571649Y-73614323D01*
X127575166Y-73628364D01*
X127577290Y-73642682D01*
X127578000Y-73657140D01*
X127578000Y-73952140D01*
X127577290Y-73966598D01*
X127575166Y-73980916D01*
X127571649Y-73994957D01*
X127566772Y-74008586D01*
X127560583Y-74021671D01*
X127553142Y-74034087D01*
X127544519Y-74045713D01*
X127534798Y-74056438D01*
X127524073Y-74066159D01*
X127512447Y-74074782D01*
X127500031Y-74082223D01*
X127486946Y-74088412D01*
X127473317Y-74093289D01*
X127459276Y-74096806D01*
X127444958Y-74098930D01*
X127430500Y-74099640D01*
X127085500Y-74099640D01*
X127071042Y-74098930D01*
X127056724Y-74096806D01*
X127042683Y-74093289D01*
X127029054Y-74088412D01*
X127015969Y-74082223D01*
X127003553Y-74074782D01*
X126991927Y-74066159D01*
X126981202Y-74056438D01*
X126971481Y-74045713D01*
X126962858Y-74034087D01*
X126955417Y-74021671D01*
X126949228Y-74008586D01*
X126944351Y-73994957D01*
X126940834Y-73980916D01*
X126938710Y-73966598D01*
X126938000Y-73952140D01*
X126938000Y-73657140D01*
X126938710Y-73642682D01*
X126940834Y-73628364D01*
X126944351Y-73614323D01*
X126949228Y-73600694D01*
X126955417Y-73587609D01*
X126962858Y-73575193D01*
X126971481Y-73563567D01*
X126981202Y-73552842D01*
X126991927Y-73543121D01*
X127003553Y-73534498D01*
X127015969Y-73527057D01*
X127029054Y-73520868D01*
X127042683Y-73515991D01*
X127056724Y-73512474D01*
X127071042Y-73510350D01*
X127085500Y-73509640D01*
X127430500Y-73509640D01*
X127444958Y-73510350D01*
X127444958Y-73510350D01*
G37*
D12*
X127258000Y-73804640D03*
D11*
G36*
X127444958Y-72540350D02*
G01*
X127459276Y-72542474D01*
X127473317Y-72545991D01*
X127486946Y-72550868D01*
X127500031Y-72557057D01*
X127512447Y-72564498D01*
X127524073Y-72573121D01*
X127534798Y-72582842D01*
X127544519Y-72593567D01*
X127553142Y-72605193D01*
X127560583Y-72617609D01*
X127566772Y-72630694D01*
X127571649Y-72644323D01*
X127575166Y-72658364D01*
X127577290Y-72672682D01*
X127578000Y-72687140D01*
X127578000Y-72982140D01*
X127577290Y-72996598D01*
X127575166Y-73010916D01*
X127571649Y-73024957D01*
X127566772Y-73038586D01*
X127560583Y-73051671D01*
X127553142Y-73064087D01*
X127544519Y-73075713D01*
X127534798Y-73086438D01*
X127524073Y-73096159D01*
X127512447Y-73104782D01*
X127500031Y-73112223D01*
X127486946Y-73118412D01*
X127473317Y-73123289D01*
X127459276Y-73126806D01*
X127444958Y-73128930D01*
X127430500Y-73129640D01*
X127085500Y-73129640D01*
X127071042Y-73128930D01*
X127056724Y-73126806D01*
X127042683Y-73123289D01*
X127029054Y-73118412D01*
X127015969Y-73112223D01*
X127003553Y-73104782D01*
X126991927Y-73096159D01*
X126981202Y-73086438D01*
X126971481Y-73075713D01*
X126962858Y-73064087D01*
X126955417Y-73051671D01*
X126949228Y-73038586D01*
X126944351Y-73024957D01*
X126940834Y-73010916D01*
X126938710Y-72996598D01*
X126938000Y-72982140D01*
X126938000Y-72687140D01*
X126938710Y-72672682D01*
X126940834Y-72658364D01*
X126944351Y-72644323D01*
X126949228Y-72630694D01*
X126955417Y-72617609D01*
X126962858Y-72605193D01*
X126971481Y-72593567D01*
X126981202Y-72582842D01*
X126991927Y-72573121D01*
X127003553Y-72564498D01*
X127015969Y-72557057D01*
X127029054Y-72550868D01*
X127042683Y-72545991D01*
X127056724Y-72542474D01*
X127071042Y-72540350D01*
X127085500Y-72539640D01*
X127430500Y-72539640D01*
X127444958Y-72540350D01*
X127444958Y-72540350D01*
G37*
D12*
X127258000Y-72834640D03*
D11*
G36*
X121170238Y-73411830D02*
G01*
X121184556Y-73413954D01*
X121198597Y-73417471D01*
X121212226Y-73422348D01*
X121225311Y-73428537D01*
X121237727Y-73435978D01*
X121249353Y-73444601D01*
X121260078Y-73454322D01*
X121269799Y-73465047D01*
X121278422Y-73476673D01*
X121285863Y-73489089D01*
X121292052Y-73502174D01*
X121296929Y-73515803D01*
X121300446Y-73529844D01*
X121302570Y-73544162D01*
X121303280Y-73558620D01*
X121303280Y-73903620D01*
X121302570Y-73918078D01*
X121300446Y-73932396D01*
X121296929Y-73946437D01*
X121292052Y-73960066D01*
X121285863Y-73973151D01*
X121278422Y-73985567D01*
X121269799Y-73997193D01*
X121260078Y-74007918D01*
X121249353Y-74017639D01*
X121237727Y-74026262D01*
X121225311Y-74033703D01*
X121212226Y-74039892D01*
X121198597Y-74044769D01*
X121184556Y-74048286D01*
X121170238Y-74050410D01*
X121155780Y-74051120D01*
X120860780Y-74051120D01*
X120846322Y-74050410D01*
X120832004Y-74048286D01*
X120817963Y-74044769D01*
X120804334Y-74039892D01*
X120791249Y-74033703D01*
X120778833Y-74026262D01*
X120767207Y-74017639D01*
X120756482Y-74007918D01*
X120746761Y-73997193D01*
X120738138Y-73985567D01*
X120730697Y-73973151D01*
X120724508Y-73960066D01*
X120719631Y-73946437D01*
X120716114Y-73932396D01*
X120713990Y-73918078D01*
X120713280Y-73903620D01*
X120713280Y-73558620D01*
X120713990Y-73544162D01*
X120716114Y-73529844D01*
X120719631Y-73515803D01*
X120724508Y-73502174D01*
X120730697Y-73489089D01*
X120738138Y-73476673D01*
X120746761Y-73465047D01*
X120756482Y-73454322D01*
X120767207Y-73444601D01*
X120778833Y-73435978D01*
X120791249Y-73428537D01*
X120804334Y-73422348D01*
X120817963Y-73417471D01*
X120832004Y-73413954D01*
X120846322Y-73411830D01*
X120860780Y-73411120D01*
X121155780Y-73411120D01*
X121170238Y-73411830D01*
X121170238Y-73411830D01*
G37*
D12*
X121008280Y-73731120D03*
D11*
G36*
X122140238Y-73411830D02*
G01*
X122154556Y-73413954D01*
X122168597Y-73417471D01*
X122182226Y-73422348D01*
X122195311Y-73428537D01*
X122207727Y-73435978D01*
X122219353Y-73444601D01*
X122230078Y-73454322D01*
X122239799Y-73465047D01*
X122248422Y-73476673D01*
X122255863Y-73489089D01*
X122262052Y-73502174D01*
X122266929Y-73515803D01*
X122270446Y-73529844D01*
X122272570Y-73544162D01*
X122273280Y-73558620D01*
X122273280Y-73903620D01*
X122272570Y-73918078D01*
X122270446Y-73932396D01*
X122266929Y-73946437D01*
X122262052Y-73960066D01*
X122255863Y-73973151D01*
X122248422Y-73985567D01*
X122239799Y-73997193D01*
X122230078Y-74007918D01*
X122219353Y-74017639D01*
X122207727Y-74026262D01*
X122195311Y-74033703D01*
X122182226Y-74039892D01*
X122168597Y-74044769D01*
X122154556Y-74048286D01*
X122140238Y-74050410D01*
X122125780Y-74051120D01*
X121830780Y-74051120D01*
X121816322Y-74050410D01*
X121802004Y-74048286D01*
X121787963Y-74044769D01*
X121774334Y-74039892D01*
X121761249Y-74033703D01*
X121748833Y-74026262D01*
X121737207Y-74017639D01*
X121726482Y-74007918D01*
X121716761Y-73997193D01*
X121708138Y-73985567D01*
X121700697Y-73973151D01*
X121694508Y-73960066D01*
X121689631Y-73946437D01*
X121686114Y-73932396D01*
X121683990Y-73918078D01*
X121683280Y-73903620D01*
X121683280Y-73558620D01*
X121683990Y-73544162D01*
X121686114Y-73529844D01*
X121689631Y-73515803D01*
X121694508Y-73502174D01*
X121700697Y-73489089D01*
X121708138Y-73476673D01*
X121716761Y-73465047D01*
X121726482Y-73454322D01*
X121737207Y-73444601D01*
X121748833Y-73435978D01*
X121761249Y-73428537D01*
X121774334Y-73422348D01*
X121787963Y-73417471D01*
X121802004Y-73413954D01*
X121816322Y-73411830D01*
X121830780Y-73411120D01*
X122125780Y-73411120D01*
X122140238Y-73411830D01*
X122140238Y-73411830D01*
G37*
D12*
X121978280Y-73731120D03*
D13*
X123479560Y-72735400D03*
X123479560Y-73685400D03*
X123479560Y-74635400D03*
X125679560Y-74635400D03*
X125679560Y-72735400D03*
D10*
X112316280Y-74117200D03*
X112316280Y-72847200D03*
X112316280Y-71577200D03*
X112316280Y-70307200D03*
X117716280Y-70307200D03*
X117716280Y-71577200D03*
X117716280Y-72847200D03*
X117716280Y-74117200D03*
X117550000Y-61355000D03*
X117550000Y-60085000D03*
X117550000Y-58815000D03*
X117550000Y-57545000D03*
X112150000Y-57545000D03*
X112150000Y-58815000D03*
X112150000Y-60085000D03*
X112150000Y-61355000D03*
M02*
