G04 #@! TF.GenerationSoftware,KiCad,Pcbnew,(5.1.4-0)*
G04 #@! TF.CreationDate,2019-10-27T21:20:05-04:00*
G04 #@! TF.ProjectId,DifferentialSPIEncoder,44696666-6572-4656-9e74-69616c535049,rev?*
G04 #@! TF.SameCoordinates,Original*
G04 #@! TF.FileFunction,Legend,Bot*
G04 #@! TF.FilePolarity,Positive*
%FSLAX46Y46*%
G04 Gerber Fmt 4.6, Leading zero omitted, Abs format (unit mm)*
G04 Created by KiCad (PCBNEW (5.1.4-0)) date 2019-10-27 21:20:05*
%MOMM*%
%LPD*%
G04 APERTURE LIST*
%ADD10C,0.120000*%
%ADD11C,0.150000*%
%ADD12C,0.060000*%
G04 APERTURE END LIST*
D10*
X107800000Y-64585279D02*
X107800000Y-64259721D01*
X108820000Y-64585279D02*
X108820000Y-64259721D01*
D11*
X115405800Y-63364200D02*
X115405800Y-63489200D01*
X110755800Y-63364200D02*
X110755800Y-63589200D01*
X110755800Y-68614200D02*
X110755800Y-68389200D01*
X115405800Y-68614200D02*
X115405800Y-68389200D01*
X115405800Y-63364200D02*
X110755800Y-63364200D01*
X115405800Y-68614200D02*
X110755800Y-68614200D01*
X115405800Y-63489200D02*
X116755800Y-63489200D01*
X109382857Y-64589166D02*
X109335238Y-64636785D01*
X109287619Y-64779642D01*
X109287619Y-64874880D01*
X109335238Y-65017738D01*
X109430476Y-65112976D01*
X109525714Y-65160595D01*
X109716190Y-65208214D01*
X109859047Y-65208214D01*
X110049523Y-65160595D01*
X110144761Y-65112976D01*
X110240000Y-65017738D01*
X110287619Y-64874880D01*
X110287619Y-64779642D01*
X110240000Y-64636785D01*
X110192380Y-64589166D01*
X109287619Y-63636785D02*
X109287619Y-64208214D01*
X109287619Y-63922500D02*
X110287619Y-63922500D01*
X110144761Y-64017738D01*
X110049523Y-64112976D01*
X110001904Y-64208214D01*
D12*
X107788571Y-66906666D02*
X107812380Y-66882857D01*
X107836190Y-66811428D01*
X107836190Y-66763809D01*
X107812380Y-66692380D01*
X107764761Y-66644761D01*
X107717142Y-66620952D01*
X107621904Y-66597142D01*
X107550476Y-66597142D01*
X107455238Y-66620952D01*
X107407619Y-66644761D01*
X107360000Y-66692380D01*
X107336190Y-66763809D01*
X107336190Y-66811428D01*
X107360000Y-66882857D01*
X107383809Y-66906666D01*
X107336190Y-67073333D02*
X107336190Y-67382857D01*
X107526666Y-67216190D01*
X107526666Y-67287619D01*
X107550476Y-67335238D01*
X107574285Y-67359047D01*
X107621904Y-67382857D01*
X107740952Y-67382857D01*
X107788571Y-67359047D01*
X107812380Y-67335238D01*
X107836190Y-67287619D01*
X107836190Y-67144761D01*
X107812380Y-67097142D01*
X107788571Y-67073333D01*
X113461752Y-62165390D02*
X113461752Y-62570152D01*
X113437942Y-62617771D01*
X113414133Y-62641580D01*
X113366514Y-62665390D01*
X113271276Y-62665390D01*
X113223657Y-62641580D01*
X113199847Y-62617771D01*
X113176038Y-62570152D01*
X113176038Y-62165390D01*
X112961752Y-62213009D02*
X112937942Y-62189200D01*
X112890323Y-62165390D01*
X112771276Y-62165390D01*
X112723657Y-62189200D01*
X112699847Y-62213009D01*
X112676038Y-62260628D01*
X112676038Y-62308247D01*
X112699847Y-62379676D01*
X112985561Y-62665390D01*
X112676038Y-62665390D01*
M02*
