G04 #@! TF.GenerationSoftware,KiCad,Pcbnew,(5.1.4-0)*
G04 #@! TF.CreationDate,2019-10-27T21:20:05-04:00*
G04 #@! TF.ProjectId,DifferentialSPIEncoder,44696666-6572-4656-9e74-69616c535049,rev?*
G04 #@! TF.SameCoordinates,Original*
G04 #@! TF.FileFunction,Legend,Top*
G04 #@! TF.FilePolarity,Positive*
%FSLAX46Y46*%
G04 Gerber Fmt 4.6, Leading zero omitted, Abs format (unit mm)*
G04 Created by KiCad (PCBNEW (5.1.4-0)) date 2019-10-27 21:20:05*
%MOMM*%
%LPD*%
G04 APERTURE LIST*
%ADD10C,0.120000*%
%ADD11C,0.150000*%
%ADD12C,0.090000*%
%ADD13C,0.060000*%
G04 APERTURE END LIST*
D10*
X130230000Y-68830000D02*
X128900000Y-68830000D01*
X130230000Y-67500000D02*
X130230000Y-68830000D01*
X130230000Y-66230000D02*
X127570000Y-66230000D01*
X127570000Y-66230000D02*
X127570000Y-56010000D01*
X130230000Y-66230000D02*
X130230000Y-56010000D01*
X130230000Y-56010000D02*
X127570000Y-56010000D01*
X100452680Y-74565800D02*
X100952680Y-74065800D01*
X101452680Y-74565800D02*
X100452680Y-74565800D01*
X100952680Y-74065800D02*
X101452680Y-74565800D01*
X109267680Y-57185800D02*
X103592680Y-57185800D01*
X109267680Y-73825800D02*
X103592680Y-73825800D01*
X109267680Y-73825800D02*
X109267680Y-57185800D01*
X93387680Y-57185800D02*
X101092680Y-57185800D01*
X93387680Y-73825800D02*
X101092680Y-73825800D01*
X93387680Y-73825800D02*
X93387680Y-57185800D01*
D11*
X117070960Y-68757240D02*
X117070960Y-68707240D01*
X112920960Y-68757240D02*
X112920960Y-68612240D01*
X112920960Y-63607240D02*
X112920960Y-63752240D01*
X117070960Y-63607240D02*
X117070960Y-63752240D01*
X117070960Y-68757240D02*
X112920960Y-68757240D01*
X117070960Y-63607240D02*
X112920960Y-63607240D01*
X117070960Y-68707240D02*
X118470960Y-68707240D01*
D10*
X123679560Y-75295400D02*
X125479560Y-75295400D01*
X125479560Y-72075400D02*
X123029560Y-72075400D01*
D11*
X117091280Y-74737200D02*
X118491280Y-74737200D01*
X117091280Y-69637200D02*
X112941280Y-69637200D01*
X117091280Y-74787200D02*
X112941280Y-74787200D01*
X117091280Y-69637200D02*
X117091280Y-69782200D01*
X112941280Y-69637200D02*
X112941280Y-69782200D01*
X112941280Y-74787200D02*
X112941280Y-74642200D01*
X117091280Y-74787200D02*
X117091280Y-74737200D01*
X116925000Y-62025000D02*
X116925000Y-61975000D01*
X112775000Y-62025000D02*
X112775000Y-61880000D01*
X112775000Y-56875000D02*
X112775000Y-57020000D01*
X116925000Y-56875000D02*
X116925000Y-57020000D01*
X116925000Y-62025000D02*
X112775000Y-62025000D01*
X116925000Y-56875000D02*
X112775000Y-56875000D01*
X116925000Y-61975000D02*
X118325000Y-61975000D01*
X122766666Y-63252380D02*
X122433333Y-62776190D01*
X122195238Y-63252380D02*
X122195238Y-62252380D01*
X122576190Y-62252380D01*
X122671428Y-62300000D01*
X122719047Y-62347619D01*
X122766666Y-62442857D01*
X122766666Y-62585714D01*
X122719047Y-62680952D01*
X122671428Y-62728571D01*
X122576190Y-62776190D01*
X122195238Y-62776190D01*
X123195238Y-62728571D02*
X123528571Y-62728571D01*
X123671428Y-63252380D02*
X123195238Y-63252380D01*
X123195238Y-62252380D01*
X123671428Y-62252380D01*
X124433333Y-62728571D02*
X124100000Y-62728571D01*
X124100000Y-63252380D02*
X124100000Y-62252380D01*
X124576190Y-62252380D01*
X125100000Y-62252380D02*
X125100000Y-62490476D01*
X124861904Y-62395238D02*
X125100000Y-62490476D01*
X125338095Y-62395238D01*
X124957142Y-62680952D02*
X125100000Y-62490476D01*
X125242857Y-62680952D01*
X125861904Y-62252380D02*
X125861904Y-62490476D01*
X125623809Y-62395238D02*
X125861904Y-62490476D01*
X126100000Y-62395238D01*
X125719047Y-62680952D02*
X125861904Y-62490476D01*
X126004761Y-62680952D01*
X111766666Y-74252380D02*
X111433333Y-73776190D01*
X111195238Y-74252380D02*
X111195238Y-73252380D01*
X111576190Y-73252380D01*
X111671428Y-73300000D01*
X111719047Y-73347619D01*
X111766666Y-73442857D01*
X111766666Y-73585714D01*
X111719047Y-73680952D01*
X111671428Y-73728571D01*
X111576190Y-73776190D01*
X111195238Y-73776190D01*
X112195238Y-73728571D02*
X112528571Y-73728571D01*
X112671428Y-74252380D02*
X112195238Y-74252380D01*
X112195238Y-73252380D01*
X112671428Y-73252380D01*
X113433333Y-73728571D02*
X113100000Y-73728571D01*
X113100000Y-74252380D02*
X113100000Y-73252380D01*
X113576190Y-73252380D01*
X114100000Y-73252380D02*
X114100000Y-73490476D01*
X113861904Y-73395238D02*
X114100000Y-73490476D01*
X114338095Y-73395238D01*
X113957142Y-73680952D02*
X114100000Y-73490476D01*
X114242857Y-73680952D01*
X114861904Y-73252380D02*
X114861904Y-73490476D01*
X114623809Y-73395238D02*
X114861904Y-73490476D01*
X115100000Y-73395238D01*
X114719047Y-73680952D02*
X114861904Y-73490476D01*
X115004761Y-73680952D01*
X111766666Y-52252380D02*
X111433333Y-51776190D01*
X111195238Y-52252380D02*
X111195238Y-51252380D01*
X111576190Y-51252380D01*
X111671428Y-51300000D01*
X111719047Y-51347619D01*
X111766666Y-51442857D01*
X111766666Y-51585714D01*
X111719047Y-51680952D01*
X111671428Y-51728571D01*
X111576190Y-51776190D01*
X111195238Y-51776190D01*
X112195238Y-51728571D02*
X112528571Y-51728571D01*
X112671428Y-52252380D02*
X112195238Y-52252380D01*
X112195238Y-51252380D01*
X112671428Y-51252380D01*
X113433333Y-51728571D02*
X113100000Y-51728571D01*
X113100000Y-52252380D02*
X113100000Y-51252380D01*
X113576190Y-51252380D01*
X114100000Y-51252380D02*
X114100000Y-51490476D01*
X113861904Y-51395238D02*
X114100000Y-51490476D01*
X114338095Y-51395238D01*
X113957142Y-51680952D02*
X114100000Y-51490476D01*
X114242857Y-51680952D01*
X114861904Y-51252380D02*
X114861904Y-51490476D01*
X114623809Y-51395238D02*
X114861904Y-51490476D01*
X115100000Y-51395238D01*
X114719047Y-51680952D02*
X114861904Y-51490476D01*
X115004761Y-51680952D01*
X128566666Y-69282380D02*
X128566666Y-69996666D01*
X128519047Y-70139523D01*
X128423809Y-70234761D01*
X128280952Y-70282380D01*
X128185714Y-70282380D01*
X129566666Y-70282380D02*
X128995238Y-70282380D01*
X129280952Y-70282380D02*
X129280952Y-69282380D01*
X129185714Y-69425238D01*
X129090476Y-69520476D01*
X128995238Y-69568095D01*
D12*
X94732860Y-65131933D02*
X95447146Y-65131933D01*
X95590003Y-65179552D01*
X95685241Y-65274790D01*
X95732860Y-65417647D01*
X95732860Y-65512885D01*
X94828099Y-64703361D02*
X94780480Y-64655742D01*
X94732860Y-64560504D01*
X94732860Y-64322409D01*
X94780480Y-64227171D01*
X94828099Y-64179552D01*
X94923337Y-64131933D01*
X95018575Y-64131933D01*
X95161432Y-64179552D01*
X95732860Y-64750980D01*
X95732860Y-64131933D01*
D13*
X114615007Y-66187830D02*
X114615007Y-66592592D01*
X114638817Y-66640211D01*
X114662626Y-66664020D01*
X114710245Y-66687830D01*
X114805483Y-66687830D01*
X114853102Y-66664020D01*
X114876912Y-66640211D01*
X114900721Y-66592592D01*
X114900721Y-66187830D01*
X115091198Y-66187830D02*
X115400721Y-66187830D01*
X115234055Y-66378306D01*
X115305483Y-66378306D01*
X115353102Y-66402116D01*
X115376912Y-66425925D01*
X115400721Y-66473544D01*
X115400721Y-66592592D01*
X115376912Y-66640211D01*
X115353102Y-66664020D01*
X115305483Y-66687830D01*
X115162626Y-66687830D01*
X115115007Y-66664020D01*
X115091198Y-66640211D01*
X110887150Y-57988748D02*
X110649055Y-58155415D01*
X110887150Y-58274462D02*
X110387150Y-58274462D01*
X110387150Y-58083986D01*
X110410960Y-58036367D01*
X110434769Y-58012558D01*
X110482388Y-57988748D01*
X110553817Y-57988748D01*
X110601436Y-58012558D01*
X110625245Y-58036367D01*
X110649055Y-58083986D01*
X110649055Y-58274462D01*
X110887150Y-57512558D02*
X110887150Y-57798272D01*
X110887150Y-57655415D02*
X110387150Y-57655415D01*
X110458579Y-57703034D01*
X110506198Y-57750653D01*
X110530007Y-57798272D01*
X110387150Y-57203034D02*
X110387150Y-57155415D01*
X110410960Y-57107796D01*
X110434769Y-57083986D01*
X110482388Y-57060177D01*
X110577626Y-57036367D01*
X110696674Y-57036367D01*
X110791912Y-57060177D01*
X110839531Y-57083986D01*
X110863340Y-57107796D01*
X110887150Y-57155415D01*
X110887150Y-57203034D01*
X110863340Y-57250653D01*
X110839531Y-57274462D01*
X110791912Y-57298272D01*
X110696674Y-57322081D01*
X110577626Y-57322081D01*
X110482388Y-57298272D01*
X110434769Y-57274462D01*
X110410960Y-57250653D01*
X110387150Y-57203034D01*
X110981590Y-64835053D02*
X110743495Y-65001720D01*
X110981590Y-65120767D02*
X110481590Y-65120767D01*
X110481590Y-64930291D01*
X110505400Y-64882672D01*
X110529209Y-64858862D01*
X110576828Y-64835053D01*
X110648257Y-64835053D01*
X110695876Y-64858862D01*
X110719685Y-64882672D01*
X110743495Y-64930291D01*
X110743495Y-65120767D01*
X110981590Y-64596958D02*
X110981590Y-64501720D01*
X110957780Y-64454100D01*
X110933971Y-64430291D01*
X110862542Y-64382672D01*
X110767304Y-64358862D01*
X110576828Y-64358862D01*
X110529209Y-64382672D01*
X110505400Y-64406481D01*
X110481590Y-64454100D01*
X110481590Y-64549339D01*
X110505400Y-64596958D01*
X110529209Y-64620767D01*
X110576828Y-64644577D01*
X110695876Y-64644577D01*
X110743495Y-64620767D01*
X110767304Y-64596958D01*
X110791114Y-64549339D01*
X110791114Y-64454100D01*
X110767304Y-64406481D01*
X110743495Y-64382672D01*
X110695876Y-64358862D01*
X119967226Y-72775270D02*
X119800560Y-72537175D01*
X119681512Y-72775270D02*
X119681512Y-72275270D01*
X119871988Y-72275270D01*
X119919607Y-72299080D01*
X119943417Y-72322889D01*
X119967226Y-72370508D01*
X119967226Y-72441937D01*
X119943417Y-72489556D01*
X119919607Y-72513365D01*
X119871988Y-72537175D01*
X119681512Y-72537175D01*
X120252940Y-72489556D02*
X120205321Y-72465746D01*
X120181512Y-72441937D01*
X120157702Y-72394318D01*
X120157702Y-72370508D01*
X120181512Y-72322889D01*
X120205321Y-72299080D01*
X120252940Y-72275270D01*
X120348179Y-72275270D01*
X120395798Y-72299080D01*
X120419607Y-72322889D01*
X120443417Y-72370508D01*
X120443417Y-72394318D01*
X120419607Y-72441937D01*
X120395798Y-72465746D01*
X120348179Y-72489556D01*
X120252940Y-72489556D01*
X120205321Y-72513365D01*
X120181512Y-72537175D01*
X120157702Y-72584794D01*
X120157702Y-72680032D01*
X120181512Y-72727651D01*
X120205321Y-72751460D01*
X120252940Y-72775270D01*
X120348179Y-72775270D01*
X120395798Y-72751460D01*
X120419607Y-72727651D01*
X120443417Y-72680032D01*
X120443417Y-72584794D01*
X120419607Y-72537175D01*
X120395798Y-72513365D01*
X120348179Y-72489556D01*
X119061030Y-64464853D02*
X118822935Y-64631520D01*
X119061030Y-64750567D02*
X118561030Y-64750567D01*
X118561030Y-64560091D01*
X118584840Y-64512472D01*
X118608649Y-64488662D01*
X118656268Y-64464853D01*
X118727697Y-64464853D01*
X118775316Y-64488662D01*
X118799125Y-64512472D01*
X118822935Y-64560091D01*
X118822935Y-64750567D01*
X118561030Y-64298186D02*
X118561030Y-63964853D01*
X119061030Y-64179139D01*
X121288026Y-65854710D02*
X121121360Y-65616615D01*
X121002312Y-65854710D02*
X121002312Y-65354710D01*
X121192788Y-65354710D01*
X121240407Y-65378520D01*
X121264217Y-65402329D01*
X121288026Y-65449948D01*
X121288026Y-65521377D01*
X121264217Y-65568996D01*
X121240407Y-65592805D01*
X121192788Y-65616615D01*
X121002312Y-65616615D01*
X121716598Y-65354710D02*
X121621360Y-65354710D01*
X121573740Y-65378520D01*
X121549931Y-65402329D01*
X121502312Y-65473758D01*
X121478502Y-65568996D01*
X121478502Y-65759472D01*
X121502312Y-65807091D01*
X121526121Y-65830900D01*
X121573740Y-65854710D01*
X121668979Y-65854710D01*
X121716598Y-65830900D01*
X121740407Y-65807091D01*
X121764217Y-65759472D01*
X121764217Y-65640424D01*
X121740407Y-65592805D01*
X121716598Y-65568996D01*
X121668979Y-65545186D01*
X121573740Y-65545186D01*
X121526121Y-65568996D01*
X121502312Y-65592805D01*
X121478502Y-65640424D01*
X119728110Y-58005493D02*
X119490015Y-58172160D01*
X119728110Y-58291207D02*
X119228110Y-58291207D01*
X119228110Y-58100731D01*
X119251920Y-58053112D01*
X119275729Y-58029302D01*
X119323348Y-58005493D01*
X119394777Y-58005493D01*
X119442396Y-58029302D01*
X119466205Y-58053112D01*
X119490015Y-58100731D01*
X119490015Y-58291207D01*
X119228110Y-57553112D02*
X119228110Y-57791207D01*
X119466205Y-57815017D01*
X119442396Y-57791207D01*
X119418586Y-57743588D01*
X119418586Y-57624540D01*
X119442396Y-57576921D01*
X119466205Y-57553112D01*
X119513824Y-57529302D01*
X119632872Y-57529302D01*
X119680491Y-57553112D01*
X119704300Y-57576921D01*
X119728110Y-57624540D01*
X119728110Y-57743588D01*
X119704300Y-57791207D01*
X119680491Y-57815017D01*
X121483466Y-69232910D02*
X121316800Y-68994815D01*
X121197752Y-69232910D02*
X121197752Y-68732910D01*
X121388228Y-68732910D01*
X121435847Y-68756720D01*
X121459657Y-68780529D01*
X121483466Y-68828148D01*
X121483466Y-68899577D01*
X121459657Y-68947196D01*
X121435847Y-68971005D01*
X121388228Y-68994815D01*
X121197752Y-68994815D01*
X121912038Y-68899577D02*
X121912038Y-69232910D01*
X121792990Y-68709100D02*
X121673942Y-69066243D01*
X121983466Y-69066243D01*
X120043426Y-62481590D02*
X119876760Y-62243495D01*
X119757712Y-62481590D02*
X119757712Y-61981590D01*
X119948188Y-61981590D01*
X119995807Y-62005400D01*
X120019617Y-62029209D01*
X120043426Y-62076828D01*
X120043426Y-62148257D01*
X120019617Y-62195876D01*
X119995807Y-62219685D01*
X119948188Y-62243495D01*
X119757712Y-62243495D01*
X120210093Y-61981590D02*
X120519617Y-61981590D01*
X120352950Y-62172066D01*
X120424379Y-62172066D01*
X120471998Y-62195876D01*
X120495807Y-62219685D01*
X120519617Y-62267304D01*
X120519617Y-62386352D01*
X120495807Y-62433971D01*
X120471998Y-62457780D01*
X120424379Y-62481590D01*
X120281521Y-62481590D01*
X120233902Y-62457780D01*
X120210093Y-62433971D01*
X121323586Y-68506470D02*
X121156920Y-68268375D01*
X121037872Y-68506470D02*
X121037872Y-68006470D01*
X121228348Y-68006470D01*
X121275967Y-68030280D01*
X121299777Y-68054089D01*
X121323586Y-68101708D01*
X121323586Y-68173137D01*
X121299777Y-68220756D01*
X121275967Y-68244565D01*
X121228348Y-68268375D01*
X121037872Y-68268375D01*
X121514062Y-68054089D02*
X121537872Y-68030280D01*
X121585491Y-68006470D01*
X121704539Y-68006470D01*
X121752158Y-68030280D01*
X121775967Y-68054089D01*
X121799777Y-68101708D01*
X121799777Y-68149327D01*
X121775967Y-68220756D01*
X121490253Y-68506470D01*
X121799777Y-68506470D01*
X112546666Y-61856190D02*
X112380000Y-61618095D01*
X112260952Y-61856190D02*
X112260952Y-61356190D01*
X112451428Y-61356190D01*
X112499047Y-61380000D01*
X112522857Y-61403809D01*
X112546666Y-61451428D01*
X112546666Y-61522857D01*
X112522857Y-61570476D01*
X112499047Y-61594285D01*
X112451428Y-61618095D01*
X112260952Y-61618095D01*
X113022857Y-61856190D02*
X112737142Y-61856190D01*
X112880000Y-61856190D02*
X112880000Y-61356190D01*
X112832380Y-61427619D01*
X112784761Y-61475238D01*
X112737142Y-61499047D01*
X109048051Y-62039013D02*
X109071860Y-62062822D01*
X109095670Y-62134251D01*
X109095670Y-62181870D01*
X109071860Y-62253299D01*
X109024241Y-62300918D01*
X108976622Y-62324727D01*
X108881384Y-62348537D01*
X108809956Y-62348537D01*
X108714718Y-62324727D01*
X108667099Y-62300918D01*
X108619480Y-62253299D01*
X108595670Y-62181870D01*
X108595670Y-62134251D01*
X108619480Y-62062822D01*
X108643289Y-62039013D01*
X109095670Y-61800918D02*
X109095670Y-61705680D01*
X109071860Y-61658060D01*
X109048051Y-61634251D01*
X108976622Y-61586632D01*
X108881384Y-61562822D01*
X108690908Y-61562822D01*
X108643289Y-61586632D01*
X108619480Y-61610441D01*
X108595670Y-61658060D01*
X108595670Y-61753299D01*
X108619480Y-61800918D01*
X108643289Y-61824727D01*
X108690908Y-61848537D01*
X108809956Y-61848537D01*
X108857575Y-61824727D01*
X108881384Y-61800918D01*
X108905194Y-61753299D01*
X108905194Y-61658060D01*
X108881384Y-61610441D01*
X108857575Y-61586632D01*
X108809956Y-61562822D01*
X110744771Y-72061853D02*
X110768580Y-72085662D01*
X110792390Y-72157091D01*
X110792390Y-72204710D01*
X110768580Y-72276139D01*
X110720961Y-72323758D01*
X110673342Y-72347567D01*
X110578104Y-72371377D01*
X110506676Y-72371377D01*
X110411438Y-72347567D01*
X110363819Y-72323758D01*
X110316200Y-72276139D01*
X110292390Y-72204710D01*
X110292390Y-72157091D01*
X110316200Y-72085662D01*
X110340009Y-72061853D01*
X110506676Y-71776139D02*
X110482866Y-71823758D01*
X110459057Y-71847567D01*
X110411438Y-71871377D01*
X110387628Y-71871377D01*
X110340009Y-71847567D01*
X110316200Y-71823758D01*
X110292390Y-71776139D01*
X110292390Y-71680900D01*
X110316200Y-71633281D01*
X110340009Y-71609472D01*
X110387628Y-71585662D01*
X110411438Y-71585662D01*
X110459057Y-71609472D01*
X110482866Y-71633281D01*
X110506676Y-71680900D01*
X110506676Y-71776139D01*
X110530485Y-71823758D01*
X110554295Y-71847567D01*
X110601914Y-71871377D01*
X110697152Y-71871377D01*
X110744771Y-71847567D01*
X110768580Y-71823758D01*
X110792390Y-71776139D01*
X110792390Y-71680900D01*
X110768580Y-71633281D01*
X110744771Y-71609472D01*
X110697152Y-71585662D01*
X110601914Y-71585662D01*
X110554295Y-71609472D01*
X110530485Y-71633281D01*
X110506676Y-71680900D01*
X110894211Y-70560133D02*
X110918020Y-70583942D01*
X110941830Y-70655371D01*
X110941830Y-70702990D01*
X110918020Y-70774419D01*
X110870401Y-70822038D01*
X110822782Y-70845847D01*
X110727544Y-70869657D01*
X110656116Y-70869657D01*
X110560878Y-70845847D01*
X110513259Y-70822038D01*
X110465640Y-70774419D01*
X110441830Y-70702990D01*
X110441830Y-70655371D01*
X110465640Y-70583942D01*
X110489449Y-70560133D01*
X110441830Y-70393466D02*
X110441830Y-70060133D01*
X110941830Y-70274419D01*
X121348706Y-70511171D02*
X121324897Y-70534980D01*
X121253468Y-70558790D01*
X121205849Y-70558790D01*
X121134420Y-70534980D01*
X121086801Y-70487361D01*
X121062992Y-70439742D01*
X121039182Y-70344504D01*
X121039182Y-70273076D01*
X121062992Y-70177838D01*
X121086801Y-70130219D01*
X121134420Y-70082600D01*
X121205849Y-70058790D01*
X121253468Y-70058790D01*
X121324897Y-70082600D01*
X121348706Y-70106409D01*
X121777278Y-70058790D02*
X121682040Y-70058790D01*
X121634420Y-70082600D01*
X121610611Y-70106409D01*
X121562992Y-70177838D01*
X121539182Y-70273076D01*
X121539182Y-70463552D01*
X121562992Y-70511171D01*
X121586801Y-70534980D01*
X121634420Y-70558790D01*
X121729659Y-70558790D01*
X121777278Y-70534980D01*
X121801087Y-70511171D01*
X121824897Y-70463552D01*
X121824897Y-70344504D01*
X121801087Y-70296885D01*
X121777278Y-70273076D01*
X121729659Y-70249266D01*
X121634420Y-70249266D01*
X121586801Y-70273076D01*
X121562992Y-70296885D01*
X121539182Y-70344504D01*
X121910611Y-59587773D02*
X121934420Y-59611582D01*
X121958230Y-59683011D01*
X121958230Y-59730630D01*
X121934420Y-59802059D01*
X121886801Y-59849678D01*
X121839182Y-59873487D01*
X121743944Y-59897297D01*
X121672516Y-59897297D01*
X121577278Y-59873487D01*
X121529659Y-59849678D01*
X121482040Y-59802059D01*
X121458230Y-59730630D01*
X121458230Y-59683011D01*
X121482040Y-59611582D01*
X121505849Y-59587773D01*
X121458230Y-59135392D02*
X121458230Y-59373487D01*
X121696325Y-59397297D01*
X121672516Y-59373487D01*
X121648706Y-59325868D01*
X121648706Y-59206820D01*
X121672516Y-59159201D01*
X121696325Y-59135392D01*
X121743944Y-59111582D01*
X121862992Y-59111582D01*
X121910611Y-59135392D01*
X121934420Y-59159201D01*
X121958230Y-59206820D01*
X121958230Y-59325868D01*
X121934420Y-59373487D01*
X121910611Y-59397297D01*
X123358411Y-68277253D02*
X123382220Y-68301062D01*
X123406030Y-68372491D01*
X123406030Y-68420110D01*
X123382220Y-68491539D01*
X123334601Y-68539158D01*
X123286982Y-68562967D01*
X123191744Y-68586777D01*
X123120316Y-68586777D01*
X123025078Y-68562967D01*
X122977459Y-68539158D01*
X122929840Y-68491539D01*
X122906030Y-68420110D01*
X122906030Y-68372491D01*
X122929840Y-68301062D01*
X122953649Y-68277253D01*
X123072697Y-67848681D02*
X123406030Y-67848681D01*
X122882220Y-67967729D02*
X123239363Y-68086777D01*
X123239363Y-67777253D01*
X128606571Y-73402973D02*
X128630380Y-73426782D01*
X128654190Y-73498211D01*
X128654190Y-73545830D01*
X128630380Y-73617259D01*
X128582761Y-73664878D01*
X128535142Y-73688687D01*
X128439904Y-73712497D01*
X128368476Y-73712497D01*
X128273238Y-73688687D01*
X128225619Y-73664878D01*
X128178000Y-73617259D01*
X128154190Y-73545830D01*
X128154190Y-73498211D01*
X128178000Y-73426782D01*
X128201809Y-73402973D01*
X128201809Y-73212497D02*
X128178000Y-73188687D01*
X128154190Y-73141068D01*
X128154190Y-73022020D01*
X128178000Y-72974401D01*
X128201809Y-72950592D01*
X128249428Y-72926782D01*
X128297047Y-72926782D01*
X128368476Y-72950592D01*
X128654190Y-73236306D01*
X128654190Y-72926782D01*
X121409946Y-75079691D02*
X121386137Y-75103500D01*
X121314708Y-75127310D01*
X121267089Y-75127310D01*
X121195660Y-75103500D01*
X121148041Y-75055881D01*
X121124232Y-75008262D01*
X121100422Y-74913024D01*
X121100422Y-74841596D01*
X121124232Y-74746358D01*
X121148041Y-74698739D01*
X121195660Y-74651120D01*
X121267089Y-74627310D01*
X121314708Y-74627310D01*
X121386137Y-74651120D01*
X121409946Y-74674929D01*
X121886137Y-75127310D02*
X121600422Y-75127310D01*
X121743280Y-75127310D02*
X121743280Y-74627310D01*
X121695660Y-74698739D01*
X121648041Y-74746358D01*
X121600422Y-74770167D01*
X124605007Y-73548750D02*
X124605007Y-73953512D01*
X124628817Y-74001131D01*
X124652626Y-74024940D01*
X124700245Y-74048750D01*
X124795483Y-74048750D01*
X124843102Y-74024940D01*
X124866912Y-74001131D01*
X124890721Y-73953512D01*
X124890721Y-73548750D01*
X125390721Y-74048750D02*
X125105007Y-74048750D01*
X125247864Y-74048750D02*
X125247864Y-73548750D01*
X125200245Y-73620179D01*
X125152626Y-73667798D01*
X125105007Y-73691607D01*
X114635327Y-71684390D02*
X114635327Y-72089152D01*
X114659137Y-72136771D01*
X114682946Y-72160580D01*
X114730565Y-72184390D01*
X114825803Y-72184390D01*
X114873422Y-72160580D01*
X114897232Y-72136771D01*
X114921041Y-72089152D01*
X114921041Y-71684390D01*
X115373422Y-71851057D02*
X115373422Y-72184390D01*
X115254375Y-71660580D02*
X115135327Y-72017723D01*
X115444851Y-72017723D01*
X114469047Y-59811190D02*
X114469047Y-60215952D01*
X114492857Y-60263571D01*
X114516666Y-60287380D01*
X114564285Y-60311190D01*
X114659523Y-60311190D01*
X114707142Y-60287380D01*
X114730952Y-60263571D01*
X114754761Y-60215952D01*
X114754761Y-59811190D01*
X115230952Y-59811190D02*
X114992857Y-59811190D01*
X114969047Y-60049285D01*
X114992857Y-60025476D01*
X115040476Y-60001666D01*
X115159523Y-60001666D01*
X115207142Y-60025476D01*
X115230952Y-60049285D01*
X115254761Y-60096904D01*
X115254761Y-60215952D01*
X115230952Y-60263571D01*
X115207142Y-60287380D01*
X115159523Y-60311190D01*
X115040476Y-60311190D01*
X114992857Y-60287380D01*
X114969047Y-60263571D01*
M02*
