M48
INCH,TZ
T1C0.0118
T2C0.0350
T3C0.0394
T4C0.0618
T5C0.0866
T6C0.1280
%
G90
G05
T1
X42197Y-26150
X43130Y-24547
X43268Y-23238
X43268Y-23573
X43465Y-28445
X44134Y-27126
X44778Y-25298
X44784Y-27590
X44980Y-22800
X45039Y-24677
X45591Y-29203
X47204Y-29022
X47666Y-24990
X47868Y-27422
X47913Y-26201
X47929Y-27792
X47930Y-24120
X47956Y-23236
X48306Y-27114
X49124Y-29008
X50098Y-29429
T2
X39942Y-24782
X39942Y-25585
X39942Y-26388
X39942Y-27191
X40643Y-24380
X40643Y-25183
X40643Y-25987
X40643Y-26790
T3
X50748Y-22575
X50748Y-23575
X50748Y-24575
X50748Y-25575
X50748Y-26575
T4
X40292Y-22589
X40292Y-28990
T5
X44528Y-21654
X48858Y-25984
X44528Y-30315
T6
X38942Y-23290
X38942Y-28290
T0
M30
