G04 #@! TF.GenerationSoftware,KiCad,Pcbnew,(5.1.4-0)*
G04 #@! TF.CreationDate,2019-10-27T21:20:05-04:00*
G04 #@! TF.ProjectId,DifferentialSPIEncoder,44696666-6572-4656-9e74-69616c535049,rev?*
G04 #@! TF.SameCoordinates,Original*
G04 #@! TF.FileFunction,Profile,NP*
%FSLAX46Y46*%
G04 Gerber Fmt 4.6, Leading zero omitted, Abs format (unit mm)*
G04 Created by KiCad (PCBNEW (5.1.4-0)) date 2019-10-27 21:20:05*
%MOMM*%
%LPD*%
G04 APERTURE LIST*
%ADD10C,0.100000*%
G04 APERTURE END LIST*
D10*
X115081864Y-78221693D02*
X115431000Y-76989200D01*
X114221650Y-79043808D02*
X115081864Y-78221693D01*
X113443780Y-79311029D02*
X114221650Y-79043808D01*
X112718219Y-79311029D02*
X113443780Y-79311029D01*
X111940349Y-79043808D02*
X112718219Y-79311029D01*
X111080135Y-78221693D02*
X111940349Y-79043808D01*
X110731000Y-76989200D02*
X111080135Y-78221693D01*
X95886172Y-76989200D02*
X110731000Y-76989200D01*
X95280149Y-76383177D02*
X95886172Y-76989200D01*
X95280149Y-55595222D02*
X95280149Y-76383177D01*
X95886172Y-54989200D02*
X95280149Y-55595222D01*
X110731000Y-54989200D02*
X95886172Y-54989200D01*
X111080135Y-53756706D02*
X110731000Y-54989200D01*
X111940349Y-52934591D02*
X111080135Y-53756706D01*
X112718219Y-52667370D02*
X111940349Y-52934591D01*
X113443780Y-52667370D02*
X112718219Y-52667370D01*
X114221650Y-52934591D02*
X113443780Y-52667370D01*
X115081864Y-53756706D02*
X114221650Y-52934591D01*
X115431000Y-54989200D02*
X115081864Y-53756706D01*
X130275827Y-54989200D02*
X115431000Y-54989200D01*
X130881849Y-55595222D02*
X130275827Y-54989200D01*
X130881849Y-76383177D02*
X130881849Y-55595222D01*
X130275827Y-76989200D02*
X130881849Y-76383177D01*
X115431000Y-76989200D02*
X130275827Y-76989200D01*
M02*
