G04 #@! TF.GenerationSoftware,KiCad,Pcbnew,(5.1.4-0)*
G04 #@! TF.CreationDate,2019-10-27T21:20:05-04:00*
G04 #@! TF.ProjectId,DifferentialSPIEncoder,44696666-6572-4656-9e74-69616c535049,rev?*
G04 #@! TF.SameCoordinates,Original*
G04 #@! TF.FileFunction,Paste,Bot*
G04 #@! TF.FilePolarity,Positive*
%FSLAX46Y46*%
G04 Gerber Fmt 4.6, Leading zero omitted, Abs format (unit mm)*
G04 Created by KiCad (PCBNEW (5.1.4-0)) date 2019-10-27 21:20:05*
%MOMM*%
%LPD*%
G04 APERTURE LIST*
%ADD10C,0.100000*%
%ADD11C,0.875000*%
%ADD12C,0.590000*%
%ADD13R,1.450000X0.450000*%
G04 APERTURE END LIST*
D10*
G36*
X108587691Y-63198553D02*
G01*
X108608926Y-63201703D01*
X108629750Y-63206919D01*
X108649962Y-63214151D01*
X108669368Y-63223330D01*
X108687781Y-63234366D01*
X108705024Y-63247154D01*
X108720930Y-63261570D01*
X108735346Y-63277476D01*
X108748134Y-63294719D01*
X108759170Y-63313132D01*
X108768349Y-63332538D01*
X108775581Y-63352750D01*
X108780797Y-63373574D01*
X108783947Y-63394809D01*
X108785000Y-63416250D01*
X108785000Y-63853750D01*
X108783947Y-63875191D01*
X108780797Y-63896426D01*
X108775581Y-63917250D01*
X108768349Y-63937462D01*
X108759170Y-63956868D01*
X108748134Y-63975281D01*
X108735346Y-63992524D01*
X108720930Y-64008430D01*
X108705024Y-64022846D01*
X108687781Y-64035634D01*
X108669368Y-64046670D01*
X108649962Y-64055849D01*
X108629750Y-64063081D01*
X108608926Y-64068297D01*
X108587691Y-64071447D01*
X108566250Y-64072500D01*
X108053750Y-64072500D01*
X108032309Y-64071447D01*
X108011074Y-64068297D01*
X107990250Y-64063081D01*
X107970038Y-64055849D01*
X107950632Y-64046670D01*
X107932219Y-64035634D01*
X107914976Y-64022846D01*
X107899070Y-64008430D01*
X107884654Y-63992524D01*
X107871866Y-63975281D01*
X107860830Y-63956868D01*
X107851651Y-63937462D01*
X107844419Y-63917250D01*
X107839203Y-63896426D01*
X107836053Y-63875191D01*
X107835000Y-63853750D01*
X107835000Y-63416250D01*
X107836053Y-63394809D01*
X107839203Y-63373574D01*
X107844419Y-63352750D01*
X107851651Y-63332538D01*
X107860830Y-63313132D01*
X107871866Y-63294719D01*
X107884654Y-63277476D01*
X107899070Y-63261570D01*
X107914976Y-63247154D01*
X107932219Y-63234366D01*
X107950632Y-63223330D01*
X107970038Y-63214151D01*
X107990250Y-63206919D01*
X108011074Y-63201703D01*
X108032309Y-63198553D01*
X108053750Y-63197500D01*
X108566250Y-63197500D01*
X108587691Y-63198553D01*
X108587691Y-63198553D01*
G37*
D11*
X108310000Y-63635000D03*
D10*
G36*
X108587691Y-64773553D02*
G01*
X108608926Y-64776703D01*
X108629750Y-64781919D01*
X108649962Y-64789151D01*
X108669368Y-64798330D01*
X108687781Y-64809366D01*
X108705024Y-64822154D01*
X108720930Y-64836570D01*
X108735346Y-64852476D01*
X108748134Y-64869719D01*
X108759170Y-64888132D01*
X108768349Y-64907538D01*
X108775581Y-64927750D01*
X108780797Y-64948574D01*
X108783947Y-64969809D01*
X108785000Y-64991250D01*
X108785000Y-65428750D01*
X108783947Y-65450191D01*
X108780797Y-65471426D01*
X108775581Y-65492250D01*
X108768349Y-65512462D01*
X108759170Y-65531868D01*
X108748134Y-65550281D01*
X108735346Y-65567524D01*
X108720930Y-65583430D01*
X108705024Y-65597846D01*
X108687781Y-65610634D01*
X108669368Y-65621670D01*
X108649962Y-65630849D01*
X108629750Y-65638081D01*
X108608926Y-65643297D01*
X108587691Y-65646447D01*
X108566250Y-65647500D01*
X108053750Y-65647500D01*
X108032309Y-65646447D01*
X108011074Y-65643297D01*
X107990250Y-65638081D01*
X107970038Y-65630849D01*
X107950632Y-65621670D01*
X107932219Y-65610634D01*
X107914976Y-65597846D01*
X107899070Y-65583430D01*
X107884654Y-65567524D01*
X107871866Y-65550281D01*
X107860830Y-65531868D01*
X107851651Y-65512462D01*
X107844419Y-65492250D01*
X107839203Y-65471426D01*
X107836053Y-65450191D01*
X107835000Y-65428750D01*
X107835000Y-64991250D01*
X107836053Y-64969809D01*
X107839203Y-64948574D01*
X107844419Y-64927750D01*
X107851651Y-64907538D01*
X107860830Y-64888132D01*
X107871866Y-64869719D01*
X107884654Y-64852476D01*
X107899070Y-64836570D01*
X107914976Y-64822154D01*
X107932219Y-64809366D01*
X107950632Y-64798330D01*
X107970038Y-64789151D01*
X107990250Y-64781919D01*
X108011074Y-64776703D01*
X108032309Y-64773553D01*
X108053750Y-64772500D01*
X108566250Y-64772500D01*
X108587691Y-64773553D01*
X108587691Y-64773553D01*
G37*
D11*
X108310000Y-65210000D03*
D10*
G36*
X108506958Y-67070710D02*
G01*
X108521276Y-67072834D01*
X108535317Y-67076351D01*
X108548946Y-67081228D01*
X108562031Y-67087417D01*
X108574447Y-67094858D01*
X108586073Y-67103481D01*
X108596798Y-67113202D01*
X108606519Y-67123927D01*
X108615142Y-67135553D01*
X108622583Y-67147969D01*
X108628772Y-67161054D01*
X108633649Y-67174683D01*
X108637166Y-67188724D01*
X108639290Y-67203042D01*
X108640000Y-67217500D01*
X108640000Y-67512500D01*
X108639290Y-67526958D01*
X108637166Y-67541276D01*
X108633649Y-67555317D01*
X108628772Y-67568946D01*
X108622583Y-67582031D01*
X108615142Y-67594447D01*
X108606519Y-67606073D01*
X108596798Y-67616798D01*
X108586073Y-67626519D01*
X108574447Y-67635142D01*
X108562031Y-67642583D01*
X108548946Y-67648772D01*
X108535317Y-67653649D01*
X108521276Y-67657166D01*
X108506958Y-67659290D01*
X108492500Y-67660000D01*
X108147500Y-67660000D01*
X108133042Y-67659290D01*
X108118724Y-67657166D01*
X108104683Y-67653649D01*
X108091054Y-67648772D01*
X108077969Y-67642583D01*
X108065553Y-67635142D01*
X108053927Y-67626519D01*
X108043202Y-67616798D01*
X108033481Y-67606073D01*
X108024858Y-67594447D01*
X108017417Y-67582031D01*
X108011228Y-67568946D01*
X108006351Y-67555317D01*
X108002834Y-67541276D01*
X108000710Y-67526958D01*
X108000000Y-67512500D01*
X108000000Y-67217500D01*
X108000710Y-67203042D01*
X108002834Y-67188724D01*
X108006351Y-67174683D01*
X108011228Y-67161054D01*
X108017417Y-67147969D01*
X108024858Y-67135553D01*
X108033481Y-67123927D01*
X108043202Y-67113202D01*
X108053927Y-67103481D01*
X108065553Y-67094858D01*
X108077969Y-67087417D01*
X108091054Y-67081228D01*
X108104683Y-67076351D01*
X108118724Y-67072834D01*
X108133042Y-67070710D01*
X108147500Y-67070000D01*
X108492500Y-67070000D01*
X108506958Y-67070710D01*
X108506958Y-67070710D01*
G37*
D12*
X108320000Y-67365000D03*
D10*
G36*
X108506958Y-66100710D02*
G01*
X108521276Y-66102834D01*
X108535317Y-66106351D01*
X108548946Y-66111228D01*
X108562031Y-66117417D01*
X108574447Y-66124858D01*
X108586073Y-66133481D01*
X108596798Y-66143202D01*
X108606519Y-66153927D01*
X108615142Y-66165553D01*
X108622583Y-66177969D01*
X108628772Y-66191054D01*
X108633649Y-66204683D01*
X108637166Y-66218724D01*
X108639290Y-66233042D01*
X108640000Y-66247500D01*
X108640000Y-66542500D01*
X108639290Y-66556958D01*
X108637166Y-66571276D01*
X108633649Y-66585317D01*
X108628772Y-66598946D01*
X108622583Y-66612031D01*
X108615142Y-66624447D01*
X108606519Y-66636073D01*
X108596798Y-66646798D01*
X108586073Y-66656519D01*
X108574447Y-66665142D01*
X108562031Y-66672583D01*
X108548946Y-66678772D01*
X108535317Y-66683649D01*
X108521276Y-66687166D01*
X108506958Y-66689290D01*
X108492500Y-66690000D01*
X108147500Y-66690000D01*
X108133042Y-66689290D01*
X108118724Y-66687166D01*
X108104683Y-66683649D01*
X108091054Y-66678772D01*
X108077969Y-66672583D01*
X108065553Y-66665142D01*
X108053927Y-66656519D01*
X108043202Y-66646798D01*
X108033481Y-66636073D01*
X108024858Y-66624447D01*
X108017417Y-66612031D01*
X108011228Y-66598946D01*
X108006351Y-66585317D01*
X108002834Y-66571276D01*
X108000710Y-66556958D01*
X108000000Y-66542500D01*
X108000000Y-66247500D01*
X108000710Y-66233042D01*
X108002834Y-66218724D01*
X108006351Y-66204683D01*
X108011228Y-66191054D01*
X108017417Y-66177969D01*
X108024858Y-66165553D01*
X108033481Y-66153927D01*
X108043202Y-66143202D01*
X108053927Y-66133481D01*
X108065553Y-66124858D01*
X108077969Y-66117417D01*
X108091054Y-66111228D01*
X108104683Y-66106351D01*
X108118724Y-66102834D01*
X108133042Y-66100710D01*
X108147500Y-66100000D01*
X108492500Y-66100000D01*
X108506958Y-66100710D01*
X108506958Y-66100710D01*
G37*
D12*
X108320000Y-66395000D03*
D13*
X116030800Y-64039200D03*
X116030800Y-64689200D03*
X116030800Y-65339200D03*
X116030800Y-65989200D03*
X116030800Y-66639200D03*
X116030800Y-67289200D03*
X116030800Y-67939200D03*
X110130800Y-67939200D03*
X110130800Y-67289200D03*
X110130800Y-66639200D03*
X110130800Y-65989200D03*
X110130800Y-65339200D03*
X110130800Y-64689200D03*
X110130800Y-64039200D03*
M02*
