  0
SECTION
  2
HEADER
  9
$ANGBASE
  50
0.0
  9
$ANGDIR
  70
1
  9
$MEASUREMENT
  70
0
  0
ENDSEC
  0
SECTION
  2
TABLES
  0
TABLE
  2
LTYPE
  70
4
  0
LTYPE
  5
40F
  2
CONTINUOUS
  70
0
  3
Solid line
  72
65
  73
0
  40
0.0
  0
LTYPE
  5
410
  2
DASHDOT
 70
0
  3
Dash Dot ____ _ ____ _
 72
65
 73
4
 40
2.0
 49
1.25
 49
-0.25
 49
0.25
 49
-0.25
  0
LTYPE
  5
411
  2
DASHED
 70
0
  3
Dashed __ __ __ __ __
 72
65
 73
2
 40
0.75
 49
0.5
 49
-0.25
  0
LTYPE
  5
43B
  2
DOTTED
 70
0
  3
Dotted .  .  .  .
 72
65
 73
2
 40
0.2
 49
0.0
 49
-0.2
  0
ENDTAB
  0
TABLE
  2
STYLE
  70
4
  0
STYLE
  2
KICAD
  70
0
  40
0
  41
1
  42
1
  50
0
  71
0
  3
isocp.shx
  0
STYLE
  2
KICADB
  70
0
  40
0
  41
1
  42
1
  50
0
  71
0
  3
isocp.shx
  0
STYLE
  2
KICADI
  70
0
  40
0
  41
1
  42
1
  50
15
  71
0
  3
isocp.shx
  0
STYLE
  2
KICADBI
  70
0
  40
0
  41
1
  42
1
  50
15
  71
0
  3
isocp.shx
  0
ENDTAB
  0
TABLE
  2
LAYER
  70
1
  0
LAYER
  2
BLACK
  70
0
  62
7
  6
CONTINUOUS
  0
ENDTAB
  0
ENDSEC
  0
SECTION
  2
ENTITIES
0
LINE
8
BLACK
6
CONTINUOUS
10
4.96888
20
-2.9512
11
4.92715
21
-2.9512
0
LINE
8
BLACK
6
CONTINUOUS
10
4.92715
20
-2.9512
11
4.92715
21
-2.92561
0
LINE
8
BLACK
6
CONTINUOUS
10
4.92715
20
-2.92561
11
4.96888
21
-2.92561
0
LINE
8
BLACK
6
CONTINUOUS
10
4.96888
20
-2.92561
11
4.96888
21
-2.9512
0
LINE
8
BLACK
6
CONTINUOUS
10
4.88227
20
-2.9512
11
4.84053
21
-2.9512
0
LINE
8
BLACK
6
CONTINUOUS
10
4.84053
20
-2.9512
11
4.84053
21
-2.92561
0
LINE
8
BLACK
6
CONTINUOUS
10
4.84053
20
-2.92561
11
4.88227
21
-2.92561
0
LINE
8
BLACK
6
CONTINUOUS
10
4.88227
20
-2.92561
11
4.88227
21
-2.9512
0
LINE
8
BLACK
6
CONTINUOUS
10
4.66501
20
-2.92981
11
4.60399
21
-2.92981
0
LINE
8
BLACK
6
CONTINUOUS
10
4.60399
20
-2.92981
11
4.60399
21
-2.90619
0
LINE
8
BLACK
6
CONTINUOUS
10
4.60399
20
-2.90619
11
4.66501
21
-2.90619
0
LINE
8
BLACK
6
CONTINUOUS
10
4.66501
20
-2.90619
11
4.66501
21
-2.92981
0
LINE
8
BLACK
6
CONTINUOUS
10
4.45241
20
-2.92981
11
4.39139
21
-2.92981
0
LINE
8
BLACK
6
CONTINUOUS
10
4.39139
20
-2.92981
11
4.39139
21
-2.90619
0
LINE
8
BLACK
6
CONTINUOUS
10
4.39139
20
-2.90619
11
4.45241
21
-2.90619
0
LINE
8
BLACK
6
CONTINUOUS
10
4.45241
20
-2.90619
11
4.45241
21
-2.92981
0
LINE
8
BLACK
6
CONTINUOUS
10
4.36092
20
-2.90279
11
4.36201
21
-2.90312
0
LINE
8
BLACK
6
CONTINUOUS
10
4.36201
20
-2.90312
11
4.36302
21
-2.90366
0
LINE
8
BLACK
6
CONTINUOUS
10
4.36302
20
-2.90366
11
4.3639
21
-2.90438
0
LINE
8
BLACK
6
CONTINUOUS
10
4.3639
20
-2.90438
11
4.36462
21
-2.90526
0
LINE
8
BLACK
6
CONTINUOUS
10
4.36462
20
-2.90526
11
4.36516
21
-2.90627
0
LINE
8
BLACK
6
CONTINUOUS
10
4.36516
20
-2.90627
11
4.36549
21
-2.90735
0
LINE
8
BLACK
6
CONTINUOUS
10
4.36549
20
-2.90735
11
4.3656
21
-2.90849
0
LINE
8
BLACK
6
CONTINUOUS
10
4.3656
20
-2.90849
11
4.3656
21
-2.9201
0
LINE
8
BLACK
6
CONTINUOUS
10
4.3656
20
-2.9201
11
4.36549
21
-2.92123
0
LINE
8
BLACK
6
CONTINUOUS
10
4.36549
20
-2.92123
11
4.36516
21
-2.92232
0
LINE
8
BLACK
6
CONTINUOUS
10
4.36516
20
-2.92232
11
4.36462
21
-2.92333
0
LINE
8
BLACK
6
CONTINUOUS
10
4.36462
20
-2.92333
11
4.3639
21
-2.92421
0
LINE
8
BLACK
6
CONTINUOUS
10
4.3639
20
-2.92421
11
4.36302
21
-2.92493
0
LINE
8
BLACK
6
CONTINUOUS
10
4.36302
20
-2.92493
11
4.36201
21
-2.92547
0
LINE
8
BLACK
6
CONTINUOUS
10
4.36201
20
-2.92547
11
4.36092
21
-2.9258
0
LINE
8
BLACK
6
CONTINUOUS
10
4.36092
20
-2.9258
11
4.35979
21
-2.92591
0
LINE
8
BLACK
6
CONTINUOUS
10
4.35979
20
-2.92591
11
4.34621
21
-2.92591
0
LINE
8
BLACK
6
CONTINUOUS
10
4.34621
20
-2.92591
11
4.34508
21
-2.9258
0
LINE
8
BLACK
6
CONTINUOUS
10
4.34508
20
-2.9258
11
4.34399
21
-2.92547
0
LINE
8
BLACK
6
CONTINUOUS
10
4.34399
20
-2.92547
11
4.34298
21
-2.92493
0
LINE
8
BLACK
6
CONTINUOUS
10
4.34298
20
-2.92493
11
4.3421
21
-2.92421
0
LINE
8
BLACK
6
CONTINUOUS
10
4.3421
20
-2.92421
11
4.34138
21
-2.92333
0
LINE
8
BLACK
6
CONTINUOUS
10
4.34138
20
-2.92333
11
4.34084
21
-2.92232
0
LINE
8
BLACK
6
CONTINUOUS
10
4.34084
20
-2.92232
11
4.34051
21
-2.92123
0
LINE
8
BLACK
6
CONTINUOUS
10
4.34051
20
-2.92123
11
4.3404
21
-2.9201
0
LINE
8
BLACK
6
CONTINUOUS
10
4.3404
20
-2.9201
11
4.3404
21
-2.90849
0
LINE
8
BLACK
6
CONTINUOUS
10
4.3404
20
-2.90849
11
4.34051
21
-2.90735
0
LINE
8
BLACK
6
CONTINUOUS
10
4.34051
20
-2.90735
11
4.34084
21
-2.90627
0
LINE
8
BLACK
6
CONTINUOUS
10
4.34084
20
-2.90627
11
4.34138
21
-2.90526
0
LINE
8
BLACK
6
CONTINUOUS
10
4.34138
20
-2.90526
11
4.3421
21
-2.90438
0
LINE
8
BLACK
6
CONTINUOUS
10
4.3421
20
-2.90438
11
4.34298
21
-2.90366
0
LINE
8
BLACK
6
CONTINUOUS
10
4.34298
20
-2.90366
11
4.34399
21
-2.90312
0
LINE
8
BLACK
6
CONTINUOUS
10
4.34399
20
-2.90312
11
4.34508
21
-2.90279
0
LINE
8
BLACK
6
CONTINUOUS
10
4.34508
20
-2.90279
11
4.34621
21
-2.90268
0
LINE
8
BLACK
6
CONTINUOUS
10
4.34621
20
-2.90268
11
4.35979
21
-2.90268
0
LINE
8
BLACK
6
CONTINUOUS
10
4.35979
20
-2.90268
11
4.36092
21
-2.90279
0
LINE
8
BLACK
6
CONTINUOUS
10
5.02792
20
-2.89419
11
5.02901
21
-2.89452
0
LINE
8
BLACK
6
CONTINUOUS
10
5.02901
20
-2.89452
11
5.03002
21
-2.89506
0
LINE
8
BLACK
6
CONTINUOUS
10
5.03002
20
-2.89506
11
5.0309
21
-2.89578
0
LINE
8
BLACK
6
CONTINUOUS
10
5.0309
20
-2.89578
11
5.03162
21
-2.89666
0
LINE
8
BLACK
6
CONTINUOUS
10
5.03162
20
-2.89666
11
5.03216
21
-2.89767
0
LINE
8
BLACK
6
CONTINUOUS
10
5.03216
20
-2.89767
11
5.03249
21
-2.89875
0
LINE
8
BLACK
6
CONTINUOUS
10
5.03249
20
-2.89875
11
5.0326
21
-2.89989
0
LINE
8
BLACK
6
CONTINUOUS
10
5.0326
20
-2.89989
11
5.0326
21
-2.9115
0
LINE
8
BLACK
6
CONTINUOUS
10
5.0326
20
-2.9115
11
5.03249
21
-2.91263
0
LINE
8
BLACK
6
CONTINUOUS
10
5.03249
20
-2.91263
11
5.03216
21
-2.91372
0
LINE
8
BLACK
6
CONTINUOUS
10
5.03216
20
-2.91372
11
5.03162
21
-2.91473
0
LINE
8
BLACK
6
CONTINUOUS
10
5.03162
20
-2.91473
11
5.0309
21
-2.91561
0
LINE
8
BLACK
6
CONTINUOUS
10
5.0309
20
-2.91561
11
5.03002
21
-2.91633
0
LINE
8
BLACK
6
CONTINUOUS
10
5.03002
20
-2.91633
11
5.02901
21
-2.91687
0
LINE
8
BLACK
6
CONTINUOUS
10
5.02901
20
-2.91687
11
5.02792
21
-2.9172
0
LINE
8
BLACK
6
CONTINUOUS
10
5.02792
20
-2.9172
11
5.02679
21
-2.91731
0
LINE
8
BLACK
6
CONTINUOUS
10
5.02679
20
-2.91731
11
5.01321
21
-2.91731
0
LINE
8
BLACK
6
CONTINUOUS
10
5.01321
20
-2.91731
11
5.01208
21
-2.9172
0
LINE
8
BLACK
6
CONTINUOUS
10
5.01208
20
-2.9172
11
5.01099
21
-2.91687
0
LINE
8
BLACK
6
CONTINUOUS
10
5.01099
20
-2.91687
11
5.00998
21
-2.91633
0
LINE
8
BLACK
6
CONTINUOUS
10
5.00998
20
-2.91633
11
5.0091
21
-2.91561
0
LINE
8
BLACK
6
CONTINUOUS
10
5.0091
20
-2.91561
11
5.00838
21
-2.91473
0
LINE
8
BLACK
6
CONTINUOUS
10
5.00838
20
-2.91473
11
5.00784
21
-2.91372
0
LINE
8
BLACK
6
CONTINUOUS
10
5.00784
20
-2.91372
11
5.00751
21
-2.91263
0
LINE
8
BLACK
6
CONTINUOUS
10
5.00751
20
-2.91263
11
5.0074
21
-2.9115
0
LINE
8
BLACK
6
CONTINUOUS
10
5.0074
20
-2.9115
11
5.0074
21
-2.89989
0
LINE
8
BLACK
6
CONTINUOUS
10
5.0074
20
-2.89989
11
5.00751
21
-2.89875
0
LINE
8
BLACK
6
CONTINUOUS
10
5.00751
20
-2.89875
11
5.00784
21
-2.89767
0
LINE
8
BLACK
6
CONTINUOUS
10
5.00784
20
-2.89767
11
5.00838
21
-2.89666
0
LINE
8
BLACK
6
CONTINUOUS
10
5.00838
20
-2.89666
11
5.0091
21
-2.89578
0
LINE
8
BLACK
6
CONTINUOUS
10
5.0091
20
-2.89578
11
5.00998
21
-2.89506
0
LINE
8
BLACK
6
CONTINUOUS
10
5.00998
20
-2.89506
11
5.01099
21
-2.89452
0
LINE
8
BLACK
6
CONTINUOUS
10
5.01099
20
-2.89452
11
5.01208
21
-2.89419
0
LINE
8
BLACK
6
CONTINUOUS
10
5.01208
20
-2.89419
11
5.01321
21
-2.89408
0
LINE
8
BLACK
6
CONTINUOUS
10
5.01321
20
-2.89408
11
5.02679
21
-2.89408
0
LINE
8
BLACK
6
CONTINUOUS
10
5.02679
20
-2.89408
11
5.02792
21
-2.89419
0
LINE
8
BLACK
6
CONTINUOUS
10
4.80923
20
-2.89031
11
4.81032
21
-2.89064
0
LINE
8
BLACK
6
CONTINUOUS
10
4.81032
20
-2.89064
11
4.81133
21
-2.89118
0
LINE
8
BLACK
6
CONTINUOUS
10
4.81133
20
-2.89118
11
4.81221
21
-2.8919
0
LINE
8
BLACK
6
CONTINUOUS
10
4.81221
20
-2.8919
11
4.81293
21
-2.89278
0
LINE
8
BLACK
6
CONTINUOUS
10
4.81293
20
-2.89278
11
4.81347
21
-2.89379
0
LINE
8
BLACK
6
CONTINUOUS
10
4.81347
20
-2.89379
11
4.8138
21
-2.89488
0
LINE
8
BLACK
6
CONTINUOUS
10
4.8138
20
-2.89488
11
4.81391
21
-2.89601
0
LINE
8
BLACK
6
CONTINUOUS
10
4.81391
20
-2.89601
11
4.81391
21
-2.90959
0
LINE
8
BLACK
6
CONTINUOUS
10
4.81391
20
-2.90959
11
4.8138
21
-2.91072
0
LINE
8
BLACK
6
CONTINUOUS
10
4.8138
20
-2.91072
11
4.81347
21
-2.91181
0
LINE
8
BLACK
6
CONTINUOUS
10
4.81347
20
-2.91181
11
4.81293
21
-2.91282
0
LINE
8
BLACK
6
CONTINUOUS
10
4.81293
20
-2.91282
11
4.81221
21
-2.9137
0
LINE
8
BLACK
6
CONTINUOUS
10
4.81221
20
-2.9137
11
4.81133
21
-2.91442
0
LINE
8
BLACK
6
CONTINUOUS
10
4.81133
20
-2.91442
11
4.81032
21
-2.91496
0
LINE
8
BLACK
6
CONTINUOUS
10
4.81032
20
-2.91496
11
4.80923
21
-2.91529
0
LINE
8
BLACK
6
CONTINUOUS
10
4.80923
20
-2.91529
11
4.8081
21
-2.9154
0
LINE
8
BLACK
6
CONTINUOUS
10
4.8081
20
-2.9154
11
4.79649
21
-2.9154
0
LINE
8
BLACK
6
CONTINUOUS
10
4.79649
20
-2.9154
11
4.79535
21
-2.91529
0
LINE
8
BLACK
6
CONTINUOUS
10
4.79535
20
-2.91529
11
4.79427
21
-2.91496
0
LINE
8
BLACK
6
CONTINUOUS
10
4.79427
20
-2.91496
11
4.79326
21
-2.91442
0
LINE
8
BLACK
6
CONTINUOUS
10
4.79326
20
-2.91442
11
4.79238
21
-2.9137
0
LINE
8
BLACK
6
CONTINUOUS
10
4.79238
20
-2.9137
11
4.79166
21
-2.91282
0
LINE
8
BLACK
6
CONTINUOUS
10
4.79166
20
-2.91282
11
4.79112
21
-2.91181
0
LINE
8
BLACK
6
CONTINUOUS
10
4.79112
20
-2.91181
11
4.79079
21
-2.91072
0
LINE
8
BLACK
6
CONTINUOUS
10
4.79079
20
-2.91072
11
4.79068
21
-2.90959
0
LINE
8
BLACK
6
CONTINUOUS
10
4.79068
20
-2.90959
11
4.79068
21
-2.89601
0
LINE
8
BLACK
6
CONTINUOUS
10
4.79068
20
-2.89601
11
4.79079
21
-2.89488
0
LINE
8
BLACK
6
CONTINUOUS
10
4.79079
20
-2.89488
11
4.79112
21
-2.89379
0
LINE
8
BLACK
6
CONTINUOUS
10
4.79112
20
-2.89379
11
4.79166
21
-2.89278
0
LINE
8
BLACK
6
CONTINUOUS
10
4.79166
20
-2.89278
11
4.79238
21
-2.8919
0
LINE
8
BLACK
6
CONTINUOUS
10
4.79238
20
-2.8919
11
4.79326
21
-2.89118
0
LINE
8
BLACK
6
CONTINUOUS
10
4.79326
20
-2.89118
11
4.79427
21
-2.89064
0
LINE
8
BLACK
6
CONTINUOUS
10
4.79427
20
-2.89064
11
4.79535
21
-2.89031
0
LINE
8
BLACK
6
CONTINUOUS
10
4.79535
20
-2.89031
11
4.79649
21
-2.8902
0
LINE
8
BLACK
6
CONTINUOUS
10
4.79649
20
-2.8902
11
4.8081
21
-2.8902
0
LINE
8
BLACK
6
CONTINUOUS
10
4.8081
20
-2.8902
11
4.80923
21
-2.89031
0
LINE
8
BLACK
6
CONTINUOUS
10
4.77105
20
-2.89031
11
4.77213
21
-2.89064
0
LINE
8
BLACK
6
CONTINUOUS
10
4.77213
20
-2.89064
11
4.77314
21
-2.89118
0
LINE
8
BLACK
6
CONTINUOUS
10
4.77314
20
-2.89118
11
4.77402
21
-2.8919
0
LINE
8
BLACK
6
CONTINUOUS
10
4.77402
20
-2.8919
11
4.77474
21
-2.89278
0
LINE
8
BLACK
6
CONTINUOUS
10
4.77474
20
-2.89278
11
4.77528
21
-2.89379
0
LINE
8
BLACK
6
CONTINUOUS
10
4.77528
20
-2.89379
11
4.77561
21
-2.89488
0
LINE
8
BLACK
6
CONTINUOUS
10
4.77561
20
-2.89488
11
4.77572
21
-2.89601
0
LINE
8
BLACK
6
CONTINUOUS
10
4.77572
20
-2.89601
11
4.77572
21
-2.90959
0
LINE
8
BLACK
6
CONTINUOUS
10
4.77572
20
-2.90959
11
4.77561
21
-2.91072
0
LINE
8
BLACK
6
CONTINUOUS
10
4.77561
20
-2.91072
11
4.77528
21
-2.91181
0
LINE
8
BLACK
6
CONTINUOUS
10
4.77528
20
-2.91181
11
4.77474
21
-2.91282
0
LINE
8
BLACK
6
CONTINUOUS
10
4.77474
20
-2.91282
11
4.77402
21
-2.9137
0
LINE
8
BLACK
6
CONTINUOUS
10
4.77402
20
-2.9137
11
4.77314
21
-2.91442
0
LINE
8
BLACK
6
CONTINUOUS
10
4.77314
20
-2.91442
11
4.77213
21
-2.91496
0
LINE
8
BLACK
6
CONTINUOUS
10
4.77213
20
-2.91496
11
4.77105
21
-2.91529
0
LINE
8
BLACK
6
CONTINUOUS
10
4.77105
20
-2.91529
11
4.76991
21
-2.9154
0
LINE
8
BLACK
6
CONTINUOUS
10
4.76991
20
-2.9154
11
4.7583
21
-2.9154
0
LINE
8
BLACK
6
CONTINUOUS
10
4.7583
20
-2.9154
11
4.75717
21
-2.91529
0
LINE
8
BLACK
6
CONTINUOUS
10
4.75717
20
-2.91529
11
4.75608
21
-2.91496
0
LINE
8
BLACK
6
CONTINUOUS
10
4.75608
20
-2.91496
11
4.75507
21
-2.91442
0
LINE
8
BLACK
6
CONTINUOUS
10
4.75507
20
-2.91442
11
4.75419
21
-2.9137
0
LINE
8
BLACK
6
CONTINUOUS
10
4.75419
20
-2.9137
11
4.75347
21
-2.91282
0
LINE
8
BLACK
6
CONTINUOUS
10
4.75347
20
-2.91282
11
4.75293
21
-2.91181
0
LINE
8
BLACK
6
CONTINUOUS
10
4.75293
20
-2.91181
11
4.7526
21
-2.91072
0
LINE
8
BLACK
6
CONTINUOUS
10
4.7526
20
-2.91072
11
4.75249
21
-2.90959
0
LINE
8
BLACK
6
CONTINUOUS
10
4.75249
20
-2.90959
11
4.75249
21
-2.89601
0
LINE
8
BLACK
6
CONTINUOUS
10
4.75249
20
-2.89601
11
4.7526
21
-2.89488
0
LINE
8
BLACK
6
CONTINUOUS
10
4.7526
20
-2.89488
11
4.75293
21
-2.89379
0
LINE
8
BLACK
6
CONTINUOUS
10
4.75293
20
-2.89379
11
4.75347
21
-2.89278
0
LINE
8
BLACK
6
CONTINUOUS
10
4.75347
20
-2.89278
11
4.75419
21
-2.8919
0
LINE
8
BLACK
6
CONTINUOUS
10
4.75419
20
-2.8919
11
4.75507
21
-2.89118
0
LINE
8
BLACK
6
CONTINUOUS
10
4.75507
20
-2.89118
11
4.75608
21
-2.89064
0
LINE
8
BLACK
6
CONTINUOUS
10
4.75608
20
-2.89064
11
4.75717
21
-2.89031
0
LINE
8
BLACK
6
CONTINUOUS
10
4.75717
20
-2.89031
11
4.7583
21
-2.8902
0
LINE
8
BLACK
6
CONTINUOUS
10
4.7583
20
-2.8902
11
4.76991
21
-2.8902
0
LINE
8
BLACK
6
CONTINUOUS
10
4.76991
20
-2.8902
11
4.77105
21
-2.89031
0
LINE
8
BLACK
6
CONTINUOUS
10
4.88227
20
-2.9138
11
4.84053
21
-2.9138
0
LINE
8
BLACK
6
CONTINUOUS
10
4.84053
20
-2.9138
11
4.84053
21
-2.8882
0
LINE
8
BLACK
6
CONTINUOUS
10
4.84053
20
-2.8882
11
4.88227
21
-2.8882
0
LINE
8
BLACK
6
CONTINUOUS
10
4.88227
20
-2.8882
11
4.88227
21
-2.9138
0
LINE
8
BLACK
6
CONTINUOUS
10
4.36092
20
-2.8646
11
4.36201
21
-2.86493
0
LINE
8
BLACK
6
CONTINUOUS
10
4.36201
20
-2.86493
11
4.36302
21
-2.86547
0
LINE
8
BLACK
6
CONTINUOUS
10
4.36302
20
-2.86547
11
4.3639
21
-2.86619
0
LINE
8
BLACK
6
CONTINUOUS
10
4.3639
20
-2.86619
11
4.36462
21
-2.86707
0
LINE
8
BLACK
6
CONTINUOUS
10
4.36462
20
-2.86707
11
4.36516
21
-2.86808
0
LINE
8
BLACK
6
CONTINUOUS
10
4.36516
20
-2.86808
11
4.36549
21
-2.86917
0
LINE
8
BLACK
6
CONTINUOUS
10
4.36549
20
-2.86917
11
4.3656
21
-2.8703
0
LINE
8
BLACK
6
CONTINUOUS
10
4.3656
20
-2.8703
11
4.3656
21
-2.88191
0
LINE
8
BLACK
6
CONTINUOUS
10
4.3656
20
-2.88191
11
4.36549
21
-2.88305
0
LINE
8
BLACK
6
CONTINUOUS
10
4.36549
20
-2.88305
11
4.36516
21
-2.88413
0
LINE
8
BLACK
6
CONTINUOUS
10
4.36516
20
-2.88413
11
4.36462
21
-2.88514
0
LINE
8
BLACK
6
CONTINUOUS
10
4.36462
20
-2.88514
11
4.3639
21
-2.88602
0
LINE
8
BLACK
6
CONTINUOUS
10
4.3639
20
-2.88602
11
4.36302
21
-2.88674
0
LINE
8
BLACK
6
CONTINUOUS
10
4.36302
20
-2.88674
11
4.36201
21
-2.88728
0
LINE
8
BLACK
6
CONTINUOUS
10
4.36201
20
-2.88728
11
4.36092
21
-2.88761
0
LINE
8
BLACK
6
CONTINUOUS
10
4.36092
20
-2.88761
11
4.35979
21
-2.88772
0
LINE
8
BLACK
6
CONTINUOUS
10
4.35979
20
-2.88772
11
4.34621
21
-2.88772
0
LINE
8
BLACK
6
CONTINUOUS
10
4.34621
20
-2.88772
11
4.34508
21
-2.88761
0
LINE
8
BLACK
6
CONTINUOUS
10
4.34508
20
-2.88761
11
4.34399
21
-2.88728
0
LINE
8
BLACK
6
CONTINUOUS
10
4.34399
20
-2.88728
11
4.34298
21
-2.88674
0
LINE
8
BLACK
6
CONTINUOUS
10
4.34298
20
-2.88674
11
4.3421
21
-2.88602
0
LINE
8
BLACK
6
CONTINUOUS
10
4.3421
20
-2.88602
11
4.34138
21
-2.88514
0
LINE
8
BLACK
6
CONTINUOUS
10
4.34138
20
-2.88514
11
4.34084
21
-2.88413
0
LINE
8
BLACK
6
CONTINUOUS
10
4.34084
20
-2.88413
11
4.34051
21
-2.88305
0
LINE
8
BLACK
6
CONTINUOUS
10
4.34051
20
-2.88305
11
4.3404
21
-2.88191
0
LINE
8
BLACK
6
CONTINUOUS
10
4.3404
20
-2.88191
11
4.3404
21
-2.8703
0
LINE
8
BLACK
6
CONTINUOUS
10
4.3404
20
-2.8703
11
4.34051
21
-2.86917
0
LINE
8
BLACK
6
CONTINUOUS
10
4.34051
20
-2.86917
11
4.34084
21
-2.86808
0
LINE
8
BLACK
6
CONTINUOUS
10
4.34084
20
-2.86808
11
4.34138
21
-2.86707
0
LINE
8
BLACK
6
CONTINUOUS
10
4.34138
20
-2.86707
11
4.3421
21
-2.86619
0
LINE
8
BLACK
6
CONTINUOUS
10
4.3421
20
-2.86619
11
4.34298
21
-2.86547
0
LINE
8
BLACK
6
CONTINUOUS
10
4.34298
20
-2.86547
11
4.34399
21
-2.86493
0
LINE
8
BLACK
6
CONTINUOUS
10
4.34399
20
-2.86493
11
4.34508
21
-2.8646
0
LINE
8
BLACK
6
CONTINUOUS
10
4.34508
20
-2.8646
11
4.34621
21
-2.86449
0
LINE
8
BLACK
6
CONTINUOUS
10
4.34621
20
-2.86449
11
4.35979
21
-2.86449
0
LINE
8
BLACK
6
CONTINUOUS
10
4.35979
20
-2.86449
11
4.36092
21
-2.8646
0
LINE
8
BLACK
6
CONTINUOUS
10
4.66501
20
-2.87981
11
4.60399
21
-2.87981
0
LINE
8
BLACK
6
CONTINUOUS
10
4.60399
20
-2.87981
11
4.60399
21
-2.85619
0
LINE
8
BLACK
6
CONTINUOUS
10
4.60399
20
-2.85619
11
4.66501
21
-2.85619
0
LINE
8
BLACK
6
CONTINUOUS
10
4.66501
20
-2.85619
11
4.66501
21
-2.87981
0
LINE
8
BLACK
6
CONTINUOUS
10
4.45241
20
-2.87981
11
4.39139
21
-2.87981
0
LINE
8
BLACK
6
CONTINUOUS
10
4.39139
20
-2.87981
11
4.39139
21
-2.85619
0
LINE
8
BLACK
6
CONTINUOUS
10
4.39139
20
-2.85619
11
4.45241
21
-2.85619
0
LINE
8
BLACK
6
CONTINUOUS
10
4.45241
20
-2.85619
11
4.45241
21
-2.87981
0
LINE
8
BLACK
6
CONTINUOUS
10
5.02792
20
-2.856
11
5.02901
21
-2.85633
0
LINE
8
BLACK
6
CONTINUOUS
10
5.02901
20
-2.85633
11
5.03002
21
-2.85687
0
LINE
8
BLACK
6
CONTINUOUS
10
5.03002
20
-2.85687
11
5.0309
21
-2.85759
0
LINE
8
BLACK
6
CONTINUOUS
10
5.0309
20
-2.85759
11
5.03162
21
-2.85847
0
LINE
8
BLACK
6
CONTINUOUS
10
5.03162
20
-2.85847
11
5.03216
21
-2.85948
0
LINE
8
BLACK
6
CONTINUOUS
10
5.03216
20
-2.85948
11
5.03249
21
-2.86057
0
LINE
8
BLACK
6
CONTINUOUS
10
5.03249
20
-2.86057
11
5.0326
21
-2.8617
0
LINE
8
BLACK
6
CONTINUOUS
10
5.0326
20
-2.8617
11
5.0326
21
-2.87331
0
LINE
8
BLACK
6
CONTINUOUS
10
5.0326
20
-2.87331
11
5.03249
21
-2.87445
0
LINE
8
BLACK
6
CONTINUOUS
10
5.03249
20
-2.87445
11
5.03216
21
-2.87553
0
LINE
8
BLACK
6
CONTINUOUS
10
5.03216
20
-2.87553
11
5.03162
21
-2.87654
0
LINE
8
BLACK
6
CONTINUOUS
10
5.03162
20
-2.87654
11
5.0309
21
-2.87742
0
LINE
8
BLACK
6
CONTINUOUS
10
5.0309
20
-2.87742
11
5.03002
21
-2.87814
0
LINE
8
BLACK
6
CONTINUOUS
10
5.03002
20
-2.87814
11
5.02901
21
-2.87868
0
LINE
8
BLACK
6
CONTINUOUS
10
5.02901
20
-2.87868
11
5.02792
21
-2.87901
0
LINE
8
BLACK
6
CONTINUOUS
10
5.02792
20
-2.87901
11
5.02679
21
-2.87912
0
LINE
8
BLACK
6
CONTINUOUS
10
5.02679
20
-2.87912
11
5.01321
21
-2.87912
0
LINE
8
BLACK
6
CONTINUOUS
10
5.01321
20
-2.87912
11
5.01208
21
-2.87901
0
LINE
8
BLACK
6
CONTINUOUS
10
5.01208
20
-2.87901
11
5.01099
21
-2.87868
0
LINE
8
BLACK
6
CONTINUOUS
10
5.01099
20
-2.87868
11
5.00998
21
-2.87814
0
LINE
8
BLACK
6
CONTINUOUS
10
5.00998
20
-2.87814
11
5.0091
21
-2.87742
0
LINE
8
BLACK
6
CONTINUOUS
10
5.0091
20
-2.87742
11
5.00838
21
-2.87654
0
LINE
8
BLACK
6
CONTINUOUS
10
5.00838
20
-2.87654
11
5.00784
21
-2.87553
0
LINE
8
BLACK
6
CONTINUOUS
10
5.00784
20
-2.87553
11
5.00751
21
-2.87445
0
LINE
8
BLACK
6
CONTINUOUS
10
5.00751
20
-2.87445
11
5.0074
21
-2.87331
0
LINE
8
BLACK
6
CONTINUOUS
10
5.0074
20
-2.87331
11
5.0074
21
-2.8617
0
LINE
8
BLACK
6
CONTINUOUS
10
5.0074
20
-2.8617
11
5.00751
21
-2.86057
0
LINE
8
BLACK
6
CONTINUOUS
10
5.00751
20
-2.86057
11
5.00784
21
-2.85948
0
LINE
8
BLACK
6
CONTINUOUS
10
5.00784
20
-2.85948
11
5.00838
21
-2.85847
0
LINE
8
BLACK
6
CONTINUOUS
10
5.00838
20
-2.85847
11
5.0091
21
-2.85759
0
LINE
8
BLACK
6
CONTINUOUS
10
5.0091
20
-2.85759
11
5.00998
21
-2.85687
0
LINE
8
BLACK
6
CONTINUOUS
10
5.00998
20
-2.85687
11
5.01099
21
-2.85633
0
LINE
8
BLACK
6
CONTINUOUS
10
5.01099
20
-2.85633
11
5.01208
21
-2.856
0
LINE
8
BLACK
6
CONTINUOUS
10
5.01208
20
-2.856
11
5.01321
21
-2.85589
0
LINE
8
BLACK
6
CONTINUOUS
10
5.01321
20
-2.85589
11
5.02679
21
-2.85589
0
LINE
8
BLACK
6
CONTINUOUS
10
5.02679
20
-2.85589
11
5.02792
21
-2.856
0
LINE
8
BLACK
6
CONTINUOUS
10
4.96888
20
-2.87639
11
4.92715
21
-2.87639
0
LINE
8
BLACK
6
CONTINUOUS
10
4.92715
20
-2.87639
11
4.92715
21
-2.8508
0
LINE
8
BLACK
6
CONTINUOUS
10
4.92715
20
-2.8508
11
4.96888
21
-2.8508
0
LINE
8
BLACK
6
CONTINUOUS
10
4.96888
20
-2.8508
11
4.96888
21
-2.87639
0
LINE
8
BLACK
6
CONTINUOUS
10
4.88227
20
-2.87639
11
4.84053
21
-2.87639
0
LINE
8
BLACK
6
CONTINUOUS
10
4.84053
20
-2.87639
11
4.84053
21
-2.8508
0
LINE
8
BLACK
6
CONTINUOUS
10
4.84053
20
-2.8508
11
4.88227
21
-2.8508
0
LINE
8
BLACK
6
CONTINUOUS
10
4.88227
20
-2.8508
11
4.88227
21
-2.87639
0
LINE
8
BLACK
6
CONTINUOUS
10
4.66501
20
-2.82981
11
4.60399
21
-2.82981
0
LINE
8
BLACK
6
CONTINUOUS
10
4.60399
20
-2.82981
11
4.60399
21
-2.80619
0
LINE
8
BLACK
6
CONTINUOUS
10
4.60399
20
-2.80619
11
4.66501
21
-2.80619
0
LINE
8
BLACK
6
CONTINUOUS
10
4.66501
20
-2.80619
11
4.66501
21
-2.82981
0
LINE
8
BLACK
6
CONTINUOUS
10
4.45241
20
-2.82981
11
4.39139
21
-2.82981
0
LINE
8
BLACK
6
CONTINUOUS
10
4.39139
20
-2.82981
11
4.39139
21
-2.80619
0
LINE
8
BLACK
6
CONTINUOUS
10
4.39139
20
-2.80619
11
4.45241
21
-2.80619
0
LINE
8
BLACK
6
CONTINUOUS
10
4.45241
20
-2.80619
11
4.45241
21
-2.82981
0
LINE
8
BLACK
6
CONTINUOUS
10
4.71425
20
-2.79771
11
4.71533
21
-2.79804
0
LINE
8
BLACK
6
CONTINUOUS
10
4.71533
20
-2.79804
11
4.71634
21
-2.79858
0
LINE
8
BLACK
6
CONTINUOUS
10
4.71634
20
-2.79858
11
4.71722
21
-2.7993
0
LINE
8
BLACK
6
CONTINUOUS
10
4.71722
20
-2.7993
11
4.71794
21
-2.80018
0
LINE
8
BLACK
6
CONTINUOUS
10
4.71794
20
-2.80018
11
4.71848
21
-2.80119
0
LINE
8
BLACK
6
CONTINUOUS
10
4.71848
20
-2.80119
11
4.71881
21
-2.80228
0
LINE
8
BLACK
6
CONTINUOUS
10
4.71881
20
-2.80228
11
4.71892
21
-2.80341
0
LINE
8
BLACK
6
CONTINUOUS
10
4.71892
20
-2.80341
11
4.71892
21
-2.81699
0
LINE
8
BLACK
6
CONTINUOUS
10
4.71892
20
-2.81699
11
4.71881
21
-2.81812
0
LINE
8
BLACK
6
CONTINUOUS
10
4.71881
20
-2.81812
11
4.71848
21
-2.81921
0
LINE
8
BLACK
6
CONTINUOUS
10
4.71848
20
-2.81921
11
4.71794
21
-2.82022
0
LINE
8
BLACK
6
CONTINUOUS
10
4.71794
20
-2.82022
11
4.71722
21
-2.8211
0
LINE
8
BLACK
6
CONTINUOUS
10
4.71722
20
-2.8211
11
4.71634
21
-2.82182
0
LINE
8
BLACK
6
CONTINUOUS
10
4.71634
20
-2.82182
11
4.71533
21
-2.82236
0
LINE
8
BLACK
6
CONTINUOUS
10
4.71533
20
-2.82236
11
4.71425
21
-2.82269
0
LINE
8
BLACK
6
CONTINUOUS
10
4.71425
20
-2.82269
11
4.71311
21
-2.8228
0
LINE
8
BLACK
6
CONTINUOUS
10
4.71311
20
-2.8228
11
4.7015
21
-2.8228
0
LINE
8
BLACK
6
CONTINUOUS
10
4.7015
20
-2.8228
11
4.70037
21
-2.82269
0
LINE
8
BLACK
6
CONTINUOUS
10
4.70037
20
-2.82269
11
4.69928
21
-2.82236
0
LINE
8
BLACK
6
CONTINUOUS
10
4.69928
20
-2.82236
11
4.69827
21
-2.82182
0
LINE
8
BLACK
6
CONTINUOUS
10
4.69827
20
-2.82182
11
4.69739
21
-2.8211
0
LINE
8
BLACK
6
CONTINUOUS
10
4.69739
20
-2.8211
11
4.69667
21
-2.82022
0
LINE
8
BLACK
6
CONTINUOUS
10
4.69667
20
-2.82022
11
4.69613
21
-2.81921
0
LINE
8
BLACK
6
CONTINUOUS
10
4.69613
20
-2.81921
11
4.6958
21
-2.81812
0
LINE
8
BLACK
6
CONTINUOUS
10
4.6958
20
-2.81812
11
4.69569
21
-2.81699
0
LINE
8
BLACK
6
CONTINUOUS
10
4.69569
20
-2.81699
11
4.69569
21
-2.80341
0
LINE
8
BLACK
6
CONTINUOUS
10
4.69569
20
-2.80341
11
4.6958
21
-2.80228
0
LINE
8
BLACK
6
CONTINUOUS
10
4.6958
20
-2.80228
11
4.69613
21
-2.80119
0
LINE
8
BLACK
6
CONTINUOUS
10
4.69613
20
-2.80119
11
4.69667
21
-2.80018
0
LINE
8
BLACK
6
CONTINUOUS
10
4.69667
20
-2.80018
11
4.69739
21
-2.7993
0
LINE
8
BLACK
6
CONTINUOUS
10
4.69739
20
-2.7993
11
4.69827
21
-2.79858
0
LINE
8
BLACK
6
CONTINUOUS
10
4.69827
20
-2.79858
11
4.69928
21
-2.79804
0
LINE
8
BLACK
6
CONTINUOUS
10
4.69928
20
-2.79804
11
4.70037
21
-2.79771
0
LINE
8
BLACK
6
CONTINUOUS
10
4.70037
20
-2.79771
11
4.7015
21
-2.7976
0
LINE
8
BLACK
6
CONTINUOUS
10
4.7015
20
-2.7976
11
4.71311
21
-2.7976
0
LINE
8
BLACK
6
CONTINUOUS
10
4.71311
20
-2.7976
11
4.71425
21
-2.79771
0
LINE
8
BLACK
6
CONTINUOUS
10
4.75243
20
-2.79771
11
4.75352
21
-2.79804
0
LINE
8
BLACK
6
CONTINUOUS
10
4.75352
20
-2.79804
11
4.75453
21
-2.79858
0
LINE
8
BLACK
6
CONTINUOUS
10
4.75453
20
-2.79858
11
4.75541
21
-2.7993
0
LINE
8
BLACK
6
CONTINUOUS
10
4.75541
20
-2.7993
11
4.75613
21
-2.80018
0
LINE
8
BLACK
6
CONTINUOUS
10
4.75613
20
-2.80018
11
4.75667
21
-2.80119
0
LINE
8
BLACK
6
CONTINUOUS
10
4.75667
20
-2.80119
11
4.757
21
-2.80228
0
LINE
8
BLACK
6
CONTINUOUS
10
4.757
20
-2.80228
11
4.75711
21
-2.80341
0
LINE
8
BLACK
6
CONTINUOUS
10
4.75711
20
-2.80341
11
4.75711
21
-2.81699
0
LINE
8
BLACK
6
CONTINUOUS
10
4.75711
20
-2.81699
11
4.757
21
-2.81812
0
LINE
8
BLACK
6
CONTINUOUS
10
4.757
20
-2.81812
11
4.75667
21
-2.81921
0
LINE
8
BLACK
6
CONTINUOUS
10
4.75667
20
-2.81921
11
4.75613
21
-2.82022
0
LINE
8
BLACK
6
CONTINUOUS
10
4.75613
20
-2.82022
11
4.75541
21
-2.8211
0
LINE
8
BLACK
6
CONTINUOUS
10
4.75541
20
-2.8211
11
4.75453
21
-2.82182
0
LINE
8
BLACK
6
CONTINUOUS
10
4.75453
20
-2.82182
11
4.75352
21
-2.82236
0
LINE
8
BLACK
6
CONTINUOUS
10
4.75352
20
-2.82236
11
4.75243
21
-2.82269
0
LINE
8
BLACK
6
CONTINUOUS
10
4.75243
20
-2.82269
11
4.7513
21
-2.8228
0
LINE
8
BLACK
6
CONTINUOUS
10
4.7513
20
-2.8228
11
4.73969
21
-2.8228
0
LINE
8
BLACK
6
CONTINUOUS
10
4.73969
20
-2.8228
11
4.73855
21
-2.82269
0
LINE
8
BLACK
6
CONTINUOUS
10
4.73855
20
-2.82269
11
4.73747
21
-2.82236
0
LINE
8
BLACK
6
CONTINUOUS
10
4.73747
20
-2.82236
11
4.73646
21
-2.82182
0
LINE
8
BLACK
6
CONTINUOUS
10
4.73646
20
-2.82182
11
4.73558
21
-2.8211
0
LINE
8
BLACK
6
CONTINUOUS
10
4.73558
20
-2.8211
11
4.73486
21
-2.82022
0
LINE
8
BLACK
6
CONTINUOUS
10
4.73486
20
-2.82022
11
4.73432
21
-2.81921
0
LINE
8
BLACK
6
CONTINUOUS
10
4.73432
20
-2.81921
11
4.73399
21
-2.81812
0
LINE
8
BLACK
6
CONTINUOUS
10
4.73399
20
-2.81812
11
4.73388
21
-2.81699
0
LINE
8
BLACK
6
CONTINUOUS
10
4.73388
20
-2.81699
11
4.73388
21
-2.80341
0
LINE
8
BLACK
6
CONTINUOUS
10
4.73388
20
-2.80341
11
4.73399
21
-2.80228
0
LINE
8
BLACK
6
CONTINUOUS
10
4.73399
20
-2.80228
11
4.73432
21
-2.80119
0
LINE
8
BLACK
6
CONTINUOUS
10
4.73432
20
-2.80119
11
4.73486
21
-2.80018
0
LINE
8
BLACK
6
CONTINUOUS
10
4.73486
20
-2.80018
11
4.73558
21
-2.7993
0
LINE
8
BLACK
6
CONTINUOUS
10
4.73558
20
-2.7993
11
4.73646
21
-2.79858
0
LINE
8
BLACK
6
CONTINUOUS
10
4.73646
20
-2.79858
11
4.73747
21
-2.79804
0
LINE
8
BLACK
6
CONTINUOUS
10
4.73747
20
-2.79804
11
4.73855
21
-2.79771
0
LINE
8
BLACK
6
CONTINUOUS
10
4.73855
20
-2.79771
11
4.73969
21
-2.7976
0
LINE
8
BLACK
6
CONTINUOUS
10
4.73969
20
-2.7976
11
4.7513
21
-2.7976
0
LINE
8
BLACK
6
CONTINUOUS
10
4.7513
20
-2.7976
11
4.75243
21
-2.79771
0
LINE
8
BLACK
6
CONTINUOUS
10
4.45241
20
-2.77981
11
4.39139
21
-2.77981
0
LINE
8
BLACK
6
CONTINUOUS
10
4.39139
20
-2.77981
11
4.39139
21
-2.75619
0
LINE
8
BLACK
6
CONTINUOUS
10
4.39139
20
-2.75619
11
4.45241
21
-2.75619
0
LINE
8
BLACK
6
CONTINUOUS
10
4.45241
20
-2.75619
11
4.45241
21
-2.77981
0
LINE
8
BLACK
6
CONTINUOUS
10
4.66501
20
-2.77981
11
4.60399
21
-2.77981
0
LINE
8
BLACK
6
CONTINUOUS
10
4.60399
20
-2.77981
11
4.60399
21
-2.75619
0
LINE
8
BLACK
6
CONTINUOUS
10
4.60399
20
-2.75619
11
4.66501
21
-2.75619
0
LINE
8
BLACK
6
CONTINUOUS
10
4.66501
20
-2.75619
11
4.66501
21
-2.77981
0
LINE
8
BLACK
6
CONTINUOUS
10
4.74553
20
-2.75211
11
4.74662
21
-2.75244
0
LINE
8
BLACK
6
CONTINUOUS
10
4.74662
20
-2.75244
11
4.74762
21
-2.75298
0
LINE
8
BLACK
6
CONTINUOUS
10
4.74762
20
-2.75298
11
4.7485
21
-2.7537
0
LINE
8
BLACK
6
CONTINUOUS
10
4.7485
20
-2.7537
11
4.74922
21
-2.75458
0
LINE
8
BLACK
6
CONTINUOUS
10
4.74922
20
-2.75458
11
4.74976
21
-2.75559
0
LINE
8
BLACK
6
CONTINUOUS
10
4.74976
20
-2.75559
11
4.75009
21
-2.75668
0
LINE
8
BLACK
6
CONTINUOUS
10
4.75009
20
-2.75668
11
4.7502
21
-2.75781
0
LINE
8
BLACK
6
CONTINUOUS
10
4.7502
20
-2.75781
11
4.7502
21
-2.77139
0
LINE
8
BLACK
6
CONTINUOUS
10
4.7502
20
-2.77139
11
4.75009
21
-2.77252
0
LINE
8
BLACK
6
CONTINUOUS
10
4.75009
20
-2.77252
11
4.74976
21
-2.77361
0
LINE
8
BLACK
6
CONTINUOUS
10
4.74976
20
-2.77361
11
4.74922
21
-2.77462
0
LINE
8
BLACK
6
CONTINUOUS
10
4.74922
20
-2.77462
11
4.7485
21
-2.7755
0
LINE
8
BLACK
6
CONTINUOUS
10
4.7485
20
-2.7755
11
4.74762
21
-2.77622
0
LINE
8
BLACK
6
CONTINUOUS
10
4.74762
20
-2.77622
11
4.74662
21
-2.77676
0
LINE
8
BLACK
6
CONTINUOUS
10
4.74662
20
-2.77676
11
4.74553
21
-2.77709
0
LINE
8
BLACK
6
CONTINUOUS
10
4.74553
20
-2.77709
11
4.7444
21
-2.7772
0
LINE
8
BLACK
6
CONTINUOUS
10
4.7444
20
-2.7772
11
4.73278
21
-2.7772
0
LINE
8
BLACK
6
CONTINUOUS
10
4.73278
20
-2.7772
11
4.73165
21
-2.77709
0
LINE
8
BLACK
6
CONTINUOUS
10
4.73165
20
-2.77709
11
4.73056
21
-2.77676
0
LINE
8
BLACK
6
CONTINUOUS
10
4.73056
20
-2.77676
11
4.72956
21
-2.77622
0
LINE
8
BLACK
6
CONTINUOUS
10
4.72956
20
-2.77622
11
4.72868
21
-2.7755
0
LINE
8
BLACK
6
CONTINUOUS
10
4.72868
20
-2.7755
11
4.72795
21
-2.77462
0
LINE
8
BLACK
6
CONTINUOUS
10
4.72795
20
-2.77462
11
4.72742
21
-2.77361
0
LINE
8
BLACK
6
CONTINUOUS
10
4.72742
20
-2.77361
11
4.72709
21
-2.77252
0
LINE
8
BLACK
6
CONTINUOUS
10
4.72709
20
-2.77252
11
4.72697
21
-2.77139
0
LINE
8
BLACK
6
CONTINUOUS
10
4.72697
20
-2.77139
11
4.72697
21
-2.75781
0
LINE
8
BLACK
6
CONTINUOUS
10
4.72697
20
-2.75781
11
4.72709
21
-2.75668
0
LINE
8
BLACK
6
CONTINUOUS
10
4.72709
20
-2.75668
11
4.72742
21
-2.75559
0
LINE
8
BLACK
6
CONTINUOUS
10
4.72742
20
-2.75559
11
4.72795
21
-2.75458
0
LINE
8
BLACK
6
CONTINUOUS
10
4.72795
20
-2.75458
11
4.72868
21
-2.7537
0
LINE
8
BLACK
6
CONTINUOUS
10
4.72868
20
-2.7537
11
4.72956
21
-2.75298
0
LINE
8
BLACK
6
CONTINUOUS
10
4.72956
20
-2.75298
11
4.73056
21
-2.75244
0
LINE
8
BLACK
6
CONTINUOUS
10
4.73056
20
-2.75244
11
4.73165
21
-2.75211
0
LINE
8
BLACK
6
CONTINUOUS
10
4.73165
20
-2.75211
11
4.73278
21
-2.752
0
LINE
8
BLACK
6
CONTINUOUS
10
4.73278
20
-2.752
11
4.7444
21
-2.752
0
LINE
8
BLACK
6
CONTINUOUS
10
4.7444
20
-2.752
11
4.74553
21
-2.75211
0
LINE
8
BLACK
6
CONTINUOUS
10
4.70734
20
-2.75211
11
4.70843
21
-2.75244
0
LINE
8
BLACK
6
CONTINUOUS
10
4.70843
20
-2.75244
11
4.70943
21
-2.75298
0
LINE
8
BLACK
6
CONTINUOUS
10
4.70943
20
-2.75298
11
4.71031
21
-2.7537
0
LINE
8
BLACK
6
CONTINUOUS
10
4.71031
20
-2.7537
11
4.71104
21
-2.75458
0
LINE
8
BLACK
6
CONTINUOUS
10
4.71104
20
-2.75458
11
4.71157
21
-2.75559
0
LINE
8
BLACK
6
CONTINUOUS
10
4.71157
20
-2.75559
11
4.7119
21
-2.75668
0
LINE
8
BLACK
6
CONTINUOUS
10
4.7119
20
-2.75668
11
4.71201
21
-2.75781
0
LINE
8
BLACK
6
CONTINUOUS
10
4.71201
20
-2.75781
11
4.71201
21
-2.77139
0
LINE
8
BLACK
6
CONTINUOUS
10
4.71201
20
-2.77139
11
4.7119
21
-2.77252
0
LINE
8
BLACK
6
CONTINUOUS
10
4.7119
20
-2.77252
11
4.71157
21
-2.77361
0
LINE
8
BLACK
6
CONTINUOUS
10
4.71157
20
-2.77361
11
4.71104
21
-2.77462
0
LINE
8
BLACK
6
CONTINUOUS
10
4.71104
20
-2.77462
11
4.71031
21
-2.7755
0
LINE
8
BLACK
6
CONTINUOUS
10
4.71031
20
-2.7755
11
4.70943
21
-2.77622
0
LINE
8
BLACK
6
CONTINUOUS
10
4.70943
20
-2.77622
11
4.70843
21
-2.77676
0
LINE
8
BLACK
6
CONTINUOUS
10
4.70843
20
-2.77676
11
4.70734
21
-2.77709
0
LINE
8
BLACK
6
CONTINUOUS
10
4.70734
20
-2.77709
11
4.70621
21
-2.7772
0
LINE
8
BLACK
6
CONTINUOUS
10
4.70621
20
-2.7772
11
4.69459
21
-2.7772
0
LINE
8
BLACK
6
CONTINUOUS
10
4.69459
20
-2.7772
11
4.69346
21
-2.77709
0
LINE
8
BLACK
6
CONTINUOUS
10
4.69346
20
-2.77709
11
4.69237
21
-2.77676
0
LINE
8
BLACK
6
CONTINUOUS
10
4.69237
20
-2.77676
11
4.69137
21
-2.77622
0
LINE
8
BLACK
6
CONTINUOUS
10
4.69137
20
-2.77622
11
4.69049
21
-2.7755
0
LINE
8
BLACK
6
CONTINUOUS
10
4.69049
20
-2.7755
11
4.68976
21
-2.77462
0
LINE
8
BLACK
6
CONTINUOUS
10
4.68976
20
-2.77462
11
4.68923
21
-2.77361
0
LINE
8
BLACK
6
CONTINUOUS
10
4.68923
20
-2.77361
11
4.6889
21
-2.77252
0
LINE
8
BLACK
6
CONTINUOUS
10
4.6889
20
-2.77252
11
4.68879
21
-2.77139
0
LINE
8
BLACK
6
CONTINUOUS
10
4.68879
20
-2.77139
11
4.68879
21
-2.75781
0
LINE
8
BLACK
6
CONTINUOUS
10
4.68879
20
-2.75781
11
4.6889
21
-2.75668
0
LINE
8
BLACK
6
CONTINUOUS
10
4.6889
20
-2.75668
11
4.68923
21
-2.75559
0
LINE
8
BLACK
6
CONTINUOUS
10
4.68923
20
-2.75559
11
4.68976
21
-2.75458
0
LINE
8
BLACK
6
CONTINUOUS
10
4.68976
20
-2.75458
11
4.69049
21
-2.7537
0
LINE
8
BLACK
6
CONTINUOUS
10
4.69049
20
-2.7537
11
4.69137
21
-2.75298
0
LINE
8
BLACK
6
CONTINUOUS
10
4.69137
20
-2.75298
11
4.69237
21
-2.75244
0
LINE
8
BLACK
6
CONTINUOUS
10
4.69237
20
-2.75244
11
4.69346
21
-2.75211
0
LINE
8
BLACK
6
CONTINUOUS
10
4.69346
20
-2.75211
11
4.69459
21
-2.752
0
LINE
8
BLACK
6
CONTINUOUS
10
4.69459
20
-2.752
11
4.70621
21
-2.752
0
LINE
8
BLACK
6
CONTINUOUS
10
4.70621
20
-2.752
11
4.70734
21
-2.75211
0
LINE
8
BLACK
6
CONTINUOUS
10
4.70794
20
-2.70631
11
4.70903
21
-2.70664
0
LINE
8
BLACK
6
CONTINUOUS
10
4.70903
20
-2.70664
11
4.71003
21
-2.70718
0
LINE
8
BLACK
6
CONTINUOUS
10
4.71003
20
-2.70718
11
4.71091
21
-2.7079
0
LINE
8
BLACK
6
CONTINUOUS
10
4.71091
20
-2.7079
11
4.71164
21
-2.70878
0
LINE
8
BLACK
6
CONTINUOUS
10
4.71164
20
-2.70878
11
4.71217
21
-2.70979
0
LINE
8
BLACK
6
CONTINUOUS
10
4.71217
20
-2.70979
11
4.7125
21
-2.71088
0
LINE
8
BLACK
6
CONTINUOUS
10
4.7125
20
-2.71088
11
4.71261
21
-2.71201
0
LINE
8
BLACK
6
CONTINUOUS
10
4.71261
20
-2.71201
11
4.71261
21
-2.72559
0
LINE
8
BLACK
6
CONTINUOUS
10
4.71261
20
-2.72559
11
4.7125
21
-2.72672
0
LINE
8
BLACK
6
CONTINUOUS
10
4.7125
20
-2.72672
11
4.71217
21
-2.72781
0
LINE
8
BLACK
6
CONTINUOUS
10
4.71217
20
-2.72781
11
4.71164
21
-2.72882
0
LINE
8
BLACK
6
CONTINUOUS
10
4.71164
20
-2.72882
11
4.71091
21
-2.7297
0
LINE
8
BLACK
6
CONTINUOUS
10
4.71091
20
-2.7297
11
4.71003
21
-2.73042
0
LINE
8
BLACK
6
CONTINUOUS
10
4.71003
20
-2.73042
11
4.70903
21
-2.73096
0
LINE
8
BLACK
6
CONTINUOUS
10
4.70903
20
-2.73096
11
4.70794
21
-2.73129
0
LINE
8
BLACK
6
CONTINUOUS
10
4.70794
20
-2.73129
11
4.70681
21
-2.7314
0
LINE
8
BLACK
6
CONTINUOUS
10
4.70681
20
-2.7314
11
4.69519
21
-2.7314
0
LINE
8
BLACK
6
CONTINUOUS
10
4.69519
20
-2.7314
11
4.69406
21
-2.73129
0
LINE
8
BLACK
6
CONTINUOUS
10
4.69406
20
-2.73129
11
4.69297
21
-2.73096
0
LINE
8
BLACK
6
CONTINUOUS
10
4.69297
20
-2.73096
11
4.69197
21
-2.73042
0
LINE
8
BLACK
6
CONTINUOUS
10
4.69197
20
-2.73042
11
4.69109
21
-2.7297
0
LINE
8
BLACK
6
CONTINUOUS
10
4.69109
20
-2.7297
11
4.69036
21
-2.72882
0
LINE
8
BLACK
6
CONTINUOUS
10
4.69036
20
-2.72882
11
4.68983
21
-2.72781
0
LINE
8
BLACK
6
CONTINUOUS
10
4.68983
20
-2.72781
11
4.6895
21
-2.72672
0
LINE
8
BLACK
6
CONTINUOUS
10
4.6895
20
-2.72672
11
4.68939
21
-2.72559
0
LINE
8
BLACK
6
CONTINUOUS
10
4.68939
20
-2.72559
11
4.68939
21
-2.71201
0
LINE
8
BLACK
6
CONTINUOUS
10
4.68939
20
-2.71201
11
4.6895
21
-2.71088
0
LINE
8
BLACK
6
CONTINUOUS
10
4.6895
20
-2.71088
11
4.68983
21
-2.70979
0
LINE
8
BLACK
6
CONTINUOUS
10
4.68983
20
-2.70979
11
4.69036
21
-2.70878
0
LINE
8
BLACK
6
CONTINUOUS
10
4.69036
20
-2.70878
11
4.69109
21
-2.7079
0
LINE
8
BLACK
6
CONTINUOUS
10
4.69109
20
-2.7079
11
4.69197
21
-2.70718
0
LINE
8
BLACK
6
CONTINUOUS
10
4.69197
20
-2.70718
11
4.69297
21
-2.70664
0
LINE
8
BLACK
6
CONTINUOUS
10
4.69297
20
-2.70664
11
4.69406
21
-2.70631
0
LINE
8
BLACK
6
CONTINUOUS
10
4.69406
20
-2.70631
11
4.69519
21
-2.7062
0
LINE
8
BLACK
6
CONTINUOUS
10
4.69519
20
-2.7062
11
4.70681
21
-2.7062
0
LINE
8
BLACK
6
CONTINUOUS
10
4.70681
20
-2.7062
11
4.70794
21
-2.70631
0
LINE
8
BLACK
6
CONTINUOUS
10
4.74613
20
-2.70631
11
4.74722
21
-2.70664
0
LINE
8
BLACK
6
CONTINUOUS
10
4.74722
20
-2.70664
11
4.74822
21
-2.70718
0
LINE
8
BLACK
6
CONTINUOUS
10
4.74822
20
-2.70718
11
4.7491
21
-2.7079
0
LINE
8
BLACK
6
CONTINUOUS
10
4.7491
20
-2.7079
11
4.74982
21
-2.70878
0
LINE
8
BLACK
6
CONTINUOUS
10
4.74982
20
-2.70878
11
4.75036
21
-2.70979
0
LINE
8
BLACK
6
CONTINUOUS
10
4.75036
20
-2.70979
11
4.75069
21
-2.71088
0
LINE
8
BLACK
6
CONTINUOUS
10
4.75069
20
-2.71088
11
4.7508
21
-2.71201
0
LINE
8
BLACK
6
CONTINUOUS
10
4.7508
20
-2.71201
11
4.7508
21
-2.72559
0
LINE
8
BLACK
6
CONTINUOUS
10
4.7508
20
-2.72559
11
4.75069
21
-2.72672
0
LINE
8
BLACK
6
CONTINUOUS
10
4.75069
20
-2.72672
11
4.75036
21
-2.72781
0
LINE
8
BLACK
6
CONTINUOUS
10
4.75036
20
-2.72781
11
4.74982
21
-2.72882
0
LINE
8
BLACK
6
CONTINUOUS
10
4.74982
20
-2.72882
11
4.7491
21
-2.7297
0
LINE
8
BLACK
6
CONTINUOUS
10
4.7491
20
-2.7297
11
4.74822
21
-2.73042
0
LINE
8
BLACK
6
CONTINUOUS
10
4.74822
20
-2.73042
11
4.74722
21
-2.73096
0
LINE
8
BLACK
6
CONTINUOUS
10
4.74722
20
-2.73096
11
4.74613
21
-2.73129
0
LINE
8
BLACK
6
CONTINUOUS
10
4.74613
20
-2.73129
11
4.745
21
-2.7314
0
LINE
8
BLACK
6
CONTINUOUS
10
4.745
20
-2.7314
11
4.73338
21
-2.7314
0
LINE
8
BLACK
6
CONTINUOUS
10
4.73338
20
-2.7314
11
4.73225
21
-2.73129
0
LINE
8
BLACK
6
CONTINUOUS
10
4.73225
20
-2.73129
11
4.73116
21
-2.73096
0
LINE
8
BLACK
6
CONTINUOUS
10
4.73116
20
-2.73096
11
4.73016
21
-2.73042
0
LINE
8
BLACK
6
CONTINUOUS
10
4.73016
20
-2.73042
11
4.72928
21
-2.7297
0
LINE
8
BLACK
6
CONTINUOUS
10
4.72928
20
-2.7297
11
4.72855
21
-2.72882
0
LINE
8
BLACK
6
CONTINUOUS
10
4.72855
20
-2.72882
11
4.72802
21
-2.72781
0
LINE
8
BLACK
6
CONTINUOUS
10
4.72802
20
-2.72781
11
4.72769
21
-2.72672
0
LINE
8
BLACK
6
CONTINUOUS
10
4.72769
20
-2.72672
11
4.72757
21
-2.72559
0
LINE
8
BLACK
6
CONTINUOUS
10
4.72757
20
-2.72559
11
4.72757
21
-2.71201
0
LINE
8
BLACK
6
CONTINUOUS
10
4.72757
20
-2.71201
11
4.72769
21
-2.71088
0
LINE
8
BLACK
6
CONTINUOUS
10
4.72769
20
-2.71088
11
4.72802
21
-2.70979
0
LINE
8
BLACK
6
CONTINUOUS
10
4.72802
20
-2.70979
11
4.72855
21
-2.70878
0
LINE
8
BLACK
6
CONTINUOUS
10
4.72855
20
-2.70878
11
4.72928
21
-2.7079
0
LINE
8
BLACK
6
CONTINUOUS
10
4.72928
20
-2.7079
11
4.73016
21
-2.70718
0
LINE
8
BLACK
6
CONTINUOUS
10
4.73016
20
-2.70718
11
4.73116
21
-2.70664
0
LINE
8
BLACK
6
CONTINUOUS
10
4.73116
20
-2.70664
11
4.73225
21
-2.70631
0
LINE
8
BLACK
6
CONTINUOUS
10
4.73225
20
-2.70631
11
4.73338
21
-2.7062
0
LINE
8
BLACK
6
CONTINUOUS
10
4.73338
20
-2.7062
11
4.745
21
-2.7062
0
LINE
8
BLACK
6
CONTINUOUS
10
4.745
20
-2.7062
11
4.74613
21
-2.70631
0
LINE
8
BLACK
6
CONTINUOUS
10
4.35632
20
-2.69639
11
4.35741
21
-2.69672
0
LINE
8
BLACK
6
CONTINUOUS
10
4.35741
20
-2.69672
11
4.35842
21
-2.69726
0
LINE
8
BLACK
6
CONTINUOUS
10
4.35842
20
-2.69726
11
4.3593
21
-2.69798
0
LINE
8
BLACK
6
CONTINUOUS
10
4.3593
20
-2.69798
11
4.36002
21
-2.69886
0
LINE
8
BLACK
6
CONTINUOUS
10
4.36002
20
-2.69886
11
4.36056
21
-2.69987
0
LINE
8
BLACK
6
CONTINUOUS
10
4.36056
20
-2.69987
11
4.36089
21
-2.70095
0
LINE
8
BLACK
6
CONTINUOUS
10
4.36089
20
-2.70095
11
4.361
21
-2.70209
0
LINE
8
BLACK
6
CONTINUOUS
10
4.361
20
-2.70209
11
4.361
21
-2.7137
0
LINE
8
BLACK
6
CONTINUOUS
10
4.361
20
-2.7137
11
4.36089
21
-2.71483
0
LINE
8
BLACK
6
CONTINUOUS
10
4.36089
20
-2.71483
11
4.36056
21
-2.71592
0
LINE
8
BLACK
6
CONTINUOUS
10
4.36056
20
-2.71592
11
4.36002
21
-2.71693
0
LINE
8
BLACK
6
CONTINUOUS
10
4.36002
20
-2.71693
11
4.3593
21
-2.71781
0
LINE
8
BLACK
6
CONTINUOUS
10
4.3593
20
-2.71781
11
4.35842
21
-2.71853
0
LINE
8
BLACK
6
CONTINUOUS
10
4.35842
20
-2.71853
11
4.35741
21
-2.71907
0
LINE
8
BLACK
6
CONTINUOUS
10
4.35741
20
-2.71907
11
4.35632
21
-2.7194
0
LINE
8
BLACK
6
CONTINUOUS
10
4.35632
20
-2.7194
11
4.35519
21
-2.71951
0
LINE
8
BLACK
6
CONTINUOUS
10
4.35519
20
-2.71951
11
4.34161
21
-2.71951
0
LINE
8
BLACK
6
CONTINUOUS
10
4.34161
20
-2.71951
11
4.34048
21
-2.7194
0
LINE
8
BLACK
6
CONTINUOUS
10
4.34048
20
-2.7194
11
4.33939
21
-2.71907
0
LINE
8
BLACK
6
CONTINUOUS
10
4.33939
20
-2.71907
11
4.33838
21
-2.71853
0
LINE
8
BLACK
6
CONTINUOUS
10
4.33838
20
-2.71853
11
4.3375
21
-2.71781
0
LINE
8
BLACK
6
CONTINUOUS
10
4.3375
20
-2.71781
11
4.33678
21
-2.71693
0
LINE
8
BLACK
6
CONTINUOUS
10
4.33678
20
-2.71693
11
4.33624
21
-2.71592
0
LINE
8
BLACK
6
CONTINUOUS
10
4.33624
20
-2.71592
11
4.33591
21
-2.71483
0
LINE
8
BLACK
6
CONTINUOUS
10
4.33591
20
-2.71483
11
4.3358
21
-2.7137
0
LINE
8
BLACK
6
CONTINUOUS
10
4.3358
20
-2.7137
11
4.3358
21
-2.70209
0
LINE
8
BLACK
6
CONTINUOUS
10
4.3358
20
-2.70209
11
4.33591
21
-2.70095
0
LINE
8
BLACK
6
CONTINUOUS
10
4.33591
20
-2.70095
11
4.33624
21
-2.69987
0
LINE
8
BLACK
6
CONTINUOUS
10
4.33624
20
-2.69987
11
4.33678
21
-2.69886
0
LINE
8
BLACK
6
CONTINUOUS
10
4.33678
20
-2.69886
11
4.3375
21
-2.69798
0
LINE
8
BLACK
6
CONTINUOUS
10
4.3375
20
-2.69798
11
4.33838
21
-2.69726
0
LINE
8
BLACK
6
CONTINUOUS
10
4.33838
20
-2.69726
11
4.33939
21
-2.69672
0
LINE
8
BLACK
6
CONTINUOUS
10
4.33939
20
-2.69672
11
4.34048
21
-2.69639
0
LINE
8
BLACK
6
CONTINUOUS
10
4.34048
20
-2.69639
11
4.34161
21
-2.69628
0
LINE
8
BLACK
6
CONTINUOUS
10
4.34161
20
-2.69628
11
4.35519
21
-2.69628
0
LINE
8
BLACK
6
CONTINUOUS
10
4.35519
20
-2.69628
11
4.35632
21
-2.69639
0
LINE
8
BLACK
6
CONTINUOUS
10
4.79872
20
-2.68699
11
4.79981
21
-2.68732
0
LINE
8
BLACK
6
CONTINUOUS
10
4.79981
20
-2.68732
11
4.80082
21
-2.68786
0
LINE
8
BLACK
6
CONTINUOUS
10
4.80082
20
-2.68786
11
4.8017
21
-2.68858
0
LINE
8
BLACK
6
CONTINUOUS
10
4.8017
20
-2.68858
11
4.80242
21
-2.68946
0
LINE
8
BLACK
6
CONTINUOUS
10
4.80242
20
-2.68946
11
4.80296
21
-2.69047
0
LINE
8
BLACK
6
CONTINUOUS
10
4.80296
20
-2.69047
11
4.80329
21
-2.69155
0
LINE
8
BLACK
6
CONTINUOUS
10
4.80329
20
-2.69155
11
4.8034
21
-2.69269
0
LINE
8
BLACK
6
CONTINUOUS
10
4.8034
20
-2.69269
11
4.8034
21
-2.7043
0
LINE
8
BLACK
6
CONTINUOUS
10
4.8034
20
-2.7043
11
4.80329
21
-2.70543
0
LINE
8
BLACK
6
CONTINUOUS
10
4.80329
20
-2.70543
11
4.80296
21
-2.70652
0
LINE
8
BLACK
6
CONTINUOUS
10
4.80296
20
-2.70652
11
4.80242
21
-2.70753
0
LINE
8
BLACK
6
CONTINUOUS
10
4.80242
20
-2.70753
11
4.8017
21
-2.70841
0
LINE
8
BLACK
6
CONTINUOUS
10
4.8017
20
-2.70841
11
4.80082
21
-2.70913
0
LINE
8
BLACK
6
CONTINUOUS
10
4.80082
20
-2.70913
11
4.79981
21
-2.70967
0
LINE
8
BLACK
6
CONTINUOUS
10
4.79981
20
-2.70967
11
4.79872
21
-2.71
0
LINE
8
BLACK
6
CONTINUOUS
10
4.79872
20
-2.71
11
4.79759
21
-2.71011
0
LINE
8
BLACK
6
CONTINUOUS
10
4.79759
20
-2.71011
11
4.78401
21
-2.71011
0
LINE
8
BLACK
6
CONTINUOUS
10
4.78401
20
-2.71011
11
4.78288
21
-2.71
0
LINE
8
BLACK
6
CONTINUOUS
10
4.78288
20
-2.71
11
4.78179
21
-2.70967
0
LINE
8
BLACK
6
CONTINUOUS
10
4.78179
20
-2.70967
11
4.78078
21
-2.70913
0
LINE
8
BLACK
6
CONTINUOUS
10
4.78078
20
-2.70913
11
4.7799
21
-2.70841
0
LINE
8
BLACK
6
CONTINUOUS
10
4.7799
20
-2.70841
11
4.77918
21
-2.70753
0
LINE
8
BLACK
6
CONTINUOUS
10
4.77918
20
-2.70753
11
4.77864
21
-2.70652
0
LINE
8
BLACK
6
CONTINUOUS
10
4.77864
20
-2.70652
11
4.77831
21
-2.70543
0
LINE
8
BLACK
6
CONTINUOUS
10
4.77831
20
-2.70543
11
4.7782
21
-2.7043
0
LINE
8
BLACK
6
CONTINUOUS
10
4.7782
20
-2.7043
11
4.7782
21
-2.69269
0
LINE
8
BLACK
6
CONTINUOUS
10
4.7782
20
-2.69269
11
4.77831
21
-2.69155
0
LINE
8
BLACK
6
CONTINUOUS
10
4.77831
20
-2.69155
11
4.77864
21
-2.69047
0
LINE
8
BLACK
6
CONTINUOUS
10
4.77864
20
-2.69047
11
4.77918
21
-2.68946
0
LINE
8
BLACK
6
CONTINUOUS
10
4.77918
20
-2.68946
11
4.7799
21
-2.68858
0
LINE
8
BLACK
6
CONTINUOUS
10
4.7799
20
-2.68858
11
4.78078
21
-2.68786
0
LINE
8
BLACK
6
CONTINUOUS
10
4.78078
20
-2.68786
11
4.78179
21
-2.68732
0
LINE
8
BLACK
6
CONTINUOUS
10
4.78179
20
-2.68732
11
4.78288
21
-2.68699
0
LINE
8
BLACK
6
CONTINUOUS
10
4.78288
20
-2.68699
11
4.78401
21
-2.68688
0
LINE
8
BLACK
6
CONTINUOUS
10
4.78401
20
-2.68688
11
4.79759
21
-2.68688
0
LINE
8
BLACK
6
CONTINUOUS
10
4.79759
20
-2.68688
11
4.79872
21
-2.68699
0
LINE
8
BLACK
6
CONTINUOUS
10
4.45161
20
-2.69241
11
4.39059
21
-2.69241
0
LINE
8
BLACK
6
CONTINUOUS
10
4.39059
20
-2.69241
11
4.39059
21
-2.66879
0
LINE
8
BLACK
6
CONTINUOUS
10
4.39059
20
-2.66879
11
4.45161
21
-2.66879
0
LINE
8
BLACK
6
CONTINUOUS
10
4.45161
20
-2.66879
11
4.45161
21
-2.69241
0
LINE
8
BLACK
6
CONTINUOUS
10
4.66421
20
-2.69241
11
4.60319
21
-2.69241
0
LINE
8
BLACK
6
CONTINUOUS
10
4.60319
20
-2.69241
11
4.60319
21
-2.66879
0
LINE
8
BLACK
6
CONTINUOUS
10
4.60319
20
-2.66879
11
4.66421
21
-2.66879
0
LINE
8
BLACK
6
CONTINUOUS
10
4.66421
20
-2.66879
11
4.66421
21
-2.69241
0
LINE
8
BLACK
6
CONTINUOUS
10
4.35632
20
-2.6582
11
4.35741
21
-2.65853
0
LINE
8
BLACK
6
CONTINUOUS
10
4.35741
20
-2.65853
11
4.35842
21
-2.65907
0
LINE
8
BLACK
6
CONTINUOUS
10
4.35842
20
-2.65907
11
4.3593
21
-2.65979
0
LINE
8
BLACK
6
CONTINUOUS
10
4.3593
20
-2.65979
11
4.36002
21
-2.66067
0
LINE
8
BLACK
6
CONTINUOUS
10
4.36002
20
-2.66067
11
4.36056
21
-2.66168
0
LINE
8
BLACK
6
CONTINUOUS
10
4.36056
20
-2.66168
11
4.36089
21
-2.66277
0
LINE
8
BLACK
6
CONTINUOUS
10
4.36089
20
-2.66277
11
4.361
21
-2.6639
0
LINE
8
BLACK
6
CONTINUOUS
10
4.361
20
-2.6639
11
4.361
21
-2.67551
0
LINE
8
BLACK
6
CONTINUOUS
10
4.361
20
-2.67551
11
4.36089
21
-2.67665
0
LINE
8
BLACK
6
CONTINUOUS
10
4.36089
20
-2.67665
11
4.36056
21
-2.67773
0
LINE
8
BLACK
6
CONTINUOUS
10
4.36056
20
-2.67773
11
4.36002
21
-2.67874
0
LINE
8
BLACK
6
CONTINUOUS
10
4.36002
20
-2.67874
11
4.3593
21
-2.67962
0
LINE
8
BLACK
6
CONTINUOUS
10
4.3593
20
-2.67962
11
4.35842
21
-2.68034
0
LINE
8
BLACK
6
CONTINUOUS
10
4.35842
20
-2.68034
11
4.35741
21
-2.68088
0
LINE
8
BLACK
6
CONTINUOUS
10
4.35741
20
-2.68088
11
4.35632
21
-2.68121
0
LINE
8
BLACK
6
CONTINUOUS
10
4.35632
20
-2.68121
11
4.35519
21
-2.68132
0
LINE
8
BLACK
6
CONTINUOUS
10
4.35519
20
-2.68132
11
4.34161
21
-2.68132
0
LINE
8
BLACK
6
CONTINUOUS
10
4.34161
20
-2.68132
11
4.34048
21
-2.68121
0
LINE
8
BLACK
6
CONTINUOUS
10
4.34048
20
-2.68121
11
4.33939
21
-2.68088
0
LINE
8
BLACK
6
CONTINUOUS
10
4.33939
20
-2.68088
11
4.33838
21
-2.68034
0
LINE
8
BLACK
6
CONTINUOUS
10
4.33838
20
-2.68034
11
4.3375
21
-2.67962
0
LINE
8
BLACK
6
CONTINUOUS
10
4.3375
20
-2.67962
11
4.33678
21
-2.67874
0
LINE
8
BLACK
6
CONTINUOUS
10
4.33678
20
-2.67874
11
4.33624
21
-2.67773
0
LINE
8
BLACK
6
CONTINUOUS
10
4.33624
20
-2.67773
11
4.33591
21
-2.67665
0
LINE
8
BLACK
6
CONTINUOUS
10
4.33591
20
-2.67665
11
4.3358
21
-2.67551
0
LINE
8
BLACK
6
CONTINUOUS
10
4.3358
20
-2.67551
11
4.3358
21
-2.6639
0
LINE
8
BLACK
6
CONTINUOUS
10
4.3358
20
-2.6639
11
4.33591
21
-2.66277
0
LINE
8
BLACK
6
CONTINUOUS
10
4.33591
20
-2.66277
11
4.33624
21
-2.66168
0
LINE
8
BLACK
6
CONTINUOUS
10
4.33624
20
-2.66168
11
4.33678
21
-2.66067
0
LINE
8
BLACK
6
CONTINUOUS
10
4.33678
20
-2.66067
11
4.3375
21
-2.65979
0
LINE
8
BLACK
6
CONTINUOUS
10
4.3375
20
-2.65979
11
4.33838
21
-2.65907
0
LINE
8
BLACK
6
CONTINUOUS
10
4.33838
20
-2.65907
11
4.33939
21
-2.65853
0
LINE
8
BLACK
6
CONTINUOUS
10
4.33939
20
-2.65853
11
4.34048
21
-2.6582
0
LINE
8
BLACK
6
CONTINUOUS
10
4.34048
20
-2.6582
11
4.34161
21
-2.65809
0
LINE
8
BLACK
6
CONTINUOUS
10
4.34161
20
-2.65809
11
4.35519
21
-2.65809
0
LINE
8
BLACK
6
CONTINUOUS
10
4.35519
20
-2.65809
11
4.35632
21
-2.6582
0
LINE
8
BLACK
6
CONTINUOUS
10
4.71214
20
-2.64791
11
4.71323
21
-2.64824
0
LINE
8
BLACK
6
CONTINUOUS
10
4.71323
20
-2.64824
11
4.71423
21
-2.64878
0
LINE
8
BLACK
6
CONTINUOUS
10
4.71423
20
-2.64878
11
4.71511
21
-2.6495
0
LINE
8
BLACK
6
CONTINUOUS
10
4.71511
20
-2.6495
11
4.71584
21
-2.65038
0
LINE
8
BLACK
6
CONTINUOUS
10
4.71584
20
-2.65038
11
4.71637
21
-2.65139
0
LINE
8
BLACK
6
CONTINUOUS
10
4.71637
20
-2.65139
11
4.7167
21
-2.65248
0
LINE
8
BLACK
6
CONTINUOUS
10
4.7167
20
-2.65248
11
4.71681
21
-2.65361
0
LINE
8
BLACK
6
CONTINUOUS
10
4.71681
20
-2.65361
11
4.71681
21
-2.66719
0
LINE
8
BLACK
6
CONTINUOUS
10
4.71681
20
-2.66719
11
4.7167
21
-2.66832
0
LINE
8
BLACK
6
CONTINUOUS
10
4.7167
20
-2.66832
11
4.71637
21
-2.66941
0
LINE
8
BLACK
6
CONTINUOUS
10
4.71637
20
-2.66941
11
4.71584
21
-2.67042
0
LINE
8
BLACK
6
CONTINUOUS
10
4.71584
20
-2.67042
11
4.71511
21
-2.6713
0
LINE
8
BLACK
6
CONTINUOUS
10
4.71511
20
-2.6713
11
4.71423
21
-2.67202
0
LINE
8
BLACK
6
CONTINUOUS
10
4.71423
20
-2.67202
11
4.71323
21
-2.67256
0
LINE
8
BLACK
6
CONTINUOUS
10
4.71323
20
-2.67256
11
4.71214
21
-2.67289
0
LINE
8
BLACK
6
CONTINUOUS
10
4.71214
20
-2.67289
11
4.71101
21
-2.673
0
LINE
8
BLACK
6
CONTINUOUS
10
4.71101
20
-2.673
11
4.69939
21
-2.673
0
LINE
8
BLACK
6
CONTINUOUS
10
4.69939
20
-2.673
11
4.69826
21
-2.67289
0
LINE
8
BLACK
6
CONTINUOUS
10
4.69826
20
-2.67289
11
4.69717
21
-2.67256
0
LINE
8
BLACK
6
CONTINUOUS
10
4.69717
20
-2.67256
11
4.69617
21
-2.67202
0
LINE
8
BLACK
6
CONTINUOUS
10
4.69617
20
-2.67202
11
4.69529
21
-2.6713
0
LINE
8
BLACK
6
CONTINUOUS
10
4.69529
20
-2.6713
11
4.69456
21
-2.67042
0
LINE
8
BLACK
6
CONTINUOUS
10
4.69456
20
-2.67042
11
4.69403
21
-2.66941
0
LINE
8
BLACK
6
CONTINUOUS
10
4.69403
20
-2.66941
11
4.6937
21
-2.66832
0
LINE
8
BLACK
6
CONTINUOUS
10
4.6937
20
-2.66832
11
4.69359
21
-2.66719
0
LINE
8
BLACK
6
CONTINUOUS
10
4.69359
20
-2.66719
11
4.69359
21
-2.65361
0
LINE
8
BLACK
6
CONTINUOUS
10
4.69359
20
-2.65361
11
4.6937
21
-2.65248
0
LINE
8
BLACK
6
CONTINUOUS
10
4.6937
20
-2.65248
11
4.69403
21
-2.65139
0
LINE
8
BLACK
6
CONTINUOUS
10
4.69403
20
-2.65139
11
4.69456
21
-2.65038
0
LINE
8
BLACK
6
CONTINUOUS
10
4.69456
20
-2.65038
11
4.69529
21
-2.6495
0
LINE
8
BLACK
6
CONTINUOUS
10
4.69529
20
-2.6495
11
4.69617
21
-2.64878
0
LINE
8
BLACK
6
CONTINUOUS
10
4.69617
20
-2.64878
11
4.69717
21
-2.64824
0
LINE
8
BLACK
6
CONTINUOUS
10
4.69717
20
-2.64824
11
4.69826
21
-2.64791
0
LINE
8
BLACK
6
CONTINUOUS
10
4.69826
20
-2.64791
11
4.69939
21
-2.6478
0
LINE
8
BLACK
6
CONTINUOUS
10
4.69939
20
-2.6478
11
4.71101
21
-2.6478
0
LINE
8
BLACK
6
CONTINUOUS
10
4.71101
20
-2.6478
11
4.71214
21
-2.64791
0
LINE
8
BLACK
6
CONTINUOUS
10
4.75033
20
-2.64791
11
4.75142
21
-2.64824
0
LINE
8
BLACK
6
CONTINUOUS
10
4.75142
20
-2.64824
11
4.75242
21
-2.64878
0
LINE
8
BLACK
6
CONTINUOUS
10
4.75242
20
-2.64878
11
4.7533
21
-2.6495
0
LINE
8
BLACK
6
CONTINUOUS
10
4.7533
20
-2.6495
11
4.75402
21
-2.65038
0
LINE
8
BLACK
6
CONTINUOUS
10
4.75402
20
-2.65038
11
4.75456
21
-2.65139
0
LINE
8
BLACK
6
CONTINUOUS
10
4.75456
20
-2.65139
11
4.75489
21
-2.65248
0
LINE
8
BLACK
6
CONTINUOUS
10
4.75489
20
-2.65248
11
4.755
21
-2.65361
0
LINE
8
BLACK
6
CONTINUOUS
10
4.755
20
-2.65361
11
4.755
21
-2.66719
0
LINE
8
BLACK
6
CONTINUOUS
10
4.755
20
-2.66719
11
4.75489
21
-2.66832
0
LINE
8
BLACK
6
CONTINUOUS
10
4.75489
20
-2.66832
11
4.75456
21
-2.66941
0
LINE
8
BLACK
6
CONTINUOUS
10
4.75456
20
-2.66941
11
4.75402
21
-2.67042
0
LINE
8
BLACK
6
CONTINUOUS
10
4.75402
20
-2.67042
11
4.7533
21
-2.6713
0
LINE
8
BLACK
6
CONTINUOUS
10
4.7533
20
-2.6713
11
4.75242
21
-2.67202
0
LINE
8
BLACK
6
CONTINUOUS
10
4.75242
20
-2.67202
11
4.75142
21
-2.67256
0
LINE
8
BLACK
6
CONTINUOUS
10
4.75142
20
-2.67256
11
4.75033
21
-2.67289
0
LINE
8
BLACK
6
CONTINUOUS
10
4.75033
20
-2.67289
11
4.7492
21
-2.673
0
LINE
8
BLACK
6
CONTINUOUS
10
4.7492
20
-2.673
11
4.73758
21
-2.673
0
LINE
8
BLACK
6
CONTINUOUS
10
4.73758
20
-2.673
11
4.73645
21
-2.67289
0
LINE
8
BLACK
6
CONTINUOUS
10
4.73645
20
-2.67289
11
4.73536
21
-2.67256
0
LINE
8
BLACK
6
CONTINUOUS
10
4.73536
20
-2.67256
11
4.73436
21
-2.67202
0
LINE
8
BLACK
6
CONTINUOUS
10
4.73436
20
-2.67202
11
4.73348
21
-2.6713
0
LINE
8
BLACK
6
CONTINUOUS
10
4.73348
20
-2.6713
11
4.73275
21
-2.67042
0
LINE
8
BLACK
6
CONTINUOUS
10
4.73275
20
-2.67042
11
4.73222
21
-2.66941
0
LINE
8
BLACK
6
CONTINUOUS
10
4.73222
20
-2.66941
11
4.73189
21
-2.66832
0
LINE
8
BLACK
6
CONTINUOUS
10
4.73189
20
-2.66832
11
4.73177
21
-2.66719
0
LINE
8
BLACK
6
CONTINUOUS
10
4.73177
20
-2.66719
11
4.73177
21
-2.65361
0
LINE
8
BLACK
6
CONTINUOUS
10
4.73177
20
-2.65361
11
4.73189
21
-2.65248
0
LINE
8
BLACK
6
CONTINUOUS
10
4.73189
20
-2.65248
11
4.73222
21
-2.65139
0
LINE
8
BLACK
6
CONTINUOUS
10
4.73222
20
-2.65139
11
4.73275
21
-2.65038
0
LINE
8
BLACK
6
CONTINUOUS
10
4.73275
20
-2.65038
11
4.73348
21
-2.6495
0
LINE
8
BLACK
6
CONTINUOUS
10
4.73348
20
-2.6495
11
4.73436
21
-2.64878
0
LINE
8
BLACK
6
CONTINUOUS
10
4.73436
20
-2.64878
11
4.73536
21
-2.64824
0
LINE
8
BLACK
6
CONTINUOUS
10
4.73536
20
-2.64824
11
4.73645
21
-2.64791
0
LINE
8
BLACK
6
CONTINUOUS
10
4.73645
20
-2.64791
11
4.73758
21
-2.6478
0
LINE
8
BLACK
6
CONTINUOUS
10
4.73758
20
-2.6478
11
4.7492
21
-2.6478
0
LINE
8
BLACK
6
CONTINUOUS
10
4.7492
20
-2.6478
11
4.75033
21
-2.64791
0
LINE
8
BLACK
6
CONTINUOUS
10
4.79872
20
-2.6488
11
4.79981
21
-2.64913
0
LINE
8
BLACK
6
CONTINUOUS
10
4.79981
20
-2.64913
11
4.80082
21
-2.64967
0
LINE
8
BLACK
6
CONTINUOUS
10
4.80082
20
-2.64967
11
4.8017
21
-2.65039
0
LINE
8
BLACK
6
CONTINUOUS
10
4.8017
20
-2.65039
11
4.80242
21
-2.65127
0
LINE
8
BLACK
6
CONTINUOUS
10
4.80242
20
-2.65127
11
4.80296
21
-2.65228
0
LINE
8
BLACK
6
CONTINUOUS
10
4.80296
20
-2.65228
11
4.80329
21
-2.65337
0
LINE
8
BLACK
6
CONTINUOUS
10
4.80329
20
-2.65337
11
4.8034
21
-2.6545
0
LINE
8
BLACK
6
CONTINUOUS
10
4.8034
20
-2.6545
11
4.8034
21
-2.66611
0
LINE
8
BLACK
6
CONTINUOUS
10
4.8034
20
-2.66611
11
4.80329
21
-2.66725
0
LINE
8
BLACK
6
CONTINUOUS
10
4.80329
20
-2.66725
11
4.80296
21
-2.66833
0
LINE
8
BLACK
6
CONTINUOUS
10
4.80296
20
-2.66833
11
4.80242
21
-2.66934
0
LINE
8
BLACK
6
CONTINUOUS
10
4.80242
20
-2.66934
11
4.8017
21
-2.67022
0
LINE
8
BLACK
6
CONTINUOUS
10
4.8017
20
-2.67022
11
4.80082
21
-2.67094
0
LINE
8
BLACK
6
CONTINUOUS
10
4.80082
20
-2.67094
11
4.79981
21
-2.67148
0
LINE
8
BLACK
6
CONTINUOUS
10
4.79981
20
-2.67148
11
4.79872
21
-2.67181
0
LINE
8
BLACK
6
CONTINUOUS
10
4.79872
20
-2.67181
11
4.79759
21
-2.67192
0
LINE
8
BLACK
6
CONTINUOUS
10
4.79759
20
-2.67192
11
4.78401
21
-2.67192
0
LINE
8
BLACK
6
CONTINUOUS
10
4.78401
20
-2.67192
11
4.78288
21
-2.67181
0
LINE
8
BLACK
6
CONTINUOUS
10
4.78288
20
-2.67181
11
4.78179
21
-2.67148
0
LINE
8
BLACK
6
CONTINUOUS
10
4.78179
20
-2.67148
11
4.78078
21
-2.67094
0
LINE
8
BLACK
6
CONTINUOUS
10
4.78078
20
-2.67094
11
4.7799
21
-2.67022
0
LINE
8
BLACK
6
CONTINUOUS
10
4.7799
20
-2.67022
11
4.77918
21
-2.66934
0
LINE
8
BLACK
6
CONTINUOUS
10
4.77918
20
-2.66934
11
4.77864
21
-2.66833
0
LINE
8
BLACK
6
CONTINUOUS
10
4.77864
20
-2.66833
11
4.77831
21
-2.66725
0
LINE
8
BLACK
6
CONTINUOUS
10
4.77831
20
-2.66725
11
4.7782
21
-2.66611
0
LINE
8
BLACK
6
CONTINUOUS
10
4.7782
20
-2.66611
11
4.7782
21
-2.6545
0
LINE
8
BLACK
6
CONTINUOUS
10
4.7782
20
-2.6545
11
4.77831
21
-2.65337
0
LINE
8
BLACK
6
CONTINUOUS
10
4.77831
20
-2.65337
11
4.77864
21
-2.65228
0
LINE
8
BLACK
6
CONTINUOUS
10
4.77864
20
-2.65228
11
4.77918
21
-2.65127
0
LINE
8
BLACK
6
CONTINUOUS
10
4.77918
20
-2.65127
11
4.7799
21
-2.65039
0
LINE
8
BLACK
6
CONTINUOUS
10
4.7799
20
-2.65039
11
4.78078
21
-2.64967
0
LINE
8
BLACK
6
CONTINUOUS
10
4.78078
20
-2.64967
11
4.78179
21
-2.64913
0
LINE
8
BLACK
6
CONTINUOUS
10
4.78179
20
-2.64913
11
4.78288
21
-2.6488
0
LINE
8
BLACK
6
CONTINUOUS
10
4.78288
20
-2.6488
11
4.78401
21
-2.64869
0
LINE
8
BLACK
6
CONTINUOUS
10
4.78401
20
-2.64869
11
4.79759
21
-2.64869
0
LINE
8
BLACK
6
CONTINUOUS
10
4.79759
20
-2.64869
11
4.79872
21
-2.6488
0
LINE
8
BLACK
6
CONTINUOUS
10
4.66421
20
-2.64241
11
4.60319
21
-2.64241
0
LINE
8
BLACK
6
CONTINUOUS
10
4.60319
20
-2.64241
11
4.60319
21
-2.61879
0
LINE
8
BLACK
6
CONTINUOUS
10
4.60319
20
-2.61879
11
4.66421
21
-2.61879
0
LINE
8
BLACK
6
CONTINUOUS
10
4.66421
20
-2.61879
11
4.66421
21
-2.64241
0
LINE
8
BLACK
6
CONTINUOUS
10
4.45161
20
-2.64241
11
4.39059
21
-2.64241
0
LINE
8
BLACK
6
CONTINUOUS
10
4.39059
20
-2.64241
11
4.39059
21
-2.61879
0
LINE
8
BLACK
6
CONTINUOUS
10
4.39059
20
-2.61879
11
4.45161
21
-2.61879
0
LINE
8
BLACK
6
CONTINUOUS
10
4.45161
20
-2.61879
11
4.45161
21
-2.64241
0
LINE
8
BLACK
6
CONTINUOUS
10
4.75074
20
-2.60271
11
4.75183
21
-2.60304
0
LINE
8
BLACK
6
CONTINUOUS
10
4.75183
20
-2.60304
11
4.75283
21
-2.60358
0
LINE
8
BLACK
6
CONTINUOUS
10
4.75283
20
-2.60358
11
4.75371
21
-2.6043
0
LINE
8
BLACK
6
CONTINUOUS
10
4.75371
20
-2.6043
11
4.75444
21
-2.60518
0
LINE
8
BLACK
6
CONTINUOUS
10
4.75444
20
-2.60518
11
4.75497
21
-2.60619
0
LINE
8
BLACK
6
CONTINUOUS
10
4.75497
20
-2.60619
11
4.7553
21
-2.60728
0
LINE
8
BLACK
6
CONTINUOUS
10
4.7553
20
-2.60728
11
4.75541
21
-2.60841
0
LINE
8
BLACK
6
CONTINUOUS
10
4.75541
20
-2.60841
11
4.75541
21
-2.62199
0
LINE
8
BLACK
6
CONTINUOUS
10
4.75541
20
-2.62199
11
4.7553
21
-2.62312
0
LINE
8
BLACK
6
CONTINUOUS
10
4.7553
20
-2.62312
11
4.75497
21
-2.62421
0
LINE
8
BLACK
6
CONTINUOUS
10
4.75497
20
-2.62421
11
4.75444
21
-2.62522
0
LINE
8
BLACK
6
CONTINUOUS
10
4.75444
20
-2.62522
11
4.75371
21
-2.6261
0
LINE
8
BLACK
6
CONTINUOUS
10
4.75371
20
-2.6261
11
4.75283
21
-2.62682
0
LINE
8
BLACK
6
CONTINUOUS
10
4.75283
20
-2.62682
11
4.75183
21
-2.62736
0
LINE
8
BLACK
6
CONTINUOUS
10
4.75183
20
-2.62736
11
4.75074
21
-2.62769
0
LINE
8
BLACK
6
CONTINUOUS
10
4.75074
20
-2.62769
11
4.74961
21
-2.6278
0
LINE
8
BLACK
6
CONTINUOUS
10
4.74961
20
-2.6278
11
4.73799
21
-2.6278
0
LINE
8
BLACK
6
CONTINUOUS
10
4.73799
20
-2.6278
11
4.73686
21
-2.62769
0
LINE
8
BLACK
6
CONTINUOUS
10
4.73686
20
-2.62769
11
4.73577
21
-2.62736
0
LINE
8
BLACK
6
CONTINUOUS
10
4.73577
20
-2.62736
11
4.73477
21
-2.62682
0
LINE
8
BLACK
6
CONTINUOUS
10
4.73477
20
-2.62682
11
4.73389
21
-2.6261
0
LINE
8
BLACK
6
CONTINUOUS
10
4.73389
20
-2.6261
11
4.73316
21
-2.62522
0
LINE
8
BLACK
6
CONTINUOUS
10
4.73316
20
-2.62522
11
4.73263
21
-2.62421
0
LINE
8
BLACK
6
CONTINUOUS
10
4.73263
20
-2.62421
11
4.7323
21
-2.62312
0
LINE
8
BLACK
6
CONTINUOUS
10
4.7323
20
-2.62312
11
4.73219
21
-2.62199
0
LINE
8
BLACK
6
CONTINUOUS
10
4.73219
20
-2.62199
11
4.73219
21
-2.60841
0
LINE
8
BLACK
6
CONTINUOUS
10
4.73219
20
-2.60841
11
4.7323
21
-2.60728
0
LINE
8
BLACK
6
CONTINUOUS
10
4.7323
20
-2.60728
11
4.73263
21
-2.60619
0
LINE
8
BLACK
6
CONTINUOUS
10
4.73263
20
-2.60619
11
4.73316
21
-2.60518
0
LINE
8
BLACK
6
CONTINUOUS
10
4.73316
20
-2.60518
11
4.73389
21
-2.6043
0
LINE
8
BLACK
6
CONTINUOUS
10
4.73389
20
-2.6043
11
4.73477
21
-2.60358
0
LINE
8
BLACK
6
CONTINUOUS
10
4.73477
20
-2.60358
11
4.73577
21
-2.60304
0
LINE
8
BLACK
6
CONTINUOUS
10
4.73577
20
-2.60304
11
4.73686
21
-2.60271
0
LINE
8
BLACK
6
CONTINUOUS
10
4.73686
20
-2.60271
11
4.73799
21
-2.6026
0
LINE
8
BLACK
6
CONTINUOUS
10
4.73799
20
-2.6026
11
4.74961
21
-2.6026
0
LINE
8
BLACK
6
CONTINUOUS
10
4.74961
20
-2.6026
11
4.75074
21
-2.60271
0
LINE
8
BLACK
6
CONTINUOUS
10
4.71255
20
-2.60271
11
4.71364
21
-2.60304
0
LINE
8
BLACK
6
CONTINUOUS
10
4.71364
20
-2.60304
11
4.71464
21
-2.60358
0
LINE
8
BLACK
6
CONTINUOUS
10
4.71464
20
-2.60358
11
4.71552
21
-2.6043
0
LINE
8
BLACK
6
CONTINUOUS
10
4.71552
20
-2.6043
11
4.71625
21
-2.60518
0
LINE
8
BLACK
6
CONTINUOUS
10
4.71625
20
-2.60518
11
4.71678
21
-2.60619
0
LINE
8
BLACK
6
CONTINUOUS
10
4.71678
20
-2.60619
11
4.71711
21
-2.60728
0
LINE
8
BLACK
6
CONTINUOUS
10
4.71711
20
-2.60728
11
4.71723
21
-2.60841
0
LINE
8
BLACK
6
CONTINUOUS
10
4.71723
20
-2.60841
11
4.71723
21
-2.62199
0
LINE
8
BLACK
6
CONTINUOUS
10
4.71723
20
-2.62199
11
4.71711
21
-2.62312
0
LINE
8
BLACK
6
CONTINUOUS
10
4.71711
20
-2.62312
11
4.71678
21
-2.62421
0
LINE
8
BLACK
6
CONTINUOUS
10
4.71678
20
-2.62421
11
4.71625
21
-2.62522
0
LINE
8
BLACK
6
CONTINUOUS
10
4.71625
20
-2.62522
11
4.71552
21
-2.6261
0
LINE
8
BLACK
6
CONTINUOUS
10
4.71552
20
-2.6261
11
4.71464
21
-2.62682
0
LINE
8
BLACK
6
CONTINUOUS
10
4.71464
20
-2.62682
11
4.71364
21
-2.62736
0
LINE
8
BLACK
6
CONTINUOUS
10
4.71364
20
-2.62736
11
4.71255
21
-2.62769
0
LINE
8
BLACK
6
CONTINUOUS
10
4.71255
20
-2.62769
11
4.71142
21
-2.6278
0
LINE
8
BLACK
6
CONTINUOUS
10
4.71142
20
-2.6278
11
4.6998
21
-2.6278
0
LINE
8
BLACK
6
CONTINUOUS
10
4.6998
20
-2.6278
11
4.69867
21
-2.62769
0
LINE
8
BLACK
6
CONTINUOUS
10
4.69867
20
-2.62769
11
4.69758
21
-2.62736
0
LINE
8
BLACK
6
CONTINUOUS
10
4.69758
20
-2.62736
11
4.69658
21
-2.62682
0
LINE
8
BLACK
6
CONTINUOUS
10
4.69658
20
-2.62682
11
4.6957
21
-2.6261
0
LINE
8
BLACK
6
CONTINUOUS
10
4.6957
20
-2.6261
11
4.69498
21
-2.62522
0
LINE
8
BLACK
6
CONTINUOUS
10
4.69498
20
-2.62522
11
4.69444
21
-2.62421
0
LINE
8
BLACK
6
CONTINUOUS
10
4.69444
20
-2.62421
11
4.69411
21
-2.62312
0
LINE
8
BLACK
6
CONTINUOUS
10
4.69411
20
-2.62312
11
4.694
21
-2.62199
0
LINE
8
BLACK
6
CONTINUOUS
10
4.694
20
-2.62199
11
4.694
21
-2.60841
0
LINE
8
BLACK
6
CONTINUOUS
10
4.694
20
-2.60841
11
4.69411
21
-2.60728
0
LINE
8
BLACK
6
CONTINUOUS
10
4.69411
20
-2.60728
11
4.69444
21
-2.60619
0
LINE
8
BLACK
6
CONTINUOUS
10
4.69444
20
-2.60619
11
4.69498
21
-2.60518
0
LINE
8
BLACK
6
CONTINUOUS
10
4.69498
20
-2.60518
11
4.6957
21
-2.6043
0
LINE
8
BLACK
6
CONTINUOUS
10
4.6957
20
-2.6043
11
4.69658
21
-2.60358
0
LINE
8
BLACK
6
CONTINUOUS
10
4.69658
20
-2.60358
11
4.69758
21
-2.60304
0
LINE
8
BLACK
6
CONTINUOUS
10
4.69758
20
-2.60304
11
4.69867
21
-2.60271
0
LINE
8
BLACK
6
CONTINUOUS
10
4.69867
20
-2.60271
11
4.6998
21
-2.6026
0
LINE
8
BLACK
6
CONTINUOUS
10
4.6998
20
-2.6026
11
4.71142
21
-2.6026
0
LINE
8
BLACK
6
CONTINUOUS
10
4.71142
20
-2.6026
11
4.71255
21
-2.60271
0
LINE
8
BLACK
6
CONTINUOUS
10
4.35472
20
-2.59439
11
4.35581
21
-2.59472
0
LINE
8
BLACK
6
CONTINUOUS
10
4.35581
20
-2.59472
11
4.35682
21
-2.59526
0
LINE
8
BLACK
6
CONTINUOUS
10
4.35682
20
-2.59526
11
4.3577
21
-2.59598
0
LINE
8
BLACK
6
CONTINUOUS
10
4.3577
20
-2.59598
11
4.35842
21
-2.59686
0
LINE
8
BLACK
6
CONTINUOUS
10
4.35842
20
-2.59686
11
4.35896
21
-2.59787
0
LINE
8
BLACK
6
CONTINUOUS
10
4.35896
20
-2.59787
11
4.35929
21
-2.59895
0
LINE
8
BLACK
6
CONTINUOUS
10
4.35929
20
-2.59895
11
4.3594
21
-2.60009
0
LINE
8
BLACK
6
CONTINUOUS
10
4.3594
20
-2.60009
11
4.3594
21
-2.6117
0
LINE
8
BLACK
6
CONTINUOUS
10
4.3594
20
-2.6117
11
4.35929
21
-2.61283
0
LINE
8
BLACK
6
CONTINUOUS
10
4.35929
20
-2.61283
11
4.35896
21
-2.61392
0
LINE
8
BLACK
6
CONTINUOUS
10
4.35896
20
-2.61392
11
4.35842
21
-2.61493
0
LINE
8
BLACK
6
CONTINUOUS
10
4.35842
20
-2.61493
11
4.3577
21
-2.61581
0
LINE
8
BLACK
6
CONTINUOUS
10
4.3577
20
-2.61581
11
4.35682
21
-2.61653
0
LINE
8
BLACK
6
CONTINUOUS
10
4.35682
20
-2.61653
11
4.35581
21
-2.61707
0
LINE
8
BLACK
6
CONTINUOUS
10
4.35581
20
-2.61707
11
4.35472
21
-2.6174
0
LINE
8
BLACK
6
CONTINUOUS
10
4.35472
20
-2.6174
11
4.35359
21
-2.61751
0
LINE
8
BLACK
6
CONTINUOUS
10
4.35359
20
-2.61751
11
4.34001
21
-2.61751
0
LINE
8
BLACK
6
CONTINUOUS
10
4.34001
20
-2.61751
11
4.33888
21
-2.6174
0
LINE
8
BLACK
6
CONTINUOUS
10
4.33888
20
-2.6174
11
4.33779
21
-2.61707
0
LINE
8
BLACK
6
CONTINUOUS
10
4.33779
20
-2.61707
11
4.33678
21
-2.61653
0
LINE
8
BLACK
6
CONTINUOUS
10
4.33678
20
-2.61653
11
4.3359
21
-2.61581
0
LINE
8
BLACK
6
CONTINUOUS
10
4.3359
20
-2.61581
11
4.33518
21
-2.61493
0
LINE
8
BLACK
6
CONTINUOUS
10
4.33518
20
-2.61493
11
4.33464
21
-2.61392
0
LINE
8
BLACK
6
CONTINUOUS
10
4.33464
20
-2.61392
11
4.33431
21
-2.61283
0
LINE
8
BLACK
6
CONTINUOUS
10
4.33431
20
-2.61283
11
4.3342
21
-2.6117
0
LINE
8
BLACK
6
CONTINUOUS
10
4.3342
20
-2.6117
11
4.3342
21
-2.60009
0
LINE
8
BLACK
6
CONTINUOUS
10
4.3342
20
-2.60009
11
4.33431
21
-2.59895
0
LINE
8
BLACK
6
CONTINUOUS
10
4.33431
20
-2.59895
11
4.33464
21
-2.59787
0
LINE
8
BLACK
6
CONTINUOUS
10
4.33464
20
-2.59787
11
4.33518
21
-2.59686
0
LINE
8
BLACK
6
CONTINUOUS
10
4.33518
20
-2.59686
11
4.3359
21
-2.59598
0
LINE
8
BLACK
6
CONTINUOUS
10
4.3359
20
-2.59598
11
4.33678
21
-2.59526
0
LINE
8
BLACK
6
CONTINUOUS
10
4.33678
20
-2.59526
11
4.33779
21
-2.59472
0
LINE
8
BLACK
6
CONTINUOUS
10
4.33779
20
-2.59472
11
4.33888
21
-2.59439
0
LINE
8
BLACK
6
CONTINUOUS
10
4.33888
20
-2.59439
11
4.34001
21
-2.59428
0
LINE
8
BLACK
6
CONTINUOUS
10
4.34001
20
-2.59428
11
4.35359
21
-2.59428
0
LINE
8
BLACK
6
CONTINUOUS
10
4.35359
20
-2.59428
11
4.35472
21
-2.59439
0
LINE
8
BLACK
6
CONTINUOUS
10
4.45161
20
-2.57373
11
4.45208
21
-2.57359
0
LINE
8
BLACK
6
CONTINUOUS
10
4.45208
20
-2.57359
11
4.45321
21
-2.57348
0
LINE
8
BLACK
6
CONTINUOUS
10
4.45321
20
-2.57348
11
4.46679
21
-2.57348
0
LINE
8
BLACK
6
CONTINUOUS
10
4.46679
20
-2.57348
11
4.46792
21
-2.57359
0
LINE
8
BLACK
6
CONTINUOUS
10
4.46792
20
-2.57359
11
4.46901
21
-2.57392
0
LINE
8
BLACK
6
CONTINUOUS
10
4.46901
20
-2.57392
11
4.47002
21
-2.57446
0
LINE
8
BLACK
6
CONTINUOUS
10
4.47002
20
-2.57446
11
4.4709
21
-2.57518
0
LINE
8
BLACK
6
CONTINUOUS
10
4.4709
20
-2.57518
11
4.47162
21
-2.57606
0
LINE
8
BLACK
6
CONTINUOUS
10
4.47162
20
-2.57606
11
4.47216
21
-2.57707
0
LINE
8
BLACK
6
CONTINUOUS
10
4.47216
20
-2.57707
11
4.47249
21
-2.57815
0
LINE
8
BLACK
6
CONTINUOUS
10
4.47249
20
-2.57815
11
4.4726
21
-2.57929
0
LINE
8
BLACK
6
CONTINUOUS
10
4.4726
20
-2.57929
11
4.4726
21
-2.5909
0
LINE
8
BLACK
6
CONTINUOUS
10
4.4726
20
-2.5909
11
4.47249
21
-2.59203
0
LINE
8
BLACK
6
CONTINUOUS
10
4.47249
20
-2.59203
11
4.47216
21
-2.59312
0
LINE
8
BLACK
6
CONTINUOUS
10
4.47216
20
-2.59312
11
4.47162
21
-2.59413
0
LINE
8
BLACK
6
CONTINUOUS
10
4.47162
20
-2.59413
11
4.4709
21
-2.59501
0
LINE
8
BLACK
6
CONTINUOUS
10
4.4709
20
-2.59501
11
4.47002
21
-2.59573
0
LINE
8
BLACK
6
CONTINUOUS
10
4.47002
20
-2.59573
11
4.46901
21
-2.59627
0
LINE
8
BLACK
6
CONTINUOUS
10
4.46901
20
-2.59627
11
4.46792
21
-2.5966
0
LINE
8
BLACK
6
CONTINUOUS
10
4.46792
20
-2.5966
11
4.46679
21
-2.59671
0
LINE
8
BLACK
6
CONTINUOUS
10
4.46679
20
-2.59671
11
4.45321
21
-2.59671
0
LINE
8
BLACK
6
CONTINUOUS
10
4.45321
20
-2.59671
11
4.45208
21
-2.5966
0
LINE
8
BLACK
6
CONTINUOUS
10
4.45208
20
-2.5966
11
4.45099
21
-2.59627
0
LINE
8
BLACK
6
CONTINUOUS
10
4.45099
20
-2.59627
11
4.44998
21
-2.59573
0
LINE
8
BLACK
6
CONTINUOUS
10
4.44998
20
-2.59573
11
4.4491
21
-2.59501
0
LINE
8
BLACK
6
CONTINUOUS
10
4.4491
20
-2.59501
11
4.44838
21
-2.59413
0
LINE
8
BLACK
6
CONTINUOUS
10
4.44838
20
-2.59413
11
4.44784
21
-2.59312
0
LINE
8
BLACK
6
CONTINUOUS
10
4.44784
20
-2.59312
11
4.44763
21
-2.59241
0
LINE
8
BLACK
6
CONTINUOUS
10
4.44763
20
-2.59241
11
4.39059
21
-2.59241
0
LINE
8
BLACK
6
CONTINUOUS
10
4.39059
20
-2.59241
11
4.39059
21
-2.56879
0
LINE
8
BLACK
6
CONTINUOUS
10
4.39059
20
-2.56879
11
4.45161
21
-2.56879
0
LINE
8
BLACK
6
CONTINUOUS
10
4.45161
20
-2.56879
11
4.45161
21
-2.57373
0
LINE
8
BLACK
6
CONTINUOUS
10
4.66421
20
-2.59241
11
4.60319
21
-2.59241
0
LINE
8
BLACK
6
CONTINUOUS
10
4.60319
20
-2.59241
11
4.60319
21
-2.56879
0
LINE
8
BLACK
6
CONTINUOUS
10
4.60319
20
-2.56879
11
4.66421
21
-2.56879
0
LINE
8
BLACK
6
CONTINUOUS
10
4.66421
20
-2.56879
11
4.66421
21
-2.59241
0
LINE
8
BLACK
6
CONTINUOUS
10
4.35472
20
-2.5562
11
4.35581
21
-2.55653
0
LINE
8
BLACK
6
CONTINUOUS
10
4.35581
20
-2.55653
11
4.35682
21
-2.55707
0
LINE
8
BLACK
6
CONTINUOUS
10
4.35682
20
-2.55707
11
4.3577
21
-2.55779
0
LINE
8
BLACK
6
CONTINUOUS
10
4.3577
20
-2.55779
11
4.35842
21
-2.55867
0
LINE
8
BLACK
6
CONTINUOUS
10
4.35842
20
-2.55867
11
4.35896
21
-2.55968
0
LINE
8
BLACK
6
CONTINUOUS
10
4.35896
20
-2.55968
11
4.35929
21
-2.56077
0
LINE
8
BLACK
6
CONTINUOUS
10
4.35929
20
-2.56077
11
4.3594
21
-2.5619
0
LINE
8
BLACK
6
CONTINUOUS
10
4.3594
20
-2.5619
11
4.3594
21
-2.57351
0
LINE
8
BLACK
6
CONTINUOUS
10
4.3594
20
-2.57351
11
4.35929
21
-2.57465
0
LINE
8
BLACK
6
CONTINUOUS
10
4.35929
20
-2.57465
11
4.35896
21
-2.57573
0
LINE
8
BLACK
6
CONTINUOUS
10
4.35896
20
-2.57573
11
4.35842
21
-2.57674
0
LINE
8
BLACK
6
CONTINUOUS
10
4.35842
20
-2.57674
11
4.3577
21
-2.57762
0
LINE
8
BLACK
6
CONTINUOUS
10
4.3577
20
-2.57762
11
4.35682
21
-2.57834
0
LINE
8
BLACK
6
CONTINUOUS
10
4.35682
20
-2.57834
11
4.35581
21
-2.57888
0
LINE
8
BLACK
6
CONTINUOUS
10
4.35581
20
-2.57888
11
4.35472
21
-2.57921
0
LINE
8
BLACK
6
CONTINUOUS
10
4.35472
20
-2.57921
11
4.35359
21
-2.57932
0
LINE
8
BLACK
6
CONTINUOUS
10
4.35359
20
-2.57932
11
4.34001
21
-2.57932
0
LINE
8
BLACK
6
CONTINUOUS
10
4.34001
20
-2.57932
11
4.33888
21
-2.57921
0
LINE
8
BLACK
6
CONTINUOUS
10
4.33888
20
-2.57921
11
4.33779
21
-2.57888
0
LINE
8
BLACK
6
CONTINUOUS
10
4.33779
20
-2.57888
11
4.33678
21
-2.57834
0
LINE
8
BLACK
6
CONTINUOUS
10
4.33678
20
-2.57834
11
4.3359
21
-2.57762
0
LINE
8
BLACK
6
CONTINUOUS
10
4.3359
20
-2.57762
11
4.33518
21
-2.57674
0
LINE
8
BLACK
6
CONTINUOUS
10
4.33518
20
-2.57674
11
4.33464
21
-2.57573
0
LINE
8
BLACK
6
CONTINUOUS
10
4.33464
20
-2.57573
11
4.33431
21
-2.57465
0
LINE
8
BLACK
6
CONTINUOUS
10
4.33431
20
-2.57465
11
4.3342
21
-2.57351
0
LINE
8
BLACK
6
CONTINUOUS
10
4.3342
20
-2.57351
11
4.3342
21
-2.5619
0
LINE
8
BLACK
6
CONTINUOUS
10
4.3342
20
-2.5619
11
4.33431
21
-2.56077
0
LINE
8
BLACK
6
CONTINUOUS
10
4.33431
20
-2.56077
11
4.33464
21
-2.55968
0
LINE
8
BLACK
6
CONTINUOUS
10
4.33464
20
-2.55968
11
4.33518
21
-2.55867
0
LINE
8
BLACK
6
CONTINUOUS
10
4.33518
20
-2.55867
11
4.3359
21
-2.55779
0
LINE
8
BLACK
6
CONTINUOUS
10
4.3359
20
-2.55779
11
4.33678
21
-2.55707
0
LINE
8
BLACK
6
CONTINUOUS
10
4.33678
20
-2.55707
11
4.33779
21
-2.55653
0
LINE
8
BLACK
6
CONTINUOUS
10
4.33779
20
-2.55653
11
4.33888
21
-2.5562
0
LINE
8
BLACK
6
CONTINUOUS
10
4.33888
20
-2.5562
11
4.34001
21
-2.55609
0
LINE
8
BLACK
6
CONTINUOUS
10
4.34001
20
-2.55609
11
4.35359
21
-2.55609
0
LINE
8
BLACK
6
CONTINUOUS
10
4.35359
20
-2.55609
11
4.35472
21
-2.5562
0
LINE
8
BLACK
6
CONTINUOUS
10
4.73252
20
-2.5423
11
4.73361
21
-2.54263
0
LINE
8
BLACK
6
CONTINUOUS
10
4.73361
20
-2.54263
11
4.73462
21
-2.54316
0
LINE
8
BLACK
6
CONTINUOUS
10
4.73462
20
-2.54316
11
4.7355
21
-2.54389
0
LINE
8
BLACK
6
CONTINUOUS
10
4.7355
20
-2.54389
11
4.73622
21
-2.54477
0
LINE
8
BLACK
6
CONTINUOUS
10
4.73622
20
-2.54477
11
4.73676
21
-2.54577
0
LINE
8
BLACK
6
CONTINUOUS
10
4.73676
20
-2.54577
11
4.73709
21
-2.54686
0
LINE
8
BLACK
6
CONTINUOUS
10
4.73709
20
-2.54686
11
4.7372
21
-2.54799
0
LINE
8
BLACK
6
CONTINUOUS
10
4.7372
20
-2.54799
11
4.7372
21
-2.55961
0
LINE
8
BLACK
6
CONTINUOUS
10
4.7372
20
-2.55961
11
4.73709
21
-2.56074
0
LINE
8
BLACK
6
CONTINUOUS
10
4.73709
20
-2.56074
11
4.73676
21
-2.56183
0
LINE
8
BLACK
6
CONTINUOUS
10
4.73676
20
-2.56183
11
4.73622
21
-2.56283
0
LINE
8
BLACK
6
CONTINUOUS
10
4.73622
20
-2.56283
11
4.7355
21
-2.56371
0
LINE
8
BLACK
6
CONTINUOUS
10
4.7355
20
-2.56371
11
4.73462
21
-2.56444
0
LINE
8
BLACK
6
CONTINUOUS
10
4.73462
20
-2.56444
11
4.73361
21
-2.56497
0
LINE
8
BLACK
6
CONTINUOUS
10
4.73361
20
-2.56497
11
4.73252
21
-2.5653
0
LINE
8
BLACK
6
CONTINUOUS
10
4.73252
20
-2.5653
11
4.73139
21
-2.56541
0
LINE
8
BLACK
6
CONTINUOUS
10
4.73139
20
-2.56541
11
4.71781
21
-2.56541
0
LINE
8
BLACK
6
CONTINUOUS
10
4.71781
20
-2.56541
11
4.71668
21
-2.5653
0
LINE
8
BLACK
6
CONTINUOUS
10
4.71668
20
-2.5653
11
4.71559
21
-2.56497
0
LINE
8
BLACK
6
CONTINUOUS
10
4.71559
20
-2.56497
11
4.71458
21
-2.56444
0
LINE
8
BLACK
6
CONTINUOUS
10
4.71458
20
-2.56444
11
4.7137
21
-2.56371
0
LINE
8
BLACK
6
CONTINUOUS
10
4.7137
20
-2.56371
11
4.71298
21
-2.56283
0
LINE
8
BLACK
6
CONTINUOUS
10
4.71298
20
-2.56283
11
4.71244
21
-2.56183
0
LINE
8
BLACK
6
CONTINUOUS
10
4.71244
20
-2.56183
11
4.71211
21
-2.56074
0
LINE
8
BLACK
6
CONTINUOUS
10
4.71211
20
-2.56074
11
4.712
21
-2.55961
0
LINE
8
BLACK
6
CONTINUOUS
10
4.712
20
-2.55961
11
4.712
21
-2.54799
0
LINE
8
BLACK
6
CONTINUOUS
10
4.712
20
-2.54799
11
4.71211
21
-2.54686
0
LINE
8
BLACK
6
CONTINUOUS
10
4.71211
20
-2.54686
11
4.71244
21
-2.54577
0
LINE
8
BLACK
6
CONTINUOUS
10
4.71244
20
-2.54577
11
4.71298
21
-2.54477
0
LINE
8
BLACK
6
CONTINUOUS
10
4.71298
20
-2.54477
11
4.7137
21
-2.54389
0
LINE
8
BLACK
6
CONTINUOUS
10
4.7137
20
-2.54389
11
4.71458
21
-2.54316
0
LINE
8
BLACK
6
CONTINUOUS
10
4.71458
20
-2.54316
11
4.71559
21
-2.54263
0
LINE
8
BLACK
6
CONTINUOUS
10
4.71559
20
-2.54263
11
4.71668
21
-2.5423
0
LINE
8
BLACK
6
CONTINUOUS
10
4.71668
20
-2.5423
11
4.71781
21
-2.54219
0
LINE
8
BLACK
6
CONTINUOUS
10
4.71781
20
-2.54219
11
4.73139
21
-2.54219
0
LINE
8
BLACK
6
CONTINUOUS
10
4.73139
20
-2.54219
11
4.73252
21
-2.5423
0
LINE
8
BLACK
6
CONTINUOUS
10
4.45161
20
-2.53554
11
4.45208
21
-2.5354
0
LINE
8
BLACK
6
CONTINUOUS
10
4.45208
20
-2.5354
11
4.45321
21
-2.53529
0
LINE
8
BLACK
6
CONTINUOUS
10
4.45321
20
-2.53529
11
4.46679
21
-2.53529
0
LINE
8
BLACK
6
CONTINUOUS
10
4.46679
20
-2.53529
11
4.46792
21
-2.5354
0
LINE
8
BLACK
6
CONTINUOUS
10
4.46792
20
-2.5354
11
4.46901
21
-2.53573
0
LINE
8
BLACK
6
CONTINUOUS
10
4.46901
20
-2.53573
11
4.47002
21
-2.53627
0
LINE
8
BLACK
6
CONTINUOUS
10
4.47002
20
-2.53627
11
4.4709
21
-2.53699
0
LINE
8
BLACK
6
CONTINUOUS
10
4.4709
20
-2.53699
11
4.47162
21
-2.53787
0
LINE
8
BLACK
6
CONTINUOUS
10
4.47162
20
-2.53787
11
4.47216
21
-2.53888
0
LINE
8
BLACK
6
CONTINUOUS
10
4.47216
20
-2.53888
11
4.47249
21
-2.53997
0
LINE
8
BLACK
6
CONTINUOUS
10
4.47249
20
-2.53997
11
4.4726
21
-2.5411
0
LINE
8
BLACK
6
CONTINUOUS
10
4.4726
20
-2.5411
11
4.4726
21
-2.55271
0
LINE
8
BLACK
6
CONTINUOUS
10
4.4726
20
-2.55271
11
4.47249
21
-2.55385
0
LINE
8
BLACK
6
CONTINUOUS
10
4.47249
20
-2.55385
11
4.47216
21
-2.55493
0
LINE
8
BLACK
6
CONTINUOUS
10
4.47216
20
-2.55493
11
4.47162
21
-2.55594
0
LINE
8
BLACK
6
CONTINUOUS
10
4.47162
20
-2.55594
11
4.4709
21
-2.55682
0
LINE
8
BLACK
6
CONTINUOUS
10
4.4709
20
-2.55682
11
4.47002
21
-2.55754
0
LINE
8
BLACK
6
CONTINUOUS
10
4.47002
20
-2.55754
11
4.46901
21
-2.55808
0
LINE
8
BLACK
6
CONTINUOUS
10
4.46901
20
-2.55808
11
4.46792
21
-2.55841
0
LINE
8
BLACK
6
CONTINUOUS
10
4.46792
20
-2.55841
11
4.46679
21
-2.55852
0
LINE
8
BLACK
6
CONTINUOUS
10
4.46679
20
-2.55852
11
4.45321
21
-2.55852
0
LINE
8
BLACK
6
CONTINUOUS
10
4.45321
20
-2.55852
11
4.45208
21
-2.55841
0
LINE
8
BLACK
6
CONTINUOUS
10
4.45208
20
-2.55841
11
4.45099
21
-2.55808
0
LINE
8
BLACK
6
CONTINUOUS
10
4.45099
20
-2.55808
11
4.44998
21
-2.55754
0
LINE
8
BLACK
6
CONTINUOUS
10
4.44998
20
-2.55754
11
4.4491
21
-2.55682
0
LINE
8
BLACK
6
CONTINUOUS
10
4.4491
20
-2.55682
11
4.44838
21
-2.55594
0
LINE
8
BLACK
6
CONTINUOUS
10
4.44838
20
-2.55594
11
4.44784
21
-2.55493
0
LINE
8
BLACK
6
CONTINUOUS
10
4.44784
20
-2.55493
11
4.44751
21
-2.55385
0
LINE
8
BLACK
6
CONTINUOUS
10
4.44751
20
-2.55385
11
4.4474
21
-2.55271
0
LINE
8
BLACK
6
CONTINUOUS
10
4.4474
20
-2.55271
11
4.4474
21
-2.54241
0
LINE
8
BLACK
6
CONTINUOUS
10
4.4474
20
-2.54241
11
4.39059
21
-2.54241
0
LINE
8
BLACK
6
CONTINUOUS
10
4.39059
20
-2.54241
11
4.39059
21
-2.51879
0
LINE
8
BLACK
6
CONTINUOUS
10
4.39059
20
-2.51879
11
4.45161
21
-2.51879
0
LINE
8
BLACK
6
CONTINUOUS
10
4.45161
20
-2.51879
11
4.45161
21
-2.53554
0
LINE
8
BLACK
6
CONTINUOUS
10
4.66421
20
-2.54241
11
4.60319
21
-2.54241
0
LINE
8
BLACK
6
CONTINUOUS
10
4.60319
20
-2.54241
11
4.60319
21
-2.51879
0
LINE
8
BLACK
6
CONTINUOUS
10
4.60319
20
-2.51879
11
4.66421
21
-2.51879
0
LINE
8
BLACK
6
CONTINUOUS
10
4.66421
20
-2.51879
11
4.66421
21
-2.54241
0
LINE
8
BLACK
6
CONTINUOUS
10
4.73252
20
-2.50411
11
4.73361
21
-2.50444
0
LINE
8
BLACK
6
CONTINUOUS
10
4.73361
20
-2.50444
11
4.73462
21
-2.50498
0
LINE
8
BLACK
6
CONTINUOUS
10
4.73462
20
-2.50498
11
4.7355
21
-2.5057
0
LINE
8
BLACK
6
CONTINUOUS
10
4.7355
20
-2.5057
11
4.73622
21
-2.50658
0
LINE
8
BLACK
6
CONTINUOUS
10
4.73622
20
-2.50658
11
4.73676
21
-2.50758
0
LINE
8
BLACK
6
CONTINUOUS
10
4.73676
20
-2.50758
11
4.73709
21
-2.50867
0
LINE
8
BLACK
6
CONTINUOUS
10
4.73709
20
-2.50867
11
4.7372
21
-2.5098
0
LINE
8
BLACK
6
CONTINUOUS
10
4.7372
20
-2.5098
11
4.7372
21
-2.52142
0
LINE
8
BLACK
6
CONTINUOUS
10
4.7372
20
-2.52142
11
4.73709
21
-2.52255
0
LINE
8
BLACK
6
CONTINUOUS
10
4.73709
20
-2.52255
11
4.73676
21
-2.52364
0
LINE
8
BLACK
6
CONTINUOUS
10
4.73676
20
-2.52364
11
4.73622
21
-2.52464
0
LINE
8
BLACK
6
CONTINUOUS
10
4.73622
20
-2.52464
11
4.7355
21
-2.52552
0
LINE
8
BLACK
6
CONTINUOUS
10
4.7355
20
-2.52552
11
4.73462
21
-2.52625
0
LINE
8
BLACK
6
CONTINUOUS
10
4.73462
20
-2.52625
11
4.73361
21
-2.52678
0
LINE
8
BLACK
6
CONTINUOUS
10
4.73361
20
-2.52678
11
4.73252
21
-2.52711
0
LINE
8
BLACK
6
CONTINUOUS
10
4.73252
20
-2.52711
11
4.73139
21
-2.52723
0
LINE
8
BLACK
6
CONTINUOUS
10
4.73139
20
-2.52723
11
4.71781
21
-2.52723
0
LINE
8
BLACK
6
CONTINUOUS
10
4.71781
20
-2.52723
11
4.71668
21
-2.52711
0
LINE
8
BLACK
6
CONTINUOUS
10
4.71668
20
-2.52711
11
4.71559
21
-2.52678
0
LINE
8
BLACK
6
CONTINUOUS
10
4.71559
20
-2.52678
11
4.71458
21
-2.52625
0
LINE
8
BLACK
6
CONTINUOUS
10
4.71458
20
-2.52625
11
4.7137
21
-2.52552
0
LINE
8
BLACK
6
CONTINUOUS
10
4.7137
20
-2.52552
11
4.71298
21
-2.52464
0
LINE
8
BLACK
6
CONTINUOUS
10
4.71298
20
-2.52464
11
4.71244
21
-2.52364
0
LINE
8
BLACK
6
CONTINUOUS
10
4.71244
20
-2.52364
11
4.71211
21
-2.52255
0
LINE
8
BLACK
6
CONTINUOUS
10
4.71211
20
-2.52255
11
4.712
21
-2.52142
0
LINE
8
BLACK
6
CONTINUOUS
10
4.712
20
-2.52142
11
4.712
21
-2.5098
0
LINE
8
BLACK
6
CONTINUOUS
10
4.712
20
-2.5098
11
4.71211
21
-2.50867
0
LINE
8
BLACK
6
CONTINUOUS
10
4.71211
20
-2.50867
11
4.71244
21
-2.50758
0
LINE
8
BLACK
6
CONTINUOUS
10
4.71244
20
-2.50758
11
4.71298
21
-2.50658
0
LINE
8
BLACK
6
CONTINUOUS
10
4.71298
20
-2.50658
11
4.7137
21
-2.5057
0
LINE
8
BLACK
6
CONTINUOUS
10
4.7137
20
-2.5057
11
4.71458
21
-2.50498
0
LINE
8
BLACK
6
CONTINUOUS
10
4.71458
20
-2.50498
11
4.71559
21
-2.50444
0
LINE
8
BLACK
6
CONTINUOUS
10
4.71559
20
-2.50444
11
4.71668
21
-2.50411
0
LINE
8
BLACK
6
CONTINUOUS
10
4.71668
20
-2.50411
11
4.71781
21
-2.504
0
LINE
8
BLACK
6
CONTINUOUS
10
4.71781
20
-2.504
11
4.73139
21
-2.504
0
LINE
8
BLACK
6
CONTINUOUS
10
4.73139
20
-2.504
11
4.73252
21
-2.50411
0
LINE
8
BLACK
6
CONTINUOUS
10
4.35752
20
-2.4415
11
4.35861
21
-2.44183
0
LINE
8
BLACK
6
CONTINUOUS
10
4.35861
20
-2.44183
11
4.35962
21
-2.44236
0
LINE
8
BLACK
6
CONTINUOUS
10
4.35962
20
-2.44236
11
4.3605
21
-2.44309
0
LINE
8
BLACK
6
CONTINUOUS
10
4.3605
20
-2.44309
11
4.36122
21
-2.44397
0
LINE
8
BLACK
6
CONTINUOUS
10
4.36122
20
-2.44397
11
4.36176
21
-2.44497
0
LINE
8
BLACK
6
CONTINUOUS
10
4.36176
20
-2.44497
11
4.36209
21
-2.44606
0
LINE
8
BLACK
6
CONTINUOUS
10
4.36209
20
-2.44606
11
4.3622
21
-2.44719
0
LINE
8
BLACK
6
CONTINUOUS
10
4.3622
20
-2.44719
11
4.3622
21
-2.45881
0
LINE
8
BLACK
6
CONTINUOUS
10
4.3622
20
-2.45881
11
4.36209
21
-2.45994
0
LINE
8
BLACK
6
CONTINUOUS
10
4.36209
20
-2.45994
11
4.36176
21
-2.46103
0
LINE
8
BLACK
6
CONTINUOUS
10
4.36176
20
-2.46103
11
4.36122
21
-2.46203
0
LINE
8
BLACK
6
CONTINUOUS
10
4.36122
20
-2.46203
11
4.3605
21
-2.46291
0
LINE
8
BLACK
6
CONTINUOUS
10
4.3605
20
-2.46291
11
4.35962
21
-2.46364
0
LINE
8
BLACK
6
CONTINUOUS
10
4.35962
20
-2.46364
11
4.35861
21
-2.46417
0
LINE
8
BLACK
6
CONTINUOUS
10
4.35861
20
-2.46417
11
4.35752
21
-2.4645
0
LINE
8
BLACK
6
CONTINUOUS
10
4.35752
20
-2.4645
11
4.35639
21
-2.46461
0
LINE
8
BLACK
6
CONTINUOUS
10
4.35639
20
-2.46461
11
4.34281
21
-2.46461
0
LINE
8
BLACK
6
CONTINUOUS
10
4.34281
20
-2.46461
11
4.34168
21
-2.4645
0
LINE
8
BLACK
6
CONTINUOUS
10
4.34168
20
-2.4645
11
4.34059
21
-2.46417
0
LINE
8
BLACK
6
CONTINUOUS
10
4.34059
20
-2.46417
11
4.33958
21
-2.46364
0
LINE
8
BLACK
6
CONTINUOUS
10
4.33958
20
-2.46364
11
4.3387
21
-2.46291
0
LINE
8
BLACK
6
CONTINUOUS
10
4.3387
20
-2.46291
11
4.33798
21
-2.46203
0
LINE
8
BLACK
6
CONTINUOUS
10
4.33798
20
-2.46203
11
4.33744
21
-2.46103
0
LINE
8
BLACK
6
CONTINUOUS
10
4.33744
20
-2.46103
11
4.33711
21
-2.45994
0
LINE
8
BLACK
6
CONTINUOUS
10
4.33711
20
-2.45994
11
4.337
21
-2.45881
0
LINE
8
BLACK
6
CONTINUOUS
10
4.337
20
-2.45881
11
4.337
21
-2.44719
0
LINE
8
BLACK
6
CONTINUOUS
10
4.337
20
-2.44719
11
4.33711
21
-2.44606
0
LINE
8
BLACK
6
CONTINUOUS
10
4.33711
20
-2.44606
11
4.33744
21
-2.44497
0
LINE
8
BLACK
6
CONTINUOUS
10
4.33744
20
-2.44497
11
4.33798
21
-2.44397
0
LINE
8
BLACK
6
CONTINUOUS
10
4.33798
20
-2.44397
11
4.3387
21
-2.44309
0
LINE
8
BLACK
6
CONTINUOUS
10
4.3387
20
-2.44309
11
4.33958
21
-2.44236
0
LINE
8
BLACK
6
CONTINUOUS
10
4.33958
20
-2.44236
11
4.34059
21
-2.44183
0
LINE
8
BLACK
6
CONTINUOUS
10
4.34059
20
-2.44183
11
4.34168
21
-2.4415
0
LINE
8
BLACK
6
CONTINUOUS
10
4.34168
20
-2.4415
11
4.34281
21
-2.44139
0
LINE
8
BLACK
6
CONTINUOUS
10
4.34281
20
-2.44139
11
4.35639
21
-2.44139
0
LINE
8
BLACK
6
CONTINUOUS
10
4.35639
20
-2.44139
11
4.35752
21
-2.4415
0
LINE
8
BLACK
6
CONTINUOUS
10
4.71914
20
-2.40311
11
4.72023
21
-2.40344
0
LINE
8
BLACK
6
CONTINUOUS
10
4.72023
20
-2.40344
11
4.72123
21
-2.40398
0
LINE
8
BLACK
6
CONTINUOUS
10
4.72123
20
-2.40398
11
4.72211
21
-2.4047
0
LINE
8
BLACK
6
CONTINUOUS
10
4.72211
20
-2.4047
11
4.72284
21
-2.40558
0
LINE
8
BLACK
6
CONTINUOUS
10
4.72284
20
-2.40558
11
4.72337
21
-2.40659
0
LINE
8
BLACK
6
CONTINUOUS
10
4.72337
20
-2.40659
11
4.7237
21
-2.40768
0
LINE
8
BLACK
6
CONTINUOUS
10
4.7237
20
-2.40768
11
4.72381
21
-2.40881
0
LINE
8
BLACK
6
CONTINUOUS
10
4.72381
20
-2.40881
11
4.72381
21
-2.42239
0
LINE
8
BLACK
6
CONTINUOUS
10
4.72381
20
-2.42239
11
4.7237
21
-2.42352
0
LINE
8
BLACK
6
CONTINUOUS
10
4.7237
20
-2.42352
11
4.72337
21
-2.42461
0
LINE
8
BLACK
6
CONTINUOUS
10
4.72337
20
-2.42461
11
4.72284
21
-2.42562
0
LINE
8
BLACK
6
CONTINUOUS
10
4.72284
20
-2.42562
11
4.72211
21
-2.4265
0
LINE
8
BLACK
6
CONTINUOUS
10
4.72211
20
-2.4265
11
4.72123
21
-2.42722
0
LINE
8
BLACK
6
CONTINUOUS
10
4.72123
20
-2.42722
11
4.72023
21
-2.42776
0
LINE
8
BLACK
6
CONTINUOUS
10
4.72023
20
-2.42776
11
4.71914
21
-2.42809
0
LINE
8
BLACK
6
CONTINUOUS
10
4.71914
20
-2.42809
11
4.71801
21
-2.4282
0
LINE
8
BLACK
6
CONTINUOUS
10
4.71801
20
-2.4282
11
4.70639
21
-2.4282
0
LINE
8
BLACK
6
CONTINUOUS
10
4.70639
20
-2.4282
11
4.70526
21
-2.42809
0
LINE
8
BLACK
6
CONTINUOUS
10
4.70526
20
-2.42809
11
4.70417
21
-2.42776
0
LINE
8
BLACK
6
CONTINUOUS
10
4.70417
20
-2.42776
11
4.70317
21
-2.42722
0
LINE
8
BLACK
6
CONTINUOUS
10
4.70317
20
-2.42722
11
4.70229
21
-2.4265
0
LINE
8
BLACK
6
CONTINUOUS
10
4.70229
20
-2.4265
11
4.70156
21
-2.42562
0
LINE
8
BLACK
6
CONTINUOUS
10
4.70156
20
-2.42562
11
4.70103
21
-2.42461
0
LINE
8
BLACK
6
CONTINUOUS
10
4.70103
20
-2.42461
11
4.7007
21
-2.42352
0
LINE
8
BLACK
6
CONTINUOUS
10
4.7007
20
-2.42352
11
4.70059
21
-2.42239
0
LINE
8
BLACK
6
CONTINUOUS
10
4.70059
20
-2.42239
11
4.70059
21
-2.40881
0
LINE
8
BLACK
6
CONTINUOUS
10
4.70059
20
-2.40881
11
4.7007
21
-2.40768
0
LINE
8
BLACK
6
CONTINUOUS
10
4.7007
20
-2.40768
11
4.70103
21
-2.40659
0
LINE
8
BLACK
6
CONTINUOUS
10
4.70103
20
-2.40659
11
4.70156
21
-2.40558
0
LINE
8
BLACK
6
CONTINUOUS
10
4.70156
20
-2.40558
11
4.70229
21
-2.4047
0
LINE
8
BLACK
6
CONTINUOUS
10
4.70229
20
-2.4047
11
4.70317
21
-2.40398
0
LINE
8
BLACK
6
CONTINUOUS
10
4.70317
20
-2.40398
11
4.70417
21
-2.40344
0
LINE
8
BLACK
6
CONTINUOUS
10
4.70417
20
-2.40344
11
4.70526
21
-2.40311
0
LINE
8
BLACK
6
CONTINUOUS
10
4.70526
20
-2.40311
11
4.70639
21
-2.403
0
LINE
8
BLACK
6
CONTINUOUS
10
4.70639
20
-2.403
11
4.71801
21
-2.403
0
LINE
8
BLACK
6
CONTINUOUS
10
4.71801
20
-2.403
11
4.71914
21
-2.40311
0
LINE
8
BLACK
6
CONTINUOUS
10
4.75733
20
-2.40311
11
4.75842
21
-2.40344
0
LINE
8
BLACK
6
CONTINUOUS
10
4.75842
20
-2.40344
11
4.75942
21
-2.40398
0
LINE
8
BLACK
6
CONTINUOUS
10
4.75942
20
-2.40398
11
4.7603
21
-2.4047
0
LINE
8
BLACK
6
CONTINUOUS
10
4.7603
20
-2.4047
11
4.76102
21
-2.40558
0
LINE
8
BLACK
6
CONTINUOUS
10
4.76102
20
-2.40558
11
4.76156
21
-2.40659
0
LINE
8
BLACK
6
CONTINUOUS
10
4.76156
20
-2.40659
11
4.76189
21
-2.40768
0
LINE
8
BLACK
6
CONTINUOUS
10
4.76189
20
-2.40768
11
4.762
21
-2.40881
0
LINE
8
BLACK
6
CONTINUOUS
10
4.762
20
-2.40881
11
4.762
21
-2.42239
0
LINE
8
BLACK
6
CONTINUOUS
10
4.762
20
-2.42239
11
4.76189
21
-2.42352
0
LINE
8
BLACK
6
CONTINUOUS
10
4.76189
20
-2.42352
11
4.76156
21
-2.42461
0
LINE
8
BLACK
6
CONTINUOUS
10
4.76156
20
-2.42461
11
4.76102
21
-2.42562
0
LINE
8
BLACK
6
CONTINUOUS
10
4.76102
20
-2.42562
11
4.7603
21
-2.4265
0
LINE
8
BLACK
6
CONTINUOUS
10
4.7603
20
-2.4265
11
4.75942
21
-2.42722
0
LINE
8
BLACK
6
CONTINUOUS
10
4.75942
20
-2.42722
11
4.75842
21
-2.42776
0
LINE
8
BLACK
6
CONTINUOUS
10
4.75842
20
-2.42776
11
4.75733
21
-2.42809
0
LINE
8
BLACK
6
CONTINUOUS
10
4.75733
20
-2.42809
11
4.7562
21
-2.4282
0
LINE
8
BLACK
6
CONTINUOUS
10
4.7562
20
-2.4282
11
4.74458
21
-2.4282
0
LINE
8
BLACK
6
CONTINUOUS
10
4.74458
20
-2.4282
11
4.74345
21
-2.42809
0
LINE
8
BLACK
6
CONTINUOUS
10
4.74345
20
-2.42809
11
4.74236
21
-2.42776
0
LINE
8
BLACK
6
CONTINUOUS
10
4.74236
20
-2.42776
11
4.74136
21
-2.42722
0
LINE
8
BLACK
6
CONTINUOUS
10
4.74136
20
-2.42722
11
4.74048
21
-2.4265
0
LINE
8
BLACK
6
CONTINUOUS
10
4.74048
20
-2.4265
11
4.73975
21
-2.42562
0
LINE
8
BLACK
6
CONTINUOUS
10
4.73975
20
-2.42562
11
4.73922
21
-2.42461
0
LINE
8
BLACK
6
CONTINUOUS
10
4.73922
20
-2.42461
11
4.73889
21
-2.42352
0
LINE
8
BLACK
6
CONTINUOUS
10
4.73889
20
-2.42352
11
4.73877
21
-2.42239
0
LINE
8
BLACK
6
CONTINUOUS
10
4.73877
20
-2.42239
11
4.73877
21
-2.40881
0
LINE
8
BLACK
6
CONTINUOUS
10
4.73877
20
-2.40881
11
4.73889
21
-2.40768
0
LINE
8
BLACK
6
CONTINUOUS
10
4.73889
20
-2.40768
11
4.73922
21
-2.40659
0
LINE
8
BLACK
6
CONTINUOUS
10
4.73922
20
-2.40659
11
4.73975
21
-2.40558
0
LINE
8
BLACK
6
CONTINUOUS
10
4.73975
20
-2.40558
11
4.74048
21
-2.4047
0
LINE
8
BLACK
6
CONTINUOUS
10
4.74048
20
-2.4047
11
4.74136
21
-2.40398
0
LINE
8
BLACK
6
CONTINUOUS
10
4.74136
20
-2.40398
11
4.74236
21
-2.40344
0
LINE
8
BLACK
6
CONTINUOUS
10
4.74236
20
-2.40344
11
4.74345
21
-2.40311
0
LINE
8
BLACK
6
CONTINUOUS
10
4.74345
20
-2.40311
11
4.74458
21
-2.403
0
LINE
8
BLACK
6
CONTINUOUS
10
4.74458
20
-2.403
11
4.7562
21
-2.403
0
LINE
8
BLACK
6
CONTINUOUS
10
4.7562
20
-2.403
11
4.75733
21
-2.40311
0
LINE
8
BLACK
6
CONTINUOUS
10
4.35752
20
-2.40331
11
4.35861
21
-2.40364
0
LINE
8
BLACK
6
CONTINUOUS
10
4.35861
20
-2.40364
11
4.35962
21
-2.40418
0
LINE
8
BLACK
6
CONTINUOUS
10
4.35962
20
-2.40418
11
4.3605
21
-2.4049
0
LINE
8
BLACK
6
CONTINUOUS
10
4.3605
20
-2.4049
11
4.36122
21
-2.40578
0
LINE
8
BLACK
6
CONTINUOUS
10
4.36122
20
-2.40578
11
4.36176
21
-2.40678
0
LINE
8
BLACK
6
CONTINUOUS
10
4.36176
20
-2.40678
11
4.36209
21
-2.40787
0
LINE
8
BLACK
6
CONTINUOUS
10
4.36209
20
-2.40787
11
4.3622
21
-2.409
0
LINE
8
BLACK
6
CONTINUOUS
10
4.3622
20
-2.409
11
4.3622
21
-2.42062
0
LINE
8
BLACK
6
CONTINUOUS
10
4.3622
20
-2.42062
11
4.36209
21
-2.42175
0
LINE
8
BLACK
6
CONTINUOUS
10
4.36209
20
-2.42175
11
4.36176
21
-2.42284
0
LINE
8
BLACK
6
CONTINUOUS
10
4.36176
20
-2.42284
11
4.36122
21
-2.42384
0
LINE
8
BLACK
6
CONTINUOUS
10
4.36122
20
-2.42384
11
4.3605
21
-2.42472
0
LINE
8
BLACK
6
CONTINUOUS
10
4.3605
20
-2.42472
11
4.35962
21
-2.42545
0
LINE
8
BLACK
6
CONTINUOUS
10
4.35962
20
-2.42545
11
4.35861
21
-2.42598
0
LINE
8
BLACK
6
CONTINUOUS
10
4.35861
20
-2.42598
11
4.35752
21
-2.42631
0
LINE
8
BLACK
6
CONTINUOUS
10
4.35752
20
-2.42631
11
4.35639
21
-2.42643
0
LINE
8
BLACK
6
CONTINUOUS
10
4.35639
20
-2.42643
11
4.34281
21
-2.42643
0
LINE
8
BLACK
6
CONTINUOUS
10
4.34281
20
-2.42643
11
4.34168
21
-2.42631
0
LINE
8
BLACK
6
CONTINUOUS
10
4.34168
20
-2.42631
11
4.34059
21
-2.42598
0
LINE
8
BLACK
6
CONTINUOUS
10
4.34059
20
-2.42598
11
4.33958
21
-2.42545
0
LINE
8
BLACK
6
CONTINUOUS
10
4.33958
20
-2.42545
11
4.3387
21
-2.42472
0
LINE
8
BLACK
6
CONTINUOUS
10
4.3387
20
-2.42472
11
4.33798
21
-2.42384
0
LINE
8
BLACK
6
CONTINUOUS
10
4.33798
20
-2.42384
11
4.33744
21
-2.42284
0
LINE
8
BLACK
6
CONTINUOUS
10
4.33744
20
-2.42284
11
4.33711
21
-2.42175
0
LINE
8
BLACK
6
CONTINUOUS
10
4.33711
20
-2.42175
11
4.337
21
-2.42062
0
LINE
8
BLACK
6
CONTINUOUS
10
4.337
20
-2.42062
11
4.337
21
-2.409
0
LINE
8
BLACK
6
CONTINUOUS
10
4.337
20
-2.409
11
4.33711
21
-2.40787
0
LINE
8
BLACK
6
CONTINUOUS
10
4.33711
20
-2.40787
11
4.33744
21
-2.40678
0
LINE
8
BLACK
6
CONTINUOUS
10
4.33744
20
-2.40678
11
4.33798
21
-2.40578
0
LINE
8
BLACK
6
CONTINUOUS
10
4.33798
20
-2.40578
11
4.3387
21
-2.4049
0
LINE
8
BLACK
6
CONTINUOUS
10
4.3387
20
-2.4049
11
4.33958
21
-2.40418
0
LINE
8
BLACK
6
CONTINUOUS
10
4.33958
20
-2.40418
11
4.34059
21
-2.40364
0
LINE
8
BLACK
6
CONTINUOUS
10
4.34059
20
-2.40364
11
4.34168
21
-2.40331
0
LINE
8
BLACK
6
CONTINUOUS
10
4.34168
20
-2.40331
11
4.34281
21
-2.4032
0
LINE
8
BLACK
6
CONTINUOUS
10
4.34281
20
-2.4032
11
4.35639
21
-2.4032
0
LINE
8
BLACK
6
CONTINUOUS
10
4.35639
20
-2.4032
11
4.35752
21
-2.40331
0
LINE
8
BLACK
6
CONTINUOUS
10
4.44761
20
-2.42341
11
4.38659
21
-2.42341
0
LINE
8
BLACK
6
CONTINUOUS
10
4.38659
20
-2.42341
11
4.38659
21
-2.39979
0
LINE
8
BLACK
6
CONTINUOUS
10
4.38659
20
-2.39979
11
4.44761
21
-2.39979
0
LINE
8
BLACK
6
CONTINUOUS
10
4.44761
20
-2.39979
11
4.44761
21
-2.42341
0
LINE
8
BLACK
6
CONTINUOUS
10
4.66021
20
-2.42341
11
4.59919
21
-2.42341
0
LINE
8
BLACK
6
CONTINUOUS
10
4.59919
20
-2.42341
11
4.59919
21
-2.39979
0
LINE
8
BLACK
6
CONTINUOUS
10
4.59919
20
-2.39979
11
4.66021
21
-2.39979
0
LINE
8
BLACK
6
CONTINUOUS
10
4.66021
20
-2.39979
11
4.66021
21
-2.42341
0
LINE
8
BLACK
6
CONTINUOUS
10
4.76092
20
-2.35149
11
4.76201
21
-2.35182
0
LINE
8
BLACK
6
CONTINUOUS
10
4.76201
20
-2.35182
11
4.76302
21
-2.35235
0
LINE
8
BLACK
6
CONTINUOUS
10
4.76302
20
-2.35235
11
4.7639
21
-2.35308
0
LINE
8
BLACK
6
CONTINUOUS
10
4.7639
20
-2.35308
11
4.76462
21
-2.35396
0
LINE
8
BLACK
6
CONTINUOUS
10
4.76462
20
-2.35396
11
4.76516
21
-2.35496
0
LINE
8
BLACK
6
CONTINUOUS
10
4.76516
20
-2.35496
11
4.76549
21
-2.35605
0
LINE
8
BLACK
6
CONTINUOUS
10
4.76549
20
-2.35605
11
4.7656
21
-2.35718
0
LINE
8
BLACK
6
CONTINUOUS
10
4.7656
20
-2.35718
11
4.7656
21
-2.3688
0
LINE
8
BLACK
6
CONTINUOUS
10
4.7656
20
-2.3688
11
4.76549
21
-2.36993
0
LINE
8
BLACK
6
CONTINUOUS
10
4.76549
20
-2.36993
11
4.76516
21
-2.37102
0
LINE
8
BLACK
6
CONTINUOUS
10
4.76516
20
-2.37102
11
4.76462
21
-2.37202
0
LINE
8
BLACK
6
CONTINUOUS
10
4.76462
20
-2.37202
11
4.7639
21
-2.3729
0
LINE
8
BLACK
6
CONTINUOUS
10
4.7639
20
-2.3729
11
4.76302
21
-2.37362
0
LINE
8
BLACK
6
CONTINUOUS
10
4.76302
20
-2.37362
11
4.76201
21
-2.37416
0
LINE
8
BLACK
6
CONTINUOUS
10
4.76201
20
-2.37416
11
4.76092
21
-2.37449
0
LINE
8
BLACK
6
CONTINUOUS
10
4.76092
20
-2.37449
11
4.75979
21
-2.3746
0
LINE
8
BLACK
6
CONTINUOUS
10
4.75979
20
-2.3746
11
4.74621
21
-2.3746
0
LINE
8
BLACK
6
CONTINUOUS
10
4.74621
20
-2.3746
11
4.74508
21
-2.37449
0
LINE
8
BLACK
6
CONTINUOUS
10
4.74508
20
-2.37449
11
4.74399
21
-2.37416
0
LINE
8
BLACK
6
CONTINUOUS
10
4.74399
20
-2.37416
11
4.74298
21
-2.37362
0
LINE
8
BLACK
6
CONTINUOUS
10
4.74298
20
-2.37362
11
4.7421
21
-2.3729
0
LINE
8
BLACK
6
CONTINUOUS
10
4.7421
20
-2.3729
11
4.74138
21
-2.37202
0
LINE
8
BLACK
6
CONTINUOUS
10
4.74138
20
-2.37202
11
4.74084
21
-2.37102
0
LINE
8
BLACK
6
CONTINUOUS
10
4.74084
20
-2.37102
11
4.74051
21
-2.36993
0
LINE
8
BLACK
6
CONTINUOUS
10
4.74051
20
-2.36993
11
4.7404
21
-2.3688
0
LINE
8
BLACK
6
CONTINUOUS
10
4.7404
20
-2.3688
11
4.7404
21
-2.35718
0
LINE
8
BLACK
6
CONTINUOUS
10
4.7404
20
-2.35718
11
4.74051
21
-2.35605
0
LINE
8
BLACK
6
CONTINUOUS
10
4.74051
20
-2.35605
11
4.74084
21
-2.35496
0
LINE
8
BLACK
6
CONTINUOUS
10
4.74084
20
-2.35496
11
4.74138
21
-2.35396
0
LINE
8
BLACK
6
CONTINUOUS
10
4.74138
20
-2.35396
11
4.7421
21
-2.35308
0
LINE
8
BLACK
6
CONTINUOUS
10
4.7421
20
-2.35308
11
4.74298
21
-2.35235
0
LINE
8
BLACK
6
CONTINUOUS
10
4.74298
20
-2.35235
11
4.74399
21
-2.35182
0
LINE
8
BLACK
6
CONTINUOUS
10
4.74399
20
-2.35182
11
4.74508
21
-2.35149
0
LINE
8
BLACK
6
CONTINUOUS
10
4.74508
20
-2.35149
11
4.74621
21
-2.35137
0
LINE
8
BLACK
6
CONTINUOUS
10
4.74621
20
-2.35137
11
4.75979
21
-2.35137
0
LINE
8
BLACK
6
CONTINUOUS
10
4.75979
20
-2.35137
11
4.76092
21
-2.35149
0
LINE
8
BLACK
6
CONTINUOUS
10
4.66021
20
-2.37341
11
4.59919
21
-2.37341
0
LINE
8
BLACK
6
CONTINUOUS
10
4.59919
20
-2.37341
11
4.59919
21
-2.34979
0
LINE
8
BLACK
6
CONTINUOUS
10
4.59919
20
-2.34979
11
4.66021
21
-2.34979
0
LINE
8
BLACK
6
CONTINUOUS
10
4.66021
20
-2.34979
11
4.66021
21
-2.37341
0
LINE
8
BLACK
6
CONTINUOUS
10
4.44761
20
-2.37341
11
4.38659
21
-2.37341
0
LINE
8
BLACK
6
CONTINUOUS
10
4.38659
20
-2.37341
11
4.38659
21
-2.34979
0
LINE
8
BLACK
6
CONTINUOUS
10
4.38659
20
-2.34979
11
4.44761
21
-2.34979
0
LINE
8
BLACK
6
CONTINUOUS
10
4.44761
20
-2.34979
11
4.44761
21
-2.37341
0
LINE
8
BLACK
6
CONTINUOUS
10
4.71152
20
-2.34959
11
4.71261
21
-2.34992
0
LINE
8
BLACK
6
CONTINUOUS
10
4.71261
20
-2.34992
11
4.71362
21
-2.35046
0
LINE
8
BLACK
6
CONTINUOUS
10
4.71362
20
-2.35046
11
4.7145
21
-2.35118
0
LINE
8
BLACK
6
CONTINUOUS
10
4.7145
20
-2.35118
11
4.71522
21
-2.35206
0
LINE
8
BLACK
6
CONTINUOUS
10
4.71522
20
-2.35206
11
4.71576
21
-2.35307
0
LINE
8
BLACK
6
CONTINUOUS
10
4.71576
20
-2.35307
11
4.71609
21
-2.35415
0
LINE
8
BLACK
6
CONTINUOUS
10
4.71609
20
-2.35415
11
4.7162
21
-2.35529
0
LINE
8
BLACK
6
CONTINUOUS
10
4.7162
20
-2.35529
11
4.7162
21
-2.3669
0
LINE
8
BLACK
6
CONTINUOUS
10
4.7162
20
-2.3669
11
4.71609
21
-2.36803
0
LINE
8
BLACK
6
CONTINUOUS
10
4.71609
20
-2.36803
11
4.71576
21
-2.36912
0
LINE
8
BLACK
6
CONTINUOUS
10
4.71576
20
-2.36912
11
4.71522
21
-2.37013
0
LINE
8
BLACK
6
CONTINUOUS
10
4.71522
20
-2.37013
11
4.7145
21
-2.37101
0
LINE
8
BLACK
6
CONTINUOUS
10
4.7145
20
-2.37101
11
4.71362
21
-2.37173
0
LINE
8
BLACK
6
CONTINUOUS
10
4.71362
20
-2.37173
11
4.71261
21
-2.37227
0
LINE
8
BLACK
6
CONTINUOUS
10
4.71261
20
-2.37227
11
4.71152
21
-2.3726
0
LINE
8
BLACK
6
CONTINUOUS
10
4.71152
20
-2.3726
11
4.71039
21
-2.37271
0
LINE
8
BLACK
6
CONTINUOUS
10
4.71039
20
-2.37271
11
4.69681
21
-2.37271
0
LINE
8
BLACK
6
CONTINUOUS
10
4.69681
20
-2.37271
11
4.69568
21
-2.3726
0
LINE
8
BLACK
6
CONTINUOUS
10
4.69568
20
-2.3726
11
4.69459
21
-2.37227
0
LINE
8
BLACK
6
CONTINUOUS
10
4.69459
20
-2.37227
11
4.69358
21
-2.37173
0
LINE
8
BLACK
6
CONTINUOUS
10
4.69358
20
-2.37173
11
4.6927
21
-2.37101
0
LINE
8
BLACK
6
CONTINUOUS
10
4.6927
20
-2.37101
11
4.69198
21
-2.37013
0
LINE
8
BLACK
6
CONTINUOUS
10
4.69198
20
-2.37013
11
4.69144
21
-2.36912
0
LINE
8
BLACK
6
CONTINUOUS
10
4.69144
20
-2.36912
11
4.69111
21
-2.36803
0
LINE
8
BLACK
6
CONTINUOUS
10
4.69111
20
-2.36803
11
4.691
21
-2.3669
0
LINE
8
BLACK
6
CONTINUOUS
10
4.691
20
-2.3669
11
4.691
21
-2.35529
0
LINE
8
BLACK
6
CONTINUOUS
10
4.691
20
-2.35529
11
4.69111
21
-2.35415
0
LINE
8
BLACK
6
CONTINUOUS
10
4.69111
20
-2.35415
11
4.69144
21
-2.35307
0
LINE
8
BLACK
6
CONTINUOUS
10
4.69144
20
-2.35307
11
4.69198
21
-2.35206
0
LINE
8
BLACK
6
CONTINUOUS
10
4.69198
20
-2.35206
11
4.6927
21
-2.35118
0
LINE
8
BLACK
6
CONTINUOUS
10
4.6927
20
-2.35118
11
4.69358
21
-2.35046
0
LINE
8
BLACK
6
CONTINUOUS
10
4.69358
20
-2.35046
11
4.69459
21
-2.34992
0
LINE
8
BLACK
6
CONTINUOUS
10
4.69459
20
-2.34992
11
4.69568
21
-2.34959
0
LINE
8
BLACK
6
CONTINUOUS
10
4.69568
20
-2.34959
11
4.69681
21
-2.34948
0
LINE
8
BLACK
6
CONTINUOUS
10
4.69681
20
-2.34948
11
4.71039
21
-2.34948
0
LINE
8
BLACK
6
CONTINUOUS
10
4.71039
20
-2.34948
11
4.71152
21
-2.34959
0
LINE
8
BLACK
6
CONTINUOUS
10
4.35752
20
-2.34659
11
4.35861
21
-2.34692
0
LINE
8
BLACK
6
CONTINUOUS
10
4.35861
20
-2.34692
11
4.35962
21
-2.34746
0
LINE
8
BLACK
6
CONTINUOUS
10
4.35962
20
-2.34746
11
4.3605
21
-2.34818
0
LINE
8
BLACK
6
CONTINUOUS
10
4.3605
20
-2.34818
11
4.36122
21
-2.34906
0
LINE
8
BLACK
6
CONTINUOUS
10
4.36122
20
-2.34906
11
4.36176
21
-2.35007
0
LINE
8
BLACK
6
CONTINUOUS
10
4.36176
20
-2.35007
11
4.36209
21
-2.35115
0
LINE
8
BLACK
6
CONTINUOUS
10
4.36209
20
-2.35115
11
4.3622
21
-2.35229
0
LINE
8
BLACK
6
CONTINUOUS
10
4.3622
20
-2.35229
11
4.3622
21
-2.3639
0
LINE
8
BLACK
6
CONTINUOUS
10
4.3622
20
-2.3639
11
4.36209
21
-2.36503
0
LINE
8
BLACK
6
CONTINUOUS
10
4.36209
20
-2.36503
11
4.36176
21
-2.36612
0
LINE
8
BLACK
6
CONTINUOUS
10
4.36176
20
-2.36612
11
4.36122
21
-2.36713
0
LINE
8
BLACK
6
CONTINUOUS
10
4.36122
20
-2.36713
11
4.3605
21
-2.36801
0
LINE
8
BLACK
6
CONTINUOUS
10
4.3605
20
-2.36801
11
4.35962
21
-2.36873
0
LINE
8
BLACK
6
CONTINUOUS
10
4.35962
20
-2.36873
11
4.35861
21
-2.36927
0
LINE
8
BLACK
6
CONTINUOUS
10
4.35861
20
-2.36927
11
4.35752
21
-2.3696
0
LINE
8
BLACK
6
CONTINUOUS
10
4.35752
20
-2.3696
11
4.35639
21
-2.36971
0
LINE
8
BLACK
6
CONTINUOUS
10
4.35639
20
-2.36971
11
4.34281
21
-2.36971
0
LINE
8
BLACK
6
CONTINUOUS
10
4.34281
20
-2.36971
11
4.34168
21
-2.3696
0
LINE
8
BLACK
6
CONTINUOUS
10
4.34168
20
-2.3696
11
4.34059
21
-2.36927
0
LINE
8
BLACK
6
CONTINUOUS
10
4.34059
20
-2.36927
11
4.33958
21
-2.36873
0
LINE
8
BLACK
6
CONTINUOUS
10
4.33958
20
-2.36873
11
4.3387
21
-2.36801
0
LINE
8
BLACK
6
CONTINUOUS
10
4.3387
20
-2.36801
11
4.33798
21
-2.36713
0
LINE
8
BLACK
6
CONTINUOUS
10
4.33798
20
-2.36713
11
4.33744
21
-2.36612
0
LINE
8
BLACK
6
CONTINUOUS
10
4.33744
20
-2.36612
11
4.33711
21
-2.36503
0
LINE
8
BLACK
6
CONTINUOUS
10
4.33711
20
-2.36503
11
4.337
21
-2.3639
0
LINE
8
BLACK
6
CONTINUOUS
10
4.337
20
-2.3639
11
4.337
21
-2.35229
0
LINE
8
BLACK
6
CONTINUOUS
10
4.337
20
-2.35229
11
4.33711
21
-2.35115
0
LINE
8
BLACK
6
CONTINUOUS
10
4.33711
20
-2.35115
11
4.33744
21
-2.35007
0
LINE
8
BLACK
6
CONTINUOUS
10
4.33744
20
-2.35007
11
4.33798
21
-2.34906
0
LINE
8
BLACK
6
CONTINUOUS
10
4.33798
20
-2.34906
11
4.3387
21
-2.34818
0
LINE
8
BLACK
6
CONTINUOUS
10
4.3387
20
-2.34818
11
4.33958
21
-2.34746
0
LINE
8
BLACK
6
CONTINUOUS
10
4.33958
20
-2.34746
11
4.34059
21
-2.34692
0
LINE
8
BLACK
6
CONTINUOUS
10
4.34059
20
-2.34692
11
4.34168
21
-2.34659
0
LINE
8
BLACK
6
CONTINUOUS
10
4.34168
20
-2.34659
11
4.34281
21
-2.34648
0
LINE
8
BLACK
6
CONTINUOUS
10
4.34281
20
-2.34648
11
4.35639
21
-2.34648
0
LINE
8
BLACK
6
CONTINUOUS
10
4.35639
20
-2.34648
11
4.35752
21
-2.34659
0
LINE
8
BLACK
6
CONTINUOUS
10
4.76092
20
-2.3133
11
4.76201
21
-2.31363
0
LINE
8
BLACK
6
CONTINUOUS
10
4.76201
20
-2.31363
11
4.76302
21
-2.31416
0
LINE
8
BLACK
6
CONTINUOUS
10
4.76302
20
-2.31416
11
4.7639
21
-2.31489
0
LINE
8
BLACK
6
CONTINUOUS
10
4.7639
20
-2.31489
11
4.76462
21
-2.31577
0
LINE
8
BLACK
6
CONTINUOUS
10
4.76462
20
-2.31577
11
4.76516
21
-2.31677
0
LINE
8
BLACK
6
CONTINUOUS
10
4.76516
20
-2.31677
11
4.76549
21
-2.31786
0
LINE
8
BLACK
6
CONTINUOUS
10
4.76549
20
-2.31786
11
4.7656
21
-2.31899
0
LINE
8
BLACK
6
CONTINUOUS
10
4.7656
20
-2.31899
11
4.7656
21
-2.33061
0
LINE
8
BLACK
6
CONTINUOUS
10
4.7656
20
-2.33061
11
4.76549
21
-2.33174
0
LINE
8
BLACK
6
CONTINUOUS
10
4.76549
20
-2.33174
11
4.76516
21
-2.33283
0
LINE
8
BLACK
6
CONTINUOUS
10
4.76516
20
-2.33283
11
4.76462
21
-2.33383
0
LINE
8
BLACK
6
CONTINUOUS
10
4.76462
20
-2.33383
11
4.7639
21
-2.33471
0
LINE
8
BLACK
6
CONTINUOUS
10
4.7639
20
-2.33471
11
4.76302
21
-2.33544
0
LINE
8
BLACK
6
CONTINUOUS
10
4.76302
20
-2.33544
11
4.76201
21
-2.33597
0
LINE
8
BLACK
6
CONTINUOUS
10
4.76201
20
-2.33597
11
4.76092
21
-2.3363
0
LINE
8
BLACK
6
CONTINUOUS
10
4.76092
20
-2.3363
11
4.75979
21
-2.33641
0
LINE
8
BLACK
6
CONTINUOUS
10
4.75979
20
-2.33641
11
4.74621
21
-2.33641
0
LINE
8
BLACK
6
CONTINUOUS
10
4.74621
20
-2.33641
11
4.74508
21
-2.3363
0
LINE
8
BLACK
6
CONTINUOUS
10
4.74508
20
-2.3363
11
4.74399
21
-2.33597
0
LINE
8
BLACK
6
CONTINUOUS
10
4.74399
20
-2.33597
11
4.74298
21
-2.33544
0
LINE
8
BLACK
6
CONTINUOUS
10
4.74298
20
-2.33544
11
4.7421
21
-2.33471
0
LINE
8
BLACK
6
CONTINUOUS
10
4.7421
20
-2.33471
11
4.74138
21
-2.33383
0
LINE
8
BLACK
6
CONTINUOUS
10
4.74138
20
-2.33383
11
4.74084
21
-2.33283
0
LINE
8
BLACK
6
CONTINUOUS
10
4.74084
20
-2.33283
11
4.74051
21
-2.33174
0
LINE
8
BLACK
6
CONTINUOUS
10
4.74051
20
-2.33174
11
4.7404
21
-2.33061
0
LINE
8
BLACK
6
CONTINUOUS
10
4.7404
20
-2.33061
11
4.7404
21
-2.31899
0
LINE
8
BLACK
6
CONTINUOUS
10
4.7404
20
-2.31899
11
4.74051
21
-2.31786
0
LINE
8
BLACK
6
CONTINUOUS
10
4.74051
20
-2.31786
11
4.74084
21
-2.31677
0
LINE
8
BLACK
6
CONTINUOUS
10
4.74084
20
-2.31677
11
4.74138
21
-2.31577
0
LINE
8
BLACK
6
CONTINUOUS
10
4.74138
20
-2.31577
11
4.7421
21
-2.31489
0
LINE
8
BLACK
6
CONTINUOUS
10
4.7421
20
-2.31489
11
4.74298
21
-2.31416
0
LINE
8
BLACK
6
CONTINUOUS
10
4.74298
20
-2.31416
11
4.74399
21
-2.31363
0
LINE
8
BLACK
6
CONTINUOUS
10
4.74399
20
-2.31363
11
4.74508
21
-2.3133
0
LINE
8
BLACK
6
CONTINUOUS
10
4.74508
20
-2.3133
11
4.74621
21
-2.31319
0
LINE
8
BLACK
6
CONTINUOUS
10
4.74621
20
-2.31319
11
4.75979
21
-2.31319
0
LINE
8
BLACK
6
CONTINUOUS
10
4.75979
20
-2.31319
11
4.76092
21
-2.3133
0
LINE
8
BLACK
6
CONTINUOUS
10
4.71152
20
-2.3114
11
4.71261
21
-2.31173
0
LINE
8
BLACK
6
CONTINUOUS
10
4.71261
20
-2.31173
11
4.71362
21
-2.31227
0
LINE
8
BLACK
6
CONTINUOUS
10
4.71362
20
-2.31227
11
4.7145
21
-2.31299
0
LINE
8
BLACK
6
CONTINUOUS
10
4.7145
20
-2.31299
11
4.71522
21
-2.31387
0
LINE
8
BLACK
6
CONTINUOUS
10
4.71522
20
-2.31387
11
4.71576
21
-2.31488
0
LINE
8
BLACK
6
CONTINUOUS
10
4.71576
20
-2.31488
11
4.71609
21
-2.31597
0
LINE
8
BLACK
6
CONTINUOUS
10
4.71609
20
-2.31597
11
4.7162
21
-2.3171
0
LINE
8
BLACK
6
CONTINUOUS
10
4.7162
20
-2.3171
11
4.7162
21
-2.32871
0
LINE
8
BLACK
6
CONTINUOUS
10
4.7162
20
-2.32871
11
4.71609
21
-2.32985
0
LINE
8
BLACK
6
CONTINUOUS
10
4.71609
20
-2.32985
11
4.71576
21
-2.33093
0
LINE
8
BLACK
6
CONTINUOUS
10
4.71576
20
-2.33093
11
4.71522
21
-2.33194
0
LINE
8
BLACK
6
CONTINUOUS
10
4.71522
20
-2.33194
11
4.7145
21
-2.33282
0
LINE
8
BLACK
6
CONTINUOUS
10
4.7145
20
-2.33282
11
4.71362
21
-2.33354
0
LINE
8
BLACK
6
CONTINUOUS
10
4.71362
20
-2.33354
11
4.71261
21
-2.33408
0
LINE
8
BLACK
6
CONTINUOUS
10
4.71261
20
-2.33408
11
4.71152
21
-2.33441
0
LINE
8
BLACK
6
CONTINUOUS
10
4.71152
20
-2.33441
11
4.71039
21
-2.33452
0
LINE
8
BLACK
6
CONTINUOUS
10
4.71039
20
-2.33452
11
4.69681
21
-2.33452
0
LINE
8
BLACK
6
CONTINUOUS
10
4.69681
20
-2.33452
11
4.69568
21
-2.33441
0
LINE
8
BLACK
6
CONTINUOUS
10
4.69568
20
-2.33441
11
4.69459
21
-2.33408
0
LINE
8
BLACK
6
CONTINUOUS
10
4.69459
20
-2.33408
11
4.69358
21
-2.33354
0
LINE
8
BLACK
6
CONTINUOUS
10
4.69358
20
-2.33354
11
4.6927
21
-2.33282
0
LINE
8
BLACK
6
CONTINUOUS
10
4.6927
20
-2.33282
11
4.69198
21
-2.33194
0
LINE
8
BLACK
6
CONTINUOUS
10
4.69198
20
-2.33194
11
4.69144
21
-2.33093
0
LINE
8
BLACK
6
CONTINUOUS
10
4.69144
20
-2.33093
11
4.69111
21
-2.32985
0
LINE
8
BLACK
6
CONTINUOUS
10
4.69111
20
-2.32985
11
4.691
21
-2.32871
0
LINE
8
BLACK
6
CONTINUOUS
10
4.691
20
-2.32871
11
4.691
21
-2.3171
0
LINE
8
BLACK
6
CONTINUOUS
10
4.691
20
-2.3171
11
4.69111
21
-2.31597
0
LINE
8
BLACK
6
CONTINUOUS
10
4.69111
20
-2.31597
11
4.69144
21
-2.31488
0
LINE
8
BLACK
6
CONTINUOUS
10
4.69144
20
-2.31488
11
4.69198
21
-2.31387
0
LINE
8
BLACK
6
CONTINUOUS
10
4.69198
20
-2.31387
11
4.6927
21
-2.31299
0
LINE
8
BLACK
6
CONTINUOUS
10
4.6927
20
-2.31299
11
4.69358
21
-2.31227
0
LINE
8
BLACK
6
CONTINUOUS
10
4.69358
20
-2.31227
11
4.69459
21
-2.31173
0
LINE
8
BLACK
6
CONTINUOUS
10
4.69459
20
-2.31173
11
4.69568
21
-2.3114
0
LINE
8
BLACK
6
CONTINUOUS
10
4.69568
20
-2.3114
11
4.69681
21
-2.31129
0
LINE
8
BLACK
6
CONTINUOUS
10
4.69681
20
-2.31129
11
4.71039
21
-2.31129
0
LINE
8
BLACK
6
CONTINUOUS
10
4.71039
20
-2.31129
11
4.71152
21
-2.3114
0
LINE
8
BLACK
6
CONTINUOUS
10
4.35752
20
-2.3084
11
4.35861
21
-2.30873
0
LINE
8
BLACK
6
CONTINUOUS
10
4.35861
20
-2.30873
11
4.35962
21
-2.30927
0
LINE
8
BLACK
6
CONTINUOUS
10
4.35962
20
-2.30927
11
4.3605
21
-2.30999
0
LINE
8
BLACK
6
CONTINUOUS
10
4.3605
20
-2.30999
11
4.36122
21
-2.31087
0
LINE
8
BLACK
6
CONTINUOUS
10
4.36122
20
-2.31087
11
4.36176
21
-2.31188
0
LINE
8
BLACK
6
CONTINUOUS
10
4.36176
20
-2.31188
11
4.36209
21
-2.31297
0
LINE
8
BLACK
6
CONTINUOUS
10
4.36209
20
-2.31297
11
4.3622
21
-2.3141
0
LINE
8
BLACK
6
CONTINUOUS
10
4.3622
20
-2.3141
11
4.3622
21
-2.32571
0
LINE
8
BLACK
6
CONTINUOUS
10
4.3622
20
-2.32571
11
4.36209
21
-2.32685
0
LINE
8
BLACK
6
CONTINUOUS
10
4.36209
20
-2.32685
11
4.36176
21
-2.32793
0
LINE
8
BLACK
6
CONTINUOUS
10
4.36176
20
-2.32793
11
4.36122
21
-2.32894
0
LINE
8
BLACK
6
CONTINUOUS
10
4.36122
20
-2.32894
11
4.3605
21
-2.32982
0
LINE
8
BLACK
6
CONTINUOUS
10
4.3605
20
-2.32982
11
4.35962
21
-2.33054
0
LINE
8
BLACK
6
CONTINUOUS
10
4.35962
20
-2.33054
11
4.35861
21
-2.33108
0
LINE
8
BLACK
6
CONTINUOUS
10
4.35861
20
-2.33108
11
4.35752
21
-2.33141
0
LINE
8
BLACK
6
CONTINUOUS
10
4.35752
20
-2.33141
11
4.35639
21
-2.33152
0
LINE
8
BLACK
6
CONTINUOUS
10
4.35639
20
-2.33152
11
4.34281
21
-2.33152
0
LINE
8
BLACK
6
CONTINUOUS
10
4.34281
20
-2.33152
11
4.34168
21
-2.33141
0
LINE
8
BLACK
6
CONTINUOUS
10
4.34168
20
-2.33141
11
4.34059
21
-2.33108
0
LINE
8
BLACK
6
CONTINUOUS
10
4.34059
20
-2.33108
11
4.33958
21
-2.33054
0
LINE
8
BLACK
6
CONTINUOUS
10
4.33958
20
-2.33054
11
4.3387
21
-2.32982
0
LINE
8
BLACK
6
CONTINUOUS
10
4.3387
20
-2.32982
11
4.33798
21
-2.32894
0
LINE
8
BLACK
6
CONTINUOUS
10
4.33798
20
-2.32894
11
4.33744
21
-2.32793
0
LINE
8
BLACK
6
CONTINUOUS
10
4.33744
20
-2.32793
11
4.33711
21
-2.32685
0
LINE
8
BLACK
6
CONTINUOUS
10
4.33711
20
-2.32685
11
4.337
21
-2.32571
0
LINE
8
BLACK
6
CONTINUOUS
10
4.337
20
-2.32571
11
4.337
21
-2.3141
0
LINE
8
BLACK
6
CONTINUOUS
10
4.337
20
-2.3141
11
4.33711
21
-2.31297
0
LINE
8
BLACK
6
CONTINUOUS
10
4.33711
20
-2.31297
11
4.33744
21
-2.31188
0
LINE
8
BLACK
6
CONTINUOUS
10
4.33744
20
-2.31188
11
4.33798
21
-2.31087
0
LINE
8
BLACK
6
CONTINUOUS
10
4.33798
20
-2.31087
11
4.3387
21
-2.30999
0
LINE
8
BLACK
6
CONTINUOUS
10
4.3387
20
-2.30999
11
4.33958
21
-2.30927
0
LINE
8
BLACK
6
CONTINUOUS
10
4.33958
20
-2.30927
11
4.34059
21
-2.30873
0
LINE
8
BLACK
6
CONTINUOUS
10
4.34059
20
-2.30873
11
4.34168
21
-2.3084
0
LINE
8
BLACK
6
CONTINUOUS
10
4.34168
20
-2.3084
11
4.34281
21
-2.30829
0
LINE
8
BLACK
6
CONTINUOUS
10
4.34281
20
-2.30829
11
4.35639
21
-2.30829
0
LINE
8
BLACK
6
CONTINUOUS
10
4.35639
20
-2.30829
11
4.35752
21
-2.3084
0
LINE
8
BLACK
6
CONTINUOUS
10
4.66021
20
-2.32341
11
4.59919
21
-2.32341
0
LINE
8
BLACK
6
CONTINUOUS
10
4.59919
20
-2.32341
11
4.59919
21
-2.29979
0
LINE
8
BLACK
6
CONTINUOUS
10
4.59919
20
-2.29979
11
4.66021
21
-2.29979
0
LINE
8
BLACK
6
CONTINUOUS
10
4.66021
20
-2.29979
11
4.66021
21
-2.32341
0
LINE
8
BLACK
6
CONTINUOUS
10
4.44761
20
-2.32341
11
4.38659
21
-2.32341
0
LINE
8
BLACK
6
CONTINUOUS
10
4.38659
20
-2.32341
11
4.38659
21
-2.29979
0
LINE
8
BLACK
6
CONTINUOUS
10
4.38659
20
-2.29979
11
4.44761
21
-2.29979
0
LINE
8
BLACK
6
CONTINUOUS
10
4.44761
20
-2.29979
11
4.44761
21
-2.32341
0
LINE
8
BLACK
6
CONTINUOUS
10
4.66021
20
-2.27341
11
4.59919
21
-2.27341
0
LINE
8
BLACK
6
CONTINUOUS
10
4.59919
20
-2.27341
11
4.59919
21
-2.24979
0
LINE
8
BLACK
6
CONTINUOUS
10
4.59919
20
-2.24979
11
4.66021
21
-2.24979
0
LINE
8
BLACK
6
CONTINUOUS
10
4.66021
20
-2.24979
11
4.66021
21
-2.27341
0
LINE
8
BLACK
6
CONTINUOUS
10
4.44761
20
-2.27341
11
4.38659
21
-2.27341
0
LINE
8
BLACK
6
CONTINUOUS
10
4.38659
20
-2.27341
11
4.38659
21
-2.24979
0
LINE
8
BLACK
6
CONTINUOUS
10
4.38659
20
-2.24979
11
4.44761
21
-2.24979
0
LINE
8
BLACK
6
CONTINUOUS
10
4.44761
20
-2.24979
11
4.44761
21
-2.27341
  0
ENDSEC
  0
EOF
