  0
SECTION
  2
HEADER
  9
$ANGBASE
  50
0.0
  9
$ANGDIR
  70
1
  9
$MEASUREMENT
  70
0
  0
ENDSEC
  0
SECTION
  2
TABLES
  0
TABLE
  2
LTYPE
  70
4
  0
LTYPE
  5
40F
  2
CONTINUOUS
  70
0
  3
Solid line
  72
65
  73
0
  40
0.0
  0
LTYPE
  5
410
  2
DASHDOT
 70
0
  3
Dash Dot ____ _ ____ _
 72
65
 73
4
 40
2.0
 49
1.25
 49
-0.25
 49
0.25
 49
-0.25
  0
LTYPE
  5
411
  2
DASHED
 70
0
  3
Dashed __ __ __ __ __
 72
65
 73
2
 40
0.75
 49
0.5
 49
-0.25
  0
LTYPE
  5
43B
  2
DOTTED
 70
0
  3
Dotted .  .  .  .
 72
65
 73
2
 40
0.2
 49
0.0
 49
-0.2
  0
ENDTAB
  0
TABLE
  2
STYLE
  70
4
  0
STYLE
  2
KICAD
  70
0
  40
0
  41
1
  42
1
  50
0
  71
0
  3
isocp.shx
  0
STYLE
  2
KICADB
  70
0
  40
0
  41
1
  42
1
  50
0
  71
0
  3
isocp.shx
  0
STYLE
  2
KICADI
  70
0
  40
0
  41
1
  42
1
  50
15
  71
0
  3
isocp.shx
  0
STYLE
  2
KICADBI
  70
0
  40
0
  41
1
  42
1
  50
15
  71
0
  3
isocp.shx
  0
ENDTAB
  0
TABLE
  2
LAYER
  70
1
  0
LAYER
  2
BLACK
  70
0
  62
7
  6
CONTINUOUS
  0
ENDTAB
  0
ENDSEC
  0
SECTION
  2
ENTITIES
0
LINE
8
BLACK
6
CONTINUOUS
10
4.58054
20
-2.67363
11
4.52346
21
-2.67363
0
LINE
8
BLACK
6
CONTINUOUS
10
4.52346
20
-2.67363
11
4.52346
21
-2.65591
0
LINE
8
BLACK
6
CONTINUOUS
10
4.52346
20
-2.65591
11
4.58054
21
-2.65591
0
LINE
8
BLACK
6
CONTINUOUS
10
4.58054
20
-2.65591
11
4.58054
21
-2.67363
0
LINE
8
BLACK
6
CONTINUOUS
10
4.34826
20
-2.67363
11
4.29117
21
-2.67363
0
LINE
8
BLACK
6
CONTINUOUS
10
4.29117
20
-2.67363
11
4.29117
21
-2.65591
0
LINE
8
BLACK
6
CONTINUOUS
10
4.29117
20
-2.65591
11
4.34826
21
-2.65591
0
LINE
8
BLACK
6
CONTINUOUS
10
4.34826
20
-2.65591
11
4.34826
21
-2.67363
0
LINE
8
BLACK
6
CONTINUOUS
10
4.58054
20
-2.64804
11
4.52346
21
-2.64804
0
LINE
8
BLACK
6
CONTINUOUS
10
4.52346
20
-2.64804
11
4.52346
21
-2.63032
0
LINE
8
BLACK
6
CONTINUOUS
10
4.52346
20
-2.63032
11
4.58054
21
-2.63032
0
LINE
8
BLACK
6
CONTINUOUS
10
4.58054
20
-2.63032
11
4.58054
21
-2.64804
0
LINE
8
BLACK
6
CONTINUOUS
10
4.34826
20
-2.64804
11
4.29117
21
-2.64804
0
LINE
8
BLACK
6
CONTINUOUS
10
4.29117
20
-2.64804
11
4.29117
21
-2.63032
0
LINE
8
BLACK
6
CONTINUOUS
10
4.29117
20
-2.63032
11
4.34826
21
-2.63032
0
LINE
8
BLACK
6
CONTINUOUS
10
4.34826
20
-2.63032
11
4.34826
21
-2.64804
0
LINE
8
BLACK
6
CONTINUOUS
10
4.58054
20
-2.62245
11
4.52346
21
-2.62245
0
LINE
8
BLACK
6
CONTINUOUS
10
4.52346
20
-2.62245
11
4.52346
21
-2.60473
0
LINE
8
BLACK
6
CONTINUOUS
10
4.52346
20
-2.60473
11
4.58054
21
-2.60473
0
LINE
8
BLACK
6
CONTINUOUS
10
4.58054
20
-2.60473
11
4.58054
21
-2.62245
0
LINE
8
BLACK
6
CONTINUOUS
10
4.34826
20
-2.62245
11
4.29117
21
-2.62245
0
LINE
8
BLACK
6
CONTINUOUS
10
4.29117
20
-2.62245
11
4.29117
21
-2.60473
0
LINE
8
BLACK
6
CONTINUOUS
10
4.29117
20
-2.60473
11
4.34826
21
-2.60473
0
LINE
8
BLACK
6
CONTINUOUS
10
4.34826
20
-2.60473
11
4.34826
21
-2.62245
0
LINE
8
BLACK
6
CONTINUOUS
10
4.23785
20
-2.59351
11
4.23893
21
-2.59384
0
LINE
8
BLACK
6
CONTINUOUS
10
4.23893
20
-2.59384
11
4.23994
21
-2.59438
0
LINE
8
BLACK
6
CONTINUOUS
10
4.23994
20
-2.59438
11
4.24082
21
-2.5951
0
LINE
8
BLACK
6
CONTINUOUS
10
4.24082
20
-2.5951
11
4.24154
21
-2.59598
0
LINE
8
BLACK
6
CONTINUOUS
10
4.24154
20
-2.59598
11
4.24208
21
-2.59699
0
LINE
8
BLACK
6
CONTINUOUS
10
4.24208
20
-2.59699
11
4.24241
21
-2.59808
0
LINE
8
BLACK
6
CONTINUOUS
10
4.24241
20
-2.59808
11
4.24252
21
-2.59921
0
LINE
8
BLACK
6
CONTINUOUS
10
4.24252
20
-2.59921
11
4.24252
21
-2.61279
0
LINE
8
BLACK
6
CONTINUOUS
10
4.24252
20
-2.61279
11
4.24241
21
-2.61392
0
LINE
8
BLACK
6
CONTINUOUS
10
4.24241
20
-2.61392
11
4.24208
21
-2.61501
0
LINE
8
BLACK
6
CONTINUOUS
10
4.24208
20
-2.61501
11
4.24154
21
-2.61602
0
LINE
8
BLACK
6
CONTINUOUS
10
4.24154
20
-2.61602
11
4.24082
21
-2.6169
0
LINE
8
BLACK
6
CONTINUOUS
10
4.24082
20
-2.6169
11
4.23994
21
-2.61762
0
LINE
8
BLACK
6
CONTINUOUS
10
4.23994
20
-2.61762
11
4.23893
21
-2.61816
0
LINE
8
BLACK
6
CONTINUOUS
10
4.23893
20
-2.61816
11
4.23785
21
-2.61849
0
LINE
8
BLACK
6
CONTINUOUS
10
4.23785
20
-2.61849
11
4.23671
21
-2.6186
0
LINE
8
BLACK
6
CONTINUOUS
10
4.23671
20
-2.6186
11
4.2251
21
-2.6186
0
LINE
8
BLACK
6
CONTINUOUS
10
4.2251
20
-2.6186
11
4.22397
21
-2.61849
0
LINE
8
BLACK
6
CONTINUOUS
10
4.22397
20
-2.61849
11
4.22288
21
-2.61816
0
LINE
8
BLACK
6
CONTINUOUS
10
4.22288
20
-2.61816
11
4.22187
21
-2.61762
0
LINE
8
BLACK
6
CONTINUOUS
10
4.22187
20
-2.61762
11
4.22099
21
-2.6169
0
LINE
8
BLACK
6
CONTINUOUS
10
4.22099
20
-2.6169
11
4.22027
21
-2.61602
0
LINE
8
BLACK
6
CONTINUOUS
10
4.22027
20
-2.61602
11
4.21973
21
-2.61501
0
LINE
8
BLACK
6
CONTINUOUS
10
4.21973
20
-2.61501
11
4.2194
21
-2.61392
0
LINE
8
BLACK
6
CONTINUOUS
10
4.2194
20
-2.61392
11
4.21929
21
-2.61279
0
LINE
8
BLACK
6
CONTINUOUS
10
4.21929
20
-2.61279
11
4.21929
21
-2.59921
0
LINE
8
BLACK
6
CONTINUOUS
10
4.21929
20
-2.59921
11
4.2194
21
-2.59808
0
LINE
8
BLACK
6
CONTINUOUS
10
4.2194
20
-2.59808
11
4.21973
21
-2.59699
0
LINE
8
BLACK
6
CONTINUOUS
10
4.21973
20
-2.59699
11
4.22027
21
-2.59598
0
LINE
8
BLACK
6
CONTINUOUS
10
4.22027
20
-2.59598
11
4.22099
21
-2.5951
0
LINE
8
BLACK
6
CONTINUOUS
10
4.22099
20
-2.5951
11
4.22187
21
-2.59438
0
LINE
8
BLACK
6
CONTINUOUS
10
4.22187
20
-2.59438
11
4.22288
21
-2.59384
0
LINE
8
BLACK
6
CONTINUOUS
10
4.22288
20
-2.59384
11
4.22397
21
-2.59351
0
LINE
8
BLACK
6
CONTINUOUS
10
4.22397
20
-2.59351
11
4.2251
21
-2.5934
0
LINE
8
BLACK
6
CONTINUOUS
10
4.2251
20
-2.5934
11
4.23671
21
-2.5934
0
LINE
8
BLACK
6
CONTINUOUS
10
4.23671
20
-2.5934
11
4.23785
21
-2.59351
0
LINE
8
BLACK
6
CONTINUOUS
10
4.27603
20
-2.59351
11
4.27712
21
-2.59384
0
LINE
8
BLACK
6
CONTINUOUS
10
4.27712
20
-2.59384
11
4.27813
21
-2.59438
0
LINE
8
BLACK
6
CONTINUOUS
10
4.27813
20
-2.59438
11
4.27901
21
-2.5951
0
LINE
8
BLACK
6
CONTINUOUS
10
4.27901
20
-2.5951
11
4.27973
21
-2.59598
0
LINE
8
BLACK
6
CONTINUOUS
10
4.27973
20
-2.59598
11
4.28027
21
-2.59699
0
LINE
8
BLACK
6
CONTINUOUS
10
4.28027
20
-2.59699
11
4.2806
21
-2.59808
0
LINE
8
BLACK
6
CONTINUOUS
10
4.2806
20
-2.59808
11
4.28071
21
-2.59921
0
LINE
8
BLACK
6
CONTINUOUS
10
4.28071
20
-2.59921
11
4.28071
21
-2.61279
0
LINE
8
BLACK
6
CONTINUOUS
10
4.28071
20
-2.61279
11
4.2806
21
-2.61392
0
LINE
8
BLACK
6
CONTINUOUS
10
4.2806
20
-2.61392
11
4.28027
21
-2.61501
0
LINE
8
BLACK
6
CONTINUOUS
10
4.28027
20
-2.61501
11
4.27973
21
-2.61602
0
LINE
8
BLACK
6
CONTINUOUS
10
4.27973
20
-2.61602
11
4.27901
21
-2.6169
0
LINE
8
BLACK
6
CONTINUOUS
10
4.27901
20
-2.6169
11
4.27813
21
-2.61762
0
LINE
8
BLACK
6
CONTINUOUS
10
4.27813
20
-2.61762
11
4.27712
21
-2.61816
0
LINE
8
BLACK
6
CONTINUOUS
10
4.27712
20
-2.61816
11
4.27603
21
-2.61849
0
LINE
8
BLACK
6
CONTINUOUS
10
4.27603
20
-2.61849
11
4.2749
21
-2.6186
0
LINE
8
BLACK
6
CONTINUOUS
10
4.2749
20
-2.6186
11
4.26329
21
-2.6186
0
LINE
8
BLACK
6
CONTINUOUS
10
4.26329
20
-2.6186
11
4.26215
21
-2.61849
0
LINE
8
BLACK
6
CONTINUOUS
10
4.26215
20
-2.61849
11
4.26107
21
-2.61816
0
LINE
8
BLACK
6
CONTINUOUS
10
4.26107
20
-2.61816
11
4.26006
21
-2.61762
0
LINE
8
BLACK
6
CONTINUOUS
10
4.26006
20
-2.61762
11
4.25918
21
-2.6169
0
LINE
8
BLACK
6
CONTINUOUS
10
4.25918
20
-2.6169
11
4.25846
21
-2.61602
0
LINE
8
BLACK
6
CONTINUOUS
10
4.25846
20
-2.61602
11
4.25792
21
-2.61501
0
LINE
8
BLACK
6
CONTINUOUS
10
4.25792
20
-2.61501
11
4.25759
21
-2.61392
0
LINE
8
BLACK
6
CONTINUOUS
10
4.25759
20
-2.61392
11
4.25748
21
-2.61279
0
LINE
8
BLACK
6
CONTINUOUS
10
4.25748
20
-2.61279
11
4.25748
21
-2.59921
0
LINE
8
BLACK
6
CONTINUOUS
10
4.25748
20
-2.59921
11
4.25759
21
-2.59808
0
LINE
8
BLACK
6
CONTINUOUS
10
4.25759
20
-2.59808
11
4.25792
21
-2.59699
0
LINE
8
BLACK
6
CONTINUOUS
10
4.25792
20
-2.59699
11
4.25846
21
-2.59598
0
LINE
8
BLACK
6
CONTINUOUS
10
4.25846
20
-2.59598
11
4.25918
21
-2.5951
0
LINE
8
BLACK
6
CONTINUOUS
10
4.25918
20
-2.5951
11
4.26006
21
-2.59438
0
LINE
8
BLACK
6
CONTINUOUS
10
4.26006
20
-2.59438
11
4.26107
21
-2.59384
0
LINE
8
BLACK
6
CONTINUOUS
10
4.26107
20
-2.59384
11
4.26215
21
-2.59351
0
LINE
8
BLACK
6
CONTINUOUS
10
4.26215
20
-2.59351
11
4.26329
21
-2.5934
0
LINE
8
BLACK
6
CONTINUOUS
10
4.26329
20
-2.5934
11
4.2749
21
-2.5934
0
LINE
8
BLACK
6
CONTINUOUS
10
4.2749
20
-2.5934
11
4.27603
21
-2.59351
0
LINE
8
BLACK
6
CONTINUOUS
10
4.58054
20
-2.59686
11
4.52346
21
-2.59686
0
LINE
8
BLACK
6
CONTINUOUS
10
4.52346
20
-2.59686
11
4.52346
21
-2.57914
0
LINE
8
BLACK
6
CONTINUOUS
10
4.52346
20
-2.57914
11
4.58054
21
-2.57914
0
LINE
8
BLACK
6
CONTINUOUS
10
4.58054
20
-2.57914
11
4.58054
21
-2.59686
0
LINE
8
BLACK
6
CONTINUOUS
10
4.34826
20
-2.59686
11
4.29117
21
-2.59686
0
LINE
8
BLACK
6
CONTINUOUS
10
4.29117
20
-2.59686
11
4.29117
21
-2.57914
0
LINE
8
BLACK
6
CONTINUOUS
10
4.29117
20
-2.57914
11
4.34826
21
-2.57914
0
LINE
8
BLACK
6
CONTINUOUS
10
4.34826
20
-2.57914
11
4.34826
21
-2.59686
0
LINE
8
BLACK
6
CONTINUOUS
10
4.58054
20
-2.57127
11
4.52346
21
-2.57127
0
LINE
8
BLACK
6
CONTINUOUS
10
4.52346
20
-2.57127
11
4.52346
21
-2.55355
0
LINE
8
BLACK
6
CONTINUOUS
10
4.52346
20
-2.55355
11
4.58054
21
-2.55355
0
LINE
8
BLACK
6
CONTINUOUS
10
4.58054
20
-2.55355
11
4.58054
21
-2.57127
0
LINE
8
BLACK
6
CONTINUOUS
10
4.34826
20
-2.57127
11
4.29117
21
-2.57127
0
LINE
8
BLACK
6
CONTINUOUS
10
4.29117
20
-2.57127
11
4.29117
21
-2.55355
0
LINE
8
BLACK
6
CONTINUOUS
10
4.29117
20
-2.55355
11
4.34826
21
-2.55355
0
LINE
8
BLACK
6
CONTINUOUS
10
4.34826
20
-2.55355
11
4.34826
21
-2.57127
0
LINE
8
BLACK
6
CONTINUOUS
10
4.58054
20
-2.54568
11
4.52346
21
-2.54568
0
LINE
8
BLACK
6
CONTINUOUS
10
4.52346
20
-2.54568
11
4.52346
21
-2.52796
0
LINE
8
BLACK
6
CONTINUOUS
10
4.52346
20
-2.52796
11
4.58054
21
-2.52796
0
LINE
8
BLACK
6
CONTINUOUS
10
4.58054
20
-2.52796
11
4.58054
21
-2.54568
0
LINE
8
BLACK
6
CONTINUOUS
10
4.34826
20
-2.54568
11
4.29117
21
-2.54568
0
LINE
8
BLACK
6
CONTINUOUS
10
4.29117
20
-2.54568
11
4.29117
21
-2.52796
0
LINE
8
BLACK
6
CONTINUOUS
10
4.29117
20
-2.52796
11
4.34826
21
-2.52796
0
LINE
8
BLACK
6
CONTINUOUS
10
4.34826
20
-2.52796
11
4.34826
21
-2.54568
0
LINE
8
BLACK
6
CONTINUOUS
10
4.58054
20
-2.52009
11
4.52346
21
-2.52009
0
LINE
8
BLACK
6
CONTINUOUS
10
4.52346
20
-2.52009
11
4.52346
21
-2.50237
0
LINE
8
BLACK
6
CONTINUOUS
10
4.52346
20
-2.50237
11
4.58054
21
-2.50237
0
LINE
8
BLACK
6
CONTINUOUS
10
4.58054
20
-2.50237
11
4.58054
21
-2.52009
0
LINE
8
BLACK
6
CONTINUOUS
10
4.34826
20
-2.52009
11
4.29117
21
-2.52009
0
LINE
8
BLACK
6
CONTINUOUS
10
4.29117
20
-2.52009
11
4.29117
21
-2.50237
0
LINE
8
BLACK
6
CONTINUOUS
10
4.29117
20
-2.50237
11
4.34826
21
-2.50237
0
LINE
8
BLACK
6
CONTINUOUS
10
4.34826
20
-2.50237
11
4.34826
21
-2.52009
  0
ENDSEC
  0
EOF
