  0
SECTION
  2
HEADER
  9
$ANGBASE
  50
0.0
  9
$ANGDIR
  70
1
  9
$MEASUREMENT
  70
0
  0
ENDSEC
  0
SECTION
  2
TABLES
  0
TABLE
  2
LTYPE
  70
4
  0
LTYPE
  5
40F
  2
CONTINUOUS
  70
0
  3
Solid line
  72
65
  73
0
  40
0.0
  0
LTYPE
  5
410
  2
DASHDOT
 70
0
  3
Dash Dot ____ _ ____ _
 72
65
 73
4
 40
2.0
 49
1.25
 49
-0.25
 49
0.25
 49
-0.25
  0
LTYPE
  5
411
  2
DASHED
 70
0
  3
Dashed __ __ __ __ __
 72
65
 73
2
 40
0.75
 49
0.5
 49
-0.25
  0
LTYPE
  5
43B
  2
DOTTED
 70
0
  3
Dotted .  .  .  .
 72
65
 73
2
 40
0.2
 49
0.0
 49
-0.2
  0
ENDTAB
  0
TABLE
  2
STYLE
  70
4
  0
STYLE
  2
KICAD
  70
0
  40
0
  41
1
  42
1
  50
0
  71
0
  3
isocp.shx
  0
STYLE
  2
KICADB
  70
0
  40
0
  41
1
  42
1
  50
0
  71
0
  3
isocp.shx
  0
STYLE
  2
KICADI
  70
0
  40
0
  41
1
  42
1
  50
15
  71
0
  3
isocp.shx
  0
STYLE
  2
KICADBI
  70
0
  40
0
  41
1
  42
1
  50
15
  71
0
  3
isocp.shx
  0
ENDTAB
  0
TABLE
  2
LAYER
  70
1
  0
LAYER
  2
BLACK
  70
0
  62
7
  6
CONTINUOUS
  0
ENDTAB
  0
ENDSEC
  0
SECTION
  2
ENTITIES
0
LINE
8
BLACK
6
CONTINUOUS
10
5.15009
20
-2.18203
11
5.1501
21
-2.18203
0
LINE
8
BLACK
6
CONTINUOUS
10
5.1501
20
-2.18203
11
5.15022
21
-2.18204
0
LINE
8
BLACK
6
CONTINUOUS
10
5.15022
20
-2.18204
11
5.15038
21
-2.18206
0
LINE
8
BLACK
6
CONTINUOUS
10
5.15038
20
-2.18206
11
5.15038
21
-2.18206
0
LINE
8
BLACK
6
CONTINUOUS
10
5.15038
20
-2.18206
11
5.15039
21
-2.18206
0
LINE
8
BLACK
6
CONTINUOUS
10
5.15039
20
-2.18206
11
5.15059
21
-2.18212
0
LINE
8
BLACK
6
CONTINUOUS
10
5.15059
20
-2.18212
11
5.15075
21
-2.18217
0
LINE
8
BLACK
6
CONTINUOUS
10
5.15075
20
-2.18217
11
5.15076
21
-2.18217
0
LINE
8
BLACK
6
CONTINUOUS
10
5.15076
20
-2.18217
11
5.15076
21
-2.18217
0
LINE
8
BLACK
6
CONTINUOUS
10
5.15076
20
-2.18217
11
5.15094
21
-2.18227
0
LINE
8
BLACK
6
CONTINUOUS
10
5.15094
20
-2.18227
11
5.1511
21
-2.18235
0
LINE
8
BLACK
6
CONTINUOUS
10
5.1511
20
-2.18235
11
5.1511
21
-2.18235
0
LINE
8
BLACK
6
CONTINUOUS
10
5.1511
20
-2.18235
11
5.1511
21
-2.18236
0
LINE
8
BLACK
6
CONTINUOUS
10
5.1511
20
-2.18236
11
5.15127
21
-2.18249
0
LINE
8
BLACK
6
CONTINUOUS
10
5.15127
20
-2.18249
11
5.1514
21
-2.1826
0
LINE
8
BLACK
6
CONTINUOUS
10
5.1514
20
-2.1826
11
5.1514
21
-2.1826
0
LINE
8
BLACK
6
CONTINUOUS
10
5.1514
20
-2.1826
11
5.1514
21
-2.1826
0
LINE
8
BLACK
6
CONTINUOUS
10
5.1514
20
-2.1826
11
5.15153
21
-2.18276
0
LINE
8
BLACK
6
CONTINUOUS
10
5.15153
20
-2.18276
11
5.15164
21
-2.1829
0
LINE
8
BLACK
6
CONTINUOUS
10
5.15164
20
-2.1829
11
5.15164
21
-2.1829
0
LINE
8
BLACK
6
CONTINUOUS
10
5.15164
20
-2.1829
11
5.15164
21
-2.1829
0
LINE
8
BLACK
6
CONTINUOUS
10
5.15164
20
-2.1829
11
5.15175
21
-2.1831
0
LINE
8
BLACK
6
CONTINUOUS
10
5.15175
20
-2.1831
11
5.15183
21
-2.18324
0
LINE
8
BLACK
6
CONTINUOUS
10
5.15183
20
-2.18324
11
5.15183
21
-2.18324
0
LINE
8
BLACK
6
CONTINUOUS
10
5.15183
20
-2.18324
11
5.15183
21
-2.18324
0
LINE
8
BLACK
6
CONTINUOUS
10
5.15183
20
-2.18324
11
5.15189
21
-2.18345
0
LINE
8
BLACK
6
CONTINUOUS
10
5.15189
20
-2.18345
11
5.15194
21
-2.18361
0
LINE
8
BLACK
6
CONTINUOUS
10
5.15194
20
-2.18361
11
5.15194
21
-2.18361
0
LINE
8
BLACK
6
CONTINUOUS
10
5.15194
20
-2.18361
11
5.15194
21
-2.18361
0
LINE
8
BLACK
6
CONTINUOUS
10
5.15194
20
-2.18361
11
5.15196
21
-2.18381
0
LINE
8
BLACK
6
CONTINUOUS
10
5.15196
20
-2.18381
11
5.15197
21
-2.1839
0
LINE
8
BLACK
6
CONTINUOUS
10
5.15197
20
-2.1839
11
5.15197
21
-2.1839
0
LINE
8
BLACK
6
CONTINUOUS
10
5.15197
20
-2.1839
11
5.15198
21
-2.184
0
LINE
8
BLACK
6
CONTINUOUS
10
5.15198
20
-2.184
11
5.15197
21
-2.1841
0
LINE
8
BLACK
6
CONTINUOUS
10
5.15197
20
-2.1841
11
5.15297
21
-3.01509
0
LINE
8
BLACK
6
CONTINUOUS
10
5.15297
20
-3.01509
11
5.15294
21
-3.01538
0
LINE
8
BLACK
6
CONTINUOUS
10
5.15294
20
-3.01538
11
5.15283
21
-3.01575
0
LINE
8
BLACK
6
CONTINUOUS
10
5.15283
20
-3.01575
11
5.15265
21
-3.0161
0
LINE
8
BLACK
6
CONTINUOUS
10
5.15265
20
-3.0161
11
5.1524
21
-3.0164
0
LINE
8
BLACK
6
CONTINUOUS
10
5.1524
20
-3.0164
11
5.1521
21
-3.01664
0
LINE
8
BLACK
6
CONTINUOUS
10
5.1521
20
-3.01664
11
5.15176
21
-3.01683
0
LINE
8
BLACK
6
CONTINUOUS
10
5.15176
20
-3.01683
11
5.15139
21
-3.01694
0
LINE
8
BLACK
6
CONTINUOUS
10
5.15139
20
-3.01694
11
5.15134
21
-3.01694
0
LINE
8
BLACK
6
CONTINUOUS
10
5.15134
20
-3.01694
11
5.1511
21
-3.01714
0
LINE
8
BLACK
6
CONTINUOUS
10
5.1511
20
-3.01714
11
5.15076
21
-3.01733
0
LINE
8
BLACK
6
CONTINUOUS
10
5.15076
20
-3.01733
11
5.15039
21
-3.01744
0
LINE
8
BLACK
6
CONTINUOUS
10
5.15039
20
-3.01744
11
5.1501
21
-3.01747
0
LINE
8
BLACK
6
CONTINUOUS
10
5.1501
20
-3.01747
11
3.7511
21
-3.01747
0
LINE
8
BLACK
6
CONTINUOUS
10
3.7511
20
-3.01747
11
3.751
21
-3.01748
0
LINE
8
BLACK
6
CONTINUOUS
10
3.751
20
-3.01748
11
3.75091
21
-3.01747
0
LINE
8
BLACK
6
CONTINUOUS
10
3.75091
20
-3.01747
11
3.7499
21
-3.01747
0
LINE
8
BLACK
6
CONTINUOUS
10
3.7499
20
-3.01747
11
3.74961
21
-3.01744
0
LINE
8
BLACK
6
CONTINUOUS
10
3.74961
20
-3.01744
11
3.74924
21
-3.01733
0
LINE
8
BLACK
6
CONTINUOUS
10
3.74924
20
-3.01733
11
3.7489
21
-3.01714
0
LINE
8
BLACK
6
CONTINUOUS
10
3.7489
20
-3.01714
11
3.7486
21
-3.0169
0
LINE
8
BLACK
6
CONTINUOUS
10
3.7486
20
-3.0169
11
3.74836
21
-3.0166
0
LINE
8
BLACK
6
CONTINUOUS
10
3.74836
20
-3.0166
11
3.74817
21
-3.01626
0
LINE
8
BLACK
6
CONTINUOUS
10
3.74817
20
-3.01626
11
3.74806
21
-3.01589
0
LINE
8
BLACK
6
CONTINUOUS
10
3.74806
20
-3.01589
11
3.74802
21
-3.0155
0
LINE
8
BLACK
6
CONTINUOUS
10
3.74802
20
-3.0155
11
3.74806
21
-3.01511
0
LINE
8
BLACK
6
CONTINUOUS
10
3.74806
20
-3.01511
11
3.74817
21
-3.01474
0
LINE
8
BLACK
6
CONTINUOUS
10
3.74817
20
-3.01474
11
3.74836
21
-3.0144
0
LINE
8
BLACK
6
CONTINUOUS
10
3.74836
20
-3.0144
11
3.7486
21
-3.0141
0
LINE
8
BLACK
6
CONTINUOUS
10
3.7486
20
-3.0141
11
3.7489
21
-3.01386
0
LINE
8
BLACK
6
CONTINUOUS
10
3.7489
20
-3.01386
11
3.74903
21
-3.01379
0
LINE
8
BLACK
6
CONTINUOUS
10
3.74903
20
-3.01379
11
3.74803
21
-2.1841
0
LINE
8
BLACK
6
CONTINUOUS
10
3.74803
20
-2.1841
11
3.74802
21
-2.184
0
LINE
8
BLACK
6
CONTINUOUS
10
3.74802
20
-2.184
11
3.74804
21
-2.18378
0
LINE
8
BLACK
6
CONTINUOUS
10
3.74804
20
-2.18378
11
3.74806
21
-2.18362
0
LINE
8
BLACK
6
CONTINUOUS
10
3.74806
20
-2.18362
11
3.74806
21
-2.18362
0
LINE
8
BLACK
6
CONTINUOUS
10
3.74806
20
-2.18362
11
3.74806
21
-2.18361
0
LINE
8
BLACK
6
CONTINUOUS
10
3.74806
20
-2.18361
11
3.74812
21
-2.18341
0
LINE
8
BLACK
6
CONTINUOUS
10
3.74812
20
-2.18341
11
3.74817
21
-2.18325
0
LINE
8
BLACK
6
CONTINUOUS
10
3.74817
20
-2.18325
11
3.74817
21
-2.18324
0
LINE
8
BLACK
6
CONTINUOUS
10
3.74817
20
-2.18324
11
3.74817
21
-2.18324
0
LINE
8
BLACK
6
CONTINUOUS
10
3.74817
20
-2.18324
11
3.74827
21
-2.18306
0
LINE
8
BLACK
6
CONTINUOUS
10
3.74827
20
-2.18306
11
3.74835
21
-2.1829
0
LINE
8
BLACK
6
CONTINUOUS
10
3.74835
20
-2.1829
11
3.74835
21
-2.1829
0
LINE
8
BLACK
6
CONTINUOUS
10
3.74835
20
-2.1829
11
3.74836
21
-2.1829
0
LINE
8
BLACK
6
CONTINUOUS
10
3.74836
20
-2.1829
11
3.74849
21
-2.18273
0
LINE
8
BLACK
6
CONTINUOUS
10
3.74849
20
-2.18273
11
3.7486
21
-2.1826
0
LINE
8
BLACK
6
CONTINUOUS
10
3.7486
20
-2.1826
11
3.7486
21
-2.1826
0
LINE
8
BLACK
6
CONTINUOUS
10
3.7486
20
-2.1826
11
3.7486
21
-2.1826
0
LINE
8
BLACK
6
CONTINUOUS
10
3.7486
20
-2.1826
11
3.74876
21
-2.18247
0
LINE
8
BLACK
6
CONTINUOUS
10
3.74876
20
-2.18247
11
3.7489
21
-2.18236
0
LINE
8
BLACK
6
CONTINUOUS
10
3.7489
20
-2.18236
11
3.7489
21
-2.18236
0
LINE
8
BLACK
6
CONTINUOUS
10
3.7489
20
-2.18236
11
3.7489
21
-2.18236
0
LINE
8
BLACK
6
CONTINUOUS
10
3.7489
20
-2.18236
11
3.7491
21
-2.18225
0
LINE
8
BLACK
6
CONTINUOUS
10
3.7491
20
-2.18225
11
3.74924
21
-2.18217
0
LINE
8
BLACK
6
CONTINUOUS
10
3.74924
20
-2.18217
11
3.74924
21
-2.18217
0
LINE
8
BLACK
6
CONTINUOUS
10
3.74924
20
-2.18217
11
3.74924
21
-2.18217
0
LINE
8
BLACK
6
CONTINUOUS
10
3.74924
20
-2.18217
11
3.74945
21
-2.18211
0
LINE
8
BLACK
6
CONTINUOUS
10
3.74945
20
-2.18211
11
3.74961
21
-2.18206
0
LINE
8
BLACK
6
CONTINUOUS
10
3.74961
20
-2.18206
11
3.74961
21
-2.18206
0
LINE
8
BLACK
6
CONTINUOUS
10
3.74961
20
-2.18206
11
3.74961
21
-2.18206
0
LINE
8
BLACK
6
CONTINUOUS
10
3.74961
20
-2.18206
11
3.74983
21
-2.18204
0
LINE
8
BLACK
6
CONTINUOUS
10
3.74983
20
-2.18204
11
3.75
21
-2.18202
0
LINE
8
BLACK
6
CONTINUOUS
10
3.75
20
-2.18202
11
3.75009
21
-2.18203
0
LINE
8
BLACK
6
CONTINUOUS
10
3.75009
20
-2.18203
11
5.1499
21
-2.18203
0
LINE
8
BLACK
6
CONTINUOUS
10
5.1499
20
-2.18203
11
5.15
21
-2.18202
0
LINE
8
BLACK
6
CONTINUOUS
10
5.15
20
-2.18202
11
5.15009
21
-2.18203
0
LINE
8
BLACK
6
CONTINUOUS
10
3.75197
20
-2.18597
11
3.75297
21
-3.01353
0
LINE
8
BLACK
6
CONTINUOUS
10
3.75297
20
-3.01353
11
5.14903
21
-3.01353
0
LINE
8
BLACK
6
CONTINUOUS
10
5.14903
20
-3.01353
11
5.14803
21
-2.18597
0
LINE
8
BLACK
6
CONTINUOUS
10
5.14803
20
-2.18597
11
3.75197
21
-2.18597
  0
ENDSEC
  0
EOF
