  0
SECTION
  2
HEADER
  9
$ANGBASE
  50
0.0
  9
$ANGDIR
  70
1
  9
$MEASUREMENT
  70
0
  0
ENDSEC
  0
SECTION
  2
TABLES
  0
TABLE
  2
LTYPE
  70
4
  0
LTYPE
  5
40F
  2
CONTINUOUS
  70
0
  3
Solid line
  72
65
  73
0
  40
0.0
  0
LTYPE
  5
410
  2
DASHDOT
 70
0
  3
Dash Dot ____ _ ____ _
 72
65
 73
4
 40
2.0
 49
1.25
 49
-0.25
 49
0.25
 49
-0.25
  0
LTYPE
  5
411
  2
DASHED
 70
0
  3
Dashed __ __ __ __ __
 72
65
 73
2
 40
0.75
 49
0.5
 49
-0.25
  0
LTYPE
  5
43B
  2
DOTTED
 70
0
  3
Dotted .  .  .  .
 72
65
 73
2
 40
0.2
 49
0.0
 49
-0.2
  0
ENDTAB
  0
TABLE
  2
STYLE
  70
4
  0
STYLE
  2
KICAD
  70
0
  40
0
  41
1
  42
1
  50
0
  71
0
  3
isocp.shx
  0
STYLE
  2
KICADB
  70
0
  40
0
  41
1
  42
1
  50
0
  71
0
  3
isocp.shx
  0
STYLE
  2
KICADI
  70
0
  40
0
  41
1
  42
1
  50
15
  71
0
  3
isocp.shx
  0
STYLE
  2
KICADBI
  70
0
  40
0
  41
1
  42
1
  50
15
  71
0
  3
isocp.shx
  0
ENDTAB
  0
TABLE
  2
LAYER
  70
1
  0
LAYER
  2
BLACK
  70
0
  62
7
  6
CONTINUOUS
  0
ENDTAB
  0
ENDSEC
  0
SECTION
  2
ENTITIES
0
LINE
8
BLACK
6
CONTINUOUS
10
4.52797
20
-2.67958
11
4.52853
21
-2.67975
0
LINE
8
BLACK
6
CONTINUOUS
10
4.52853
20
-2.67975
11
4.52904
21
-2.68002
0
LINE
8
BLACK
6
CONTINUOUS
10
4.52904
20
-2.68002
11
4.52949
21
-2.68039
0
LINE
8
BLACK
6
CONTINUOUS
10
4.52949
20
-2.68039
11
4.52986
21
-2.68084
0
LINE
8
BLACK
6
CONTINUOUS
10
4.52986
20
-2.68084
11
4.53013
21
-2.68135
0
LINE
8
BLACK
6
CONTINUOUS
10
4.53013
20
-2.68135
11
4.5303
21
-2.68191
0
LINE
8
BLACK
6
CONTINUOUS
10
4.5303
20
-2.68191
11
4.53035
21
-2.68234
0
LINE
8
BLACK
6
CONTINUOUS
10
4.53035
20
-2.68234
11
4.53035
21
-2.6912
0
LINE
8
BLACK
6
CONTINUOUS
10
4.53035
20
-2.6912
11
4.53036
21
-2.69135
0
LINE
8
BLACK
6
CONTINUOUS
10
4.53036
20
-2.69135
11
4.5303
21
-2.69193
0
LINE
8
BLACK
6
CONTINUOUS
10
4.5303
20
-2.69193
11
4.53013
21
-2.69248
0
LINE
8
BLACK
6
CONTINUOUS
10
4.53013
20
-2.69248
11
4.52986
21
-2.69299
0
LINE
8
BLACK
6
CONTINUOUS
10
4.52986
20
-2.69299
11
4.52949
21
-2.69344
0
LINE
8
BLACK
6
CONTINUOUS
10
4.52949
20
-2.69344
11
4.52904
21
-2.69381
0
LINE
8
BLACK
6
CONTINUOUS
10
4.52904
20
-2.69381
11
4.52853
21
-2.69409
0
LINE
8
BLACK
6
CONTINUOUS
10
4.52853
20
-2.69409
11
4.52797
21
-2.69426
0
LINE
8
BLACK
6
CONTINUOUS
10
4.52797
20
-2.69426
11
4.52754
21
-2.6943
0
LINE
8
BLACK
6
CONTINUOUS
10
4.52754
20
-2.6943
11
4.52739
21
-2.69431
0
LINE
8
BLACK
6
CONTINUOUS
10
4.52739
20
-2.69431
11
4.52725
21
-2.6943
0
LINE
8
BLACK
6
CONTINUOUS
10
4.52725
20
-2.6943
11
4.34447
21
-2.6943
0
LINE
8
BLACK
6
CONTINUOUS
10
4.34447
20
-2.6943
11
4.34432
21
-2.69431
0
LINE
8
BLACK
6
CONTINUOUS
10
4.34432
20
-2.69431
11
4.34374
21
-2.69426
0
LINE
8
BLACK
6
CONTINUOUS
10
4.34374
20
-2.69426
11
4.34319
21
-2.69409
0
LINE
8
BLACK
6
CONTINUOUS
10
4.34319
20
-2.69409
11
4.34267
21
-2.69381
0
LINE
8
BLACK
6
CONTINUOUS
10
4.34267
20
-2.69381
11
4.34222
21
-2.69344
0
LINE
8
BLACK
6
CONTINUOUS
10
4.34222
20
-2.69344
11
4.34186
21
-2.69299
0
LINE
8
BLACK
6
CONTINUOUS
10
4.34186
20
-2.69299
11
4.34158
21
-2.69248
0
LINE
8
BLACK
6
CONTINUOUS
10
4.34158
20
-2.69248
11
4.34141
21
-2.69193
0
LINE
8
BLACK
6
CONTINUOUS
10
4.34141
20
-2.69193
11
4.34136
21
-2.69135
0
LINE
8
BLACK
6
CONTINUOUS
10
4.34136
20
-2.69135
11
4.34137
21
-2.6912
0
LINE
8
BLACK
6
CONTINUOUS
10
4.34137
20
-2.6912
11
4.34137
21
-2.68234
0
LINE
8
BLACK
6
CONTINUOUS
10
4.34137
20
-2.68234
11
4.34141
21
-2.68191
0
LINE
8
BLACK
6
CONTINUOUS
10
4.34141
20
-2.68191
11
4.34158
21
-2.68135
0
LINE
8
BLACK
6
CONTINUOUS
10
4.34158
20
-2.68135
11
4.34186
21
-2.68084
0
LINE
8
BLACK
6
CONTINUOUS
10
4.34186
20
-2.68084
11
4.34222
21
-2.68039
0
LINE
8
BLACK
6
CONTINUOUS
10
4.34222
20
-2.68039
11
4.34267
21
-2.68002
0
LINE
8
BLACK
6
CONTINUOUS
10
4.34267
20
-2.68002
11
4.34319
21
-2.67975
0
LINE
8
BLACK
6
CONTINUOUS
10
4.34319
20
-2.67975
11
4.34374
21
-2.67958
0
LINE
8
BLACK
6
CONTINUOUS
10
4.34374
20
-2.67958
11
4.34432
21
-2.67952
0
LINE
8
BLACK
6
CONTINUOUS
10
4.34432
20
-2.67952
11
4.3449
21
-2.67958
0
LINE
8
BLACK
6
CONTINUOUS
10
4.3449
20
-2.67958
11
4.34546
21
-2.67975
0
LINE
8
BLACK
6
CONTINUOUS
10
4.34546
20
-2.67975
11
4.34597
21
-2.68002
0
LINE
8
BLACK
6
CONTINUOUS
10
4.34597
20
-2.68002
11
4.34642
21
-2.68039
0
LINE
8
BLACK
6
CONTINUOUS
10
4.34642
20
-2.68039
11
4.34679
21
-2.68084
0
LINE
8
BLACK
6
CONTINUOUS
10
4.34679
20
-2.68084
11
4.34706
21
-2.68135
0
LINE
8
BLACK
6
CONTINUOUS
10
4.34706
20
-2.68135
11
4.34723
21
-2.68191
0
LINE
8
BLACK
6
CONTINUOUS
10
4.34723
20
-2.68191
11
4.34728
21
-2.68234
0
LINE
8
BLACK
6
CONTINUOUS
10
4.34728
20
-2.68234
11
4.34728
21
-2.68839
0
LINE
8
BLACK
6
CONTINUOUS
10
4.34728
20
-2.68839
11
4.52444
21
-2.68839
0
LINE
8
BLACK
6
CONTINUOUS
10
4.52444
20
-2.68839
11
4.52444
21
-2.68234
0
LINE
8
BLACK
6
CONTINUOUS
10
4.52444
20
-2.68234
11
4.52448
21
-2.68191
0
LINE
8
BLACK
6
CONTINUOUS
10
4.52448
20
-2.68191
11
4.52465
21
-2.68135
0
LINE
8
BLACK
6
CONTINUOUS
10
4.52465
20
-2.68135
11
4.52493
21
-2.68084
0
LINE
8
BLACK
6
CONTINUOUS
10
4.52493
20
-2.68084
11
4.5253
21
-2.68039
0
LINE
8
BLACK
6
CONTINUOUS
10
4.5253
20
-2.68039
11
4.52575
21
-2.68002
0
LINE
8
BLACK
6
CONTINUOUS
10
4.52575
20
-2.68002
11
4.52626
21
-2.67975
0
LINE
8
BLACK
6
CONTINUOUS
10
4.52626
20
-2.67975
11
4.52681
21
-2.67958
0
LINE
8
BLACK
6
CONTINUOUS
10
4.52681
20
-2.67958
11
4.52739
21
-2.67952
0
LINE
8
BLACK
6
CONTINUOUS
10
4.52739
20
-2.67952
11
4.52797
21
-2.67958
0
LINE
8
BLACK
6
CONTINUOUS
10
4.25892
20
-2.54798
11
4.25899
21
-2.54798
0
LINE
8
BLACK
6
CONTINUOUS
10
4.25899
20
-2.54798
11
4.25905
21
-2.54799
0
LINE
8
BLACK
6
CONTINUOUS
10
4.25905
20
-2.54799
11
4.2591
21
-2.548
0
LINE
8
BLACK
6
CONTINUOUS
10
4.2591
20
-2.548
11
4.25915
21
-2.548
0
LINE
8
BLACK
6
CONTINUOUS
10
4.25915
20
-2.548
11
4.25921
21
-2.54802
0
LINE
8
BLACK
6
CONTINUOUS
10
4.25921
20
-2.54802
11
4.25928
21
-2.54804
0
LINE
8
BLACK
6
CONTINUOUS
10
4.25928
20
-2.54804
11
4.26209
21
-2.54897
0
LINE
8
BLACK
6
CONTINUOUS
10
4.26209
20
-2.54897
11
4.26211
21
-2.54898
0
LINE
8
BLACK
6
CONTINUOUS
10
4.26211
20
-2.54898
11
4.26214
21
-2.54899
0
LINE
8
BLACK
6
CONTINUOUS
10
4.26214
20
-2.54899
11
4.26217
21
-2.549
0
LINE
8
BLACK
6
CONTINUOUS
10
4.26217
20
-2.549
11
4.26224
21
-2.54904
0
LINE
8
BLACK
6
CONTINUOUS
10
4.26224
20
-2.54904
11
4.26232
21
-2.54908
0
LINE
8
BLACK
6
CONTINUOUS
10
4.26232
20
-2.54908
11
4.26234
21
-2.5491
0
LINE
8
BLACK
6
CONTINUOUS
10
4.26234
20
-2.5491
11
4.26237
21
-2.54911
0
LINE
8
BLACK
6
CONTINUOUS
10
4.26237
20
-2.54911
11
4.26244
21
-2.54916
0
LINE
8
BLACK
6
CONTINUOUS
10
4.26244
20
-2.54916
11
4.2625
21
-2.54921
0
LINE
8
BLACK
6
CONTINUOUS
10
4.2625
20
-2.54921
11
4.26253
21
-2.54924
0
LINE
8
BLACK
6
CONTINUOUS
10
4.26253
20
-2.54924
11
4.26255
21
-2.54926
0
LINE
8
BLACK
6
CONTINUOUS
10
4.26255
20
-2.54926
11
4.26443
21
-2.55113
0
LINE
8
BLACK
6
CONTINUOUS
10
4.26443
20
-2.55113
11
4.26444
21
-2.55115
0
LINE
8
BLACK
6
CONTINUOUS
10
4.26444
20
-2.55115
11
4.26448
21
-2.5512
0
LINE
8
BLACK
6
CONTINUOUS
10
4.26448
20
-2.5512
11
4.26453
21
-2.55125
0
LINE
8
BLACK
6
CONTINUOUS
10
4.26453
20
-2.55125
11
4.26455
21
-2.55129
0
LINE
8
BLACK
6
CONTINUOUS
10
4.26455
20
-2.55129
11
4.26458
21
-2.55133
0
LINE
8
BLACK
6
CONTINUOUS
10
4.26458
20
-2.55133
11
4.26461
21
-2.55138
0
LINE
8
BLACK
6
CONTINUOUS
10
4.26461
20
-2.55138
11
4.26465
21
-2.55144
0
LINE
8
BLACK
6
CONTINUOUS
10
4.26465
20
-2.55144
11
4.26559
21
-2.55332
0
LINE
8
BLACK
6
CONTINUOUS
10
4.26559
20
-2.55332
11
4.26559
21
-2.55333
0
LINE
8
BLACK
6
CONTINUOUS
10
4.26559
20
-2.55333
11
4.26559
21
-2.55334
0
LINE
8
BLACK
6
CONTINUOUS
10
4.26559
20
-2.55334
11
4.2656
21
-2.55334
0
LINE
8
BLACK
6
CONTINUOUS
10
4.2656
20
-2.55334
11
4.26564
21
-2.55345
0
LINE
8
BLACK
6
CONTINUOUS
10
4.26564
20
-2.55345
11
4.26567
21
-2.55355
0
LINE
8
BLACK
6
CONTINUOUS
10
4.26567
20
-2.55355
11
4.26567
21
-2.55355
0
LINE
8
BLACK
6
CONTINUOUS
10
4.26567
20
-2.55355
11
4.26568
21
-2.55356
0
LINE
8
BLACK
6
CONTINUOUS
10
4.26568
20
-2.55356
11
4.26661
21
-2.55731
0
LINE
8
BLACK
6
CONTINUOUS
10
4.26661
20
-2.55731
11
4.26662
21
-2.55732
0
LINE
8
BLACK
6
CONTINUOUS
10
4.26662
20
-2.55732
11
4.26662
21
-2.55734
0
LINE
8
BLACK
6
CONTINUOUS
10
4.26662
20
-2.55734
11
4.26663
21
-2.55736
0
LINE
8
BLACK
6
CONTINUOUS
10
4.26663
20
-2.55736
11
4.26663
21
-2.55746
0
LINE
8
BLACK
6
CONTINUOUS
10
4.26663
20
-2.55746
11
4.26665
21
-2.55755
0
LINE
8
BLACK
6
CONTINUOUS
10
4.26665
20
-2.55755
11
4.26665
21
-2.55757
0
LINE
8
BLACK
6
CONTINUOUS
10
4.26665
20
-2.55757
11
4.26665
21
-2.55759
0
LINE
8
BLACK
6
CONTINUOUS
10
4.26665
20
-2.55759
11
4.26665
21
-2.56041
0
LINE
8
BLACK
6
CONTINUOUS
10
4.26665
20
-2.56041
11
4.26665
21
-2.56042
0
LINE
8
BLACK
6
CONTINUOUS
10
4.26665
20
-2.56042
11
4.26665
21
-2.56044
0
LINE
8
BLACK
6
CONTINUOUS
10
4.26665
20
-2.56044
11
4.26665
21
-2.56046
0
LINE
8
BLACK
6
CONTINUOUS
10
4.26665
20
-2.56046
11
4.26663
21
-2.56056
0
LINE
8
BLACK
6
CONTINUOUS
10
4.26663
20
-2.56056
11
4.26662
21
-2.56065
0
LINE
8
BLACK
6
CONTINUOUS
10
4.26662
20
-2.56065
11
4.26662
21
-2.56067
0
LINE
8
BLACK
6
CONTINUOUS
10
4.26662
20
-2.56067
11
4.26661
21
-2.56069
0
LINE
8
BLACK
6
CONTINUOUS
10
4.26661
20
-2.56069
11
4.26568
21
-2.56444
0
LINE
8
BLACK
6
CONTINUOUS
10
4.26568
20
-2.56444
11
4.26567
21
-2.56446
0
LINE
8
BLACK
6
CONTINUOUS
10
4.26567
20
-2.56446
11
4.26567
21
-2.56446
0
LINE
8
BLACK
6
CONTINUOUS
10
4.26567
20
-2.56446
11
4.26567
21
-2.56447
0
LINE
8
BLACK
6
CONTINUOUS
10
4.26567
20
-2.56447
11
4.26563
21
-2.56457
0
LINE
8
BLACK
6
CONTINUOUS
10
4.26563
20
-2.56457
11
4.26559
21
-2.56467
0
LINE
8
BLACK
6
CONTINUOUS
10
4.26559
20
-2.56467
11
4.26559
21
-2.56468
0
LINE
8
BLACK
6
CONTINUOUS
10
4.26559
20
-2.56468
11
4.26559
21
-2.56468
0
LINE
8
BLACK
6
CONTINUOUS
10
4.26559
20
-2.56468
11
4.26465
21
-2.56656
0
LINE
8
BLACK
6
CONTINUOUS
10
4.26465
20
-2.56656
11
4.26464
21
-2.56657
0
LINE
8
BLACK
6
CONTINUOUS
10
4.26464
20
-2.56657
11
4.2646
21
-2.56663
0
LINE
8
BLACK
6
CONTINUOUS
10
4.2646
20
-2.56663
11
4.26457
21
-2.56669
0
LINE
8
BLACK
6
CONTINUOUS
10
4.26457
20
-2.56669
11
4.26454
21
-2.56673
0
LINE
8
BLACK
6
CONTINUOUS
10
4.26454
20
-2.56673
11
4.26452
21
-2.56677
0
LINE
8
BLACK
6
CONTINUOUS
10
4.26452
20
-2.56677
11
4.26447
21
-2.56681
0
LINE
8
BLACK
6
CONTINUOUS
10
4.26447
20
-2.56681
11
4.26443
21
-2.56687
0
LINE
8
BLACK
6
CONTINUOUS
10
4.26443
20
-2.56687
11
4.26255
21
-2.56874
0
LINE
8
BLACK
6
CONTINUOUS
10
4.26255
20
-2.56874
11
4.26254
21
-2.56875
0
LINE
8
BLACK
6
CONTINUOUS
10
4.26254
20
-2.56875
11
4.26251
21
-2.56877
0
LINE
8
BLACK
6
CONTINUOUS
10
4.26251
20
-2.56877
11
4.26249
21
-2.5688
0
LINE
8
BLACK
6
CONTINUOUS
10
4.26249
20
-2.5688
11
4.26242
21
-2.56884
0
LINE
8
BLACK
6
CONTINUOUS
10
4.26242
20
-2.56884
11
4.26236
21
-2.5689
0
LINE
8
BLACK
6
CONTINUOUS
10
4.26236
20
-2.5689
11
4.26233
21
-2.56891
0
LINE
8
BLACK
6
CONTINUOUS
10
4.26233
20
-2.56891
11
4.2623
21
-2.56893
0
LINE
8
BLACK
6
CONTINUOUS
10
4.2623
20
-2.56893
11
4.26223
21
-2.56896
0
LINE
8
BLACK
6
CONTINUOUS
10
4.26223
20
-2.56896
11
4.26216
21
-2.569
0
LINE
8
BLACK
6
CONTINUOUS
10
4.26216
20
-2.569
11
4.26212
21
-2.56901
0
LINE
8
BLACK
6
CONTINUOUS
10
4.26212
20
-2.56901
11
4.26209
21
-2.56903
0
LINE
8
BLACK
6
CONTINUOUS
10
4.26209
20
-2.56903
11
4.25928
21
-2.56996
0
LINE
8
BLACK
6
CONTINUOUS
10
4.25928
20
-2.56996
11
4.25926
21
-2.56997
0
LINE
8
BLACK
6
CONTINUOUS
10
4.25926
20
-2.56997
11
4.2592
21
-2.56998
0
LINE
8
BLACK
6
CONTINUOUS
10
4.2592
20
-2.56998
11
4.25913
21
-2.57
0
LINE
8
BLACK
6
CONTINUOUS
10
4.25913
20
-2.57
11
4.25909
21
-2.57001
0
LINE
8
BLACK
6
CONTINUOUS
10
4.25909
20
-2.57001
11
4.25904
21
-2.57002
0
LINE
8
BLACK
6
CONTINUOUS
10
4.25904
20
-2.57002
11
4.25897
21
-2.57002
0
LINE
8
BLACK
6
CONTINUOUS
10
4.25897
20
-2.57002
11
4.25891
21
-2.57002
0
LINE
8
BLACK
6
CONTINUOUS
10
4.25891
20
-2.57002
11
4.25703
21
-2.57002
0
LINE
8
BLACK
6
CONTINUOUS
10
4.25703
20
-2.57002
11
4.25701
21
-2.57002
0
LINE
8
BLACK
6
CONTINUOUS
10
4.25701
20
-2.57002
11
4.25695
21
-2.57002
0
LINE
8
BLACK
6
CONTINUOUS
10
4.25695
20
-2.57002
11
4.25688
21
-2.57001
0
LINE
8
BLACK
6
CONTINUOUS
10
4.25688
20
-2.57001
11
4.25683
21
-2.57
0
LINE
8
BLACK
6
CONTINUOUS
10
4.25683
20
-2.57
11
4.25678
21
-2.57
0
LINE
8
BLACK
6
CONTINUOUS
10
4.25678
20
-2.57
11
4.25672
21
-2.56998
0
LINE
8
BLACK
6
CONTINUOUS
10
4.25672
20
-2.56998
11
4.25666
21
-2.56996
0
LINE
8
BLACK
6
CONTINUOUS
10
4.25666
20
-2.56996
11
4.25384
21
-2.56903
0
LINE
8
BLACK
6
CONTINUOUS
10
4.25384
20
-2.56903
11
4.25383
21
-2.56902
0
LINE
8
BLACK
6
CONTINUOUS
10
4.25383
20
-2.56902
11
4.2538
21
-2.56901
0
LINE
8
BLACK
6
CONTINUOUS
10
4.2538
20
-2.56901
11
4.25376
21
-2.569
0
LINE
8
BLACK
6
CONTINUOUS
10
4.25376
20
-2.569
11
4.25369
21
-2.56896
0
LINE
8
BLACK
6
CONTINUOUS
10
4.25369
20
-2.56896
11
4.25362
21
-2.56892
0
LINE
8
BLACK
6
CONTINUOUS
10
4.25362
20
-2.56892
11
4.25359
21
-2.5689
0
LINE
8
BLACK
6
CONTINUOUS
10
4.25359
20
-2.5689
11
4.25356
21
-2.56889
0
LINE
8
BLACK
6
CONTINUOUS
10
4.25356
20
-2.56889
11
4.2535
21
-2.56883
0
LINE
8
BLACK
6
CONTINUOUS
10
4.2535
20
-2.56883
11
4.25343
21
-2.56879
0
LINE
8
BLACK
6
CONTINUOUS
10
4.25343
20
-2.56879
11
4.25341
21
-2.56876
0
LINE
8
BLACK
6
CONTINUOUS
10
4.25341
20
-2.56876
11
4.25338
21
-2.56874
0
LINE
8
BLACK
6
CONTINUOUS
10
4.25338
20
-2.56874
11
4.25245
21
-2.5678
0
LINE
8
BLACK
6
CONTINUOUS
10
4.25245
20
-2.5678
11
4.25243
21
-2.56779
0
LINE
8
BLACK
6
CONTINUOUS
10
4.25243
20
-2.56779
11
4.25229
21
-2.56761
0
LINE
8
BLACK
6
CONTINUOUS
10
4.25229
20
-2.56761
11
4.25218
21
-2.56741
0
LINE
8
BLACK
6
CONTINUOUS
10
4.25218
20
-2.56741
11
4.25212
21
-2.56718
0
LINE
8
BLACK
6
CONTINUOUS
10
4.25212
20
-2.56718
11
4.2521
21
-2.56696
0
LINE
8
BLACK
6
CONTINUOUS
10
4.2521
20
-2.56696
11
4.25212
21
-2.56673
0
LINE
8
BLACK
6
CONTINUOUS
10
4.25212
20
-2.56673
11
4.25219
21
-2.56651
0
LINE
8
BLACK
6
CONTINUOUS
10
4.25219
20
-2.56651
11
4.2523
21
-2.5663
0
LINE
8
BLACK
6
CONTINUOUS
10
4.2523
20
-2.5663
11
4.25245
21
-2.56613
0
LINE
8
BLACK
6
CONTINUOUS
10
4.25245
20
-2.56613
11
4.25263
21
-2.56598
0
LINE
8
BLACK
6
CONTINUOUS
10
4.25263
20
-2.56598
11
4.25283
21
-2.56587
0
LINE
8
BLACK
6
CONTINUOUS
10
4.25283
20
-2.56587
11
4.25306
21
-2.56581
0
LINE
8
BLACK
6
CONTINUOUS
10
4.25306
20
-2.56581
11
4.25328
21
-2.56579
0
LINE
8
BLACK
6
CONTINUOUS
10
4.25328
20
-2.56579
11
4.25351
21
-2.56581
0
LINE
8
BLACK
6
CONTINUOUS
10
4.25351
20
-2.56581
11
4.25373
21
-2.56588
0
LINE
8
BLACK
6
CONTINUOUS
10
4.25373
20
-2.56588
11
4.25394
21
-2.56599
0
LINE
8
BLACK
6
CONTINUOUS
10
4.25394
20
-2.56599
11
4.25412
21
-2.56613
0
LINE
8
BLACK
6
CONTINUOUS
10
4.25412
20
-2.56613
11
4.25486
21
-2.56687
0
LINE
8
BLACK
6
CONTINUOUS
10
4.25486
20
-2.56687
11
4.25722
21
-2.56766
0
LINE
8
BLACK
6
CONTINUOUS
10
4.25722
20
-2.56766
11
4.25871
21
-2.56766
0
LINE
8
BLACK
6
CONTINUOUS
10
4.25871
20
-2.56766
11
4.26108
21
-2.56687
0
LINE
8
BLACK
6
CONTINUOUS
10
4.26108
20
-2.56687
11
4.26262
21
-2.56533
0
LINE
8
BLACK
6
CONTINUOUS
10
4.26262
20
-2.56533
11
4.26342
21
-2.56374
0
LINE
8
BLACK
6
CONTINUOUS
10
4.26342
20
-2.56374
11
4.26429
21
-2.56026
0
LINE
8
BLACK
6
CONTINUOUS
10
4.26429
20
-2.56026
11
4.26429
21
-2.55774
0
LINE
8
BLACK
6
CONTINUOUS
10
4.26429
20
-2.55774
11
4.26342
21
-2.55426
0
LINE
8
BLACK
6
CONTINUOUS
10
4.26342
20
-2.55426
11
4.26262
21
-2.55267
0
LINE
8
BLACK
6
CONTINUOUS
10
4.26262
20
-2.55267
11
4.26108
21
-2.55113
0
LINE
8
BLACK
6
CONTINUOUS
10
4.26108
20
-2.55113
11
4.25871
21
-2.55034
0
LINE
8
BLACK
6
CONTINUOUS
10
4.25871
20
-2.55034
11
4.25722
21
-2.55034
0
LINE
8
BLACK
6
CONTINUOUS
10
4.25722
20
-2.55034
11
4.25486
21
-2.55113
0
LINE
8
BLACK
6
CONTINUOUS
10
4.25486
20
-2.55113
11
4.25412
21
-2.55187
0
LINE
8
BLACK
6
CONTINUOUS
10
4.25412
20
-2.55187
11
4.2541
21
-2.55188
0
LINE
8
BLACK
6
CONTINUOUS
10
4.2541
20
-2.55188
11
4.25392
21
-2.55202
0
LINE
8
BLACK
6
CONTINUOUS
10
4.25392
20
-2.55202
11
4.25372
21
-2.55213
0
LINE
8
BLACK
6
CONTINUOUS
10
4.25372
20
-2.55213
11
4.2535
21
-2.55219
0
LINE
8
BLACK
6
CONTINUOUS
10
4.2535
20
-2.55219
11
4.25327
21
-2.55221
0
LINE
8
BLACK
6
CONTINUOUS
10
4.25327
20
-2.55221
11
4.25304
21
-2.55219
0
LINE
8
BLACK
6
CONTINUOUS
10
4.25304
20
-2.55219
11
4.25282
21
-2.55212
0
LINE
8
BLACK
6
CONTINUOUS
10
4.25282
20
-2.55212
11
4.25262
21
-2.55201
0
LINE
8
BLACK
6
CONTINUOUS
10
4.25262
20
-2.55201
11
4.25244
21
-2.55186
0
LINE
8
BLACK
6
CONTINUOUS
10
4.25244
20
-2.55186
11
4.25229
21
-2.55168
0
LINE
8
BLACK
6
CONTINUOUS
10
4.25229
20
-2.55168
11
4.25219
21
-2.55148
0
LINE
8
BLACK
6
CONTINUOUS
10
4.25219
20
-2.55148
11
4.25212
21
-2.55126
0
LINE
8
BLACK
6
CONTINUOUS
10
4.25212
20
-2.55126
11
4.2521
21
-2.55103
0
LINE
8
BLACK
6
CONTINUOUS
10
4.2521
20
-2.55103
11
4.25212
21
-2.5508
0
LINE
8
BLACK
6
CONTINUOUS
10
4.25212
20
-2.5508
11
4.25219
21
-2.55058
0
LINE
8
BLACK
6
CONTINUOUS
10
4.25219
20
-2.55058
11
4.2523
21
-2.55037
0
LINE
8
BLACK
6
CONTINUOUS
10
4.2523
20
-2.55037
11
4.25245
21
-2.5502
0
LINE
8
BLACK
6
CONTINUOUS
10
4.25245
20
-2.5502
11
4.25338
21
-2.54926
0
LINE
8
BLACK
6
CONTINUOUS
10
4.25338
20
-2.54926
11
4.25339
21
-2.54925
0
LINE
8
BLACK
6
CONTINUOUS
10
4.25339
20
-2.54925
11
4.25342
21
-2.54923
0
LINE
8
BLACK
6
CONTINUOUS
10
4.25342
20
-2.54923
11
4.25345
21
-2.5492
0
LINE
8
BLACK
6
CONTINUOUS
10
4.25345
20
-2.5492
11
4.25351
21
-2.54915
0
LINE
8
BLACK
6
CONTINUOUS
10
4.25351
20
-2.54915
11
4.25357
21
-2.5491
0
LINE
8
BLACK
6
CONTINUOUS
10
4.25357
20
-2.5491
11
4.25361
21
-2.54909
0
LINE
8
BLACK
6
CONTINUOUS
10
4.25361
20
-2.54909
11
4.25363
21
-2.54907
0
LINE
8
BLACK
6
CONTINUOUS
10
4.25363
20
-2.54907
11
4.25371
21
-2.54903
0
LINE
8
BLACK
6
CONTINUOUS
10
4.25371
20
-2.54903
11
4.25378
21
-2.549
0
LINE
8
BLACK
6
CONTINUOUS
10
4.25378
20
-2.549
11
4.25381
21
-2.54899
0
LINE
8
BLACK
6
CONTINUOUS
10
4.25381
20
-2.54899
11
4.25384
21
-2.54897
0
LINE
8
BLACK
6
CONTINUOUS
10
4.25384
20
-2.54897
11
4.25666
21
-2.54804
0
LINE
8
BLACK
6
CONTINUOUS
10
4.25666
20
-2.54804
11
4.25667
21
-2.54803
0
LINE
8
BLACK
6
CONTINUOUS
10
4.25667
20
-2.54803
11
4.25674
21
-2.54802
0
LINE
8
BLACK
6
CONTINUOUS
10
4.25674
20
-2.54802
11
4.2568
21
-2.548
0
LINE
8
BLACK
6
CONTINUOUS
10
4.2568
20
-2.548
11
4.25685
21
-2.54799
0
LINE
8
BLACK
6
CONTINUOUS
10
4.25685
20
-2.54799
11
4.2569
21
-2.54798
0
LINE
8
BLACK
6
CONTINUOUS
10
4.2569
20
-2.54798
11
4.25696
21
-2.54798
0
LINE
8
BLACK
6
CONTINUOUS
10
4.25696
20
-2.54798
11
4.25703
21
-2.54798
0
LINE
8
BLACK
6
CONTINUOUS
10
4.25703
20
-2.54798
11
4.25891
21
-2.54798
0
LINE
8
BLACK
6
CONTINUOUS
10
4.25891
20
-2.54798
11
4.25892
21
-2.54798
0
LINE
8
BLACK
6
CONTINUOUS
10
4.24674
20
-2.54798
11
4.24696
21
-2.548
0
LINE
8
BLACK
6
CONTINUOUS
10
4.24696
20
-2.548
11
4.24718
21
-2.54807
0
LINE
8
BLACK
6
CONTINUOUS
10
4.24718
20
-2.54807
11
4.24739
21
-2.54818
0
LINE
8
BLACK
6
CONTINUOUS
10
4.24739
20
-2.54818
11
4.24756
21
-2.54833
0
LINE
8
BLACK
6
CONTINUOUS
10
4.24756
20
-2.54833
11
4.24771
21
-2.54851
0
LINE
8
BLACK
6
CONTINUOUS
10
4.24771
20
-2.54851
11
4.24781
21
-2.54871
0
LINE
8
BLACK
6
CONTINUOUS
10
4.24781
20
-2.54871
11
4.24788
21
-2.54894
0
LINE
8
BLACK
6
CONTINUOUS
10
4.24788
20
-2.54894
11
4.2479
21
-2.54917
0
LINE
8
BLACK
6
CONTINUOUS
10
4.2479
20
-2.54917
11
4.24788
21
-2.54939
0
LINE
8
BLACK
6
CONTINUOUS
10
4.24788
20
-2.54939
11
4.24781
21
-2.54961
0
LINE
8
BLACK
6
CONTINUOUS
10
4.24781
20
-2.54961
11
4.2477
21
-2.54982
0
LINE
8
BLACK
6
CONTINUOUS
10
4.2477
20
-2.54982
11
4.24755
21
-2.55
0
LINE
8
BLACK
6
CONTINUOUS
10
4.24755
20
-2.55
11
4.24737
21
-2.55014
0
LINE
8
BLACK
6
CONTINUOUS
10
4.24737
20
-2.55014
11
4.24717
21
-2.55025
0
LINE
8
BLACK
6
CONTINUOUS
10
4.24717
20
-2.55025
11
4.24695
21
-2.55032
0
LINE
8
BLACK
6
CONTINUOUS
10
4.24695
20
-2.55032
11
4.24672
21
-2.55034
0
LINE
8
BLACK
6
CONTINUOUS
10
4.24672
20
-2.55034
11
4.23714
21
-2.55034
0
LINE
8
BLACK
6
CONTINUOUS
10
4.23714
20
-2.55034
11
4.24198
21
-2.55588
0
LINE
8
BLACK
6
CONTINUOUS
10
4.24198
20
-2.55588
11
4.24199
21
-2.55589
0
LINE
8
BLACK
6
CONTINUOUS
10
4.24199
20
-2.55589
11
4.24204
21
-2.55595
0
LINE
8
BLACK
6
CONTINUOUS
10
4.24204
20
-2.55595
11
4.24208
21
-2.55601
0
LINE
8
BLACK
6
CONTINUOUS
10
4.24208
20
-2.55601
11
4.2421
21
-2.55605
0
LINE
8
BLACK
6
CONTINUOUS
10
4.2421
20
-2.55605
11
4.24213
21
-2.55608
0
LINE
8
BLACK
6
CONTINUOUS
10
4.24213
20
-2.55608
11
4.24216
21
-2.55615
0
LINE
8
BLACK
6
CONTINUOUS
10
4.24216
20
-2.55615
11
4.24219
21
-2.55621
0
LINE
8
BLACK
6
CONTINUOUS
10
4.24219
20
-2.55621
11
4.2422
21
-2.55625
0
LINE
8
BLACK
6
CONTINUOUS
10
4.2422
20
-2.55625
11
4.24222
21
-2.55629
0
LINE
8
BLACK
6
CONTINUOUS
10
4.24222
20
-2.55629
11
4.24223
21
-2.55636
0
LINE
8
BLACK
6
CONTINUOUS
10
4.24223
20
-2.55636
11
4.24226
21
-2.55643
0
LINE
8
BLACK
6
CONTINUOUS
10
4.24226
20
-2.55643
11
4.24226
21
-2.55648
0
LINE
8
BLACK
6
CONTINUOUS
10
4.24226
20
-2.55648
11
4.24227
21
-2.55652
0
LINE
8
BLACK
6
CONTINUOUS
10
4.24227
20
-2.55652
11
4.24227
21
-2.55659
0
LINE
8
BLACK
6
CONTINUOUS
10
4.24227
20
-2.55659
11
4.24228
21
-2.55666
0
LINE
8
BLACK
6
CONTINUOUS
10
4.24228
20
-2.55666
11
4.24227
21
-2.55671
0
LINE
8
BLACK
6
CONTINUOUS
10
4.24227
20
-2.55671
11
4.24227
21
-2.55675
0
LINE
8
BLACK
6
CONTINUOUS
10
4.24227
20
-2.55675
11
4.24226
21
-2.55682
0
LINE
8
BLACK
6
CONTINUOUS
10
4.24226
20
-2.55682
11
4.24225
21
-2.55689
0
LINE
8
BLACK
6
CONTINUOUS
10
4.24225
20
-2.55689
11
4.24224
21
-2.55693
0
LINE
8
BLACK
6
CONTINUOUS
10
4.24224
20
-2.55693
11
4.24223
21
-2.55697
0
LINE
8
BLACK
6
CONTINUOUS
10
4.24223
20
-2.55697
11
4.24221
21
-2.55704
0
LINE
8
BLACK
6
CONTINUOUS
10
4.24221
20
-2.55704
11
4.24218
21
-2.55711
0
LINE
8
BLACK
6
CONTINUOUS
10
4.24218
20
-2.55711
11
4.24216
21
-2.55715
0
LINE
8
BLACK
6
CONTINUOUS
10
4.24216
20
-2.55715
11
4.24215
21
-2.55719
0
LINE
8
BLACK
6
CONTINUOUS
10
4.24215
20
-2.55719
11
4.24211
21
-2.55725
0
LINE
8
BLACK
6
CONTINUOUS
10
4.24211
20
-2.55725
11
4.24207
21
-2.55732
0
LINE
8
BLACK
6
CONTINUOUS
10
4.24207
20
-2.55732
11
4.24205
21
-2.55735
0
LINE
8
BLACK
6
CONTINUOUS
10
4.24205
20
-2.55735
11
4.24203
21
-2.55738
0
LINE
8
BLACK
6
CONTINUOUS
10
4.24203
20
-2.55738
11
4.24197
21
-2.55744
0
LINE
8
BLACK
6
CONTINUOUS
10
4.24197
20
-2.55744
11
4.24193
21
-2.55749
0
LINE
8
BLACK
6
CONTINUOUS
10
4.24193
20
-2.55749
11
4.24189
21
-2.55752
0
LINE
8
BLACK
6
CONTINUOUS
10
4.24189
20
-2.55752
11
4.24187
21
-2.55755
0
LINE
8
BLACK
6
CONTINUOUS
10
4.24187
20
-2.55755
11
4.24181
21
-2.55759
0
LINE
8
BLACK
6
CONTINUOUS
10
4.24181
20
-2.55759
11
4.24175
21
-2.55764
0
LINE
8
BLACK
6
CONTINUOUS
10
4.24175
20
-2.55764
11
4.24171
21
-2.55766
0
LINE
8
BLACK
6
CONTINUOUS
10
4.24171
20
-2.55766
11
4.24168
21
-2.55768
0
LINE
8
BLACK
6
CONTINUOUS
10
4.24168
20
-2.55768
11
4.24161
21
-2.55771
0
LINE
8
BLACK
6
CONTINUOUS
10
4.24161
20
-2.55771
11
4.24154
21
-2.55775
0
LINE
8
BLACK
6
CONTINUOUS
10
4.24154
20
-2.55775
11
4.24151
21
-2.55776
0
LINE
8
BLACK
6
CONTINUOUS
10
4.24151
20
-2.55776
11
4.24147
21
-2.55778
0
LINE
8
BLACK
6
CONTINUOUS
10
4.24147
20
-2.55778
11
4.24139
21
-2.55779
0
LINE
8
BLACK
6
CONTINUOUS
10
4.24139
20
-2.55779
11
4.24132
21
-2.55781
0
LINE
8
BLACK
6
CONTINUOUS
10
4.24132
20
-2.55781
11
4.24128
21
-2.55782
0
LINE
8
BLACK
6
CONTINUOUS
10
4.24128
20
-2.55782
11
4.24124
21
-2.55783
0
LINE
8
BLACK
6
CONTINUOUS
10
4.24124
20
-2.55783
11
4.24117
21
-2.55783
0
LINE
8
BLACK
6
CONTINUOUS
10
4.24117
20
-2.55783
11
4.24109
21
-2.55784
0
LINE
8
BLACK
6
CONTINUOUS
10
4.24109
20
-2.55784
11
4.23856
21
-2.55784
0
LINE
8
BLACK
6
CONTINUOUS
10
4.23856
20
-2.55784
11
4.23711
21
-2.55856
0
LINE
8
BLACK
6
CONTINUOUS
10
4.23711
20
-2.55856
11
4.23644
21
-2.55923
0
LINE
8
BLACK
6
CONTINUOUS
10
4.23644
20
-2.55923
11
4.23571
21
-2.56068
0
LINE
8
BLACK
6
CONTINUOUS
10
4.23571
20
-2.56068
11
4.23571
21
-2.56481
0
LINE
8
BLACK
6
CONTINUOUS
10
4.23571
20
-2.56481
11
4.23644
21
-2.56627
0
LINE
8
BLACK
6
CONTINUOUS
10
4.23644
20
-2.56627
11
4.23711
21
-2.56693
0
LINE
8
BLACK
6
CONTINUOUS
10
4.23711
20
-2.56693
11
4.23856
21
-2.56766
0
LINE
8
BLACK
6
CONTINUOUS
10
4.23856
20
-2.56766
11
4.24363
21
-2.56766
0
LINE
8
BLACK
6
CONTINUOUS
10
4.24363
20
-2.56766
11
4.24508
21
-2.56693
0
LINE
8
BLACK
6
CONTINUOUS
10
4.24508
20
-2.56693
11
4.24588
21
-2.56613
0
LINE
8
BLACK
6
CONTINUOUS
10
4.24588
20
-2.56613
11
4.2459
21
-2.56612
0
LINE
8
BLACK
6
CONTINUOUS
10
4.2459
20
-2.56612
11
4.24608
21
-2.56598
0
LINE
8
BLACK
6
CONTINUOUS
10
4.24608
20
-2.56598
11
4.24628
21
-2.56587
0
LINE
8
BLACK
6
CONTINUOUS
10
4.24628
20
-2.56587
11
4.2465
21
-2.56581
0
LINE
8
BLACK
6
CONTINUOUS
10
4.2465
20
-2.56581
11
4.24673
21
-2.56579
0
LINE
8
BLACK
6
CONTINUOUS
10
4.24673
20
-2.56579
11
4.24696
21
-2.56581
0
LINE
8
BLACK
6
CONTINUOUS
10
4.24696
20
-2.56581
11
4.24718
21
-2.56588
0
LINE
8
BLACK
6
CONTINUOUS
10
4.24718
20
-2.56588
11
4.24738
21
-2.56599
0
LINE
8
BLACK
6
CONTINUOUS
10
4.24738
20
-2.56599
11
4.24756
21
-2.56614
0
LINE
8
BLACK
6
CONTINUOUS
10
4.24756
20
-2.56614
11
4.24771
21
-2.56632
0
LINE
8
BLACK
6
CONTINUOUS
10
4.24771
20
-2.56632
11
4.24781
21
-2.56652
0
LINE
8
BLACK
6
CONTINUOUS
10
4.24781
20
-2.56652
11
4.24788
21
-2.56674
0
LINE
8
BLACK
6
CONTINUOUS
10
4.24788
20
-2.56674
11
4.2479
21
-2.56697
0
LINE
8
BLACK
6
CONTINUOUS
10
4.2479
20
-2.56697
11
4.24788
21
-2.5672
0
LINE
8
BLACK
6
CONTINUOUS
10
4.24788
20
-2.5672
11
4.24781
21
-2.56742
0
LINE
8
BLACK
6
CONTINUOUS
10
4.24781
20
-2.56742
11
4.2477
21
-2.56762
0
LINE
8
BLACK
6
CONTINUOUS
10
4.2477
20
-2.56762
11
4.24755
21
-2.5678
0
LINE
8
BLACK
6
CONTINUOUS
10
4.24755
20
-2.5678
11
4.24662
21
-2.56874
0
LINE
8
BLACK
6
CONTINUOUS
10
4.24662
20
-2.56874
11
4.24661
21
-2.56875
0
LINE
8
BLACK
6
CONTINUOUS
10
4.24661
20
-2.56875
11
4.24655
21
-2.56879
0
LINE
8
BLACK
6
CONTINUOUS
10
4.24655
20
-2.56879
11
4.24651
21
-2.56884
0
LINE
8
BLACK
6
CONTINUOUS
10
4.24651
20
-2.56884
11
4.24646
21
-2.56886
0
LINE
8
BLACK
6
CONTINUOUS
10
4.24646
20
-2.56886
11
4.24643
21
-2.5689
0
LINE
8
BLACK
6
CONTINUOUS
10
4.24643
20
-2.5689
11
4.24637
21
-2.56893
0
LINE
8
BLACK
6
CONTINUOUS
10
4.24637
20
-2.56893
11
4.24631
21
-2.56896
0
LINE
8
BLACK
6
CONTINUOUS
10
4.24631
20
-2.56896
11
4.24444
21
-2.5699
0
LINE
8
BLACK
6
CONTINUOUS
10
4.24444
20
-2.5699
11
4.24442
21
-2.56991
0
LINE
8
BLACK
6
CONTINUOUS
10
4.24442
20
-2.56991
11
4.24439
21
-2.56992
0
LINE
8
BLACK
6
CONTINUOUS
10
4.24439
20
-2.56992
11
4.24436
21
-2.56993
0
LINE
8
BLACK
6
CONTINUOUS
10
4.24436
20
-2.56993
11
4.24428
21
-2.56996
0
LINE
8
BLACK
6
CONTINUOUS
10
4.24428
20
-2.56996
11
4.2442
21
-2.56999
0
LINE
8
BLACK
6
CONTINUOUS
10
4.2442
20
-2.56999
11
4.24417
21
-2.56999
0
LINE
8
BLACK
6
CONTINUOUS
10
4.24417
20
-2.56999
11
4.24414
21
-2.57
0
LINE
8
BLACK
6
CONTINUOUS
10
4.24414
20
-2.57
11
4.24406
21
-2.57001
0
LINE
8
BLACK
6
CONTINUOUS
10
4.24406
20
-2.57001
11
4.24398
21
-2.57002
0
LINE
8
BLACK
6
CONTINUOUS
10
4.24398
20
-2.57002
11
4.24394
21
-2.57002
0
LINE
8
BLACK
6
CONTINUOUS
10
4.24394
20
-2.57002
11
4.24391
21
-2.57002
0
LINE
8
BLACK
6
CONTINUOUS
10
4.24391
20
-2.57002
11
4.23828
21
-2.57002
0
LINE
8
BLACK
6
CONTINUOUS
10
4.23828
20
-2.57002
11
4.23827
21
-2.57002
0
LINE
8
BLACK
6
CONTINUOUS
10
4.23827
20
-2.57002
11
4.23823
21
-2.57002
0
LINE
8
BLACK
6
CONTINUOUS
10
4.23823
20
-2.57002
11
4.2382
21
-2.57002
0
LINE
8
BLACK
6
CONTINUOUS
10
4.2382
20
-2.57002
11
4.23812
21
-2.57001
0
LINE
8
BLACK
6
CONTINUOUS
10
4.23812
20
-2.57001
11
4.23804
21
-2.57
0
LINE
8
BLACK
6
CONTINUOUS
10
4.23804
20
-2.57
11
4.238
21
-2.56999
0
LINE
8
BLACK
6
CONTINUOUS
10
4.238
20
-2.56999
11
4.23797
21
-2.56998
0
LINE
8
BLACK
6
CONTINUOUS
10
4.23797
20
-2.56998
11
4.23789
21
-2.56995
0
LINE
8
BLACK
6
CONTINUOUS
10
4.23789
20
-2.56995
11
4.23782
21
-2.56993
0
LINE
8
BLACK
6
CONTINUOUS
10
4.23782
20
-2.56993
11
4.23779
21
-2.56991
0
LINE
8
BLACK
6
CONTINUOUS
10
4.23779
20
-2.56991
11
4.23775
21
-2.5699
0
LINE
8
BLACK
6
CONTINUOUS
10
4.23775
20
-2.5699
11
4.23588
21
-2.56896
0
LINE
8
BLACK
6
CONTINUOUS
10
4.23588
20
-2.56896
11
4.23586
21
-2.56895
0
LINE
8
BLACK
6
CONTINUOUS
10
4.23586
20
-2.56895
11
4.23581
21
-2.56892
0
LINE
8
BLACK
6
CONTINUOUS
10
4.23581
20
-2.56892
11
4.23575
21
-2.56889
0
LINE
8
BLACK
6
CONTINUOUS
10
4.23575
20
-2.56889
11
4.23571
21
-2.56885
0
LINE
8
BLACK
6
CONTINUOUS
10
4.23571
20
-2.56885
11
4.23567
21
-2.56883
0
LINE
8
BLACK
6
CONTINUOUS
10
4.23567
20
-2.56883
11
4.23562
21
-2.56878
0
LINE
8
BLACK
6
CONTINUOUS
10
4.23562
20
-2.56878
11
4.23557
21
-2.56874
0
LINE
8
BLACK
6
CONTINUOUS
10
4.23557
20
-2.56874
11
4.23464
21
-2.5678
0
LINE
8
BLACK
6
CONTINUOUS
10
4.23464
20
-2.5678
11
4.23462
21
-2.56779
0
LINE
8
BLACK
6
CONTINUOUS
10
4.23462
20
-2.56779
11
4.23458
21
-2.56774
0
LINE
8
BLACK
6
CONTINUOUS
10
4.23458
20
-2.56774
11
4.23454
21
-2.56769
0
LINE
8
BLACK
6
CONTINUOUS
10
4.23454
20
-2.56769
11
4.23451
21
-2.56765
0
LINE
8
BLACK
6
CONTINUOUS
10
4.23451
20
-2.56765
11
4.23448
21
-2.56761
0
LINE
8
BLACK
6
CONTINUOUS
10
4.23448
20
-2.56761
11
4.23445
21
-2.56755
0
LINE
8
BLACK
6
CONTINUOUS
10
4.23445
20
-2.56755
11
4.23441
21
-2.5675
0
LINE
8
BLACK
6
CONTINUOUS
10
4.23441
20
-2.5675
11
4.23348
21
-2.56562
0
LINE
8
BLACK
6
CONTINUOUS
10
4.23348
20
-2.56562
11
4.23347
21
-2.56561
0
LINE
8
BLACK
6
CONTINUOUS
10
4.23347
20
-2.56561
11
4.23346
21
-2.56557
0
LINE
8
BLACK
6
CONTINUOUS
10
4.23346
20
-2.56557
11
4.23344
21
-2.56554
0
LINE
8
BLACK
6
CONTINUOUS
10
4.23344
20
-2.56554
11
4.23342
21
-2.56547
0
LINE
8
BLACK
6
CONTINUOUS
10
4.23342
20
-2.56547
11
4.23339
21
-2.56539
0
LINE
8
BLACK
6
CONTINUOUS
10
4.23339
20
-2.56539
11
4.23338
21
-2.56536
0
LINE
8
BLACK
6
CONTINUOUS
10
4.23338
20
-2.56536
11
4.23337
21
-2.56532
0
LINE
8
BLACK
6
CONTINUOUS
10
4.23337
20
-2.56532
11
4.23337
21
-2.56524
0
LINE
8
BLACK
6
CONTINUOUS
10
4.23337
20
-2.56524
11
4.23335
21
-2.56516
0
LINE
8
BLACK
6
CONTINUOUS
10
4.23335
20
-2.56516
11
4.23336
21
-2.56513
0
LINE
8
BLACK
6
CONTINUOUS
10
4.23336
20
-2.56513
11
4.23335
21
-2.56509
0
LINE
8
BLACK
6
CONTINUOUS
10
4.23335
20
-2.56509
11
4.23335
21
-2.56041
0
LINE
8
BLACK
6
CONTINUOUS
10
4.23335
20
-2.56041
11
4.23335
21
-2.56039
0
LINE
8
BLACK
6
CONTINUOUS
10
4.23335
20
-2.56039
11
4.23336
21
-2.56035
0
LINE
8
BLACK
6
CONTINUOUS
10
4.23336
20
-2.56035
11
4.23336
21
-2.56032
0
LINE
8
BLACK
6
CONTINUOUS
10
4.23336
20
-2.56032
11
4.23337
21
-2.56024
0
LINE
8
BLACK
6
CONTINUOUS
10
4.23337
20
-2.56024
11
4.23338
21
-2.56016
0
LINE
8
BLACK
6
CONTINUOUS
10
4.23338
20
-2.56016
11
4.23339
21
-2.56013
0
LINE
8
BLACK
6
CONTINUOUS
10
4.23339
20
-2.56013
11
4.23339
21
-2.56009
0
LINE
8
BLACK
6
CONTINUOUS
10
4.23339
20
-2.56009
11
4.23342
21
-2.56002
0
LINE
8
BLACK
6
CONTINUOUS
10
4.23342
20
-2.56002
11
4.23345
21
-2.55994
0
LINE
8
BLACK
6
CONTINUOUS
10
4.23345
20
-2.55994
11
4.23346
21
-2.55991
0
LINE
8
BLACK
6
CONTINUOUS
10
4.23346
20
-2.55991
11
4.23348
21
-2.55988
0
LINE
8
BLACK
6
CONTINUOUS
10
4.23348
20
-2.55988
11
4.23441
21
-2.558
0
LINE
8
BLACK
6
CONTINUOUS
10
4.23441
20
-2.558
11
4.23442
21
-2.55799
0
LINE
8
BLACK
6
CONTINUOUS
10
4.23442
20
-2.55799
11
4.23446
21
-2.55793
0
LINE
8
BLACK
6
CONTINUOUS
10
4.23446
20
-2.55793
11
4.23449
21
-2.55787
0
LINE
8
BLACK
6
CONTINUOUS
10
4.23449
20
-2.55787
11
4.23452
21
-2.55784
0
LINE
8
BLACK
6
CONTINUOUS
10
4.23452
20
-2.55784
11
4.23455
21
-2.55779
0
LINE
8
BLACK
6
CONTINUOUS
10
4.23455
20
-2.55779
11
4.23459
21
-2.55775
0
LINE
8
BLACK
6
CONTINUOUS
10
4.23459
20
-2.55775
11
4.23464
21
-2.5577
0
LINE
8
BLACK
6
CONTINUOUS
10
4.23464
20
-2.5577
11
4.23557
21
-2.55676
0
LINE
8
BLACK
6
CONTINUOUS
10
4.23557
20
-2.55676
11
4.23558
21
-2.55675
0
LINE
8
BLACK
6
CONTINUOUS
10
4.23558
20
-2.55675
11
4.23564
21
-2.55671
0
LINE
8
BLACK
6
CONTINUOUS
10
4.23564
20
-2.55671
11
4.23568
21
-2.55666
0
LINE
8
BLACK
6
CONTINUOUS
10
4.23568
20
-2.55666
11
4.23573
21
-2.55663
0
LINE
8
BLACK
6
CONTINUOUS
10
4.23573
20
-2.55663
11
4.23576
21
-2.5566
0
LINE
8
BLACK
6
CONTINUOUS
10
4.23576
20
-2.5566
11
4.23582
21
-2.55657
0
LINE
8
BLACK
6
CONTINUOUS
10
4.23582
20
-2.55657
11
4.23588
21
-2.55654
0
LINE
8
BLACK
6
CONTINUOUS
10
4.23588
20
-2.55654
11
4.23775
21
-2.5556
0
LINE
8
BLACK
6
CONTINUOUS
10
4.23775
20
-2.5556
11
4.23777
21
-2.55559
0
LINE
8
BLACK
6
CONTINUOUS
10
4.23777
20
-2.55559
11
4.2378
21
-2.55558
0
LINE
8
BLACK
6
CONTINUOUS
10
4.2378
20
-2.55558
11
4.23783
21
-2.55556
0
LINE
8
BLACK
6
CONTINUOUS
10
4.23783
20
-2.55556
11
4.23791
21
-2.55554
0
LINE
8
BLACK
6
CONTINUOUS
10
4.23791
20
-2.55554
11
4.23799
21
-2.55551
0
LINE
8
BLACK
6
CONTINUOUS
10
4.23799
20
-2.55551
11
4.23802
21
-2.55551
0
LINE
8
BLACK
6
CONTINUOUS
10
4.23802
20
-2.55551
11
4.23805
21
-2.5555
0
LINE
8
BLACK
6
CONTINUOUS
10
4.23805
20
-2.5555
11
4.23813
21
-2.55549
0
LINE
8
BLACK
6
CONTINUOUS
10
4.23813
20
-2.55549
11
4.23821
21
-2.55548
0
LINE
8
BLACK
6
CONTINUOUS
10
4.23821
20
-2.55548
11
4.23825
21
-2.55548
0
LINE
8
BLACK
6
CONTINUOUS
10
4.23825
20
-2.55548
11
4.23828
21
-2.55548
0
LINE
8
BLACK
6
CONTINUOUS
10
4.23828
20
-2.55548
11
4.23849
21
-2.55548
0
LINE
8
BLACK
6
CONTINUOUS
10
4.23849
20
-2.55548
11
4.23364
21
-2.54993
0
LINE
8
BLACK
6
CONTINUOUS
10
4.23364
20
-2.54993
11
4.23363
21
-2.54992
0
LINE
8
BLACK
6
CONTINUOUS
10
4.23363
20
-2.54992
11
4.23359
21
-2.54986
0
LINE
8
BLACK
6
CONTINUOUS
10
4.23359
20
-2.54986
11
4.23354
21
-2.5498
0
LINE
8
BLACK
6
CONTINUOUS
10
4.23354
20
-2.5498
11
4.23353
21
-2.54977
0
LINE
8
BLACK
6
CONTINUOUS
10
4.23353
20
-2.54977
11
4.2335
21
-2.54973
0
LINE
8
BLACK
6
CONTINUOUS
10
4.2335
20
-2.54973
11
4.23347
21
-2.54967
0
LINE
8
BLACK
6
CONTINUOUS
10
4.23347
20
-2.54967
11
4.23344
21
-2.5496
0
LINE
8
BLACK
6
CONTINUOUS
10
4.23344
20
-2.5496
11
4.23343
21
-2.54956
0
LINE
8
BLACK
6
CONTINUOUS
10
4.23343
20
-2.54956
11
4.23341
21
-2.54952
0
LINE
8
BLACK
6
CONTINUOUS
10
4.23341
20
-2.54952
11
4.23339
21
-2.54945
0
LINE
8
BLACK
6
CONTINUOUS
10
4.23339
20
-2.54945
11
4.23337
21
-2.54938
0
LINE
8
BLACK
6
CONTINUOUS
10
4.23337
20
-2.54938
11
4.23337
21
-2.54934
0
LINE
8
BLACK
6
CONTINUOUS
10
4.23337
20
-2.54934
11
4.23336
21
-2.5493
0
LINE
8
BLACK
6
CONTINUOUS
10
4.23336
20
-2.5493
11
4.23336
21
-2.54922
0
LINE
8
BLACK
6
CONTINUOUS
10
4.23336
20
-2.54922
11
4.23335
21
-2.54915
0
LINE
8
BLACK
6
CONTINUOUS
10
4.23335
20
-2.54915
11
4.23336
21
-2.54911
0
LINE
8
BLACK
6
CONTINUOUS
10
4.23336
20
-2.54911
11
4.23336
21
-2.54907
0
LINE
8
BLACK
6
CONTINUOUS
10
4.23336
20
-2.54907
11
4.23337
21
-2.54899
0
LINE
8
BLACK
6
CONTINUOUS
10
4.23337
20
-2.54899
11
4.23338
21
-2.54892
0
LINE
8
BLACK
6
CONTINUOUS
10
4.23338
20
-2.54892
11
4.23339
21
-2.54888
0
LINE
8
BLACK
6
CONTINUOUS
10
4.23339
20
-2.54888
11
4.2334
21
-2.54884
0
LINE
8
BLACK
6
CONTINUOUS
10
4.2334
20
-2.54884
11
4.23342
21
-2.54877
0
LINE
8
BLACK
6
CONTINUOUS
10
4.23342
20
-2.54877
11
4.23344
21
-2.5487
0
LINE
8
BLACK
6
CONTINUOUS
10
4.23344
20
-2.5487
11
4.23346
21
-2.54866
0
LINE
8
BLACK
6
CONTINUOUS
10
4.23346
20
-2.54866
11
4.23348
21
-2.54862
0
LINE
8
BLACK
6
CONTINUOUS
10
4.23348
20
-2.54862
11
4.23352
21
-2.54856
0
LINE
8
BLACK
6
CONTINUOUS
10
4.23352
20
-2.54856
11
4.23355
21
-2.5485
0
LINE
8
BLACK
6
CONTINUOUS
10
4.23355
20
-2.5485
11
4.23358
21
-2.54846
0
LINE
8
BLACK
6
CONTINUOUS
10
4.23358
20
-2.54846
11
4.2336
21
-2.54843
0
LINE
8
BLACK
6
CONTINUOUS
10
4.2336
20
-2.54843
11
4.23365
21
-2.54838
0
LINE
8
BLACK
6
CONTINUOUS
10
4.23365
20
-2.54838
11
4.2337
21
-2.54832
0
LINE
8
BLACK
6
CONTINUOUS
10
4.2337
20
-2.54832
11
4.23373
21
-2.54829
0
LINE
8
BLACK
6
CONTINUOUS
10
4.23373
20
-2.54829
11
4.23376
21
-2.54826
0
LINE
8
BLACK
6
CONTINUOUS
10
4.23376
20
-2.54826
11
4.23382
21
-2.54822
0
LINE
8
BLACK
6
CONTINUOUS
10
4.23382
20
-2.54822
11
4.23388
21
-2.54817
0
LINE
8
BLACK
6
CONTINUOUS
10
4.23388
20
-2.54817
11
4.23392
21
-2.54815
0
LINE
8
BLACK
6
CONTINUOUS
10
4.23392
20
-2.54815
11
4.23395
21
-2.54813
0
LINE
8
BLACK
6
CONTINUOUS
10
4.23395
20
-2.54813
11
4.23402
21
-2.5481
0
LINE
8
BLACK
6
CONTINUOUS
10
4.23402
20
-2.5481
11
4.23408
21
-2.54807
0
LINE
8
BLACK
6
CONTINUOUS
10
4.23408
20
-2.54807
11
4.23412
21
-2.54805
0
LINE
8
BLACK
6
CONTINUOUS
10
4.23412
20
-2.54805
11
4.23416
21
-2.54804
0
LINE
8
BLACK
6
CONTINUOUS
10
4.23416
20
-2.54804
11
4.23423
21
-2.54802
0
LINE
8
BLACK
6
CONTINUOUS
10
4.23423
20
-2.54802
11
4.2343
21
-2.548
0
LINE
8
BLACK
6
CONTINUOUS
10
4.2343
20
-2.548
11
4.23435
21
-2.54799
0
LINE
8
BLACK
6
CONTINUOUS
10
4.23435
20
-2.54799
11
4.23439
21
-2.54799
0
LINE
8
BLACK
6
CONTINUOUS
10
4.23439
20
-2.54799
11
4.23446
21
-2.54798
0
LINE
8
BLACK
6
CONTINUOUS
10
4.23446
20
-2.54798
11
4.23453
21
-2.54798
0
LINE
8
BLACK
6
CONTINUOUS
10
4.23453
20
-2.54798
11
4.24672
21
-2.54798
0
LINE
8
BLACK
6
CONTINUOUS
10
4.24672
20
-2.54798
11
4.24674
21
-2.54798
0
LINE
8
BLACK
6
CONTINUOUS
10
4.52754
20
-2.4817
11
4.52797
21
-2.48174
0
LINE
8
BLACK
6
CONTINUOUS
10
4.52797
20
-2.48174
11
4.52853
21
-2.48191
0
LINE
8
BLACK
6
CONTINUOUS
10
4.52853
20
-2.48191
11
4.52904
21
-2.48219
0
LINE
8
BLACK
6
CONTINUOUS
10
4.52904
20
-2.48219
11
4.52949
21
-2.48256
0
LINE
8
BLACK
6
CONTINUOUS
10
4.52949
20
-2.48256
11
4.52986
21
-2.48301
0
LINE
8
BLACK
6
CONTINUOUS
10
4.52986
20
-2.48301
11
4.53013
21
-2.48352
0
LINE
8
BLACK
6
CONTINUOUS
10
4.53013
20
-2.48352
11
4.5303
21
-2.48407
0
LINE
8
BLACK
6
CONTINUOUS
10
4.5303
20
-2.48407
11
4.53036
21
-2.48465
0
LINE
8
BLACK
6
CONTINUOUS
10
4.53036
20
-2.48465
11
4.53035
21
-2.4848
0
LINE
8
BLACK
6
CONTINUOUS
10
4.53035
20
-2.4848
11
4.53035
21
-2.48662
0
LINE
8
BLACK
6
CONTINUOUS
10
4.53035
20
-2.48662
11
4.58069
21
-2.48662
0
LINE
8
BLACK
6
CONTINUOUS
10
4.58069
20
-2.48662
11
4.58112
21
-2.48666
0
LINE
8
BLACK
6
CONTINUOUS
10
4.58112
20
-2.48666
11
4.58168
21
-2.48683
0
LINE
8
BLACK
6
CONTINUOUS
10
4.58168
20
-2.48683
11
4.58219
21
-2.48711
0
LINE
8
BLACK
6
CONTINUOUS
10
4.58219
20
-2.48711
11
4.58264
21
-2.48748
0
LINE
8
BLACK
6
CONTINUOUS
10
4.58264
20
-2.48748
11
4.58301
21
-2.48793
0
LINE
8
BLACK
6
CONTINUOUS
10
4.58301
20
-2.48793
11
4.58328
21
-2.48844
0
LINE
8
BLACK
6
CONTINUOUS
10
4.58328
20
-2.48844
11
4.58345
21
-2.489
0
LINE
8
BLACK
6
CONTINUOUS
10
4.58345
20
-2.489
11
4.58351
21
-2.48957
0
LINE
8
BLACK
6
CONTINUOUS
10
4.58351
20
-2.48957
11
4.58345
21
-2.49015
0
LINE
8
BLACK
6
CONTINUOUS
10
4.58345
20
-2.49015
11
4.58328
21
-2.49071
0
LINE
8
BLACK
6
CONTINUOUS
10
4.58328
20
-2.49071
11
4.58301
21
-2.49122
0
LINE
8
BLACK
6
CONTINUOUS
10
4.58301
20
-2.49122
11
4.58264
21
-2.49167
0
LINE
8
BLACK
6
CONTINUOUS
10
4.58264
20
-2.49167
11
4.58219
21
-2.49204
0
LINE
8
BLACK
6
CONTINUOUS
10
4.58219
20
-2.49204
11
4.58168
21
-2.49232
0
LINE
8
BLACK
6
CONTINUOUS
10
4.58168
20
-2.49232
11
4.58112
21
-2.49248
0
LINE
8
BLACK
6
CONTINUOUS
10
4.58112
20
-2.49248
11
4.58069
21
-2.49253
0
LINE
8
BLACK
6
CONTINUOUS
10
4.58069
20
-2.49253
11
4.52754
21
-2.49253
0
LINE
8
BLACK
6
CONTINUOUS
10
4.52754
20
-2.49253
11
4.52739
21
-2.49254
0
LINE
8
BLACK
6
CONTINUOUS
10
4.52739
20
-2.49254
11
4.52725
21
-2.49253
0
LINE
8
BLACK
6
CONTINUOUS
10
4.52725
20
-2.49253
11
4.52681
21
-2.49248
0
LINE
8
BLACK
6
CONTINUOUS
10
4.52681
20
-2.49248
11
4.52626
21
-2.49232
0
LINE
8
BLACK
6
CONTINUOUS
10
4.52626
20
-2.49232
11
4.52575
21
-2.49204
0
LINE
8
BLACK
6
CONTINUOUS
10
4.52575
20
-2.49204
11
4.5253
21
-2.49167
0
LINE
8
BLACK
6
CONTINUOUS
10
4.5253
20
-2.49167
11
4.52493
21
-2.49122
0
LINE
8
BLACK
6
CONTINUOUS
10
4.52493
20
-2.49122
11
4.52465
21
-2.49071
0
LINE
8
BLACK
6
CONTINUOUS
10
4.52465
20
-2.49071
11
4.52448
21
-2.49015
0
LINE
8
BLACK
6
CONTINUOUS
10
4.52448
20
-2.49015
11
4.52443
21
-2.48957
0
LINE
8
BLACK
6
CONTINUOUS
10
4.52443
20
-2.48957
11
4.52444
21
-2.48943
0
LINE
8
BLACK
6
CONTINUOUS
10
4.52444
20
-2.48943
11
4.52444
21
-2.48761
0
LINE
8
BLACK
6
CONTINUOUS
10
4.52444
20
-2.48761
11
4.34728
21
-2.48761
0
LINE
8
BLACK
6
CONTINUOUS
10
4.34728
20
-2.48761
11
4.34728
21
-2.49366
0
LINE
8
BLACK
6
CONTINUOUS
10
4.34728
20
-2.49366
11
4.34723
21
-2.49409
0
LINE
8
BLACK
6
CONTINUOUS
10
4.34723
20
-2.49409
11
4.34706
21
-2.49465
0
LINE
8
BLACK
6
CONTINUOUS
10
4.34706
20
-2.49465
11
4.34679
21
-2.49516
0
LINE
8
BLACK
6
CONTINUOUS
10
4.34679
20
-2.49516
11
4.34642
21
-2.49561
0
LINE
8
BLACK
6
CONTINUOUS
10
4.34642
20
-2.49561
11
4.34597
21
-2.49598
0
LINE
8
BLACK
6
CONTINUOUS
10
4.34597
20
-2.49598
11
4.34546
21
-2.49625
0
LINE
8
BLACK
6
CONTINUOUS
10
4.34546
20
-2.49625
11
4.3449
21
-2.49642
0
LINE
8
BLACK
6
CONTINUOUS
10
4.3449
20
-2.49642
11
4.34432
21
-2.49648
0
LINE
8
BLACK
6
CONTINUOUS
10
4.34432
20
-2.49648
11
4.34374
21
-2.49642
0
LINE
8
BLACK
6
CONTINUOUS
10
4.34374
20
-2.49642
11
4.34319
21
-2.49625
0
LINE
8
BLACK
6
CONTINUOUS
10
4.34319
20
-2.49625
11
4.34267
21
-2.49598
0
LINE
8
BLACK
6
CONTINUOUS
10
4.34267
20
-2.49598
11
4.34222
21
-2.49561
0
LINE
8
BLACK
6
CONTINUOUS
10
4.34222
20
-2.49561
11
4.34186
21
-2.49516
0
LINE
8
BLACK
6
CONTINUOUS
10
4.34186
20
-2.49516
11
4.34158
21
-2.49465
0
LINE
8
BLACK
6
CONTINUOUS
10
4.34158
20
-2.49465
11
4.34141
21
-2.49409
0
LINE
8
BLACK
6
CONTINUOUS
10
4.34141
20
-2.49409
11
4.34137
21
-2.49366
0
LINE
8
BLACK
6
CONTINUOUS
10
4.34137
20
-2.49366
11
4.34137
21
-2.4848
0
LINE
8
BLACK
6
CONTINUOUS
10
4.34137
20
-2.4848
11
4.34136
21
-2.48465
0
LINE
8
BLACK
6
CONTINUOUS
10
4.34136
20
-2.48465
11
4.34141
21
-2.48407
0
LINE
8
BLACK
6
CONTINUOUS
10
4.34141
20
-2.48407
11
4.34158
21
-2.48352
0
LINE
8
BLACK
6
CONTINUOUS
10
4.34158
20
-2.48352
11
4.34186
21
-2.48301
0
LINE
8
BLACK
6
CONTINUOUS
10
4.34186
20
-2.48301
11
4.34222
21
-2.48256
0
LINE
8
BLACK
6
CONTINUOUS
10
4.34222
20
-2.48256
11
4.34267
21
-2.48219
0
LINE
8
BLACK
6
CONTINUOUS
10
4.34267
20
-2.48219
11
4.34319
21
-2.48191
0
LINE
8
BLACK
6
CONTINUOUS
10
4.34319
20
-2.48191
11
4.34374
21
-2.48174
0
LINE
8
BLACK
6
CONTINUOUS
10
4.34374
20
-2.48174
11
4.34418
21
-2.4817
0
LINE
8
BLACK
6
CONTINUOUS
10
4.34418
20
-2.4817
11
4.34432
21
-2.48169
0
LINE
8
BLACK
6
CONTINUOUS
10
4.34432
20
-2.48169
11
4.34447
21
-2.4817
0
LINE
8
BLACK
6
CONTINUOUS
10
4.34447
20
-2.4817
11
4.52725
21
-2.4817
0
LINE
8
BLACK
6
CONTINUOUS
10
4.52725
20
-2.4817
11
4.52739
21
-2.48169
0
LINE
8
BLACK
6
CONTINUOUS
10
4.52739
20
-2.48169
11
4.52754
21
-2.4817
0
LINE
8
BLACK
6
CONTINUOUS
10
4.45109
20
-2.4363
11
4.45131
21
-2.43637
0
LINE
8
BLACK
6
CONTINUOUS
10
4.45131
20
-2.43637
11
4.45152
21
-2.43648
0
LINE
8
BLACK
6
CONTINUOUS
10
4.45152
20
-2.43648
11
4.45169
21
-2.43662
0
LINE
8
BLACK
6
CONTINUOUS
10
4.45169
20
-2.43662
11
4.45184
21
-2.4368
0
LINE
8
BLACK
6
CONTINUOUS
10
4.45184
20
-2.4368
11
4.45195
21
-2.43701
0
LINE
8
BLACK
6
CONTINUOUS
10
4.45195
20
-2.43701
11
4.45202
21
-2.43723
0
LINE
8
BLACK
6
CONTINUOUS
10
4.45202
20
-2.43723
11
4.45204
21
-2.43746
0
LINE
8
BLACK
6
CONTINUOUS
10
4.45204
20
-2.43746
11
4.45204
21
-2.45339
0
LINE
8
BLACK
6
CONTINUOUS
10
4.45204
20
-2.45339
11
4.45204
21
-2.45341
0
LINE
8
BLACK
6
CONTINUOUS
10
4.45204
20
-2.45341
11
4.45203
21
-2.45344
0
LINE
8
BLACK
6
CONTINUOUS
10
4.45203
20
-2.45344
11
4.45203
21
-2.45348
0
LINE
8
BLACK
6
CONTINUOUS
10
4.45203
20
-2.45348
11
4.45202
21
-2.45356
0
LINE
8
BLACK
6
CONTINUOUS
10
4.45202
20
-2.45356
11
4.45201
21
-2.45364
0
LINE
8
BLACK
6
CONTINUOUS
10
4.45201
20
-2.45364
11
4.452
21
-2.45367
0
LINE
8
BLACK
6
CONTINUOUS
10
4.452
20
-2.45367
11
4.452
21
-2.4537
0
LINE
8
BLACK
6
CONTINUOUS
10
4.452
20
-2.4537
11
4.45197
21
-2.45378
0
LINE
8
BLACK
6
CONTINUOUS
10
4.45197
20
-2.45378
11
4.45194
21
-2.45386
0
LINE
8
BLACK
6
CONTINUOUS
10
4.45194
20
-2.45386
11
4.45193
21
-2.45389
0
LINE
8
BLACK
6
CONTINUOUS
10
4.45193
20
-2.45389
11
4.45191
21
-2.45392
0
LINE
8
BLACK
6
CONTINUOUS
10
4.45191
20
-2.45392
11
4.45098
21
-2.45579
0
LINE
8
BLACK
6
CONTINUOUS
10
4.45098
20
-2.45579
11
4.45097
21
-2.45581
0
LINE
8
BLACK
6
CONTINUOUS
10
4.45097
20
-2.45581
11
4.45093
21
-2.45587
0
LINE
8
BLACK
6
CONTINUOUS
10
4.45093
20
-2.45587
11
4.4509
21
-2.45592
0
LINE
8
BLACK
6
CONTINUOUS
10
4.4509
20
-2.45592
11
4.45087
21
-2.45596
0
LINE
8
BLACK
6
CONTINUOUS
10
4.45087
20
-2.45596
11
4.45084
21
-2.456
0
LINE
8
BLACK
6
CONTINUOUS
10
4.45084
20
-2.456
11
4.4508
21
-2.45605
0
LINE
8
BLACK
6
CONTINUOUS
10
4.4508
20
-2.45605
11
4.45075
21
-2.4561
0
LINE
8
BLACK
6
CONTINUOUS
10
4.45075
20
-2.4561
11
4.44982
21
-2.45704
0
LINE
8
BLACK
6
CONTINUOUS
10
4.44982
20
-2.45704
11
4.44981
21
-2.45705
0
LINE
8
BLACK
6
CONTINUOUS
10
4.44981
20
-2.45705
11
4.44975
21
-2.45709
0
LINE
8
BLACK
6
CONTINUOUS
10
4.44975
20
-2.45709
11
4.4497
21
-2.45714
0
LINE
8
BLACK
6
CONTINUOUS
10
4.4497
20
-2.45714
11
4.44966
21
-2.45716
0
LINE
8
BLACK
6
CONTINUOUS
10
4.44966
20
-2.45716
11
4.44962
21
-2.45719
0
LINE
8
BLACK
6
CONTINUOUS
10
4.44962
20
-2.45719
11
4.44957
21
-2.45722
0
LINE
8
BLACK
6
CONTINUOUS
10
4.44957
20
-2.45722
11
4.44951
21
-2.45726
0
LINE
8
BLACK
6
CONTINUOUS
10
4.44951
20
-2.45726
11
4.44764
21
-2.4582
0
LINE
8
BLACK
6
CONTINUOUS
10
4.44764
20
-2.4582
11
4.44762
21
-2.4582
0
LINE
8
BLACK
6
CONTINUOUS
10
4.44762
20
-2.4582
11
4.44759
21
-2.45822
0
LINE
8
BLACK
6
CONTINUOUS
10
4.44759
20
-2.45822
11
4.44756
21
-2.45823
0
LINE
8
BLACK
6
CONTINUOUS
10
4.44756
20
-2.45823
11
4.44748
21
-2.45826
0
LINE
8
BLACK
6
CONTINUOUS
10
4.44748
20
-2.45826
11
4.4474
21
-2.45828
0
LINE
8
BLACK
6
CONTINUOUS
10
4.4474
20
-2.45828
11
4.44737
21
-2.45829
0
LINE
8
BLACK
6
CONTINUOUS
10
4.44737
20
-2.45829
11
4.44734
21
-2.4583
0
LINE
8
BLACK
6
CONTINUOUS
10
4.44734
20
-2.4583
11
4.44726
21
-2.45831
0
LINE
8
BLACK
6
CONTINUOUS
10
4.44726
20
-2.45831
11
4.44718
21
-2.45832
0
LINE
8
BLACK
6
CONTINUOUS
10
4.44718
20
-2.45832
11
4.44714
21
-2.45832
0
LINE
8
BLACK
6
CONTINUOUS
10
4.44714
20
-2.45832
11
4.44711
21
-2.45832
0
LINE
8
BLACK
6
CONTINUOUS
10
4.44711
20
-2.45832
11
4.44336
21
-2.45832
0
LINE
8
BLACK
6
CONTINUOUS
10
4.44336
20
-2.45832
11
4.44334
21
-2.45832
0
LINE
8
BLACK
6
CONTINUOUS
10
4.44334
20
-2.45832
11
4.44331
21
-2.45832
0
LINE
8
BLACK
6
CONTINUOUS
10
4.44331
20
-2.45832
11
4.44327
21
-2.45832
0
LINE
8
BLACK
6
CONTINUOUS
10
4.44327
20
-2.45832
11
4.44319
21
-2.45831
0
LINE
8
BLACK
6
CONTINUOUS
10
4.44319
20
-2.45831
11
4.44311
21
-2.4583
0
LINE
8
BLACK
6
CONTINUOUS
10
4.44311
20
-2.4583
11
4.44308
21
-2.45829
0
LINE
8
BLACK
6
CONTINUOUS
10
4.44308
20
-2.45829
11
4.44304
21
-2.45828
0
LINE
8
BLACK
6
CONTINUOUS
10
4.44304
20
-2.45828
11
4.44297
21
-2.45825
0
LINE
8
BLACK
6
CONTINUOUS
10
4.44297
20
-2.45825
11
4.44289
21
-2.45823
0
LINE
8
BLACK
6
CONTINUOUS
10
4.44289
20
-2.45823
11
4.44286
21
-2.45821
0
LINE
8
BLACK
6
CONTINUOUS
10
4.44286
20
-2.45821
11
4.44283
21
-2.4582
0
LINE
8
BLACK
6
CONTINUOUS
10
4.44283
20
-2.4582
11
4.44095
21
-2.45726
0
LINE
8
BLACK
6
CONTINUOUS
10
4.44095
20
-2.45726
11
4.44094
21
-2.45725
0
LINE
8
BLACK
6
CONTINUOUS
10
4.44094
20
-2.45725
11
4.44088
21
-2.45722
0
LINE
8
BLACK
6
CONTINUOUS
10
4.44088
20
-2.45722
11
4.44083
21
-2.45719
0
LINE
8
BLACK
6
CONTINUOUS
10
4.44083
20
-2.45719
11
4.44079
21
-2.45715
0
LINE
8
BLACK
6
CONTINUOUS
10
4.44079
20
-2.45715
11
4.44075
21
-2.45713
0
LINE
8
BLACK
6
CONTINUOUS
10
4.44075
20
-2.45713
11
4.4407
21
-2.45708
0
LINE
8
BLACK
6
CONTINUOUS
10
4.4407
20
-2.45708
11
4.44065
21
-2.45704
0
LINE
8
BLACK
6
CONTINUOUS
10
4.44065
20
-2.45704
11
4.43971
21
-2.4561
0
LINE
8
BLACK
6
CONTINUOUS
10
4.43971
20
-2.4561
11
4.4397
21
-2.45609
0
LINE
8
BLACK
6
CONTINUOUS
10
4.4397
20
-2.45609
11
4.43966
21
-2.45604
0
LINE
8
BLACK
6
CONTINUOUS
10
4.43966
20
-2.45604
11
4.43961
21
-2.45599
0
LINE
8
BLACK
6
CONTINUOUS
10
4.43961
20
-2.45599
11
4.43959
21
-2.45595
0
LINE
8
BLACK
6
CONTINUOUS
10
4.43959
20
-2.45595
11
4.43955
21
-2.45591
0
LINE
8
BLACK
6
CONTINUOUS
10
4.43955
20
-2.45591
11
4.43952
21
-2.45585
0
LINE
8
BLACK
6
CONTINUOUS
10
4.43952
20
-2.45585
11
4.43949
21
-2.45579
0
LINE
8
BLACK
6
CONTINUOUS
10
4.43949
20
-2.45579
11
4.43855
21
-2.45392
0
LINE
8
BLACK
6
CONTINUOUS
10
4.43855
20
-2.45392
11
4.43854
21
-2.45391
0
LINE
8
BLACK
6
CONTINUOUS
10
4.43854
20
-2.45391
11
4.43853
21
-2.45387
0
LINE
8
BLACK
6
CONTINUOUS
10
4.43853
20
-2.45387
11
4.43852
21
-2.45384
0
LINE
8
BLACK
6
CONTINUOUS
10
4.43852
20
-2.45384
11
4.43849
21
-2.45376
0
LINE
8
BLACK
6
CONTINUOUS
10
4.43849
20
-2.45376
11
4.43846
21
-2.45369
0
LINE
8
BLACK
6
CONTINUOUS
10
4.43846
20
-2.45369
11
4.43846
21
-2.45365
0
LINE
8
BLACK
6
CONTINUOUS
10
4.43846
20
-2.45365
11
4.43845
21
-2.45362
0
LINE
8
BLACK
6
CONTINUOUS
10
4.43845
20
-2.45362
11
4.43844
21
-2.45354
0
LINE
8
BLACK
6
CONTINUOUS
10
4.43844
20
-2.45354
11
4.43843
21
-2.45346
0
LINE
8
BLACK
6
CONTINUOUS
10
4.43843
20
-2.45346
11
4.43843
21
-2.45343
0
LINE
8
BLACK
6
CONTINUOUS
10
4.43843
20
-2.45343
11
4.43843
21
-2.45339
0
LINE
8
BLACK
6
CONTINUOUS
10
4.43843
20
-2.45339
11
4.43843
21
-2.43746
0
LINE
8
BLACK
6
CONTINUOUS
10
4.43843
20
-2.43746
11
4.43843
21
-2.43744
0
LINE
8
BLACK
6
CONTINUOUS
10
4.43843
20
-2.43744
11
4.43845
21
-2.43721
0
LINE
8
BLACK
6
CONTINUOUS
10
4.43845
20
-2.43721
11
4.43852
21
-2.43699
0
LINE
8
BLACK
6
CONTINUOUS
10
4.43852
20
-2.43699
11
4.43863
21
-2.43679
0
LINE
8
BLACK
6
CONTINUOUS
10
4.43863
20
-2.43679
11
4.43878
21
-2.43661
0
LINE
8
BLACK
6
CONTINUOUS
10
4.43878
20
-2.43661
11
4.43896
21
-2.43647
0
LINE
8
BLACK
6
CONTINUOUS
10
4.43896
20
-2.43647
11
4.43917
21
-2.43636
0
LINE
8
BLACK
6
CONTINUOUS
10
4.43917
20
-2.43636
11
4.43939
21
-2.4363
0
LINE
8
BLACK
6
CONTINUOUS
10
4.43939
20
-2.4363
11
4.43962
21
-2.43628
0
LINE
8
BLACK
6
CONTINUOUS
10
4.43962
20
-2.43628
11
4.43985
21
-2.4363
0
LINE
8
BLACK
6
CONTINUOUS
10
4.43985
20
-2.4363
11
4.44007
21
-2.43637
0
LINE
8
BLACK
6
CONTINUOUS
10
4.44007
20
-2.43637
11
4.44027
21
-2.43648
0
LINE
8
BLACK
6
CONTINUOUS
10
4.44027
20
-2.43648
11
4.44045
21
-2.43662
0
LINE
8
BLACK
6
CONTINUOUS
10
4.44045
20
-2.43662
11
4.44059
21
-2.4368
0
LINE
8
BLACK
6
CONTINUOUS
10
4.44059
20
-2.4368
11
4.4407
21
-2.43701
0
LINE
8
BLACK
6
CONTINUOUS
10
4.4407
20
-2.43701
11
4.44077
21
-2.43723
0
LINE
8
BLACK
6
CONTINUOUS
10
4.44077
20
-2.43723
11
4.44079
21
-2.43746
0
LINE
8
BLACK
6
CONTINUOUS
10
4.44079
20
-2.43746
11
4.44079
21
-2.45311
0
LINE
8
BLACK
6
CONTINUOUS
10
4.44079
20
-2.45311
11
4.44152
21
-2.45457
0
LINE
8
BLACK
6
CONTINUOUS
10
4.44152
20
-2.45457
11
4.44218
21
-2.45523
0
LINE
8
BLACK
6
CONTINUOUS
10
4.44218
20
-2.45523
11
4.44364
21
-2.45596
0
LINE
8
BLACK
6
CONTINUOUS
10
4.44364
20
-2.45596
11
4.44683
21
-2.45596
0
LINE
8
BLACK
6
CONTINUOUS
10
4.44683
20
-2.45596
11
4.44828
21
-2.45523
0
LINE
8
BLACK
6
CONTINUOUS
10
4.44828
20
-2.45523
11
4.44895
21
-2.45457
0
LINE
8
BLACK
6
CONTINUOUS
10
4.44895
20
-2.45457
11
4.44968
21
-2.45311
0
LINE
8
BLACK
6
CONTINUOUS
10
4.44968
20
-2.45311
11
4.44968
21
-2.43746
0
LINE
8
BLACK
6
CONTINUOUS
10
4.44968
20
-2.43746
11
4.44968
21
-2.43744
0
LINE
8
BLACK
6
CONTINUOUS
10
4.44968
20
-2.43744
11
4.4497
21
-2.43721
0
LINE
8
BLACK
6
CONTINUOUS
10
4.4497
20
-2.43721
11
4.44977
21
-2.43699
0
LINE
8
BLACK
6
CONTINUOUS
10
4.44977
20
-2.43699
11
4.44988
21
-2.43679
0
LINE
8
BLACK
6
CONTINUOUS
10
4.44988
20
-2.43679
11
4.45003
21
-2.43661
0
LINE
8
BLACK
6
CONTINUOUS
10
4.45003
20
-2.43661
11
4.45021
21
-2.43647
0
LINE
8
BLACK
6
CONTINUOUS
10
4.45021
20
-2.43647
11
4.45041
21
-2.43636
0
LINE
8
BLACK
6
CONTINUOUS
10
4.45041
20
-2.43636
11
4.45064
21
-2.4363
0
LINE
8
BLACK
6
CONTINUOUS
10
4.45064
20
-2.4363
11
4.45086
21
-2.43628
0
LINE
8
BLACK
6
CONTINUOUS
10
4.45086
20
-2.43628
11
4.45109
21
-2.4363
0
LINE
8
BLACK
6
CONTINUOUS
10
4.41991
20
-2.45832
11
4.41968
21
-2.4583
0
LINE
8
BLACK
6
CONTINUOUS
10
4.41968
20
-2.4583
11
4.41946
21
-2.45823
0
LINE
8
BLACK
6
CONTINUOUS
10
4.41946
20
-2.45823
11
4.41926
21
-2.45812
0
LINE
8
BLACK
6
CONTINUOUS
10
4.41926
20
-2.45812
11
4.41908
21
-2.45797
0
LINE
8
BLACK
6
CONTINUOUS
10
4.41908
20
-2.45797
11
4.41893
21
-2.45779
0
LINE
8
BLACK
6
CONTINUOUS
10
4.41893
20
-2.45779
11
4.41883
21
-2.45758
0
LINE
8
BLACK
6
CONTINUOUS
10
4.41883
20
-2.45758
11
4.41876
21
-2.45736
0
LINE
8
BLACK
6
CONTINUOUS
10
4.41876
20
-2.45736
11
4.41874
21
-2.45713
0
LINE
8
BLACK
6
CONTINUOUS
10
4.41874
20
-2.45713
11
4.41877
21
-2.4569
0
LINE
8
BLACK
6
CONTINUOUS
10
4.41877
20
-2.4569
11
4.41883
21
-2.45668
0
LINE
8
BLACK
6
CONTINUOUS
10
4.41883
20
-2.45668
11
4.41894
21
-2.45648
0
LINE
8
BLACK
6
CONTINUOUS
10
4.41894
20
-2.45648
11
4.41909
21
-2.4563
0
LINE
8
BLACK
6
CONTINUOUS
10
4.41909
20
-2.4563
11
4.41927
21
-2.45616
0
LINE
8
BLACK
6
CONTINUOUS
10
4.41927
20
-2.45616
11
4.41947
21
-2.45605
0
LINE
8
BLACK
6
CONTINUOUS
10
4.41947
20
-2.45605
11
4.41969
21
-2.45598
0
LINE
8
BLACK
6
CONTINUOUS
10
4.41969
20
-2.45598
11
4.41992
21
-2.45596
0
LINE
8
BLACK
6
CONTINUOUS
10
4.41992
20
-2.45596
11
4.42926
21
-2.45596
0
LINE
8
BLACK
6
CONTINUOUS
10
4.42926
20
-2.45596
11
4.42002
21
-2.44673
0
LINE
8
BLACK
6
CONTINUOUS
10
4.42002
20
-2.44673
11
4.42001
21
-2.44672
0
LINE
8
BLACK
6
CONTINUOUS
10
4.42001
20
-2.44672
11
4.41999
21
-2.44669
0
LINE
8
BLACK
6
CONTINUOUS
10
4.41999
20
-2.44669
11
4.41997
21
-2.44667
0
LINE
8
BLACK
6
CONTINUOUS
10
4.41997
20
-2.44667
11
4.41992
21
-2.4466
0
LINE
8
BLACK
6
CONTINUOUS
10
4.41992
20
-2.4466
11
4.41987
21
-2.44654
0
LINE
8
BLACK
6
CONTINUOUS
10
4.41987
20
-2.44654
11
4.41985
21
-2.44651
0
LINE
8
BLACK
6
CONTINUOUS
10
4.41985
20
-2.44651
11
4.41983
21
-2.44648
0
LINE
8
BLACK
6
CONTINUOUS
10
4.41983
20
-2.44648
11
4.4198
21
-2.4464
0
LINE
8
BLACK
6
CONTINUOUS
10
4.4198
20
-2.4464
11
4.41976
21
-2.44633
0
LINE
8
BLACK
6
CONTINUOUS
10
4.41976
20
-2.44633
11
4.41975
21
-2.4463
0
LINE
8
BLACK
6
CONTINUOUS
10
4.41975
20
-2.4463
11
4.41974
21
-2.44627
0
LINE
8
BLACK
6
CONTINUOUS
10
4.41974
20
-2.44627
11
4.4188
21
-2.44345
0
LINE
8
BLACK
6
CONTINUOUS
10
4.4188
20
-2.44345
11
4.4188
21
-2.44344
0
LINE
8
BLACK
6
CONTINUOUS
10
4.4188
20
-2.44344
11
4.41878
21
-2.44337
0
LINE
8
BLACK
6
CONTINUOUS
10
4.41878
20
-2.44337
11
4.41876
21
-2.44331
0
LINE
8
BLACK
6
CONTINUOUS
10
4.41876
20
-2.44331
11
4.41876
21
-2.44326
0
LINE
8
BLACK
6
CONTINUOUS
10
4.41876
20
-2.44326
11
4.41875
21
-2.44321
0
LINE
8
BLACK
6
CONTINUOUS
10
4.41875
20
-2.44321
11
4.41875
21
-2.44315
0
LINE
8
BLACK
6
CONTINUOUS
10
4.41875
20
-2.44315
11
4.41874
21
-2.44308
0
LINE
8
BLACK
6
CONTINUOUS
10
4.41874
20
-2.44308
11
4.41874
21
-2.44121
0
LINE
8
BLACK
6
CONTINUOUS
10
4.41874
20
-2.44121
11
4.41874
21
-2.44119
0
LINE
8
BLACK
6
CONTINUOUS
10
4.41874
20
-2.44119
11
4.41875
21
-2.44115
0
LINE
8
BLACK
6
CONTINUOUS
10
4.41875
20
-2.44115
11
4.41874
21
-2.44112
0
LINE
8
BLACK
6
CONTINUOUS
10
4.41874
20
-2.44112
11
4.41876
21
-2.44104
0
LINE
8
BLACK
6
CONTINUOUS
10
4.41876
20
-2.44104
11
4.41877
21
-2.44096
0
LINE
8
BLACK
6
CONTINUOUS
10
4.41877
20
-2.44096
11
4.41878
21
-2.44093
0
LINE
8
BLACK
6
CONTINUOUS
10
4.41878
20
-2.44093
11
4.41878
21
-2.44089
0
LINE
8
BLACK
6
CONTINUOUS
10
4.41878
20
-2.44089
11
4.41881
21
-2.44082
0
LINE
8
BLACK
6
CONTINUOUS
10
4.41881
20
-2.44082
11
4.41884
21
-2.44074
0
LINE
8
BLACK
6
CONTINUOUS
10
4.41884
20
-2.44074
11
4.41885
21
-2.44071
0
LINE
8
BLACK
6
CONTINUOUS
10
4.41885
20
-2.44071
11
4.41887
21
-2.44068
0
LINE
8
BLACK
6
CONTINUOUS
10
4.41887
20
-2.44068
11
4.4198
21
-2.4388
0
LINE
8
BLACK
6
CONTINUOUS
10
4.4198
20
-2.4388
11
4.41981
21
-2.43879
0
LINE
8
BLACK
6
CONTINUOUS
10
4.41981
20
-2.43879
11
4.41985
21
-2.43873
0
LINE
8
BLACK
6
CONTINUOUS
10
4.41985
20
-2.43873
11
4.41988
21
-2.43867
0
LINE
8
BLACK
6
CONTINUOUS
10
4.41988
20
-2.43867
11
4.41991
21
-2.43864
0
LINE
8
BLACK
6
CONTINUOUS
10
4.41991
20
-2.43864
11
4.41994
21
-2.43859
0
LINE
8
BLACK
6
CONTINUOUS
10
4.41994
20
-2.43859
11
4.41998
21
-2.43855
0
LINE
8
BLACK
6
CONTINUOUS
10
4.41998
20
-2.43855
11
4.42002
21
-2.4385
0
LINE
8
BLACK
6
CONTINUOUS
10
4.42002
20
-2.4385
11
4.42096
21
-2.43756
0
LINE
8
BLACK
6
CONTINUOUS
10
4.42096
20
-2.43756
11
4.42097
21
-2.43755
0
LINE
8
BLACK
6
CONTINUOUS
10
4.42097
20
-2.43755
11
4.42103
21
-2.43751
0
LINE
8
BLACK
6
CONTINUOUS
10
4.42103
20
-2.43751
11
4.42107
21
-2.43746
0
LINE
8
BLACK
6
CONTINUOUS
10
4.42107
20
-2.43746
11
4.42112
21
-2.43743
0
LINE
8
BLACK
6
CONTINUOUS
10
4.42112
20
-2.43743
11
4.42115
21
-2.4374
0
LINE
8
BLACK
6
CONTINUOUS
10
4.42115
20
-2.4374
11
4.42121
21
-2.43737
0
LINE
8
BLACK
6
CONTINUOUS
10
4.42121
20
-2.43737
11
4.42127
21
-2.43734
0
LINE
8
BLACK
6
CONTINUOUS
10
4.42127
20
-2.43734
11
4.42314
21
-2.4364
0
LINE
8
BLACK
6
CONTINUOUS
10
4.42314
20
-2.4364
11
4.42316
21
-2.43639
0
LINE
8
BLACK
6
CONTINUOUS
10
4.42316
20
-2.43639
11
4.42319
21
-2.43638
0
LINE
8
BLACK
6
CONTINUOUS
10
4.42319
20
-2.43638
11
4.42322
21
-2.43636
0
LINE
8
BLACK
6
CONTINUOUS
10
4.42322
20
-2.43636
11
4.4233
21
-2.43634
0
LINE
8
BLACK
6
CONTINUOUS
10
4.4233
20
-2.43634
11
4.42338
21
-2.43631
0
LINE
8
BLACK
6
CONTINUOUS
10
4.42338
20
-2.43631
11
4.42341
21
-2.43631
0
LINE
8
BLACK
6
CONTINUOUS
10
4.42341
20
-2.43631
11
4.42344
21
-2.4363
0
LINE
8
BLACK
6
CONTINUOUS
10
4.42344
20
-2.4363
11
4.42352
21
-2.43629
0
LINE
8
BLACK
6
CONTINUOUS
10
4.42352
20
-2.43629
11
4.4236
21
-2.43628
0
LINE
8
BLACK
6
CONTINUOUS
10
4.4236
20
-2.43628
11
4.42364
21
-2.43628
0
LINE
8
BLACK
6
CONTINUOUS
10
4.42364
20
-2.43628
11
4.42367
21
-2.43628
0
LINE
8
BLACK
6
CONTINUOUS
10
4.42367
20
-2.43628
11
4.42836
21
-2.43628
0
LINE
8
BLACK
6
CONTINUOUS
10
4.42836
20
-2.43628
11
4.42838
21
-2.43628
0
LINE
8
BLACK
6
CONTINUOUS
10
4.42838
20
-2.43628
11
4.42841
21
-2.43628
0
LINE
8
BLACK
6
CONTINUOUS
10
4.42841
20
-2.43628
11
4.42844
21
-2.43628
0
LINE
8
BLACK
6
CONTINUOUS
10
4.42844
20
-2.43628
11
4.42852
21
-2.43629
0
LINE
8
BLACK
6
CONTINUOUS
10
4.42852
20
-2.43629
11
4.4286
21
-2.4363
0
LINE
8
BLACK
6
CONTINUOUS
10
4.4286
20
-2.4363
11
4.42864
21
-2.43631
0
LINE
8
BLACK
6
CONTINUOUS
10
4.42864
20
-2.43631
11
4.42867
21
-2.43632
0
LINE
8
BLACK
6
CONTINUOUS
10
4.42867
20
-2.43632
11
4.42875
21
-2.43635
0
LINE
8
BLACK
6
CONTINUOUS
10
4.42875
20
-2.43635
11
4.42882
21
-2.43637
0
LINE
8
BLACK
6
CONTINUOUS
10
4.42882
20
-2.43637
11
4.42885
21
-2.43639
0
LINE
8
BLACK
6
CONTINUOUS
10
4.42885
20
-2.43639
11
4.42889
21
-2.4364
0
LINE
8
BLACK
6
CONTINUOUS
10
4.42889
20
-2.4364
11
4.43076
21
-2.43734
0
LINE
8
BLACK
6
CONTINUOUS
10
4.43076
20
-2.43734
11
4.43078
21
-2.43734
0
LINE
8
BLACK
6
CONTINUOUS
10
4.43078
20
-2.43734
11
4.43083
21
-2.43738
0
LINE
8
BLACK
6
CONTINUOUS
10
4.43083
20
-2.43738
11
4.43089
21
-2.43741
0
LINE
8
BLACK
6
CONTINUOUS
10
4.43089
20
-2.43741
11
4.43093
21
-2.43744
0
LINE
8
BLACK
6
CONTINUOUS
10
4.43093
20
-2.43744
11
4.43097
21
-2.43747
0
LINE
8
BLACK
6
CONTINUOUS
10
4.43097
20
-2.43747
11
4.43102
21
-2.43752
0
LINE
8
BLACK
6
CONTINUOUS
10
4.43102
20
-2.43752
11
4.43107
21
-2.43756
0
LINE
8
BLACK
6
CONTINUOUS
10
4.43107
20
-2.43756
11
4.43201
21
-2.4385
0
LINE
8
BLACK
6
CONTINUOUS
10
4.43201
20
-2.4385
11
4.43202
21
-2.43851
0
LINE
8
BLACK
6
CONTINUOUS
10
4.43202
20
-2.43851
11
4.43216
21
-2.43869
0
LINE
8
BLACK
6
CONTINUOUS
10
4.43216
20
-2.43869
11
4.43227
21
-2.43889
0
LINE
8
BLACK
6
CONTINUOUS
10
4.43227
20
-2.43889
11
4.43233
21
-2.43911
0
LINE
8
BLACK
6
CONTINUOUS
10
4.43233
20
-2.43911
11
4.43235
21
-2.43934
0
LINE
8
BLACK
6
CONTINUOUS
10
4.43235
20
-2.43934
11
4.43233
21
-2.43957
0
LINE
8
BLACK
6
CONTINUOUS
10
4.43233
20
-2.43957
11
4.43226
21
-2.43979
0
LINE
8
BLACK
6
CONTINUOUS
10
4.43226
20
-2.43979
11
4.43215
21
-2.43999
0
LINE
8
BLACK
6
CONTINUOUS
10
4.43215
20
-2.43999
11
4.432
21
-2.44017
0
LINE
8
BLACK
6
CONTINUOUS
10
4.432
20
-2.44017
11
4.43182
21
-2.44032
0
LINE
8
BLACK
6
CONTINUOUS
10
4.43182
20
-2.44032
11
4.43162
21
-2.44042
0
LINE
8
BLACK
6
CONTINUOUS
10
4.43162
20
-2.44042
11
4.4314
21
-2.44049
0
LINE
8
BLACK
6
CONTINUOUS
10
4.4314
20
-2.44049
11
4.43117
21
-2.44051
0
LINE
8
BLACK
6
CONTINUOUS
10
4.43117
20
-2.44051
11
4.43094
21
-2.44049
0
LINE
8
BLACK
6
CONTINUOUS
10
4.43094
20
-2.44049
11
4.43072
21
-2.44042
0
LINE
8
BLACK
6
CONTINUOUS
10
4.43072
20
-2.44042
11
4.43051
21
-2.44031
0
LINE
8
BLACK
6
CONTINUOUS
10
4.43051
20
-2.44031
11
4.43034
21
-2.44017
0
LINE
8
BLACK
6
CONTINUOUS
10
4.43034
20
-2.44017
11
4.42953
21
-2.43936
0
LINE
8
BLACK
6
CONTINUOUS
10
4.42953
20
-2.43936
11
4.42808
21
-2.43864
0
LINE
8
BLACK
6
CONTINUOUS
10
4.42808
20
-2.43864
11
4.42395
21
-2.43864
0
LINE
8
BLACK
6
CONTINUOUS
10
4.42395
20
-2.43864
11
4.4225
21
-2.43936
0
LINE
8
BLACK
6
CONTINUOUS
10
4.4225
20
-2.43936
11
4.42183
21
-2.44003
0
LINE
8
BLACK
6
CONTINUOUS
10
4.42183
20
-2.44003
11
4.4211
21
-2.44148
0
LINE
8
BLACK
6
CONTINUOUS
10
4.4211
20
-2.44148
11
4.4211
21
-2.44289
0
LINE
8
BLACK
6
CONTINUOUS
10
4.4211
20
-2.44289
11
4.42189
21
-2.44525
0
LINE
8
BLACK
6
CONTINUOUS
10
4.42189
20
-2.44525
11
4.43294
21
-2.45631
0
LINE
8
BLACK
6
CONTINUOUS
10
4.43294
20
-2.45631
11
4.43296
21
-2.45632
0
LINE
8
BLACK
6
CONTINUOUS
10
4.43296
20
-2.45632
11
4.43302
21
-2.4564
0
LINE
8
BLACK
6
CONTINUOUS
10
4.43302
20
-2.4564
11
4.4331
21
-2.45649
0
LINE
8
BLACK
6
CONTINUOUS
10
4.4331
20
-2.45649
11
4.4331
21
-2.4565
0
LINE
8
BLACK
6
CONTINUOUS
10
4.4331
20
-2.4565
11
4.4331
21
-2.4565
0
LINE
8
BLACK
6
CONTINUOUS
10
4.4331
20
-2.4565
11
4.43315
21
-2.4566
0
LINE
8
BLACK
6
CONTINUOUS
10
4.43315
20
-2.4566
11
4.4332
21
-2.4567
0
LINE
8
BLACK
6
CONTINUOUS
10
4.4332
20
-2.4567
11
4.4332
21
-2.4567
0
LINE
8
BLACK
6
CONTINUOUS
10
4.4332
20
-2.4567
11
4.43321
21
-2.4567
0
LINE
8
BLACK
6
CONTINUOUS
10
4.43321
20
-2.4567
11
4.43324
21
-2.45681
0
LINE
8
BLACK
6
CONTINUOUS
10
4.43324
20
-2.45681
11
4.43327
21
-2.45692
0
LINE
8
BLACK
6
CONTINUOUS
10
4.43327
20
-2.45692
11
4.43327
21
-2.45692
0
LINE
8
BLACK
6
CONTINUOUS
10
4.43327
20
-2.45692
11
4.43327
21
-2.45692
0
LINE
8
BLACK
6
CONTINUOUS
10
4.43327
20
-2.45692
11
4.43328
21
-2.45704
0
LINE
8
BLACK
6
CONTINUOUS
10
4.43328
20
-2.45704
11
4.43329
21
-2.45715
0
LINE
8
BLACK
6
CONTINUOUS
10
4.43329
20
-2.45715
11
4.43329
21
-2.45715
0
LINE
8
BLACK
6
CONTINUOUS
10
4.43329
20
-2.45715
11
4.43329
21
-2.45715
0
LINE
8
BLACK
6
CONTINUOUS
10
4.43329
20
-2.45715
11
4.43328
21
-2.45727
0
LINE
8
BLACK
6
CONTINUOUS
10
4.43328
20
-2.45727
11
4.43327
21
-2.45738
0
LINE
8
BLACK
6
CONTINUOUS
10
4.43327
20
-2.45738
11
4.43327
21
-2.45738
0
LINE
8
BLACK
6
CONTINUOUS
10
4.43327
20
-2.45738
11
4.43326
21
-2.45738
0
LINE
8
BLACK
6
CONTINUOUS
10
4.43326
20
-2.45738
11
4.43323
21
-2.4575
0
LINE
8
BLACK
6
CONTINUOUS
10
4.43323
20
-2.4575
11
4.4332
21
-2.4576
0
LINE
8
BLACK
6
CONTINUOUS
10
4.4332
20
-2.4576
11
4.4332
21
-2.4576
0
LINE
8
BLACK
6
CONTINUOUS
10
4.4332
20
-2.4576
11
4.4332
21
-2.4576
0
LINE
8
BLACK
6
CONTINUOUS
10
4.4332
20
-2.4576
11
4.43314
21
-2.45771
0
LINE
8
BLACK
6
CONTINUOUS
10
4.43314
20
-2.45771
11
4.43309
21
-2.4578
0
LINE
8
BLACK
6
CONTINUOUS
10
4.43309
20
-2.4578
11
4.43309
21
-2.4578
0
LINE
8
BLACK
6
CONTINUOUS
10
4.43309
20
-2.4578
11
4.43309
21
-2.45781
0
LINE
8
BLACK
6
CONTINUOUS
10
4.43309
20
-2.45781
11
4.43301
21
-2.4579
0
LINE
8
BLACK
6
CONTINUOUS
10
4.43301
20
-2.4579
11
4.43294
21
-2.45798
0
LINE
8
BLACK
6
CONTINUOUS
10
4.43294
20
-2.45798
11
4.43294
21
-2.45798
0
LINE
8
BLACK
6
CONTINUOUS
10
4.43294
20
-2.45798
11
4.43294
21
-2.45798
0
LINE
8
BLACK
6
CONTINUOUS
10
4.43294
20
-2.45798
11
4.43285
21
-2.45805
0
LINE
8
BLACK
6
CONTINUOUS
10
4.43285
20
-2.45805
11
4.43276
21
-2.45813
0
LINE
8
BLACK
6
CONTINUOUS
10
4.43276
20
-2.45813
11
4.43276
21
-2.45813
0
LINE
8
BLACK
6
CONTINUOUS
10
4.43276
20
-2.45813
11
4.43276
21
-2.45813
0
LINE
8
BLACK
6
CONTINUOUS
10
4.43276
20
-2.45813
11
4.43266
21
-2.45818
0
LINE
8
BLACK
6
CONTINUOUS
10
4.43266
20
-2.45818
11
4.43256
21
-2.45823
0
LINE
8
BLACK
6
CONTINUOUS
10
4.43256
20
-2.45823
11
4.43256
21
-2.45823
0
LINE
8
BLACK
6
CONTINUOUS
10
4.43256
20
-2.45823
11
4.43255
21
-2.45823
0
LINE
8
BLACK
6
CONTINUOUS
10
4.43255
20
-2.45823
11
4.43245
21
-2.45827
0
LINE
8
BLACK
6
CONTINUOUS
10
4.43245
20
-2.45827
11
4.43234
21
-2.4583
0
LINE
8
BLACK
6
CONTINUOUS
10
4.43234
20
-2.4583
11
4.43234
21
-2.4583
0
LINE
8
BLACK
6
CONTINUOUS
10
4.43234
20
-2.4583
11
4.43233
21
-2.4583
0
LINE
8
BLACK
6
CONTINUOUS
10
4.43233
20
-2.4583
11
4.43222
21
-2.45831
0
LINE
8
BLACK
6
CONTINUOUS
10
4.43222
20
-2.45831
11
4.43211
21
-2.45832
0
LINE
8
BLACK
6
CONTINUOUS
10
4.43211
20
-2.45832
11
4.41992
21
-2.45832
0
LINE
8
BLACK
6
CONTINUOUS
10
4.41992
20
-2.45832
11
4.41991
21
-2.45832
  0
ENDSEC
  0
EOF
